# Blender 5.1.2
# www.blender.org
mtllib btn_mute.mtl
o btn_mute
v -0.033831 -0.208984 -0.084100
v -0.040567 -0.224124 -0.091792
v -0.033831 -0.224354 -0.091269
v -0.040567 -0.208754 -0.084623
v -0.025845 -0.224423 -0.091093
v -0.025843 -0.209053 -0.083925
v -0.018119 -0.209044 -0.083924
v -0.018045 -0.224413 -0.091092
v -0.012177 -0.209036 -0.083923
v -0.007498 -0.209030 -0.083923
v -0.012108 -0.224406 -0.091092
v -0.003582 -0.224395 -0.091091
v -0.045895 -0.223212 -0.093803
v -0.049659 -0.221098 -0.098444
v -0.051150 -0.218378 -0.104254
v -0.049659 -0.215653 -0.109773
v -0.045895 -0.213522 -0.114014
v -0.040567 -0.212587 -0.115987
v -0.045895 -0.198152 -0.106845
v -0.040567 -0.197217 -0.108818
v -0.033831 -0.196965 -0.109442
v -0.033831 -0.212334 -0.116610
v -0.025841 -0.212250 -0.116802
v -0.017253 -0.212250 -0.116778
v -0.008609 -0.212249 -0.116753
v -0.000000 -0.212249 -0.116741
v 0.000000 -0.196879 -0.109573
v -0.008639 -0.196880 -0.109585
v -0.025843 -0.196880 -0.109633
v -0.049659 -0.200283 -0.102605
v -0.051150 -0.203009 -0.097086
v -0.049659 -0.205728 -0.091276
v -0.045895 -0.207843 -0.086635
v -0.000063 -0.224393 -0.091090
v -0.003273 -0.209026 -0.083922
v 0.003293 -0.224395 -0.091091
v 0.007121 -0.209030 -0.083923
v 0.011696 -0.209036 -0.083923
v 0.003312 -0.209025 -0.083922
v -0.000063 -0.209023 -0.083922
v 0.010355 -0.224404 -0.091091
v 0.025846 -0.224423 -0.091093
v 0.017996 -0.224413 -0.091092
v 0.018057 -0.209044 -0.083924
v 0.025843 -0.209053 -0.083925
v 0.033831 -0.208984 -0.084100
v 0.033831 -0.224354 -0.091269
v 0.040567 -0.224124 -0.091792
v 0.040567 -0.208754 -0.084623
v 0.045895 -0.207843 -0.086635
v 0.049659 -0.205728 -0.091276
v 0.045895 -0.223212 -0.093803
v 0.049659 -0.221098 -0.098444
v 0.051150 -0.203009 -0.097086
v 0.051150 -0.218378 -0.104254
v 0.049659 -0.215653 -0.109773
v 0.045895 -0.213522 -0.114014
v 0.040567 -0.212587 -0.115987
v 0.033831 -0.212334 -0.116610
v 0.025841 -0.212250 -0.116802
v 0.008608 -0.212249 -0.116753
v 0.017252 -0.212250 -0.116778
v -0.000000 -0.212249 -0.116741
v 0.000000 -0.196879 -0.109573
v 0.008640 -0.196880 -0.109585
v 0.025843 -0.196880 -0.109633
v 0.033831 -0.196965 -0.109442
v 0.040567 -0.197217 -0.108818
v 0.045895 -0.198152 -0.106845
v 0.049659 -0.200283 -0.102605
v 0.025673 -0.225072 -0.116381
v 0.029452 -0.227269 -0.111640
v 0.033027 -0.225133 -0.116248
v 0.012904 -0.227268 -0.111645
v 0.008279 -0.225090 -0.116342
v 0.000000 -0.224867 -0.116654
v 0.009633 -0.224861 -0.116666
v 0.000002 -0.225093 -0.116335
v 0.000000 -0.226864 -0.112516
v -0.008255 -0.225090 -0.116342
v -0.009634 -0.224861 -0.116666
v -0.025674 -0.225072 -0.116381
v -0.033080 -0.224908 -0.116567
v -0.025652 -0.224844 -0.116703
v -0.033025 -0.225133 -0.116248
v -0.042351 -0.225704 -0.114859
v -0.038546 -0.225117 -0.116120
v -0.042105 -0.225894 -0.114606
v -0.038405 -0.225334 -0.115816
v -0.044456 -0.227035 -0.112147
v -0.045290 -0.228503 -0.108980
v -0.036368 -0.228092 -0.109867
v -0.025643 -0.226852 -0.112540
v -0.025657 -0.229339 -0.107177
v -0.012904 -0.227268 -0.111645
v -0.004309 -0.229763 -0.106262
v -0.004810 -0.232090 -0.101246
v 0.004309 -0.228916 -0.108089
v -0.017399 -0.232091 -0.101242
v -0.025626 -0.232191 -0.100858
v -0.001726 -0.232187 -0.100866
v -0.025664 -0.232093 -0.101237
v -0.033111 -0.232134 -0.100981
v -0.033058 -0.232037 -0.101358
v -0.039062 -0.230082 -0.105576
v -0.038392 -0.231868 -0.101722
v -0.038533 -0.231962 -0.101358
v -0.042297 -0.231373 -0.102633
v -0.045038 -0.229945 -0.105240
v -0.042503 -0.231301 -0.102315
v -0.044756 -0.230065 -0.105453
v -0.038649 -0.231907 -0.100990
v -0.044415 -0.230053 -0.105638
v -0.045669 -0.228440 -0.108956
v -0.042048 -0.231302 -0.102943
v -0.045986 -0.228257 -0.108875
v -0.045078 -0.226656 -0.112330
v -0.044797 -0.226899 -0.112281
v -0.042556 -0.225413 -0.115008
v -0.046609 -0.227724 -0.108634
v -0.042958 -0.224670 -0.115220
v -0.038662 -0.224800 -0.116313
v -0.046784 -0.224642 -0.112378
v -0.039372 -0.222399 -0.117216
v -0.033209 -0.223785 -0.117087
v -0.044642 -0.221570 -0.116102
v -0.033564 -0.220537 -0.118371
v -0.025731 -0.222088 -0.117887
v -0.017214 -0.220471 -0.118519
v -0.025663 -0.224511 -0.116913
v -0.033124 -0.224580 -0.116773
v -0.009015 -0.224530 -0.116874
v 0.000000 -0.224532 -0.116865
v -0.008618 -0.222106 -0.117847
v -0.000000 -0.221298 -0.118163
v 0.008612 -0.219683 -0.118820
v 0.000000 -0.219687 -0.118811
v -0.008615 -0.219683 -0.118820
v 0.025770 -0.220559 -0.118500
v 0.025731 -0.222087 -0.117887
v 0.008605 -0.224531 -0.116873
v 0.015437 -0.224522 -0.116890
v 0.025663 -0.224511 -0.116913
v 0.033209 -0.223785 -0.117087
v 0.033564 -0.220537 -0.118371
v 0.039372 -0.222399 -0.117216
v 0.044642 -0.221570 -0.116102
v 0.042958 -0.224670 -0.115220
v 0.038663 -0.224800 -0.116313
v 0.042556 -0.225413 -0.115008
v 0.045078 -0.226656 -0.112330
v 0.046784 -0.224642 -0.112378
v 0.046609 -0.227724 -0.108634
v 0.049179 -0.225525 -0.107638
v 0.048481 -0.227405 -0.102120
v 0.049833 -0.224965 -0.107385
v 0.048491 -0.222628 -0.112426
v 0.046760 -0.228675 -0.103680
v 0.044623 -0.229664 -0.098639
v 0.042911 -0.230985 -0.101606
v 0.045038 -0.229945 -0.105240
v 0.045986 -0.228257 -0.108875
v 0.042297 -0.231373 -0.102633
v 0.044756 -0.230065 -0.105453
v 0.042503 -0.231301 -0.102315
v 0.045669 -0.228440 -0.108956
v 0.044797 -0.226899 -0.112281
v 0.045288 -0.228503 -0.108980
v 0.044458 -0.227034 -0.112148
v 0.042106 -0.225894 -0.114606
v 0.042351 -0.225704 -0.114859
v 0.038546 -0.225117 -0.116120
v 0.033080 -0.224908 -0.116567
v 0.038405 -0.225334 -0.115816
v 0.039069 -0.226982 -0.112262
v 0.025657 -0.229339 -0.107177
v 0.039269 -0.229289 -0.107285
v 0.033059 -0.232037 -0.101358
v 0.025662 -0.232093 -0.101237
v 0.017338 -0.232091 -0.101242
v 0.008586 -0.232090 -0.101245
v 0.014847 -0.232189 -0.100862
v 0.025674 -0.232191 -0.100858
v 0.033111 -0.232134 -0.100981
v 0.038649 -0.231907 -0.100990
v 0.038533 -0.231962 -0.101358
v 0.033152 -0.232081 -0.100598
v 0.025684 -0.232138 -0.100469
v 0.042047 -0.231302 -0.102944
v 0.038392 -0.231868 -0.101723
v 0.044416 -0.230053 -0.105637
v 0.017115 -0.232136 -0.100469
v 0.033234 -0.231809 -0.099784
v 0.025743 -0.231319 -0.097976
v 0.033575 -0.230697 -0.096453
v 0.017209 -0.231043 -0.097143
v 0.008681 -0.230498 -0.095490
v 0.025810 -0.230501 -0.095485
v 0.000021 -0.232134 -0.100478
v 0.008947 -0.232135 -0.100475
v -0.009054 -0.232135 -0.100475
v -0.017227 -0.232136 -0.100469
v -0.017209 -0.231043 -0.097143
v 0.000000 -0.230302 -0.095152
v -0.000017 -0.230497 -0.095492
v -0.010864 -0.230305 -0.095150
v -0.009343 -0.230498 -0.095491
v -0.025802 -0.230501 -0.095484
v -0.033685 -0.230235 -0.095305
v -0.033657 -0.230426 -0.095640
v -0.025809 -0.230308 -0.095145
v -0.033575 -0.230697 -0.096453
v -0.040079 -0.230198 -0.096112
v -0.039364 -0.231053 -0.098551
v -0.025743 -0.231319 -0.097976
v -0.033234 -0.231809 -0.099784
v -0.033152 -0.232081 -0.100598
v -0.025684 -0.232138 -0.100469
v -0.042911 -0.230985 -0.101606
v -0.046760 -0.228675 -0.103680
v -0.044623 -0.229664 -0.098639
v -0.049173 -0.225530 -0.107640
v -0.048491 -0.222628 -0.112426
v -0.049833 -0.224965 -0.107385
v -0.048481 -0.227405 -0.102120
v -0.048671 -0.227178 -0.101909
v -0.045169 -0.229150 -0.097646
v -0.045031 -0.229348 -0.097929
v -0.050046 -0.224694 -0.107261
v -0.048680 -0.222299 -0.112381
v -0.048734 -0.226872 -0.101731
v -0.050117 -0.224366 -0.107108
v -0.048743 -0.221907 -0.112234
v -0.050117 -0.222917 -0.106431
v -0.045228 -0.219995 -0.116181
v -0.045227 -0.218444 -0.115456
v -0.048743 -0.220407 -0.111532
v -0.045182 -0.220448 -0.116329
v -0.040082 -0.219997 -0.118118
v -0.040160 -0.219597 -0.118163
v -0.045044 -0.220827 -0.116314
v -0.040186 -0.219131 -0.118023
v -0.033680 -0.219336 -0.118741
v -0.033689 -0.218878 -0.118608
v -0.033689 -0.217332 -0.117885
v -0.040186 -0.217575 -0.117294
v -0.025810 -0.218796 -0.118789
v -0.025807 -0.217252 -0.118066
v -0.017221 -0.217253 -0.118042
v -0.008616 -0.218805 -0.118745
v -0.008616 -0.217254 -0.118019
v 0.000000 -0.217255 -0.118007
v 0.008616 -0.218805 -0.118745
v 0.008616 -0.217254 -0.118019
v 0.000000 -0.218807 -0.118734
v 0.000000 -0.219274 -0.118869
v 0.008616 -0.219271 -0.118879
v -0.008844 -0.219272 -0.118879
v -0.025795 -0.219663 -0.118860
v -0.025804 -0.219255 -0.118919
v -0.033650 -0.219742 -0.118685
v 0.025797 -0.219664 -0.118860
v 0.025800 -0.219254 -0.118919
v 0.025810 -0.218796 -0.118789
v 0.033680 -0.219336 -0.118741
v 0.017221 -0.217253 -0.118042
v 0.033689 -0.218878 -0.118608
v 0.033689 -0.217332 -0.117885
v 0.025807 -0.217252 -0.118066
v 0.040186 -0.219131 -0.118023
v 0.040186 -0.217575 -0.117294
v 0.045227 -0.218444 -0.115456
v 0.045228 -0.219995 -0.116181
v 0.048743 -0.221907 -0.112234
v 0.048743 -0.220407 -0.111532
v 0.050117 -0.222917 -0.106431
v 0.048734 -0.226872 -0.101731
v 0.048734 -0.225430 -0.101056
v 0.050117 -0.224366 -0.107108
v 0.050046 -0.224694 -0.107261
v 0.048671 -0.227178 -0.101909
v 0.048680 -0.222299 -0.112381
v 0.045182 -0.220448 -0.116329
v 0.045044 -0.220827 -0.116314
v 0.040082 -0.219997 -0.118118
v 0.040160 -0.219597 -0.118163
v 0.033650 -0.219742 -0.118685
v 0.045169 -0.229150 -0.097646
v 0.040079 -0.230198 -0.096112
v 0.040156 -0.230009 -0.095792
v 0.045031 -0.229348 -0.097929
v 0.045215 -0.228843 -0.097438
v 0.040182 -0.229699 -0.095569
v 0.033685 -0.230235 -0.095305
v 0.045215 -0.227389 -0.096758
v 0.033695 -0.229921 -0.095077
v 0.040182 -0.228239 -0.094886
v 0.025809 -0.230308 -0.095145
v 0.008360 -0.229978 -0.094915
v 0.025809 -0.229991 -0.094913
v 0.010870 -0.230305 -0.095150
v -0.008365 -0.229978 -0.094915
v -0.033695 -0.229921 -0.095077
v -0.040183 -0.228239 -0.094886
v -0.033695 -0.228457 -0.094392
v -0.025809 -0.229992 -0.094913
v -0.040182 -0.229699 -0.095569
v -0.040182 -0.228239 -0.094886
v -0.045215 -0.227389 -0.096758
v -0.045215 -0.228843 -0.097438
v -0.048734 -0.225430 -0.101056
v -0.040156 -0.230009 -0.095792
v -0.025807 -0.210698 -0.085885
v -0.017868 -0.229986 -0.094914
v -0.040183 -0.210415 -0.086547
v -0.033692 -0.210632 -0.086051
v -0.008618 -0.210676 -0.085882
v 0.000000 -0.210671 -0.085882
v 0.000003 -0.229975 -0.094915
v 0.008618 -0.210676 -0.085882
v 0.025808 -0.210698 -0.085885
v 0.017872 -0.229986 -0.094914
v 0.033692 -0.210632 -0.086051
v 0.045216 -0.209568 -0.088421
v 0.040183 -0.210415 -0.086547
v 0.045215 -0.227389 -0.096758
v 0.040183 -0.228239 -0.094886
v 0.048734 -0.225430 -0.101057
v 0.048733 -0.207612 -0.092721
v 0.050117 -0.222917 -0.106431
v 0.050116 -0.205097 -0.098094
v 0.048741 -0.202570 -0.103188
v 0.045226 -0.200591 -0.107103
v 0.048743 -0.220407 -0.111532
v 0.045227 -0.218444 -0.115456
v 0.040186 -0.217575 -0.117294
v 0.040186 -0.199719 -0.108940
v 0.033689 -0.205000 -0.112115
v 0.033689 -0.199481 -0.109532
v 0.017221 -0.199401 -0.109689
v 0.025807 -0.199401 -0.109714
v 0.017221 -0.206493 -0.113008
v 0.025810 -0.217252 -0.118066
v 0.017441 -0.217253 -0.118043
v 0.008594 -0.217254 -0.118019
v 0.008621 -0.199400 -0.109665
v 0.000000 -0.199400 -0.109653
v 0.000000 -0.217255 -0.118007
v 0.033690 -0.217332 -0.117885
v 0.033695 -0.228457 -0.094392
v -0.045216 -0.209568 -0.088421
v -0.048733 -0.207612 -0.092721
v -0.045215 -0.227389 -0.096758
v -0.048734 -0.225430 -0.101056
v -0.048743 -0.220407 -0.111532
v -0.045227 -0.218444 -0.115456
v -0.050117 -0.222917 -0.106431
v -0.048741 -0.202570 -0.103188
v -0.050116 -0.205097 -0.098094
v -0.045226 -0.200591 -0.107103
v -0.040186 -0.199719 -0.108940
v -0.033689 -0.199481 -0.109532
v -0.033689 -0.205021 -0.112125
v -0.025810 -0.217252 -0.118066
v -0.025807 -0.199401 -0.109714
v -0.033690 -0.217332 -0.117885
v -0.040186 -0.217575 -0.117294
v -0.008593 -0.217254 -0.118019
v -0.017441 -0.217253 -0.118043
v 0.000000 -0.217255 -0.118007
v -0.008622 -0.199400 -0.109665
v -0.000000 -0.199400 -0.109653
v -0.017221 -0.199401 -0.109689
v -0.017221 -0.206493 -0.113008
v 0.033657 -0.230426 -0.095640
v 0.039364 -0.231053 -0.098551
v 0.033124 -0.224580 -0.116773
v 0.025652 -0.224844 -0.116703
v 0.102222 -0.218271 -0.065536
v 0.101765 -0.218332 -0.065397
v 0.102374 -0.218086 -0.065953
v 0.102374 -0.192039 -0.124767
v 0.102222 -0.191845 -0.125206
v -0.101736 -0.191780 -0.125352
v -0.102374 -0.192039 -0.124767
v -0.102215 -0.191845 -0.125206
v -0.102374 -0.218086 -0.065953
v -0.102374 -0.201620 -0.103134
v 0.102374 -0.201858 -0.102597
v -0.017373 -0.214708 -0.073580
v 0.101765 -0.191780 -0.125352
v -0.101736 -0.218332 -0.065397
v -0.102215 -0.218271 -0.065536
vn 0.2368 0.4107 -0.8805
vn 0.2362 0.4107 -0.8806
vn 0.0540 0.4221 -0.9050
vn 0.0541 0.4221 -0.9049
vn 0.0116 0.4227 -0.9062
vn 0.0116 0.4226 -0.9062
vn -0.0004 0.4227 -0.9063
vn -0.0003 0.4226 -0.9063
vn 0.2416 -0.4102 0.8794
vn 0.2419 -0.4102 0.8794
vn 0.6008 -0.3379 0.7245
vn 0.6024 -0.3374 0.7233
vn 0.0628 -0.4219 0.9045
vn 0.0627 -0.4218 0.9045
vn -0.0019 -0.4227 0.9063
vn -0.0004 -0.4234 0.9059
vn 0.0001 -0.4227 0.9063
vn -0.0026 -0.4227 0.9063
vn 0.0119 -0.4227 0.9062
vn 0.0118 -0.4227 0.9062
vn 0.8999 -0.1843 0.3951
vn 0.8986 -0.1855 0.3977
vn 1.0000 -0.0020 0.0043
vn 1.0000 -0.0012 0.0026
vn 0.9082 0.1769 -0.3793
vn 0.9079 0.1772 -0.3799
vn 0.6161 0.3329 -0.7138
vn 0.6170 0.3327 -0.7132
vn -0.0002 0.4227 -0.9063
vn 0.0001 0.4227 -0.9062
vn 0.0004 0.4227 -0.9063
vn 0.0005 0.4227 -0.9063
vn 0.0002 0.4227 -0.9063
vn -0.0116 0.4227 -0.9062
vn -0.0116 0.4226 -0.9062
vn -0.0540 0.4221 -0.9050
vn -0.0541 0.4221 -0.9049
vn -0.2368 0.4107 -0.8805
vn -0.2362 0.4107 -0.8806
vn -0.6163 0.3329 -0.7137
vn -0.9081 0.1770 -0.3796
vn -0.9082 0.1769 -0.3793
vn -0.6170 0.3327 -0.7132
vn -1.0000 -0.0020 0.0043
vn -1.0000 -0.0012 0.0026
vn -0.0000 -0.4227 0.9063
vn 0.0004 -0.4234 0.9059
vn 0.0019 -0.4227 0.9063
vn 0.0026 -0.4227 0.9063
vn -0.0119 -0.4227 0.9062
vn -0.0118 -0.4227 0.9062
vn -0.0628 -0.4219 0.9045
vn -0.2416 -0.4102 0.8794
vn -0.2419 -0.4102 0.8794
vn -0.0627 -0.4218 0.9045
vn -0.6008 -0.3379 0.7245
vn -0.9000 -0.1843 0.3951
vn -0.8986 -0.1855 0.3977
vn -0.6024 -0.3374 0.7233
vn -0.0000 -0.9072 -0.4206
vn -0.0000 -0.9073 -0.4206
vn -0.0002 -0.8165 -0.5774
vn -0.0005 -0.8165 -0.5774
vn -0.0000 -0.6883 -0.7254
vn -0.0009 -0.6887 -0.7250
vn 0.0020 -0.8164 -0.5775
vn -0.0001 -0.9074 -0.4204
vn 0.0001 -0.9072 -0.4208
vn -0.0001 -0.9072 -0.4208
vn 0.0002 -0.8165 -0.5774
vn 0.0009 -0.6885 -0.7252
vn -0.0013 -0.8498 -0.5272
vn -0.0082 -0.8374 -0.5465
vn -0.0202 -0.6888 -0.7247
vn -0.0032 -0.6884 -0.7254
vn -0.0167 -0.8661 -0.4996
vn -0.0785 -0.6971 -0.7127
vn -0.0453 -0.8694 -0.4920
vn -0.1998 -0.7280 -0.6558
vn -0.1048 -0.8825 -0.4585
vn -0.0003 -0.9071 -0.4209
vn -0.1211 -0.9032 -0.4118
vn -0.0003 -0.9072 -0.4207
vn -0.0000 -0.9072 -0.4208
vn -0.0000 -0.9073 -0.4205
vn -0.0000 -0.9072 -0.4207
vn 0.0004 -0.9685 -0.2490
vn 0.0001 -0.9983 -0.0583
vn -0.0029 -0.9983 -0.0577
vn -0.0000 -0.9677 -0.2521
vn -0.0023 -0.9683 -0.2498
vn -0.0171 -0.9981 -0.0591
vn -0.0059 -0.9682 -0.2501
vn -0.2041 -0.9688 -0.1406
vn -0.0981 -0.9480 -0.3028
vn -0.0270 -0.9649 -0.2612
vn -0.0763 -0.9943 -0.0748
vn -0.5518 -0.8301 -0.0804
vn -0.3207 -0.9127 -0.2534
vn -0.3520 -0.9310 0.0964
vn -0.1289 -0.9703 0.2048
vn -0.0768 -0.9195 -0.3856
vn -0.3592 -0.8465 -0.3929
vn -0.0002 -0.9072 -0.4206
vn -0.6119 -0.7172 -0.3335
vn -0.5438 -0.5932 -0.5937
vn -0.3172 -0.7801 -0.5393
vn -0.3436 -0.5187 -0.7829
vn -0.3886 -0.4409 -0.8091
vn -0.6846 -0.6607 -0.3078
vn -0.1324 -0.4661 -0.8748
vn -0.1561 -0.3847 -0.9097
vn -0.6097 -0.5369 -0.5830
vn -0.0412 -0.3709 -0.9277
vn -0.0390 -0.3708 -0.9279
vn -0.3977 -0.4444 -0.8027
vn -0.1777 -0.2606 -0.9489
vn -0.0071 -0.3722 -0.9281
vn -0.0056 -0.4545 -0.8907
vn -0.0084 -0.2585 -0.9660
vn 0.0018 -0.3727 -0.9279
vn 0.0011 -0.4554 -0.8903
vn -0.0343 -0.4542 -0.8903
vn -0.0000 -0.4549 -0.8906
vn 0.0012 -0.3726 -0.9280
vn -0.0000 -0.3727 -0.9279
vn 0.0017 -0.3726 -0.9280
vn 0.0017 -0.2241 -0.9746
vn -0.0000 -0.2579 -0.9662
vn -0.0015 -0.2592 -0.9658
vn -0.0010 -0.4565 -0.8897
vn 0.0094 -0.3725 -0.9280
vn -0.0019 -0.3721 -0.9282
vn 0.0102 -0.3724 -0.9280
vn -0.0016 -0.4553 -0.8903
vn 0.0059 -0.4545 -0.8907
vn 0.0411 -0.3710 -0.9277
vn 0.0390 -0.3707 -0.9279
vn 0.1557 -0.3847 -0.9098
vn 0.3889 -0.4408 -0.8090
vn 0.1368 -0.4657 -0.8743
vn 0.3975 -0.4443 -0.8028
vn 0.1779 -0.2604 -0.9490
vn 0.3436 -0.5187 -0.7829
vn 0.5422 -0.6018 -0.5864
vn 0.6097 -0.5369 -0.5830
vn 0.6847 -0.6602 -0.3087
vn 0.6846 -0.6607 -0.3078
vn 0.6921 -0.4267 -0.5822
vn 0.7546 -0.5937 -0.2794
vn 0.6913 -0.7225 0.0140
vn 0.6160 -0.7864 -0.0454
vn 0.4060 -0.8987 0.1660
vn 0.5501 -0.8296 -0.0958
vn 0.3979 -0.9012 0.1719
vn 0.6119 -0.7172 -0.3334
vn 0.3592 -0.8465 -0.3929
vn 0.3520 -0.9310 0.0964
vn 0.2041 -0.9688 -0.1406
vn 0.3207 -0.9127 -0.2534
vn 0.3172 -0.7801 -0.5393
vn 0.1155 -0.8700 -0.4793
vn 0.1489 -0.9288 -0.3394
vn 0.0866 -0.9038 -0.4191
vn 0.0598 -0.8572 -0.5116
vn 0.1998 -0.7280 -0.6558
vn 0.0785 -0.6971 -0.7126
vn 0.0355 -0.8181 -0.5739
vn 0.0093 -0.8164 -0.5775
vn 0.0201 -0.6888 -0.7247
vn 0.0001 -0.9071 -0.4208
vn -0.0001 -0.9073 -0.4205
vn 0.0001 -0.9073 -0.4205
vn -0.0001 -0.9072 -0.4206
vn 0.0001 -0.9072 -0.4207
vn -0.0001 -0.9071 -0.4209
vn 0.0011 -0.9515 -0.3076
vn 0.0002 -0.9593 -0.2825
vn -0.0001 -0.9682 -0.2501
vn -0.0001 -0.9983 -0.0587
vn 0.0099 -0.9685 -0.2487
vn 0.0171 -0.9981 -0.0591
vn 0.0033 -0.9983 -0.0576
vn 0.1346 -0.9693 0.2059
vn 0.0292 -0.9738 0.2257
vn 0.0763 -0.9943 -0.0748
vn 0.0341 -0.9662 -0.2554
vn 0.0052 -0.9743 0.2251
vn 0.1080 -0.9498 -0.2937
vn -0.0001 -0.9072 -0.4207
vn -0.0001 -0.9073 -0.4204
vn 0.0333 -0.9489 0.3137
vn -0.0002 -0.9762 0.2167
vn 0.0068 -0.9498 0.3127
vn 0.0356 -0.9491 0.3130
vn -0.0003 -0.9501 0.3120
vn 0.0087 -0.9142 0.4051
vn -0.0000 -0.8937 0.4487
vn -0.0003 -0.9500 0.3121
vn -0.0000 -0.9139 0.4060
vn -0.0000 -0.9501 0.3121
vn -0.0002 -0.9500 0.3121
vn -0.0002 -0.9907 0.1362
vn -0.0001 -0.9908 0.1350
vn 0.0002 -0.9805 0.1967
vn 0.0003 -0.9500 0.3121
vn -0.0002 -0.9500 0.3123
vn -0.0002 -0.9500 0.3122
vn 0.0002 -0.9500 0.3121
vn 0.0003 -0.9501 0.3120
vn 0.0003 -0.8872 0.4615
vn -0.0000 -0.7438 0.6684
vn 0.0008 -0.7447 0.6674
vn 0.0004 -0.9501 0.3120
vn -0.0088 -0.9144 0.4048
vn -0.0101 -0.7463 0.6655
vn -0.0482 -0.7455 0.6648
vn -0.0395 -0.9132 0.4056
vn -0.0352 -0.9491 0.3131
vn -0.0069 -0.9498 0.3129
vn -0.1724 -0.9088 0.3799
vn -0.1520 -0.9450 0.2896
vn -0.0333 -0.9489 0.3137
vn -0.0059 -0.9744 0.2248
vn -0.0292 -0.9738 0.2257
vn -0.3977 -0.9012 0.1722
vn -0.6161 -0.7864 -0.0453
vn -0.4055 -0.8989 0.1657
vn -0.6848 -0.6602 -0.3086
vn -0.6874 -0.7260 0.0213
vn -0.7546 -0.5938 -0.2794
vn -0.6976 -0.4322 -0.5714
vn -0.5578 -0.6763 0.4810
vn -0.8311 -0.5257 0.1814
vn -0.9202 -0.3529 -0.1692
vn -0.4510 -0.8582 0.2451
vn -0.8316 -0.1664 -0.5298
vn -0.8941 0.1091 -0.4344
vn -0.9025 -0.2664 0.3386
vn -0.9956 -0.0833 -0.0437
vn -1.0000 0.0018 -0.0037
vn -0.8976 0.1869 -0.3992
vn -0.5966 0.3402 -0.7269
vn -0.5944 0.2669 -0.7586
vn -0.5543 -0.0160 -0.8322
vn -0.4505 -0.3361 -0.8271
vn -0.2224 0.0608 -0.9731
vn -0.2378 0.3409 -0.9095
vn -0.0612 0.3512 -0.9343
vn -0.0574 0.0711 -0.9958
vn -0.2384 0.4116 -0.8796
vn -0.0615 0.4229 -0.9041
vn -0.0113 0.3503 -0.9366
vn -0.0113 0.4237 -0.9057
vn 0.0025 0.4242 -0.9056
vn 0.0018 0.3511 -0.9363
vn 0.0019 0.4239 -0.9057
vn -0.0000 0.4242 -0.9056
vn -0.0019 0.3513 -0.9363
vn -0.0000 0.3516 -0.9362
vn -0.0019 0.4239 -0.9057
vn -0.0000 0.0704 -0.9975
vn -0.0018 0.0696 -0.9976
vn 0.0020 0.0691 -0.9976
vn -0.0104 0.0680 -0.9976
vn -0.0469 -0.2563 -0.9655
vn 0.0106 0.0681 -0.9976
vn 0.0083 -0.2590 -0.9658
vn 0.0108 0.3502 -0.9366
vn 0.0615 0.3511 -0.9343
vn 0.0574 0.0711 -0.9958
vn -0.0025 0.4242 -0.9056
vn 0.0112 0.4240 -0.9056
vn 0.0615 0.4229 -0.9041
vn 0.2378 0.3408 -0.9096
vn 0.2383 0.4114 -0.8797
vn 0.5966 0.3402 -0.7269
vn 0.5944 0.2668 -0.7586
vn 0.8941 0.1092 -0.4344
vn 0.8976 0.1868 -0.3992
vn 1.0000 0.0018 -0.0037
vn 0.9024 -0.2662 0.3388
vn 0.9956 -0.0834 -0.0437
vn 0.9068 -0.1787 0.3819
vn 0.9202 -0.3529 -0.1693
vn 0.8311 -0.5257 0.1814
vn 0.8317 -0.1664 -0.5298
vn 0.5543 -0.0160 -0.8322
vn 0.4505 -0.3361 -0.8271
vn 0.2224 0.0607 -0.9731
vn 0.0469 -0.2563 -0.9655
vn 0.5578 -0.6763 0.4810
vn 0.1698 -0.9083 0.3824
vn 0.4509 -0.8582 0.2451
vn 0.2128 -0.7392 0.6390
vn 0.2318 -0.4983 0.8354
vn 0.6090 -0.4243 0.6702
vn 0.0526 -0.5083 0.8596
vn 0.0482 -0.7453 0.6650
vn 0.6125 -0.3350 0.7160
vn 0.2330 -0.4121 0.8809
vn 0.0528 -0.4232 0.9045
vn 0.0112 -0.5093 0.8605
vn 0.0100 -0.7464 0.6654
vn -0.0005 -0.5200 0.8542
vn -0.0006 -0.7447 0.6674
vn -0.0003 -0.5341 0.8454
vn 0.0002 -0.5858 0.8105
vn 0.0003 -0.5857 0.8106
vn 0.0005 -0.5447 0.8387
vn -0.0107 -0.5092 0.8606
vn -0.0526 -0.5083 0.8596
vn -0.0528 -0.4232 0.9045
vn -0.2318 -0.4983 0.8354
vn -0.2333 -0.4121 0.8807
vn -0.6125 -0.3350 0.7160
vn -0.6090 -0.4243 0.6702
vn -0.9069 -0.1785 0.3816
vn -0.2128 -0.7392 0.6390
vn -0.0183 -0.4238 0.9056
vn -0.2336 -0.4121 0.8807
vn -0.2330 -0.4121 0.8808
vn 0.0004 -0.4238 0.9057
vn 0.0002 -0.4238 0.9057
vn -0.0002 -0.4238 0.9057
vn -0.0004 -0.4238 0.9057
vn 0.0183 -0.4238 0.9056
vn 0.6133 -0.3347 0.7154
vn 0.6116 -0.3353 0.7166
vn 0.2330 -0.4121 0.8808
vn 0.2336 -0.4121 0.8807
vn 0.9073 -0.1782 0.3810
vn 0.9068 -0.1786 0.3818
vn 1.0000 0.0012 -0.0024
vn 1.0000 0.0025 -0.0053
vn 0.8961 0.1881 -0.4019
vn 0.8989 0.1858 -0.3969
vn 0.5948 0.3407 -0.7281
vn 0.5981 0.3397 -0.7259
vn 0.2382 0.4116 -0.8797
vn 0.2385 0.4116 -0.8796
vn 0.0615 0.4230 -0.9040
vn 0.0615 0.4231 -0.9040
vn 0.0113 0.4238 -0.9057
vn -0.0025 0.4238 -0.9057
vn -0.0025 0.4239 -0.9057
vn -0.0026 0.4238 -0.9058
vn -0.0019 0.4238 -0.9058
vn -0.0005 0.4245 -0.9054
vn -0.0004 0.4231 -0.9061
vn 0.0614 0.4230 -0.9041
vn -0.6133 -0.3347 0.7154
vn -0.6116 -0.3353 0.7166
vn -0.9068 -0.1786 0.3818
vn -0.9073 -0.1782 0.3810
vn -0.5948 0.3407 -0.7281
vn -0.5981 0.3397 -0.7259
vn -0.8989 0.1858 -0.3969
vn -1.0000 0.0012 -0.0024
vn -0.8961 0.1881 -0.4019
vn -1.0000 0.0025 -0.0053
vn -0.0113 0.4238 -0.9057
vn -0.0615 0.4230 -0.9040
vn -0.0615 0.4231 -0.9040
vn -0.2385 0.4116 -0.8796
vn -0.0614 0.4230 -0.9041
vn -0.2382 0.4116 -0.8797
vn 0.0004 0.4231 -0.9061
vn 0.0004 0.4245 -0.9054
vn 0.0019 0.4238 -0.9058
vn 0.0025 0.4238 -0.9057
vn 0.0025 0.4239 -0.9057
vn 0.0026 0.4238 -0.9058
vn 0.0394 -0.9134 0.4052
vn 0.1520 -0.9450 0.2896
vn 0.0343 -0.4543 -0.8902
vn 0.0032 -0.6882 -0.7255
vn 0.0002 -0.9072 -0.4207
vn -0.0000 -0.9074 -0.4204
vn -0.0000 -0.9071 -0.4209
vn -0.0010 -0.9139 -0.4059
vn -0.0012 -0.9146 -0.4044
vn -0.0005 -0.9147 -0.4042
vn -0.0006 -0.9145 -0.4045
vn 0.0006 -0.9146 -0.4044
vn 0.0003 -0.9147 -0.4042
vn 0.0012 -0.9146 -0.4044
vn -0.0000 -0.9144 -0.4048
vn -0.0000 -0.9144 -0.4049
vn -0.0000 -0.9143 -0.4049
vn -0.0000 -0.9143 -0.4050
vn 0.0012 -0.9139 -0.4058
vt 0.032406 0.876492
vt 0.038955 0.876492
vt 0.038959 0.874151
vt 0.032410 0.874151
vt 0.032414 0.871384
vt 0.038963 0.871384
vt 0.038966 0.868713
vt 0.032417 0.868713
vt 0.032428 0.866656
vt 0.038969 0.866658
vt 0.038971 0.865039
vt 0.038955 0.863675
vt 0.032423 0.863685
vt 0.032485 0.890382
vt 0.039034 0.890382
vt 0.039030 0.888199
vt 0.032480 0.888199
vt 0.039022 0.892729
vt 0.032473 0.892729
vt 0.032479 0.901456
vt 0.033300 0.903690
vt 0.038212 0.903690
vt 0.039028 0.901447
vt 0.032475 0.898476
vt 0.032471 0.895497
vt 0.039021 0.895497
vt 0.032432 0.885921
vt 0.038982 0.885921
vt 0.038934 0.883556
vt 0.032385 0.883556
vt 0.032382 0.881109
vt 0.038931 0.881109
vt 0.038947 0.878711
vt 0.032397 0.878711
vt 0.032424 0.862468
vt 0.032423 0.861301
vt 0.038973 0.861301
vt 0.038971 0.859984
vt 0.038950 0.858327
vt 0.032420 0.858866
vt 0.038973 0.862468
vt 0.032417 0.856202
vt 0.032414 0.853509
vt 0.038966 0.856202
vt 0.038963 0.853509
vt 0.038959 0.850742
vt 0.032410 0.850742
vt 0.032406 0.848400
vt 0.038955 0.848400
vt 0.038947 0.846181
vt 0.038931 0.843783
vt 0.032382 0.843783
vt 0.032397 0.846181
vt 0.038934 0.841336
vt 0.032385 0.841336
vt 0.038212 0.821203
vt 0.033300 0.821203
vt 0.032479 0.823437
vt 0.039028 0.823446
vt 0.032475 0.826416
vt 0.032471 0.829395
vt 0.039021 0.829395
vt 0.039022 0.832164
vt 0.032485 0.834510
vt 0.039034 0.834510
vt 0.032473 0.832164
vt 0.039030 0.836694
vt 0.032432 0.838971
vt 0.038982 0.838971
vt 0.032480 0.836694
vt 0.965926 0.949676
vt 0.965862 0.940912
vt 0.963054 0.947797
vt 0.963220 0.951696
vt 0.963006 0.938675
vt 0.963008 0.934046
vt 0.962782 0.934046
vt 0.962779 0.939222
vt 0.965326 0.934046
vt 0.965862 0.927181
vt 0.963006 0.929417
vt 0.962779 0.928870
vt 0.963054 0.920296
vt 0.963220 0.916398
vt 0.963001 0.916350
vt 0.962829 0.920293
vt 0.963604 0.913591
vt 0.963403 0.913496
vt 0.964407 0.911704
vt 0.964245 0.911555
vt 0.965827 0.910544
vt 0.967023 0.914812
vt 0.967600 0.910161
vt 0.965363 0.920410
vt 0.968589 0.920456
vt 0.972163 0.924899
vt 0.969126 0.931758
vt 0.972175 0.931473
vt 0.972402 0.933126
vt 0.972385 0.920421
vt 0.972161 0.920411
vt 0.972265 0.916473
vt 0.972046 0.916512
vt 0.971753 0.913723
vt 0.969532 0.913415
vt 0.971153 0.911682
vt 0.970988 0.911829
vt 0.971955 0.913634
vt 0.969640 0.910238
vt 0.969553 0.910423
vt 0.971311 0.911543
vt 0.972153 0.913549
vt 0.969462 0.910616
vt 0.967600 0.909948
vt 0.967600 0.909742
vt 0.965653 0.910163
vt 0.965737 0.910349
vt 0.964090 0.911412
vt 0.963766 0.911099
vt 0.967601 0.909294
vt 0.963207 0.913404
vt 0.961961 0.912775
vt 0.965105 0.908903
vt 0.960505 0.915755
vt 0.962335 0.916199
vt 0.962425 0.909777
vt 0.960716 0.912136
vt 0.961190 0.920115
vt 0.962603 0.920271
vt 0.959779 0.919955
vt 0.960183 0.924687
vt 0.962552 0.929144
vt 0.962785 0.916303
vt 0.962554 0.934046
vt 0.961125 0.929384
vt 0.960653 0.934046
vt 0.959703 0.929357
vt 0.959708 0.934046
vt 0.959703 0.938736
vt 0.962552 0.938683
vt 0.960243 0.948081
vt 0.961190 0.947978
vt 0.962566 0.943285
vt 0.962603 0.947822
vt 0.960505 0.952338
vt 0.962335 0.951894
vt 0.961961 0.955318
vt 0.963766 0.956993
vt 0.963207 0.954688
vt 0.962425 0.958316
vt 0.960716 0.955957
vt 0.964090 0.956680
vt 0.965653 0.957930
vt 0.965105 0.959190
vt 0.967605 0.960659
vt 0.967601 0.958798
vt 0.964557 0.960457
vt 0.967606 0.961134
vt 0.970770 0.960377
vt 0.970205 0.959112
vt 0.973026 0.958165
vt 0.969640 0.957854
vt 0.971643 0.956858
vt 0.967600 0.958350
vt 0.967600 0.958145
vt 0.971311 0.956550
vt 0.971153 0.956410
vt 0.969553 0.957669
vt 0.965737 0.957744
vt 0.965827 0.957550
vt 0.969462 0.957477
vt 0.967600 0.957931
vt 0.964407 0.956389
vt 0.964245 0.956538
vt 0.963403 0.954597
vt 0.963604 0.954502
vt 0.963001 0.951743
vt 0.965662 0.954741
vt 0.968544 0.954785
vt 0.972046 0.951581
vt 0.968589 0.947637
vt 0.972161 0.947682
vt 0.972163 0.943194
vt 0.968015 0.936335
vt 0.972176 0.938637
vt 0.972404 0.941955
vt 0.972265 0.951620
vt 0.972385 0.947697
vt 0.972153 0.954544
vt 0.972482 0.951658
vt 0.971956 0.954459
vt 0.971753 0.954370
vt 0.972609 0.947712
vt 0.970988 0.956264
vt 0.972932 0.951744
vt 0.972631 0.943208
vt 0.974029 0.947824
vt 0.974771 0.952112
vt 0.974545 0.943274
vt 0.975444 0.947943
vt 0.975512 0.938678
vt 0.972633 0.938642
vt 0.975510 0.934046
vt 0.972629 0.934046
vt 0.972632 0.929450
vt 0.972631 0.924885
vt 0.975511 0.929084
vt 0.974545 0.924819
vt 0.975739 0.934046
vt 0.975735 0.928199
vt 0.975444 0.920154
vt 0.975667 0.920134
vt 0.975432 0.915846
vt 0.975220 0.915890
vt 0.974771 0.915981
vt 0.974029 0.920269
vt 0.974684 0.912356
vt 0.973419 0.912957
vt 0.972932 0.916349
vt 0.972609 0.920380
vt 0.972482 0.916435
vt 0.971643 0.911235
vt 0.970205 0.908981
vt 0.973026 0.909927
vt 0.967605 0.907438
vt 0.970770 0.907715
vt 0.967606 0.906959
vt 0.964557 0.907635
vt 0.973510 0.909470
vt 0.970853 0.907532
vt 0.967605 0.906755
vt 0.973359 0.909612
vt 0.964469 0.907443
vt 0.964368 0.907246
vt 0.970932 0.907359
vt 0.967600 0.906561
vt 0.967593 0.906373
vt 0.964260 0.907047
vt 0.961557 0.908938
vt 0.961754 0.909124
vt 0.961939 0.909300
vt 0.962101 0.909457
vt 0.960510 0.912029
vt 0.960276 0.911906
vt 0.959570 0.915521
vt 0.959828 0.915587
vt 0.960027 0.911775
vt 0.959296 0.915451
vt 0.959271 0.919892
vt 0.958986 0.919859
vt 0.958913 0.924617
vt 0.959185 0.929346
vt 0.958892 0.929340
vt 0.958894 0.934046
vt 0.959185 0.938746
vt 0.959189 0.934046
vt 0.958892 0.938752
vt 0.959466 0.934046
vt 0.959461 0.938740
vt 0.959461 0.929227
vt 0.959541 0.919927
vt 0.960057 0.915645
vt 0.959541 0.948164
vt 0.959779 0.948137
vt 0.959271 0.948201
vt 0.959570 0.952572
vt 0.959828 0.952506
vt 0.958913 0.943476
vt 0.958986 0.948233
vt 0.959296 0.952642
vt 0.960276 0.956186
vt 0.960027 0.956317
vt 0.961557 0.959154
vt 0.961754 0.958969
vt 0.964368 0.960847
vt 0.964260 0.961046
vt 0.967593 0.961720
vt 0.970932 0.960734
vt 0.967600 0.961531
vt 0.971011 0.960902
vt 0.967605 0.961338
vt 0.970853 0.960561
vt 0.964469 0.960650
vt 0.961939 0.958793
vt 0.962101 0.958636
vt 0.960510 0.956063
vt 0.960057 0.952448
vt 0.973510 0.958623
vt 0.974684 0.955736
vt 0.973359 0.958480
vt 0.974875 0.955826
vt 0.975063 0.955915
vt 0.973657 0.958760
vt 0.975644 0.952290
vt 0.975432 0.952247
vt 0.973801 0.958895
vt 0.975249 0.956002
vt 0.975797 0.954279
vt 0.975890 0.947978
vt 0.975667 0.947958
vt 0.975945 0.943327
vt 0.975735 0.939896
vt 0.975972 0.938685
vt 0.975973 0.934046
vt 0.975972 0.929408
vt 0.975945 0.924766
vt 0.975890 0.920115
vt 0.975644 0.915803
vt 0.975797 0.913814
vt 0.975063 0.912178
vt 0.975249 0.912091
vt 0.973801 0.909197
vt 0.973657 0.909332
vt 0.971011 0.907191
vt 0.974875 0.912266
vt 0.987355 0.919822
vt 0.987238 0.915489
vt 0.975885 0.912310
vt 0.987115 0.911936
vt 0.987493 0.929295
vt 0.987506 0.934046
vt 0.987493 0.938797
vt 0.987355 0.948270
vt 0.975734 0.959016
vt 0.986976 0.959428
vt 0.987115 0.956157
vt 0.975885 0.955783
vt 0.975564 0.962481
vt 0.986813 0.962913
vt 0.975424 0.966002
vt 0.986674 0.966443
vt 0.986609 0.969852
vt 0.975358 0.969407
vt 0.986549 0.973154
vt 0.975299 0.972707
vt 0.975177 0.975913
vt 0.986428 0.976360
vt 0.982985 0.979755
vt 0.986269 0.979886
vt 0.986097 0.984141
vt 0.981699 0.988600
vt 0.985918 0.988767
vt 0.974846 0.983694
vt 0.974668 0.988320
vt 0.974489 0.992957
vt 0.985740 0.993404
vt 0.975058 0.996467
vt 0.984902 0.996858
vt 0.975018 0.979438
vt 0.987238 0.952603
vt 0.975734 0.909076
vt 0.986976 0.908665
vt 0.986813 0.905180
vt 0.975564 0.905612
vt 0.986549 0.894939
vt 0.975299 0.895386
vt 0.975358 0.898686
vt 0.975424 0.902090
vt 0.986609 0.898240
vt 0.986674 0.901649
vt 0.986097 0.883951
vt 0.982973 0.888338
vt 0.986269 0.888207
vt 0.986428 0.891732
vt 0.974846 0.884399
vt 0.975018 0.888654
vt 0.975177 0.892179
vt 0.984902 0.871234
vt 0.975058 0.871626
vt 0.974489 0.875136
vt 0.985740 0.874688
vt 0.981699 0.879493
vt 0.985918 0.879325
vt 0.974668 0.879773
vt 0.975220 0.952203
vt 0.973419 0.955136
vt 0.962785 0.951789
vt 0.962829 0.947800
vt 0.976879 0.234022
vt 0.976552 0.234350
vt 0.976797 0.234268
vt 0.941911 0.234350
vt 0.941566 0.234022
vt 0.941653 0.234268
vt 0.941653 0.124170
vt 0.941566 0.124428
vt 0.941911 0.124084
vt 0.976879 0.124428
vt 0.976552 0.124084
vt 0.972060 0.169861
vt 0.959020 0.125035
vt 0.959020 0.233373
vt 0.976797 0.124170
s 1
usemtl 1011
f 2/1/1 4/2/2 1/3/3
f 1/3/3 3/4/4 2/1/1
f 5/5/5 3/4/4 1/3/3
f 1/3/3 6/6/6 5/5/5
f 5/5/5 6/6/6 7/7/7
f 7/7/7 8/8/7 5/5/5
s 0
f 11/9/7 8/8/7 7/7/7
f 7/7/7 9/10/7 11/9/7
f 11/9/7 9/10/7 10/11/7
f 35/12/8 11/9/8 10/11/8
f 12/13/7 11/9/7 35/12/7
s 1
f 18/14/9 20/15/10 19/16/11
f 19/16/11 17/17/12 18/14/9
f 21/18/13 20/15/10 18/14/9
f 18/14/9 22/19/14 21/18/13
f 25/20/15 26/21/16 27/22/17
f 27/22/17 28/23/15 25/20/15
f 28/23/15 24/24/18 25/20/15
f 23/25/19 24/24/18 28/23/15
f 28/23/15 29/26/20 23/25/19
f 23/25/19 29/26/20 21/18/13
f 21/18/13 22/19/14 23/25/19
f 16/27/21 17/17/12 19/16/11
f 19/16/11 30/28/22 16/27/21
f 16/27/21 30/28/22 31/29/23
f 31/29/23 15/30/24 16/27/21
f 14/31/25 15/30/24 31/29/23
f 31/29/23 32/32/26 14/31/25
f 14/31/25 32/32/26 33/33/27
f 33/33/27 13/34/28 14/31/25
f 2/1/1 13/34/28 33/33/27
f 33/33/27 4/2/2 2/1/1
s 0
f 34/35/29 12/13/29 35/12/29
f 34/35/30 35/12/30 36/36/30
f 36/36/31 39/37/31 37/38/31
f 37/38/31 38/39/31 36/36/31
f 36/36/32 38/39/32 41/40/32
f 40/41/33 39/37/33 36/36/33
f 36/36/8 35/12/8 40/41/8
s 1
f 43/42/31 41/40/31 38/39/31
f 42/43/34 43/42/31 44/44/31
s 0
f 44/44/32 43/42/32 38/39/32
s 1
f 44/44/31 45/45/35 42/43/34
f 42/43/34 45/45/35 46/46/36
f 46/46/36 47/47/37 42/43/34
f 48/48/38 47/47/37 46/46/36
f 46/46/36 49/49/39 48/48/38
f 48/48/38 49/49/39 50/50/40
f 50/50/40 51/51/41 53/52/42
f 50/50/40 52/53/43 48/48/38
f 53/52/42 52/53/43 50/50/40
f 53/52/42 51/51/41 54/54/44
f 54/54/44 55/55/45 53/52/42
f 64/56/46 63/57/47 61/58/48
f 61/58/48 65/59/48 64/56/46
f 61/58/48 62/60/49 65/59/48
f 65/59/48 62/60/49 60/61/50
f 60/61/50 66/62/51 65/59/48
f 67/63/52 66/62/51 60/61/50
f 58/64/53 68/65/54 67/63/52
f 67/63/52 59/66/55 58/64/53
f 60/61/50 59/66/55 67/63/52
f 69/67/56 68/65/54 58/64/53
f 56/68/57 70/69/58 69/67/56
f 69/67/56 57/70/59 56/68/57
f 58/64/53 57/70/59 69/67/56
f 54/54/44 70/69/58 56/68/57
f 56/68/57 55/55/45 54/54/44
s 0
usemtl 1001
f 72/71/60 74/72/60 71/73/60
f 71/73/61 73/74/61 72/71/61
f 74/72/60 75/75/60 71/73/60
s 1
f 75/75/62 78/76/63 76/77/64
f 76/77/64 77/78/65 75/75/62
f 77/78/65 71/73/66 75/75/62
s 0
f 74/72/67 79/79/68 78/76/68
f 78/76/61 75/75/61 74/72/61
f 78/76/69 79/79/69 95/80/69
f 95/80/61 80/81/61 78/76/61
s 1
f 80/81/70 81/82/71 76/77/64
f 76/77/64 78/76/63 80/81/70
f 80/81/70 82/83/72 81/82/71
f 82/83/72 85/84/73 83/85/74
f 83/85/74 84/86/75 82/83/72
f 82/83/72 84/86/75 81/82/71
f 83/85/74 85/84/73 89/87/76
f 89/87/76 87/88/77 83/85/74
f 89/87/76 88/89/78 86/90/79
f 86/90/79 87/88/77 89/87/76
f 90/91/80 89/87/76 85/84/73
f 88/89/78 89/87/76 90/91/80
s 0
f 85/84/60 92/92/60 90/91/60
s 1
f 90/91/80 92/92/81 91/93/82
s 0
f 93/94/60 92/92/60 85/84/60
s 1
f 93/94/83 85/84/73 82/83/72
s 0
f 93/94/84 94/95/84 92/92/84
f 95/80/84 94/95/84 93/94/84
f 82/83/85 95/80/85 93/94/85
f 95/80/60 99/96/60 94/95/60
f 96/97/86 99/96/86 95/80/86
f 96/97/86 97/98/86 99/96/86
s 1
f 97/98/87 101/99/88 100/100/89
f 100/100/89 99/96/90 97/98/87
f 102/101/91 99/96/90 100/100/89
f 102/101/91 100/100/89 103/102/92
f 103/102/92 104/103/93 102/101/91
s 0
f 104/103/85 106/104/85 105/105/85
f 94/95/60 102/101/60 104/103/60
s 1
f 108/106/94 115/107/95 106/104/96
f 103/102/92 107/108/97 106/104/96
f 106/104/96 107/108/97 108/106/94
f 106/104/96 104/103/93 103/102/92
f 109/109/98 111/110/99 108/106/94
f 108/106/94 110/111/100 109/109/98
f 112/112/101 110/111/100 108/106/94
f 108/106/94 111/110/99 113/113/102
f 108/106/94 107/108/97 112/112/101
f 113/113/102 115/107/95 108/106/94
f 114/114/103 91/93/82 113/113/102
f 113/113/102 111/110/99 114/114/103
f 91/93/82 115/107/95 113/113/102
s 0
f 105/105/104 115/107/104 91/93/104
s 1
f 109/109/98 116/115/105 114/114/103
f 114/114/103 111/110/99 109/109/98
f 114/114/103 116/115/105 117/116/106
f 117/116/106 118/117/107 114/114/103
f 114/114/103 118/117/107 90/91/80
f 90/91/80 91/93/82 114/114/103
f 90/91/80 118/117/107 86/90/79
f 86/90/79 88/89/78 90/91/80
f 86/90/79 118/117/107 117/116/106
f 117/116/106 119/118/108 86/90/79
f 121/119/109 119/118/108 117/116/106
f 117/116/106 116/115/105 120/120/110
f 122/121/111 119/118/108 121/119/109
f 124/122/112 122/121/111 121/119/109
f 121/119/109 117/116/106 123/123/113
f 124/122/112 127/124/114 125/125/115
f 125/125/115 122/121/111 124/122/112
f 124/122/112 121/119/109 126/126/116
f 126/126/116 239/127/117 124/122/112
f 124/122/112 239/127/117 127/124/114
f 125/125/115 127/124/114 128/128/118
f 128/128/118 130/129/119 125/125/115
f 127/124/114 259/130/120 128/128/118
f 128/128/118 259/130/120 129/131/121
f 132/132/122 130/129/119 128/128/118
f 130/129/119 84/86/75 83/85/74
f 83/85/74 131/133/123 130/129/119
f 130/129/119 131/133/123 125/125/115
f 81/82/71 84/86/75 130/129/119
f 130/129/119 132/132/122 81/82/71
f 76/77/64 81/82/71 132/132/122
f 132/132/122 133/134/124 76/77/64
f 133/134/124 132/132/122 134/135/125
f 134/135/125 128/128/118 129/131/121
f 132/132/122 128/128/118 134/135/125
f 134/135/125 135/136/126 133/134/124
s 0
f 129/131/127 138/137/127 134/135/127
s 1
f 134/135/125 138/137/128 135/136/126
f 135/136/126 137/138/129 136/139/130
f 138/137/128 137/138/129 135/136/126
f 135/136/126 136/139/130 141/140/131
f 141/140/131 136/139/130 139/141/132
s 0
f 139/141/133 140/142/133 141/140/133
s 1
f 133/134/124 135/136/126 141/140/131
f 141/140/131 140/142/134 142/143/135
f 140/142/134 143/144/136 142/143/135
f 140/142/134 145/145/137 144/146/138
f 144/146/138 143/144/136 140/142/134
f 140/142/134 139/141/132 145/145/137
f 144/146/138 145/145/137 146/147/139
f 148/148/140 149/149/141 146/147/139
f 146/147/139 149/149/141 144/146/138
f 147/150/142 148/148/140 146/147/139
f 145/145/137 285/151/143 146/147/139
f 146/147/139 285/151/143 147/150/142
f 148/148/140 150/152/144 149/149/141
f 151/153/145 150/152/144 148/148/140
f 152/154/146 151/153/145 148/148/140
f 152/154/146 154/155/147 153/156/148
f 153/156/148 151/153/145 152/154/146
f 152/154/146 148/148/140 147/150/142
f 147/150/142 157/157/149 152/154/146
f 152/154/146 157/157/149 154/155/147
f 154/155/147 156/158/150 155/159/151
f 157/157/149 156/158/150 154/155/147
f 154/155/147 155/159/151 158/160/152
f 158/160/152 155/159/151 159/161/153
f 158/160/152 161/162/154 153/156/148
f 153/156/148 154/155/147 158/160/152
f 158/160/152 159/161/153 160/163/155
f 160/163/155 161/162/154 158/160/152
f 161/162/154 162/164/156 153/156/148
f 166/165/157 162/164/156 161/162/154
f 161/162/154 165/166/158 163/167/159
f 163/167/159 164/168/160 161/162/154
f 160/163/155 165/166/158 161/162/154
f 161/162/154 164/168/160 166/165/157
f 151/153/145 162/164/156 166/165/157
f 166/165/157 167/169/161 151/153/145
f 169/170/162 167/169/161 166/165/157
f 166/165/157 164/168/160 191/171/163
f 191/171/163 168/172/164 166/165/157
f 166/165/157 168/172/164 169/170/162
f 169/170/162 170/173/165 171/174/166
f 171/174/166 167/169/161 169/170/162
f 149/149/141 150/152/144 171/174/166
f 171/174/166 172/175/167 149/149/141
f 174/176/168 172/175/167 171/174/166
f 171/174/166 150/152/144 151/153/145
f 151/153/145 167/169/161 171/174/166
f 171/174/166 170/173/165 174/176/168
f 174/176/168 73/74/169 173/177/170
f 173/177/170 172/175/167 174/176/168
s 0
f 175/178/171 174/176/171 170/173/171
f 73/74/172 174/176/171 175/178/171
f 169/170/173 177/179/173 175/178/173
f 175/178/172 177/179/172 72/71/172
s 1
f 170/173/165 169/170/162 175/178/68
f 175/178/174 72/71/174 73/74/174
s 0
f 177/179/86 178/180/86 72/71/86
f 72/71/175 178/180/175 176/181/175
s 1
f 176/181/176 179/182/177 180/183/178
s 0
f 178/180/61 179/182/61 176/181/61
f 176/181/60 180/183/60 74/72/60
f 74/72/60 180/183/60 98/184/60
f 97/98/86 96/97/86 98/184/86
f 98/184/86 181/185/86 97/98/86
f 180/183/68 181/185/68 98/184/68
s 1
f 181/185/179 180/183/178 182/186/180
f 181/185/179 182/186/180 101/99/88
f 101/99/88 97/98/87 181/185/179
f 182/186/180 180/183/178 179/182/177
f 179/182/177 178/180/181 184/187/182
f 179/182/177 183/188/183 182/186/180
f 184/187/182 183/188/183 179/182/177
f 185/189/184 187/190/185 184/187/182
f 184/187/182 186/191/186 185/189/184
f 190/192/187 186/191/186 184/187/182
f 184/187/182 187/190/185 188/193/188
f 188/193/188 183/188/183 184/187/182
f 184/187/182 178/180/181 190/192/187
f 190/192/187 189/194/189 163/167/159
f 163/167/159 186/191/186 190/192/187
s 0
f 189/194/190 190/192/190 177/179/190
f 177/179/86 190/192/86 178/180/86
f 177/179/86 191/171/191 189/194/86
f 169/170/86 191/171/86 177/179/86
s 1
f 163/167/159 189/194/189 191/171/163
f 188/193/188 187/190/185 193/195/192
f 188/193/188 192/196/193 182/186/180
f 182/186/180 183/188/183 188/193/188
f 192/196/193 188/193/188 194/197/194
f 194/197/194 188/193/188 193/195/192
f 193/195/192 195/198/195 194/197/194
f 194/197/194 196/199/196 192/196/193
f 195/198/195 198/200/197 194/197/194
f 194/197/194 198/200/197 196/199/196
f 196/199/196 198/200/197 197/201/198
s 0
f 197/201/199 200/202/199 192/196/199
s 1
f 192/196/193 196/199/196 197/201/198
f 197/201/198 205/203/200 199/204/201
s 0
f 199/204/202 200/202/202 197/201/202
s 1
f 200/202/203 199/204/204 101/99/88
f 101/99/88 182/186/180 200/202/203
f 182/186/180 192/196/193 200/202/203
f 101/99/88 199/204/204 201/205/204
f 201/205/204 202/206/205 100/100/89
f 100/100/89 101/99/88 201/205/204
s 0
f 202/206/206 201/205/207 207/207/208
f 207/207/209 201/205/209 199/204/209
f 207/207/210 203/208/210 202/206/210
s 1
f 199/204/201 205/203/200 207/207/211
f 204/209/212 206/210/213 207/207/211
f 207/207/211 205/203/200 204/209/212
f 203/208/214 207/207/211 208/211/215
f 208/211/215 207/207/211 206/210/213
f 208/211/215 211/212/216 209/213/217
f 209/213/217 210/214/218 208/211/215
f 208/211/215 210/214/218 212/215/219
f 206/210/213 211/212/216 208/211/215
f 215/216/220 208/211/215 212/215/219
f 212/215/219 210/214/218 213/217/221
f 212/215/219 213/217/221 214/218/222
f 215/216/220 212/215/219 216/219/223
f 203/208/214 208/211/215 215/216/220
f 215/216/220 218/220/224 202/206/205
f 202/206/205 203/208/214 215/216/220
f 216/219/223 218/220/224 215/216/220
f 216/219/223 217/221/225 218/220/224
f 112/112/101 217/221/225 216/219/223
f 214/218/222 112/112/101 216/219/223
f 216/219/223 212/215/219 214/218/222
f 100/100/89 202/206/205 218/220/224
f 218/220/224 217/221/225 103/102/92
f 103/102/92 100/100/89 218/220/224
f 219/222/226 112/112/101 214/218/222
f 109/109/98 110/111/100 219/222/226
f 220/223/227 109/109/98 219/222/226
f 219/222/226 110/111/100 112/112/101
f 214/218/222 221/224/228 219/222/226
f 219/222/226 221/224/228 220/223/227
f 220/223/227 222/225/229 120/120/110
f 120/120/110 109/109/98 220/223/227
f 221/224/228 225/226/230 220/223/227
f 220/223/227 225/226/230 222/225/229
f 222/225/229 224/227/231 223/228/232
f 225/226/230 224/227/231 222/225/229
f 222/225/229 223/228/232 123/123/113
f 227/229/233 226/230/234 225/226/230
f 225/226/230 226/230/234 229/231/235
f 225/226/230 228/232/236 227/229/233
f 221/224/228 228/232/236 225/226/230
f 229/231/235 224/227/231 225/226/230
f 223/228/232 224/227/231 229/231/235
f 229/231/235 230/233/237 223/228/232
f 233/234/238 230/233/237 229/231/235
f 229/231/235 226/230/234 231/235/239
f 231/235/239 232/236/240 229/231/235
f 229/231/235 232/236/240 233/234/238
f 233/234/238 232/236/240 234/237/241
f 234/237/241 237/238/242 233/234/238
f 236/239/243 235/240/244 233/234/238
f 233/234/238 235/240/244 238/241/245
f 233/234/238 237/238/242 236/239/243
f 238/241/245 230/233/237 233/234/238
f 239/127/117 241/242/246 238/241/245
f 238/241/245 240/243/247 239/127/117
f 242/244/248 240/243/247 238/241/245
f 238/241/245 241/242/246 223/228/232
f 223/228/232 230/233/237 238/241/245
f 238/241/245 235/240/244 242/244/248
f 242/244/248 244/245/249 243/246/250
f 243/246/250 240/243/247 242/244/248
f 242/244/248 235/240/244 236/239/243
f 236/239/243 246/247/251 242/244/248
f 245/248/252 244/245/249 242/244/248
f 242/244/248 246/247/251 245/248/252
f 247/249/253 244/245/249 245/248/252
f 245/248/252 248/250/254 247/249/253
f 247/249/253 248/250/254 249/251/255
f 250/252/256 247/249/253 249/251/255
f 249/251/255 251/253/257 250/252/256
f 250/252/256 251/253/257 252/254/258
f 253/255/259 255/256/260 252/254/258
f 252/254/258 254/257/261 253/255/259
f 252/254/258 255/256/260 250/252/256
f 256/258/262 255/256/260 253/255/259
f 250/252/256 255/256/260 256/258/262
f 136/139/130 137/138/129 256/258/262
f 256/258/262 257/259/263 136/139/130
f 253/255/259 257/259/263 256/258/262
f 256/258/262 137/138/129 138/137/128
f 138/137/128 258/260/264 256/258/262
f 256/258/262 258/260/264 250/252/256
f 138/137/128 259/130/120 258/260/264
f 259/130/120 260/261/265 258/260/264
f 258/260/264 260/261/265 247/249/253
f 258/260/264 247/249/253 250/252/256
f 243/246/250 260/261/265 259/130/120
f 247/249/253 260/261/265 243/246/250
f 259/130/120 261/262/266 243/246/250
f 127/124/114 261/262/266 259/130/120
f 243/246/250 261/262/266 239/127/117
f 239/127/117 261/262/266 127/124/114
f 129/131/121 259/130/120 138/137/128
f 136/139/130 257/259/263 263/263/267
f 263/263/267 257/259/263 253/255/259
f 263/263/267 262/264/268 136/139/130
f 253/255/259 264/265/269 263/263/267
f 264/265/269 267/266/270 265/267/271
f 265/267/271 263/263/267 264/265/269
f 266/268/272 269/269/273 264/265/269
f 268/270/274 267/266/270 264/265/269
f 264/265/269 269/269/273 268/270/274
f 270/271/275 267/266/270 268/270/274
f 268/270/274 271/272/276 270/271/275
f 270/271/275 271/272/276 272/273/277
f 272/273/277 273/274/278 270/271/275
f 274/275/279 273/274/278 272/273/277
f 272/273/277 275/276/280 274/275/279
f 274/275/279 275/276/280 276/277/281
f 277/278/282 279/279/283 276/277/281
f 276/277/281 278/280/284 277/278/282
f 276/277/281 279/279/283 274/275/279
f 280/281/285 279/279/283 277/278/282
f 274/275/279 279/279/283 280/281/285
f 155/159/151 156/158/150 280/281/285
f 280/281/285 281/282/286 155/159/151
f 277/278/282 281/282/286 280/281/285
f 280/281/285 156/158/150 157/157/149
f 157/157/149 282/283/287 280/281/285
f 280/281/285 282/283/287 274/275/279
f 283/284/288 282/283/287 157/157/149
f 274/275/279 282/283/287 283/284/288
f 157/157/149 284/285/289 283/284/288
f 283/284/288 284/285/289 285/151/143
f 285/151/143 286/286/290 283/284/288
f 283/284/288 286/286/290 270/271/275
f 270/271/275 273/274/278 283/284/288
f 283/284/288 273/274/278 274/275/279
f 265/267/271 286/286/290 285/151/143
f 270/271/275 286/286/290 265/267/271
f 285/151/143 284/285/289 147/150/142
f 285/151/143 287/287/291 265/267/271
f 145/145/137 287/287/291 285/151/143
f 265/267/271 287/287/291 262/264/268
f 262/264/268 287/287/291 145/145/137
f 147/150/142 284/285/289 157/157/149
f 155/159/151 281/282/286 288/288/292
f 288/288/292 281/282/286 277/278/282
f 289/289/293 291/290/294 288/288/292
f 288/288/292 290/291/295 289/289/293
f 293/292/296 290/291/295 288/288/292
f 288/288/292 291/290/294 155/159/151
f 277/278/282 292/293/297 288/288/292
f 288/288/292 292/293/297 293/292/296
f 293/292/296 296/294/298 294/295/299
f 294/295/299 290/291/295 293/292/296
f 293/292/296 292/293/297 295/296/300
f 293/292/296 297/297/301 350/298/302
f 350/298/302 296/294/298 293/292/296
f 295/296/300 297/297/301 293/292/296
f 294/295/299 296/294/298 300/299/303
f 300/299/303 296/294/298 350/298/302
f 300/299/303 298/300/304 294/295/299
f 300/299/303 322/301/305 301/302/306
f 301/302/306 298/300/304 300/299/303
f 198/200/197 298/300/304 301/302/306
f 294/295/299 298/300/304 198/200/197
f 204/209/212 301/302/306 299/303/307
f 301/302/306 322/301/305 299/303/307
f 299/303/307 319/304/308 204/209/212
f 302/305/309 206/210/213 204/209/212
f 204/209/212 319/304/308 302/305/309
f 302/305/309 314/306/310 206/210/213
f 206/210/213 314/306/310 306/307/311
f 306/307/311 303/308/312 209/213/217
f 209/213/217 211/212/216 306/307/311
f 305/309/313 303/308/312 306/307/311
f 306/307/311 211/212/216 206/210/213
f 307/310/314 303/308/312 305/309/313
f 305/309/313 308/311/315 307/310/314
f 307/310/314 308/311/315 309/312/316
f 309/312/316 310/313/317 307/310/314
f 231/235/239 310/313/317 309/312/316
f 309/312/316 311/314/318 231/235/239
f 231/235/239 311/314/318 234/237/241
f 307/310/314 310/313/317 227/229/233
f 227/229/233 310/313/317 231/235/239
f 307/310/314 312/315/319 209/213/217
f 209/213/217 303/308/312 307/310/314
f 227/229/233 312/315/319 307/310/314
f 209/213/217 312/315/319 213/217/221
f 213/217/221 312/315/319 227/229/233
f 314/306/310 313/316/320 306/307/311
f 306/307/311 313/316/320 316/317/313
f 316/317/313 305/309/313 306/307/311
f 304/318/321 305/309/313 316/317/313
f 315/319/322 304/318/321 316/317/313
s 0
f 317/320/323 313/316/323 314/306/323
f 314/306/323 302/305/323 317/320/323
f 319/304/324 318/321/324 317/320/324
f 317/320/324 302/305/324 319/304/324
f 319/304/325 299/303/325 320/322/325
f 320/322/325 318/321/325 319/304/325
f 322/301/326 321/323/326 320/322/326
s 1
f 320/322/326 299/303/307 322/301/305
f 300/299/303 321/323/327 322/301/305
f 326/324/328 324/325/329 325/326/330
f 326/324/328 325/326/330 327/327/331
f 328/328/332 329/329/333 326/324/328
f 329/329/333 324/325/329 326/324/328
f 330/330/334 331/331/335 329/329/333
f 332/332/336 331/331/335 330/330/334
f 330/330/334 334/333/337 332/332/336
f 332/332/336 334/333/337 333/334/338
f 334/333/337 335/335/339 333/334/338
f 333/334/338 335/335/339 336/336/340
f 333/334/338 336/336/340 337/337/341
f 337/337/341 336/336/340 338/338/342
f 337/337/341 338/338/342 339/339/343
f 339/339/343 338/338/342 341/340/344
f 341/340/344 342/341/345 340/342/346
f 343/343/344 344/344/347 342/341/345
f 342/341/345 341/340/344 343/343/344
f 342/341/345 344/344/347 345/345/348
f 345/345/348 346/346/348 342/341/345
f 340/342/346 342/341/345 346/346/348
f 345/345/348 348/347/349 347/348/350
f 347/348/350 346/346/348 345/345/348
f 338/338/342 349/349/351 343/343/344
f 336/336/340 349/349/351 338/338/342
f 343/343/344 341/340/344 338/338/342
f 330/330/334 329/329/333 328/328/332
f 327/327/331 325/326/330 323/350/302
f 323/350/302 350/298/302 327/327/331
f 300/299/303 350/298/302 323/350/302
f 323/350/302 321/323/327 300/299/303
f 353/351/352 351/352/353 352/353/354
f 315/319/322 351/352/353 353/351/352
f 352/353/354 354/354/355 353/351/352
f 353/351/352 304/318/321 315/319/322
f 360/355/356 356/356/357 355/357/358
f 357/358/359 354/354/355 352/353/354
f 358/359/360 355/357/358 357/358/359
f 357/358/359 359/360/361 358/359/360
f 352/353/354 359/360/361 357/358/359
f 365/361/362 363/362/363 362/363/364
f 362/363/364 363/362/363 361/364/365
f 364/365/362 366/366/366 363/362/363
f 363/362/363 365/361/362 364/365/362
f 363/362/363 366/366/366 367/367/367
f 363/362/363 367/367/367 361/364/365
f 361/364/365 367/367/367 360/355/356
f 367/367/367 356/356/357 360/355/356
f 372/368/368 370/369/369 368/370/370
f 368/370/370 371/371/370 372/368/368
f 371/371/370 374/372/371 373/373/372
f 373/373/372 374/372/371 365/361/362
f 368/370/370 369/374/373 374/372/371
f 374/372/371 371/371/370 368/370/370
f 374/372/371 369/374/373 364/365/362
f 364/365/362 365/361/362 374/372/371
f 360/355/356 355/357/358 358/359/360
f 197/201/198 301/302/306 204/209/212
f 197/201/198 198/200/197 301/302/306
f 277/278/282 278/280/284 295/296/300
f 295/296/300 292/293/297 277/278/282
f 294/295/299 375/375/374 289/289/293
f 198/200/197 375/375/374 294/295/299
f 289/289/293 290/291/295 294/295/299
f 289/289/293 375/375/374 195/198/195
f 195/198/195 375/375/374 198/200/197
f 159/161/153 291/290/294 289/289/293
f 155/159/151 291/290/294 159/161/153
f 159/161/153 289/289/293 376/376/375
f 376/376/375 289/289/293 195/198/195
f 376/376/375 195/198/195 193/195/192
f 193/195/192 185/189/184 376/376/375
f 376/376/375 185/189/184 160/163/155
f 160/163/155 159/161/153 376/376/375
f 265/267/271 267/266/270 270/271/275
f 253/255/259 254/257/261 266/268/272
f 266/268/272 264/265/269 253/255/259
f 262/264/268 263/263/267 265/267/271
f 136/139/130 262/264/268 139/141/132
f 145/145/137 139/141/132 262/264/268
f 243/246/250 244/245/249 247/249/253
f 239/127/117 240/243/247 243/246/250
f 126/126/116 241/242/246 239/127/117
f 223/228/232 241/242/246 126/126/116
f 234/237/241 232/236/240 231/235/239
f 231/235/239 226/230/234 227/229/233
f 227/229/233 228/232/236 213/217/221
f 213/217/221 228/232/236 221/224/228
f 123/123/113 223/228/232 126/126/116
f 214/218/222 213/217/221 221/224/228
f 120/120/110 222/225/229 123/123/113
f 103/102/92 217/221/225 112/112/101
f 213/217/221 210/214/218 209/213/217
f 204/209/212 205/203/200 197/201/198
f 193/195/192 187/190/185 185/189/184
f 185/189/184 186/191/186 163/167/159
f 163/167/159 165/166/158 185/189/184
f 185/189/184 165/166/158 160/163/155
s 0
f 72/71/84 176/181/84 74/72/84
s 1
f 173/177/170 73/74/169 71/73/66
f 149/149/141 172/175/167 173/177/170
f 173/177/170 377/377/376 149/149/141
f 143/144/136 377/377/376 173/177/170
f 173/177/170 378/378/377 143/144/136
f 71/73/66 378/378/377 173/177/170
f 143/144/136 378/378/377 77/78/65
f 77/78/65 378/378/377 71/73/66
f 149/149/141 377/377/376 144/146/138
f 144/146/138 377/377/376 143/144/136
f 169/170/162 168/172/164 191/171/163
f 191/171/163 164/168/160 163/167/159
f 153/156/148 162/164/156 151/153/145
f 77/78/65 142/143/135 143/144/136
f 141/140/131 142/143/135 77/78/65
f 141/140/131 77/78/65 76/77/64
f 76/77/64 133/134/124 141/140/131
f 122/121/111 131/133/123 83/85/74
f 125/125/115 131/133/123 122/121/111
f 126/126/116 121/119/109 123/123/113
f 123/123/113 117/116/106 120/120/110
f 83/85/74 87/88/77 122/121/111
f 122/121/111 87/88/77 86/90/79
f 86/90/79 119/118/108 122/121/111
f 120/120/110 116/115/105 109/109/98
f 112/112/101 107/108/97 103/102/92
s 0
f 105/105/85 106/104/85 115/107/85
f 94/95/60 104/103/60 92/92/60
f 92/92/378 104/103/378 105/105/378
f 91/93/69 92/92/379 105/105/69
f 99/96/61 102/101/61 94/95/61
s 1
f 98/184/380 79/79/85 74/72/61
f 95/80/85 79/79/85 98/184/380
s 0
f 98/184/86 96/97/86 95/80/86
f 82/83/60 80/81/60 95/80/60
f 380/379/381 381/380/381 379/381/381
s 1
f 382/382/382 391/383/383 383/384/384
f 386/385/385 384/386/386 385/387/387
f 392/388/388 387/389/388 390/390/388
s 0
f 390/390/389 387/389/389 388/391/389
f 390/390/390 380/379/390 392/388/390
f 388/391/391 385/387/391 384/386/391
f 391/383/391 389/392/391 384/386/391
f 384/386/391 389/392/391 388/391/391
f 391/383/390 382/382/390 389/392/390
f 390/390/389 381/380/389 380/379/389
f 389/392/389 381/380/389 390/390/389
f 393/393/392 387/389/392 392/388/392
s 1
f 388/391/389 389/392/389 390/390/389
