# Blender 5.1.2
# www.blender.org
mtllib btn_triangle.mtl
o btn_triangle
v 0.683633 -0.278806 0.443467
v 0.674361 -0.292261 0.461263
v 0.683633 -0.293604 0.443467
v 0.674361 -0.277463 0.461263
v 0.686795 -0.295360 0.423652
v 0.686795 -0.280562 0.423652
v 0.683837 -0.282441 0.403805
v 0.683837 -0.297238 0.403805
v 0.674748 -0.298948 0.385916
v 0.674748 -0.284151 0.385916
v 0.660690 -0.285484 0.371598
v 0.660690 -0.300281 0.371598
v 0.642821 -0.301031 0.362468
v 0.642821 -0.286233 0.362468
v 0.623032 -0.286660 0.359148
v 0.623032 -0.301458 0.359148
v 0.603209 -0.301824 0.362264
v 0.603209 -0.287027 0.362264
v 0.585248 -0.287139 0.371210
v 0.585248 -0.301937 0.371210
v 0.571043 -0.301603 0.385382
v 0.571043 -0.286805 0.385382
v 0.561770 -0.285992 0.403177
v 0.558608 -0.299465 0.422993
v 0.558608 -0.284667 0.422993
v 0.561770 -0.300790 0.403177
v 0.642194 -0.290843 0.484381
v 0.660155 -0.291339 0.475435
v 0.660155 -0.276541 0.475435
v 0.642194 -0.276046 0.484381
v 0.622371 -0.276227 0.487497
v 0.622371 -0.291025 0.487497
v 0.602582 -0.292134 0.484177
v 0.602582 -0.277336 0.484177
v 0.584714 -0.279038 0.475047
v 0.584714 -0.293836 0.475047
v 0.570655 -0.295795 0.460729
v 0.561566 -0.297757 0.442839
v 0.584714 -0.293836 0.475047
v 0.584714 -0.279038 0.475047
v 0.570655 -0.280998 0.460729
v 0.561566 -0.282960 0.442839
v 0.622550 -0.318135 0.452439
v 0.609088 -0.316375 0.465120
v 0.622535 -0.315812 0.465948
v 0.608447 -0.318633 0.451949
v 0.640078 -0.319007 0.438620
v 0.622564 -0.320399 0.438050
v 0.635774 -0.315667 0.462710
v 0.607945 -0.320762 0.437823
v 0.622522 -0.313730 0.476454
v 0.635381 -0.313326 0.475325
v 0.647089 -0.313115 0.472263
v 0.648473 -0.314638 0.462929
v 0.650102 -0.316271 0.450748
v 0.664073 -0.317136 0.430624
v 0.659548 -0.314294 0.458298
v 0.671593 -0.314009 0.447736
v 0.656493 -0.313108 0.467577
v 0.662678 -0.312955 0.463343
v 0.666907 -0.313458 0.457153
v 0.671135 -0.312457 0.456854
v 0.664226 -0.312216 0.464888
v 0.665729 -0.310550 0.466380
v 0.673118 -0.310837 0.457540
v 0.676509 -0.312880 0.447271
v 0.678730 -0.311306 0.447266
v 0.679927 -0.313686 0.435708
v 0.682232 -0.312104 0.435565
v 0.683515 -0.309614 0.435485
v 0.679968 -0.308822 0.447261
v 0.674221 -0.308325 0.457919
v 0.674833 -0.304348 0.458114
v 0.666933 -0.305012 0.467574
v 0.666561 -0.308008 0.467205
v 0.680528 -0.305856 0.447259
v 0.684223 -0.305654 0.435444
v 0.685317 -0.307736 0.423149
v 0.684223 -0.308158 0.410854
v 0.684739 -0.310712 0.423150
v 0.683517 -0.312124 0.410815
v 0.682236 -0.314622 0.410739
v 0.683457 -0.313214 0.423152
v 0.678729 -0.316157 0.399047
v 0.679967 -0.313685 0.399043
v 0.680527 -0.310726 0.399040
v 0.674834 -0.311322 0.388189
v 0.674206 -0.315229 0.388400
v 0.666538 -0.316598 0.379130
v 0.666927 -0.313697 0.378733
v 0.665691 -0.318959 0.379985
v 0.673095 -0.317650 0.388797
v 0.671113 -0.319121 0.389497
v 0.676508 -0.317710 0.399051
v 0.664189 -0.320336 0.381493
v 0.666891 -0.320130 0.389209
v 0.671592 -0.318878 0.398599
v 0.662653 -0.320757 0.383034
v 0.656477 -0.321617 0.378806
v 0.656179 -0.321239 0.374588
v 0.656872 -0.319942 0.372606
v 0.646626 -0.321877 0.369214
v 0.647088 -0.322311 0.374120
v 0.646624 -0.320619 0.366999
v 0.635072 -0.322293 0.365801
v 0.634930 -0.321014 0.363498
v 0.634848 -0.318724 0.362187
v 0.646621 -0.318343 0.365733
v 0.657263 -0.317635 0.371478
v 0.657473 -0.313815 0.370828
v 0.646623 -0.314945 0.365054
v 0.634804 -0.314922 0.361441
v 0.622512 -0.315437 0.360258
v 0.610213 -0.315067 0.361440
v 0.622511 -0.318876 0.360961
v 0.610174 -0.318899 0.362179
v 0.598401 -0.318847 0.365722
v 0.610098 -0.321229 0.363488
v 0.598400 -0.315964 0.365138
v 0.598404 -0.321182 0.366982
v 0.622513 -0.321194 0.362272
v 0.622518 -0.322514 0.364583
v 0.609964 -0.322567 0.365795
v 0.609668 -0.323232 0.371076
v 0.597963 -0.323191 0.374124
v 0.598409 -0.322528 0.369205
v 0.622528 -0.323140 0.369960
v 0.636051 -0.322877 0.383232
v 0.635386 -0.322825 0.371073
v 0.609107 -0.323542 0.381303
v 0.622547 -0.323373 0.380472
v 0.622566 -0.323305 0.393991
v 0.607963 -0.323251 0.408612
v 0.622575 -0.323022 0.408387
v 0.608474 -0.323536 0.394481
v 0.637180 -0.322029 0.408600
v 0.622573 -0.322172 0.423220
v 0.650100 -0.321478 0.395639
v 0.651298 -0.320586 0.409100
v 0.651790 -0.319409 0.423198
v 0.637406 -0.321033 0.423212
v 0.664448 -0.319007 0.409735
v 0.659530 -0.321077 0.388061
v 0.674652 -0.317487 0.410303
v 0.679931 -0.316217 0.410603
v 0.681149 -0.314817 0.423155
v 0.675772 -0.315611 0.428323
v 0.648471 -0.322115 0.383454
v 0.607733 -0.322416 0.423218
v 0.585348 -0.321918 0.423709
v 0.583330 -0.320590 0.436392
v 0.583376 -0.322705 0.409715
v 0.573478 -0.322523 0.398605
v 0.570428 -0.321949 0.410309
v 0.587080 -0.323311 0.393870
v 0.569311 -0.321109 0.423167
v 0.570426 -0.319975 0.436027
v 0.565149 -0.319232 0.435711
v 0.563930 -0.320300 0.423157
v 0.565144 -0.321128 0.410604
v 0.561616 -0.318903 0.423153
v 0.568556 -0.321730 0.399050
v 0.566331 -0.320332 0.399045
v 0.562833 -0.319724 0.410738
v 0.561530 -0.317350 0.410814
v 0.565075 -0.317962 0.399042
v 0.559709 -0.313631 0.423149
v 0.564497 -0.315059 0.399040
v 0.560800 -0.313485 0.410853
v 0.560310 -0.316534 0.423150
v 0.561535 -0.315510 0.435487
v 0.560800 -0.311656 0.435444
v 0.562840 -0.317862 0.435568
v 0.566339 -0.316688 0.447269
v 0.564498 -0.311437 0.447259
v 0.565080 -0.314332 0.447263
v 0.570822 -0.313052 0.457917
v 0.578089 -0.308769 0.467573
v 0.579324 -0.314234 0.466378
v 0.570189 -0.309151 0.458116
v 0.571944 -0.315469 0.457539
v 0.578475 -0.311742 0.467202
v 0.587752 -0.310471 0.474872
v 0.587547 -0.306463 0.475476
v 0.598401 -0.306344 0.481173
v 0.598403 -0.309351 0.480629
v 0.598407 -0.311911 0.479410
v 0.588146 -0.313008 0.473783
v 0.588853 -0.314658 0.471818
v 0.582394 -0.316471 0.463355
v 0.580844 -0.315811 0.464894
v 0.588573 -0.315953 0.467597
v 0.598412 -0.313603 0.477203
v 0.597960 -0.315058 0.472288
v 0.587660 -0.317379 0.460309
v 0.609662 -0.314312 0.475341
v 0.609965 -0.312772 0.480619
v 0.610101 -0.311062 0.482911
v 0.622512 -0.310485 0.484128
v 0.622515 -0.312188 0.481830
v 0.635066 -0.311873 0.480603
v 0.634924 -0.310201 0.482899
v 0.646622 -0.310156 0.479393
v 0.646625 -0.311804 0.477179
v 0.656201 -0.311958 0.471802
v 0.656893 -0.310298 0.473776
v 0.657276 -0.307760 0.474869
v 0.646620 -0.307626 0.480620
v 0.657475 -0.303763 0.475474
v 0.646619 -0.304635 0.481170
v 0.634803 -0.303652 0.484864
v 0.634845 -0.307655 0.484170
v 0.622509 -0.304910 0.485961
v 0.622510 -0.307919 0.485396
v 0.610176 -0.308492 0.484176
v 0.610214 -0.304472 0.484864
v 0.598391 -0.300878 0.481387
v 0.610221 -0.300013 0.484927
v 0.622506 -0.299442 0.486187
v 0.634798 -0.299192 0.484927
v 0.646619 -0.299174 0.481390
v 0.657504 -0.299302 0.475522
v 0.667082 -0.299548 0.467721
v 0.674882 -0.299885 0.458143
v 0.680752 -0.300404 0.447257
v 0.684288 -0.301192 0.435437
v 0.685549 -0.302280 0.423140
v 0.684288 -0.303695 0.410860
v 0.680752 -0.305272 0.399039
v 0.674882 -0.306853 0.388154
v 0.667089 -0.308265 0.378579
v 0.657504 -0.309345 0.370775
v 0.646618 -0.310077 0.364944
v 0.657504 -0.309345 0.370775
v 0.646614 -0.308433 0.365039
v 0.634801 -0.308879 0.361414
v 0.622507 -0.308942 0.360246
v 0.622509 -0.310580 0.360148
v 0.610214 -0.309000 0.361438
v 0.634955 -0.308592 0.362013
v 0.657483 -0.307490 0.371387
v 0.646681 -0.308213 0.365566
v 0.647162 -0.307889 0.370560
v 0.635339 -0.307910 0.378640
v 0.622936 -0.308739 0.360766
v 0.598400 -0.308705 0.365520
v 0.610190 -0.308759 0.361974
v 0.587686 -0.308627 0.371292
v 0.598400 -0.308896 0.365040
v 0.587545 -0.308857 0.370828
v 0.577961 -0.310309 0.378600
v 0.578025 -0.308670 0.378664
v 0.587514 -0.310458 0.370775
v 0.598400 -0.310538 0.364944
v 0.610221 -0.310594 0.361370
v 0.570189 -0.308443 0.388185
v 0.578140 -0.308471 0.379223
v 0.570645 -0.308224 0.388328
v 0.565049 -0.307829 0.398630
v 0.561484 -0.307247 0.410016
v 0.560800 -0.307418 0.410852
v 0.564400 -0.307987 0.399038
v 0.564304 -0.309627 0.399039
v 0.560731 -0.309011 0.410860
v 0.570136 -0.310046 0.388154
v 0.559508 -0.308199 0.423149
v 0.560731 -0.307189 0.435437
v 0.564304 -0.306007 0.447258
v 0.570136 -0.304680 0.458143
v 0.564400 -0.304367 0.447251
v 0.570191 -0.303083 0.458111
v 0.560800 -0.305597 0.435438
v 0.559607 -0.306565 0.423144
v 0.561359 -0.305356 0.435528
v 0.560111 -0.306372 0.423285
v 0.578353 -0.305418 0.435523
v 0.607541 -0.307053 0.421421
v 0.607588 -0.307856 0.407798
v 0.621906 -0.306818 0.421867
v 0.594481 -0.303651 0.449591
v 0.607703 -0.305403 0.436453
v 0.621371 -0.305055 0.436394
v 0.622635 -0.297704 0.485554
v 0.636097 -0.304092 0.435862
v 0.635237 -0.299905 0.466332
v 0.647215 -0.297427 0.480484
v 0.649515 -0.301046 0.449656
v 0.666017 -0.301167 0.435511
v 0.660899 -0.298828 0.460878
v 0.680054 -0.298628 0.447381
v 0.666650 -0.297799 0.467295
v 0.674333 -0.298126 0.458020
v 0.683686 -0.299425 0.435430
v 0.680616 -0.298772 0.447253
v 0.684217 -0.299604 0.435439
v 0.685410 -0.300653 0.423144
v 0.684218 -0.302108 0.410848
v 0.680617 -0.303641 0.399036
v 0.680714 -0.305274 0.399039
v 0.684288 -0.303695 0.410860
v 0.685510 -0.302279 0.423149
v 0.684288 -0.301192 0.435437
v 0.680714 -0.300403 0.447258
v 0.674882 -0.299885 0.458143
v 0.667057 -0.299548 0.467697
v 0.657504 -0.299302 0.475522
v 0.646618 -0.299174 0.481354
v 0.634798 -0.299192 0.484927
v 0.622509 -0.299442 0.486149
v 0.610221 -0.300013 0.484927
v 0.598400 -0.300878 0.481354
v 0.587514 -0.302011 0.475522
v 0.577961 -0.303313 0.467697
v 0.578025 -0.301681 0.467630
v 0.587546 -0.300416 0.475468
v 0.587671 -0.300261 0.475004
v 0.570664 -0.302877 0.457983
v 0.565188 -0.304108 0.447918
v 0.578363 -0.301536 0.467309
v 0.598297 -0.299147 0.480734
v 0.585028 -0.302126 0.461813
v 0.609573 -0.298321 0.484235
v 0.598398 -0.299250 0.481256
v 0.610213 -0.298427 0.484856
v 0.622506 -0.297819 0.486049
v 0.634803 -0.297605 0.484856
v 0.634869 -0.297446 0.484310
v 0.657401 -0.297557 0.474965
v 0.666991 -0.297919 0.467631
v 0.646615 -0.297544 0.481256
v 0.657472 -0.297707 0.475466
v 0.674825 -0.298291 0.458111
v 0.674882 -0.306853 0.388154
v 0.667057 -0.308266 0.378600
v 0.666991 -0.306626 0.378662
v 0.674829 -0.305253 0.388185
v 0.657472 -0.307745 0.370828
v 0.674296 -0.305078 0.388194
v 0.666648 -0.306434 0.379025
v 0.660602 -0.306219 0.384525
v 0.649629 -0.306251 0.394515
v 0.679792 -0.303605 0.398283
v 0.666083 -0.303761 0.408961
v 0.684914 -0.300515 0.423183
v 0.651069 -0.304131 0.421933
v 0.683684 -0.301929 0.410813
v 0.621976 -0.307635 0.407546
v 0.636251 -0.305717 0.421814
v 0.636041 -0.306693 0.407520
v 0.622094 -0.307998 0.392974
v 0.605407 -0.308186 0.395630
v 0.610221 -0.310594 0.361370
v 0.587514 -0.310458 0.370775
v 0.598400 -0.310538 0.364905
v 0.578092 -0.315738 0.378732
v 0.577934 -0.310309 0.378574
v 0.587547 -0.314923 0.370826
v 0.587758 -0.318773 0.371469
v 0.588153 -0.321116 0.372594
v 0.579336 -0.320983 0.379979
v 0.578485 -0.318631 0.379126
v 0.570825 -0.318375 0.388398
v 0.570187 -0.314516 0.388187
v 0.571947 -0.320737 0.388794
v 0.573933 -0.322122 0.389494
v 0.582387 -0.322823 0.383031
v 0.580843 -0.322354 0.381486
v 0.578161 -0.322861 0.389209
v 0.588566 -0.323107 0.378806
v 0.587625 -0.323355 0.385983
v 0.588851 -0.322473 0.374579
v 0.570136 -0.310046 0.388154
v 0.564265 -0.309626 0.399039
v 0.559467 -0.308199 0.423154
v 0.560731 -0.309011 0.410860
v 0.560731 -0.307189 0.435437
v 0.570136 -0.304680 0.458143
v 0.564267 -0.306008 0.447263
v 0.577933 -0.303313 0.467720
v 0.587514 -0.302011 0.475522
v 0.573478 -0.318729 0.447741
v 0.582806 -0.318956 0.449125
v 0.594984 -0.318880 0.450753
v 0.578169 -0.317550 0.457162
v 0.573938 -0.316934 0.456858
v 0.568563 -0.318063 0.447275
v 0.598400 -0.272145 0.481354
v 0.610221 -0.271275 0.484927
v 0.587514 -0.273295 0.475522
v 0.577961 -0.274606 0.467697
v 0.570136 -0.275963 0.458143
v 0.564304 -0.277275 0.447258
v 0.560731 -0.278451 0.435437
v 0.559508 -0.279461 0.423149
v 0.560731 -0.280274 0.410860
v 0.564304 -0.280889 0.399039
v 0.570136 -0.281309 0.388154
v 0.577961 -0.281573 0.378600
v 0.587514 -0.281721 0.370775
v 0.598400 -0.281800 0.364944
v 0.610221 -0.281856 0.361370
v 0.622509 -0.281842 0.360148
v 0.634798 -0.281711 0.361370
v 0.646618 -0.281345 0.364944
v 0.646618 -0.306273 0.364944
v 0.634798 -0.307401 0.361370
v 0.657504 -0.305553 0.370775
v 0.667057 -0.304482 0.378600
v 0.674882 -0.303062 0.388154
v 0.680714 -0.301470 0.399039
v 0.684288 -0.299886 0.410860
v 0.685510 -0.298471 0.423149
v 0.684288 -0.297383 0.435437
v 0.680714 -0.296595 0.447258
v 0.674882 -0.296078 0.458143
v 0.667057 -0.295741 0.467697
v 0.657504 -0.295494 0.475522
v 0.646618 -0.295365 0.481354
v 0.634798 -0.295383 0.484927
v 0.622509 -0.295633 0.486149
v 0.610221 -0.296204 0.484927
v 0.598400 -0.297073 0.481354
v 0.587514 -0.298221 0.475522
v 0.577961 -0.299531 0.467697
v 0.570136 -0.300889 0.458143
v 0.564304 -0.302203 0.447258
v 0.560731 -0.303380 0.435437
v 0.559508 -0.304390 0.423149
v 0.560731 -0.305202 0.410860
v 0.564304 -0.305818 0.399039
v 0.570136 -0.306237 0.388154
v 0.577961 -0.306501 0.378600
v 0.587514 -0.306650 0.370775
v 0.598400 -0.306729 0.364944
v 0.610221 -0.306785 0.361370
v 0.622509 -0.306771 0.360148
v 0.610221 -0.306785 0.361370
v 0.598400 -0.306729 0.364944
v 0.587514 -0.306650 0.370775
v 0.577961 -0.306501 0.378600
v 0.570136 -0.306237 0.388154
v 0.564304 -0.305818 0.399039
v 0.560731 -0.305202 0.410860
v 0.559508 -0.304390 0.423149
v 0.560731 -0.303380 0.435437
v 0.564304 -0.302203 0.447258
v 0.570136 -0.300889 0.458143
v 0.577961 -0.299531 0.467697
v 0.587514 -0.298221 0.475522
v 0.598400 -0.297073 0.481354
v 0.610221 -0.296204 0.484927
v 0.622509 -0.295633 0.486149
v 0.634798 -0.295383 0.484927
v 0.646618 -0.295365 0.481354
v 0.657504 -0.270566 0.475522
v 0.657504 -0.295494 0.475522
v 0.634798 -0.270454 0.484927
v 0.667057 -0.295741 0.467697
v 0.680714 -0.296595 0.447258
v 0.674882 -0.296078 0.458143
v 0.674882 -0.271149 0.458143
v 0.667057 -0.270812 0.467697
v 0.680714 -0.271666 0.447258
v 0.684288 -0.272454 0.435437
v 0.685510 -0.298471 0.423149
v 0.685510 -0.273542 0.423149
v 0.684288 -0.297383 0.435437
v 0.684288 -0.299886 0.410860
v 0.680714 -0.301470 0.399039
v 0.674882 -0.278135 0.388154
v 0.674882 -0.303062 0.388154
v 0.684288 -0.274958 0.410860
v 0.667057 -0.304482 0.378600
v 0.646618 -0.306273 0.364944
v 0.657504 -0.305553 0.370775
v 0.657504 -0.280627 0.370775
v 0.667057 -0.279557 0.378600
v 0.646618 -0.281345 0.364944
v 0.680714 -0.276542 0.399039
v 0.646618 -0.270436 0.481354
v 0.622509 -0.270705 0.486149
v 0.622509 -0.307950 0.360247
v 0.610213 -0.307922 0.361439
v 0.634803 -0.307851 0.361522
v 0.646618 -0.307448 0.365042
v 0.657473 -0.306681 0.370829
v 0.666993 -0.305642 0.378664
v 0.674832 -0.304193 0.388188
v 0.680619 -0.302657 0.399037
v 0.684222 -0.301029 0.410854
v 0.685414 -0.299659 0.423147
v 0.684222 -0.298522 0.435440
v 0.680620 -0.297784 0.447254
v 0.674829 -0.297225 0.458114
v 0.666994 -0.296932 0.467634
v 0.657474 -0.296642 0.475471
v 0.646616 -0.296559 0.481261
v 0.634801 -0.296525 0.484862
v 0.622508 -0.296826 0.486055
v 0.610217 -0.297348 0.484862
v 0.598400 -0.298266 0.481261
v 0.598296 -0.298539 0.480713
v 0.578365 -0.300926 0.467299
v 0.587690 -0.299652 0.474986
v 0.578024 -0.300697 0.467634
v 0.587548 -0.299354 0.475473
v 0.570190 -0.302018 0.458114
v 0.564401 -0.303382 0.447256
v 0.560799 -0.304514 0.435441
v 0.559606 -0.305571 0.423146
v 0.560800 -0.306342 0.410852
v 0.564401 -0.307003 0.399037
v 0.570189 -0.307382 0.388185
v 0.578025 -0.307682 0.378664
v 0.587545 -0.307792 0.370829
v 0.598400 -0.307912 0.365041
v 0.646641 -0.307603 0.365546
v 0.683684 -0.301318 0.410811
v 0.660602 -0.305607 0.384525
v 0.674298 -0.304457 0.388288
v 0.679829 -0.302976 0.398445
v 0.666063 -0.303119 0.409297
v 0.651069 -0.303519 0.421933
v 0.649629 -0.305639 0.394515
v 0.636288 -0.306053 0.407683
v 0.684887 -0.299903 0.423207
v 0.666017 -0.300555 0.435511
v 0.660899 -0.298216 0.460878
v 0.680039 -0.298020 0.447364
v 0.683682 -0.298814 0.435427
v 0.649515 -0.300434 0.449656
v 0.636089 -0.303480 0.435868
v 0.621369 -0.304442 0.436405
v 0.636251 -0.305105 0.421814
v 0.621906 -0.306206 0.421867
v 0.607601 -0.307245 0.407797
v 0.621976 -0.307023 0.407546
v 0.622094 -0.307386 0.392974
v 0.635557 -0.307294 0.378600
v 0.622837 -0.308129 0.360790
v 0.647162 -0.307277 0.370560
v 0.634887 -0.307982 0.361994
v 0.610188 -0.308147 0.361979
v 0.598396 -0.308094 0.365539
v 0.578208 -0.307862 0.379148
v 0.587697 -0.308015 0.371304
v 0.570663 -0.307612 0.388338
v 0.561347 -0.304748 0.435483
v 0.570684 -0.302269 0.457950
v 0.565102 -0.303526 0.447660
v 0.578353 -0.304806 0.435523
v 0.607541 -0.306442 0.421419
v 0.560127 -0.305764 0.423230
v 0.594481 -0.303039 0.449591
v 0.609584 -0.297720 0.484162
v 0.607701 -0.304791 0.436454
v 0.585030 -0.301514 0.461812
v 0.622617 -0.297096 0.485528
v 0.635237 -0.299293 0.466332
v 0.634851 -0.296835 0.484316
v 0.647033 -0.296818 0.480549
v 0.657339 -0.296950 0.474957
v 0.666643 -0.297190 0.467287
v 0.674316 -0.297520 0.457975
v 0.561451 -0.306616 0.410365
v 0.565012 -0.307211 0.398786
v 0.605413 -0.307573 0.395664
v 0.657354 -0.306886 0.371367
v 0.666631 -0.305825 0.379027
vn -0.8092 -0.0000 -0.5875
vn -0.8060 -0.0000 -0.5919
vn -0.9495 -0.0000 -0.3139
vn -0.9519 -0.0000 -0.3064
vn -1.0000 -0.0000 0.0037
vn -1.0000 -0.0000 -0.0052
vn -0.9526 -0.0000 0.3042
vn -0.9498 -0.0000 0.3129
vn -0.8077 -0.0000 0.5897
vn -0.8120 -0.0000 0.5836
vn -0.5919 -0.0000 0.8060
vn -0.5876 -0.0000 0.8092
vn -0.3111 -0.0000 0.9504
vn -0.3139 -0.0000 0.9494
vn -0.0052 -0.0000 1.0000
vn -0.0031 -0.0000 1.0000
vn 0.3052 -0.0000 0.9523
vn 0.3042 -0.0000 0.9526
vn 0.5836 -0.0000 0.8121
vn 0.5832 -0.0000 0.8124
vn 0.8043 -0.0000 0.5942
vn 0.8060 -0.0000 0.5919
vn 0.9494 -0.0000 0.3140
vn 0.9999 -0.0000 0.0126
vn 0.9477 -0.0000 0.3192
vn 1.0000 -0.0000 0.0051
vn -0.5865 -0.0000 -0.8099
vn -0.5836 -0.0000 -0.8120
vn -0.3048 -0.0000 -0.9524
vn -0.3042 -0.0000 -0.9526
vn 0.0051 -0.0000 -1.0000
vn 0.0084 -0.0000 -1.0000
vn 0.3204 -0.0000 -0.9473
vn 0.3139 -0.0000 -0.9495
vn 0.5919 -0.0000 -0.8060
vn 0.5457 0.1180 -0.8296
vn 0.5920 -0.0000 -0.8059
vn 0.6211 0.1077 -0.7763
vn 0.8176 -0.0000 -0.5758
vn 0.8120 -0.0000 -0.5836
vn 0.9527 -0.0000 -0.3041
vn 0.9555 -0.0000 -0.2951
vn 0.0180 -0.9834 0.1804
vn 0.0155 -0.9876 0.1565
vn 0.0465 -0.9863 0.1585
vn 0.0425 -0.9827 0.1801
vn 0.0664 -0.9838 0.1664
vn 0.0058 -0.9916 0.1291
vn 0.0921 -0.9871 0.1307
vn 0.0478 -0.9899 0.1334
vn 0.0652 -0.9719 0.2264
vn 0.0376 -0.9716 0.2336
vn 0.0958 -0.9708 0.2201
vn 0.0888 -0.9831 0.1601
vn 0.0988 -0.9859 0.1354
vn 0.1315 -0.9855 0.1075
vn 0.1166 -0.9823 0.1468
vn 0.1841 -0.9729 0.1401
vn 0.1899 -0.9650 0.1811
vn 0.1419 -0.9656 0.2180
vn 0.1919 -0.9556 0.2236
vn 0.3756 -0.8785 0.2952
vn 0.4001 -0.8896 0.2203
vn 0.5507 -0.6094 0.5705
vn 0.3299 -0.8732 0.3587
vn 0.6434 -0.6100 0.4626
vn 0.7095 -0.6212 0.3328
vn 0.4041 -0.9017 0.1539
vn 0.7401 -0.6429 0.1973
vn 0.9277 -0.3098 0.2082
vn 0.7898 -0.2844 0.5435
vn 0.8749 -0.2989 0.3810
vn 0.9161 -0.1081 0.3860
vn 0.8271 -0.0828 0.5559
vn 0.7015 -0.1041 0.7050
vn 0.6720 -0.2899 0.6814
vn 0.9217 -0.0300 0.3868
vn 0.9755 -0.0913 0.2003
vn 0.9929 -0.1187 0.0121
vn 0.9788 -0.0919 -0.1828
vn 0.9994 -0.0331 0.0094
vn 0.9377 -0.3147 -0.1475
vn 0.9448 -0.3261 0.0330
vn 0.7514 -0.6562 -0.0692
vn 0.7305 -0.6470 -0.2184
vn 0.7510 -0.6570 0.0664
vn 0.8921 -0.3091 -0.3296
vn 0.9234 -0.1108 -0.3674
vn 0.9291 -0.0293 -0.3687
vn 0.8345 -0.0882 -0.5438
vn 0.8098 -0.3016 -0.5033
vn 0.6697 -0.6474 -0.3639
vn 0.5771 -0.6568 -0.4854
vn 0.6926 -0.3145 -0.6491
vn 0.7105 -0.1129 -0.6946
vn 0.3831 -0.9140 -0.1331
vn 0.4044 -0.9134 -0.0464
vn 0.1776 -0.9827 0.0528
vn 0.1840 -0.9819 -0.0441
vn 0.3376 -0.9180 -0.2081
vn 0.1817 -0.9833 0.0056
vn 0.1038 -0.9937 0.0430
vn 0.1295 -0.9908 -0.0389
vn 0.2654 -0.9278 -0.2621
vn 0.0791 -0.9959 -0.0439
vn 0.4608 -0.6623 -0.5907
vn 0.3127 -0.6773 -0.6659
vn 0.1722 -0.9407 -0.2923
vn 0.0856 -0.9490 -0.3033
vn 0.1553 -0.6987 -0.6984
vn 0.1902 -0.3391 -0.9213
vn 0.5494 -0.3109 -0.7755
vn 0.3766 -0.3249 -0.8676
vn 0.3848 -0.1037 -0.9172
vn 0.5579 -0.0910 -0.8249
vn 0.1945 -0.0956 -0.9762
vn 0.0009 -0.1123 -0.9937
vn -0.1830 -0.3356 -0.9241
vn -0.1930 -0.0986 -0.9762
vn 0.0028 -0.3500 -0.9367
vn -0.3808 -0.1167 -0.9173
vn -0.2900 -0.6701 -0.6833
vn -0.3651 -0.3233 -0.8730
vn -0.1403 -0.6926 -0.7076
vn 0.0064 -0.7056 -0.7086
vn 0.0108 -0.9501 -0.3116
vn -0.0625 -0.9448 -0.3216
vn -0.0121 -0.9969 -0.0775
vn -0.0404 -0.9956 -0.0846
vn 0.0166 -0.9976 -0.0673
vn -0.1417 -0.9349 -0.3254
vn 0.0505 -0.9986 0.0127
vn 0.0253 -0.9997 -0.0067
vn 0.0456 -0.9974 -0.0550
vn -0.0000 -0.9999 -0.0128
vn 0.0344 -0.9993 0.0161
vn -0.0006 -0.9992 0.0399
vn 0.0019 -0.9999 0.0128
vn 0.0411 -0.9983 0.0417
vn 0.0813 -0.9954 0.0508
vn 0.0890 -0.9919 0.0902
vn 0.0458 -0.9951 0.0881
vn 0.0868 -0.9950 0.0499
vn 0.1052 -0.9922 0.0668
vn 0.1149 -0.9890 0.0935
vn 0.1272 -0.9888 0.0784
vn 0.1858 -0.9795 0.0775
vn 0.1957 -0.9747 0.1077
vn 0.4076 -0.9126 0.0309
vn 0.4063 -0.9094 0.0890
vn 0.0737 -0.9970 0.0245
vn 0.0005 -0.9964 0.0846
vn -0.0326 -0.9961 0.0814
vn -0.0315 -0.9932 0.1120
vn -0.0381 -0.9982 0.0458
vn -0.1070 -0.9943 -0.0023
vn -0.0331 -0.9994 0.0137
vn -0.1041 -0.9938 0.0377
vn -0.1005 -0.9920 0.0762
vn -0.0981 -0.9885 0.1146
vn -0.3356 -0.9296 0.1526
vn -0.3443 -0.9388 -0.0123
vn -0.3385 -0.9383 0.0709
vn -0.7204 -0.6917 0.0518
vn -0.7209 -0.6854 -0.1023
vn -0.3466 -0.9323 -0.1034
vn -0.6977 -0.6667 -0.2623
vn -0.9291 -0.3312 -0.1646
vn -0.9195 -0.1152 -0.3759
vn -0.8796 -0.3205 -0.3516
vn -0.9380 -0.3458 0.0257
vn -0.9920 -0.1259 0.0095
vn -0.9773 -0.0983 -0.1878
vn -0.9202 -0.3287 0.2123
vn -0.9747 -0.0972 0.2014
vn -0.7082 -0.6764 0.2023
vn -0.9134 -0.1141 0.3908
vn -0.6746 -0.6483 0.3530
vn -0.8640 -0.3144 0.3933
vn -0.7744 -0.2954 0.5595
vn -0.6529 -0.2969 0.6968
vn -0.6949 -0.1070 0.7111
vn -0.8238 -0.0858 0.5603
vn -0.6024 -0.6293 0.4910
vn -0.5051 -0.6222 0.5981
vn -0.5126 -0.2849 0.8100
vn -0.5468 -0.0822 0.8332
vn -0.3730 -0.1055 0.9218
vn -0.3454 -0.2941 0.8912
vn -0.2575 -0.6173 0.7434
vn -0.3934 -0.6140 0.6843
vn -0.1907 -0.8823 0.4302
vn -0.2572 -0.8838 0.3907
vn -0.1084 -0.9608 0.2550
vn -0.0627 -0.9664 0.2492
vn -0.0164 -0.9708 0.2392
vn -0.1099 -0.8872 0.4480
vn 0.0108 -0.9712 0.2379
vn -0.0216 -0.9846 0.1737
vn -0.0350 -0.8936 0.4474
vn 0.0325 -0.8965 0.4419
vn -0.1142 -0.6328 0.7658
vn 0.0225 -0.6409 0.7673
vn 0.1004 -0.8938 0.4370
vn 0.1780 -0.8857 0.4287
vn 0.1590 -0.6332 0.7575
vn 0.3025 -0.6155 0.7278
vn 0.2621 -0.8765 0.4039
vn 0.4394 -0.6069 0.6622
vn 0.5325 -0.2821 0.7980
vn 0.3661 -0.2944 0.8828
vn 0.5522 -0.0820 0.8297
vn 0.3803 -0.1062 0.9187
vn 0.1947 -0.0889 0.9768
vn 0.1891 -0.3033 0.9339
vn 0.3810 -0.0313 0.9240
vn 0.0040 -0.1150 0.9934
vn 0.0109 -0.3164 0.9486
vn -0.1681 -0.3022 0.9383
vn -0.1889 -0.0881 0.9780
vn -0.3755 -0.0345 0.9262
vn -0.1943 -0.0136 0.9808
vn 0.0024 -0.0360 0.9993
vn 0.1950 -0.0137 0.9807
vn 0.5552 -0.0126 0.8316
vn 0.7050 -0.0317 0.7085
vn 0.8313 -0.0127 0.5557
vn 0.9805 -0.0140 0.1958
vn 0.9810 -0.0141 -0.1935
vn 0.8323 -0.0133 -0.5542
vn 0.7144 -0.0314 -0.6991
vn 0.5550 -0.0138 -0.8317
vn 0.3814 0.0162 -0.9243
vn 0.1470 0.5093 -0.8480
vn 0.4431 0.5286 -0.7241
vn 0.5528 0.0384 -0.8325
vn 0.2805 0.5409 -0.7930
vn -0.0002 0.0181 -0.9998
vn -0.0105 0.5882 -0.8086
vn -0.1629 0.5342 -0.8295
vn -0.0475 0.9734 -0.2239
vn 0.0327 0.9662 -0.2557
vn -0.0013 0.9780 -0.2084
vn 0.0658 0.9699 -0.2343
vn -0.0335 0.9975 -0.0618
vn -0.0404 0.9983 -0.0412
vn -0.0034 0.9997 -0.0252
vn -0.1340 0.9652 -0.2246
vn -0.0912 0.9738 -0.2081
vn -0.2938 0.5629 -0.7725
vn -0.4608 0.5257 -0.7150
vn -0.5547 0.0384 -0.8312
vn -0.7054 0.0537 -0.7068
vn -0.5754 0.5710 -0.5855
vn -0.3804 0.0527 -0.9233
vn -0.1940 0.0412 -0.9801
vn -0.6997 0.5240 -0.4856
vn -0.1989 0.9655 -0.1680
vn -0.1419 0.9771 -0.1583
vn -0.1942 0.9704 -0.1436
vn -0.2186 0.9694 -0.1115
vn -0.7466 0.5823 -0.3217
vn -0.8164 0.5492 -0.1786
vn -0.9223 0.0525 -0.3830
vn -0.9797 0.0412 -0.1964
vn -0.8303 0.0383 -0.5560
vn -0.9983 0.0588 -0.0040
vn -0.8163 0.5769 -0.0294
vn -0.8243 0.5528 0.1224
vn -0.9807 0.0422 0.1907
vn -0.9249 0.0548 0.3762
vn -0.7195 0.5544 0.4183
vn -0.7563 0.6067 0.2449
vn -0.8333 0.0398 0.5514
vn -0.2007 0.9794 0.0218
vn -0.2037 0.9790 -0.0042
vn -0.2061 0.9774 -0.0471
vn -0.1757 0.9819 -0.0706
vn 0.0020 0.9945 -0.1043
vn -0.0018 0.9966 -0.0823
vn -0.0128 0.9918 -0.1269
vn -0.0029 0.9991 -0.0421
vn -0.0449 0.9902 -0.1323
vn -0.0450 0.9950 -0.0888
vn -0.0961 0.9908 0.0956
vn -0.0316 0.9980 0.0543
vn -0.0573 0.9891 -0.1360
vn -0.0832 0.9888 -0.1238
vn 0.0166 0.9955 0.0931
vn 0.0496 0.9952 0.0840
vn -0.0839 0.9888 -0.1231
vn -0.0959 0.9896 -0.1071
vn -0.0729 0.9916 -0.1071
vn 0.0829 0.9933 0.0800
vn 0.0693 0.9967 0.0418
vn 0.1144 0.9926 0.0400
vn 0.1005 0.9948 -0.0167
vn 0.7786 0.6240 -0.0666
vn 0.0947 0.9903 -0.1020
vn 0.1297 0.9901 -0.0542
vn 0.7309 0.6216 0.2817
vn 0.8017 0.5881 0.1065
vn 0.1227 0.9806 -0.1531
vn 0.7958 0.5665 -0.2140
vn 0.9206 0.0525 -0.3869
vn 0.7055 0.6110 -0.3592
vn 0.9791 0.0419 -0.1989
vn 0.9982 0.0598 -0.0057
vn 0.9806 0.0434 0.1910
vn 0.9240 0.0555 0.3784
vn 0.6832 0.5835 0.4391
vn 0.8317 0.0406 0.5538
vn 0.7069 0.0558 0.7051
vn 0.4594 0.5878 0.6659
vn 0.5557 0.0404 0.8304
vn 0.5604 0.6288 0.5391
vn 0.3815 0.0550 0.9227
vn 0.1553 0.5975 0.7867
vn 0.1938 0.0433 0.9801
vn 0.3066 0.6183 0.7237
vn -0.0019 0.0602 0.9982
vn -0.1837 0.6047 0.7750
vn -0.1965 0.0430 0.9796
vn -0.0267 0.6450 0.7637
vn -0.3849 0.0540 0.9214
vn -0.3563 0.6014 0.7151
vn -0.5040 0.5656 0.6527
vn -0.5583 0.0396 0.8287
vn -0.7101 0.0552 0.7019
vn -0.6007 0.6030 0.5249
vn -0.1601 0.9856 0.0552
vn -0.1641 0.9864 0.0066
vn -0.0198 0.9909 -0.1330
vn -0.1244 0.9901 0.0647
vn -0.0096 0.9908 -0.1350
vn 0.6623 0.5390 -0.5204
vn 0.8284 0.0382 -0.5589
vn 0.7024 0.0536 -0.7098
vn 0.5334 0.5717 -0.6234
vn 0.1230 0.9650 -0.2315
vn 0.0985 0.9575 -0.2712
vn 0.0687 0.9742 -0.2150
vn -0.0583 0.9949 -0.0828
vn 0.1281 0.9723 -0.1953
vn -0.0741 0.9953 -0.0620
vn -0.0921 0.9919 -0.0874
vn -0.0994 0.9906 -0.0938
vn -0.0777 0.9955 -0.0547
vn -0.0326 0.9991 -0.0281
vn -0.0407 0.9982 -0.0446
vn -0.0869 0.9921 -0.0910
vn -0.1934 -0.0150 -0.9810
vn -0.3820 -0.0345 -0.9235
vn -0.5529 -0.0901 -0.8284
vn -0.5557 -0.0137 -0.8313
vn -0.7054 -0.1154 -0.6993
vn -0.7075 -0.0360 -0.7058
vn -0.5340 -0.3090 -0.7870
vn -0.4285 -0.6597 -0.6174
vn -0.5386 -0.6603 -0.5233
vn -0.6745 -0.3162 -0.6672
vn -0.7935 -0.3077 -0.5251
vn -0.8297 -0.0897 -0.5509
vn -0.6320 -0.6579 -0.4095
vn -0.3287 -0.9237 -0.1970
vn -0.2874 -0.9202 -0.2659
vn -0.1329 -0.9850 -0.1102
vn -0.1185 -0.9914 -0.0555
vn -0.0393 -0.9991 -0.0177
vn -0.0868 -0.9913 -0.0994
vn -0.2236 -0.9249 -0.3076
vn -0.9246 -0.0347 -0.3794
vn -0.8317 -0.0136 -0.5551
vn -0.9993 -0.0381 0.0049
vn -0.9809 -0.0148 -0.1942
vn -0.9805 -0.0148 0.1961
vn -0.9205 -0.0371 0.3890
vn -0.8308 -0.0132 0.5565
vn -0.7005 -0.0369 0.7127
vn -0.5546 -0.0127 0.8321
vn -0.0994 -0.9738 0.2046
vn -0.0968 -0.9835 0.1531
vn -0.0306 -0.9895 0.1411
vn -0.0036 -0.9892 0.1465
vn -0.3038 -0.8951 0.3263
vn -0.3292 -0.9135 0.2390
vn 0.1963 -0.0000 -0.9805
vn 0.3539 0.0709 -0.9326
vn 0.4076 -0.0287 -0.9127
vn 0.1949 -0.1558 -0.9684
vn 0.3291 -0.6071 -0.7233
vn 0.4915 -0.5637 -0.6638
vn 0.5578 -0.0552 -0.8281
vn 0.7104 -0.0763 -0.6997
vn 0.6126 -0.5930 -0.5226
vn 0.7293 -0.5466 -0.4115
vn 0.8339 -0.0535 -0.5494
vn 0.9255 -0.0724 -0.3716
vn 0.7713 -0.5909 -0.2366
vn 0.8410 -0.5301 -0.1081
vn 0.9807 -0.0562 -0.1872
vn 0.9968 -0.0790 0.0079
vn 0.8248 -0.5628 0.0542
vn 0.8359 -0.5076 0.2087
vn 0.9786 -0.0560 0.1981
vn 0.9206 -0.0726 0.3838
vn 0.7591 -0.5525 0.3442
vn 0.7087 -0.4995 0.4983
vn 0.8295 -0.0522 0.5560
vn 0.7040 -0.0728 0.7064
vn 0.5823 -0.5382 0.6093
vn 0.4758 -0.5031 0.7215
vn 0.5540 -0.0516 0.8309
vn 0.3797 -0.0714 0.9223
vn 0.3115 -0.5567 0.7701
vn 0.1766 -0.5085 0.8427
vn 0.1944 -0.0549 0.9794
vn 0.0026 -0.0775 0.9970
vn 0.0154 -0.5488 0.8358
vn -0.1336 -0.5199 0.8437
vn -0.1909 -0.0548 0.9801
vn -0.3750 -0.0712 0.9243
vn -0.2873 -0.5171 0.8063
vn -0.4438 -0.5034 0.7413
vn -0.5505 -0.0521 0.8332
vn -0.6996 -0.0748 0.7106
vn -0.5484 -0.5432 0.6358
vn -0.6805 -0.5280 0.5081
vn -0.8272 -0.0537 0.5593
vn -0.9191 -0.0747 0.3869
vn -0.7255 -0.5884 0.3569
vn -0.8092 -0.5525 0.1998
vn -0.9783 -0.0580 0.1989
vn -0.9967 -0.0814 0.0060
vn -0.8011 -0.5972 0.0385
vn -0.8191 -0.5598 -0.1256
vn -0.9800 -0.0578 -0.1904
vn -0.9233 -0.0736 -0.3771
vn -0.7523 -0.5948 -0.2832
vn -0.7049 -0.5415 -0.4582
vn -0.8312 -0.0536 -0.5534
vn -0.7060 -0.0752 -0.7042
vn -0.5710 -0.5863 -0.5746
vn -0.4722 -0.5476 -0.6907
vn -0.5554 -0.0541 -0.8298
vn -0.3804 -0.0740 -0.9219
vn -0.3130 -0.5929 -0.7420
vn -0.1573 -0.5664 -0.8090
vn -0.1935 -0.0584 -0.9794
vn -0.0005 -0.0407 -0.9992
vn -0.0030 -0.6175 -0.7866
vn -0.1950 -0.0000 -0.9808
vn -0.1952 -0.0000 -0.9808
vn 0.0004 -0.0000 -1.0000
vn -0.3823 -0.0000 -0.9240
vn -0.5560 -0.0000 -0.8312
vn -0.3830 -0.0000 -0.9238
vn -0.5551 -0.0000 -0.8318
vn -0.7064 -0.0000 -0.7078
vn -0.7079 -0.0000 -0.7063
vn -0.8324 -0.0000 -0.5541
vn -0.8305 -0.0000 -0.5570
vn -0.9229 -0.0000 -0.3851
vn -0.9249 -0.0000 -0.3802
vn -0.9815 -0.0000 -0.1916
vn -0.9801 -0.0000 -0.1986
vn -1.0000 -0.0000 -0.0047
vn -0.9818 -0.0000 0.1897
vn -0.9797 -0.0000 0.2004
vn -1.0000 -0.0000 0.0046
vn -0.9263 -0.0000 0.3768
vn -0.8277 -0.0000 0.5611
vn -0.9214 -0.0000 0.3885
vn -0.8352 -0.0000 0.5500
vn -0.3874 -0.0000 0.9219
vn -0.3779 -0.0000 0.9259
vn -0.5504 -0.0000 0.8349
vn -0.1915 -0.0000 0.9815
vn -0.1986 -0.0000 0.9801
vn -0.5607 -0.0000 0.8280
vn 0.3829 -0.0000 0.9238
vn 0.3824 -0.0000 0.9240
vn 0.1957 -0.0000 0.9807
vn 0.5548 -0.0000 0.8320
vn 0.5564 -0.0000 0.8309
vn 0.1944 -0.0000 0.9809
vn 0.8303 -0.0000 0.5574
vn 0.8326 -0.0000 0.5538
vn 0.9251 -0.0000 0.3796
vn 0.7082 -0.0000 0.7060
vn 0.9226 -0.0000 0.3858
vn 0.7061 -0.0000 0.7081
vn 0.9798 -0.0000 0.1998
vn 1.0000 -0.0000 -0.0063
vn 1.0000 -0.0000 0.0065
vn 0.9817 -0.0000 0.1905
vn 0.9207 -0.0000 -0.3902
vn 0.9269 -0.0000 -0.3752
vn 0.9822 -0.0000 -0.1877
vn 0.8356 -0.0000 -0.5493
vn 0.8272 -0.0000 -0.5618
vn 0.9793 -0.0000 -0.2024
vn 0.7026 -0.0000 -0.7116
vn 0.5518 -0.0000 -0.8340
vn 0.5592 -0.0000 -0.8290
vn 0.4101 -0.0719 -0.9092
vn 0.7116 -0.0000 -0.7026
vn 0.4065 0.0678 -0.9111
vn -0.0021 -0.0000 1.0000
vn 0.0021 -0.0000 1.0000
vn -0.7119 -0.0000 0.7023
vn -0.7023 -0.0000 0.7119
vn -0.0383 -0.9800 -0.1954
vn 0.0219 -0.9862 -0.1642
vn 0.0579 -0.9903 -0.1262
vn 0.1514 -0.7165 -0.6809
vn 0.1148 -0.9854 -0.1256
vn 0.1663 -0.9802 -0.1074
vn 0.1914 -0.9806 -0.0422
vn 0.2439 -0.9695 -0.0250
vn 0.2641 -0.9645 -0.0018
vn 0.2917 -0.9549 0.0558
vn 0.2750 -0.9559 0.1028
vn 0.2943 -0.9452 0.1411
vn 0.2578 -0.9515 0.1676
vn 0.2468 -0.9461 0.2097
vn 0.1951 -0.9538 0.2284
vn 0.1712 -0.9448 0.2795
vn 0.1340 -0.9461 0.2948
vn 0.0741 -0.9409 0.3305
vn -0.0317 -0.9348 0.3539
vn 0.0297 -0.9473 0.3189
vn -0.0625 -0.9460 0.3181
vn -0.1082 -0.9410 0.3207
vn -0.1170 -0.9564 0.2677
vn -0.1624 -0.9583 0.2349
vn -0.2088 -0.9687 0.1340
vn -0.1776 -0.9635 0.2003
vn -0.2023 -0.9766 0.0735
vn -0.2280 -0.9736 -0.0057
vn -0.2021 -0.9775 -0.0612
vn -0.1723 -0.9813 -0.0856
vn -0.1489 -0.9818 -0.1175
vn -0.1208 -0.9773 -0.1738
vn -0.0789 -0.9806 -0.1792
vn 0.0914 -0.9920 0.0867
vn 0.0582 -0.9949 0.0829
vn 0.0995 -0.9906 0.0939
vn 0.0788 -0.9953 0.0555
vn 0.0742 -0.9953 0.0621
vn 0.0960 -0.9896 0.1069
vn 0.0842 -0.9885 0.1254
vn 0.0727 -0.9916 0.1072
vn 0.0839 -0.9888 0.1231
vn 0.0460 -0.9899 0.1339
vn 0.0450 -0.9950 0.0888
vn 0.0867 -0.9920 0.0912
vn 0.0033 -0.9991 0.0425
vn 0.0409 -0.9982 0.0445
vn 0.0033 -0.9966 0.0819
vn 0.0124 -0.9917 0.1278
vn 0.0329 -0.9991 0.0286
vn 0.0401 -0.9984 0.0402
vn 0.0352 -0.9975 0.0618
vn 0.0027 -0.9997 0.0248
vn -0.0026 -0.9945 0.1046
vn 0.0196 -0.9910 0.1327
vn 0.0096 -0.9908 0.1350
vn 0.0569 -0.9892 0.1351
vt 0.970325 0.961993
vt 0.975969 0.962040
vt 0.975565 0.954835
vt 0.969922 0.954787
vt 0.969375 0.947580
vt 0.975018 0.947627
vt 0.974429 0.940420
vt 0.968785 0.940373
vt 0.968255 0.933165
vt 0.973898 0.933213
vt 0.973497 0.926007
vt 0.967854 0.925959
vt 0.967655 0.918755
vt 0.973299 0.918802
vt 0.973211 0.911599
vt 0.967568 0.911552
vt 0.967502 0.904349
vt 0.973145 0.904396
vt 0.973167 0.897194
vt 0.967523 0.897146
vt 0.967699 0.889945
vt 0.973342 0.889992
vt 0.973684 0.882793
vt 0.968559 0.875547
vt 0.968041 0.882746
vt 0.974203 0.875594
vt 0.970584 0.969198
vt 0.976227 0.969245
vt 0.970695 0.976402
vt 0.976338 0.976449
vt 0.976215 0.983650
vt 0.970572 0.983603
vt 0.970128 0.990802
vt 0.975771 0.990849
vt 0.974612 0.996242
vt 0.970380 0.996206
vt 0.975474 0.855798
vt 0.971242 0.855762
vt 0.969949 0.861154
vt 0.975593 0.861201
vt 0.974854 0.868397
vt 0.969210 0.868350
vt 0.787212 0.536388
vt 0.785589 0.543326
vt 0.793039 0.544418
vt 0.794365 0.537232
vt 0.801185 0.540268
vt 0.783942 0.550752
vt 0.800776 0.553899
vt 0.791619 0.552040
vt 0.802066 0.533463
vt 0.795403 0.531600
vt 0.807933 0.536251
vt 0.807726 0.541366
vt 0.807379 0.547978
vt 0.813134 0.560026
vt 0.813095 0.544899
vt 0.818485 0.551638
vt 0.816928 0.546193
vt 0.812434 0.539658
vt 0.815308 0.542487
vt 0.819216 0.546708
vt 0.821131 0.552320
vt 0.817587 0.540882
vt 0.816327 0.541773
vt 0.820687 0.546348
vt 0.822685 0.552415
vt 0.821781 0.558807
vt 0.823377 0.559052
vt 0.824980 0.559117
vt 0.822156 0.545830
vt 0.824243 0.552271
vt 0.825799 0.551965
vt 0.824095 0.544980
vt 0.820175 0.539004
vt 0.818876 0.539953
vt 0.828892 0.551128
vt 0.827113 0.559017
vt 0.825946 0.566185
vt 0.824363 0.573181
vt 0.829148 0.566461
vt 0.822284 0.572666
vt 0.824337 0.566028
vt 0.820700 0.572344
vt 0.817509 0.578213
vt 0.822727 0.565837
vt 0.818988 0.578735
vt 0.820444 0.579361
vt 0.823306 0.580760
vt 0.816274 0.585168
vt 0.814617 0.583938
vt 0.813364 0.583084
vt 0.808453 0.587000
vt 0.809368 0.588186
vt 0.810329 0.589379
vt 0.812107 0.582317
vt 0.816002 0.577840
vt 0.813302 0.577563
vt 0.806926 0.584823
vt 0.807596 0.585813
vt 0.809805 0.582013
vt 0.805795 0.581845
vt 0.803226 0.586393
vt 0.802650 0.588606
vt 0.797868 0.587908
vt 0.802963 0.590000
vt 0.796992 0.591943
vt 0.797131 0.590468
vt 0.790904 0.591171
vt 0.790637 0.592687
vt 0.790524 0.594215
vt 0.803441 0.591390
vt 0.797078 0.593438
vt 0.797379 0.595229
vt 0.804245 0.593227
vt 0.790529 0.596268
vt 0.783636 0.595514
vt 0.777326 0.591801
vt 0.776690 0.593751
vt 0.783900 0.593683
vt 0.770470 0.590039
vt 0.771813 0.587297
vt 0.771212 0.588687
vt 0.777705 0.590312
vt 0.784131 0.592166
vt 0.784377 0.590635
vt 0.777959 0.588781
vt 0.778318 0.585936
vt 0.772493 0.583187
vt 0.784886 0.587768
vt 0.772217 0.585850
vt 0.793163 0.582091
vt 0.785907 0.582245
vt 0.791578 0.588396
vt 0.779009 0.580508
vt 0.787235 0.575166
vt 0.781075 0.566104
vt 0.779955 0.573546
vt 0.788667 0.567636
vt 0.796317 0.568926
vt 0.797923 0.561285
vt 0.790147 0.559858
vt 0.801715 0.576956
vt 0.803763 0.570029
vt 0.805488 0.562680
vt 0.810743 0.570997
vt 0.816205 0.571723
vt 0.818482 0.562307
vt 0.819099 0.572101
vt 0.821119 0.565592
vt 0.799573 0.583160
vt 0.782395 0.558425
vt 0.770705 0.556270
vt 0.770953 0.548952
vt 0.768355 0.563183
vt 0.762104 0.567958
vt 0.769216 0.570356
vt 0.761643 0.561551
vt 0.762295 0.554726
vt 0.764117 0.548098
vt 0.761273 0.547713
vt 0.758853 0.560864
vt 0.759424 0.554180
vt 0.757885 0.553846
vt 0.757316 0.560533
vt 0.759519 0.567240
vt 0.758012 0.567065
vt 0.755766 0.560302
vt 0.754928 0.567196
vt 0.756479 0.567067
vt 0.756362 0.553470
vt 0.754844 0.553067
vt 0.753697 0.560106
vt 0.758278 0.546875
vt 0.756387 0.546021
vt 0.759747 0.547383
vt 0.760100 0.539928
vt 0.762737 0.541492
vt 0.761388 0.540793
vt 0.765570 0.535499
vt 0.770663 0.531122
vt 0.769882 0.529743
vt 0.764168 0.533976
vt 0.766693 0.536521
vt 0.771462 0.532462
vt 0.776508 0.527786
vt 0.775904 0.525741
vt 0.782808 0.524037
vt 0.782926 0.525647
vt 0.782927 0.527250
vt 0.776889 0.529307
vt 0.777178 0.530800
vt 0.772286 0.533741
vt 0.772982 0.534765
vt 0.776645 0.533108
vt 0.782047 0.531492
vt 0.782756 0.528826
vt 0.788515 0.530966
vt 0.775488 0.536961
vt 0.789202 0.528089
vt 0.795957 0.528643
vt 0.789526 0.526480
vt 0.796279 0.527030
vt 0.802464 0.530539
vt 0.808229 0.533518
vt 0.802779 0.528936
vt 0.808670 0.532004
vt 0.812757 0.537319
vt 0.813594 0.536043
vt 0.814561 0.534798
vt 0.809314 0.530547
vt 0.815963 0.533199
vt 0.810087 0.529144
vt 0.803986 0.525366
vt 0.803237 0.527378
vt 0.811775 0.526470
vt 0.796965 0.523853
vt 0.796617 0.525435
vt 0.789738 0.524861
vt 0.789906 0.522704
vt 0.782420 0.520849
vt 0.790048 0.520027
vt 0.797674 0.520721
vt 0.804997 0.522912
vt 0.817765 0.531262
vt 0.822748 0.537105
vt 0.826501 0.543815
vt 0.829786 0.558776
vt 0.826944 0.573885
vt 0.818364 0.586795
vt 0.812324 0.591798
vt 0.805387 0.595573
vt 0.801430 0.598562
vt 0.790674 0.599497
vt 0.804150 0.601759
vt 0.804326 0.601206
vt 0.797667 0.600010
vt 0.779852 0.599144
vt 0.783728 0.600408
vt 0.777342 0.602533
vt 0.777453 0.602912
vt 0.790760 0.599927
vt 0.783823 0.600767
vt 0.797693 0.600371
vt 0.798448 0.602979
vt 0.793058 0.608620
vt 0.777077 0.618782
vt 0.766876 0.610579
vt 0.771764 0.606228
vt 0.771645 0.605907
vt 0.766658 0.610293
vt 0.766254 0.609885
vt 0.762127 0.615279
vt 0.762635 0.615609
vt 0.771314 0.605398
vt 0.777105 0.602005
vt 0.759670 0.621599
vt 0.760016 0.621671
vt 0.762895 0.615779
vt 0.758422 0.628004
vt 0.758018 0.634687
vt 0.757971 0.628082
vt 0.757528 0.634800
vt 0.757373 0.627988
vt 0.756954 0.634808
vt 0.759132 0.621396
vt 0.757865 0.641588
vt 0.758466 0.641483
vt 0.760643 0.647872
vt 0.760098 0.648060
vt 0.763542 0.653982
vt 0.768521 0.658736
vt 0.764074 0.653687
vt 0.768085 0.659112
vt 0.768810 0.658517
vt 0.764585 0.653525
vt 0.761034 0.647763
vt 0.758811 0.641398
vt 0.769969 0.645657
vt 0.783594 0.634789
vt 0.785487 0.642490
vt 0.781878 0.627370
vt 0.792972 0.640690
vt 0.791162 0.632997
vt 0.792931 0.667487
vt 0.799574 0.666699
vt 0.803830 0.654958
vt 0.800394 0.638725
vt 0.805888 0.664537
vt 0.811610 0.661066
vt 0.809266 0.644427
vt 0.816240 0.635012
vt 0.816524 0.649005
vt 0.816558 0.656893
vt 0.820521 0.651704
vt 0.823423 0.645861
vt 0.825106 0.639548
vt 0.825094 0.626212
vt 0.824750 0.626288
vt 0.825589 0.632918
vt 0.825492 0.639508
vt 0.825971 0.632847
vt 0.822617 0.619929
vt 0.822988 0.619832
vt 0.820118 0.613626
vt 0.819646 0.614000
vt 0.823495 0.619565
vt 0.825673 0.626031
vt 0.826541 0.632779
vt 0.826096 0.639555
vt 0.823781 0.645935
vt 0.824332 0.646107
vt 0.821339 0.652194
vt 0.816784 0.657176
vt 0.817202 0.657577
vt 0.820814 0.651884
vt 0.812101 0.662061
vt 0.805995 0.664917
vt 0.806214 0.665451
vt 0.811765 0.661554
vt 0.799780 0.667637
vt 0.793027 0.667932
vt 0.793035 0.668506
vt 0.799656 0.667040
vt 0.786241 0.668056
vt 0.786351 0.667463
vt 0.779887 0.665755
vt 0.779657 0.666283
vt 0.773524 0.663272
vt 0.773886 0.662785
vt 0.779963 0.665412
vt 0.774068 0.662502
vt 0.776856 0.658444
vt 0.786309 0.667103
vt 0.780239 0.651080
vt 0.815288 0.608903
vt 0.815655 0.608459
vt 0.810320 0.604256
vt 0.810032 0.604794
vt 0.814996 0.609131
vt 0.804069 0.602136
vt 0.809847 0.605098
vt 0.807307 0.608722
vt 0.819061 0.614140
vt 0.802617 0.615282
vt 0.813086 0.621166
vt 0.806649 0.629579
vt 0.796953 0.623732
vt 0.787716 0.617767
vt 0.789443 0.625443
vt 0.798762 0.631253
vt 0.775782 0.596257
vt 0.768770 0.592699
vt 0.764570 0.585957
vt 0.762691 0.587826
vt 0.760390 0.580159
vt 0.757728 0.581864
vt 0.765967 0.584458
vt 0.766909 0.583291
vt 0.762964 0.578482
vt 0.761693 0.579315
vt 0.758492 0.573462
vt 0.756548 0.574119
vt 0.759946 0.573060
vt 0.761380 0.572778
vt 0.764193 0.577664
vt 0.765198 0.576991
vt 0.763618 0.573332
vt 0.768307 0.575867
vt 0.768030 0.579809
vt 0.767717 0.582083
vt 0.751800 0.567636
vt 0.754062 0.575040
vt 0.751788 0.552230
vt 0.751046 0.559934
vt 0.754014 0.544822
vt 0.757608 0.537973
vt 0.762448 0.531942
vt 0.768342 0.526946
vt 0.775092 0.523202
vt 0.770186 0.537685
vt 0.766839 0.542230
vt 0.771875 0.542393
vt 0.778415 0.542679
vt 0.767898 0.537375
vt 0.764173 0.541950
vt 0.645085 0.529101
vt 0.644809 0.534384
vt 0.655479 0.541571
vt 0.658167 0.533584
vt 0.656800 0.540116
vt 0.656422 0.546750
vt 0.655866 0.546791
vt 0.656821 0.553531
vt 0.657377 0.553347
vt 0.659544 0.559681
vt 0.659070 0.559978
vt 0.662514 0.565885
vt 0.662942 0.565464
vt 0.667384 0.570545
vt 0.667053 0.571009
vt 0.672495 0.575153
vt 0.672764 0.574610
vt 0.678816 0.577578
vt 0.678645 0.578119
vt 0.685247 0.579822
vt 0.685332 0.579226
vt 0.692014 0.579606
vt 0.692046 0.580173
vt 0.698781 0.579199
vt 0.698623 0.578620
vt 0.704931 0.576424
vt 0.705189 0.576928
vt 0.711039 0.573467
vt 0.710663 0.573000
vt 0.715673 0.568547
vt 0.716097 0.568925
vt 0.720175 0.563486
vt 0.719666 0.563158
vt 0.722565 0.557106
vt 0.723085 0.557337
vt 0.724734 0.550731
vt 0.724153 0.550579
vt 0.724473 0.543890
vt 0.725031 0.543920
vt 0.724008 0.537176
vt 0.723429 0.537271
vt 0.721179 0.530977
vt 0.721697 0.530768
vt 0.718209 0.524927
vt 0.717715 0.525262
vt 0.713253 0.520283
vt 0.713655 0.519883
vt 0.708227 0.515811
vt 0.707881 0.516306
vt 0.701877 0.513406
vt 0.702115 0.512888
vt 0.695561 0.511196
vt 0.695420 0.511780
vt 0.688801 0.511392
vt 0.688808 0.510822
vt 0.682109 0.511758
vt 0.682240 0.512346
vt 0.675966 0.514513
vt 0.675719 0.513998
vt 0.669878 0.517438
vt 0.670252 0.517910
vt 0.665261 0.522349
vt 0.664827 0.521976
vt 0.661875 0.524193
vt 0.661283 0.527704
vt 0.662328 0.520673
vt 0.649535 0.516322
vt 0.647342 0.522716
vt 0.664478 0.514282
vt 0.653831 0.503518
vt 0.651689 0.509921
vt 0.666618 0.507883
vt 0.668724 0.501470
vt 0.655937 0.497104
vt 0.657984 0.490670
vt 0.670770 0.495037
vt 0.672738 0.488576
vt 0.659951 0.484210
vt 0.661819 0.477715
vt 0.674605 0.482082
vt 0.676372 0.475553
vt 0.678039 0.468990
vt 0.665252 0.464623
vt 0.663586 0.471186
vt 0.679620 0.462397
vt 0.668346 0.451415
vt 0.666834 0.458031
vt 0.681133 0.455781
vt 0.685730 0.435954
vt 0.672944 0.431588
vt 0.671348 0.438175
vt 0.674682 0.425049
vt 0.687468 0.429415
vt 0.684135 0.442542
vt 0.693584 0.410107
vt 0.680798 0.405740
vt 0.678626 0.412131
vt 0.683045 0.399376
vt 0.695831 0.403742
vt 0.691412 0.416497
vt 0.687705 0.386702
vt 0.700491 0.391069
vt 0.702936 0.384771
vt 0.698139 0.397398
vt 0.690150 0.380405
vt 0.685352 0.393031
vt 0.692733 0.374155
vt 0.708255 0.372323
vt 0.695469 0.367956
vt 0.705519 0.378521
vt 0.714147 0.360070
vt 0.701361 0.355704
vt 0.698372 0.361815
vt 0.704355 0.349594
vt 0.717141 0.353960
vt 0.711158 0.366182
vt 0.720047 0.347820
vt 0.722774 0.341619
vt 0.709987 0.337253
vt 0.724596 0.336892
vt 0.707261 0.343454
vt 0.713408 0.333071
vt 0.689358 0.422929
vt 0.676572 0.418562
vt 0.682622 0.449158
vt 0.669836 0.444791
vt 0.665591 0.522559
vt 0.661609 0.527894
vt 0.658751 0.533870
vt 0.658462 0.533705
vt 0.657119 0.540252
vt 0.656806 0.546791
vt 0.657724 0.553254
vt 0.659855 0.559446
vt 0.663238 0.564974
vt 0.667582 0.570199
vt 0.672941 0.574281
vt 0.678992 0.577219
vt 0.685486 0.578857
vt 0.692050 0.579216
vt 0.698535 0.578273
vt 0.704711 0.576101
vt 0.710276 0.572714
vt 0.715338 0.568319
vt 0.722129 0.556839
vt 0.719348 0.562956
vt 0.723806 0.550407
vt 0.724099 0.543836
vt 0.723092 0.537346
vt 0.720860 0.531178
vt 0.713019 0.520603
vt 0.717425 0.525637
vt 0.707678 0.516610
vt 0.701626 0.513804
vt 0.695219 0.512158
vt 0.688751 0.511754
vt 0.682316 0.512652
vt 0.676171 0.514814
vt 0.670525 0.518125
vt 0.671823 0.561622
vt 0.661943 0.552059
vt 0.681842 0.558257
vt 0.679362 0.547375
vt 0.669606 0.549838
vt 0.683959 0.569039
vt 0.692486 0.555216
vt 0.697208 0.573661
vt 0.695126 0.565373
vt 0.696657 0.548803
vt 0.689909 0.544715
vt 0.685903 0.551345
vt 0.687421 0.534196
vt 0.683284 0.540729
vt 0.693927 0.538112
vt 0.700652 0.542261
vt 0.676545 0.536706
vt 0.666255 0.538773
vt 0.659338 0.541844
vt 0.680772 0.526986
vt 0.708343 0.528480
vt 0.718411 0.538833
vt 0.710400 0.539870
vt 0.706855 0.563448
s 1
usemtl 1011
f 2/1/1 4/2/2 1/3/3
f 1/3/3 3/4/4 2/1/1
f 5/5/5 3/4/4 1/3/3
f 1/3/3 6/6/6 5/5/5
f 5/5/5 6/6/6 7/7/7
f 7/7/7 8/8/8 5/5/5
f 9/9/9 8/8/8 7/7/7
f 7/7/7 10/10/10 9/9/9
f 9/9/9 10/10/10 11/11/11
f 11/11/11 12/12/12 9/9/9
f 13/13/13 12/12/12 11/11/11
f 11/11/11 14/14/14 13/13/13
f 13/13/13 14/14/14 15/15/15
f 15/15/15 16/16/16 13/13/13
f 17/17/17 16/16/16 15/15/15
f 15/15/15 18/18/18 17/17/17
f 17/17/17 18/18/18 19/19/19
f 19/19/19 20/20/20 17/17/17
f 21/21/21 20/20/20 19/19/19
f 19/19/19 22/22/22 21/21/21
f 21/21/21 22/22/22 23/23/23
f 24/24/24 26/25/25 23/23/23
f 23/23/23 25/26/26 24/24/24
f 23/23/23 26/25/25 21/21/21
f 2/1/1 28/27/27 29/28/28
f 29/28/28 28/27/27 27/29/29
f 29/28/28 4/2/2 2/1/1
f 27/29/29 30/30/30 29/28/28
f 31/31/31 30/30/30 27/29/29
f 27/29/29 32/32/32 31/31/31
f 31/31/31 32/32/32 33/33/33
f 33/33/33 34/34/34 31/31/31
f 35/35/35 34/34/34 33/33/33
f 33/33/33 36/36/36 35/35/35
f 40/37/37 39/38/38 37/39/39
f 37/39/39 41/40/40 40/37/37
f 42/41/41 41/40/40 37/39/39
f 37/39/39 38/42/42 42/41/41
f 42/41/41 38/42/42 24/24/24
f 24/24/24 25/26/26 42/41/41
usemtl 1001
f 44/43/43 46/44/44 43/45/45
f 43/45/45 45/46/46 44/43/43
f 49/47/47 45/46/46 43/45/45
f 43/45/45 46/44/44 50/48/48
f 47/49/49 49/47/47 43/45/45
f 43/45/45 48/50/50 47/49/49
f 50/48/48 48/50/50 43/45/45
f 49/47/47 52/51/51 51/52/52
f 51/52/52 45/46/46 49/47/47
f 53/53/53 52/51/51 49/47/47
f 49/47/47 54/54/54 53/53/53
f 55/55/55 54/54/54 49/47/47
f 55/55/55 49/47/47 47/49/49
f 55/55/55 47/49/49 56/56/56
f 56/56/56 57/57/57 55/55/55
f 57/57/57 54/54/54 55/55/55
f 58/58/58 61/59/59 57/57/57
f 57/57/57 59/60/60 53/53/53
f 53/53/53 54/54/54 57/57/57
f 60/61/61 59/60/60 57/57/57
f 57/57/57 61/59/59 60/61/61
f 62/62/62 61/59/59 58/58/58
f 60/61/61 61/59/59 62/62/62
f 58/58/58 66/63/63 62/62/62
f 64/64/64 63/65/65 62/62/62
f 62/62/62 63/65/65 60/61/61
f 62/62/62 65/66/66 64/64/64
f 67/67/67 65/66/66 62/62/62
f 62/62/62 66/63/63 67/67/67
f 68/68/68 69/69/69 67/67/67
f 67/67/67 66/63/63 68/68/68
f 67/67/67 69/69/69 70/70/70
f 72/71/71 65/66/66 67/67/67
f 70/70/70 71/72/72 67/67/67
f 67/67/67 71/72/72 72/71/71
f 72/71/71 71/72/72 76/73/73
f 76/73/73 73/74/74 72/71/71
f 72/71/71 73/74/74 74/75/75
f 74/75/75 75/76/76 72/71/71
f 72/71/71 75/76/76 64/64/64
f 64/64/64 65/66/66 72/71/71
f 76/73/73 225/77/77 73/74/74
f 77/78/78 225/77/77 76/73/73
f 70/70/70 77/78/78 76/73/73
f 76/73/73 71/72/72 70/70/70
f 78/79/79 77/78/78 70/70/70
f 79/80/80 227/81/81 78/79/79
f 78/79/79 227/81/81 77/78/78
f 81/82/82 79/80/80 78/79/79
f 70/70/70 80/83/83 78/79/79
f 78/79/79 80/83/83 81/82/82
f 81/82/82 82/84/84 84/85/85
f 83/86/86 82/84/84 81/82/82
f 81/82/82 80/83/83 83/86/86
f 84/85/85 85/87/87 81/82/82
f 86/88/88 79/80/80 81/82/82
f 81/82/82 85/87/87 86/88/88
f 86/88/88 229/89/89 79/80/80
f 87/90/90 229/89/89 86/88/88
f 88/91/91 87/90/90 86/88/88
f 86/88/88 85/87/87 88/91/91
f 88/91/91 85/87/87 84/85/85
f 84/85/85 92/92/92 88/91/91
f 91/93/93 89/94/94 88/91/91
f 88/91/91 89/94/94 90/95/95
f 90/95/95 87/90/90 88/91/91
f 88/91/91 92/92/92 91/93/93
f 93/96/96 92/92/92 84/85/85
f 91/93/93 92/92/92 93/96/96
f 84/85/85 94/97/97 93/96/96
f 93/96/96 94/97/97 97/98/98
f 98/99/99 95/100/100 93/96/96
f 93/96/96 95/100/100 91/93/93
f 93/96/96 96/101/101 98/99/99
f 97/98/98 96/101/101 93/96/96
f 143/102/102 99/103/103 98/99/99
f 98/99/99 96/101/101 143/102/102
f 98/99/99 99/103/103 100/104/104
f 100/104/104 95/100/100 98/99/99
f 100/104/104 99/103/103 103/105/105
f 91/93/93 95/100/100 100/104/104
f 100/104/104 101/106/106 91/93/93
f 104/107/107 101/106/106 100/104/104
f 103/105/105 102/108/108 100/104/104
f 100/104/104 102/108/108 104/107/107
f 105/109/109 106/110/110 104/107/107
f 104/107/107 102/108/108 105/109/109
f 104/107/107 106/110/110 107/111/111
f 109/112/112 101/106/106 104/107/107
f 107/111/111 108/113/113 104/107/107
f 104/107/107 108/113/113 109/112/112
f 90/95/95 89/94/94 109/112/112
f 109/112/112 89/94/94 91/93/93
f 111/114/114 110/115/115 109/112/112
f 109/112/112 110/115/115 90/95/95
f 91/93/93 101/106/106 109/112/112
f 109/112/112 108/113/113 111/114/114
f 107/111/111 112/116/116 111/114/114
f 111/114/114 108/113/113 107/111/111
f 113/117/117 112/116/116 107/111/111
f 116/118/118 114/119/119 113/117/117
f 107/111/111 115/120/120 113/117/117
f 113/117/117 115/120/120 116/118/118
f 119/121/121 114/119/119 116/118/118
f 120/122/122 117/123/123 116/118/118
f 116/118/118 117/123/123 119/121/121
f 116/118/118 118/124/124 120/122/122
f 121/125/125 118/124/124 116/118/118
f 116/118/118 115/120/120 121/125/125
f 105/109/109 122/126/126 121/125/125
f 121/125/125 106/110/110 105/109/109
f 107/111/111 106/110/110 121/125/125
f 121/125/125 122/126/126 123/127/127
f 123/127/127 118/124/124 121/125/125
f 121/125/125 115/120/120 107/111/111
f 123/127/127 124/128/128 125/129/129
f 127/130/130 124/128/128 123/127/127
f 123/127/127 122/126/126 127/130/130
f 125/129/129 126/131/131 123/127/127
f 120/122/122 118/124/124 123/127/127
f 123/127/127 126/131/131 120/122/122
f 128/132/132 131/133/133 127/130/130
f 127/130/130 129/134/134 128/132/132
f 105/109/109 129/134/134 127/130/130
f 130/135/135 124/128/128 127/130/130
f 127/130/130 131/133/133 130/135/135
f 127/130/130 122/126/126 105/109/109
f 130/135/135 131/133/133 132/136/136
f 132/136/136 131/133/133 128/132/132
f 133/137/137 135/138/138 132/136/136
f 132/136/136 134/139/139 133/137/137
f 136/140/140 134/139/139 132/136/136
f 132/136/136 135/138/138 130/135/135
f 132/136/136 128/132/132 136/140/140
f 136/140/140 141/141/141 137/142/142
f 137/142/142 134/139/139 136/140/140
f 136/140/140 128/132/132 138/143/143
f 138/143/143 139/144/144 136/140/140
f 136/140/140 139/144/144 140/145/145
f 140/145/145 141/141/141 136/140/140
f 137/142/142 141/141/141 47/49/49
f 47/49/49 141/141/141 140/145/145
f 56/56/56 47/49/49 140/145/145
f 142/146/146 56/56/56 140/145/145
f 140/145/145 139/144/144 142/146/146
f 142/146/146 139/144/144 138/143/143
f 138/143/143 143/102/102 142/146/146
f 142/146/146 143/102/102 97/98/98
f 142/146/146 144/147/147 147/148/148
f 147/148/148 56/56/56 142/146/146
f 97/98/98 144/147/147 142/146/146
f 147/148/148 144/147/147 145/149/149
f 145/149/149 144/147/147 97/98/98
f 145/149/149 82/84/84 83/86/86
f 83/86/86 146/150/150 145/149/149
f 145/149/149 146/150/150 147/148/148
f 84/85/85 82/84/84 145/149/149
f 145/149/149 94/97/97 84/85/85
f 97/98/98 94/97/97 145/149/149
f 68/68/68 146/150/150 83/86/86
f 147/148/148 146/150/150 68/68/68
f 56/56/56 147/148/148 58/58/58
f 58/58/58 147/148/148 68/68/68
f 128/132/132 148/151/151 138/143/143
f 138/143/143 148/151/151 143/102/102
f 103/105/105 148/151/151 128/132/132
f 143/102/102 148/151/151 103/105/105
f 133/137/137 134/139/139 137/142/142
f 137/142/142 149/152/152 133/137/137
f 50/48/48 149/152/152 137/142/142
f 137/142/142 48/50/50 50/48/48
f 47/49/49 48/50/50 137/142/142
f 133/137/137 149/152/152 150/153/153
f 150/153/153 149/152/152 50/48/48
f 50/48/48 151/154/154 150/153/153
f 150/153/153 152/155/155 133/137/137
f 153/156/156 155/157/157 152/155/155
f 152/155/155 154/158/158 153/156/156
f 156/159/159 154/158/158 152/155/155
f 152/155/155 150/153/153 156/159/159
f 151/154/154 157/160/160 156/159/159
f 156/159/159 150/153/153 151/154/154
f 156/159/159 157/160/160 158/161/161
f 160/162/162 154/158/158 156/159/159
f 158/161/161 159/163/163 156/159/159
f 156/159/159 159/163/163 160/162/162
f 160/162/162 159/163/163 161/164/164
f 161/164/164 164/165/165 160/162/162
f 160/162/162 162/166/166 153/156/156
f 153/156/156 154/158/158 160/162/162
f 163/167/167 162/166/166 160/162/162
f 160/162/162 164/165/165 163/167/167
f 163/167/167 164/165/165 165/168/168
f 165/168/168 164/165/165 161/164/164
f 168/169/169 166/170/170 165/168/168
f 165/168/168 166/170/170 163/167/167
f 165/168/168 170/171/171 167/172/172
f 167/172/172 169/173/173 165/168/168
f 161/164/164 170/171/171 165/168/168
f 165/168/168 169/173/173 168/169/169
f 167/172/172 170/171/171 171/174/174
f 171/174/174 170/171/171 161/164/164
f 171/174/174 172/175/175 167/172/172
f 161/164/164 173/176/176 171/174/174
f 175/177/177 172/175/175 171/174/174
f 171/174/174 173/176/176 174/178/178
f 174/178/178 176/179/179 171/174/174
f 171/174/174 176/179/179 175/177/177
f 177/180/180 176/179/179 174/178/178
f 175/177/177 176/179/179 177/180/180
f 177/180/180 182/181/181 178/182/182
f 178/182/182 180/183/183 177/180/180
f 174/178/178 181/184/184 177/180/180
f 177/180/180 181/184/184 179/185/185
f 179/185/185 182/181/181 177/180/180
f 177/180/180 180/183/183 175/177/177
f 178/182/182 182/181/181 183/186/186
f 183/186/186 182/181/181 179/185/185
f 183/186/186 184/187/187 178/182/182
f 185/188/188 184/187/187 183/186/186
f 183/186/186 186/189/189 185/188/188
f 187/190/190 186/189/189 183/186/186
f 179/185/185 188/191/191 183/186/186
f 183/186/186 188/191/191 187/190/190
f 187/190/190 188/191/191 189/192/192
f 189/192/192 188/191/191 179/185/185
f 189/192/192 191/193/193 190/194/194
f 190/194/194 192/195/195 189/192/192
f 179/185/185 191/193/193 189/192/192
f 189/192/192 192/195/195 194/196/196
f 194/196/196 193/197/197 189/192/192
f 189/192/192 193/197/197 187/190/190
f 44/43/43 196/198/198 194/196/196
f 194/196/196 195/199/199 44/43/43
f 194/196/196 196/198/198 197/200/200
f 194/196/196 192/195/195 195/199/199
f 197/200/200 193/197/197 194/196/196
f 197/200/200 196/198/198 51/52/52
f 51/52/52 200/201/201 197/200/200
f 187/190/190 193/197/197 197/200/200
f 197/200/200 198/202/202 187/190/190
f 199/203/203 198/202/202 197/200/200
f 197/200/200 200/201/201 199/203/203
f 201/204/204 200/201/201 51/52/52
f 199/203/203 200/201/201 201/204/204
f 51/52/52 52/51/51 201/204/204
f 201/204/204 52/51/51 53/53/53
f 53/53/53 204/205/205 201/204/204
f 201/204/204 202/206/206 199/203/203
f 203/207/207 202/206/206 201/204/204
f 201/204/204 204/205/205 203/207/207
f 203/207/207 204/205/205 205/208/208
f 205/208/208 204/205/205 53/53/53
f 205/208/208 206/209/209 203/207/207
f 53/53/53 59/60/60 205/208/208
f 60/61/61 63/65/65 205/208/208
f 205/208/208 63/65/65 64/64/64
f 64/64/64 206/209/209 205/208/208
f 205/208/208 59/60/60 60/61/61
f 207/210/210 206/209/209 64/64/64
f 203/207/207 206/209/209 207/210/210
f 207/210/210 208/211/211 203/207/207
f 207/210/210 75/76/76 74/75/75
f 74/75/75 209/212/212 207/210/210
f 210/213/213 208/211/211 207/210/210
f 64/64/64 75/76/76 207/210/210
f 207/210/210 209/212/212 210/213/213
f 210/213/213 211/214/214 212/215/215
f 210/213/213 221/216/216 211/214/214
f 209/212/212 221/216/216 210/213/213
f 212/215/215 208/211/211 210/213/213
f 212/215/215 202/206/206 203/207/207
f 199/203/203 202/206/206 212/215/215
f 212/215/215 211/214/214 213/217/217
f 213/217/217 214/218/218 212/215/215
f 203/207/207 208/211/211 212/215/215
f 212/215/215 214/218/218 199/203/203
f 199/203/203 214/218/218 215/219/219
f 215/219/219 214/218/218 213/217/217
f 185/188/188 186/189/189 215/219/219
f 215/219/219 186/189/189 187/190/190
f 215/219/219 216/220/220 185/188/188
f 213/217/217 216/220/220 215/219/219
f 187/190/190 198/202/202 215/219/219
f 215/219/219 198/202/202 199/203/203
f 216/220/220 217/221/221 185/188/188
f 216/220/220 218/222/222 217/221/221
f 219/223/223 218/222/222 216/220/220
f 213/217/217 219/223/223 216/220/220
f 211/214/214 219/223/223 213/217/217
f 211/214/214 220/224/224 219/223/223
f 221/216/216 220/224/224 211/214/214
f 209/212/212 222/225/225 221/216/216
f 223/226/226 222/225/225 209/212/212
f 73/74/74 224/227/227 223/226/226
f 225/77/77 224/227/227 73/74/74
f 77/78/78 226/228/228 225/77/77
f 227/81/81 226/228/228 77/78/78
f 79/80/80 228/229/229 227/81/81
f 229/89/89 228/229/229 79/80/80
f 87/90/90 230/230/230 229/89/89
f 231/231/231 230/230/230 87/90/90
f 110/115/115 232/232/232 231/231/231
f 233/233/233 232/232/232 110/115/115
f 110/115/115 111/114/114 233/233/233
f 233/233/233 111/114/114 112/116/116
f 112/116/116 236/234/234 233/233/233
f 337/235/235 234/236/236 233/233/233
f 233/233/233 235/237/237 337/235/235
f 236/234/234 235/237/237 233/233/233
f 238/238/238 237/239/239 236/234/234
f 237/239/239 239/240/240 247/241/241
f 240/242/242 236/234/234 237/239/239
f 247/241/241 245/243/243 237/239/239
f 237/239/239 245/243/243 240/242/242
f 240/242/242 242/244/244 235/237/237
f 235/237/237 236/234/234 240/242/242
f 243/245/245 242/244/244 240/242/242
f 244/246/246 240/242/242 245/243/243
f 245/243/243 247/241/241 351/247/247
f 248/248/248 246/249/249 249/250/250
f 249/250/250 246/249/249 247/241/241
f 247/241/241 239/240/240 249/250/250
f 249/250/250 250/251/251 248/248/248
f 250/251/251 253/252/252 251/253/253
f 251/253/253 252/254/254 250/251/251
f 254/255/255 253/252/252 250/251/251
f 250/251/251 249/250/250 254/255/255
f 254/255/255 249/250/250 239/240/240
f 239/240/240 255/256/256 254/255/255
f 238/238/238 255/256/256 239/240/240
f 252/254/254 256/257/257 258/258/258
f 248/248/248 250/251/251 252/254/254
f 258/258/258 257/259/259 252/254/254
f 252/254/254 257/259/259 248/248/248
f 246/249/249 248/248/248 257/259/259
f 257/259/259 258/258/258 259/260/260
f 260/261/261 259/260/260 262/262/262
f 262/262/262 259/260/260 258/258/258
f 258/258/258 256/257/257 262/262/262
f 262/262/262 261/263/263 260/261/261
f 261/263/263 262/262/262 263/264/264
f 263/264/264 262/262/262 256/257/257
f 263/264/264 264/265/265 261/263/263
f 256/257/257 265/266/266 263/264/264
f 251/253/253 265/266/266 256/257/257
f 261/263/263 264/265/265 266/267/267
f 266/267/267 273/268/268 261/263/263
f 272/269/269 273/268/268 266/267/267
f 266/267/267 267/270/270 272/269/269
f 272/269/269 267/270/270 268/271/271
f 271/272/272 270/273/273 268/271/271
f 268/271/271 269/274/274 271/272/272
f 268/271/271 270/273/273 272/269/269
f 317/275/275 318/276/276 270/273/273
f 270/273/273 271/272/272 317/275/275
f 270/273/273 318/276/276 274/277/277
f 274/277/277 272/269/269 270/273/273
f 273/268/268 272/269/269 274/277/277
f 260/261/261 261/263/263 273/268/268
f 273/268/268 275/278/278 260/261/261
f 274/277/277 275/278/278 273/268/268
f 275/278/278 274/277/277 276/279/279
f 277/280/280 275/278/278 276/279/279
f 260/261/261 275/278/278 277/280/280
f 276/279/279 281/281/281 277/280/280
f 277/280/280 278/282/282 260/261/261
f 281/281/281 282/283/283 279/284/284
f 279/284/284 277/280/280 281/281/281
f 322/285/285 283/286/286 282/283/283
f 282/283/283 281/281/281 322/285/285
f 282/283/283 283/286/286 285/287/287
f 285/287/287 284/288/288 282/283/283
f 283/286/286 327/289/289 285/287/287
f 285/287/287 327/289/289 286/290/290
f 285/287/287 286/290/290 287/291/291
f 287/291/291 284/288/288 285/287/287
f 288/292/292 284/288/288 287/291/291
f 287/291/291 289/293/293 288/292/292
f 287/291/291 286/290/290 289/293/293
f 286/290/290 328/294/294 289/293/293
f 289/293/293 328/294/294 291/295/295
f 289/293/293 292/296/296 290/297/297
f 291/295/295 292/296/296 289/293/293
f 296/298/298 344/299/299 293/300/300
f 293/300/300 290/297/297 294/301/301
f 294/301/301 295/302/302 293/300/300
f 293/300/300 295/302/302 296/298/298
f 346/303/303 344/299/299 296/298/298
f 296/298/298 297/304/304 346/303/303
f 299/305/305 298/306/306 297/304/304
f 297/304/304 300/307/307 299/305/305
f 301/308/308 300/307/307 297/304/304
f 297/304/304 296/298/298 301/308/308
f 301/308/308 296/298/298 295/302/302
f 295/302/302 302/309/309 301/308/308
f 303/310/310 302/309/309 295/302/302
f 332/311/311 304/312/312 303/310/310
f 303/310/310 294/301/301 332/311/311
f 295/302/302 294/301/301 303/310/310
f 305/313/313 304/312/312 332/311/311
f 331/314/314 306/315/315 305/313/313
f 305/313/313 329/316/316 331/314/314
f 332/311/311 329/316/316 305/313/313
f 307/317/317 306/315/315 331/314/314
f 326/318/318 308/319/319 307/317/317
f 307/317/317 330/320/320 326/318/318
f 331/314/314 330/320/320 307/317/317
f 309/321/321 308/319/319 326/318/318
f 324/322/322 310/323/323 309/321/321
f 309/321/321 325/324/324 324/322/322
f 326/318/318 325/324/324 309/321/321
f 311/325/325 310/323/323 324/322/322
f 324/322/322 323/326/326 311/325/325
f 311/325/325 323/326/326 315/327/327
f 315/327/327 312/328/328 311/325/325
f 313/329/329 312/328/328 315/327/327
f 315/327/327 314/330/330 313/329/329
f 313/329/329 314/330/330 271/272/272
f 271/272/272 269/274/274 313/329/329
f 316/331/331 319/332/332 314/330/330
f 314/330/330 315/327/327 316/331/331
f 314/330/330 319/332/332 317/275/275
f 317/275/275 271/272/272 314/330/330
f 318/276/276 317/275/275 321/333/333
f 276/279/279 274/277/277 318/276/276
f 321/333/333 317/275/275 319/332/332
f 319/332/332 316/331/331 321/333/333
f 321/333/333 316/331/331 320/334/334
f 322/285/285 321/333/333 320/334/334
f 323/326/326 320/334/334 316/331/331
f 322/285/285 320/334/334 323/326/326
f 323/326/326 324/322/322 322/285/285
f 316/331/331 315/327/327 323/326/326
f 322/285/285 324/322/322 325/324/324
f 327/289/289 283/286/286 325/324/324
f 325/324/324 326/318/318 327/289/289
f 325/324/324 283/286/286 322/285/285
f 329/316/316 291/295/295 328/294/294
f 328/294/294 331/314/314 329/316/316
f 328/294/294 286/290/290 330/320/320
f 330/320/320 331/314/314 328/294/294
f 327/289/289 326/318/318 330/320/320
f 330/320/320 286/290/290 327/289/289
f 292/296/296 291/295/295 329/316/316
f 329/316/316 332/311/311 292/296/296
f 292/296/296 332/311/311 294/301/301
f 280/335/335 321/333/333 322/285/285
f 280/335/335 318/276/276 321/333/333
f 276/279/279 318/276/276 280/335/335
f 336/336/336 298/306/306 299/305/305
f 299/305/305 333/337/337 336/336/336
f 336/336/336 333/337/337 334/338/338
f 337/235/235 335/339/339 334/338/338
f 334/338/338 234/236/236 337/235/235
f 334/338/338 335/339/339 336/336/336
f 338/340/340 336/336/336 335/339/339
f 335/339/339 337/235/235 241/341/341
f 335/339/339 339/342/342 338/340/340
f 241/341/341 339/342/342 335/339/339
f 340/343/343 338/340/340 339/342/342
f 339/342/342 241/341/341 340/343/343
f 340/343/343 241/341/341 243/245/245
f 342/344/344 338/340/340 340/343/343
f 340/343/343 243/245/245 341/345/345
f 341/345/345 342/344/344 340/343/343
f 343/346/346 342/344/344 341/345/345
f 344/299/299 346/303/303 343/346/346
f 345/347/347 344/299/299 343/346/346
f 343/346/346 346/303/303 342/344/344
f 345/347/347 343/346/346 349/348/348
f 349/348/348 343/346/346 341/345/345
f 350/349/349 347/350/350 349/348/348
f 349/348/348 347/350/350 279/284/284
f 279/284/284 348/351/351 349/348/348
f 349/348/348 348/351/351 345/347/347
f 278/282/282 347/350/350 350/349/349
f 350/349/349 351/247/247 278/282/282
f 244/246/246 245/243/243 350/349/349
f 350/349/349 349/348/348 244/246/246
f 350/349/349 245/243/243 351/247/247
f 260/261/261 278/282/282 351/247/247
f 351/247/247 259/260/260 260/261/261
f 257/259/259 259/260/260 351/247/247
f 246/249/249 257/259/259 351/247/247
f 244/246/246 349/348/348 341/345/345
f 345/347/347 348/351/351 284/288/288
f 284/288/288 348/351/351 279/284/284
f 279/284/284 347/350/350 278/282/282
f 338/340/340 342/344/344 298/306/306
f 298/306/306 342/344/344 346/303/303
f 345/347/347 284/288/288 288/292/292
f 288/292/292 344/299/299 345/347/347
f 288/292/292 293/300/300 344/299/299
f 290/297/297 293/300/300 288/292/292
f 341/345/345 243/245/245 244/246/246
f 298/306/306 336/336/336 338/340/340
f 241/341/341 337/235/235 235/237/237
f 346/303/303 297/304/304 298/306/306
f 294/301/301 290/297/297 292/296/296
f 288/292/292 289/293/293 290/297/297
f 279/284/284 282/283/283 284/288/288
f 322/285/285 281/281/281 280/335/335
f 280/335/335 281/281/281 276/279/279
f 278/282/282 277/280/280 279/284/284
f 256/257/257 252/254/254 251/253/253
f 351/247/247 247/241/241 246/249/249
f 243/245/245 240/242/242 244/246/246
f 241/341/341 242/244/244 243/245/245
f 235/237/237 242/244/244 241/341/341
f 239/240/240 237/239/239 238/238/238
f 114/119/119 352/352/352 238/238/238
f 238/238/238 113/117/117 114/119/119
f 112/116/116 113/117/117 238/238/238
f 238/238/238 236/234/234 112/116/116
f 354/353/353 352/352/352 114/119/119
f 357/354/354 353/355/355 354/353/353
f 119/121/121 354/353/353 114/119/119
f 357/354/354 354/353/353 119/121/121
f 355/356/356 356/357/357 357/354/354
f 356/357/357 353/355/355 357/354/354
f 355/356/356 357/354/354 358/358/358
f 358/358/358 357/354/354 119/121/121
f 358/358/358 359/359/359 360/360/360
f 120/122/122 359/359/359 358/358/358
f 358/358/358 361/361/361 355/356/356
f 119/121/121 117/123/123 358/358/358
f 358/358/358 117/123/123 120/122/122
f 360/360/360 361/361/361 358/358/358
f 355/356/356 361/361/361 362/362/362
f 362/362/362 361/361/361 360/360/360
f 362/362/362 363/363/363 355/356/356
f 168/169/169 363/363/363 362/362/362
f 163/167/167 166/170/170 362/362/362
f 362/362/362 166/170/170 168/169/169
f 362/362/362 364/364/364 163/167/167
f 360/360/360 364/364/364 362/362/362
f 163/167/167 364/364/364 365/365/365
f 365/365/365 364/364/364 360/360/360
f 153/156/156 162/166/166 365/365/365
f 365/365/365 162/166/166 163/167/167
f 365/365/365 367/366/366 366/367/367
f 366/367/367 368/368/368 365/365/365
f 360/360/360 367/366/366 365/365/365
f 365/365/365 368/368/368 153/156/156
f 153/156/156 368/368/368 370/369/369
f 370/369/369 368/368/368 366/367/367
f 370/369/369 369/370/370 125/129/129
f 366/367/367 369/370/370 370/369/369
f 370/369/369 155/157/157 153/156/156
f 130/135/135 370/369/369 125/129/129
f 155/157/157 370/369/369 130/135/135
f 125/129/129 369/370/370 371/371/371
f 371/371/371 369/370/370 366/367/367
f 371/371/371 126/131/131 125/129/129
f 366/367/367 367/366/366 371/371/371
f 371/371/371 367/366/366 360/360/360
f 371/371/371 359/359/359 120/122/122
f 120/122/122 126/131/131 371/371/371
f 360/360/360 359/359/359 371/371/371
f 363/363/363 356/357/357 355/356/356
f 373/372/372 372/373/373 363/363/363
f 363/363/363 372/373/373 356/357/357
f 168/169/169 373/372/372 363/363/363
f 169/173/173 373/372/372 168/169/169
f 167/172/172 374/374/374 169/173/173
f 374/374/374 375/375/375 169/173/173
f 169/173/173 375/375/375 373/372/372
f 172/175/175 376/376/376 374/374/374
f 378/377/377 376/376/376 172/175/175
f 180/183/183 377/378/378 378/377/377
f 175/177/177 378/377/377 172/175/175
f 180/183/183 378/377/377 175/177/177
f 178/182/182 379/379/379 180/183/183
f 379/379/379 377/378/378 180/183/183
f 184/187/187 380/380/380 379/379/379
f 217/221/221 380/380/380 184/187/187
f 184/187/187 379/379/379 178/182/182
f 185/188/188 217/221/221 184/187/187
f 172/175/175 374/374/374 167/172/172
f 110/115/115 231/231/231 90/95/95
f 90/95/95 231/231/231 87/90/90
f 73/74/74 223/226/226 74/75/75
f 74/75/75 223/226/226 209/212/212
f 195/199/199 384/381/381 381/382/382
f 381/382/382 382/383/383 195/199/199
f 195/199/199 382/383/383 383/384/384
f 190/194/194 384/381/381 195/199/199
f 195/199/199 192/195/195 190/194/194
f 381/382/382 384/381/381 385/385/385
f 385/385/385 384/381/381 190/194/194
f 385/385/385 386/386/386 381/382/382
f 190/194/194 191/193/193 385/385/385
f 385/385/385 191/193/193 179/185/185
f 385/385/385 181/184/184 174/178/178
f 174/178/178 386/386/386 385/385/385
f 179/185/185 181/184/184 385/385/385
f 381/382/382 386/386/386 158/161/161
f 158/161/161 386/386/386 174/178/178
f 44/43/43 195/199/199 383/384/384
f 383/384/384 46/44/44 44/43/43
f 50/48/48 46/44/44 383/384/384
f 383/384/384 382/383/383 151/154/154
f 383/384/384 151/154/154 50/48/48
f 151/154/154 382/383/383 381/382/382
f 158/161/161 157/160/160 381/382/382
f 381/382/382 157/160/160 151/154/154
f 51/52/52 196/198/198 44/43/43
f 174/178/178 173/176/176 158/161/161
f 158/161/161 173/176/176 161/164/164
f 161/164/164 159/163/163 158/161/161
f 133/137/137 152/155/155 155/157/157
f 155/157/157 135/138/138 133/137/137
f 130/135/135 135/138/138 155/157/157
f 125/129/129 124/128/128 130/135/135
f 128/132/132 129/134/134 103/105/105
f 103/105/105 129/134/134 105/109/109
f 105/109/109 102/108/108 103/105/105
f 103/105/105 99/103/103 143/102/102
f 143/102/102 96/101/101 97/98/98
f 70/70/70 69/69/69 83/86/86
f 83/86/86 69/69/69 68/68/68
f 83/86/86 80/83/83 70/70/70
f 68/68/68 66/63/63 58/58/58
f 58/58/58 57/57/57 56/56/56
f 44/43/43 45/46/46 51/52/52
f 403/387/387 404/388/388 405/389/389
f 405/389/389 406/390/390 403/387/387
f 405/389/389 485/391/391 406/390/390
f 486/392/392 485/391/391 405/389/389
f 405/389/389 407/393/393 486/392/392
f 486/392/392 407/393/393 408/394/394
f 408/394/394 487/395/395 486/392/392
f 488/396/396 487/395/395 408/394/394
f 408/394/394 409/397/397 488/396/396
f 488/396/396 409/397/397 410/398/398
f 410/398/398 489/399/399 488/396/396
f 490/400/400 489/399/399 410/398/398
f 410/398/398 411/401/401 490/400/400
f 490/400/400 411/401/401 412/402/402
f 412/402/402 491/403/403 490/400/400
f 492/404/404 491/403/403 412/402/402
f 412/402/402 413/405/405 492/404/404
f 492/404/404 413/405/405 414/406/406
f 414/406/406 493/407/407 492/404/404
f 494/408/408 493/407/407 414/406/406
f 414/406/406 415/409/409 494/408/408
f 494/408/408 415/409/409 416/410/410
f 416/410/410 495/411/411 494/408/408
f 496/412/412 495/411/411 416/410/410
f 416/410/410 417/413/413 496/412/412
f 496/412/412 417/413/413 418/414/414
f 418/414/414 497/415/415 496/412/412
f 498/416/416 497/415/415 418/414/414
f 418/414/414 419/417/417 498/416/416
f 498/416/416 419/417/417 420/418/418
f 420/418/418 499/419/419 498/416/416
f 500/420/420 499/419/419 420/418/418
f 420/418/418 421/421/421 500/420/420
f 500/420/420 421/421/421 422/422/422
f 422/422/422 501/423/423 500/420/420
f 506/424/424 501/423/423 422/422/422
f 422/422/422 423/425/425 506/424/424
f 506/424/424 423/425/425 424/426/426
f 424/426/426 505/427/427 506/424/424
f 507/428/428 505/427/427 424/426/426
f 424/426/426 425/429/429 507/428/428
f 507/428/428 425/429/429 426/430/430
f 426/430/430 508/431/431 507/428/428
f 509/432/432 508/431/431 426/430/430
f 426/430/430 427/433/433 509/432/432
f 509/432/432 427/433/433 428/434/434
f 428/434/434 510/435/435 509/432/432
f 511/436/436 510/435/435 428/434/434
f 428/434/434 429/437/437 511/436/436
f 511/436/436 429/437/437 430/438/438
f 430/438/438 512/439/439 511/436/436
f 513/440/440 512/439/439 430/438/438
f 430/438/438 431/441/441 513/440/440
f 513/440/440 431/441/441 432/442/442
f 432/442/442 514/443/443 513/440/440
f 515/444/444 514/443/443 432/442/442
f 432/442/442 433/445/445 515/444/444
f 515/444/444 433/445/445 434/446/446
f 434/446/446 516/447/447 515/444/444
f 483/448/448 516/447/447 434/446/446
f 434/446/446 435/449/449 483/448/448
f 483/448/448 435/449/449 436/450/450
f 436/450/450 482/451/451 483/448/448
f 406/390/390 482/451/451 436/450/450
f 436/450/450 437/452/452 401/453/453
f 403/387/387 406/390/390 436/450/450
f 436/450/450 402/454/454 403/387/387
f 401/453/453 402/454/454 436/450/450
f 401/453/453 437/452/452 438/455/455
f 399/456/456 400/457/457 438/455/455
f 438/455/455 439/458/458 399/456/456
f 438/455/455 400/457/457 401/453/453
f 440/459/459 398/460/460 399/456/456
f 397/461/461 398/460/460 440/459/459
f 440/459/459 441/462/462 397/461/461
f 399/456/456 439/458/458 440/459/459
f 397/461/461 441/462/462 442/463/463
f 442/463/463 396/464/464 397/461/461
f 395/465/465 396/464/464 442/463/463
f 442/463/463 443/466/466 395/465/465
f 444/467/467 445/468/468 393/469/469
f 395/465/465 443/466/466 444/467/467
f 444/467/467 394/470/470 395/465/465
f 393/469/469 394/470/470 444/467/467
f 393/469/469 445/468/468 446/471/471
f 391/472/472 392/473/473 446/471/471
f 446/471/471 447/474/474 391/472/472
f 446/471/471 392/473/473 393/469/469
f 450/475/475 387/476/476 389/477/477
f 388/478/478 387/476/476 450/475/475
f 450/475/475 451/479/479 388/478/478
f 389/477/477 449/480/480 450/475/475
f 454/481/481 480/482/482 457/483/483
f 455/484/484 480/482/482 454/481/481
f 454/481/481 456/485/485 455/484/484
f 457/483/483 453/486/486 454/481/481
f 461/487/487 460/488/488 459/489/489
f 458/490/490 460/488/488 461/487/487
f 459/489/489 463/491/491 461/487/487
f 461/487/487 462/492/492 458/490/490
f 464/493/493 463/491/491 459/489/489
f 465/494/494 466/495/495 464/493/493
f 464/493/493 467/496/496 465/494/494
f 459/489/489 467/496/496 464/493/493
f 469/497/497 479/498/498 472/499/499
f 470/500/500 479/498/498 469/497/497
f 469/497/497 471/501/501 470/500/500
f 472/499/499 468/502/502 469/497/497
f 473/503/503 475/504/504 476/505/505
f 476/505/505 475/504/504 474/506/506
f 476/505/505 477/507/507 473/503/503
f 474/506/506 478/508/508 476/505/505
f 473/503/503 477/507/507 470/500/500
f 470/500/500 471/501/501 473/503/503
f 472/499/499 466/495/495 465/494/494
f 465/494/494 468/502/502 472/499/499
f 458/490/490 462/492/492 455/484/484
f 452/509/509 481/510/510 388/478/478
f 457/483/483 481/510/510 452/509/509
f 455/484/484 456/485/485 458/490/490
f 452/509/509 453/486/486 457/483/483
f 388/478/478 451/479/479 452/509/509
f 448/511/511 449/480/480 389/477/477
f 448/511/511 390/512/512 391/472/472
f 389/477/477 390/512/512 448/511/511
f 391/472/472 447/474/474 448/511/511
f 543/513/513 483/448/448 482/451/451
f 482/451/451 540/514/514 543/513/513
f 542/515/515 540/514/514 482/451/451
f 482/451/451 484/516/516 542/515/515
f 406/390/390 484/516/516 482/451/451
f 485/391/391 484/516/516 406/390/390
f 542/515/515 484/516/516 485/391/391
f 485/391/391 517/517/517 542/515/515
f 568/518/518 517/517/517 485/391/391
f 485/391/391 486/392/392 568/518/518
f 568/518/518 486/392/392 487/395/395
f 487/395/395 569/519/519 568/518/518
f 520/520/520 569/519/519 487/395/395
f 487/395/395 488/396/396 520/520/520
f 520/520/520 488/396/396 489/399/399
f 489/399/399 521/521/521 520/520/520
f 518/522/522 521/521/521 489/399/399
f 489/399/399 490/400/400 518/522/522
f 518/522/522 490/400/400 491/403/403
f 491/403/403 526/523/523 518/522/522
f 530/524/524 526/523/523 491/403/403
f 491/403/403 492/404/404 530/524/524
f 530/524/524 492/404/404 493/407/407
f 493/407/407 529/525/525 530/524/524
f 564/526/526 529/525/525 493/407/407
f 493/407/407 494/408/408 564/526/526
f 564/526/526 494/408/408 495/411/411
f 495/411/411 563/527/527 564/526/526
f 562/528/528 563/527/527 495/411/411
f 495/411/411 496/412/412 562/528/528
f 562/528/528 496/412/412 497/415/415
f 497/415/415 561/529/529 562/528/528
f 560/530/530 561/529/529 497/415/415
f 497/415/415 498/416/416 560/530/530
f 560/530/530 498/416/416 499/419/419
f 499/419/419 500/420/420 555/531/531
f 499/419/419 558/532/532 560/530/530
f 555/531/531 558/532/532 499/419/419
f 501/423/423 502/533/533 555/531/531
f 555/531/531 500/420/420 501/423/423
f 504/534/534 502/533/533 501/423/423
f 501/423/423 506/424/424 504/534/534
f 505/427/427 503/535/535 504/534/534
f 504/534/534 506/424/424 505/427/427
f 549/536/536 503/535/535 505/427/427
f 505/427/427 507/428/428 549/536/536
f 549/536/536 507/428/428 508/431/431
f 548/537/537 550/538/538 508/431/431
f 508/431/431 550/538/538 549/536/536
f 508/431/431 509/432/432 548/537/537
f 548/537/537 509/432/432 510/435/435
f 510/435/435 553/539/539 548/537/537
f 565/540/540 553/539/539 510/435/435
f 510/435/435 511/436/436 565/540/540
f 565/540/540 511/436/436 512/439/439
f 512/439/439 566/541/541 565/540/540
f 547/542/542 566/541/541 512/439/439
f 512/439/439 513/440/440 547/542/542
f 547/542/542 513/440/440 514/443/443
f 514/443/443 545/543/543 547/542/542
f 546/544/544 545/543/543 514/443/443
f 514/443/443 515/444/444 546/544/544
f 546/544/544 515/444/444 516/447/447
f 516/447/447 544/545/545 546/544/544
f 543/513/513 544/545/545 516/447/447
f 516/447/447 483/448/448 543/513/513
f 521/521/521 518/522/522 522/546/546
f 519/547/547 520/520/520 521/521/521
f 522/546/546 526/523/523 523/548/548
f 523/548/548 525/549/549 522/546/546
f 522/546/546 525/549/549 524/550/550
f 524/550/550 521/521/521 522/546/546
f 522/546/546 518/522/522 526/523/523
f 523/548/548 526/523/523 527/551/551
f 527/551/551 532/552/552 523/548/548
f 529/525/525 528/553/553 527/551/551
f 527/551/551 528/553/553 531/554/554
f 527/551/551 530/524/524 529/525/525
f 526/523/523 530/524/524 527/551/551
f 531/554/554 532/552/552 527/551/551
f 532/552/552 533/555/555 535/556/556
f 532/552/552 534/557/557 523/548/548
f 535/556/556 534/557/557 532/552/552
f 525/549/549 534/557/557 535/556/556
f 536/558/558 537/559/559 535/556/556
f 535/556/556 552/560/560 536/558/558
f 556/561/561 552/560/560 535/556/556
f 535/556/556 537/559/559 525/549/549
f 535/556/556 533/555/555 556/561/561
f 523/548/548 534/557/557 525/549/549
f 525/549/549 537/559/559 538/562/562
f 538/562/562 539/563/563 525/549/549
f 525/549/549 539/563/563 524/550/550
f 538/562/562 540/514/514 539/563/563
f 539/563/563 541/564/564 524/550/550
f 539/563/563 542/515/515 541/564/564
f 540/514/514 542/515/515 539/563/563
f 567/565/565 543/513/513 540/514/514
f 544/545/545 543/513/513 567/565/565
f 567/565/565 545/543/543 544/545/545
f 545/543/543 546/544/544 544/545/545
f 550/538/538 548/537/537 551/566/566
f 557/567/567 549/536/536 550/538/538
f 554/568/568 550/538/538 551/566/566
f 552/560/560 556/561/561 551/566/566
f 551/566/566 556/561/561 554/568/568
f 551/566/566 553/539/539 552/560/560
f 551/566/566 548/537/537 553/539/539
f 555/531/531 557/567/567 554/568/568
f 554/568/568 556/561/561 555/531/531
f 557/567/567 550/538/538 554/568/568
f 502/533/533 557/567/567 555/531/531
f 555/531/531 556/561/561 533/555/555
f 533/555/555 558/532/532 555/531/531
f 559/569/569 558/532/532 533/555/555
f 533/555/555 532/552/552 559/569/569
f 559/569/569 560/530/530 558/532/532
f 561/529/529 560/530/530 559/569/569
f 531/554/554 561/529/529 559/569/569
f 559/569/569 532/552/552 531/554/554
f 528/553/553 561/529/529 531/554/554
f 529/525/525 564/526/526 528/553/553
f 528/553/553 562/528/528 561/529/529
f 563/527/527 562/528/528 528/553/553
f 528/553/553 564/526/526 563/527/527
f 566/541/541 547/542/542 545/543/543
f 565/540/540 566/541/541 567/565/565
f 567/565/565 566/541/541 545/543/543
f 567/565/565 536/558/558 565/540/540
f 565/540/540 536/558/558 552/560/560
f 536/558/558 567/565/565 538/562/562
f 552/560/560 553/539/539 565/540/540
f 503/535/535 549/536/536 557/567/567
f 502/533/533 504/534/534 557/567/567
f 557/567/567 504/534/534 503/535/535
f 567/565/565 540/514/514 538/562/562
f 541/564/564 568/518/518 519/547/547
f 541/564/564 517/517/517 568/518/518
f 542/515/515 517/517/517 541/564/564
f 519/547/547 568/518/518 569/519/519
f 569/519/519 520/520/520 519/547/547
f 524/550/550 541/564/564 519/547/547
f 538/562/562 537/559/559 536/558/558
f 519/547/547 521/521/521 524/550/550
