# Blender 5.1.2
# www.blender.org
mtllib btn_circle.mtl
o btn_circle
v 0.822622 -0.250001 0.239115
v 0.831292 -0.258800 0.257375
v 0.822622 -0.264799 0.239115
v 0.831292 -0.244002 0.257375
v 0.808618 -0.272737 0.224539
v 0.808618 -0.257940 0.224539
v 0.790872 -0.265683 0.214862
v 0.790872 -0.280480 0.214862
v 0.770975 -0.285894 0.211301
v 0.770975 -0.271097 0.211301
v 0.750930 -0.274905 0.213904
v 0.750930 -0.289702 0.213904
v 0.732740 -0.292627 0.222718
v 0.732740 -0.277829 0.222718
v 0.718053 -0.280055 0.236606
v 0.718053 -0.294852 0.236606
v 0.708518 -0.296563 0.254429
v 0.708518 -0.281766 0.254429
v 0.704799 -0.282920 0.274297
v 0.704799 -0.297718 0.274297
v 0.707561 -0.298273 0.294320
v 0.707561 -0.283476 0.294320
v 0.716230 -0.283221 0.312580
v 0.716230 -0.298019 0.312580
v 0.834053 -0.255824 0.277398
v 0.830334 -0.256956 0.297266
v 0.820799 -0.262134 0.315089
v 0.806112 -0.271294 0.328977
v 0.787922 -0.281222 0.337791
v 0.767877 -0.288703 0.340393
v 0.747980 -0.293841 0.336832
v 0.730234 -0.296744 0.327156
v 0.716230 -0.298019 0.312580
v 0.716230 -0.283221 0.312580
v 0.730234 -0.281947 0.327156
v 0.747980 -0.279044 0.336832
v 0.767877 -0.273905 0.340393
v 0.787922 -0.266425 0.337791
v 0.806112 -0.256497 0.328977
v 0.820799 -0.247336 0.315089
v 0.830334 -0.242159 0.297266
v 0.834053 -0.241026 0.277398
v 0.771231 -0.311990 0.315107
v 0.757653 -0.315055 0.316738
v 0.786152 -0.308206 0.290104
v 0.771640 -0.312789 0.290333
v 0.784618 -0.307825 0.316627
v 0.756928 -0.316055 0.290107
v 0.798671 -0.302933 0.302998
v 0.770955 -0.311285 0.328628
v 0.783795 -0.307458 0.327463
v 0.795444 -0.303410 0.324340
v 0.796939 -0.303309 0.315092
v 0.820140 -0.292306 0.297560
v 0.804749 -0.299674 0.319568
v 0.810761 -0.296765 0.315339
v 0.814883 -0.294974 0.309212
v 0.807673 -0.298678 0.311027
v 0.812449 -0.296577 0.288895
v 0.800531 -0.302555 0.279192
v 0.822735 -0.290773 0.270333
v 0.812532 -0.296526 0.267234
v 0.798697 -0.302992 0.251138
v 0.807312 -0.298725 0.240020
v 0.818717 -0.292775 0.251057
v 0.814415 -0.295008 0.242136
v 0.826482 -0.288132 0.262898
v 0.823237 -0.289846 0.251494
v 0.818319 -0.292474 0.242360
v 0.811922 -0.295682 0.234826
v 0.813223 -0.293648 0.233255
v 0.820080 -0.290240 0.241617
v 0.810460 -0.296782 0.236319
v 0.825236 -0.287508 0.251478
v 0.828558 -0.285744 0.263033
v 0.829658 -0.282773 0.263104
v 0.826299 -0.284555 0.251467
v 0.821022 -0.287315 0.241214
v 0.813923 -0.290823 0.232397
v 0.814222 -0.287683 0.232020
v 0.821522 -0.283010 0.241013
v 0.826744 -0.281355 0.251461
v 0.830221 -0.278472 0.263139
v 0.826914 -0.275857 0.251442
v 0.831609 -0.273379 0.275432
v 0.830270 -0.274030 0.263144
v 0.831426 -0.278914 0.275433
v 0.830092 -0.282769 0.287762
v 0.830658 -0.278469 0.287724
v 0.830967 -0.282125 0.275433
v 0.827606 -0.275861 0.299530
v 0.830707 -0.274031 0.287721
v 0.827433 -0.281357 0.299510
v 0.826984 -0.284552 0.299505
v 0.821595 -0.287319 0.310077
v 0.822099 -0.283042 0.310277
v 0.814546 -0.287699 0.319658
v 0.814651 -0.282387 0.319823
v 0.822133 -0.278736 0.310309
v 0.805414 -0.286503 0.327608
v 0.794789 -0.290756 0.333517
v 0.783043 -0.294797 0.337132
v 0.770796 -0.298401 0.338453
v 0.758487 -0.301381 0.337211
v 0.746667 -0.309120 0.333445
v 0.758481 -0.305853 0.337142
v 0.770775 -0.303839 0.338213
v 0.746667 -0.303686 0.333677
v 0.735776 -0.305299 0.327806
v 0.726197 -0.306332 0.320013
v 0.718393 -0.306904 0.310427
v 0.712521 -0.307167 0.299544
v 0.708986 -0.307271 0.287721
v 0.707764 -0.307282 0.275432
v 0.708986 -0.309705 0.263144
v 0.708986 -0.307271 0.287721
v 0.707861 -0.305642 0.275433
v 0.709029 -0.305699 0.263139
v 0.712559 -0.307165 0.251323
v 0.712653 -0.305518 0.251324
v 0.718444 -0.305298 0.240468
v 0.718952 -0.305033 0.240528
v 0.736073 -0.303460 0.223888
v 0.735887 -0.303692 0.223483
v 0.758487 -0.299564 0.215336
v 0.770780 -0.296769 0.213870
v 0.758558 -0.299787 0.214794
v 0.783105 -0.292932 0.215769
v 0.770842 -0.296564 0.214365
v 0.794165 -0.288946 0.225427
v 0.782203 -0.292995 0.238213
v 0.795760 -0.287851 0.248240
v 0.770118 -0.296763 0.243002
v 0.755630 -0.300475 0.261123
v 0.757064 -0.299802 0.238896
v 0.797241 -0.287429 0.275498
v 0.782736 -0.293352 0.273264
v 0.784155 -0.292464 0.300053
v 0.770280 -0.297416 0.276735
v 0.756349 -0.300533 0.277857
v 0.741802 -0.302538 0.303289
v 0.740061 -0.303023 0.276474
v 0.770130 -0.296753 0.307817
v 0.756999 -0.299812 0.312254
v 0.782901 -0.292831 0.319449
v 0.794232 -0.288951 0.326543
v 0.770837 -0.296567 0.337820
v 0.758411 -0.299569 0.336600
v 0.814167 -0.280774 0.319462
v 0.807679 -0.283200 0.313631
v 0.827120 -0.274231 0.299257
v 0.821660 -0.277131 0.310123
v 0.822079 -0.277174 0.310275
v 0.830162 -0.272453 0.287699
v 0.830635 -0.272461 0.287732
v 0.831046 -0.271810 0.275343
v 0.813213 -0.280270 0.292285
v 0.812041 -0.280674 0.256233
v 0.826497 -0.274201 0.251846
v 0.813969 -0.280718 0.232340
v 0.807370 -0.283206 0.237835
v 0.805086 -0.284763 0.224905
v 0.794649 -0.288945 0.219300
v 0.805226 -0.284935 0.224445
v 0.805259 -0.286497 0.224388
v 0.814322 -0.282373 0.231895
v 0.814256 -0.280793 0.231961
v 0.794712 -0.290753 0.218718
v 0.794697 -0.289123 0.218813
v 0.783022 -0.293203 0.215208
v 0.770787 -0.298401 0.213772
v 0.783028 -0.294791 0.215141
v 0.758569 -0.301375 0.214726
v 0.746788 -0.303683 0.217959
v 0.735858 -0.305294 0.223430
v 0.746784 -0.302046 0.218054
v 0.726239 -0.306327 0.230977
v 0.718392 -0.306901 0.240438
v 0.726300 -0.304685 0.231042
v 0.821501 -0.277172 0.241014
v 0.821555 -0.278732 0.240980
v 0.826892 -0.275856 0.251459
v 0.826796 -0.274259 0.251458
v 0.830197 -0.272459 0.263132
v 0.821091 -0.277131 0.241166
v 0.829729 -0.272455 0.263160
v 0.830270 -0.274030 0.263144
v 0.831579 -0.273379 0.275432
v 0.831481 -0.271782 0.275433
v 0.830707 -0.274031 0.287721
v 0.827583 -0.275859 0.299512
v 0.827488 -0.274261 0.299514
v 0.822133 -0.278736 0.310309
v 0.814647 -0.282379 0.319783
v 0.814581 -0.280797 0.319718
v 0.805381 -0.284939 0.327551
v 0.805414 -0.286503 0.327608
v 0.794768 -0.290759 0.333489
v 0.794753 -0.289129 0.333394
v 0.783037 -0.293209 0.337065
v 0.805223 -0.284774 0.327104
v 0.794705 -0.288951 0.332907
v 0.783118 -0.292940 0.336506
v 0.758476 -0.299792 0.337143
v 0.758487 -0.301381 0.337211
v 0.746664 -0.303689 0.333637
v 0.746661 -0.302050 0.333543
v 0.770771 -0.298407 0.338413
v 0.770764 -0.296775 0.338315
v 0.783043 -0.294797 0.337132
v 0.735807 -0.303696 0.327755
v 0.735776 -0.305299 0.327806
v 0.726220 -0.306332 0.319981
v 0.726281 -0.304689 0.319917
v 0.718445 -0.305301 0.310396
v 0.718961 -0.305036 0.310349
v 0.726633 -0.304467 0.319572
v 0.709586 -0.305403 0.287722
v 0.709053 -0.305675 0.287729
v 0.709583 -0.305402 0.263147
v 0.708355 -0.305425 0.275433
v 0.713119 -0.305295 0.251437
v 0.726645 -0.304463 0.231386
v 0.731993 -0.303759 0.237298
v 0.746453 -0.301921 0.218682
v 0.725457 -0.304321 0.260171
v 0.741633 -0.302568 0.247546
v 0.725110 -0.304362 0.289605
v 0.713126 -0.305297 0.299443
v 0.731949 -0.303763 0.313795
v 0.746330 -0.301927 0.332902
v 0.735997 -0.303465 0.327355
v 0.712655 -0.305520 0.299542
v 0.712561 -0.307167 0.299542
v 0.718393 -0.306904 0.310427
v 0.795886 -0.287842 0.302949
v 0.718392 -0.306901 0.240438
v 0.726217 -0.306327 0.230945
v 0.735858 -0.305294 0.223430
v 0.746792 -0.303680 0.217918
v 0.758569 -0.301375 0.214726
v 0.770812 -0.298395 0.213732
v 0.783028 -0.294791 0.215141
v 0.794737 -0.290749 0.218691
v 0.805259 -0.286497 0.224388
v 0.814326 -0.282382 0.231855
v 0.821555 -0.278732 0.240980
v 0.805242 -0.290794 0.224440
v 0.794720 -0.296152 0.218912
v 0.783095 -0.303099 0.215947
v 0.794746 -0.299056 0.219495
v 0.783036 -0.299244 0.215210
v 0.805093 -0.294851 0.225068
v 0.804797 -0.297442 0.226195
v 0.794794 -0.301433 0.220755
v 0.783395 -0.306775 0.219555
v 0.794870 -0.302832 0.222980
v 0.783204 -0.305432 0.217253
v 0.804242 -0.299134 0.228218
v 0.795416 -0.303407 0.227711
v 0.804601 -0.299681 0.232309
v 0.796879 -0.303312 0.236488
v 0.783805 -0.307456 0.224646
v 0.784632 -0.307828 0.235114
v 0.770978 -0.311286 0.223407
v 0.771229 -0.312003 0.236509
v 0.756945 -0.316051 0.260895
v 0.771650 -0.312786 0.260671
v 0.757708 -0.315056 0.234778
v 0.786155 -0.308205 0.260884
v 0.786472 -0.308318 0.275496
v 0.771764 -0.313027 0.275504
v 0.756807 -0.316288 0.275502
v 0.742122 -0.318322 0.271956
v 0.728983 -0.319253 0.283849
v 0.729177 -0.319184 0.262035
v 0.734114 -0.318571 0.239698
v 0.721786 -0.319222 0.250916
v 0.743681 -0.317748 0.248038
v 0.717575 -0.319468 0.270160
v 0.720587 -0.319309 0.296937
v 0.713423 -0.318999 0.287992
v 0.712208 -0.319037 0.275441
v 0.713423 -0.318998 0.262890
v 0.716829 -0.318861 0.251346
v 0.714620 -0.317649 0.251334
v 0.711125 -0.317771 0.263021
v 0.709904 -0.317799 0.275436
v 0.711125 -0.317773 0.287852
v 0.709810 -0.315519 0.287771
v 0.708587 -0.315537 0.275434
v 0.709809 -0.315517 0.263097
v 0.713354 -0.315404 0.251327
v 0.712670 -0.312029 0.251319
v 0.709192 -0.312680 0.263132
v 0.707876 -0.312135 0.275433
v 0.709058 -0.311744 0.287728
v 0.712759 -0.312574 0.299542
v 0.713355 -0.315406 0.299542
v 0.719102 -0.315142 0.310178
v 0.718446 -0.311374 0.310393
v 0.726354 -0.311736 0.319847
v 0.726758 -0.314585 0.319446
v 0.735812 -0.309768 0.327755
v 0.736031 -0.313594 0.327110
v 0.746677 -0.312023 0.332866
v 0.727617 -0.316861 0.318588
v 0.746695 -0.314392 0.331610
v 0.736436 -0.315919 0.325984
v 0.737144 -0.317248 0.323997
v 0.736883 -0.317982 0.319780
v 0.746724 -0.315790 0.329382
v 0.746335 -0.316611 0.324473
v 0.730673 -0.318418 0.315549
v 0.729117 -0.318114 0.317085
v 0.722206 -0.318611 0.309085
v 0.714622 -0.317651 0.299542
v 0.716833 -0.318864 0.299541
v 0.720232 -0.317393 0.309781
v 0.726448 -0.318940 0.309382
v 0.743630 -0.317839 0.299883
v 0.745099 -0.317254 0.315169
v 0.734081 -0.318575 0.311385
v 0.758081 -0.314357 0.327527
v 0.758297 -0.313518 0.332797
v 0.758397 -0.312105 0.335109
v 0.770811 -0.309104 0.336305
v 0.770855 -0.310494 0.333992
v 0.783392 -0.306778 0.332715
v 0.783210 -0.305436 0.335019
v 0.794837 -0.301439 0.331453
v 0.794899 -0.302837 0.329228
v 0.804366 -0.299136 0.323790
v 0.812215 -0.295673 0.316872
v 0.813533 -0.293650 0.318432
v 0.804938 -0.297448 0.325807
v 0.805243 -0.294861 0.326931
v 0.794797 -0.299064 0.332713
v 0.814242 -0.290835 0.319284
v 0.805396 -0.290813 0.327556
v 0.794775 -0.296160 0.333295
v 0.783107 -0.303104 0.336325
v 0.783051 -0.299253 0.337063
v 0.770787 -0.306739 0.337611
v 0.758453 -0.309725 0.336412
v 0.818868 -0.292448 0.308943
v 0.820644 -0.290232 0.309678
v 0.825915 -0.287493 0.299496
v 0.826905 -0.288109 0.287973
v 0.823904 -0.289810 0.299483
v 0.828988 -0.285734 0.287835
v 0.829868 -0.285101 0.275435
v 0.827792 -0.287497 0.275437
v 0.719097 -0.315139 0.240693
v 0.718446 -0.311373 0.240471
v 0.726372 -0.311732 0.231113
v 0.726771 -0.314581 0.231519
v 0.736107 -0.313590 0.224131
v 0.735891 -0.309753 0.223483
v 0.746790 -0.309114 0.218152
v 0.758533 -0.309720 0.215524
v 0.758563 -0.305853 0.214795
v 0.746796 -0.312018 0.218731
v 0.746808 -0.314389 0.219989
v 0.758369 -0.313518 0.219137
v 0.758474 -0.312102 0.216826
v 0.746825 -0.315789 0.222219
v 0.737194 -0.317247 0.227264
v 0.736503 -0.315916 0.225265
v 0.727621 -0.316858 0.232390
v 0.722187 -0.318609 0.241816
v 0.729105 -0.318113 0.233916
v 0.720222 -0.317390 0.241101
v 0.730671 -0.318418 0.235508
v 0.736918 -0.317982 0.231452
v 0.726435 -0.318939 0.241583
v 0.745163 -0.317251 0.236124
v 0.746420 -0.316611 0.227053
v 0.758145 -0.314359 0.224290
v 0.770829 -0.309101 0.215879
v 0.770875 -0.310493 0.218192
v 0.770803 -0.306734 0.214574
v 0.770791 -0.303833 0.213972
v 0.770130 -0.296092 0.307818
v 0.756999 -0.299151 0.312262
v 0.784154 -0.291803 0.300052
v 0.770279 -0.296774 0.275459
v 0.782901 -0.292170 0.319449
v 0.795886 -0.287181 0.302949
v 0.770814 -0.295912 0.337786
v 0.794231 -0.288291 0.326542
v 0.807679 -0.282539 0.313631
v 0.814204 -0.280098 0.319444
v 0.827199 -0.273526 0.298999
v 0.813213 -0.279609 0.292288
v 0.830177 -0.271783 0.287591
v 0.821646 -0.276476 0.310113
v 0.814592 -0.279760 0.319720
v 0.822092 -0.276060 0.310276
v 0.827503 -0.273228 0.299508
v 0.830654 -0.271332 0.287723
v 0.827583 -0.272053 0.299512
v 0.814647 -0.278601 0.319783
v 0.822133 -0.274947 0.310309
v 0.805414 -0.282714 0.327608
v 0.794768 -0.286952 0.333489
v 0.783043 -0.290985 0.337132
v 0.770771 -0.294596 0.338413
v 0.758487 -0.297570 0.337211
v 0.746664 -0.299877 0.333637
v 0.735776 -0.301489 0.327806
v 0.726220 -0.302522 0.319981
v 0.718393 -0.303093 0.310427
v 0.708986 -0.304200 0.287721
v 0.707764 -0.303471 0.275432
v 0.712561 -0.303355 0.299542
v 0.708986 -0.303458 0.263144
v 0.708986 -0.303458 0.263144
v 0.712559 -0.303353 0.251323
v 0.718392 -0.303090 0.240438
v 0.726239 -0.302517 0.230977
v 0.735858 -0.301484 0.223430
v 0.746788 -0.299872 0.217959
v 0.758569 -0.297564 0.214726
v 0.770787 -0.294589 0.213772
v 0.783028 -0.290979 0.215141
v 0.794712 -0.286947 0.218718
v 0.805259 -0.282709 0.224388
v 0.814322 -0.278597 0.231895
v 0.821555 -0.274944 0.240980
v 0.826892 -0.272050 0.251459
v 0.830270 -0.270218 0.263144
v 0.831579 -0.269567 0.275432
v 0.830707 -0.270219 0.287721
v 0.831498 -0.270740 0.275433
v 0.829743 -0.271786 0.263261
v 0.830217 -0.271332 0.263142
v 0.826812 -0.273226 0.251464
v 0.821065 -0.276480 0.241190
v 0.821514 -0.276056 0.241013
v 0.814268 -0.279755 0.231958
v 0.805044 -0.284119 0.224963
v 0.805239 -0.283808 0.224443
v 0.794708 -0.288085 0.218812
v 0.783066 -0.292284 0.215761
v 0.783033 -0.292067 0.215207
v 0.770788 -0.295728 0.213869
v 0.758560 -0.298661 0.214794
v 0.746783 -0.301018 0.218056
v 0.735887 -0.302587 0.223484
v 0.726302 -0.303655 0.231042
v 0.718447 -0.304192 0.240468
v 0.712656 -0.304491 0.251322
v 0.709055 -0.304552 0.263138
v 0.707863 -0.304606 0.275433
v 0.709138 -0.304627 0.287730
v 0.712658 -0.304493 0.299543
v 0.718447 -0.304195 0.310397
v 0.726284 -0.303659 0.319916
v 0.735807 -0.302592 0.327753
v 0.746659 -0.301024 0.333541
v 0.758478 -0.298668 0.337143
v 0.770772 -0.295734 0.338316
v 0.783080 -0.292291 0.336513
v 0.783048 -0.292073 0.337066
v 0.794764 -0.288091 0.333395
v 0.805195 -0.284124 0.327047
v 0.805393 -0.283814 0.327553
v 0.794708 -0.288289 0.332901
v 0.758424 -0.298906 0.336604
v 0.770821 -0.295908 0.214401
v 0.794651 -0.288283 0.219309
v 0.813942 -0.280070 0.232341
v 0.807370 -0.282545 0.237835
v 0.812040 -0.280013 0.256232
v 0.794165 -0.288286 0.225426
v 0.826652 -0.273456 0.252300
v 0.795760 -0.287190 0.248239
v 0.782197 -0.292336 0.238252
v 0.797241 -0.286768 0.275498
v 0.782736 -0.292691 0.273264
v 0.770133 -0.296091 0.243359
v 0.755630 -0.299814 0.261123
v 0.757063 -0.299141 0.238894
v 0.741844 -0.301871 0.247770
v 0.756347 -0.299872 0.277854
v 0.740060 -0.302362 0.274498
v 0.725457 -0.303660 0.260169
v 0.741589 -0.301912 0.303513
v 0.725110 -0.303701 0.289607
v 0.708394 -0.304762 0.275433
v 0.709584 -0.304742 0.287707
v 0.713131 -0.304637 0.299399
v 0.731949 -0.303102 0.313795
v 0.718968 -0.304374 0.310280
v 0.726637 -0.303807 0.319560
v 0.735991 -0.302806 0.327259
v 0.746428 -0.301251 0.332916
v 0.709584 -0.304741 0.263164
v 0.713122 -0.304635 0.251480
v 0.731993 -0.303098 0.237298
v 0.718961 -0.304371 0.240591
v 0.726649 -0.303804 0.231400
v 0.736067 -0.302802 0.223979
v 0.746546 -0.301246 0.218675
v 0.758500 -0.298900 0.215333
v 0.830993 -0.271174 0.275216
v 0.718392 -0.303090 0.240438
v 0.726239 -0.302517 0.230977
v 0.712559 -0.303353 0.251323
v 0.735858 -0.301484 0.223430
v 0.758569 -0.297564 0.214726
v 0.770787 -0.294589 0.213772
v 0.746788 -0.299872 0.217959
v 0.758569 -0.272638 0.214726
v 0.735858 -0.276558 0.223430
v 0.746788 -0.274946 0.217959
v 0.726239 -0.277592 0.230977
v 0.718392 -0.278165 0.240438
v 0.712559 -0.278428 0.251323
v 0.708986 -0.278532 0.263144
v 0.707764 -0.278545 0.275432
v 0.708986 -0.278534 0.287721
v 0.712561 -0.278430 0.299542
v 0.770787 -0.269664 0.213772
v 0.783028 -0.266053 0.215141
v 0.794712 -0.262021 0.218718
v 0.805259 -0.257783 0.224388
v 0.794712 -0.286947 0.218718
v 0.783028 -0.290979 0.215141
v 0.805259 -0.282709 0.224388
v 0.814322 -0.278597 0.231895
v 0.821555 -0.274944 0.240980
v 0.814322 -0.253671 0.231895
v 0.821555 -0.250018 0.240980
v 0.826892 -0.247125 0.251459
v 0.830270 -0.245293 0.263144
v 0.826892 -0.272050 0.251459
v 0.830270 -0.270218 0.263144
v 0.831579 -0.269567 0.275432
v 0.830707 -0.270219 0.287721
v 0.830707 -0.245294 0.287721
v 0.827583 -0.272053 0.299512
v 0.827583 -0.247127 0.299512
v 0.831579 -0.244642 0.275432
v 0.822133 -0.250022 0.310309
v 0.814647 -0.253676 0.319783
v 0.814647 -0.278601 0.319783
v 0.822133 -0.274947 0.310309
v 0.805414 -0.282714 0.327608
v 0.805414 -0.257788 0.327608
v 0.794768 -0.262027 0.333489
v 0.794768 -0.286952 0.333489
v 0.783043 -0.266060 0.337132
v 0.770771 -0.269670 0.338413
v 0.770771 -0.294596 0.338413
v 0.783043 -0.290985 0.337132
v 0.758487 -0.297570 0.337211
v 0.735776 -0.301489 0.327806
v 0.718393 -0.303093 0.310427
v 0.712561 -0.303355 0.299542
v 0.726220 -0.302522 0.319981
v 0.718393 -0.278168 0.310427
v 0.735776 -0.276563 0.327806
v 0.726220 -0.277596 0.319981
v 0.746664 -0.274952 0.333637
v 0.746664 -0.299877 0.333637
v 0.758487 -0.272644 0.337211
v 0.712561 -0.278430 0.299542
vn -0.9522 -0.0000 0.3056
vn -0.9582 -0.0000 0.2861
vn -0.8228 -0.0000 0.5683
vn -0.8035 -0.0000 0.5953
vn -0.5777 -0.0000 0.8163
vn -0.6070 -0.0000 0.7947
vn -0.3316 -0.0000 0.9434
vn -0.2999 -0.0000 0.9540
vn -0.0014 -0.0000 1.0000
vn -0.0240 -0.0000 0.9997
vn 0.2862 -0.0000 0.9582
vn 0.3026 -0.0000 0.9531
vn 0.5785 -0.0000 0.8157
vn 0.5682 -0.0000 0.8229
vn 0.7947 -0.0000 0.6070
vn 0.8008 -0.0000 0.5989
vn 0.9457 -0.0000 0.3251
vn 0.9433 -0.0000 0.3318
vn 0.9997 -0.0000 0.0240
vn 0.9998 -0.0000 0.0196
vn 0.9580 -0.0000 -0.2868
vn 0.9582 -0.0000 -0.2860
vn 0.8229 -0.0000 -0.5681
vn 0.8428 0.1127 -0.5264
vn 0.6152 -0.0000 -0.7884
vn 0.7878 0.1169 -0.6047
vn 0.8228 -0.0000 -0.5683
vn 0.6070 -0.0000 -0.7947
vn 0.3318 -0.0000 -0.9433
vn 0.0546 -0.0000 -0.9985
vn 0.3514 -0.0000 -0.9362
vn 0.0240 -0.0000 -0.9997
vn -0.2860 -0.0000 -0.9582
vn -0.2443 -0.0000 -0.9697
vn -0.5324 -0.0000 -0.8465
vn -0.5682 -0.0000 -0.8229
vn -0.7946 -0.0000 -0.6072
vn -0.9386 -0.0000 -0.3451
vn -0.7742 -0.0000 -0.6330
vn -0.9434 -0.0000 -0.3317
vn -0.9997 -0.0000 -0.0240
vn -0.9998 -0.0000 -0.0196
vn 0.2581 -0.9652 0.0427
vn 0.1956 -0.9798 0.0412
vn 0.1800 -0.9834 0.0211
vn 0.3365 -0.9414 0.0224
vn 0.3209 -0.9462 0.0416
vn 0.2591 -0.9656 0.0240
vn 0.3913 -0.9200 0.0215
vn 0.3796 -0.9244 0.0370
vn 0.3231 -0.9410 0.1002
vn 0.2578 -0.9610 0.1002
vn 0.3860 -0.9172 0.0992
vn 0.4388 -0.8980 0.0316
vn 0.5071 -0.8616 0.0203
vn 0.5037 -0.8618 0.0606
vn 0.4533 -0.8858 0.0997
vn 0.5033 -0.8578 0.1042
vn 0.4612 -0.8873 0.0072
vn 0.4099 -0.9121 0.0024
vn 0.4652 -0.8851 -0.0108
vn 0.5207 -0.8537 -0.0101
vn 0.3973 -0.9175 -0.0198
vn 0.4451 -0.8948 -0.0358
vn 0.5135 -0.8576 -0.0286
vn 0.6628 -0.7472 -0.0485
vn 0.5110 -0.8575 -0.0602
vn 0.6366 -0.7522 -0.1703
vn 0.6540 -0.7493 -0.1043
vn 0.8370 -0.4960 -0.2310
vn 0.5101 -0.8538 -0.1045
vn 0.6001 -0.7640 -0.2370
vn 0.7160 -0.5202 -0.4656
vn 0.7900 -0.5009 -0.3535
vn 0.8559 -0.5038 -0.1166
vn 0.9581 -0.2351 -0.1639
vn 0.8485 -0.2300 -0.4766
vn 0.9194 -0.2323 -0.3175
vn 0.9325 -0.0836 -0.3515
vn 0.7451 -0.2489 -0.6187
vn 0.7317 -0.0915 -0.6755
vn 0.8482 -0.0651 -0.5257
vn 0.9803 -0.0673 -0.1854
vn 0.9358 -0.0192 -0.3519
vn 0.9814 -0.0107 -0.1916
vn 0.9994 -0.0285 -0.0175
vn 0.9959 -0.0887 -0.0173
vn 0.9618 -0.2375 0.1362
vn 0.9693 -0.2453 -0.0169
vn 0.9852 -0.0681 0.1570
vn 0.9394 -0.0329 0.3412
vn 0.9368 -0.0845 0.3396
vn 0.9865 -0.0109 0.1632
vn 0.9227 -0.2352 0.3054
vn 0.8492 -0.2320 0.4744
vn 0.8503 -0.0670 0.5221
vn 0.7335 -0.0383 0.6786
vn 0.7361 -0.0919 0.6706
vn 0.8441 -0.0106 0.5361
vn 0.5706 -0.0122 0.8211
vn 0.5865 -0.0782 0.8062
vn 0.4196 -0.0445 0.9066
vn 0.2052 -0.0146 0.9786
vn 0.2282 -0.0963 0.9688
vn 0.0212 -0.0392 0.9990
vn -0.1912 -0.0149 0.9814
vn -0.1720 -0.0984 0.9802
vn -0.3691 -0.0393 0.9286
vn -0.3628 -0.1167 0.9245
vn 0.0373 -0.1264 0.9913
vn -0.5542 -0.0139 0.8323
vn -0.5438 -0.0926 0.8341
vn -0.7039 -0.0371 0.7094
vn -0.8312 -0.0141 0.5559
vn -0.8265 -0.0934 0.5551
vn -0.9231 -0.0358 0.3830
vn -0.9809 -0.0154 0.1936
vn -0.9760 -0.1015 0.1927
vn -0.9998 0.0180 0.0008
vn -0.9934 -0.1148 0.0004
vn -0.9805 -0.0276 -0.1945
vn -0.8478 0.5057 -0.1596
vn -0.8390 0.5177 0.1676
vn -0.8271 0.5620 -0.0090
vn -0.9802 0.0405 0.1940
vn -0.7767 0.5536 -0.3004
vn -0.9239 0.0161 -0.3824
vn -0.2880 0.9564 -0.0473
vn -0.2477 0.9643 -0.0934
vn -0.2686 0.9499 -0.1597
vn -0.7212 0.5102 -0.4686
vn -0.6098 0.5505 -0.5702
vn -0.2348 0.9617 -0.1414
vn -0.2469 0.9496 -0.1930
vn -0.4949 0.5066 -0.7060
vn -0.3670 0.5613 -0.7418
vn -0.2366 0.9555 -0.1760
vn -0.2544 0.9419 -0.2193
vn -0.2545 0.9488 -0.1871
vn -0.1128 0.5693 -0.8143
vn -0.2412 0.5113 -0.8249
vn -0.3471 0.9375 -0.0246
vn -0.2572 0.9461 -0.1966
vn -0.2480 0.9424 -0.2246
vn -0.3205 0.9473 -0.0020
vn -0.3785 0.9256 -0.0047
vn -0.2625 0.9649 0.0113
vn -0.2034 0.9791 0.0034
vn -0.1901 0.9817 0.0144
vn -0.3419 0.9397 0.0028
vn -0.3928 0.9196 -0.0000
vn -0.2649 0.9643 -0.0026
vn -0.3366 0.9416 -0.0099
vn -0.1871 0.9823 -0.0037
vn -0.1214 0.9926 -0.0000
vn -0.1400 0.9901 -0.0039
vn -0.2047 0.9788 -0.0043
vn -0.2618 0.9651 -0.0099
vn -0.3159 0.9488 0.0061
vn -0.2529 0.9401 0.2285
vn -0.3452 0.9382 0.0233
vn -0.3743 0.9273 0.0065
vn -0.2549 0.9479 0.1912
vn -0.2465 0.9467 0.2073
vn -0.2627 0.9419 0.2095
vn -0.2408 0.9460 0.2172
vn -0.3834 0.9230 0.0318
vn -0.2542 0.9491 0.1861
vn -0.2161 0.9708 0.1043
vn -0.4079 0.9129 0.0121
vn -0.2023 0.9610 0.1885
vn 0.5451 0.6358 0.5465
vn 0.5969 0.7100 0.3736
vn 0.3884 0.6550 0.6482
vn -0.1941 0.9790 0.0617
vn 0.6913 0.6971 0.1901
vn 0.6697 0.7423 -0.0204
vn -0.2355 0.9719 -0.0036
vn -0.4097 0.9122 -0.0086
vn -0.1946 0.9789 -0.0618
vn -0.2210 0.9700 -0.1014
vn -0.2007 0.9577 -0.2063
vn -0.3883 0.9209 -0.0342
vn -0.2615 0.9464 -0.1895
vn -0.2435 0.9413 -0.2340
vn 0.2846 0.5878 -0.7573
vn 0.1109 0.5726 -0.8123
vn 0.3913 0.6524 -0.6491
vn 0.6995 0.0574 -0.7124
vn 0.5454 0.0421 -0.8371
vn 0.3663 0.0569 -0.9288
vn -0.0006 0.5478 -0.8366
vn 0.0019 0.0584 -0.9983
vn 0.1896 0.0423 -0.9809
vn -0.1795 0.0405 -0.9829
vn -0.3637 0.0516 -0.9301
vn -0.5380 0.0374 -0.8421
vn -0.6988 0.0527 -0.7134
vn -0.8300 0.0373 -0.5566
vn 0.5405 0.6411 -0.5448
vn 0.8339 0.0411 -0.5504
vn 0.9252 0.0538 -0.3757
vn 0.5939 0.6945 -0.4062
vn 0.6886 0.6969 -0.2004
vn 0.9796 0.0438 -0.1959
vn 0.9980 0.0600 -0.0176
vn 0.9849 0.0442 0.1676
vn 0.9301 0.0539 0.3633
vn 0.8361 0.0411 0.5470
vn 0.7052 0.0573 0.7067
vn 0.2833 0.5897 0.7563
vn 0.5552 0.0420 0.8307
vn 0.3736 0.0568 0.9258
vn 0.1548 0.5974 0.7868
vn -0.0013 0.5472 0.8370
vn -0.1404 0.5739 0.8068
vn -0.2720 0.5245 0.8068
vn -0.2514 0.9519 0.1750
vn -0.4067 0.5516 0.7283
vn -0.3881 0.0508 0.9202
vn -0.2015 0.0402 0.9787
vn -0.0114 0.0584 0.9982
vn 0.1880 0.0424 0.9812
vn -0.5249 0.5119 0.6800
vn -0.7083 0.0526 0.7039
vn -0.5583 0.0371 0.8288
vn -0.6123 0.5531 0.5650
vn -0.2522 0.9488 0.1904
vn -0.2311 0.9634 0.1359
vn -0.2706 0.9508 0.1506
vn -0.7260 0.5134 0.4575
vn -0.2440 0.9657 0.0888
vn -0.7839 0.5458 0.2961
vn -0.2812 0.9580 0.0556
vn -0.2463 0.9692 0.0030
vn -0.1138 0.9934 -0.0105
vn -0.0856 0.9963 0.0006
vn -0.1396 0.9902 0.0040
vn -0.0855 0.9963 -0.0007
vn -0.1144 0.9934 0.0102
vn -0.9235 0.0516 0.3802
vn -0.8316 0.0374 0.5540
vn -0.9188 -0.1063 -0.3802
vn -0.8249 -0.0940 -0.5573
vn -0.8303 -0.0141 -0.5572
vn -0.6916 -0.0334 -0.7215
vn -0.5338 -0.0140 -0.8455
vn -0.5237 -0.0925 -0.8469
vn -0.3433 -0.0294 -0.9387
vn -0.1689 -0.0150 -0.9855
vn -0.1490 -0.0989 -0.9839
vn 0.0438 -0.0305 -0.9986
vn 0.2068 -0.0146 -0.9783
vn 0.2302 -0.0970 -0.9683
vn 0.4197 -0.0259 -0.9073
vn 0.5613 -0.0122 -0.8275
vn 0.5789 -0.0774 -0.8117
vn 0.7331 -0.0199 -0.6799
vn 0.8422 -0.0105 -0.5391
vn 0.4171 -0.1065 -0.9026
vn 0.2877 -0.3181 -0.9033
vn 0.4590 -0.2937 -0.8385
vn 0.6144 -0.2611 -0.7446
vn 0.6169 -0.5467 -0.5662
vn 0.4879 -0.5901 -0.6433
vn 0.3480 -0.8780 -0.3287
vn 0.3454 -0.6408 -0.6856
vn 0.4444 -0.8367 -0.3202
vn 0.5364 -0.7925 -0.2901
vn 0.3886 -0.9157 -0.1027
vn 0.4582 -0.8830 -0.1015
vn 0.3830 -0.9229 -0.0388
vn 0.3214 -0.9460 -0.0435
vn 0.3244 -0.9402 -0.1040
vn 0.2598 -0.9646 -0.0446
vn 0.2595 -0.9602 -0.1033
vn 0.1809 -0.9833 -0.0220
vn 0.1971 -0.9795 -0.0419
vn 0.2592 -0.9655 -0.0241
vn 0.3377 -0.9410 -0.0220
vn 0.2593 -0.9658 -0.0000
vn 0.3401 -0.9404 -0.0013
vn 0.1776 -0.9841 0.0011
vn 0.1073 -0.9942 -0.0033
vn 0.1225 -0.9923 0.0178
vn 0.0497 -0.9987 0.0077
vn 0.0505 -0.9987 -0.0109
vn -0.0212 -0.9991 -0.0368
vn 0.0691 -0.9969 -0.0375
vn 0.1249 -0.9920 -0.0204
vn -0.0322 -0.9995 -0.0062
vn -0.0304 -0.9989 0.0363
vn -0.2767 -0.9591 0.0591
vn -0.2835 -0.9590 -0.0066
vn -0.2902 -0.9553 -0.0567
vn -0.2765 -0.9515 -0.1350
vn -0.6621 -0.6911 -0.2900
vn -0.6896 -0.7103 -0.1411
vn -0.6949 -0.7191 -0.0000
vn -0.6899 -0.7100 0.1411
vn -0.9202 -0.3454 0.1840
vn -0.9177 -0.3522 -0.1840
vn -0.9337 -0.3580 -0.0000
vn -0.8690 -0.3317 -0.3672
vn -0.9712 -0.1386 -0.1936
vn -0.9163 -0.1201 0.3822
vn -0.8680 -0.3343 0.3670
vn -0.7792 -0.3200 0.5389
vn -0.6972 -0.1172 0.7072
vn -0.6534 -0.3265 0.6829
vn -0.5027 -0.3160 0.8046
vn -0.1815 -0.6797 0.7107
vn -0.3150 -0.3270 0.8910
vn -0.4870 -0.6796 0.5486
vn -0.3555 -0.6747 0.6468
vn -0.1100 -0.9371 0.3314
vn 0.0408 -0.9932 0.1094
vn 0.1229 -0.9871 0.1027
vn -0.0306 -0.9921 0.1216
vn 0.0148 -0.9373 0.3481
vn -0.1994 -0.9376 0.2850
vn -0.2509 -0.9438 0.2152
vn -0.5913 -0.6807 0.4325
vn -0.6624 -0.6906 0.2902
vn -0.2784 -0.9503 0.1392
vn -0.0255 -0.9970 0.0727
vn 0.0675 -0.9971 0.0341
vn 0.1357 -0.9901 0.0367
vn 0.1910 -0.9764 0.1010
vn 0.1359 -0.9302 0.3409
vn 0.2451 -0.9111 0.3313
vn 0.0072 -0.6891 0.7247
vn 0.1837 -0.6787 0.7111
vn 0.3466 -0.8797 0.3256
vn 0.4443 -0.8383 0.3161
vn 0.3440 -0.6422 0.6850
vn 0.4913 -0.5906 0.6401
vn 0.5349 -0.7949 0.2864
vn 0.5957 -0.7678 0.2359
vn 0.7159 -0.5229 0.4627
vn 0.6204 -0.5477 0.5614
vn 0.6213 -0.2612 0.7387
vn 0.4239 -0.1090 0.8991
vn 0.4646 -0.2938 0.8353
vn 0.7483 -0.2500 0.6145
vn 0.2862 -0.3189 0.9036
vn 0.0947 -0.3439 0.9342
vn -0.1115 -0.3347 0.9357
vn 0.6302 -0.7578 0.1689
vn 0.7880 -0.5052 0.3519
vn 0.8370 -0.5011 0.2198
vn 0.6509 -0.7584 0.0330
vn 0.8566 -0.5076 0.0920
vn 0.6499 -0.7536 0.0985
vn 0.8603 -0.5096 -0.0147
vn 0.6568 -0.7540 -0.0090
vn -0.7777 -0.3202 -0.5410
vn -0.6870 -0.1176 -0.7171
vn -0.6436 -0.3274 -0.6918
vn -0.4820 -0.3176 -0.8166
vn -0.3376 -0.1181 -0.9339
vn -0.0895 -0.3351 -0.9379
vn -0.2900 -0.3286 -0.8988
vn -0.1604 -0.6807 -0.7148
vn 0.1440 -0.9285 -0.3422
vn 0.0250 -0.9365 -0.3498
vn 0.0247 -0.6883 -0.7250
vn -0.1004 -0.9371 -0.3343
vn -0.3376 -0.6762 -0.6548
vn -0.4784 -0.6805 -0.5551
vn -0.2496 -0.9438 -0.2166
vn -0.5896 -0.6811 -0.4341
vn -0.1939 -0.9380 -0.2873
vn -0.0276 -0.9922 -0.1217
vn 0.0435 -0.9930 -0.1100
vn -0.0233 -0.9971 -0.0729
vn 0.1252 -0.9867 -0.1040
vn 0.1363 -0.9900 -0.0366
vn 0.1931 -0.9757 -0.1031
vn 0.1934 -0.6767 -0.7104
vn 0.2498 -0.9091 -0.3334
vn 0.1074 -0.3430 -0.9332
vn 0.0507 -0.1258 -0.9908
vn 0.2619 -0.9651 0.0089
vn 0.2032 -0.9791 0.0040
vn 0.1871 -0.9823 0.0044
vn 0.2632 -0.9648 -0.0000
vn 0.3355 -0.9420 0.0096
vn 0.3158 -0.9488 -0.0061
vn 0.3753 -0.9269 -0.0072
vn 0.3453 -0.9382 -0.0228
vn 0.3400 -0.9219 0.1856
vn 0.2552 -0.9521 0.1684
vn 0.3834 -0.9230 -0.0321
vn 0.4637 -0.8757 0.1347
vn 0.4081 -0.9128 -0.0127
vn 0.4866 -0.8700 0.0794
vn 0.5318 -0.8465 0.0254
vn 0.5573 -0.8303 0.0092
vn 0.5321 -0.8436 0.0715
vn 0.7275 -0.4811 0.4891
vn 0.8125 -0.4301 0.3935
vn 0.8535 -0.4588 0.2472
vn 0.9048 -0.4108 0.1125
vn 0.9374 -0.0643 0.3424
vn 0.8484 -0.0467 0.5273
vn 0.7320 -0.0700 0.6777
vn 0.6141 -0.4763 0.6293
vn 0.5807 -0.0511 0.8125
vn 0.4122 -0.0749 0.9080
vn 0.4649 -0.5296 0.7095
vn 0.3167 -0.5346 0.7835
vn 0.2175 -0.0578 0.9743
vn 0.0253 -0.0838 0.9962
vn -0.0463 -0.5641 0.8244
vn 0.1364 -0.5832 0.8008
vn -0.1800 -0.0597 0.9819
vn -0.3685 -0.0756 0.9265
vn -0.2165 -0.6013 0.7692
vn -0.4088 -0.5702 0.7126
vn -0.5495 -0.0553 0.8337
vn -0.7013 -0.0783 0.7085
vn -0.6657 -0.5873 0.4604
vn -0.5358 -0.6141 0.5795
vn -0.8292 -0.0563 0.5562
vn -0.9525 -0.0689 0.2967
vn -0.7360 -0.6085 0.2967
vn -0.9679 -0.1646 0.1897
vn -0.9991 -0.0423 -0.0008
vn -0.7929 -0.6093 -0.0131
vn -0.7960 -0.5815 -0.1683
vn -0.9791 -0.0608 -0.1942
vn -0.9213 -0.0775 -0.3810
vn -0.7294 -0.6028 -0.3235
vn -0.6656 -0.5774 -0.4729
vn -0.8275 -0.0563 -0.5587
vn -0.6917 -0.0783 -0.7180
vn -0.5278 -0.6077 -0.5934
vn -0.3924 -0.5683 -0.7232
vn -0.5289 -0.0557 -0.8468
vn -0.3435 -0.0767 -0.9360
vn -0.1940 -0.6033 -0.7736
vn -0.0268 -0.5639 -0.8254
vn -0.1577 -0.0599 -0.9857
vn 0.0388 -0.0837 -0.9957
vn 0.1558 -0.5770 -0.8017
vn 0.3244 -0.5240 -0.7875
vn 0.2192 -0.0578 -0.9740
vn 0.4056 -0.0752 -0.9110
vn 0.4798 -0.5132 -0.7116
vn 0.6197 -0.4647 -0.6324
vn 0.5718 -0.0514 -0.8188
vn 0.7274 -0.0699 -0.6827
vn 0.7257 -0.4671 -0.5052
vn 0.8225 -0.4197 -0.3838
vn 0.8467 -0.0465 -0.5300
vn 0.9329 -0.0639 -0.3545
vn 0.8686 -0.4279 -0.2500
vn 0.9054 -0.4043 -0.1297
vn 0.9812 -0.0468 -0.1873
vn 0.9975 -0.0680 -0.0176
vn 0.9004 -0.4350 -0.0013
vn 0.9862 -0.0472 0.1589
vn 0.5622 -0.8267 -0.0217
vn 0.5482 -0.8362 -0.0146
vn 0.5306 -0.8455 -0.0602
vn 0.5529 -0.8327 -0.0313
vn 0.4606 -0.8793 -0.1215
vn 0.4924 -0.8675 -0.0702
vn 0.3382 -0.9233 -0.1818
vn 0.4010 -0.9056 -0.1381
vn 0.2624 -0.9494 -0.1727
vn 0.1745 -0.9632 -0.2046
vn 0.0200 -0.9837 -0.1788
vn 0.0860 -0.9799 -0.1798
vn -0.0901 -0.9904 -0.1044
vn -0.0261 -0.9912 -0.1296
vn -0.1439 -0.9892 -0.0281
vn -0.0941 -0.9939 -0.0575
vn -0.0950 -0.9952 0.0212
vn -0.6645 -0.7346 0.1369
vn -0.1252 -0.9921 -0.0016
vn -0.0862 -0.9903 0.1091
vn -0.1056 -0.9926 0.0596
vn 0.0162 -0.9843 0.1757
vn -0.0267 -0.9928 0.1171
vn 0.1654 -0.9651 0.2029
vn 0.0694 -0.9811 0.1808
vn 0.3935 -0.9073 0.1479
vn 0.3467 -0.9377 0.0246
vn 0.3882 -0.9209 0.0343
vn 0.4113 -0.9115 0.0071
vn 0.3783 -0.9257 0.0051
vn 0.3188 -0.9478 0.0009
vn 0.3427 -0.9394 -0.0021
vn 0.3928 -0.9196 -0.0000
vn 0.2629 -0.9648 -0.0105
vn 0.1896 -0.9818 -0.0149
vn 0.1397 -0.9902 -0.0037
vn 0.2040 -0.9790 -0.0042
vn 0.1226 -0.9925 -0.0018
vn 0.1399 -0.9902 0.0031
vn 0.0851 -0.9964 0.0010
vn 0.0855 -0.9963 -0.0008
vn 0.1146 -0.9934 -0.0108
vn 0.1142 -0.9934 0.0108
vn -0.1595 -0.0000 -0.9872
vn -0.1849 -0.0000 -0.9828
vn -0.3673 -0.0000 -0.9301
vn -0.5411 -0.0000 -0.8410
vn -0.5294 -0.0000 -0.8484
vn -0.3487 -0.0000 -0.9372
vn -0.7007 -0.0000 -0.7135
vn -0.6943 -0.0000 -0.7197
vn -0.8285 -0.0000 -0.5600
vn -0.9242 -0.0000 -0.3818
vn -0.9235 -0.0000 -0.3836
vn -0.8309 -0.0000 -0.5563
vn -0.9807 -0.0000 -0.1954
vn -0.9808 -0.0000 -0.1948
vn -1.0000 -0.0000 -0.0000
vn -0.9807 -0.0000 0.1954
vn -0.9323 0.0702 0.3547
vn 0.0323 -0.0000 -0.9995
vn 0.0007 -0.0000 -1.0000
vn 0.2201 -0.0000 -0.9755
vn 0.3657 -0.0000 -0.9307
vn 0.4038 -0.0000 -0.9148
vn 0.5761 -0.0000 -0.8174
vn 0.1851 -0.0000 -0.9827
vn 0.5406 -0.0000 -0.8413
vn 0.6991 -0.0000 -0.7150
vn 0.8315 -0.0000 -0.5555
vn 0.7140 -0.0000 -0.7002
vn 0.8410 -0.0000 -0.5411
vn 0.9301 -0.0000 -0.3674
vn 0.9824 -0.0000 -0.1868
vn 0.9258 -0.0000 -0.3781
vn 0.9802 -0.0000 -0.1979
vn 0.9998 -0.0000 -0.0176
vn 0.9874 -0.0000 0.1580
vn 0.9854 -0.0000 0.1700
vn 0.9393 -0.0000 0.3430
vn 0.9303 -0.0000 0.3669
vn 0.8521 -0.0000 0.5233
vn 0.7054 -0.0000 0.7088
vn 0.8338 -0.0000 0.5520
vn 0.7329 -0.0000 0.6804
vn 0.5850 -0.0000 0.8110
vn 0.5505 -0.0000 0.8349
vn 0.4115 -0.0000 0.9114
vn 0.3724 -0.0000 0.9281
vn 0.2196 -0.0000 0.9756
vn 0.0198 -0.0000 0.9998
vn -0.0138 -0.0000 0.9999
vn 0.1824 -0.0000 0.9832
vn -0.8303 -0.0000 0.5574
vn -0.8326 -0.0000 0.5539
vn -0.7100 -0.0000 0.7042
vn -0.5610 -0.0000 0.8278
vn -0.5500 -0.0000 0.8352
vn -0.7042 -0.0000 0.7101
vn -0.3919 -0.0000 0.9200
vn -0.3736 -0.0000 0.9276
vn -0.2074 -0.0000 0.9782
vn -0.1816 -0.0000 0.9834
vn -0.9105 0.0692 0.4077
vn -0.9098 -0.0707 0.4090
vt 0.370446 0.918240
vt 0.364802 0.918240
vt 0.366877 0.925495
vt 0.372521 0.925495
vt 0.375266 0.932750
vt 0.369622 0.932750
vt 0.372300 0.940005
vt 0.377944 0.940005
vt 0.379816 0.947261
vt 0.374173 0.947261
vt 0.375490 0.954516
vt 0.381133 0.954516
vt 0.382145 0.961771
vt 0.376501 0.961771
vt 0.377271 0.969026
vt 0.382914 0.969026
vt 0.383506 0.976281
vt 0.377862 0.976281
vt 0.378262 0.983536
vt 0.383905 0.983536
vt 0.384097 0.990792
vt 0.378454 0.990792
vt 0.379225 0.996233
vt 0.383458 0.996233
vt 0.383569 0.860199
vt 0.383326 0.854757
vt 0.379093 0.854757
vt 0.377925 0.860199
vt 0.376921 0.867454
vt 0.380788 0.874709
vt 0.382565 0.867454
vt 0.375144 0.874709
vt 0.372557 0.881964
vt 0.378201 0.881964
vt 0.374767 0.889219
vt 0.369123 0.889219
vt 0.365955 0.896474
vt 0.369808 0.903730
vt 0.371599 0.896474
vt 0.364165 0.903730
vt 0.363773 0.910985
vt 0.369417 0.910985
vt 0.751728 0.326534
vt 0.749682 0.333701
vt 0.763347 0.336387
vt 0.766168 0.320334
vt 0.752089 0.319037
vt 0.764647 0.328373
vt 0.760538 0.312133
vt 0.753948 0.312218
vt 0.746284 0.318673
vt 0.744619 0.325617
vt 0.748878 0.312387
vt 0.757049 0.306373
vt 0.765475 0.300041
vt 0.758622 0.302132
vt 0.752174 0.307384
vt 0.754941 0.304109
vt 0.769405 0.305226
vt 0.773334 0.313280
vt 0.781044 0.307227
vt 0.780486 0.300972
vt 0.787975 0.317014
vt 0.794830 0.313531
vt 0.790497 0.305317
vt 0.785081 0.299141
vt 0.794713 0.308995
vt 0.795171 0.306544
vt 0.790891 0.302438
vt 0.791353 0.300791
vt 0.797292 0.312046
vt 0.798337 0.311316
vt 0.799638 0.310369
vt 0.796048 0.305171
vt 0.785406 0.297393
vt 0.785836 0.295675
vt 0.796976 0.303742
vt 0.791956 0.299161
vt 0.792633 0.297580
vt 0.800886 0.309252
vt 0.802059 0.308065
vt 0.798230 0.301820
vt 0.786498 0.293452
vt 0.794002 0.294621
vt 0.787321 0.290886
vt 0.779970 0.288608
vt 0.779351 0.291820
vt 0.771935 0.292936
vt 0.779025 0.293520
vt 0.772138 0.290628
vt 0.764696 0.288938
vt 0.764889 0.292187
vt 0.772322 0.287945
vt 0.764943 0.293901
vt 0.758425 0.296395
vt 0.757952 0.294166
vt 0.750744 0.295787
vt 0.751893 0.298681
vt 0.757415 0.291621
vt 0.744940 0.301200
vt 0.746302 0.303382
vt 0.740183 0.307637
vt 0.736650 0.314854
vt 0.738784 0.316392
vt 0.734453 0.322552
vt 0.733726 0.330441
vt 0.736300 0.330935
vt 0.734458 0.338250
vt 0.737577 0.338125
vt 0.737329 0.323807
vt 0.736662 0.345716
vt 0.739181 0.344995
vt 0.740242 0.352579
vt 0.745111 0.358580
vt 0.747046 0.356788
vt 0.751086 0.363497
vt 0.757988 0.367108
vt 0.758943 0.364616
vt 0.761956 0.370045
vt 0.765801 0.366409
vt 0.772664 0.368247
vt 0.772752 0.370401
vt 0.759361 0.373467
vt 0.765794 0.371322
vt 0.759129 0.372940
vt 0.779750 0.370908
vt 0.783484 0.369434
vt 0.772834 0.370806
vt 0.779774 0.371236
vt 0.786191 0.373019
vt 0.786270 0.372648
vt 0.792159 0.375708
vt 0.791970 0.376006
vt 0.797067 0.380125
vt 0.797331 0.379920
vt 0.801543 0.385180
vt 0.801121 0.385296
vt 0.804334 0.391323
vt 0.806309 0.397951
vt 0.806651 0.397865
vt 0.804715 0.391217
vt 0.803289 0.412510
vt 0.806491 0.411838
vt 0.807003 0.404914
vt 0.795109 0.407241
vt 0.791398 0.415634
vt 0.791018 0.400701
vt 0.791585 0.392915
vt 0.779570 0.394892
vt 0.776633 0.411543
vt 0.777242 0.419546
vt 0.773074 0.404623
vt 0.762485 0.414727
vt 0.770616 0.396854
vt 0.769432 0.388564
vt 0.755375 0.392852
vt 0.752531 0.401948
vt 0.756661 0.408665
vt 0.752307 0.417279
vt 0.743432 0.419713
vt 0.750276 0.424872
vt 0.762730 0.422349
vt 0.741023 0.413140
vt 0.739983 0.406256
vt 0.746983 0.425702
vt 0.751539 0.430814
vt 0.758854 0.430410
vt 0.756879 0.434894
vt 0.768942 0.439690
vt 0.770610 0.429908
vt 0.762708 0.437897
vt 0.762623 0.438219
vt 0.768948 0.439960
vt 0.756681 0.435180
vt 0.775384 0.440026
vt 0.775449 0.440379
vt 0.781893 0.439422
vt 0.781816 0.439097
vt 0.789014 0.425284
vt 0.787955 0.436897
vt 0.793517 0.433693
vt 0.798164 0.429382
vt 0.798265 0.421101
vt 0.801904 0.424278
vt 0.804748 0.418369
vt 0.805105 0.418423
vt 0.806839 0.411803
vt 0.802203 0.424440
vt 0.802774 0.424617
vt 0.805673 0.418466
vt 0.807441 0.411732
vt 0.807403 0.404827
vt 0.807212 0.397624
vt 0.807955 0.404672
vt 0.805208 0.390926
vt 0.802017 0.384803
vt 0.797708 0.379484
vt 0.792462 0.375180
vt 0.786459 0.372103
vt 0.798382 0.429629
vt 0.798868 0.429930
vt 0.794026 0.434330
vt 0.793625 0.433893
vt 0.788055 0.437239
vt 0.788324 0.437745
vt 0.782037 0.440008
vt 0.775443 0.440950
vt 0.768790 0.440531
vt 0.762328 0.438708
vt 0.756252 0.435598
vt 0.751247 0.431020
vt 0.750759 0.431315
vt 0.746087 0.426031
vt 0.746656 0.425826
vt 0.743036 0.419811
vt 0.740678 0.413213
vt 0.739596 0.406328
vt 0.740377 0.399357
vt 0.739942 0.399439
vt 0.739353 0.399301
vt 0.739026 0.406277
vt 0.740070 0.413240
vt 0.742473 0.419916
vt 0.741589 0.392818
vt 0.744041 0.386374
vt 0.741061 0.392586
vt 0.744539 0.386722
vt 0.741915 0.392889
vt 0.744840 0.386912
vt 0.748806 0.381631
vt 0.748578 0.381324
vt 0.753723 0.377194
vt 0.753606 0.376882
vt 0.759470 0.373848
vt 0.765887 0.371668
vt 0.789494 0.379556
vt 0.776406 0.379245
vt 0.785169 0.385996
vt 0.760706 0.382789
vt 0.748564 0.388998
vt 0.753280 0.376369
vt 0.748182 0.380908
vt 0.779444 0.366094
vt 0.786189 0.364005
vt 0.787321 0.366355
vt 0.794051 0.362432
vt 0.799757 0.357229
vt 0.797647 0.355699
vt 0.804328 0.350990
vt 0.807642 0.343953
vt 0.805049 0.343536
vt 0.809654 0.336343
vt 0.810291 0.328380
vt 0.807749 0.329071
vt 0.809575 0.320411
vt 0.807505 0.312786
vt 0.805460 0.314334
vt 0.804164 0.305779
vt 0.799642 0.299651
vt 0.806755 0.321799
vt 0.805731 0.329474
vt 0.805306 0.322342
vt 0.803677 0.315527
vt 0.802268 0.316220
vt 0.803828 0.322641
vt 0.802678 0.329328
vt 0.804206 0.329551
vt 0.802325 0.322572
vt 0.800800 0.316613
vt 0.799837 0.321771
vt 0.798611 0.315997
vt 0.795404 0.319877
vt 0.794640 0.326863
vt 0.800005 0.328556
vt 0.792368 0.334014
vt 0.799125 0.335651
vt 0.778311 0.339138
vt 0.791759 0.341438
vt 0.779959 0.331194
vt 0.781414 0.323147
vt 0.772323 0.329681
vt 0.773834 0.321509
vt 0.770824 0.337809
vt 0.771200 0.345932
vt 0.757031 0.342743
vt 0.763850 0.351932
vt 0.774975 0.353815
vt 0.779891 0.358766
vt 0.786786 0.353295
vt 0.783508 0.347481
vt 0.769783 0.358919
vt 0.756430 0.354877
vt 0.760249 0.359732
vt 0.766583 0.361581
vt 0.773055 0.362106
vt 0.779210 0.361370
vt 0.779086 0.362837
vt 0.772794 0.363614
vt 0.766335 0.363097
vt 0.759990 0.361237
vt 0.759602 0.362699
vt 0.772670 0.365127
vt 0.766091 0.364596
vt 0.779164 0.364316
vt 0.772639 0.366664
vt 0.752838 0.360891
vt 0.753592 0.359576
vt 0.748452 0.355366
vt 0.742957 0.351038
vt 0.744268 0.350268
vt 0.741126 0.344478
vt 0.740625 0.338207
vt 0.739111 0.338126
vt 0.745535 0.349494
vt 0.742570 0.344148
vt 0.743986 0.343891
vt 0.746185 0.344414
vt 0.744664 0.339046
vt 0.747733 0.348042
vt 0.742115 0.338398
vt 0.746748 0.348711
vt 0.750195 0.353079
vt 0.749395 0.354249
vt 0.754197 0.358225
vt 0.754603 0.356812
vt 0.750505 0.350817
vt 0.750277 0.346573
vt 0.749355 0.340497
vt 0.744110 0.332594
vt 0.741343 0.332013
vt 0.741754 0.325201
vt 0.739825 0.331671
vt 0.740236 0.324859
vt 0.743430 0.318426
vt 0.746186 0.312237
vt 0.741924 0.318088
vt 0.744758 0.311762
vt 0.749834 0.307179
vt 0.754198 0.303051
vt 0.753326 0.301698
vt 0.748606 0.306282
vt 0.747540 0.305130
vt 0.742324 0.309933
vt 0.743485 0.310955
vt 0.752563 0.300208
vt 0.740527 0.317477
vt 0.738769 0.324378
vt 0.738311 0.331344
vt 0.759097 0.299651
vt 0.758774 0.298058
vt 0.764914 0.295632
vt 0.771385 0.296431
vt 0.771710 0.294688
vt 0.764753 0.297328
vt 0.778695 0.295264
vt 0.778370 0.297016
vt 0.785401 0.362188
vt 0.792059 0.360055
vt 0.791104 0.358883
vt 0.795998 0.354546
vt 0.801439 0.349814
vt 0.803020 0.343229
vt 0.799998 0.349290
vt 0.798550 0.348842
vt 0.799942 0.342790
vt 0.797087 0.348497
vt 0.801485 0.343008
vt 0.793521 0.353005
vt 0.794759 0.353739
vt 0.790192 0.357722
vt 0.784598 0.359441
vt 0.784926 0.360814
vt 0.789331 0.356569
vt 0.788631 0.355587
vt 0.791298 0.352720
vt 0.785097 0.357209
vt 0.794512 0.348205
vt 0.789732 0.347915
vt 0.797208 0.342358
vt 0.803420 0.336492
vt 0.801876 0.336271
vt 0.804964 0.336558
vt 0.806516 0.336524
vt 0.651053 0.601435
vt 0.643366 0.603330
vt 0.652469 0.619326
vt 0.660150 0.616186
vt 0.659512 0.601140
vt 0.653821 0.592359
vt 0.665017 0.595873
vt 0.657441 0.585534
vt 0.648866 0.584604
vt 0.642697 0.587670
vt 0.667648 0.587393
vt 0.662346 0.582102
vt 0.676053 0.596031
vt 0.669119 0.582735
vt 0.681649 0.587738
vt 0.686649 0.592249
vt 0.675612 0.584626
vt 0.669213 0.582395
vt 0.675840 0.584316
vt 0.681832 0.587574
vt 0.686982 0.592039
vt 0.682245 0.587173
vt 0.676155 0.583883
vt 0.669454 0.581880
vt 0.662329 0.581711
vt 0.662457 0.581196
vt 0.655427 0.581815
vt 0.655405 0.582377
vt 0.648706 0.584245
vt 0.648627 0.583722
vt 0.642334 0.586810
vt 0.637103 0.591436
vt 0.642526 0.587346
vt 0.636826 0.590975
vt 0.632258 0.596045
vt 0.632650 0.596462
vt 0.629244 0.602141
vt 0.628787 0.601853
vt 0.626511 0.608193
vt 0.626076 0.614892
vt 0.627058 0.608365
vt 0.625531 0.614862
vt 0.625129 0.620043
vt 0.626424 0.621486
vt 0.627782 0.628000
vt 0.631505 0.637362
vt 0.630874 0.633869
vt 0.634836 0.639198
vt 0.634423 0.639560
vt 0.639449 0.644064
vt 0.639801 0.643607
vt 0.645478 0.646979
vt 0.645256 0.647477
vt 0.651595 0.649651
vt 0.651689 0.649086
vt 0.658163 0.649904
vt 0.658216 0.650440
vt 0.664892 0.649895
vt 0.664695 0.649360
vt 0.671108 0.647615
vt 0.671396 0.648070
vt 0.677548 0.645035
vt 0.677157 0.644619
vt 0.682739 0.640552
vt 0.683169 0.640863
vt 0.688014 0.635765
vt 0.687505 0.635523
vt 0.691323 0.629825
vt 0.691838 0.629951
vt 0.694497 0.623629
vt 0.693928 0.623601
vt 0.695317 0.617086
vt 0.695847 0.617011
vt 0.695816 0.610266
vt 0.695267 0.610440
vt 0.693839 0.603789
vt 0.694330 0.603566
vt 0.691495 0.597265
vt 0.690997 0.597558
vt 0.687412 0.591717
vt 0.693498 0.603983
vt 0.690657 0.597761
vt 0.694931 0.617142
vt 0.695117 0.610471
vt 0.690981 0.629621
vt 0.693573 0.623522
vt 0.682495 0.640243
vt 0.687267 0.635277
vt 0.676947 0.644318
vt 0.670891 0.647290
vt 0.658093 0.649534
vt 0.664478 0.648994
vt 0.645688 0.646666
vt 0.651761 0.648744
vt 0.635155 0.638990
vt 0.640047 0.643406
vt 0.628338 0.627718
vt 0.628067 0.627878
vt 0.631189 0.633679
vt 0.626452 0.614847
vt 0.626719 0.621356
vt 0.629540 0.602372
vt 0.627397 0.608457
vt 0.637291 0.591778
vt 0.632877 0.596823
vt 0.655511 0.582702
vt 0.685710 0.632370
vt 0.688847 0.622758
vt 0.685747 0.612833
vt 0.680272 0.621230
vt 0.676492 0.629702
vt 0.667268 0.613275
vt 0.673473 0.608112
vt 0.668916 0.630981
vt 0.657141 0.626944
vt 0.654334 0.636958
vt 0.663689 0.636901
vt 0.646206 0.625200
vt 0.638943 0.611526
vt 0.635535 0.622316
vt 0.643637 0.635600
vt 0.631465 0.609613
vt 0.652608 0.644542
vt 0.629733 0.684412
vt 0.642472 0.679902
vt 0.641416 0.673194
vt 0.640006 0.666608
vt 0.627267 0.671118
vt 0.628677 0.677704
vt 0.638296 0.660108
vt 0.625556 0.664618
vt 0.623600 0.658167
vt 0.634221 0.647250
vt 0.621480 0.651756
vt 0.636340 0.653659
vt 0.619279 0.645371
vt 0.632024 0.640871
vt 0.617028 0.638999
vt 0.614761 0.632624
vt 0.614490 0.627328
vt 0.630455 0.691254
vt 0.643195 0.686743
vt 0.630866 0.698241
vt 0.643785 0.700749
vt 0.631046 0.705259
vt 0.631078 0.712191
vt 0.643605 0.693731
vt 0.643817 0.707681
vt 0.643878 0.714490
vt 0.644144 0.721139
vt 0.631139 0.719000
vt 0.631405 0.725649
vt 0.632079 0.732225
vt 0.633364 0.738811
vt 0.644818 0.727714
vt 0.646103 0.734301
vt 0.648020 0.740767
vt 0.637853 0.751490
vt 0.650592 0.746979
vt 0.635281 0.745277
vt 0.641013 0.757454
vt 0.653752 0.752944
vt 0.644692 0.763175
vt 0.661490 0.764231
vt 0.657432 0.758665
vt 0.648751 0.768741
vt 0.653048 0.774238
vt 0.665787 0.769728
vt 0.657421 0.779749
vt 0.670161 0.775239
vt 0.661710 0.785354
vt 0.665796 0.791066
vt 0.678535 0.786555
vt 0.674450 0.780844
vt 0.681377 0.821357
vt 0.694116 0.816847
vt 0.691573 0.810586
vt 0.688795 0.804407
vt 0.676056 0.808918
vt 0.678834 0.815096
vt 0.685724 0.798333
vt 0.672985 0.802843
vt 0.682299 0.792383
vt 0.669559 0.796894
vt 0.684635 0.825574
vt 0.695781 0.821628
s 1
usemtl 1011
f 2/1/1 4/2/2 1/3/3
f 1/3/3 3/4/4 2/1/1
f 5/5/5 3/4/4 1/3/3
f 1/3/3 6/6/6 5/5/5
f 5/5/5 6/6/6 7/7/7
f 7/7/7 8/8/8 5/5/5
f 9/9/9 8/8/8 7/7/7
f 7/7/7 10/10/10 9/9/9
f 9/9/9 10/10/10 11/11/11
f 11/11/11 12/12/12 9/9/9
f 13/13/13 12/12/12 11/11/11
f 11/11/11 14/14/14 13/13/13
f 13/13/13 14/14/14 15/15/15
f 15/15/15 16/16/16 13/13/13
f 17/17/17 16/16/16 15/15/15
f 15/15/15 18/18/18 17/17/17
f 17/17/17 18/18/18 19/19/19
f 19/19/19 20/20/20 17/17/17
f 21/21/21 20/20/20 19/19/19
f 19/19/19 22/22/22 21/21/21
f 21/21/21 22/22/22 23/23/23
f 23/23/23 24/24/24 21/21/21
f 32/25/25 33/26/26 34/27/27
f 34/27/27 35/28/28 32/25/25
f 32/25/25 35/28/28 36/29/29
f 30/30/30 31/31/31 36/29/29
f 36/29/29 37/32/32 30/30/30
f 36/29/29 31/31/31 32/25/25
f 30/30/30 37/32/32 38/33/33
f 38/33/33 29/34/34 30/30/30
f 28/35/35 29/34/34 38/33/33
f 38/33/33 39/36/36 28/35/35
f 28/35/35 39/36/36 40/37/37
f 26/38/38 27/39/39 40/37/37
f 40/37/37 41/40/40 26/38/38
f 40/37/37 27/39/39 28/35/35
f 26/38/38 41/40/40 42/41/41
f 2/1/1 25/42/42 42/41/41
f 42/41/41 4/2/2 2/1/1
f 42/41/41 25/42/42 26/38/38
usemtl 1001
f 43/43/43 44/44/44 48/45/45
f 45/46/46 47/47/47 43/43/43
f 43/43/43 46/48/48 45/46/46
f 48/45/45 46/48/48 43/43/43
f 49/49/49 53/50/50 47/47/47
f 47/47/47 51/51/51 50/52/52
f 50/52/52 43/43/43 47/47/47
f 52/53/53 51/51/51 47/47/47
f 47/47/47 53/50/50 52/53/53
f 52/53/53 53/50/50 58/54/54
f 58/54/54 53/50/50 49/49/49
f 54/55/55 57/56/56 58/54/54
f 58/54/54 55/57/57 52/53/53
f 56/58/58 55/57/57 58/54/54
f 58/54/54 57/56/56 56/58/58
f 59/59/59 58/54/54 49/49/49
f 54/55/55 58/54/54 59/59/59
f 49/49/49 60/60/60 59/59/59
f 60/60/60 62/61/61 59/59/59
f 61/62/62 54/55/55 59/59/59
f 59/59/59 62/61/61 61/62/62
f 63/63/63 64/64/64 62/61/61
f 62/61/61 64/64/64 65/65/65
f 60/60/60 63/63/63 62/61/61
f 65/65/65 61/62/62 62/61/61
f 67/66/66 61/62/62 65/65/65
f 64/64/64 66/67/67 65/65/65
f 65/65/65 66/67/67 69/68/68
f 65/65/65 68/69/69 67/66/66
f 69/68/68 68/69/69 65/65/65
f 74/70/70 68/69/69 69/68/68
f 73/71/71 70/72/72 69/68/68
f 69/68/68 70/72/72 71/73/73
f 71/73/73 72/74/74 69/68/68
f 69/68/68 72/74/74 74/70/70
f 69/68/68 66/67/67 73/71/71
f 67/66/66 68/69/69 74/70/70
f 74/70/70 75/75/75 67/66/66
f 76/76/76 75/75/75 74/70/70
f 74/70/70 72/74/74 78/77/77
f 74/70/70 77/78/78 76/76/76
f 78/77/77 77/78/78 74/70/70
f 82/79/79 77/78/78 78/77/77
f 71/73/73 79/80/80 78/77/77
f 78/77/77 79/80/80 80/81/81
f 80/81/81 81/82/82 78/77/77
f 78/77/77 72/74/74 71/73/73
f 78/77/77 81/82/82 82/79/79
f 76/76/76 77/78/78 82/79/79
f 82/79/79 83/83/83 76/76/76
f 81/82/82 84/84/84 82/79/79
f 82/79/79 84/84/84 83/83/83
f 84/84/84 86/85/85 83/83/83
f 83/83/83 85/86/86 87/87/87
f 83/83/83 86/85/85 85/86/86
f 88/88/88 90/89/89 87/87/87
f 87/87/87 89/90/90 88/88/88
f 87/87/87 90/89/89 76/76/76
f 76/76/76 83/83/83 87/87/87
f 87/87/87 85/86/86 89/90/90
f 89/90/90 91/91/91 93/92/92
f 89/90/90 92/93/93 91/91/91
f 85/86/86 92/93/93 89/90/90
f 88/88/88 89/90/90 93/92/92
f 93/92/92 94/94/94 88/88/88
f 95/95/95 94/94/94 93/92/92
f 93/92/92 96/96/96 95/95/95
f 93/92/92 91/91/91 96/96/96
f 96/96/96 98/97/97 97/98/98
f 91/91/91 99/99/99 96/96/96
f 96/96/96 99/99/99 98/97/97
f 98/97/97 100/100/100 340/101/101
f 340/101/101 100/100/100 101/102/102
f 101/102/102 102/103/103 343/104/104
f 343/104/104 102/103/103 103/105/105
f 103/105/105 104/106/106 106/107/107
f 106/107/107 108/108/108 105/109/109
f 107/110/110 103/105/105 106/107/107
f 106/107/107 104/106/106 108/108/108
f 108/108/108 109/111/111 304/112/112
f 304/112/112 109/111/111 110/113/113
f 110/113/113 111/114/114 301/115/115
f 301/115/115 111/114/114 112/116/116
f 112/116/116 113/117/117 297/118/118
f 297/118/118 113/117/117 114/119/119
f 114/119/119 296/120/120 297/118/118
f 115/121/121 296/120/120 114/119/119
f 114/119/119 118/122/122 115/121/121
f 219/123/123 117/124/124 114/119/119
f 114/119/119 116/125/125 219/123/123
f 114/119/119 117/124/124 118/122/122
f 118/122/122 120/126/126 119/127/127
f 120/126/126 118/122/122 220/128/128
f 220/128/128 222/129/129 120/126/126
f 120/126/126 222/129/129 122/130/130
f 122/130/130 121/131/131 120/126/126
f 179/132/132 121/131/131 122/130/130
f 122/130/130 223/133/133 179/132/132
f 179/132/132 223/133/133 123/134/134
f 123/134/134 124/135/135 179/132/132
f 176/136/136 124/135/135 123/134/134
f 123/134/134 225/137/137 176/136/136
f 125/138/138 129/139/139 126/140/140
f 126/140/140 127/141/141 125/138/138
f 176/136/136 225/137/137 125/138/138
f 125/138/138 127/141/141 176/136/136
f 130/142/142 163/143/143 128/144/144
f 130/142/142 128/144/144 131/145/145
f 131/145/145 128/144/144 129/139/139
f 132/146/146 130/142/142 131/145/145
f 129/139/139 133/147/147 131/145/145
f 133/147/147 135/148/148 134/149/149
f 137/150/150 131/145/145 133/147/147
f 136/151/151 132/146/146 137/150/150
f 132/146/146 131/145/145 137/150/150
f 137/150/150 133/147/147 139/152/152
f 138/153/153 137/150/150 139/152/152
f 134/149/149 140/154/154 139/152/152
f 139/152/152 133/147/147 134/149/149
f 140/154/154 142/155/155 141/156/156
f 141/156/156 144/157/157 140/154/154
f 140/154/154 144/157/157 143/158/158
f 143/158/158 139/152/152 140/154/154
f 138/153/153 139/152/152 143/158/158
f 145/159/159 138/153/153 143/158/158
f 145/159/159 203/160/160 146/161/161
f 145/159/159 146/161/161 236/162/162
f 147/163/163 203/160/160 145/159/159
f 236/162/162 138/153/153 145/159/159
f 145/159/159 143/158/158 147/163/163
f 144/157/157 148/164/164 147/163/163
f 147/163/163 143/158/158 144/157/157
f 203/160/160 202/165/165 146/161/161
f 146/161/161 202/165/165 201/166/166
f 146/161/161 201/166/166 150/167/167
f 150/167/167 201/166/166 149/168/168
f 236/162/162 146/161/161 150/167/167
f 150/167/167 149/168/168 151/169/169
f 151/169/169 157/170/170 150/167/167
f 150/167/167 157/170/170 236/162/162
f 151/169/169 149/168/168 152/171/171
f 152/171/171 153/172/172 192/173/173
f 192/173/173 151/169/169 152/171/171
f 152/171/171 149/168/168 195/174/174
f 195/174/174 153/172/172 152/171/171
f 154/175/175 151/169/169 192/173/173
f 154/175/175 155/176/176 189/177/177
f 189/177/177 156/178/178 154/175/175
f 192/173/173 155/176/176 154/175/175
f 157/170/170 154/175/175 156/178/178
f 156/178/178 158/179/179 157/170/170
f 156/178/178 186/180/180 158/179/179
f 159/181/181 185/182/182 161/183/183
f 161/183/183 185/182/182 160/184/184
f 161/183/183 130/142/142 132/146/146
f 132/146/146 158/179/179 161/183/183
f 160/184/184 162/185/185 161/183/183
f 161/183/183 162/185/185 130/142/142
f 161/183/183 158/179/179 159/181/181
f 162/185/185 163/143/143 130/142/142
f 162/185/185 164/186/186 169/187/187
f 169/187/187 163/143/143 162/185/185
f 162/185/185 160/184/184 167/188/188
f 167/188/188 164/186/186 162/185/185
f 166/189/189 165/190/190 164/186/186
f 164/186/186 165/190/190 168/191/191
f 164/186/186 167/188/188 166/189/189
f 168/191/191 169/187/187 164/186/186
f 170/192/192 169/187/187 168/191/191
f 171/193/193 126/140/140 170/192/192
f 170/192/192 172/194/194 171/193/193
f 168/191/191 172/194/194 170/192/192
f 127/141/141 126/140/140 171/193/193
f 171/193/193 173/195/195 127/141/141
f 127/141/141 173/195/195 174/196/196
f 124/135/135 176/136/136 174/196/196
f 174/196/196 175/197/197 124/135/135
f 174/196/196 176/136/136 127/141/141
f 124/135/135 175/197/197 177/198/198
f 121/131/131 179/132/132 177/198/198
f 177/198/198 178/199/199 121/131/131
f 177/198/198 179/132/132 124/135/135
f 121/131/131 178/199/199 119/127/127
f 128/144/144 170/192/192 126/140/140
f 169/187/187 170/192/192 128/144/144
f 166/189/189 167/188/188 180/200/200
f 180/200/200 181/201/201 166/189/189
f 182/202/202 181/201/201 180/200/200
f 180/200/200 183/203/203 182/202/202
f 183/203/203 180/200/200 185/182/182
f 186/180/180 184/204/204 183/203/203
f 185/182/182 159/181/181 183/203/203
f 183/203/203 159/181/181 186/180/180
f 186/180/180 156/178/178 189/177/177
f 189/177/177 184/204/204 186/180/180
f 185/182/182 180/200/200 167/188/188
f 167/188/188 160/184/184 185/182/182
f 184/204/204 187/205/205 182/202/202
f 182/202/202 183/203/203 184/204/204
f 188/206/206 187/205/205 184/204/204
f 184/204/204 189/177/177 188/206/206
f 188/206/206 189/177/177 155/176/176
f 155/176/176 190/207/207 188/206/206
f 191/208/208 190/207/207 155/176/176
f 155/176/176 192/173/173 191/208/208
f 191/208/208 192/173/173 153/172/172
f 153/172/172 193/209/209 191/208/208
f 194/210/210 193/209/209 153/172/172
f 153/172/172 195/174/174 194/210/210
f 194/210/210 195/174/174 196/211/211
f 196/211/211 197/212/212 194/210/210
f 198/213/213 197/212/212 196/211/211
f 196/211/211 199/214/214 198/213/213
f 199/214/214 196/211/211 201/166/166
f 203/160/160 200/215/215 199/214/214
f 201/166/166 202/165/165 199/214/214
f 199/214/214 202/165/165 203/160/160
f 203/160/160 147/163/163 209/216/216
f 209/216/216 200/215/215 203/160/160
f 209/216/216 147/163/163 148/164/164
f 148/164/164 204/217/217 209/216/216
f 148/164/164 231/218/218 207/219/219
f 207/219/219 204/217/217 148/164/164
f 206/220/220 205/221/221 204/217/217
f 204/217/217 205/221/221 208/222/222
f 204/217/217 207/219/219 206/220/220
f 208/222/222 209/216/216 204/217/217
f 200/215/215 209/216/216 208/222/222
f 208/222/222 210/223/223 200/215/215
f 200/215/215 210/223/223 198/213/213
f 206/220/220 207/219/219 211/224/224
f 213/225/225 212/226/226 211/224/224
f 211/224/224 212/226/226 206/220/220
f 211/224/224 214/227/227 213/225/225
f 232/228/228 217/229/229 214/227/227
f 214/227/227 211/224/224 232/228/228
f 214/227/227 217/229/229 216/230/230
f 216/230/230 215/231/231 214/227/227
f 216/230/230 229/232/232 233/233/233
f 233/233/233 215/231/231 216/230/230
f 218/234/234 221/235/235 117/124/124
f 117/124/124 219/123/123 218/234/234
f 218/234/234 219/123/123 233/233/233
f 233/233/233 229/232/232 218/234/234
f 223/133/133 122/130/130 224/236/236
f 224/236/236 122/130/130 222/129/129
f 224/236/236 123/134/134 223/133/133
f 225/137/137 123/134/134 224/236/236
f 224/236/236 226/237/237 227/238/238
f 227/238/238 225/137/137 224/236/236
f 222/129/129 226/237/237 224/236/236
f 135/148/148 225/137/137 227/238/238
f 135/148/148 125/138/138 225/137/137
f 129/139/139 125/138/138 135/148/148
f 226/237/237 220/128/128 221/235/235
f 221/235/235 228/239/239 226/237/237
f 222/129/129 220/128/128 226/237/237
f 142/155/155 227/238/238 226/237/237
f 226/237/237 228/239/239 142/155/155
f 221/235/235 218/234/234 228/239/239
f 228/239/239 218/234/234 229/232/232
f 141/156/156 142/155/155 228/239/239
f 230/240/240 228/239/239 229/232/232
f 229/232/232 216/230/230 230/240/240
f 230/240/240 216/230/230 217/229/229
f 217/229/229 232/228/228 230/240/240
f 230/240/240 232/228/228 231/218/218
f 231/218/218 148/164/164 144/157/157
f 141/156/156 231/218/218 144/157/157
f 230/240/240 231/218/218 141/156/156
f 141/156/156 228/239/239 230/240/240
f 134/149/149 227/238/238 142/155/155
f 134/149/149 135/148/148 227/238/238
f 117/124/124 221/235/235 220/128/128
f 234/241/241 233/233/233 219/123/123
f 215/231/231 233/233/233 234/241/241
f 234/241/241 235/242/242 215/231/231
f 219/123/123 116/125/125 234/241/241
f 215/231/231 235/242/242 213/225/225
f 213/225/225 214/227/227 215/231/231
f 232/228/228 211/224/224 207/219/219
f 207/219/219 231/218/218 232/228/228
f 201/166/166 196/211/211 195/174/174
f 195/174/174 149/168/168 201/166/166
f 198/213/213 199/214/214 200/215/215
f 128/144/144 163/143/143 169/187/187
f 158/179/179 186/180/180 159/181/181
f 158/179/179 132/146/146 136/151/151
f 157/170/170 158/179/179 136/151/151
f 136/151/151 236/162/162 157/170/170
f 151/169/169 154/175/175 157/170/170
f 138/153/153 236/162/162 136/151/151
f 142/155/155 140/154/154 134/149/149
f 136/151/151 137/150/150 138/153/153
f 135/148/148 133/147/147 129/139/139
f 126/140/140 129/139/139 128/144/144
f 119/127/127 120/126/126 121/131/131
f 220/128/128 118/122/122 117/124/124
f 115/121/121 118/122/122 119/127/127
f 119/127/127 294/243/243 115/121/121
f 355/244/244 294/243/243 119/127/127
f 119/127/127 237/245/245 355/244/244
f 355/244/244 237/245/245 238/246/246
f 238/246/246 239/247/247 359/248/248
f 359/248/248 239/247/247 240/249/249
f 240/249/249 241/250/250 362/251/251
f 362/251/251 241/250/250 242/252/252
f 242/252/252 243/253/253 252/254/254
f 252/254/254 243/253/253 244/255/255
f 244/255/255 245/256/256 248/257/257
f 248/257/257 245/256/256 246/258/258
f 246/258/258 247/259/259 81/82/82
f 81/82/82 247/259/259 84/84/84
f 80/81/81 246/258/258 81/82/82
f 248/257/257 246/258/258 80/81/81
f 249/260/260 244/255/255 248/257/257
f 250/261/261 252/254/254 249/260/260
f 249/260/260 251/262/262 250/261/261
f 253/263/263 251/262/262 249/260/260
f 249/260/260 248/257/257 253/263/263
f 252/254/254 244/255/255 249/260/260
f 253/263/263 79/80/80 71/73/73
f 71/73/73 254/264/264 253/263/263
f 253/263/263 254/264/264 255/265/265
f 255/265/265 251/262/262 253/263/263
f 80/81/81 79/80/80 253/263/263
f 253/263/263 248/257/257 80/81/81
f 256/266/266 258/267/267 255/265/265
f 255/265/265 257/268/268 256/266/266
f 259/269/269 257/268/268 255/265/265
f 255/265/265 258/267/267 250/261/261
f 255/265/265 254/264/264 259/269/269
f 250/261/261 251/262/262 255/265/265
f 260/270/270 257/268/268 259/269/269
f 259/269/269 261/271/271 260/270/270
f 259/269/269 70/72/72 73/71/71
f 73/71/71 261/271/271 259/269/269
f 71/73/73 70/72/72 259/269/269
f 259/269/269 254/264/264 71/73/73
f 260/270/270 261/271/271 64/64/64
f 64/64/64 261/271/271 73/71/71
f 64/64/64 262/272/272 260/270/270
f 260/270/270 262/272/272 264/273/273
f 260/270/270 263/274/274 256/266/266
f 264/273/273 263/274/274 260/270/270
f 256/266/266 257/268/268 260/270/270
f 264/273/273 266/275/275 265/276/276
f 264/273/273 262/272/272 63/63/63
f 265/276/276 263/274/274 264/273/273
f 267/277/277 269/278/278 266/275/275
f 266/275/275 268/279/279 267/277/277
f 270/280/280 268/279/279 266/275/275
f 266/275/275 264/273/273 270/280/280
f 272/281/281 268/279/279 270/280/280
f 270/280/280 264/273/273 63/63/63
f 270/280/280 63/63/63 60/60/60
f 60/60/60 271/282/282 270/280/280
f 270/280/280 271/282/282 272/281/281
f 45/46/46 46/48/48 272/281/281
f 272/281/281 271/282/282 45/46/46
f 267/277/277 268/279/279 272/281/281
f 272/281/281 273/283/283 267/277/277
f 48/45/45 273/283/283 272/281/281
f 272/281/281 46/48/48 48/45/45
f 267/277/277 273/283/283 274/284/284
f 274/284/284 273/283/283 48/45/45
f 274/284/284 321/285/285 275/286/286
f 48/45/45 321/285/285 274/284/284
f 274/284/284 275/286/286 276/287/287
f 278/288/288 277/289/289 276/287/287
f 276/287/287 277/289/289 279/290/290
f 276/287/287 280/291/291 278/288/288
f 279/290/290 274/284/284 276/287/287
f 276/287/287 275/286/286 280/291/291
f 275/286/286 281/292/292 280/291/291
f 280/291/291 281/292/292 282/293/293
f 282/293/293 283/294/294 280/291/291
f 280/291/291 283/294/294 284/295/295
f 284/295/295 285/296/296 278/288/288
f 278/288/288 280/291/291 284/295/295
f 286/297/297 285/296/296 284/295/295
f 284/295/295 287/298/298 286/297/297
f 288/299/299 287/298/298 284/295/295
f 284/295/295 283/294/294 288/299/299
f 282/293/293 289/300/300 288/299/299
f 288/299/299 283/294/294 282/293/293
f 288/299/299 289/300/300 290/301/301
f 292/302/302 287/298/298 288/299/299
f 290/301/301 291/303/303 288/299/299
f 288/299/299 291/303/303 292/302/302
f 286/297/297 287/298/298 292/302/302
f 294/243/243 293/304/304 292/302/302
f 292/302/302 293/304/304 286/297/297
f 292/302/302 295/305/305 294/243/243
f 296/120/120 295/305/305 292/302/302
f 292/302/302 291/303/303 296/120/120
f 290/301/301 297/118/118 296/120/120
f 296/120/120 291/303/303 290/301/301
f 115/121/121 295/305/305 296/120/120
f 298/306/306 297/118/118 290/301/301
f 298/306/306 299/307/307 300/308/308
f 290/301/301 299/307/307 298/306/306
f 300/308/308 301/115/115 298/306/306
f 301/115/115 112/116/116 298/306/306
f 298/306/306 112/116/116 297/118/118
f 302/309/309 301/115/115 300/308/308
f 300/308/308 303/310/310 302/309/309
f 302/309/309 303/310/310 305/311/311
f 305/311/311 304/112/112 302/309/309
f 304/112/112 110/113/113 302/309/309
f 302/309/309 110/113/113 301/115/115
f 308/312/312 306/313/313 305/311/311
f 305/311/311 306/313/313 105/109/109
f 305/311/311 303/310/310 307/314/314
f 307/314/314 309/315/315 305/311/311
f 105/109/109 304/112/112 305/311/311
f 305/311/311 309/315/315 308/312/312
f 310/316/316 309/315/315 307/314/314
f 308/312/312 309/315/315 310/316/316
f 310/316/316 311/317/317 313/318/318
f 314/319/319 311/317/317 310/316/316
f 313/318/318 312/320/320 310/316/316
f 310/316/316 312/320/320 308/312/312
f 310/316/316 315/321/321 314/319/319
f 307/314/314 315/321/321 310/316/316
f 316/322/322 315/321/321 307/314/314
f 314/319/319 315/321/321 316/322/322
f 316/322/322 319/323/323 317/324/324
f 317/324/324 318/325/325 316/322/322
f 307/314/314 319/323/323 316/322/322
f 316/322/322 318/325/325 281/292/292
f 281/292/292 320/326/326 316/322/322
f 316/322/322 320/326/326 314/319/319
f 314/319/319 320/326/326 323/327/327
f 323/327/327 320/326/326 281/292/292
f 321/285/285 322/328/328 323/327/327
f 323/327/327 322/328/328 313/318/318
f 313/318/318 311/317/317 323/327/327
f 323/327/327 311/317/317 314/319/319
f 321/285/285 323/327/327 275/286/286
f 275/286/286 323/327/327 281/292/292
f 313/318/318 322/328/328 44/44/44
f 44/44/44 322/328/328 321/285/285
f 48/45/45 44/44/44 321/285/285
f 281/292/292 318/325/325 282/293/293
f 317/324/324 319/323/323 300/308/308
f 300/308/308 319/323/323 307/314/314
f 282/293/293 318/325/325 317/324/324
f 290/301/301 289/300/300 317/324/324
f 317/324/324 289/300/300 282/293/293
f 317/324/324 299/307/307 290/301/301
f 300/308/308 299/307/307 317/324/324
f 44/44/44 324/329/329 313/318/318
f 313/318/318 324/329/329 325/330/330
f 325/330/330 312/320/320 313/318/318
f 325/330/330 324/329/329 50/52/52
f 50/52/52 328/331/331 325/330/330
f 308/312/312 312/320/320 325/330/330
f 325/330/330 326/332/332 308/312/312
f 327/333/333 326/332/332 325/330/330
f 325/330/330 328/331/331 327/333/333
f 327/333/333 328/331/331 329/334/334
f 329/334/334 328/331/331 50/52/52
f 329/334/334 51/51/51 52/53/53
f 50/52/52 51/51/51 329/334/334
f 52/53/53 332/335/335 329/334/334
f 329/334/334 330/336/336 327/333/333
f 331/337/337 330/336/336 329/334/334
f 329/334/334 332/335/335 331/337/337
f 331/337/337 332/335/335 333/338/338
f 333/338/338 332/335/335 52/53/53
f 52/53/53 55/57/57 333/338/338
f 56/58/58 334/339/339 333/338/338
f 333/338/338 334/339/339 335/340/340
f 335/340/340 336/341/341 333/338/338
f 333/338/338 55/57/57 56/58/58
f 333/338/338 336/341/341 331/337/337
f 337/342/342 336/341/341 335/340/340
f 331/337/337 336/341/341 337/342/342
f 341/343/343 338/344/344 337/342/342
f 337/342/342 338/344/344 331/337/337
f 335/340/340 339/345/345 337/342/342
f 337/342/342 339/345/345 97/98/98
f 97/98/98 340/101/101 337/342/342
f 337/342/342 340/101/101 341/343/343
f 342/346/346 338/344/344 341/343/343
f 341/343/343 343/104/104 342/346/346
f 340/101/101 101/102/102 341/343/343
f 341/343/343 101/102/102 343/104/104
f 342/346/346 343/104/104 107/110/110
f 342/346/346 344/347/347 327/333/333
f 327/333/333 330/336/336 342/346/346
f 107/110/110 344/347/347 342/346/346
f 331/337/337 338/344/344 342/346/346
f 342/346/346 330/336/336 331/337/337
f 345/348/348 344/347/347 107/110/110
f 327/333/333 344/347/347 345/348/348
f 345/348/348 306/313/313 308/312/312
f 308/312/312 326/332/332 345/348/348
f 345/348/348 326/332/332 327/333/333
f 105/109/109 306/313/313 345/348/348
f 345/348/348 106/107/107 105/109/109
f 107/110/110 106/107/107 345/348/348
f 97/98/98 339/345/345 95/95/95
f 95/95/95 339/345/345 335/340/340
f 346/349/349 347/350/350 335/340/340
f 335/340/340 334/339/339 346/349/349
f 335/340/340 347/350/350 95/95/95
f 348/351/351 347/350/350 346/349/349
f 95/95/95 347/350/350 348/351/351
f 349/352/352 351/353/353 348/351/351
f 348/351/351 350/354/354 349/352/352
f 346/349/349 350/354/354 348/351/351
f 348/351/351 351/353/353 88/88/88
f 88/88/88 94/94/94 348/351/351
f 348/351/351 94/94/94 95/95/95
f 352/355/355 351/353/353 349/352/352
f 88/88/88 351/353/353 352/355/355
f 349/352/352 353/356/356 352/355/355
f 352/355/355 353/356/356 67/66/66
f 67/66/66 75/75/75 352/355/355
f 352/355/355 75/75/75 76/76/76
f 352/355/355 90/89/89 88/88/88
f 76/76/76 90/89/89 352/355/355
f 67/66/66 353/356/356 61/62/62
f 61/62/62 353/356/356 349/352/352
f 54/55/55 350/354/354 346/349/349
f 349/352/352 350/354/354 54/55/55
f 349/352/352 54/55/55 61/62/62
f 346/349/349 57/56/56 54/55/55
f 346/349/349 334/339/339 56/58/58
f 56/58/58 57/56/56 346/349/349
f 50/52/52 324/329/329 44/44/44
f 307/314/314 303/310/310 300/308/308
f 294/243/243 295/305/305 115/121/121
f 354/357/357 293/304/304 294/243/243
f 294/243/243 355/244/244 354/357/357
f 354/357/357 355/244/244 356/358/358
f 356/358/358 357/359/359 354/357/357
f 358/360/360 357/359/359 356/358/358
f 356/358/358 359/248/248 358/360/360
f 355/244/244 238/246/246 356/358/358
f 356/358/358 238/246/246 359/248/248
f 358/360/360 359/248/248 360/361/361
f 361/362/362 363/363/363 360/361/361
f 360/361/361 362/251/251 361/362/362
f 360/361/361 363/363/363 358/360/360
f 359/248/248 240/249/249 360/361/361
f 360/361/361 240/249/249 362/251/251
f 364/364/364 363/363/363 361/362/362
f 358/360/360 363/363/363 364/364/364
f 365/365/365 367/366/366 364/364/364
f 364/364/364 366/367/367 365/365/365
f 361/362/362 366/367/367 364/364/364
f 364/364/364 367/366/366 368/368/368
f 368/368/368 369/369/369 364/364/364
f 364/364/364 369/369/369 358/360/360
f 358/360/360 369/369/369 370/370/370
f 370/370/370 369/369/369 368/368/368
f 371/371/371 373/372/372 370/370/370
f 370/370/370 372/373/373 371/371/371
f 368/368/368 372/373/373 370/370/370
f 370/370/370 373/372/372 354/357/357
f 354/357/357 357/359/359 370/370/370
f 370/370/370 357/359/359 358/360/360
f 286/297/297 373/372/372 371/371/371
f 354/357/357 373/372/372 286/297/297
f 371/371/371 372/373/373 374/374/374
f 374/374/374 372/373/373 368/368/368
f 368/368/368 375/375/375 374/374/374
f 374/374/374 375/375/375 277/289/289
f 374/374/374 376/376/376 371/371/371
f 277/289/289 376/376/376 374/374/374
f 378/377/377 377/378/378 277/289/289
f 277/289/289 377/378/378 279/290/290
f 278/288/288 376/376/376 277/289/289
f 277/289/289 375/375/375 378/377/377
f 269/278/278 377/378/378 378/377/377
f 378/377/377 379/379/379 269/278/278
f 365/365/365 379/379/379 378/377/377
f 378/377/377 375/375/375 368/368/368
f 378/377/377 367/366/366 365/365/365
f 368/368/368 367/366/366 378/377/377
f 265/276/276 379/379/379 365/365/365
f 269/278/278 379/379/379 265/276/276
f 279/290/290 377/378/378 269/278/278
f 371/371/371 376/376/376 278/288/288
f 278/288/288 285/296/296 371/371/371
f 371/371/371 285/296/296 286/297/297
f 365/365/365 366/367/367 380/380/380
f 380/380/380 366/367/367 361/362/362
f 256/266/266 381/381/381 380/380/380
f 380/380/380 258/267/267 256/266/266
f 250/261/261 258/267/267 380/380/380
f 380/380/380 381/381/381 365/365/365
f 380/380/380 382/382/382 250/261/261
f 361/362/362 382/382/382 380/380/380
f 250/261/261 382/382/382 383/383/383
f 383/383/383 382/382/382 361/362/362
f 383/383/383 252/254/254 250/261/261
f 361/362/362 362/251/251 383/383/383
f 362/251/251 242/252/252 383/383/383
f 383/383/383 242/252/252 252/254/254
f 265/276/276 381/381/381 256/266/266
f 365/365/365 381/381/381 265/276/276
f 286/297/297 293/304/304 354/357/357
f 267/277/277 274/284/284 279/290/290
f 279/290/290 269/278/278 267/277/277
f 45/46/46 271/282/282 60/60/60
f 265/276/276 266/275/275 269/278/278
f 256/266/266 263/274/274 265/276/276
f 63/63/63 262/272/272 64/64/64
f 105/109/109 108/108/108 304/112/112
f 343/104/104 103/105/105 107/110/110
f 97/98/98 98/97/97 340/101/101
f 95/95/95 96/96/96 97/98/98
f 73/71/71 66/67/67 64/64/64
f 45/46/46 60/60/60 49/49/49
f 44/44/44 43/43/43 50/52/52
f 49/49/49 47/47/47 45/46/46
f 384/384/384 385/385/385 486/386/386
f 384/384/384 387/387/387 386/388/388
f 486/386/386 387/387/387 384/384/384
f 384/384/384 386/388/388 388/389/389
f 388/389/389 386/388/388 389/390/390
f 389/390/390 391/391/391 388/389/389
f 388/389/389 464/392/392 390/393/393
f 390/393/393 384/384/384 388/389/389
f 391/391/391 464/392/392 388/389/389
f 392/394/394 391/391/391 389/390/390
f 392/394/394 467/395/395 391/391/391
f 389/390/390 395/396/396 392/394/394
f 393/397/397 467/395/395 392/394/394
f 394/398/398 393/397/397 392/394/394
f 392/394/394 395/396/396 394/398/398
f 395/396/396 396/399/399 394/398/398
f 397/400/400 393/397/397 394/398/398
f 398/401/401 393/397/397 397/400/400
f 397/400/400 399/402/402 398/401/401
f 400/403/403 399/402/402 397/400/400
f 397/400/400 394/398/398 400/403/403
f 396/399/399 401/404/404 400/403/403
f 400/403/403 394/398/398 396/399/399
f 399/402/402 400/403/403 402/405/405
f 402/405/405 404/406/406 399/402/402
f 403/407/407 398/401/401 399/402/402
f 399/402/402 404/406/406 403/407/407
f 468/408/408 398/401/401 403/407/407
f 403/407/407 405/409/409 468/408/408
f 468/408/408 405/409/409 406/410/410
f 406/410/410 466/411/411 468/408/408
f 465/412/412 466/411/411 406/410/410
f 406/410/410 407/413/413 465/412/412
f 465/412/412 407/413/413 408/414/414
f 462/415/415 463/416/416 408/414/414
f 408/414/414 463/416/416 465/412/412
f 408/414/414 409/417/417 462/415/415
f 462/415/415 409/417/417 410/418/418
f 410/418/418 461/419/419 462/415/415
f 460/420/420 461/419/419 410/418/418
f 410/418/418 411/421/421 460/420/420
f 460/420/420 411/421/421 412/422/422
f 458/423/423 459/424/424 412/422/422
f 412/422/422 459/424/424 460/420/420
f 412/422/422 413/425/425 458/423/423
f 458/423/423 413/425/425 416/426/426
f 416/426/426 457/427/427 458/423/423
f 414/428/428 457/427/427 416/426/426
f 415/429/429 455/430/430 414/428/428
f 454/431/431 455/430/430 415/429/429
f 415/429/429 418/432/432 454/431/431
f 454/431/431 418/432/432 419/433/433
f 419/433/433 453/434/434 454/431/431
f 452/435/435 453/434/434 419/433/433
f 419/433/433 420/436/436 452/435/435
f 452/435/435 420/436/436 421/437/437
f 421/437/437 451/438/438 452/435/435
f 450/439/439 451/438/438 421/437/437
f 421/437/437 422/440/440 450/439/439
f 450/439/439 422/440/440 423/441/441
f 423/441/441 449/442/442 450/439/439
f 448/443/443 449/442/442 423/441/441
f 423/441/441 424/444/444 448/443/443
f 448/443/443 424/444/444 425/445/445
f 425/445/445 447/446/446 448/443/443
f 446/447/447 447/446/446 425/445/445
f 425/445/445 426/448/448 446/447/447
f 446/447/447 426/448/448 427/449/449
f 427/449/449 444/450/450 446/447/447
f 443/451/451 444/450/450 427/449/449
f 427/449/449 428/452/452 443/451/451
f 443/451/451 428/452/452 429/453/453
f 429/453/453 441/454/454 443/451/451
f 440/455/455 441/454/454 429/453/453
f 429/453/453 430/456/456 440/455/455
f 440/455/455 430/456/456 431/457/457
f 431/457/457 438/458/458 440/455/455
f 437/459/459 438/458/458 431/457/457
f 431/457/457 432/460/460 437/459/459
f 437/459/459 432/460/460 433/461/461
f 433/461/461 435/462/462 437/459/459
f 401/404/404 435/462/462 433/461/461
f 433/461/461 434/463/463 401/404/404
f 401/404/404 434/463/463 402/405/405
f 436/464/464 437/459/459 435/462/462
f 435/462/462 507/465/465 436/464/464
f 396/399/399 507/465/465 435/462/462
f 435/462/462 401/404/404 396/399/399
f 438/458/458 437/459/459 436/464/464
f 439/466/466 440/455/455 438/458/458
f 438/458/458 477/467/467 439/466/466
f 436/464/464 477/467/467 438/458/458
f 441/454/454 440/455/455 439/466/466
f 442/468/468 443/451/451 441/454/454
f 441/454/454 473/469/469 442/468/468
f 439/466/466 473/469/469 441/454/454
f 444/450/450 443/451/451 442/468/468
f 445/470/470 446/447/447 444/450/450
f 444/450/450 472/471/471 445/470/470
f 442/468/468 472/471/471 444/450/450
f 447/446/446 446/447/447 445/470/470
f 447/446/446 471/472/472 506/473/473
f 445/470/470 471/472/472 447/446/446
f 506/473/473 448/443/443 447/446/446
f 449/442/442 448/443/443 506/473/473
f 504/474/474 450/439/439 449/442/442
f 449/442/442 505/475/475 504/474/474
f 506/473/473 505/475/475 449/442/442
f 451/438/438 450/439/439 504/474/474
f 502/476/476 452/435/435 451/438/438
f 451/438/438 503/477/477 502/476/476
f 504/474/474 503/477/477 451/438/438
f 453/434/434 452/435/435 502/476/476
f 499/478/478 454/431/431 453/434/434
f 453/434/434 500/479/479 499/478/478
f 502/476/476 500/479/479 453/434/434
f 455/430/430 454/431/431 499/478/478
f 492/480/480 456/481/481 455/430/430
f 455/430/430 491/482/482 492/480/480
f 499/478/478 491/482/482 455/430/430
f 455/430/430 456/481/481 414/428/428
f 414/428/428 456/481/481 457/427/427
f 457/427/427 456/481/481 492/480/480
f 495/483/483 458/423/423 457/427/427
f 457/427/427 493/484/484 495/483/483
f 492/480/480 493/484/484 457/427/427
f 459/424/424 458/423/423 495/483/483
f 497/485/485 460/420/420 459/424/424
f 459/424/424 496/486/486 497/485/485
f 495/483/483 496/486/486 459/424/424
f 461/419/419 460/420/420 497/485/485
f 470/487/487 462/415/415 461/419/419
f 461/419/419 498/488/488 470/487/487
f 497/485/485 498/488/488 461/419/419
f 463/416/416 462/415/415 470/487/487
f 464/392/392 465/412/412 463/416/416
f 463/416/416 390/393/393 464/392/392
f 470/487/487 390/393/393 463/416/416
f 466/411/411 465/412/412 464/392/392
f 467/395/395 468/408/408 466/411/411
f 466/411/411 469/489/489 467/395/395
f 464/392/392 469/489/489 466/411/411
f 398/401/401 468/408/408 467/395/395
f 391/391/391 469/489/489 464/392/392
f 445/470/470 472/471/471 476/490/490
f 476/490/490 472/471/471 442/468/468
f 476/490/490 442/468/468 474/491/491
f 474/491/491 442/468/468 473/469/469
f 474/491/491 475/492/492 478/493/493
f 477/467/467 475/492/492 474/491/491
f 478/493/493 476/490/490 474/491/491
f 473/469/469 439/466/466 474/491/491
f 474/491/491 439/466/466 477/467/467
f 479/494/494 476/490/490 478/493/493
f 481/495/495 479/494/494 478/493/493
f 481/495/495 478/493/493 480/496/496
f 481/495/495 387/387/387 482/497/497
f 482/497/497 479/494/494 481/495/495
f 482/497/497 387/387/387 483/498/498
f 485/499/499 484/500/500 483/498/498
f 483/498/498 484/500/500 482/497/497
f 483/498/498 487/501/501 485/499/499
f 387/387/387 486/386/386 483/498/498
f 483/498/498 486/386/386 487/501/501
f 486/386/386 489/502/502 487/501/501
f 487/501/501 489/502/502 490/503/503
f 487/501/501 490/503/503 488/504/504
f 490/503/503 492/480/480 491/482/482
f 493/484/484 492/480/480 490/503/503
f 494/505/505 495/483/483 493/484/484
f 493/484/484 490/503/503 494/505/505
f 496/486/486 495/483/483 494/505/505
f 494/505/505 497/485/485 496/486/486
f 498/488/488 497/485/485 494/505/505
f 494/505/505 490/503/503 489/502/502
f 489/502/502 498/488/488 494/505/505
f 385/385/385 498/488/488 489/502/502
f 488/504/504 490/503/503 491/482/482
f 491/482/482 499/478/478 488/504/504
f 488/504/504 499/478/478 500/479/479
f 501/506/506 488/504/504 500/479/479
f 500/479/479 502/476/476 501/506/506
f 501/506/506 502/476/476 503/477/477
f 503/477/477 504/474/474 501/506/506
f 501/506/506 504/474/474 505/475/475
f 505/475/475 506/473/473 484/500/500
f 501/506/506 505/475/475 485/499/499
f 485/499/499 505/475/475 484/500/500
f 484/500/500 506/473/473 471/472/472
f 471/472/472 482/497/497 484/500/500
f 479/494/494 482/497/497 471/472/472
f 485/499/499 488/504/504 501/506/506
f 486/386/386 385/385/385 489/502/502
f 485/499/499 487/501/501 488/504/504
f 387/387/387 481/495/495 386/388/388
f 386/388/388 481/495/495 480/496/496
f 395/396/396 389/390/390 480/496/496
f 480/496/496 389/390/390 386/388/388
f 480/496/496 475/492/492 395/396/396
f 480/496/496 478/493/493 475/492/492
f 395/396/396 475/492/492 507/465/465
f 507/465/465 396/399/399 395/396/396
f 475/492/492 436/464/464 507/465/465
f 477/467/467 436/464/464 475/492/492
f 479/494/494 445/470/470 476/490/490
f 471/472/472 445/470/470 479/494/494
f 385/385/385 470/487/487 498/488/488
f 390/393/393 470/487/487 385/385/385
f 467/395/395 469/489/489 391/391/391
f 467/395/395 393/397/397 398/401/401
f 515/507/507 512/508/508 514/509/509
f 514/509/509 511/510/510 516/511/511
f 514/509/509 517/512/512 515/507/507
f 516/511/511 517/512/512 514/509/509
f 509/513/513 518/514/514 516/511/511
f 516/511/511 511/510/510 509/513/513
f 519/515/515 518/514/514 509/513/513
f 510/516/516 520/517/517 519/515/515
f 509/513/513 508/518/518 519/515/515
f 519/515/515 508/518/518 510/516/516
f 521/519/519 520/517/517 510/516/516
f 510/516/516 417/520/520 521/519/519
f 415/429/429 522/521/521 521/519/519
f 521/519/519 417/520/520 415/429/429
f 523/522/522 522/521/521 415/429/429
f 416/426/426 524/523/523 523/522/522
f 415/429/429 414/428/428 523/522/522
f 523/522/522 414/428/428 416/426/426
f 515/507/507 525/524/524 513/525/525
f 513/525/525 525/524/524 526/526/526
f 529/527/527 527/528/528 528/529/529
f 526/526/526 527/528/528 529/527/527
f 529/527/527 530/530/530 526/526/526
f 528/529/529 531/531/531 529/527/527
f 532/532/532 531/531/531 528/529/529
f 533/533/533 532/532/532 534/534/534
f 534/534/534 532/532/532 528/529/529
f 534/534/534 535/535/535 533/533/533
f 533/533/533 535/535/535 536/536/536
f 537/537/537 538/538/538 536/536/536
f 536/536/536 538/538/538 533/533/533
f 537/537/537 539/539/539 538/538/538
f 540/540/540 539/539/539 537/537/537
f 542/541/541 541/542/542 540/540/540
f 537/537/537 545/543/540 540/540/540
f 540/540/540 545/543/540 542/541/541
f 542/541/541 544/544/543 543/545/544
f 543/545/544 541/542/542 542/541/541
f 543/545/544 544/544/543 546/546/545
f 548/547/546 549/548/547 546/546/545
f 546/546/545 549/548/547 543/545/544
f 546/546/545 547/549/548 548/547/546
f 551/550/549 550/551/550 548/547/546
f 548/547/546 547/549/548 551/550/549
f 551/550/549 552/552/551 553/553/552
f 553/553/552 550/551/550 551/550/549
f 553/553/552 552/552/551 554/554/553
f 554/554/553 555/555/554 556/556/555
f 556/556/555 557/557/556 554/554/553
f 554/554/553 557/557/556 553/553/552
f 563/558/557 560/559/558 562/560/559
f 562/560/559 559/561/560 564/562/561
f 562/560/559 565/563/562 563/558/557
f 564/562/561 565/563/562 562/560/559
f 567/564/563 566/565/564 564/562/561
f 564/562/561 559/561/560 567/564/563
f 567/564/563 558/566/565 568/567/566
f 568/567/566 566/565/564 567/564/563
f 568/567/566 558/566/565 556/556/555
f 556/556/555 555/555/554 568/567/566
f 563/558/557 569/568/567 561/569/568
f 561/569/568 560/559/558 563/558/557
f 526/526/526 530/530/530 513/525/525
f 513/525/525 512/508/508 515/507/507
f 402/405/405 400/403/403 401/404/404
f 385/385/385 384/384/384 390/393/393
