# Blender 5.1.2
# www.blender.org
mtllib btn_options.mtl
o btn_options
v 0.456054 -0.285013 0.447942
v 0.447802 -0.300055 0.452850
v 0.447504 -0.284952 0.451624
v 0.456386 -0.300117 0.449150
v 0.466707 -0.299826 0.449254
v 0.466376 -0.284723 0.448030
v 0.475966 -0.284092 0.451965
v 0.476369 -0.299185 0.453279
v 0.482723 -0.298217 0.461241
v 0.482322 -0.283131 0.459824
v 0.486873 -0.281490 0.472251
v 0.491048 -0.278818 0.489889
v 0.491539 -0.293829 0.491956
v 0.493705 -0.276061 0.506791
v 0.494254 -0.290966 0.509524
v 0.487345 -0.296536 0.474016
v 0.441861 -0.299594 0.459783
v 0.439570 -0.298699 0.469234
v 0.440339 -0.296929 0.482503
v 0.443648 -0.293857 0.500666
v 0.448213 -0.290682 0.517470
v 0.447784 -0.275874 0.514230
v 0.443206 -0.278972 0.497807
v 0.439993 -0.281914 0.480430
v 0.439288 -0.283623 0.467658
v 0.441617 -0.284502 0.458416
v 0.494243 -0.288946 0.520311
v 0.491114 -0.287456 0.527176
v 0.484332 -0.286122 0.533216
v 0.475500 -0.270848 0.532650
v 0.484031 -0.271521 0.529153
v 0.475899 -0.285425 0.536780
v 0.490620 -0.272765 0.523482
v 0.493704 -0.274161 0.517008
v 0.467007 -0.285734 0.536758
v 0.458914 -0.286809 0.533613
v 0.453104 -0.288349 0.528016
v 0.448213 -0.290682 0.517470
v 0.447784 -0.275874 0.514230
v 0.452580 -0.273697 0.524134
v 0.458534 -0.272206 0.529573
v 0.466588 -0.271166 0.532601
v 0.487833 -0.301827 0.527815
v 0.491400 -0.302713 0.521585
v 0.488993 -0.307681 0.495656
v 0.492590 -0.303412 0.512440
v 0.480828 -0.311066 0.481782
v 0.485094 -0.310958 0.477757
v 0.480622 -0.312944 0.465975
v 0.475756 -0.313394 0.467467
v 0.475431 -0.313103 0.457795
v 0.473774 -0.314153 0.459360
v 0.466299 -0.314430 0.454982
v 0.457372 -0.314698 0.455729
v 0.456867 -0.313744 0.453719
v 0.449957 -0.314078 0.458890
v 0.448860 -0.312856 0.456898
v 0.444169 -0.312657 0.463880
v 0.441326 -0.310545 0.472271
v 0.443000 -0.309532 0.485047
v 0.443363 -0.311960 0.472815
v 0.448495 -0.310231 0.485990
v 0.446524 -0.306276 0.502856
v 0.456337 -0.301408 0.529117
v 0.450761 -0.302721 0.519731
v 0.454441 -0.299737 0.529822
v 0.460452 -0.299678 0.534924
v 0.467684 -0.299285 0.537697
v 0.475315 -0.299880 0.536750
v 0.475658 -0.298263 0.538465
v 0.467348 -0.297271 0.538504
v 0.459506 -0.293896 0.534635
v 0.459819 -0.297887 0.535380
v 0.475643 -0.293167 0.537878
v 0.467157 -0.293220 0.537800
v 0.483729 -0.297939 0.535097
v 0.483809 -0.293861 0.534333
v 0.490149 -0.295022 0.528502
v 0.489677 -0.300046 0.529397
v 0.483058 -0.299913 0.534482
v 0.493155 -0.296370 0.521719
v 0.493158 -0.298462 0.511173
v 0.492743 -0.301098 0.522823
v 0.490260 -0.305932 0.495012
v 0.490493 -0.301854 0.494050
v 0.486353 -0.305149 0.476342
v 0.486117 -0.309330 0.477225
v 0.481705 -0.311227 0.464964
v 0.481933 -0.306949 0.464043
v 0.475819 -0.307839 0.456342
v 0.466537 -0.312769 0.453445
v 0.466595 -0.308407 0.452427
v 0.456682 -0.308479 0.452226
v 0.448499 -0.307886 0.455666
v 0.442909 -0.306894 0.462224
v 0.443207 -0.311053 0.463102
v 0.441928 -0.307823 0.484920
v 0.440777 -0.305770 0.471378
v 0.441560 -0.303870 0.484229
v 0.444835 -0.303913 0.502268
v 0.449673 -0.301034 0.519549
v 0.453846 -0.295076 0.528919
v 0.453812 -0.295071 0.528944
v 0.449227 -0.297159 0.518663
v 0.448638 -0.277946 0.513842
v 0.453177 -0.275647 0.523878
v 0.444380 -0.281237 0.497693
v 0.441402 -0.284157 0.480626
v 0.458860 -0.274095 0.529553
v 0.467163 -0.293208 0.537849
v 0.459489 -0.293891 0.534658
v 0.466549 -0.273046 0.532621
v 0.475081 -0.272742 0.532616
v 0.483823 -0.293849 0.534380
v 0.475648 -0.293160 0.537907
v 0.483293 -0.273426 0.529068
v 0.489662 -0.274697 0.523256
v 0.493200 -0.296369 0.521720
v 0.490174 -0.295018 0.528517
v 0.492669 -0.276153 0.516458
v 0.492672 -0.278155 0.506054
v 0.493187 -0.298462 0.511170
v 0.490499 -0.301895 0.493832
v 0.490030 -0.281061 0.489424
v 0.485964 -0.283663 0.472237
v 0.486381 -0.305150 0.476333
v 0.481987 -0.306950 0.464042
v 0.481698 -0.284753 0.460159
v 0.475729 -0.285115 0.452529
v 0.475837 -0.307843 0.456320
v 0.466568 -0.308414 0.452383
v 0.466555 -0.285534 0.448685
v 0.456644 -0.285829 0.448529
v 0.456675 -0.308483 0.452201
v 0.448522 -0.307898 0.455593
v 0.448461 -0.285818 0.451964
v 0.442862 -0.285616 0.458548
v 0.442883 -0.306896 0.462211
v 0.440743 -0.305781 0.471299
v 0.440702 -0.285339 0.467840
v 0.441402 -0.284157 0.480626
v 0.441546 -0.303869 0.484232
v 0.465043 -0.300883 0.532971
v 0.453804 -0.313081 0.469179
vn 0.5923 0.0779 0.8019
vn 0.1963 0.0825 0.9771
vn 0.1958 0.0829 0.9771
vn 0.5914 0.0778 0.8026
vn -0.2018 0.0757 0.9765
vn -0.2016 0.0753 0.9766
vn -0.6012 0.0536 0.7973
vn -0.6037 0.0533 0.7955
vn -0.8718 0.0225 0.4894
vn -0.8717 0.0228 0.4894
vn -0.9583 0.0034 0.2859
vn -0.9586 0.0033 0.2846
vn -0.9812 -0.0056 0.1929
vn -0.9812 -0.0057 0.1928
vn -0.9966 -0.0218 0.0795
vn -0.9964 -0.0227 0.0812
vn 0.9391 -0.0478 -0.3402
vn 0.9456 0.0180 -0.3247
vn 0.9752 -0.0144 -0.2210
vn 0.9752 -0.0148 -0.2210
vn 0.9929 0.0046 -0.1192
vn 0.9930 0.0067 -0.1178
vn 0.9955 0.0268 0.0903
vn 0.9955 0.0270 0.0906
vn 0.8883 0.0564 0.4558
vn 0.8904 0.0561 0.4518
vn -0.5350 -0.2354 -0.8114
vn -0.1958 -0.2722 -0.9421
vn -0.1906 -0.2707 -0.9436
vn -0.5342 -0.2359 -0.8118
vn -0.8033 -0.1712 -0.5704
vn -0.8100 -0.1682 -0.5618
vn -0.9765 -0.0832 -0.1990
vn -0.9762 -0.0833 -0.2005
vn 0.8156 -0.1218 -0.5656
vn 0.9305 0.0066 -0.3662
vn 0.9391 -0.0502 -0.3399
vn 0.8147 -0.1217 -0.5669
vn 0.5429 -0.2081 -0.8136
vn 0.1979 -0.2606 -0.9449
vn 0.5538 -0.2069 -0.8065
vn 0.1967 -0.2613 -0.9450
vn 0.2382 -0.9140 0.3285
vn 0.0747 -0.9845 0.1586
vn 0.4989 -0.8636 0.0729
vn 0.3998 -0.8877 0.2284
vn 0.8325 -0.5529 0.0365
vn 0.5334 -0.8457 -0.0140
vn 0.4605 -0.8795 -0.1204
vn 0.0549 -0.9919 0.1146
vn 0.1677 -0.9770 -0.1317
vn 0.5051 -0.6279 -0.5921
vn 0.1207 -0.9113 -0.3936
vn -0.0738 -0.9834 -0.1659
vn -0.1744 -0.6509 -0.7388
vn -0.2455 -0.9606 -0.1300
vn -0.5168 -0.5912 -0.6192
vn -0.5252 -0.8396 -0.1387
vn -0.3355 -0.9342 0.1211
vn -0.8671 -0.4982 0.0054
vn -0.5515 -0.8052 0.2180
vn -0.0780 -0.9789 0.1887
vn -0.0282 -0.9900 0.1382
vn -0.5092 -0.8144 0.2783
vn -0.2674 -0.8930 0.3621
vn -0.5460 -0.7662 0.3387
vn -0.3161 -0.6949 0.6459
vn -0.7312 -0.3619 0.5783
vn -0.0462 -0.9586 0.2811
vn -0.1250 -0.7159 0.6869
vn 0.0636 -0.8778 0.4748
vn 0.1866 -0.3367 0.9229
vn -0.1947 -0.1105 0.9746
vn -0.2036 0.1945 0.9595
vn -0.5700 0.1385 0.8099
vn -0.5391 -0.1259 0.8327
vn 0.2021 0.1653 0.9653
vn 0.5297 -0.1220 0.8393
vn 0.5519 0.1789 0.8145
vn 0.3118 -0.7210 0.6188
vn 0.8194 0.0754 0.5683
vn 0.6875 -0.4179 0.5939
vn 0.8715 -0.4086 0.2711
vn 0.9781 -0.0009 0.2080
vn 0.9948 -0.0838 -0.0582
vn 0.9286 -0.3537 -0.1126
vn 0.9819 -0.0613 -0.1794
vn 0.9147 -0.3454 -0.2098
vn 0.9595 -0.0773 -0.2707
vn 0.8256 -0.3965 -0.4015
vn 0.6052 -0.2058 -0.7690
vn 0.8743 -0.1139 -0.4719
vn 0.2010 -0.4606 -0.8645
vn 0.2113 -0.1950 -0.9578
vn -0.1932 -0.2357 -0.9524
vn -0.8521 -0.3692 -0.3711
vn -0.8920 -0.1294 -0.4331
vn -0.5931 -0.2027 -0.7792
vn -0.9403 -0.2967 0.1665
vn -0.9934 -0.0234 0.1124
vn -0.9932 -0.0923 -0.0712
vn -0.9335 -0.2502 0.2568
vn -0.8937 -0.2558 0.3686
vn -0.9423 0.0132 0.3345
vn -0.8268 0.0384 0.5612
vn -0.9450 0.0523 0.3229
vn -0.8259 0.1157 0.5519
vn -0.8299 0.1149 0.5460
vn -0.9773 0.0238 0.2107
vn -0.9931 0.0101 0.1165
vn -0.5648 0.1902 0.8030
vn -0.1987 0.2396 0.9503
vn -0.2022 0.2399 0.9495
vn -0.5595 0.1905 0.8067
vn 0.2013 0.2511 0.9468
vn 0.5495 0.2231 0.8052
vn 0.5501 0.2235 0.8046
vn 0.2025 0.2512 0.9465
vn 0.8166 0.1648 0.5531
vn 0.9770 0.0765 0.1990
vn 0.9786 0.0754 0.1917
vn 0.8140 0.1647 0.5570
vn 0.9968 0.0067 -0.0794
vn 0.9970 0.0063 -0.0765
vn 0.9819 -0.0183 -0.1887
vn 0.9817 -0.0181 -0.1897
vn 0.9599 -0.0353 -0.2781
vn 0.9602 -0.0332 -0.2773
vn 0.8777 -0.0717 -0.4738
vn 0.8760 -0.0718 -0.4770
vn 0.6067 -0.1264 -0.7848
vn 0.6105 -0.1274 -0.7817
vn 0.2102 -0.1571 -0.9649
vn 0.2089 -0.1565 -0.9653
vn -0.1864 -0.1580 -0.9697
vn -0.1889 -0.1563 -0.9695
vn -0.5919 -0.1327 -0.7950
vn -0.5894 -0.1324 -0.7970
vn -0.8922 -0.0763 -0.4452
vn -0.8959 -0.0762 -0.4377
vn -0.9966 -0.0170 -0.0809
vn -0.9963 -0.0171 -0.0848
vn -0.9934 0.0142 0.1135
vn -0.9937 -0.0297 0.1081
vt 0.645082 0.939605
vt 0.644922 0.943072
vt 0.650699 0.943363
vt 0.650859 0.939924
vt 0.644751 0.946861
vt 0.650530 0.947133
vt 0.650370 0.951032
vt 0.644590 0.950789
vt 0.644461 0.954676
vt 0.650244 0.954858
vt 0.650197 0.959505
vt 0.644412 0.959431
vt 0.644491 0.965963
vt 0.650277 0.965866
vt 0.644657 0.972196
vt 0.650438 0.971897
vt 0.652712 0.916977
vt 0.648439 0.916203
vt 0.646918 0.921507
vt 0.652640 0.922374
vt 0.651785 0.928540
vt 0.646034 0.927892
vt 0.645538 0.932531
vt 0.651305 0.933018
vt 0.651047 0.936561
vt 0.645274 0.936183
vt 0.645567 0.982186
vt 0.646023 0.985587
vt 0.651751 0.984775
vt 0.651303 0.981422
vt 0.650912 0.978251
vt 0.645164 0.978918
vt 0.644871 0.976051
vt 0.650637 0.975550
vt 0.647453 0.995049
vt 0.648570 0.997161
vt 0.652842 0.996373
vt 0.653163 0.994084
vt 0.652661 0.991132
vt 0.646471 0.988853
vt 0.646940 0.992001
vt 0.652197 0.988021
vt 0.735078 0.164673
vt 0.734314 0.189984
vt 0.737977 0.181972
vt 0.737351 0.167738
vt 0.739071 0.172412
vt 0.736965 0.191917
vt 0.735110 0.198555
vt 0.732414 0.198220
vt 0.731725 0.202362
vt 0.732834 0.203294
vt 0.728031 0.205180
vt 0.723320 0.205250
vt 0.723147 0.206528
vt 0.719232 0.204022
vt 0.718615 0.205366
vt 0.715762 0.201776
vt 0.714745 0.197008
vt 0.713360 0.197423
vt 0.713598 0.190326
vt 0.716807 0.189437
vt 0.720612 0.198019
vt 0.714418 0.180469
vt 0.718337 0.165712
vt 0.715693 0.170991
vt 0.720262 0.162160
vt 0.716998 0.165001
vt 0.722815 0.163375
vt 0.723990 0.160359
vt 0.728079 0.160579
vt 0.728177 0.159222
vt 0.723599 0.159155
vt 0.723338 0.158364
vt 0.719000 0.160680
vt 0.719548 0.161315
vt 0.728287 0.157810
vt 0.732861 0.160116
vt 0.733239 0.159378
vt 0.732293 0.161236
vt 0.737320 0.162406
vt 0.736251 0.163319
vt 0.738474 0.166659
vt 0.739658 0.166233
vt 0.740528 0.172332
vt 0.739317 0.182086
vt 0.740204 0.182175
vt 0.738093 0.192176
vt 0.738938 0.192395
vt 0.736246 0.199194
vt 0.733752 0.204395
vt 0.736983 0.199627
vt 0.728416 0.206416
vt 0.728663 0.207223
vt 0.722985 0.207966
vt 0.714870 0.202480
vt 0.714203 0.203014
vt 0.717991 0.206476
vt 0.712432 0.190385
vt 0.709767 0.193107
vt 0.712145 0.197839
vt 0.712714 0.180345
vt 0.714551 0.170765
vt 0.714120 0.166556
vt 0.715879 0.164393
vt 0.701231 0.169954
vt 0.713869 0.164219
vt 0.701738 0.163757
vt 0.700271 0.179268
vt 0.700865 0.187631
vt 0.701989 0.159076
vt 0.714775 0.154845
vt 0.702181 0.154313
vt 0.714346 0.159582
vt 0.702360 0.149399
vt 0.715332 0.144801
vt 0.702570 0.144268
vt 0.715117 0.149940
vt 0.702739 0.139316
vt 0.715427 0.135466
vt 0.702798 0.134943
vt 0.715432 0.139840
vt 0.702662 0.129129
vt 0.715326 0.129535
vt 0.715136 0.119905
vt 0.702249 0.119858
vt 0.701587 0.110216
vt 0.714825 0.109852
vt 0.714338 0.102652
vt 0.700706 0.103291
vt 0.699884 0.097639
vt 0.713819 0.096837
vt 0.713413 0.090935
vt 0.699400 0.091819
vt 0.699171 0.086177
vt 0.713041 0.085251
vt 0.712623 0.080087
vt 0.699112 0.081061
vt 0.699222 0.075985
vt 0.712247 0.074986
vt 0.711994 0.069489
vt 0.699500 0.070467
vt 0.701264 0.066046
vt 0.710362 0.065334
s 1
usemtl 1011
f 2/1/1 4/2/2 1/3/3
f 1/3/3 3/4/4 2/1/1
f 1/3/3 4/2/2 5/5/5
f 5/5/5 6/6/6 1/3/3
f 7/7/7 6/6/6 5/5/5
f 5/5/5 8/8/8 7/7/7
f 7/7/7 8/8/8 9/9/9
f 9/9/9 10/10/10 7/7/7
f 11/11/11 10/10/10 9/9/9
f 9/9/9 16/12/12 11/11/11
f 11/11/11 16/12/12 13/13/13
f 13/13/13 12/14/14 11/11/11
f 13/13/13 15/15/15 14/16/16
f 14/16/16 12/14/14 13/13/13
f 22/17/17 21/18/18 20/19/19
f 20/19/19 23/20/20 22/17/17
f 24/21/21 23/20/20 20/19/19
f 20/19/19 19/22/22 24/21/21
f 24/21/21 19/22/22 18/23/23
f 18/23/23 25/24/24 24/21/21
f 26/25/25 25/24/24 18/23/23
f 18/23/23 17/26/26 26/25/25
f 26/25/25 17/26/26 2/1/1
f 2/1/1 3/4/4 26/25/25
f 29/27/27 32/28/28 30/29/29
f 30/29/29 31/30/30 29/27/27
f 29/27/27 31/30/30 33/31/31
f 33/31/31 28/32/32 29/27/27
f 27/33/33 28/32/32 33/31/31
f 33/31/31 34/34/34 27/33/33
f 27/33/33 34/34/34 14/16/16
f 37/35/35 38/36/36 39/37/37
f 39/37/37 40/38/38 37/35/35
f 37/35/35 40/38/38 41/39/39
f 35/40/40 36/41/41 41/39/39
f 41/39/39 36/41/41 37/35/35
f 41/39/39 42/42/42 35/40/40
f 35/40/40 42/42/42 30/29/29
f 30/29/29 32/28/28 35/40/40
f 14/16/16 15/15/15 27/33/33
usemtl 1001
f 43/43/43 47/44/44 45/45/45
f 45/45/45 44/46/46 43/43/43
f 46/47/47 44/46/46 45/45/45
f 47/44/44 48/48/48 45/45/45
f 49/49/49 48/48/48 47/44/44
f 47/44/44 50/50/50 49/49/49
f 49/49/49 50/50/50 52/51/51
f 49/49/49 52/51/51 51/52/52
f 53/53/53 52/51/51 54/54/54
f 51/52/52 52/51/51 53/53/53
f 53/53/53 54/54/54 55/55/55
f 55/55/55 54/54/54 56/56/56
f 56/56/56 57/57/57 55/55/55
f 58/58/58 57/57/57 56/56/56
f 61/59/59 58/58/58 56/56/56
f 61/59/59 59/60/60 58/58/58
f 60/61/61 59/60/60 61/59/59
f 62/62/62 60/61/61 61/59/59
f 62/62/62 61/59/59 144/63/63
f 63/64/64 60/61/61 62/62/62
f 63/64/64 62/62/62 64/65/65
f 64/65/65 65/66/66 63/64/64
f 67/67/67 66/68/68 64/65/65
f 64/65/65 66/68/68 65/66/66
f 143/69/69 67/67/67 64/65/65
f 68/70/70 67/67/67 143/69/69
f 68/70/70 143/69/69 69/71/71
f 68/70/70 69/71/71 70/72/72
f 67/67/67 68/70/70 71/73/73
f 71/73/73 68/70/70 70/72/72
f 71/73/73 75/74/74 72/75/75
f 72/75/75 73/76/76 71/73/73
f 71/73/73 73/76/76 67/67/67
f 71/73/73 70/72/72 74/77/77
f 74/77/77 75/74/74 71/73/73
f 74/77/77 70/72/72 76/78/78
f 76/78/78 77/79/79 74/77/77
f 70/72/72 80/80/80 76/78/78
f 78/81/81 77/79/79 76/78/78
f 76/78/78 79/82/82 78/81/81
f 76/78/78 80/80/80 79/82/82
f 69/71/71 43/43/43 80/80/80
f 70/72/72 69/71/71 80/80/80
f 80/80/80 43/43/43 79/82/82
f 79/82/82 43/43/43 44/46/46
f 78/81/81 79/82/82 83/83/83
f 83/83/83 81/84/84 78/81/81
f 82/85/85 81/84/84 83/83/83
f 83/83/83 46/47/47 82/85/85
f 44/46/46 83/83/83 79/82/82
f 46/47/47 83/83/83 44/46/46
f 82/85/85 46/47/47 84/86/86
f 84/86/86 85/87/87 82/85/85
f 84/86/86 45/45/45 48/48/48
f 48/48/48 87/88/88 84/86/86
f 46/47/47 45/45/45 84/86/86
f 86/89/89 85/87/87 84/86/86
f 84/86/86 87/88/88 86/89/89
f 88/90/90 87/88/88 48/48/48
f 86/89/89 87/88/88 88/90/90
f 48/48/48 49/49/49 88/90/90
f 90/91/91 89/92/92 88/90/90
f 88/90/90 89/92/92 86/89/89
f 88/90/90 51/52/52 90/91/91
f 88/90/90 49/49/49 51/52/52
f 90/91/91 51/52/52 91/93/93
f 91/93/93 53/53/53 55/55/55
f 91/93/93 92/94/94 90/91/91
f 51/52/52 53/53/53 91/93/93
f 93/95/95 92/94/94 91/93/93
f 91/93/93 55/55/55 93/95/95
f 93/95/95 55/55/55 57/57/57
f 58/58/58 96/96/96 57/57/57
f 95/97/97 94/98/98 57/57/57
f 57/57/57 94/98/98 93/95/95
f 57/57/57 96/96/96 95/97/97
f 59/60/60 96/96/96 58/58/58
f 95/97/97 96/96/96 59/60/60
f 60/61/61 97/99/99 59/60/60
f 59/60/60 97/99/99 99/100/100
f 59/60/60 98/101/101 95/97/97
f 99/100/100 98/101/101 59/60/60
f 99/100/100 97/99/99 100/102/102
f 100/102/102 97/99/99 60/61/61
f 60/61/61 63/64/64 100/102/102
f 100/102/102 101/103/103 104/104/104
f 100/102/102 63/64/64 65/66/66
f 65/66/66 101/103/103 100/102/102
f 104/104/104 101/103/103 66/68/68
f 66/68/68 101/103/103 65/66/66
f 67/67/67 73/76/76 66/68/68
f 66/68/68 102/105/105 104/104/104
f 72/75/75 102/105/105 66/68/68
f 66/68/68 73/76/76 72/75/75
f 100/102/102 104/104/104 105/106/106
f 105/106/106 104/104/104 103/107/107
f 103/107/107 106/108/108 105/106/106
f 105/106/106 107/109/109 100/102/102
f 100/102/102 107/109/109 108/110/110
f 108/110/110 99/100/100 100/102/102
f 109/111/111 106/108/108 103/107/107
f 110/112/112 112/113/113 109/111/111
f 109/111/111 111/114/114 110/112/112
f 103/107/107 111/114/114 109/111/111
f 113/115/115 112/113/113 110/112/112
f 114/116/116 116/117/117 113/115/115
f 113/115/115 115/118/118 114/116/116
f 110/112/112 115/118/118 113/115/115
f 117/119/119 116/117/117 114/116/116
f 118/120/120 120/121/121 117/119/119
f 117/119/119 119/122/122 118/120/120
f 114/116/116 119/122/122 117/119/119
f 121/123/123 120/121/121 118/120/120
f 121/123/123 122/124/124 123/125/125
f 118/120/120 122/124/124 121/123/123
f 123/125/125 124/126/126 121/123/123
f 125/127/127 124/126/126 123/125/125
f 123/125/125 126/128/128 125/127/127
f 125/127/127 126/128/128 127/129/129
f 127/129/129 128/130/130 125/127/127
f 129/131/131 128/130/130 127/129/129
f 127/129/129 130/132/132 129/131/131
f 129/131/131 130/132/132 131/133/133
f 131/133/133 132/134/134 129/131/131
f 133/135/135 132/134/134 131/133/133
f 131/133/133 134/136/136 133/135/135
f 133/135/135 134/136/136 135/137/137
f 135/137/137 136/138/138 133/135/135
f 137/139/139 136/138/138 135/137/137
f 135/137/137 138/140/140 137/139/139
f 137/139/139 138/140/140 139/141/141
f 139/141/141 140/142/142 137/139/139
f 141/143/143 140/142/142 139/141/141
f 139/141/141 142/144/144 141/143/143
f 69/71/71 143/69/69 43/43/43
f 43/43/43 143/69/69 62/62/62
f 62/62/62 47/44/44 43/43/43
f 50/50/50 47/44/44 62/62/62
f 62/62/62 144/63/63 50/50/50
f 50/50/50 144/63/63 54/54/54
f 62/62/62 143/69/69 64/65/65
f 144/63/63 61/59/59 56/56/56
f 144/63/63 56/56/56 54/54/54
f 54/54/54 52/51/51 50/50/50
