# Blender 5.1.2
# www.blender.org
mtllib btn_square.mtl
o btn_square
v 0.445747 -0.290090 0.333557
v 0.431866 -0.304908 0.323745
v 0.445747 -0.304888 0.333557
v 0.431866 -0.290111 0.323745
v 0.420939 -0.290154 0.310724
v 0.420939 -0.304951 0.310724
v 0.413824 -0.305238 0.295285
v 0.413824 -0.290440 0.295286
v 0.410871 -0.290383 0.278545
v 0.410871 -0.305181 0.278545
v 0.412428 -0.304193 0.261618
v 0.412428 -0.289395 0.261618
v 0.418241 -0.288183 0.245644
v 0.418241 -0.302981 0.245644
v 0.428053 -0.302252 0.231763
v 0.428053 -0.287454 0.231763
v 0.441074 -0.287000 0.220835
v 0.441074 -0.301797 0.220836
v 0.456514 -0.301409 0.213721
v 0.456513 -0.286611 0.213721
v 0.473253 -0.286283 0.210768
v 0.473253 -0.301081 0.210768
v 0.490180 -0.300809 0.212325
v 0.490180 -0.286012 0.212325
v 0.506154 -0.285872 0.218138
v 0.506154 -0.300670 0.218138
v 0.520035 -0.300739 0.227950
v 0.520035 -0.285941 0.227950
v 0.530963 -0.286168 0.240971
v 0.538078 -0.301301 0.256409
v 0.530963 -0.300966 0.240971
v 0.538078 -0.286503 0.256409
v 0.541031 -0.286917 0.273150
v 0.539473 -0.302179 0.290077
v 0.541031 -0.301715 0.273150
v 0.539473 -0.287381 0.290077
v 0.533660 -0.287874 0.306051
v 0.523848 -0.303172 0.319932
v 0.533660 -0.302671 0.306051
v 0.523848 -0.288375 0.319932
v 0.510827 -0.288837 0.330859
v 0.495389 -0.304013 0.337974
v 0.510827 -0.303634 0.330859
v 0.495389 -0.289215 0.337974
v 0.478649 -0.289547 0.340927
v 0.461721 -0.304668 0.339370
v 0.478649 -0.304345 0.340927
v 0.461721 -0.289871 0.339370
v 0.445747 -0.290090 0.333557
v 0.445747 -0.304888 0.333557
v 0.476394 -0.326788 0.313752
v 0.462959 -0.326532 0.315685
v 0.491030 -0.327355 0.290654
v 0.476417 -0.327664 0.290883
v 0.489826 -0.326535 0.315652
v 0.461798 -0.327354 0.290656
v 0.476375 -0.325751 0.329198
v 0.489238 -0.325710 0.328081
v 0.500942 -0.325633 0.325030
v 0.511440 -0.326000 0.313143
v 0.512253 -0.326162 0.306270
v 0.517109 -0.326115 0.289530
v 0.525413 -0.325403 0.300561
v 0.510328 -0.325570 0.320343
v 0.516498 -0.325328 0.316116
v 0.520726 -0.325486 0.309946
v 0.524946 -0.324705 0.309652
v 0.530323 -0.324559 0.300098
v 0.532548 -0.323133 0.300094
v 0.518039 -0.324798 0.317656
v 0.519544 -0.323369 0.319163
v 0.526932 -0.323277 0.310347
v 0.528051 -0.320887 0.310737
v 0.520392 -0.320978 0.320011
v 0.534376 -0.317831 0.300092
v 0.533800 -0.320744 0.300092
v 0.528686 -0.316998 0.310945
v 0.520781 -0.318064 0.320400
v 0.511325 -0.317148 0.328304
v 0.511118 -0.321024 0.327669
v 0.500472 -0.318135 0.333995
v 0.510728 -0.323407 0.326549
v 0.500475 -0.323420 0.332163
v 0.500473 -0.321042 0.333418
v 0.488700 -0.321055 0.336963
v 0.488781 -0.323438 0.335661
v 0.476362 -0.318146 0.338783
v 0.488663 -0.318145 0.337561
v 0.476363 -0.321059 0.338185
v 0.476365 -0.323448 0.336882
v 0.463812 -0.324854 0.333351
v 0.463949 -0.323436 0.335661
v 0.476368 -0.324874 0.334567
v 0.488923 -0.324856 0.333352
v 0.464026 -0.321053 0.336963
v 0.452253 -0.321039 0.333418
v 0.452253 -0.318132 0.333995
v 0.464062 -0.318143 0.337561
v 0.452253 -0.323417 0.332163
v 0.452255 -0.324827 0.329938
v 0.442696 -0.324820 0.324562
v 0.441999 -0.323402 0.326549
v 0.441607 -0.321019 0.327669
v 0.431944 -0.318058 0.320400
v 0.441399 -0.317144 0.328304
v 0.433181 -0.323363 0.319163
v 0.432333 -0.320972 0.320011
v 0.424673 -0.320880 0.310737
v 0.425792 -0.323270 0.310346
v 0.418924 -0.320736 0.300092
v 0.420177 -0.323125 0.300094
v 0.418349 -0.317823 0.300092
v 0.424039 -0.316997 0.310945
v 0.418118 -0.312387 0.300091
v 0.423989 -0.312530 0.310977
v 0.431788 -0.312622 0.320556
v 0.441367 -0.312673 0.328355
v 0.464074 -0.315143 0.337760
v 0.452253 -0.312698 0.334226
v 0.464074 -0.312708 0.337760
v 0.476362 -0.312710 0.339023
v 0.488651 -0.315145 0.337760
v 0.488651 -0.312710 0.337760
v 0.500472 -0.312701 0.334226
v 0.511357 -0.312678 0.328355
v 0.520936 -0.312628 0.320556
v 0.528736 -0.312537 0.310977
v 0.534606 -0.312395 0.300091
v 0.538141 -0.314627 0.288270
v 0.538141 -0.312192 0.288270
v 0.539403 -0.311931 0.275981
v 0.538141 -0.314049 0.263693
v 0.538141 -0.311614 0.263693
v 0.534606 -0.311261 0.251873
v 0.528736 -0.310889 0.240987
v 0.520936 -0.310529 0.231409
v 0.511357 -0.310212 0.223608
v 0.500472 -0.309961 0.217777
v 0.500477 -0.314839 0.217881
v 0.488651 -0.312237 0.214203
v 0.488651 -0.308584 0.214203
v 0.511357 -0.310212 0.223608
v 0.500471 -0.308326 0.217874
v 0.488658 -0.308137 0.214355
v 0.476362 -0.308114 0.213081
v 0.476362 -0.309744 0.212981
v 0.464067 -0.308209 0.214273
v 0.464034 -0.308014 0.214812
v 0.500708 -0.308177 0.218463
v 0.488694 -0.308015 0.214811
v 0.489521 -0.309201 0.232333
v 0.476431 -0.311519 0.262178
v 0.504045 -0.309965 0.248761
v 0.490825 -0.311269 0.262322
v 0.476364 -0.307962 0.213589
v 0.463269 -0.309201 0.232342
v 0.452024 -0.308174 0.218459
v 0.448768 -0.309964 0.248781
v 0.462028 -0.311268 0.262334
v 0.437201 -0.310430 0.263937
v 0.418822 -0.309434 0.251712
v 0.432219 -0.308721 0.231857
v 0.441539 -0.308416 0.224130
v 0.424509 -0.309079 0.241163
v 0.424043 -0.309284 0.241019
v 0.418157 -0.311252 0.251873
v 0.418254 -0.309615 0.251876
v 0.423989 -0.310882 0.240987
v 0.431814 -0.310523 0.231434
v 0.431879 -0.308888 0.231499
v 0.441399 -0.308609 0.223663
v 0.441367 -0.310207 0.223608
v 0.452253 -0.309957 0.217777
v 0.452254 -0.308322 0.217874
v 0.464074 -0.309800 0.214203
v 0.413460 -0.310288 0.275983
v 0.414653 -0.310014 0.263688
v 0.413361 -0.311922 0.275982
v 0.414584 -0.311605 0.263693
v 0.414584 -0.312183 0.288270
v 0.418157 -0.312387 0.300091
v 0.423989 -0.312530 0.310977
v 0.418254 -0.310748 0.300091
v 0.424042 -0.310930 0.310945
v 0.414653 -0.310591 0.288277
v 0.415195 -0.310375 0.288332
v 0.413959 -0.310118 0.275993
v 0.436995 -0.311003 0.288609
v 0.444550 -0.311142 0.276346
v 0.415197 -0.309794 0.263647
v 0.461950 -0.311938 0.276412
v 0.462052 -0.311930 0.290509
v 0.476417 -0.312191 0.290598
v 0.476427 -0.312312 0.276414
v 0.448737 -0.311256 0.303839
v 0.463248 -0.311263 0.320047
v 0.418827 -0.310578 0.300276
v 0.432212 -0.310800 0.320102
v 0.452003 -0.310882 0.333494
v 0.424507 -0.310719 0.310808
v 0.441535 -0.310859 0.327832
v 0.464029 -0.310894 0.337150
v 0.488658 -0.311118 0.337691
v 0.476362 -0.311077 0.338884
v 0.500471 -0.311062 0.334091
v 0.511191 -0.310864 0.327834
v 0.511326 -0.311077 0.328301
v 0.520846 -0.310990 0.320465
v 0.528217 -0.310726 0.310809
v 0.528682 -0.310938 0.310946
v 0.534471 -0.310756 0.300091
v 0.538072 -0.310600 0.288277
v 0.539363 -0.311931 0.275982
v 0.539264 -0.310297 0.275984
v 0.538141 -0.312192 0.288270
v 0.534567 -0.312395 0.300091
v 0.528736 -0.312537 0.310977
v 0.520910 -0.312628 0.320530
v 0.511357 -0.312678 0.328355
v 0.500472 -0.312701 0.334187
v 0.488651 -0.312710 0.337760
v 0.476362 -0.312710 0.338983
v 0.464074 -0.312708 0.337760
v 0.452253 -0.312698 0.334187
v 0.441367 -0.312673 0.328355
v 0.431814 -0.312622 0.320530
v 0.431879 -0.310984 0.320466
v 0.441399 -0.311074 0.328301
v 0.452254 -0.311059 0.334091
v 0.464067 -0.311115 0.337691
v 0.538072 -0.310021 0.263688
v 0.537528 -0.310383 0.288335
v 0.537527 -0.309802 0.263641
v 0.528218 -0.309086 0.241163
v 0.533900 -0.309442 0.251706
v 0.520503 -0.308727 0.231856
v 0.515521 -0.310436 0.263928
v 0.538768 -0.310127 0.275992
v 0.508285 -0.311144 0.276336
v 0.490896 -0.311939 0.276406
v 0.490772 -0.311932 0.290513
v 0.515832 -0.311006 0.288627
v 0.504048 -0.311259 0.303838
v 0.489519 -0.311265 0.320047
v 0.476363 -0.310900 0.338374
v 0.500729 -0.310886 0.333493
v 0.488698 -0.310896 0.337150
v 0.520509 -0.310806 0.320103
v 0.533899 -0.310586 0.300274
v 0.511189 -0.308422 0.224130
v 0.511327 -0.308614 0.223664
v 0.520846 -0.308894 0.231499
v 0.528681 -0.309291 0.241018
v 0.520910 -0.310529 0.231434
v 0.528736 -0.310889 0.240987
v 0.534567 -0.311260 0.251873
v 0.538141 -0.311614 0.263693
v 0.534471 -0.309623 0.251876
v 0.464074 -0.312235 0.214203
v 0.464074 -0.309800 0.214203
v 0.452252 -0.309957 0.217739
v 0.441367 -0.310207 0.223608
v 0.431788 -0.310523 0.231409
v 0.423989 -0.310882 0.240987
v 0.414584 -0.314041 0.263693
v 0.418118 -0.311252 0.251873
v 0.414584 -0.311605 0.263693
v 0.414584 -0.314619 0.288270
v 0.413321 -0.311922 0.275981
v 0.414584 -0.312183 0.288270
v 0.413560 -0.317359 0.275982
v 0.414782 -0.317620 0.288283
v 0.414783 -0.317041 0.263682
v 0.415379 -0.320537 0.288320
v 0.414157 -0.320278 0.275983
v 0.415380 -0.319956 0.263647
v 0.418925 -0.319602 0.251873
v 0.420179 -0.321991 0.251875
v 0.415459 -0.322675 0.275986
v 0.416681 -0.322346 0.263572
v 0.418349 -0.316688 0.251873
v 0.424040 -0.315350 0.241017
v 0.424671 -0.319247 0.241223
v 0.425789 -0.321657 0.241613
v 0.432329 -0.318906 0.231944
v 0.431943 -0.315968 0.231561
v 0.433175 -0.321340 0.232786
v 0.427778 -0.323116 0.242310
v 0.434685 -0.322836 0.234290
v 0.442699 -0.322542 0.227378
v 0.441998 -0.321036 0.225394
v 0.441606 -0.318595 0.224283
v 0.452255 -0.318346 0.218532
v 0.452253 -0.315403 0.217966
v 0.452258 -0.320788 0.219777
v 0.441399 -0.314667 0.223658
v 0.463819 -0.322163 0.218586
v 0.463953 -0.320643 0.216277
v 0.452263 -0.322297 0.222001
v 0.464028 -0.318194 0.214986
v 0.476366 -0.320597 0.215056
v 0.476363 -0.314600 0.213086
v 0.464062 -0.315247 0.214399
v 0.476364 -0.318142 0.213763
v 0.488699 -0.318195 0.214985
v 0.488779 -0.320645 0.216276
v 0.488663 -0.315248 0.214399
v 0.500472 -0.318349 0.218532
v 0.500473 -0.320791 0.219776
v 0.488922 -0.322165 0.218585
v 0.500475 -0.322300 0.222000
v 0.510033 -0.322547 0.227377
v 0.510730 -0.321040 0.225393
v 0.511120 -0.318599 0.224283
v 0.520396 -0.318912 0.231944
v 0.511326 -0.314676 0.223658
v 0.519550 -0.321346 0.232786
v 0.520782 -0.315974 0.231561
v 0.528685 -0.315353 0.241017
v 0.528053 -0.319254 0.241223
v 0.526935 -0.321664 0.241612
v 0.534375 -0.316696 0.251872
v 0.532546 -0.321998 0.251872
v 0.533800 -0.319610 0.251872
v 0.537345 -0.319964 0.263646
v 0.536044 -0.322354 0.263570
v 0.537265 -0.322684 0.275985
v 0.538567 -0.320286 0.275983
v 0.537942 -0.317050 0.263682
v 0.539164 -0.317368 0.275982
v 0.537942 -0.317629 0.288283
v 0.537346 -0.320545 0.288320
v 0.536046 -0.322939 0.288400
v 0.533736 -0.324374 0.288543
v 0.528464 -0.325266 0.288859
v 0.529580 -0.325033 0.275997
v 0.534951 -0.324124 0.275989
v 0.533734 -0.323783 0.263434
v 0.528462 -0.324661 0.263134
v 0.530320 -0.323425 0.251875
v 0.525410 -0.324247 0.251424
v 0.520723 -0.323888 0.242020
v 0.524947 -0.323123 0.242307
v 0.517118 -0.325479 0.262498
v 0.515434 -0.326089 0.276028
v 0.512255 -0.324738 0.245751
v 0.491033 -0.326670 0.261434
v 0.491259 -0.327358 0.276045
v 0.476426 -0.327741 0.276053
v 0.476416 -0.325021 0.238371
v 0.476428 -0.326969 0.261220
v 0.461816 -0.326670 0.261445
v 0.462988 -0.324673 0.236414
v 0.440544 -0.324736 0.245749
v 0.435676 -0.325476 0.262515
v 0.461586 -0.327357 0.276051
v 0.437364 -0.326085 0.276031
v 0.435674 -0.326110 0.289536
v 0.423158 -0.325025 0.276000
v 0.427328 -0.324241 0.251434
v 0.424277 -0.324654 0.263142
v 0.418991 -0.323775 0.263438
v 0.422405 -0.323417 0.251880
v 0.417774 -0.324115 0.275990
v 0.418989 -0.324366 0.288543
v 0.424271 -0.325259 0.288860
v 0.416679 -0.322931 0.288400
v 0.422402 -0.324552 0.300097
v 0.427320 -0.325396 0.300561
v 0.432004 -0.325479 0.309945
v 0.427778 -0.324698 0.309651
v 0.440496 -0.326157 0.306277
v 0.441285 -0.325994 0.313135
v 0.451801 -0.325630 0.325029
v 0.463510 -0.325708 0.328081
v 0.442407 -0.325565 0.320342
v 0.436231 -0.325322 0.316115
v 0.434687 -0.324792 0.317656
v 0.432011 -0.323882 0.242026
v 0.436235 -0.323435 0.235839
v 0.442418 -0.323478 0.231612
v 0.451817 -0.323323 0.226930
v 0.463523 -0.323257 0.223879
v 0.441329 -0.324248 0.238857
v 0.476381 -0.323247 0.222760
v 0.476370 -0.322125 0.217369
v 0.489819 -0.324673 0.236396
v 0.489238 -0.323258 0.223875
v 0.500937 -0.323325 0.226925
v 0.511445 -0.324251 0.238846
v 0.510324 -0.323483 0.231608
v 0.516497 -0.323441 0.235836
v 0.518042 -0.322842 0.234289
v 0.500479 -0.324830 0.329939
v 0.510033 -0.324825 0.324563
v 0.476421 -0.311638 0.290598
v 0.463248 -0.310712 0.320047
v 0.476364 -0.310348 0.338369
v 0.462045 -0.311378 0.290505
v 0.490771 -0.311380 0.290513
v 0.489519 -0.310713 0.320047
v 0.488693 -0.310344 0.337149
v 0.500683 -0.310335 0.333496
v 0.504048 -0.310707 0.303838
v 0.515849 -0.310453 0.288626
v 0.533919 -0.310034 0.300225
v 0.520532 -0.310254 0.320135
v 0.511177 -0.310313 0.327824
v 0.528204 -0.310175 0.310796
v 0.528682 -0.309934 0.310947
v 0.534471 -0.309832 0.300091
v 0.520847 -0.310064 0.320466
v 0.511327 -0.310075 0.328301
v 0.520910 -0.308880 0.320530
v 0.500472 -0.308953 0.334187
v 0.500472 -0.310138 0.334091
v 0.511357 -0.308930 0.328355
v 0.488657 -0.310099 0.337692
v 0.488651 -0.308962 0.337760
v 0.476362 -0.310143 0.338885
v 0.476362 -0.308962 0.338983
v 0.464068 -0.310098 0.337692
v 0.452253 -0.308950 0.334187
v 0.464074 -0.308960 0.337760
v 0.452253 -0.310135 0.334091
v 0.441398 -0.310070 0.328302
v 0.431814 -0.308874 0.320530
v 0.431878 -0.310057 0.320466
v 0.441367 -0.308925 0.328355
v 0.418253 -0.309824 0.300092
v 0.424042 -0.309926 0.310946
v 0.418157 -0.308639 0.300091
v 0.423989 -0.308782 0.310977
v 0.413361 -0.308174 0.275982
v 0.414584 -0.308435 0.288270
v 0.413459 -0.309356 0.275983
v 0.414652 -0.309573 0.288277
v 0.415193 -0.309823 0.288325
v 0.413981 -0.309567 0.275993
v 0.437001 -0.310451 0.288610
v 0.415195 -0.309243 0.263654
v 0.418804 -0.308885 0.251755
v 0.432195 -0.308167 0.231828
v 0.424522 -0.308528 0.241175
v 0.441549 -0.307866 0.224140
v 0.452064 -0.307622 0.218456
v 0.463269 -0.308649 0.232342
v 0.464034 -0.307462 0.214812
v 0.476361 -0.307410 0.213593
v 0.489521 -0.308649 0.232333
v 0.488691 -0.307464 0.214811
v 0.500668 -0.307626 0.218458
v 0.520528 -0.308174 0.231827
v 0.511176 -0.307870 0.224138
v 0.511328 -0.307611 0.223662
v 0.500471 -0.307400 0.217872
v 0.520847 -0.307968 0.231497
v 0.528682 -0.308286 0.241016
v 0.520910 -0.306781 0.231434
v 0.528736 -0.307141 0.240987
v 0.534472 -0.308697 0.251874
v 0.537989 -0.309087 0.263688
v 0.538141 -0.308627 0.263693
v 0.539265 -0.309365 0.275983
v 0.538073 -0.309582 0.288277
v 0.534567 -0.308647 0.300091
v 0.538141 -0.308444 0.288270
v 0.528736 -0.308789 0.310977
v 0.528202 -0.308535 0.241174
v 0.533921 -0.308893 0.251762
v 0.515637 -0.309879 0.263899
v 0.537530 -0.309251 0.263656
v 0.538743 -0.309576 0.275989
v 0.537529 -0.309832 0.288323
v 0.508179 -0.310596 0.276338
v 0.490896 -0.311387 0.276406
v 0.476427 -0.311760 0.276414
v 0.476430 -0.310968 0.262178
v 0.490827 -0.310717 0.262321
v 0.504045 -0.309413 0.248761
v 0.462020 -0.310717 0.262337
v 0.448768 -0.309412 0.248781
v 0.437241 -0.309880 0.263942
v 0.461950 -0.311386 0.276412
v 0.444663 -0.310595 0.276347
v 0.448737 -0.310704 0.303839
v 0.452048 -0.310332 0.333498
v 0.418801 -0.310025 0.300216
v 0.432193 -0.310248 0.320135
v 0.424521 -0.310168 0.310796
v 0.441547 -0.310308 0.327824
v 0.464035 -0.310343 0.337151
v 0.534567 -0.307512 0.251873
v 0.539363 -0.308182 0.275982
v 0.538141 -0.308444 0.288270
v 0.534567 -0.308647 0.300091
v 0.528736 -0.308789 0.310977
v 0.511357 -0.308930 0.328355
v 0.488651 -0.308962 0.337760
v 0.464074 -0.308960 0.337760
v 0.452253 -0.308950 0.334187
v 0.476362 -0.308962 0.338983
v 0.464074 -0.283971 0.337760
v 0.488651 -0.283972 0.337760
v 0.476362 -0.283973 0.338983
v 0.500472 -0.283964 0.334187
v 0.500472 -0.308953 0.334187
v 0.511357 -0.283941 0.328355
v 0.520910 -0.308880 0.320530
v 0.520910 -0.283891 0.320530
v 0.528736 -0.283800 0.310977
v 0.534567 -0.283658 0.300091
v 0.538141 -0.283454 0.288270
v 0.539363 -0.283193 0.275982
v 0.538141 -0.282876 0.263693
v 0.534567 -0.282523 0.251873
v 0.452253 -0.283960 0.334187
v 0.441367 -0.283936 0.328355
v 0.431814 -0.283884 0.320530
v 0.423989 -0.283792 0.310977
v 0.418157 -0.283650 0.300091
v 0.414584 -0.283446 0.288270
v 0.418157 -0.308639 0.300091
v 0.414584 -0.308435 0.288270
v 0.423989 -0.308782 0.310977
v 0.431814 -0.308874 0.320530
v 0.441367 -0.308925 0.328355
v 0.414584 -0.307857 0.263693
v 0.418157 -0.307504 0.251873
v 0.413361 -0.308174 0.275982
v 0.414584 -0.282868 0.263693
v 0.413361 -0.283184 0.275982
v 0.418157 -0.282515 0.251873
v 0.423989 -0.282145 0.240987
v 0.431814 -0.281788 0.231434
v 0.441367 -0.281471 0.223608
v 0.452253 -0.281220 0.217777
v 0.464074 -0.281062 0.214203
v 0.452253 -0.306209 0.217777
v 0.464074 -0.306051 0.214203
v 0.441367 -0.306459 0.223608
v 0.431814 -0.306775 0.231434
v 0.423989 -0.307133 0.240987
v 0.488651 -0.306053 0.214203
v 0.500472 -0.306213 0.217777
v 0.476362 -0.305996 0.212981
v 0.488651 -0.281064 0.214203
v 0.476362 -0.281006 0.212981
v 0.500472 -0.281224 0.217777
v 0.511357 -0.281476 0.223608
v 0.520910 -0.281794 0.231434
v 0.528736 -0.282153 0.240987
v 0.534567 -0.282523 0.251873
v 0.534567 -0.307512 0.251873
v 0.528736 -0.307141 0.240987
v 0.520910 -0.306781 0.231434
v 0.511357 -0.306464 0.223609
v 0.511357 -0.306464 0.223608
v 0.500472 -0.306213 0.217777
v 0.488651 -0.306053 0.214203
v 0.476362 -0.305996 0.212981
v 0.464074 -0.306051 0.214203
v 0.452253 -0.306209 0.217777
v 0.441367 -0.306459 0.223608
v 0.431814 -0.306775 0.231434
v 0.423989 -0.307133 0.240987
v 0.418157 -0.307504 0.251873
v 0.414584 -0.307857 0.263693
v 0.418253 -0.308689 0.251874
v 0.414652 -0.308994 0.263687
v 0.424042 -0.308278 0.241017
v 0.431878 -0.307961 0.231497
v 0.441398 -0.307605 0.223661
v 0.452254 -0.307397 0.217872
v 0.464068 -0.307190 0.214270
v 0.476362 -0.307181 0.213078
v 0.488656 -0.307192 0.214270
vn 0.6773 -0.0000 -0.7357
vn 0.6774 -0.0000 -0.7356
vn 0.4638 -0.0000 -0.8860
vn 0.4955 0.0938 -0.8636
vn 0.8446 -0.0000 -0.5354
vn 0.8450 -0.0000 -0.5347
vn 0.9545 -0.0000 -0.2981
vn 0.9544 -0.0000 -0.2987
vn 0.9991 -0.0000 -0.0414
vn 0.9990 -0.0000 -0.0441
vn 0.9770 -0.0000 0.2134
vn 0.9758 -0.0000 0.2186
vn 0.8860 -0.0000 0.4637
vn 0.8882 -0.0000 0.4594
vn 0.7377 -0.0000 0.6751
vn 0.7358 -0.0000 0.6772
vn 0.5355 -0.0000 0.8446
vn 0.5372 -0.0000 0.8435
vn 0.3002 -0.0000 0.9539
vn 0.2986 -0.0000 0.9544
vn 0.0414 -0.0000 0.9991
vn 0.0429 -0.0000 0.9991
vn -0.2176 -0.0000 0.9760
vn -0.2185 -0.0000 0.9758
vn -0.4639 -0.0000 0.8859
vn -0.4635 -0.0000 0.8861
vn -0.6777 -0.0000 0.7353
vn -0.6770 -0.0000 0.7360
vn -0.8446 -0.0000 0.5355
vn -0.9549 -0.0000 0.2969
vn -0.9544 -0.0000 0.2986
vn -0.8453 -0.0000 0.5343
vn -0.9991 -0.0000 0.0415
vn -0.9753 -0.0000 -0.2209
vn -0.9758 -0.0000 -0.2185
vn -0.9992 -0.0000 0.0392
vn -0.8860 -0.0000 -0.4636
vn -0.7342 -0.0000 -0.6789
vn -0.7358 -0.0000 -0.6772
vn -0.8848 -0.0000 -0.4659
vn -0.5355 -0.0000 -0.8446
vn -0.2970 -0.0000 -0.9549
vn -0.2986 -0.0000 -0.9544
vn -0.5336 -0.0000 -0.8457
vn -0.0414 -0.0000 -0.9991
vn 0.2199 -0.0000 -0.9755
vn 0.2185 -0.0000 -0.9758
vn -0.0398 -0.0000 -0.9992
vn 0.4636 0.0017 -0.8860
vn 0.4265 0.0944 -0.8995
vn -0.0007 -0.9988 0.0493
vn -0.0205 -0.9985 0.0501
vn -0.0329 -0.9993 0.0156
vn 0.0328 -0.9993 0.0157
vn 0.0203 -0.9985 0.0500
vn -0.0000 -0.9998 0.0188
vn 0.0258 -0.9931 0.1148
vn -0.0003 -0.9935 0.1141
vn 0.0528 -0.9919 0.1159
vn 0.0542 -0.9973 0.0502
vn 0.0516 -0.9984 0.0249
vn 0.0609 -0.9981 0.0013
vn 0.1224 -0.9917 0.0391
vn 0.1313 -0.9876 0.0864
vn 0.0989 -0.9869 0.1272
vn 0.1446 -0.9799 0.1371
vn 0.3365 -0.9150 0.2226
vn 0.3560 -0.9245 0.1363
vn 0.6984 -0.6573 0.2831
vn 0.2952 -0.9110 0.2879
vn 0.6325 -0.6481 0.4241
vn 0.5400 -0.6499 0.5348
vn 0.7918 -0.3028 0.5305
vn 0.7031 -0.1115 0.7022
vn 0.6733 -0.3107 0.6709
vn 0.8776 -0.3159 0.3605
vn 0.9185 -0.1135 0.3787
vn 0.8290 -0.0884 0.5522
vn 0.5535 -0.0885 0.8281
vn 0.5335 -0.3032 0.7896
vn 0.7069 -0.0350 0.7065
vn 0.3803 -0.1139 0.9178
vn 0.3649 -0.3167 0.8755
vn 0.4304 -0.6487 0.6276
vn 0.2921 -0.6581 0.6939
vn 0.1837 -0.3343 0.9244
vn 0.1932 -0.1297 0.9725
vn 0.1435 -0.6782 0.7207
vn -0.0000 -0.6879 0.7258
vn -0.0000 -0.1240 0.9923
vn -0.0000 -0.3432 0.9393
vn -0.0708 -0.9337 0.3510
vn -0.0001 -0.9369 0.3496
vn -0.1436 -0.6784 0.7205
vn -0.1837 -0.3344 0.9243
vn 0.0707 -0.9336 0.3512
vn -0.3803 -0.1140 0.9178
vn -0.3649 -0.3170 0.8754
vn -0.2921 -0.6584 0.6937
vn -0.1932 -0.1298 0.9725
vn -0.1492 -0.9250 0.3493
vn -0.2315 -0.9154 0.3293
vn -0.4303 -0.6490 0.6274
vn -0.5334 -0.3034 0.7896
vn -0.5533 -0.0884 0.8283
vn -0.7031 -0.1115 0.7023
vn -0.6733 -0.3108 0.6709
vn -0.5399 -0.6501 0.5347
vn -0.7918 -0.3028 0.5305
vn -0.6325 -0.6482 0.4241
vn -0.6984 -0.6573 0.2830
vn -0.9185 -0.1136 0.3787
vn -0.8776 -0.3159 0.3605
vn -0.8289 -0.0881 0.5524
vn -0.9246 -0.0338 0.3795
vn -0.8315 -0.0134 0.5553
vn -0.7072 -0.0351 0.7061
vn -0.5556 -0.0134 0.8313
vn -0.3819 -0.0344 0.9236
vn -0.1944 -0.0330 0.9804
vn -0.1953 -0.0000 0.9808
vn -0.0000 -0.0387 0.9993
vn 0.1944 -0.0330 0.9804
vn 0.1952 -0.0000 0.9808
vn 0.3814 -0.0345 0.9238
vn 0.5556 -0.0134 0.8313
vn 0.8317 -0.0134 0.5551
vn 0.9239 -0.0343 0.3810
vn 0.9805 -0.0324 0.1938
vn 0.9808 -0.0000 0.1952
vn 0.9993 -0.0385 -0.0016
vn 0.9801 -0.0335 -0.1955
vn 0.9808 -0.0000 -0.1952
vn 0.9229 -0.0350 -0.3835
vn 0.8275 -0.0873 -0.5546
vn 0.8313 -0.0133 -0.5556
vn 0.7058 -0.0339 -0.7076
vn 0.5511 -0.0860 -0.8300
vn 0.5540 -0.0131 -0.8324
vn 0.3833 0.0177 -0.9234
vn 0.3776 -0.0974 -0.9208
vn 0.1943 -0.0301 -0.9805
vn 0.1910 0.1582 -0.9688
vn 0.4683 0.5620 -0.6818
vn 0.5557 0.0393 -0.8304
vn 0.2964 0.5868 -0.7536
vn 0.1409 0.7246 -0.6747
vn -0.0144 0.6086 -0.7934
vn -0.0009 0.0198 -0.9998
vn -0.1624 0.5650 -0.8090
vn -0.0447 0.9881 -0.1469
vn 0.0271 0.9940 -0.1058
vn -0.0018 0.9929 -0.1185
vn 0.0781 0.9878 -0.1350
vn -0.0136 0.9976 0.0680
vn -0.0001 0.9981 0.0620
vn -0.0285 0.9980 0.0570
vn -0.0250 0.9979 0.0597
vn 0.0133 0.9976 0.0682
vn 0.0251 0.9979 0.0597
vn 0.0281 0.9980 0.0573
vn -0.0896 0.9866 -0.1366
vn 0.0304 0.9986 0.0431
vn -0.1654 0.9848 -0.0521
vn -0.1250 0.9886 -0.0844
vn -0.1848 0.9786 -0.0906
vn -0.1339 0.9778 -0.1612
vn -0.5822 0.5953 -0.5538
vn -0.7098 0.5467 -0.4441
vn -0.7470 0.5985 -0.2895
vn -0.8315 0.0394 -0.5541
vn -0.9236 0.0539 -0.3796
vn -0.7071 0.0547 -0.7050
vn -0.4658 0.5620 -0.6836
vn -0.3819 0.0539 -0.9226
vn -0.5558 0.0394 -0.8304
vn -0.3261 0.5951 -0.7345
vn -0.1950 0.0426 -0.9799
vn -0.8120 0.5651 -0.1459
vn -0.9983 0.0591 0.0012
vn -0.7998 0.6002 0.0075
vn -0.9803 0.0421 -0.1930
vn -0.8133 0.5539 0.1784
vn -0.9799 0.0418 0.1949
vn -0.9227 0.0532 0.3818
vn -0.6957 0.5378 0.4761
vn -0.7520 0.5874 0.2993
vn -0.8307 0.0387 0.5554
vn -0.1805 0.9733 0.1421
vn -0.1628 0.9820 0.0963
vn -0.1847 0.9812 0.0552
vn -0.1610 0.9866 0.0258
vn 0.0317 0.9995 0.0047
vn 0.0376 0.9990 0.0243
vn -0.1952 0.9807 -0.0084
vn 0.0284 0.9995 -0.0106
vn 0.0326 0.9992 0.0235
vn 0.0255 0.9996 -0.0132
vn 0.0010 0.9999 -0.0160
vn -0.0000 0.9997 0.0235
vn 0.0133 0.9997 -0.0218
vn -0.0850 0.9815 0.1718
vn -0.1220 0.9839 0.1306
vn -0.1355 0.9697 0.2034
vn 0.0487 0.9788 0.1991
vn 0.1556 0.5608 0.8132
vn 0.3059 0.5920 0.7456
vn -0.0118 0.5934 0.8048
vn 0.0036 0.9864 0.1640
vn 0.0873 0.9794 0.1821
vn 0.1392 0.9701 0.1990
vn 0.4562 0.5476 0.7015
vn 0.5784 0.5809 0.5727
vn 0.1239 0.9835 0.1318
vn 0.1979 0.9684 0.1518
vn 0.6926 0.5461 0.4713
vn 0.7591 0.5796 0.2963
vn 0.1685 0.9818 0.0875
vn 0.1847 0.9812 0.0550
vn 0.8100 0.5616 0.1689
vn 0.9799 0.0418 0.1949
vn 0.9983 0.0591 0.0012
vn 0.7993 0.6007 0.0142
vn 0.9228 0.0531 0.3817
vn 0.8307 0.0388 0.5554
vn 0.7056 0.0540 0.7066
vn 0.5552 0.0388 0.8308
vn 0.3809 0.0533 0.9231
vn 0.1941 0.0417 0.9801
vn -0.0000 0.0590 0.9983
vn -0.1681 0.5542 0.8152
vn -0.1941 0.0417 0.9801
vn -0.3809 0.0533 0.9231
vn -0.3211 0.5800 0.7487
vn -0.4705 0.5382 0.6992
vn -0.5548 0.0389 0.8311
vn -0.7056 0.0542 0.7065
vn -0.5715 0.5840 0.5764
vn -0.0435 0.9783 0.2028
vn 0.8207 0.5521 -0.1472
vn 0.1845 0.9828 -0.0093
vn 0.1584 0.9871 0.0248
vn 0.1738 0.9838 -0.0438
vn 0.2027 0.9741 -0.1006
vn 0.1258 0.9884 -0.0850
vn -0.0301 0.9987 0.0423
vn -0.0375 0.9990 0.0242
vn -0.0326 0.9992 0.0235
vn -0.0285 0.9995 -0.0111
vn -0.0301 0.9995 0.0046
vn -0.0254 0.9996 -0.0133
vn -0.0132 0.9997 -0.0219
vn 0.1274 0.9788 -0.1603
vn 0.5822 0.5957 -0.5534
vn 0.6996 0.5577 -0.4467
vn 0.7070 0.0542 -0.7051
vn 0.8316 0.0393 -0.5540
vn 0.9236 0.0538 -0.3796
vn 0.9803 0.0422 -0.1930
vn 0.7468 0.5983 -0.2903
vn -0.1945 -0.0311 -0.9804
vn -0.1937 -0.0000 -0.9811
vn 0.0002 -0.1056 -0.9944
vn -0.3793 -0.0333 -0.9247
vn -0.5511 -0.0855 -0.8300
vn -0.5552 -0.0132 -0.8316
vn -0.7046 -0.0329 -0.7088
vn -0.8272 -0.0868 -0.5552
vn -0.8312 -0.0133 -0.5558
vn -0.9223 -0.0332 -0.3850
vn -0.9800 -0.0330 -0.1960
vn -0.9808 -0.0000 -0.1951
vn -0.9993 -0.0378 -0.0023
vn -0.9803 -0.0330 0.1945
vn -0.9808 -0.0000 0.1952
vn -0.9923 -0.1236 -0.0029
vn -0.9731 -0.1292 0.1908
vn -0.9260 -0.3332 0.1774
vn -0.9720 -0.1292 -0.1965
vn -0.9233 -0.3325 -0.1924
vn -0.9397 -0.3418 -0.0080
vn -0.9167 -0.1132 -0.3832
vn -0.8730 -0.3142 -0.3730
vn -0.6920 -0.6517 -0.3105
vn -0.7207 -0.6741 -0.1618
vn -0.7279 -0.6855 -0.0161
vn -0.7864 -0.2993 -0.5403
vn -0.6246 -0.6397 -0.4479
vn -0.5317 -0.6390 -0.5558
vn -0.7008 -0.1095 -0.7049
vn -0.6676 -0.3052 -0.6791
vn -0.3317 -0.9065 -0.2611
vn -0.2898 -0.9005 -0.3242
vn -0.2265 -0.9033 -0.3643
vn -0.4227 -0.6358 -0.6458
vn -0.5282 -0.2966 -0.7956
vn -0.2863 -0.6434 -0.7099
vn -0.3786 -0.1110 -0.9189
vn -0.3608 -0.3088 -0.8800
vn -0.0691 -0.9201 -0.3856
vn -0.1457 -0.9119 -0.3837
vn -0.1406 -0.6620 -0.7362
vn -0.1810 -0.3248 -0.9283
vn -0.0001 -0.3297 -0.9441
vn -0.0000 -0.6708 -0.7416
vn -0.1925 -0.1272 -0.9730
vn 0.1815 -0.3243 -0.9284
vn 0.1405 -0.6617 -0.7365
vn 0.2865 -0.6430 -0.7103
vn 0.1920 -0.1279 -0.9730
vn 0.3612 -0.3056 -0.8810
vn 0.0691 -0.9200 -0.3859
vn 0.1458 -0.9117 -0.3841
vn 0.2268 -0.9031 -0.3647
vn 0.4229 -0.6354 -0.6461
vn 0.5281 -0.2961 -0.7959
vn 0.7008 -0.1095 -0.7049
vn 0.6677 -0.3050 -0.6791
vn 0.5319 -0.6388 -0.5559
vn 0.7865 -0.2991 -0.5404
vn 0.6247 -0.6395 -0.4480
vn 0.6921 -0.6516 -0.3106
vn 0.9167 -0.1132 -0.3832
vn 0.8730 -0.3141 -0.3731
vn 0.9233 -0.3325 -0.1924
vn 0.9719 -0.1292 -0.1966
vn 0.7207 -0.6741 -0.1618
vn 0.7279 -0.6855 -0.0161
vn 0.9397 -0.3419 -0.0080
vn 0.9923 -0.1236 -0.0029
vn 0.9731 -0.1292 0.1909
vn 0.9260 -0.3332 0.1774
vn 0.7242 -0.6770 0.1309
vn 0.3566 -0.9327 0.0533
vn 0.1214 -0.9926 0.0073
vn 0.1206 -0.9924 -0.0233
vn 0.3542 -0.9349 -0.0220
vn 0.3551 -0.9298 -0.0968
vn 0.1211 -0.9912 -0.0539
vn 0.1217 -0.9889 -0.0854
vn 0.3528 -0.9186 -0.1779
vn 0.0604 -0.9970 -0.0479
vn 0.0536 -0.9939 -0.0963
vn 0.1298 -0.9828 -0.1312
vn 0.0520 -0.9961 -0.0717
vn 0.3319 -0.9064 -0.2614
vn 0.0607 -0.9979 -0.0241
vn 0.0328 -0.9975 -0.0624
vn 0.0360 -0.9991 -0.0234
vn -0.0000 -0.9997 -0.0234
vn -0.0000 -0.9979 -0.0654
vn -0.0007 -0.9954 -0.0955
vn 0.0207 -0.9951 -0.0967
vn -0.0328 -0.9975 -0.0624
vn -0.0361 -0.9991 -0.0234
vn -0.0203 -0.9950 -0.0975
vn -0.0514 -0.9961 -0.0715
vn -0.0609 -0.9970 -0.0482
vn -0.0607 -0.9979 -0.0241
vn -0.0610 -0.9981 0.0014
vn -0.1204 -0.9925 -0.0232
vn -0.1211 -0.9912 -0.0538
vn -0.1207 -0.9889 -0.0863
vn -0.3549 -0.9299 -0.0967
vn -0.3541 -0.9349 -0.0220
vn -0.3525 -0.9188 -0.1777
vn -0.3565 -0.9328 0.0533
vn -0.1213 -0.9926 0.0072
vn -0.1223 -0.9917 0.0392
vn -0.7242 -0.6770 0.1309
vn -0.3559 -0.9245 0.1363
vn -0.0541 -0.9972 0.0510
vn -0.1312 -0.9876 0.0862
vn -0.0522 -0.9983 0.0249
vn -0.3365 -0.9150 0.2225
vn -0.0555 -0.9919 0.1144
vn -0.0259 -0.9931 0.1147
vn -0.0990 -0.9869 0.1272
vn -0.1468 -0.9800 0.1340
vn -0.2951 -0.9111 0.2877
vn -0.0536 -0.9939 -0.0963
vn -0.1297 -0.9829 -0.1310
vn -0.1442 -0.9736 -0.1771
vn -0.0975 -0.9805 -0.1707
vn -0.0517 -0.9858 -0.1600
vn -0.0254 -0.9870 -0.1589
vn -0.0001 -0.9874 -0.1584
vn 0.0253 -0.9870 -0.1589
vn -0.0001 -0.9232 -0.3844
vn 0.0523 -0.9858 -0.1596
vn 0.0972 -0.9805 -0.1709
vn 0.1423 -0.9733 -0.1803
vn 0.2901 -0.9003 -0.3245
vn 0.1493 -0.9249 0.3496
vn 0.2316 -0.9153 0.3295
vn -0.0133 -0.9997 0.0218
vn -0.0285 -0.9995 0.0110
vn 0.0005 -0.9999 0.0173
vn 0.0041 -0.9770 0.2131
vn 0.0135 -0.9997 0.0213
vn 0.0284 -0.9995 0.0110
vn 0.0569 -0.9695 0.2382
vn 0.1052 -0.9733 0.2042
vn 0.0254 -0.9996 0.0132
vn 0.0314 -0.9995 -0.0046
vn 0.2179 -0.9725 0.0827
vn 0.1563 -0.9768 0.1462
vn 0.1912 -0.9748 0.1145
vn 0.1332 -0.9706 0.2003
vn 0.7617 -0.5804 0.2878
vn 0.5861 -0.5744 0.5715
vn 0.7033 -0.5420 0.4600
vn 0.4722 -0.5295 0.7047
vn 0.7057 -0.0743 0.7046
vn 0.5549 -0.0535 0.8302
vn 0.3802 -0.0735 0.9220
vn 0.3086 -0.5868 0.7486
vn 0.1632 -0.5401 0.8256
vn 0.1938 -0.0576 0.9794
vn -0.0000 -0.0812 0.9967
vn -0.0141 -0.5800 0.8145
vn -0.1682 -0.5496 0.8183
vn -0.1938 -0.0576 0.9793
vn -0.3802 -0.0736 0.9220
vn -0.3088 -0.5869 0.7485
vn -0.0540 -0.9722 0.2279
vn -0.1051 -0.9734 0.2036
vn -0.1300 -0.9742 0.1845
vn -0.4716 -0.5294 0.7052
vn -0.5549 -0.0536 0.8302
vn -0.7054 -0.0749 0.7048
vn -0.5861 -0.5741 0.5717
vn -0.7014 -0.5409 0.4641
vn -0.8306 -0.0534 0.5543
vn -0.9225 -0.0734 0.3790
vn -0.7677 -0.5737 0.2856
vn -0.8203 -0.5504 0.1556
vn -0.9796 -0.0575 0.1926
vn -0.9967 -0.0811 -0.0019
vn -0.8077 -0.5895 -0.0137
vn -0.2367 -0.9712 0.0284
vn -0.2198 -0.9753 -0.0223
vn -0.2071 -0.9746 0.0852
vn -0.0306 -0.9995 -0.0038
vn -0.0378 -0.9990 -0.0238
vn -0.0314 -0.9986 -0.0426
vn -0.2420 -0.9666 -0.0842
vn -0.2141 -0.9684 -0.1282
vn -0.1977 -0.9648 -0.1737
vn -0.1563 -0.9688 -0.1924
vn -0.1034 -0.9637 -0.2463
vn -0.0487 -0.9577 -0.2836
vn -0.0132 -0.9976 -0.0679
vn -0.1429 -0.9610 -0.2369
vn 0.0002 -0.9664 -0.2569
vn 0.0565 -0.9605 -0.2724
vn 0.0131 -0.9976 -0.0679
vn 0.0938 -0.9636 -0.2504
vn 0.1251 -0.9650 -0.2307
vn 0.1531 -0.9693 -0.1923
vn 0.2903 -0.5664 -0.7713
vn 0.5685 -0.5631 -0.5998
vn 0.4573 -0.5297 -0.7143
vn 0.1811 -0.9690 -0.1679
vn 0.7020 -0.5220 -0.4845
vn 0.7038 -0.0737 -0.7065
vn 0.8296 -0.0534 -0.5558
vn 0.9523 -0.0663 -0.2978
vn 0.7467 -0.5798 -0.3260
vn 0.2082 -0.9703 -0.1230
vn 0.1902 -0.9793 -0.0689
vn 0.7058 -0.6901 -0.1601
vn 0.9685 -0.1536 -0.1960
vn 0.9992 -0.0400 -0.0002
vn 0.8069 -0.5906 -0.0126
vn 0.2123 -0.9769 -0.0246
vn 0.2356 -0.9714 0.0284
vn 0.8280 -0.5398 0.1515
vn 0.9796 -0.0576 0.1926
vn 0.9225 -0.0733 0.3791
vn 0.8308 -0.0535 0.5540
vn 0.0308 -0.9986 -0.0422
vn 0.0374 -0.9990 -0.0240
vn 0.0326 -0.9992 -0.0234
vn 0.0282 -0.9980 -0.0571
vn -0.0000 -0.9997 -0.0235
vn 0.0009 -0.9980 -0.0626
vn 0.0250 -0.9979 -0.0597
vn -0.0282 -0.9980 -0.0571
vn -0.0326 -0.9992 -0.0235
vn -0.0251 -0.9979 -0.0597
vn -0.0255 -0.9996 0.0132
vn -0.1567 -0.9761 0.1503
vn -0.2044 -0.9708 0.1255
vn -0.1951 -0.0000 0.9808
vn -0.0000 -0.0000 1.0000
vn 0.1951 -0.0000 0.9808
vn 0.3826 -0.0000 0.9239
vn 0.3828 -0.0000 0.9239
vn 0.5554 -0.0000 0.8316
vn 0.5557 -0.0000 0.8314
vn 0.7068 -0.0000 0.7074
vn 0.7073 -0.0000 0.7069
vn 0.8318 -0.0000 0.5551
vn 0.8311 -0.0000 0.5561
vn 0.9235 -0.0000 0.3835
vn 0.9242 -0.0000 0.3818
vn 0.9810 -0.0000 0.1940
vn 0.9806 -0.0000 0.1963
vn 1.0000 -0.0000 -0.0015
vn 0.9805 -0.0000 -0.1968
vn 0.9326 0.0709 -0.3539
vn -0.3827 -0.0000 0.9239
vn -0.3826 -0.0000 0.9239
vn -0.5557 -0.0000 0.8314
vn -0.9235 -0.0000 0.3835
vn -0.9242 -0.0000 0.3818
vn -0.9810 -0.0000 0.1940
vn -0.8318 -0.0000 0.5551
vn -0.9806 -0.0000 0.1963
vn -0.8311 -0.0000 0.5561
vn -0.7068 -0.0000 0.7074
vn -0.5554 -0.0000 0.8316
vn -0.7074 -0.0000 0.7068
vn -0.9805 -0.0000 -0.1968
vn -0.9811 -0.0000 -0.1935
vn -1.0000 -0.0000 0.0015
vn -1.0000 -0.0000 -0.0015
vn -0.9232 -0.0000 -0.3844
vn -0.9246 -0.0000 -0.3810
vn -0.8304 -0.0000 -0.5571
vn -0.3836 -0.0000 -0.9235
vn -0.3817 -0.0000 -0.9243
vn -0.1946 -0.0000 -0.9809
vn -0.5544 -0.0000 -0.8323
vn -0.1956 -0.0000 -0.9807
vn -0.5568 -0.0000 -0.8307
vn -0.7083 -0.0000 -0.7059
vn -0.8325 -0.0000 -0.5541
vn -0.7059 -0.0000 -0.7083
vn 0.1946 -0.0000 -0.9809
vn 0.1956 -0.0000 -0.9807
vn -0.0000 -0.0000 -1.0000
vn 0.5568 -0.0000 -0.8307
vn 0.3837 -0.0000 -0.9235
vn 0.3827 -0.0000 -0.9239
vn 0.5555 -0.0000 -0.8315
vn 0.7071 -0.0000 -0.7071
vn 0.7083 -0.0000 -0.7059
vn 0.8304 -0.0000 -0.5571
vn 0.9107 0.0688 -0.4073
vn 0.9097 -0.0709 -0.4092
vn 0.8325 -0.0000 -0.5540
vn 0.5536 -0.0525 -0.8311
vn 0.3791 -0.0729 -0.9225
vn 0.1661 -0.5279 -0.8329
vn 0.1928 -0.0568 -0.9796
vn -0.0000 -0.0801 -0.9968
vn -0.1663 -0.5281 -0.8327
vn -0.1932 -0.0568 -0.9795
vn -0.0003 -0.5744 -0.8186
vn -0.3789 -0.0729 -0.9226
vn -0.4678 -0.5222 -0.7131
vn -0.5536 -0.0531 -0.8311
vn -0.3047 -0.5705 -0.7627
vn -0.7038 -0.0743 -0.7065
vn -0.6960 -0.5267 -0.4881
vn -0.8295 -0.0534 -0.5560
vn -0.5688 -0.5627 -0.5999
vn -0.9212 -0.0735 -0.3821
vn -0.8190 -0.5442 -0.1819
vn -0.9791 -0.0576 -0.1953
vn -0.7498 -0.5681 -0.3392
vt 0.021248 0.774682
vt 0.026892 0.774693
vt 0.026175 0.770167
vt 0.021942 0.770159
vt 0.026866 0.780725
vt 0.021222 0.780715
vt 0.021112 0.786747
vt 0.026755 0.786757
vt 0.026764 0.792790
vt 0.021120 0.792779
vt 0.021450 0.798812
vt 0.027094 0.798823
vt 0.027502 0.804856
vt 0.021858 0.804845
vt 0.022099 0.810878
vt 0.027742 0.810889
vt 0.027888 0.816922
vt 0.022245 0.816911
vt 0.022368 0.822944
vt 0.028011 0.822954
vt 0.028113 0.828987
vt 0.022470 0.828976
vt 0.022552 0.835009
vt 0.028196 0.835019
vt 0.028233 0.841052
vt 0.022589 0.841041
vt 0.022554 0.847074
vt 0.028197 0.847084
vt 0.028107 0.853116
vt 0.022336 0.859138
vt 0.027980 0.859149
vt 0.022464 0.853106
vt 0.027826 0.865181
vt 0.022010 0.871202
vt 0.027654 0.871213
vt 0.022182 0.865170
vt 0.027472 0.877245
vt 0.021644 0.883266
vt 0.027287 0.883277
vt 0.021828 0.877234
vt 0.027116 0.889309
vt 0.021330 0.895330
vt 0.026974 0.895341
vt 0.021473 0.889298
vt 0.026848 0.901373
vt 0.021081 0.907395
vt 0.026725 0.907405
vt 0.021204 0.901362
vt 0.025928 0.911928
vt 0.021695 0.911920
vt 0.447662 0.183143
vt 0.440750 0.180805
vt 0.437761 0.193831
vt 0.453035 0.196704
vt 0.454944 0.183491
vt 0.445425 0.195136
vt 0.455812 0.176884
vt 0.449178 0.175011
vt 0.461644 0.179673
vt 0.465895 0.187062
vt 0.465039 0.192572
vt 0.466548 0.199923
vt 0.472005 0.194987
vt 0.470498 0.189592
vt 0.466099 0.183083
vt 0.468924 0.185918
vt 0.472739 0.190154
vt 0.474590 0.195719
vt 0.476106 0.195884
vt 0.469932 0.185243
vt 0.474182 0.189862
vt 0.471172 0.184415
vt 0.475643 0.189439
vt 0.473759 0.182702
vt 0.472452 0.183565
vt 0.477645 0.195853
vt 0.479198 0.195684
vt 0.477595 0.188742
vt 0.469599 0.176886
vt 0.468193 0.178401
vt 0.476413 0.180963
vt 0.463740 0.172779
vt 0.462976 0.174141
vt 0.467239 0.179581
vt 0.462354 0.175543
vt 0.456910 0.170980
vt 0.457428 0.169495
vt 0.456487 0.172484
vt 0.450005 0.170578
vt 0.450583 0.167495
vt 0.450293 0.169040
vt 0.442985 0.171549
vt 0.449715 0.172131
vt 0.443273 0.170001
vt 0.443423 0.168446
vt 0.456197 0.174031
vt 0.436405 0.167644
vt 0.436623 0.169190
vt 0.436696 0.170723
vt 0.443478 0.166875
vt 0.436562 0.172237
vt 0.431000 0.174145
vt 0.430677 0.172712
vt 0.430216 0.171266
vt 0.429455 0.169345
vt 0.423468 0.173254
vt 0.424373 0.174532
vt 0.425257 0.175788
vt 0.419267 0.178847
vt 0.420475 0.179771
vt 0.416497 0.184684
vt 0.413688 0.183375
vt 0.415074 0.184096
vt 0.417703 0.177491
vt 0.410966 0.181749
vt 0.415749 0.175691
vt 0.421624 0.170671
vt 0.428385 0.166910
vt 0.435754 0.164534
vt 0.443480 0.165278
vt 0.443455 0.163668
vt 0.451178 0.164325
vt 0.458005 0.168006
vt 0.458612 0.166515
vt 0.465474 0.170116
vt 0.471478 0.175005
vt 0.480066 0.187774
vt 0.482325 0.195155
vt 0.481487 0.202793
vt 0.483077 0.202825
vt 0.482346 0.210496
vt 0.478694 0.217233
vt 0.480150 0.217878
vt 0.476580 0.224700
vt 0.469879 0.228774
vt 0.471724 0.230689
vt 0.465769 0.235627
vt 0.457997 0.236813
vt 0.458902 0.239298
vt 0.454980 0.242228
vt 0.451153 0.238748
vt 0.444269 0.240785
vt 0.444270 0.242688
vt 0.457626 0.245479
vt 0.457855 0.244946
vt 0.451205 0.243592
vt 0.444291 0.243008
vt 0.437368 0.243666
vt 0.433559 0.242368
vt 0.430936 0.245639
vt 0.431039 0.246020
vt 0.444354 0.243328
vt 0.437453 0.244019
vt 0.451242 0.244010
vt 0.446725 0.252524
vt 0.443020 0.269765
vt 0.450624 0.268290
vt 0.456280 0.259652
vt 0.432662 0.255397
vt 0.426852 0.265702
vt 0.435462 0.271413
vt 0.425272 0.249276
vt 0.422294 0.274503
vt 0.411354 0.270652
vt 0.416212 0.258557
vt 0.413168 0.264352
vt 0.420271 0.253435
vt 0.415916 0.258366
vt 0.412816 0.264273
vt 0.410967 0.270690
vt 0.412273 0.264086
vt 0.410365 0.270618
vt 0.415400 0.258047
vt 0.420055 0.253148
vt 0.424815 0.248367
vt 0.419647 0.252744
vt 0.425145 0.248877
vt 0.430707 0.245105
vt 0.410351 0.277366
vt 0.410510 0.284169
vt 0.411104 0.284032
vt 0.409777 0.277401
vt 0.413092 0.290437
vt 0.412562 0.290658
vt 0.415827 0.296625
vt 0.420609 0.301423
vt 0.416337 0.296297
vt 0.420202 0.301828
vt 0.420896 0.301209
vt 0.416710 0.296179
vt 0.413475 0.290343
vt 0.411453 0.283959
vt 0.425113 0.288574
vt 0.427677 0.280759
vt 0.410742 0.277298
vt 0.438556 0.286319
vt 0.436904 0.278887
vt 0.432929 0.294842
vt 0.446131 0.284807
vt 0.444583 0.277305
vt 0.442384 0.301814
vt 0.438050 0.310103
vt 0.426011 0.305280
vt 0.431789 0.308325
vt 0.457686 0.308089
vt 0.457777 0.308472
vt 0.463633 0.305266
vt 0.451390 0.310428
vt 0.451317 0.310074
vt 0.463513 0.304854
vt 0.468561 0.300745
vt 0.468771 0.301035
vt 0.472953 0.295858
vt 0.472660 0.295662
vt 0.475749 0.289901
vt 0.476098 0.289983
vt 0.477994 0.283587
vt 0.477604 0.283627
vt 0.478267 0.276990
vt 0.478657 0.276924
vt 0.479232 0.276917
vt 0.478551 0.270149
vt 0.477951 0.270259
vt 0.478592 0.283687
vt 0.476632 0.290194
vt 0.473456 0.296197
vt 0.469167 0.301453
vt 0.463948 0.305782
vt 0.457984 0.309006
vt 0.451512 0.311023
vt 0.444750 0.311157
vt 0.444771 0.311731
vt 0.438018 0.311129
vt 0.438103 0.310530
vt 0.431710 0.308677
vt 0.431512 0.309217
vt 0.425494 0.306086
vt 0.425820 0.305575
vt 0.444681 0.310770
vt 0.476009 0.263843
vt 0.475623 0.263935
vt 0.477603 0.270330
vt 0.472438 0.258078
vt 0.468293 0.253017
vt 0.463232 0.248910
vt 0.463899 0.265933
vt 0.461484 0.273793
vt 0.452264 0.275723
vt 0.453685 0.283205
vt 0.466930 0.279956
vt 0.462208 0.288808
vt 0.456273 0.298951
vt 0.457534 0.245826
vt 0.463431 0.248618
vt 0.468584 0.252806
vt 0.463781 0.248121
vt 0.469009 0.252419
vt 0.473334 0.257656
vt 0.476550 0.263648
vt 0.472810 0.257961
vt 0.430148 0.238091
vt 0.429608 0.239566
vt 0.437399 0.238891
vt 0.422689 0.236081
vt 0.418432 0.229330
vt 0.416638 0.231296
vt 0.411653 0.225426
vt 0.410350 0.217569
vt 0.407932 0.218684
vt 0.405590 0.211350
vt 0.406334 0.203631
vt 0.404743 0.203704
vt 0.405378 0.196032
vt 0.408975 0.189168
vt 0.407481 0.188621
vt 0.408518 0.196515
vt 0.410470 0.189690
vt 0.411969 0.190162
vt 0.407918 0.203586
vt 0.409488 0.203599
vt 0.410067 0.196759
vt 0.408681 0.210626
vt 0.410225 0.210373
vt 0.411759 0.210271
vt 0.411048 0.203716
vt 0.411615 0.197011
vt 0.412270 0.216770
vt 0.413720 0.216284
vt 0.416767 0.221714
vt 0.414222 0.223544
vt 0.415503 0.222617
vt 0.415162 0.215947
vt 0.418001 0.220847
vt 0.421547 0.225268
vt 0.420736 0.226519
vt 0.419799 0.227743
vt 0.425652 0.230528
vt 0.424319 0.233361
vt 0.425050 0.231965
vt 0.431810 0.231994
vt 0.426062 0.229041
vt 0.431539 0.233568
vt 0.431145 0.235102
vt 0.437708 0.237028
vt 0.437974 0.235462
vt 0.430667 0.236607
vt 0.444365 0.237616
vt 0.444529 0.236035
vt 0.450936 0.235321
vt 0.444292 0.239202
vt 0.450959 0.236881
vt 0.444826 0.234463
vt 0.451106 0.233784
vt 0.456640 0.231897
vt 0.456925 0.233358
vt 0.457334 0.234838
vt 0.464077 0.232941
vt 0.463229 0.231613
vt 0.462386 0.230312
vt 0.468380 0.227331
vt 0.467208 0.226353
vt 0.471225 0.221458
vt 0.473963 0.222904
vt 0.472617 0.222108
vt 0.475767 0.216060
vt 0.477235 0.216617
vt 0.474271 0.215603
vt 0.476179 0.209146
vt 0.477712 0.209473
vt 0.479244 0.209807
vt 0.479904 0.202737
vt 0.478336 0.202634
vt 0.476782 0.202443
vt 0.475235 0.202125
vt 0.472444 0.201421
vt 0.471756 0.208264
vt 0.474629 0.208829
vt 0.472727 0.215290
vt 0.469880 0.214884
vt 0.467102 0.220714
vt 0.469768 0.221016
vt 0.463865 0.214064
vt 0.458509 0.225825
vt 0.463705 0.225189
vt 0.459767 0.220354
vt 0.465989 0.225517
vt 0.464334 0.206822
vt 0.450150 0.212031
vt 0.451711 0.204385
vt 0.443974 0.202913
vt 0.442518 0.210702
vt 0.440286 0.222718
vt 0.447115 0.225089
vt 0.434915 0.209157
vt 0.436222 0.201468
vt 0.433033 0.222421
vt 0.422888 0.213400
vt 0.421347 0.206058
vt 0.423541 0.199147
vt 0.423971 0.191919
vt 0.416065 0.197793
vt 0.415411 0.204637
vt 0.415881 0.211072
vt 0.412601 0.203982
vt 0.413175 0.197277
vt 0.413279 0.210387
vt 0.415044 0.190813
vt 0.417906 0.191171
vt 0.420650 0.185337
vt 0.413487 0.190548
vt 0.417969 0.185080
vt 0.429215 0.180174
vt 0.424010 0.180858
vt 0.428027 0.185617
vt 0.421714 0.180567
vt 0.435867 0.174830
vt 0.442316 0.174349
vt 0.430473 0.176390
vt 0.426809 0.178006
vt 0.426112 0.177010
vt 0.422054 0.218948
vt 0.417416 0.216469
vt 0.419011 0.220147
vt 0.421860 0.222959
vt 0.426341 0.226341
vt 0.432179 0.229108
vt 0.438770 0.230970
vt 0.445509 0.231634
vt 0.438246 0.233884
vt 0.451839 0.231165
vt 0.457202 0.229631
vt 0.460877 0.228040
vt 0.461557 0.229056
vt 0.461932 0.177003
vt 0.466420 0.180800
vt 0.018147 0.407271
vt 0.026058 0.421094
vt 0.032557 0.416979
vt 0.018943 0.395143
vt 0.030193 0.399782
vt 0.039119 0.412970
vt 0.024953 0.392190
vt 0.031429 0.390532
vt 0.041465 0.403088
vt 0.050969 0.406305
vt 0.056244 0.396375
vt 0.044419 0.390961
vt 0.050595 0.393080
vt 0.037941 0.390083
vt 0.056549 0.396145
vt 0.044497 0.390639
vt 0.050803 0.392777
vt 0.037896 0.389718
vt 0.044641 0.390054
vt 0.037906 0.389148
vt 0.031118 0.389564
vt 0.031238 0.390154
vt 0.024755 0.391847
vt 0.024541 0.391318
vt 0.018429 0.394317
vt 0.018750 0.394832
vt 0.013415 0.398897
vt 0.013035 0.398471
vt 0.008553 0.403592
vt 0.009029 0.403960
vt 0.013635 0.399224
vt 0.009283 0.404296
vt 0.005999 0.409939
vt 0.005692 0.409738
vt 0.005176 0.409494
vt 0.003008 0.415933
vt 0.003596 0.416062
vt 0.002723 0.422660
vt 0.002153 0.422665
vt 0.002613 0.429432
vt 0.003199 0.429297
vt 0.004916 0.435749
vt 0.004393 0.435976
vt 0.007401 0.442053
vt 0.007906 0.441720
vt 0.005254 0.435545
vt 0.008216 0.441518
vt 0.003538 0.429127
vt 0.014838 0.428752
vt 0.022116 0.432574
vt 0.022525 0.440817
vt 0.012284 0.446799
vt 0.017294 0.451154
vt 0.022952 0.454417
vt 0.029125 0.456507
vt 0.042073 0.456893
vt 0.048506 0.455225
vt 0.043153 0.447412
vt 0.035584 0.457356
vt 0.054479 0.452283
vt 0.059758 0.448224
vt 0.055148 0.439953
vt 0.064096 0.443186
vt 0.067379 0.437570
vt 0.069469 0.431395
vt 0.064347 0.443521
vt 0.069793 0.431474
vt 0.067685 0.437777
vt 0.070319 0.424924
vt 0.070686 0.424882
vt 0.070377 0.431626
vt 0.071255 0.424902
vt 0.071578 0.419686
vt 0.070238 0.418250
vt 0.069894 0.418406
vt 0.068219 0.412014
vt 0.068501 0.411852
vt 0.068796 0.411729
vt 0.064971 0.402382
vt 0.065615 0.405871
vt 0.065297 0.406057
vt 0.061248 0.400761
vt 0.061583 0.400549
vt 0.062018 0.400182
vt 0.056929 0.395680
vt 0.051060 0.392267
vt 0.058396 0.418514
vt 0.051172 0.414519
vt 0.043225 0.419366
vt 0.047139 0.425873
vt 0.036598 0.423467
vt 0.040656 0.429990
vt 0.057113 0.428304
vt 0.034090 0.433979
vt 0.029984 0.427594
vt 0.031846 0.444014
vt 0.016132 0.418833
vt 0.003921 0.416135
vt 0.003087 0.422608
vt 0.059630 0.343500
vt 0.046806 0.347856
vt 0.048976 0.354247
vt 0.051147 0.360638
vt 0.063971 0.356282
vt 0.061800 0.349891
vt 0.053322 0.367028
vt 0.066146 0.362672
vt 0.055504 0.373415
vt 0.068329 0.369059
vt 0.057700 0.379797
vt 0.070525 0.375442
vt 0.072743 0.381817
vt 0.059917 0.386172
vt 0.062160 0.392536
vt 0.074987 0.388186
vt 0.077263 0.394545
vt 0.064431 0.398887
vt 0.079572 0.400900
vt 0.081915 0.407255
vt 0.082240 0.412519
vt 0.057464 0.337107
vt 0.044640 0.341463
vt 0.055306 0.330712
vt 0.036116 0.315845
vt 0.048940 0.311489
vt 0.046873 0.305063
vt 0.051038 0.317905
vt 0.034049 0.309419
vt 0.038214 0.322261
vt 0.040337 0.328668
vt 0.042482 0.335068
vt 0.053162 0.324312
vt 0.042826 0.292181
vt 0.030002 0.296537
vt 0.032011 0.302983
vt 0.044836 0.298626
vt 0.040836 0.285729
vt 0.028011 0.290084
vt 0.038853 0.279273
vt 0.019989 0.264296
vt 0.032813 0.259940
vt 0.030723 0.253522
vt 0.034856 0.266375
vt 0.017898 0.257878
vt 0.022032 0.270730
vt 0.024042 0.277176
vt 0.026029 0.283629
vt 0.036865 0.272820
vt 0.026380 0.240740
vt 0.013556 0.245096
vt 0.015756 0.251477
vt 0.028580 0.247121
vt 0.009005 0.232385
vt 0.011304 0.238732
vt 0.024128 0.234376
vt 0.021829 0.228029
vt 0.019495 0.221693
vt 0.006672 0.226049
vt 0.017142 0.215365
vt 0.013921 0.211112
vt 0.002700 0.214924
vt 0.004318 0.219720
vt 0.068194 0.438036
vt 0.064815 0.443900
vt 0.059978 0.448555
vt 0.060351 0.448983
vt 0.054991 0.453107
vt 0.048705 0.455570
vt 0.048923 0.456094
vt 0.054672 0.452594
vt 0.042392 0.457853
vt 0.035634 0.457724
vt 0.035642 0.458293
vt 0.042260 0.457265
vt 0.028931 0.457423
vt 0.022753 0.454729
vt 0.022520 0.455249
vt 0.029053 0.456833
vt 0.016646 0.451878
vt 0.011960 0.447026
vt 0.011546 0.447416
vt 0.017002 0.451393
s 1
usemtl 1011
f 2/1/1 4/2/2 1/3/3
f 1/3/3 3/4/4 2/1/1
f 5/5/5 4/2/2 2/1/1
f 2/1/1 6/6/6 5/5/5
f 5/5/5 6/6/6 7/7/7
f 7/7/7 8/8/8 5/5/5
f 9/9/9 8/8/8 7/7/7
f 7/7/7 10/10/10 9/9/9
f 9/9/9 10/10/10 11/11/11
f 11/11/11 12/12/12 9/9/9
f 13/13/13 12/12/12 11/11/11
f 13/13/13 14/14/14 15/15/15
f 11/11/11 14/14/14 13/13/13
f 15/15/15 16/16/16 13/13/13
f 17/17/17 16/16/16 15/15/15
f 15/15/15 18/18/18 17/17/17
f 17/17/17 18/18/18 19/19/19
f 19/19/19 20/20/20 17/17/17
f 21/21/21 20/20/20 19/19/19
f 21/21/21 22/22/22 23/23/23
f 19/19/19 22/22/22 21/21/21
f 23/23/23 24/24/24 21/21/21
f 25/25/25 24/24/24 23/23/23
f 23/23/23 26/26/26 25/25/25
f 25/25/25 26/26/26 27/27/27
f 27/27/27 28/28/28 25/25/25
f 29/29/29 28/28/28 27/27/27
f 30/30/30 32/31/31 29/29/29
f 29/29/29 31/32/32 30/30/30
f 27/27/27 31/32/32 29/29/29
f 33/33/33 32/31/31 30/30/30
f 34/34/34 36/35/35 33/33/33
f 33/33/33 35/36/36 34/34/34
f 30/30/30 35/36/36 33/33/33
f 37/37/37 36/35/35 34/34/34
f 38/38/38 40/39/39 37/37/37
f 37/37/37 39/40/40 38/38/38
f 34/34/34 39/40/40 37/37/37
f 41/41/41 40/39/39 38/38/38
f 42/42/42 44/43/43 41/41/41
f 41/41/41 43/44/44 42/42/42
f 38/38/38 43/44/44 41/41/41
f 45/45/45 44/43/43 42/42/42
f 46/46/46 48/47/47 45/45/45
f 45/45/45 47/48/48 46/46/46
f 42/42/42 47/48/48 45/45/45
f 49/49/49 48/47/47 46/46/46
f 46/46/46 50/50/50 49/49/49
usemtl 1001
f 51/51/51 52/52/52 56/53/53
f 53/54/54 55/55/55 51/51/51
f 51/51/51 54/56/56 53/54/54
f 56/53/53 54/56/56 51/51/51
f 55/55/55 58/57/57 57/58/58
f 57/58/58 51/51/51 55/55/55
f 59/59/59 58/57/57 55/55/55
f 55/55/55 60/60/60 59/59/59
f 61/61/61 60/60/60 55/55/55
f 53/54/54 62/62/62 61/61/61
f 61/61/61 55/55/55 53/54/54
f 60/60/60 61/61/61 63/63/63
f 63/63/63 66/64/64 60/60/60
f 60/60/60 64/65/65 59/59/59
f 65/66/66 64/65/65 60/60/60
f 60/60/60 66/64/64 65/66/66
f 65/66/66 66/64/64 67/67/67
f 67/67/67 66/64/64 63/63/63
f 63/63/63 68/68/68 67/67/67
f 67/67/67 68/68/68 69/69/69
f 67/67/67 70/70/70 65/66/66
f 69/69/69 72/71/71 67/67/67
f 71/72/72 70/70/70 67/67/67
f 67/67/67 72/71/71 71/72/72
f 73/73/73 72/71/71 69/69/69
f 71/72/72 72/71/71 73/73/73
f 78/74/74 74/75/75 73/73/73
f 73/73/73 74/75/75 71/72/72
f 73/73/73 76/76/76 75/77/77
f 75/77/77 77/78/78 73/73/73
f 69/69/69 76/76/76 73/73/73
f 73/73/73 77/78/78 78/74/74
f 78/74/74 79/79/79 80/80/80
f 78/74/74 126/81/81 79/79/79
f 77/78/78 126/81/81 78/74/74
f 80/80/80 74/75/75 78/74/74
f 80/80/80 79/79/79 81/82/82
f 81/82/82 84/83/83 80/80/80
f 71/72/72 74/75/75 80/80/80
f 80/80/80 82/84/84 71/72/72
f 83/85/85 82/84/84 80/80/80
f 80/80/80 84/83/83 83/85/85
f 85/86/86 84/83/83 81/82/82
f 83/85/85 84/83/83 85/86/86
f 81/82/82 88/87/87 85/86/86
f 85/86/86 86/88/88 83/85/85
f 90/89/89 86/88/88 85/86/86
f 85/86/86 88/87/87 87/90/90
f 87/90/90 89/91/91 85/86/86
f 85/86/86 89/91/91 90/89/89
f 91/92/92 93/93/93 90/89/89
f 90/89/89 92/94/94 91/92/92
f 95/95/95 92/94/94 90/89/89
f 90/89/89 93/93/93 94/96/96
f 94/96/96 86/88/88 90/89/89
f 90/89/89 89/91/91 95/95/95
f 97/97/97 96/98/98 95/95/95
f 95/95/95 96/98/98 99/99/99
f 95/95/95 98/100/100 97/97/97
f 95/95/95 89/91/91 87/90/90
f 87/90/90 98/100/100 95/95/95
f 99/99/99 92/94/94 95/95/95
f 91/92/92 92/94/94 99/99/99
f 99/99/99 100/101/101 91/92/92
f 101/102/102 100/101/101 99/99/99
f 99/99/99 102/103/103 101/102/102
f 103/104/104 102/103/103 99/99/99
f 99/99/99 96/98/98 103/104/104
f 103/104/104 105/105/105 104/106/106
f 104/106/106 107/107/107 103/104/104
f 97/97/97 105/105/105 103/104/104
f 103/104/104 96/98/98 97/97/97
f 103/104/104 107/107/107 106/108/108
f 106/108/108 102/103/103 103/104/104
f 106/108/108 107/107/107 108/109/109
f 108/109/109 107/107/107 104/106/106
f 108/109/109 109/110/110 106/108/108
f 111/111/111 109/110/110 108/109/109
f 112/112/112 110/113/113 108/109/109
f 108/109/109 110/113/113 111/111/111
f 104/106/106 113/114/114 108/109/109
f 108/109/109 113/114/114 112/112/112
f 113/114/114 114/115/115 112/112/112
f 113/114/114 115/116/116 114/115/115
f 116/117/117 115/116/116 113/114/114
f 104/106/106 116/117/117 113/114/114
f 105/105/105 117/118/118 116/117/117
f 119/119/119 117/118/118 105/105/105
f 118/120/120 120/121/121 119/119/119
f 121/122/122 120/121/121 118/120/120
f 122/123/123 123/124/124 121/122/122
f 124/125/125 123/124/124 122/123/123
f 79/79/79 125/126/126 124/125/125
f 126/81/81 125/126/126 79/79/79
f 77/78/78 127/127/127 126/81/81
f 128/128/128 127/127/127 77/78/78
f 129/129/129 130/130/130 128/128/128
f 131/131/131 130/130/130 129/129/129
f 132/132/132 133/133/133 131/131/131
f 134/134/134 133/133/133 132/132/132
f 319/135/135 135/136/136 134/134/134
f 136/137/137 135/136/136 319/135/135
f 316/138/138 137/139/139 136/137/137
f 138/140/140 137/139/139 316/138/138
f 316/138/138 139/141/141 138/140/140
f 138/140/140 139/141/141 140/142/142
f 140/142/142 141/143/143 138/140/140
f 251/144/144 142/145/145 138/140/140
f 138/140/140 143/146/146 251/144/144
f 141/143/143 143/146/146 138/140/140
f 141/143/143 144/147/147 143/146/146
f 145/148/148 144/147/147 141/143/143
f 146/149/149 145/148/148 141/143/143
f 145/148/148 147/150/150 148/151/151
f 150/152/152 144/147/147 145/148/148
f 148/151/151 155/153/153 145/148/148
f 145/148/148 155/153/153 150/152/152
f 150/152/152 149/154/154 143/146/146
f 143/146/146 144/147/147 150/152/152
f 149/154/154 150/152/152 151/155/155
f 151/155/155 150/152/152 155/153/153
f 151/155/155 155/153/153 152/156/156
f 152/156/156 154/157/157 151/155/155
f 153/158/158 149/154/154 151/155/155
f 151/155/155 154/157/157 153/158/158
f 152/156/156 155/153/153 156/159/159
f 158/160/160 159/161/161 156/159/159
f 156/159/159 159/161/161 152/156/156
f 155/153/153 148/151/151 156/159/159
f 156/159/159 148/151/151 157/162/162
f 156/159/159 157/162/162 158/160/160
f 158/160/160 160/163/163 159/161/161
f 158/160/160 161/164/164 160/163/163
f 162/165/165 161/164/164 158/160/160
f 158/160/160 157/162/162 162/165/165
f 162/165/165 164/166/166 161/164/164
f 157/162/162 163/167/167 162/165/165
f 164/166/166 162/165/165 170/168/168
f 170/168/168 165/169/169 164/166/166
f 164/166/166 165/169/169 167/170/170
f 167/170/170 161/164/164 164/166/166
f 165/169/169 168/171/171 166/172/172
f 166/172/172 167/170/170 165/169/169
f 169/173/173 168/171/171 165/169/169
f 165/169/169 170/168/168 169/173/173
f 169/173/173 170/168/168 171/174/174
f 173/175/175 172/176/176 171/174/174
f 171/174/174 172/176/176 169/173/173
f 171/174/174 174/177/177 173/175/175
f 174/177/177 171/174/174 163/167/167
f 148/151/151 147/150/150 174/177/177
f 163/167/167 157/162/162 174/177/177
f 174/177/177 157/162/162 148/151/151
f 163/167/167 171/174/174 170/168/168
f 170/168/168 162/165/165 163/167/167
f 173/175/175 174/177/177 147/150/150
f 147/150/150 175/178/178 173/175/175
f 146/149/149 175/178/178 147/150/150
f 177/179/179 167/170/170 166/172/172
f 178/180/180 176/181/181 177/179/179
f 177/179/179 179/182/182 178/180/180
f 166/172/172 179/182/182 177/179/179
f 185/183/183 176/181/181 178/180/180
f 178/180/180 180/184/184 185/183/183
f 185/183/183 180/184/184 181/185/185
f 184/186/186 183/187/187 181/185/185
f 181/185/185 182/188/188 184/186/186
f 181/185/185 183/187/187 185/183/183
f 200/189/189 197/190/190 183/187/187
f 183/187/187 184/186/186 200/189/189
f 183/187/187 197/190/190 186/191/191
f 186/191/191 185/183/183 183/187/187
f 176/181/181 185/183/183 186/191/191
f 186/191/191 187/192/192 176/181/181
f 188/193/193 189/194/194 187/192/192
f 187/192/192 186/191/191 188/193/193
f 187/192/192 189/194/194 160/163/163
f 160/163/163 190/195/195 187/192/192
f 161/164/164 190/195/195 160/163/163
f 189/194/194 188/193/193 192/196/196
f 159/161/161 160/163/163 189/194/194
f 189/194/194 191/197/197 159/161/161
f 192/196/196 191/197/197 189/194/194
f 192/196/196 188/193/193 195/198/198
f 192/196/196 193/199/199 194/200/200
f 194/200/200 191/197/197 192/196/196
f 196/201/201 192/196/196 195/198/198
f 195/198/198 199/202/202 196/201/201
f 198/203/203 199/202/202 195/198/198
f 188/193/193 197/190/190 195/198/198
f 195/198/198 197/190/190 198/203/203
f 198/203/203 201/204/204 199/202/202
f 197/190/190 200/189/189 198/203/203
f 188/193/193 186/191/191 197/190/190
f 247/205/205 203/206/206 205/207/207
f 204/208/208 203/206/206 247/205/205
f 247/205/205 245/209/209 204/208/208
f 205/207/207 246/210/210 247/205/205
f 206/211/211 207/212/212 208/213/213
f 205/207/207 207/212/212 206/211/211
f 208/213/213 248/214/214 206/211/211
f 206/211/211 246/210/210 205/207/207
f 209/215/215 210/216/216 211/217/217
f 208/213/213 210/216/216 209/215/215
f 211/217/217 249/218/218 209/215/215
f 209/215/215 248/214/214 208/213/213
f 232/219/219 249/218/218 211/217/217
f 211/217/217 212/220/220 232/219/219
f 212/220/220 215/221/221 213/222/222
f 213/222/222 214/223/223 212/220/220
f 212/220/220 211/217/217 216/224/224
f 216/224/224 215/221/221 212/220/220
f 210/216/216 217/225/225 216/224/224
f 216/224/224 211/217/217 210/216/216
f 218/226/226 217/225/225 210/216/216
f 207/212/212 219/227/227 218/226/226
f 218/226/226 208/213/213 207/212/212
f 210/216/216 208/213/213 218/226/226
f 220/228/228 219/227/227 207/212/212
f 203/206/206 221/229/229 220/228/228
f 220/228/228 205/207/207 203/206/206
f 207/212/212 205/207/207 220/228/228
f 222/230/230 221/229/229 203/206/206
f 230/231/231 223/232/232 222/230/230
f 222/230/230 204/208/208 230/231/231
f 203/206/206 204/208/208 222/230/230
f 224/233/233 223/232/232 230/231/231
f 230/231/231 229/234/234 224/233/233
f 224/233/233 229/234/234 228/235/235
f 228/235/235 225/236/236 224/233/233
f 226/237/237 225/236/236 228/235/235
f 228/235/235 227/238/238 226/237/237
f 226/237/237 227/238/238 184/186/186
f 184/186/186 182/188/188 226/237/237
f 201/204/204 198/203/203 227/238/238
f 227/238/238 228/235/235 201/204/204
f 227/238/238 198/203/203 200/189/189
f 200/189/189 184/186/186 227/238/238
f 201/204/204 228/235/235 229/234/234
f 202/239/239 199/202/202 229/234/234
f 229/234/234 230/231/231 202/239/239
f 229/234/234 199/202/202 201/204/204
f 202/239/239 230/231/231 204/208/208
f 214/223/223 231/240/240 233/241/241
f 233/241/241 238/242/242 214/223/223
f 214/223/223 238/242/242 232/219/219
f 232/219/219 212/220/220 214/223/223
f 235/243/243 234/244/244 236/245/245
f 237/246/246 233/241/241 235/243/243
f 237/246/246 239/247/247 238/242/242
f 238/242/242 233/241/241 237/246/246
f 237/246/246 235/243/243 153/158/158
f 154/157/157 237/246/246 153/158/158
f 239/247/247 237/246/246 154/157/157
f 154/157/157 152/156/156 194/200/200
f 194/200/200 240/248/248 154/157/157
f 154/157/157 240/248/248 239/247/247
f 239/247/247 240/248/248 241/249/249
f 241/249/249 240/248/248 194/200/200
f 241/249/249 242/250/250 239/247/247
f 243/251/251 242/250/250 241/249/249
f 194/200/200 193/199/199 241/249/249
f 243/251/251 241/249/249 244/252/252
f 244/252/252 241/249/249 193/199/199
f 244/252/252 246/210/210 243/251/251
f 193/199/199 245/209/209 244/252/252
f 245/209/209 247/205/205 244/252/252
f 244/252/252 247/205/205 246/210/210
f 243/251/251 246/210/210 248/214/214
f 248/214/214 249/218/218 243/251/251
f 248/214/214 209/215/215 249/218/218
f 246/210/210 206/211/211 248/214/214
f 249/218/218 232/219/219 242/250/250
f 242/250/250 232/219/219 238/242/242
f 243/251/251 249/218/218 242/250/250
f 238/242/242 239/247/247 242/250/250
f 196/201/201 245/209/209 193/199/199
f 194/200/200 152/156/156 159/161/161
f 143/146/146 149/154/154 250/253/253
f 250/253/253 251/144/144 143/146/146
f 252/254/254 251/144/144 250/253/253
f 250/253/253 236/245/245 252/254/254
f 252/254/254 236/245/245 234/244/244
f 234/244/244 253/255/255 252/254/254
f 254/256/256 252/254/254 253/255/255
f 251/144/144 252/254/254 254/256/256
f 253/255/255 255/257/257 254/256/256
f 254/256/256 142/145/145 251/144/144
f 256/258/258 255/257/257 253/255/255
f 231/240/240 257/259/259 256/258/258
f 256/258/258 258/260/260 231/240/240
f 253/255/255 258/260/260 256/258/258
f 213/222/222 257/259/259 231/240/240
f 233/241/241 231/240/240 258/260/260
f 258/260/260 253/255/255 234/244/244
f 258/260/260 235/243/243 233/241/241
f 234/244/244 235/243/243 258/260/260
f 236/245/245 250/253/253 149/154/154
f 153/158/158 235/243/243 236/245/245
f 236/245/245 149/154/154 153/158/158
f 231/240/240 214/223/223 213/222/222
f 204/208/208 245/209/209 202/239/239
f 199/202/202 202/239/239 196/201/201
f 196/201/201 202/239/239 245/209/209
f 193/199/199 192/196/196 196/201/201
f 159/161/161 191/197/197 194/200/200
f 176/181/181 187/192/192 190/195/195
f 190/195/195 177/179/179 176/181/181
f 167/170/170 177/179/179 190/195/195
f 190/195/195 161/164/164 167/170/170
f 147/150/150 145/148/148 146/149/149
f 259/261/261 260/262/262 146/149/149
f 146/149/149 302/263/263 259/261/261
f 140/142/142 302/263/263 146/149/149
f 146/149/149 141/143/143 140/142/142
f 261/264/264 260/262/262 259/261/261
f 296/265/265 262/266/266 261/264/264
f 263/267/267 262/266/266 296/265/265
f 282/268/268 264/269/269 263/267/267
f 266/270/270 264/269/269 282/268/268
f 265/271/271 267/272/272 266/270/270
f 269/273/273 267/272/272 265/271/271
f 268/274/274 270/275/275 269/273/273
f 114/115/115 270/275/275 268/274/274
f 271/276/276 269/273/273 265/271/271
f 268/274/274 269/273/273 271/276/276
f 271/276/276 272/277/277 268/274/274
f 274/278/278 272/277/277 271/276/276
f 265/271/271 273/279/279 271/276/276
f 271/276/276 273/279/279 276/280/280
f 271/276/276 275/281/281 274/278/278
f 276/280/280 275/281/281 271/276/276
f 281/282/282 277/283/283 276/280/280
f 276/280/280 277/283/283 278/284/284
f 278/284/284 280/285/285 276/280/280
f 276/280/280 280/285/285 279/286/286
f 279/286/286 275/281/281 276/280/280
f 276/280/280 273/279/279 281/282/282
f 265/271/271 266/270/270 281/282/282
f 281/282/282 273/279/279 265/271/271
f 281/282/282 266/270/270 282/268/268
f 281/282/282 282/268/268 283/287/287
f 283/287/287 277/283/283 281/282/282
f 283/287/287 284/288/288 278/284/284
f 287/289/289 284/288/288 283/287/287
f 286/290/290 285/291/291 283/287/287
f 283/287/287 285/291/291 287/289/289
f 283/287/287 282/268/268 286/290/290
f 278/284/284 277/283/283 283/287/287
f 288/292/292 284/288/288 287/289/289
f 287/289/289 289/293/293 288/292/292
f 290/294/294 289/293/293 287/289/289
f 287/289/289 291/295/295 290/294/294
f 292/296/296 291/295/295 287/289/289
f 287/289/289 285/291/291 292/296/296
f 292/296/296 285/291/291 286/290/290
f 295/297/297 291/295/295 292/296/296
f 286/290/290 296/265/265 292/296/296
f 294/298/298 293/299/299 292/296/296
f 292/296/296 293/299/299 295/297/297
f 292/296/296 296/265/265 294/298/298
f 297/300/300 299/301/301 295/297/297
f 295/297/297 298/302/302 297/300/300
f 300/303/303 298/302/302 295/297/297
f 295/297/297 299/301/301 290/294/294
f 290/294/294 291/295/295 295/297/297
f 295/297/297 293/299/299 300/303/303
f 300/303/303 304/304/304 301/305/305
f 301/305/305 298/302/302 300/303/303
f 300/303/303 303/306/306 302/263/263
f 302/263/263 304/304/304 300/303/303
f 294/298/298 303/306/306 300/303/303
f 300/303/303 293/299/299 294/298/298
f 301/305/305 304/304/304 305/307/307
f 305/307/307 304/304/304 302/263/263
f 305/307/307 306/308/308 301/305/305
f 309/309/309 306/308/308 305/307/307
f 302/263/263 307/310/310 305/307/307
f 305/307/307 307/310/310 139/141/141
f 139/141/141 308/311/311 305/307/307
f 305/307/307 308/311/311 309/309/309
f 310/312/312 306/308/308 309/309/309
f 309/309/309 311/313/313 310/312/312
f 312/314/314 311/313/313 309/309/309
f 309/309/309 313/315/315 312/314/314
f 314/316/316 313/315/315 309/309/309
f 309/309/309 308/311/311 314/316/316
f 314/316/316 308/311/311 139/141/141
f 139/141/141 316/138/138 314/316/316
f 318/317/317 315/318/318 314/316/316
f 314/316/316 315/318/318 317/319/319
f 314/316/316 316/138/138 318/317/317
f 317/319/319 313/315/315 314/316/316
f 318/317/317 319/135/135 320/320/320
f 318/317/317 136/137/137 319/135/135
f 316/138/138 136/137/137 318/317/317
f 320/320/320 315/318/318 318/317/317
f 320/320/320 321/321/321 317/319/319
f 323/322/322 321/321/321 320/320/320
f 320/320/320 319/135/135 322/323/323
f 322/323/323 324/324/324 320/320/320
f 320/320/320 324/324/324 323/322/322
f 317/319/319 315/318/318 320/320/320
f 325/325/325 324/324/324 322/323/323
f 323/322/322 324/324/324 325/325/325
f 322/323/323 329/326/326 325/325/325
f 325/325/325 326/327/327 323/322/322
f 327/328/328 326/327/327 325/325/325
f 325/325/325 328/329/329 327/328/328
f 330/330/330 328/329/329 325/325/325
f 325/325/325 329/326/326 330/330/330
f 330/330/330 331/331/331 332/332/332
f 129/129/129 331/331/331 330/330/330
f 330/330/330 131/131/131 129/129/129
f 132/132/132 131/131/131 330/330/330
f 330/330/330 329/326/326 132/132/132
f 332/332/332 328/329/329 330/330/330
f 332/332/332 331/331/331 75/77/77
f 332/332/332 76/76/76 69/69/69
f 69/69/69 333/333/333 332/332/332
f 75/77/77 76/76/76 332/332/332
f 327/328/328 328/329/329 332/332/332
f 332/332/332 333/333/333 327/328/328
f 334/334/334 333/333/333 69/69/69
f 327/328/328 333/333/333 334/334/334
f 334/334/334 68/68/68 63/63/63
f 63/63/63 335/335/335 334/334/334
f 334/334/334 335/335/335 336/336/336
f 336/336/336 337/337/337 334/334/334
f 69/69/69 68/68/68 334/334/334
f 334/334/334 337/337/337 327/328/328
f 327/328/328 337/337/337 338/338/338
f 338/338/338 337/337/337 336/336/336
f 338/338/338 339/339/339 341/340/340
f 336/336/336 339/339/339 338/338/338
f 323/322/322 326/327/327 338/338/338
f 338/338/338 326/327/327 327/328/328
f 338/338/338 340/341/341 323/322/322
f 341/340/340 340/341/341 338/338/338
f 341/340/340 339/339/339 344/342/342
f 390/343/343 342/344/344 341/340/340
f 341/340/340 346/345/345 390/343/343
f 341/340/340 342/344/344 343/346/346
f 343/346/346 340/341/341 341/340/340
f 344/342/342 346/345/345 341/340/340
f 344/342/342 339/339/339 336/336/336
f 336/336/336 345/347/347 344/342/342
f 62/62/62 345/347/347 336/336/336
f 347/348/348 344/342/342 345/347/347
f 346/345/345 344/342/342 347/348/348
f 345/347/347 348/349/349 347/348/348
f 347/348/348 348/349/349 349/350/350
f 349/350/350 351/351/351 347/348/348
f 347/348/348 351/351/351 350/352/352
f 350/352/352 387/353/353 347/348/348
f 347/348/348 387/353/353 346/345/345
f 352/354/354 351/351/351 349/350/350
f 350/352/352 351/351/351 352/354/354
f 349/350/350 356/355/355 352/354/354
f 352/354/354 353/356/356 350/352/352
f 354/357/357 353/356/356 352/354/354
f 352/354/354 355/358/358 354/357/357
f 357/359/359 355/358/358 352/354/354
f 352/354/354 356/355/355 357/359/359
f 56/53/53 358/360/360 357/359/359
f 357/359/359 356/355/355 56/53/53
f 355/358/358 357/359/359 359/361/361
f 359/361/361 361/362/362 355/358/358
f 360/363/363 354/357/357 355/358/358
f 355/358/358 361/362/362 360/363/363
f 362/364/364 361/362/362 359/361/361
f 360/363/363 361/362/362 362/364/364
f 359/361/361 364/365/365 362/364/364
f 278/284/284 363/366/366 362/364/364
f 362/364/364 363/366/366 360/363/363
f 362/364/364 280/285/285 278/284/284
f 279/286/286 280/285/285 362/364/364
f 362/364/364 364/365/365 279/286/286
f 365/367/367 364/365/365 359/361/361
f 279/286/286 364/365/365 365/367/367
f 359/361/361 366/368/368 365/367/367
f 365/367/367 366/368/368 369/369/369
f 365/367/367 367/370/370 279/286/286
f 111/111/111 367/370/370 365/367/367
f 365/367/367 368/371/371 111/111/111
f 369/369/369 368/371/371 365/367/367
f 369/369/369 366/368/368 358/360/360
f 373/372/372 370/373/373 369/369/369
f 369/369/369 372/374/374 373/372/372
f 369/369/369 370/373/373 371/375/375
f 371/375/375 368/371/371 369/369/369
f 358/360/360 372/374/374 369/369/369
f 52/52/52 373/372/372 372/374/374
f 56/53/53 52/52/52 372/374/374
f 372/374/374 358/360/360 56/53/53
f 374/376/376 373/372/372 52/52/52
f 374/376/376 375/377/377 91/92/92
f 52/52/52 375/377/377 374/376/376
f 374/376/376 376/378/378 373/372/372
f 101/102/102 376/378/378 374/376/376
f 91/92/92 100/101/101 374/376/376
f 374/376/376 100/101/101 101/102/102
f 373/372/372 376/378/378 377/379/379
f 377/379/379 376/378/378 101/102/102
f 377/379/379 370/373/373 373/372/372
f 371/375/375 370/373/373 377/379/379
f 101/102/102 378/380/380 377/379/379
f 377/379/379 378/380/380 371/375/375
f 106/108/108 378/380/380 101/102/102
f 371/375/375 378/380/380 106/108/108
f 91/92/92 375/377/377 57/58/58
f 57/58/58 375/377/377 52/52/52
f 371/375/375 109/110/110 111/111/111
f 111/111/111 368/371/371 371/375/375
f 106/108/108 109/110/110 371/375/375
f 279/286/286 367/370/370 274/278/278
f 274/278/278 367/370/370 111/111/111
f 358/360/360 366/368/368 359/361/361
f 288/292/292 363/366/366 278/284/284
f 360/363/363 363/366/366 288/292/292
f 384/381/381 354/357/357 360/363/363
f 360/363/363 379/382/382 384/381/381
f 288/292/292 379/382/382 360/363/363
f 384/381/381 379/382/382 380/383/383
f 380/383/383 379/382/382 288/292/292
f 380/383/383 381/384/384 384/381/381
f 290/294/294 381/384/384 380/383/383
f 288/292/292 289/293/293 380/383/383
f 380/383/383 289/293/293 290/294/294
f 384/381/381 381/384/384 382/385/385
f 382/385/385 381/384/384 290/294/294
f 353/356/356 384/381/381 382/385/385
f 382/385/385 383/386/386 353/356/356
f 297/300/300 383/386/386 382/385/385
f 382/385/385 299/301/301 297/300/300
f 290/294/294 299/301/301 382/385/385
f 354/357/357 384/381/381 353/356/356
f 385/387/387 383/386/386 297/300/300
f 353/356/356 383/386/386 385/387/387
f 385/387/387 350/352/352 353/356/356
f 310/312/312 388/388/388 385/387/387
f 385/387/387 386/389/389 310/312/312
f 297/300/300 386/389/389 385/387/387
f 387/353/353 350/352/352 385/387/387
f 385/387/387 388/388/388 387/353/353
f 387/353/353 388/388/388 389/390/390
f 389/390/390 388/388/388 310/312/312
f 389/390/390 390/343/343 387/353/353
f 389/390/390 391/391/391 390/343/343
f 312/314/314 391/391/391 389/390/390
f 310/312/312 311/313/313 389/390/390
f 389/390/390 311/313/313 312/314/314
f 392/392/392 391/391/391 312/314/314
f 390/343/343 391/391/391 392/392/392
f 343/346/346 342/344/344 392/392/392
f 392/392/392 342/344/344 390/343/343
f 312/314/314 393/393/393 392/392/392
f 392/392/392 393/393/393 343/346/346
f 317/319/319 393/393/393 312/314/314
f 343/346/346 393/393/393 317/319/319
f 387/353/353 390/343/343 346/345/345
f 301/305/305 386/389/389 297/300/300
f 310/312/312 386/389/389 301/305/305
f 359/361/361 357/359/359 358/360/360
f 56/53/53 356/355/355 349/350/350
f 349/350/350 348/349/349 53/54/54
f 349/350/350 54/56/56 56/53/53
f 53/54/54 54/56/56 349/350/350
f 53/54/54 348/349/349 345/347/347
f 345/347/347 62/62/62 53/54/54
f 343/346/346 321/321/321 323/322/322
f 323/322/322 340/341/341 343/346/346
f 317/319/319 321/321/321 343/346/346
f 336/336/336 335/335/335 62/62/62
f 62/62/62 335/335/335 63/63/63
f 75/77/77 331/331/331 129/129/129
f 132/132/132 329/326/326 322/323/323
f 319/135/135 134/134/134 322/323/323
f 322/323/323 134/134/134 132/132/132
f 312/314/314 313/315/315 317/319/319
f 301/305/305 306/308/308 310/312/312
f 139/141/141 307/310/310 140/142/142
f 140/142/142 307/310/310 302/263/263
f 302/263/263 303/306/306 259/261/261
f 259/261/261 303/306/306 294/298/298
f 297/300/300 298/302/302 301/305/305
f 296/265/265 261/264/264 294/298/298
f 294/298/298 261/264/264 259/261/261
f 278/284/284 284/288/288 288/292/292
f 282/268/268 263/267/267 286/290/290
f 286/290/290 263/267/267 296/265/265
f 274/278/278 275/281/281 279/286/286
f 112/112/112 272/277/277 274/278/278
f 111/111/111 110/113/113 274/278/278
f 274/278/278 110/113/113 112/112/112
f 268/274/274 272/277/277 112/112/112
f 112/112/112 114/115/115 268/274/274
f 129/129/129 128/128/128 75/77/77
f 75/77/77 128/128/128 77/78/78
f 79/79/79 124/125/125 81/82/82
f 81/82/82 124/125/125 122/123/123
f 122/123/123 121/122/122 87/90/90
f 87/90/90 88/87/87 122/123/123
f 122/123/123 88/87/87 81/82/82
f 87/90/90 121/122/122 118/120/120
f 97/97/97 119/119/119 105/105/105
f 118/120/120 119/119/119 97/97/97
f 97/97/97 98/100/100 118/120/120
f 118/120/120 98/100/100 87/90/90
f 105/105/105 116/117/117 104/106/106
f 101/102/102 102/103/103 106/108/108
f 94/96/96 93/93/93 57/58/58
f 83/85/85 86/88/88 94/96/96
f 94/96/96 394/394/394 83/85/85
f 59/59/59 394/394/394 94/96/96
f 57/58/58 58/57/57 94/96/96
f 94/96/96 58/57/57 59/59/59
f 83/85/85 394/394/394 395/395/395
f 395/395/395 394/394/394 59/59/59
f 395/395/395 64/65/65 65/66/66
f 59/59/59 64/65/65 395/395/395
f 71/72/72 82/84/84 395/395/395
f 395/395/395 82/84/84 83/85/85
f 65/66/66 70/70/70 395/395/395
f 395/395/395 70/70/70 71/72/72
f 57/58/58 93/93/93 91/92/92
f 63/63/63 61/61/61 62/62/62
f 52/52/52 51/51/51 57/58/58
f 397/396/396 399/397/397 396/398/398
f 396/398/398 398/399/399 397/396/396
f 401/400/400 398/399/399 396/398/398
f 396/398/398 400/401/401 401/400/400
f 401/400/400 402/402/402 398/399/399
f 403/403/403 402/402/402 401/400/400
f 404/404/404 403/403/403 401/400/400
f 401/400/400 400/401/401 404/404/404
f 400/401/401 405/405/405 404/404/404
f 405/405/405 406/406/406 404/404/404
f 404/404/404 406/406/406 407/407/407
f 407/407/407 403/403/403 404/404/404
f 406/406/406 409/408/408 407/407/407
f 407/407/407 408/409/409 403/403/403
f 409/408/408 406/406/406 411/410/410
f 412/411/411 407/407/407 409/408/408
f 411/410/410 410/412/412 409/408/408
f 409/408/408 410/412/412 412/411/411
f 408/409/409 407/407/407 412/411/411
f 412/411/411 413/413/413 408/409/409
f 413/413/413 412/411/411 414/414/414
f 414/414/414 417/415/415 413/413/413
f 413/413/413 417/415/415 415/416/416
f 415/416/416 416/417/417 413/413/413
f 416/417/417 403/403/403 408/409/409
f 402/402/402 403/403/403 416/417/417
f 416/417/417 418/418/418 402/402/402
f 408/409/409 413/413/413 416/417/417
f 415/416/416 419/419/419 418/418/418
f 418/418/418 419/419/419 421/420/420
f 418/418/418 416/417/417 415/416/416
f 421/420/420 420/421/421 418/418/418
f 422/422/422 420/421/421 421/420/420
f 422/422/422 424/423/423 423/424/424
f 423/424/424 425/425/425 422/422/422
f 421/420/420 424/423/423 422/422/422
f 492/426/426 422/422/422 425/425/425
f 425/425/425 487/427/427 492/426/426
f 491/428/428 487/427/427 425/425/425
f 425/425/425 426/429/429 491/428/428
f 426/429/429 429/430/430 427/431/431
f 427/431/431 428/432/432 426/429/429
f 423/424/424 429/430/430 426/429/429
f 426/429/429 425/425/425 423/424/424
f 431/433/433 428/432/432 427/431/431
f 427/431/431 433/434/434 431/433/433
f 431/433/433 433/434/434 432/435/435
f 432/435/435 430/436/436 431/433/433
f 437/437/437 430/436/436 432/435/435
f 437/437/437 435/438/438 434/439/439
f 434/439/439 436/440/440 437/437/437
f 432/435/435 435/438/438 437/437/437
f 430/436/436 437/437/437 438/441/441
f 438/441/441 437/437/437 436/440/440
f 436/440/440 439/442/442 438/441/441
f 438/441/441 488/443/443 430/436/436
f 440/444/444 438/441/441 439/442/442
f 439/442/442 485/445/445 440/444/444
f 483/446/446 485/445/445 439/442/442
f 439/442/442 441/447/447 483/446/446
f 483/446/446 441/447/447 442/448/448
f 442/448/448 444/449/449 443/450/450
f 446/451/451 448/452/452 447/453/453
f 443/450/450 445/454/454 446/451/451
f 449/455/455 451/456/456 450/457/457
f 447/453/453 448/452/452 449/455/455
f 450/457/457 451/456/456 452/458/458
f 452/458/458 454/459/459 453/460/460
f 454/459/459 452/458/458 456/461/461
f 457/462/462 453/460/460 454/459/459
f 456/461/461 455/463/463 454/459/459
f 454/459/459 455/463/463 457/462/462
f 469/464/464 453/460/460 457/462/462
f 457/462/462 458/465/465 469/464/464
f 458/465/465 457/462/462 459/466/466
f 459/466/466 460/467/467 458/465/465
f 458/465/465 460/467/467 493/468/468
f 493/468/468 461/469/469 458/465/465
f 461/469/469 470/470/470 469/464/464
f 472/471/471 470/470/470 461/469/469
f 461/469/469 462/472/472 472/471/471
f 463/473/473 462/472/472 461/469/469
f 469/464/464 458/465/465 461/469/469
f 494/474/474 464/475/475 463/473/473
f 463/473/473 461/469/469 493/468/468
f 464/475/475 462/472/472 463/473/473
f 472/471/471 462/472/472 464/475/475
f 464/475/475 473/476/476 472/471/471
f 474/477/477 473/476/476 464/475/475
f 464/475/475 465/478/478 474/477/477
f 465/478/478 464/475/475 494/474/474
f 494/474/474 467/479/479 465/478/478
f 465/478/478 467/479/479 466/480/480
f 466/480/480 411/410/410 465/478/478
f 410/412/412 411/410/410 466/480/480
f 466/480/480 468/481/481 410/412/412
f 410/412/412 468/481/481 414/414/414
f 474/477/477 465/478/478 411/410/410
f 411/410/410 406/406/406 474/477/477
f 453/460/460 469/464/464 470/470/470
f 470/470/470 472/471/471 471/482/482
f 471/482/482 472/471/471 473/476/476
f 405/405/405 475/483/483 473/476/476
f 473/476/476 474/477/477 405/405/405
f 473/476/476 475/483/483 471/482/482
f 400/401/401 476/484/484 475/483/483
f 475/483/483 405/405/405 400/401/401
f 475/483/483 476/484/484 479/485/485
f 479/485/485 471/482/482 475/483/483
f 479/485/485 476/484/484 477/486/486
f 477/486/486 478/487/487 479/485/485
f 480/488/488 471/482/482 479/485/485
f 450/457/457 452/458/458 480/488/488
f 480/488/488 479/485/485 450/457/457
f 480/488/488 452/458/458 453/460/460
f 480/488/488 470/470/470 471/482/482
f 453/460/460 470/470/470 480/488/488
f 481/489/489 478/487/487 477/486/486
f 477/486/486 484/490/490 481/489/489
f 481/489/489 483/446/446 482/491/491
f 485/445/445 483/446/446 481/489/489
f 481/489/489 484/490/490 485/445/445
f 399/397/397 440/444/444 485/445/445
f 485/445/445 484/490/490 399/397/397
f 486/492/492 440/444/444 399/397/397
f 397/396/396 487/427/427 486/492/492
f 486/492/492 399/397/397 397/396/396
f 486/492/492 487/427/427 489/493/493
f 486/492/492 488/443/443 440/444/444
f 489/493/493 488/443/443 486/492/492
f 489/493/493 490/494/494 488/443/443
f 487/427/427 491/428/428 489/493/493
f 397/396/396 492/426/426 487/427/427
f 492/426/426 398/399/399 420/421/421
f 420/421/421 398/399/399 402/402/402
f 490/494/494 489/493/493 428/432/432
f 428/432/432 431/433/433 490/494/494
f 430/436/436 488/443/443 490/494/494
f 490/494/494 431/433/433 430/436/436
f 428/432/432 489/493/493 491/428/428
f 398/399/399 492/426/426 397/396/396
f 399/397/397 484/490/490 477/486/486
f 447/453/453 481/489/489 482/491/491
f 483/446/446 442/448/448 482/491/491
f 482/491/491 442/448/448 443/450/450
f 482/491/491 446/451/451 447/453/453
f 443/450/450 446/451/451 482/491/491
f 478/487/487 481/489/489 447/453/453
f 450/457/457 479/485/485 478/487/487
f 478/487/487 449/455/455 450/457/457
f 447/453/453 449/455/455 478/487/487
f 477/486/486 476/484/484 400/401/401
f 477/486/486 396/398/398 399/397/397
f 400/401/401 396/398/398 477/486/486
f 405/405/405 474/477/477 406/406/406
f 503/495/495 500/496/495 502/497/496
f 502/497/496 499/498/497 504/499/497
f 502/497/496 505/500/496 503/495/495
f 504/499/497 505/500/496 502/497/496
f 507/501/498 506/502/499 504/499/497
f 504/499/497 499/498/497 507/501/498
f 507/501/498 498/503/500 508/504/501
f 508/504/501 506/502/499 507/501/498
f 508/504/501 498/503/500 509/505/502
f 509/505/502 510/506/503 508/504/501
f 511/507/504 510/506/503 509/505/502
f 509/505/502 497/508/505 511/507/504
f 511/507/504 497/508/505 496/509/506
f 496/509/506 512/510/507 511/507/504
f 513/511/508 512/510/507 496/509/506
f 496/509/506 495/512/509 513/511/508
f 494/474/474 514/513/510 513/511/508
f 513/511/508 495/512/509 494/474/474
f 515/514/511 514/513/510 494/474/474
f 493/468/468 516/515/512 515/514/511
f 494/474/474 463/473/473 515/514/511
f 515/514/511 463/473/473 493/468/468
f 503/495/495 517/516/513 501/517/514
f 501/517/514 517/516/513 518/518/515
f 523/519/516 521/520/517 522/521/518
f 520/522/519 521/520/517 523/519/516
f 522/521/518 524/523/520 523/519/516
f 523/519/516 525/524/521 520/522/519
f 520/522/519 525/524/521 526/525/522
f 526/525/522 527/526/523 518/518/515
f 526/525/522 519/527/524 520/522/519
f 518/518/515 519/527/524 526/525/522
f 518/518/515 527/526/523 501/517/514
f 531/528/525 528/529/526 530/530/527
f 530/530/527 524/523/520 522/521/518
f 530/530/527 532/531/528 531/528/525
f 522/521/518 532/531/528 530/530/527
f 531/528/525 533/532/529 529/533/530
f 529/533/530 533/532/529 534/534/531
f 539/535/532 537/536/533 538/537/534
f 536/538/535 537/536/533 539/535/532
f 538/537/534 540/539/536 539/535/532
f 539/535/532 541/540/537 536/538/535
f 536/538/535 541/540/537 542/541/538
f 542/541/538 543/542/539 534/534/531
f 542/541/538 535/543/540 536/538/535
f 534/534/531 535/543/540 542/541/538
f 534/534/531 543/542/539 529/533/530
f 547/544/541 544/545/542 546/546/543
f 546/546/543 540/539/536 538/537/534
f 546/546/543 548/547/543 547/544/541
f 538/537/534 548/547/543 546/546/543
f 557/548/544 545/549/545 549/550/546
f 549/550/546 550/551/547 557/548/544
f 549/550/546 545/549/545 547/544/541
f 557/548/544 550/551/547 551/552/548
f 551/552/548 556/553/549 557/548/544
f 552/554/550 556/553/549 551/552/548
f 552/554/550 553/555/551 554/556/552
f 554/556/552 555/557/553 552/554/550
f 552/554/550 555/557/553 556/553/549
f 545/549/545 544/545/542 547/544/541
f 529/533/530 528/529/526 531/528/525
f 501/517/514 500/496/495 503/495/495
f 455/463/463 558/558/554 459/466/466
f 459/466/466 457/462/462 455/463/463
f 559/559/555 558/558/554 455/463/463
f 577/560/556 560/561/557 559/559/555
f 559/559/555 456/461/461 577/560/556
f 455/463/463 456/461/461 559/559/555
f 561/562/558 560/561/557 577/560/556
f 575/563/559 562/564/560 561/562/558
f 561/562/558 576/565/561 575/563/559
f 577/560/556 576/565/561 561/562/558
f 563/566/562 562/564/560 575/563/559
f 573/567/563 564/568/564 563/566/562
f 563/566/562 574/569/565 573/567/563
f 575/563/559 574/569/565 563/566/562
f 565/570/566 564/568/564 573/567/563
f 571/571/567 566/572/568 565/570/566
f 565/570/566 572/573/569 571/571/567
f 573/567/563 572/573/569 565/570/566
f 567/574/570 566/572/568 571/571/567
f 570/575/571 568/576/572 567/574/570
f 567/574/570 569/577/573 570/575/571
f 571/571/567 569/577/573 567/574/570
f 434/439/439 568/576/572 570/575/571
f 441/447/447 570/575/571 569/577/573
f 569/577/573 442/448/448 441/447/447
f 444/449/449 442/448/448 569/577/573
f 569/577/573 571/571/567 444/449/449
f 444/449/449 571/571/567 572/573/569
f 572/573/569 443/450/450 444/449/449
f 445/454/454 443/450/450 572/573/569
f 572/573/569 573/567/563 445/454/454
f 445/454/454 573/567/563 574/569/565
f 574/569/565 446/451/451 445/454/454
f 448/452/452 446/451/451 574/569/565
f 574/569/565 575/563/559 448/452/452
f 448/452/452 575/563/559 576/565/561
f 576/565/561 449/455/455 448/452/452
f 451/456/456 449/455/455 576/565/561
f 576/565/561 577/560/556 451/456/456
f 451/456/456 577/560/556 456/461/461
f 456/461/461 452/458/458 451/456/456
f 436/440/440 570/575/571 441/447/447
f 441/447/447 439/442/442 436/440/440
f 570/575/571 436/440/440 434/439/439
f 488/443/443 438/441/441 440/444/444
f 491/428/428 426/429/429 428/432/432
f 420/421/421 422/422/422 492/426/426
f 402/402/402 418/418/418 420/421/421
f 414/414/414 412/411/411 410/412/412
