# Blender 5.1.2
# www.blender.org
mtllib btn_share.mtl
o btn_share
v -0.441861 -0.299594 0.459783
v -0.447802 -0.300055 0.452850
v -0.439570 -0.298699 0.469234
v -0.440339 -0.296929 0.482503
v -0.443649 -0.293857 0.500666
v -0.448213 -0.290682 0.517470
v -0.447784 -0.275874 0.514230
v -0.443206 -0.278972 0.497807
v -0.439993 -0.281914 0.480430
v -0.439288 -0.283623 0.467658
v -0.441617 -0.284502 0.458416
v -0.447504 -0.284952 0.451624
v -0.456054 -0.285013 0.447942
v -0.466707 -0.299826 0.449254
v -0.466376 -0.284723 0.448030
v -0.475966 -0.284092 0.451965
v -0.482723 -0.298217 0.461241
v -0.482322 -0.283131 0.459824
v -0.486873 -0.281490 0.472251
v -0.491048 -0.278818 0.489889
v -0.491539 -0.293829 0.491956
v -0.487345 -0.296536 0.474016
v -0.494254 -0.290966 0.509524
v -0.493705 -0.276061 0.506791
v -0.494243 -0.288946 0.520311
v -0.493704 -0.274161 0.517008
v -0.490620 -0.272765 0.523482
v -0.484031 -0.271521 0.529153
v -0.484332 -0.286122 0.533216
v -0.491114 -0.287456 0.527176
v -0.475899 -0.285425 0.536780
v -0.475500 -0.270848 0.532650
v -0.467007 -0.285734 0.536758
v -0.466588 -0.271166 0.532601
v -0.458534 -0.272206 0.529573
v -0.452580 -0.273697 0.524134
v -0.453104 -0.288349 0.528016
v -0.458914 -0.286809 0.533613
v -0.448213 -0.290682 0.517470
v -0.447784 -0.275874 0.514230
v -0.476369 -0.299185 0.453279
v -0.456386 -0.300117 0.449150
v -0.479000 -0.301003 0.532456
v -0.465132 -0.300917 0.532870
v -0.483058 -0.299913 0.534481
v -0.467684 -0.299285 0.537697
v -0.475544 -0.299086 0.537955
v -0.460452 -0.299678 0.534924
v -0.454441 -0.299737 0.529822
v -0.459819 -0.297887 0.535380
v -0.467348 -0.297271 0.538504
v -0.467157 -0.293220 0.537800
v -0.475643 -0.293167 0.537878
v -0.475695 -0.297254 0.538589
v -0.459506 -0.293896 0.534635
v -0.453846 -0.295076 0.528919
v -0.449227 -0.297159 0.518663
v -0.444835 -0.303913 0.502269
v -0.449673 -0.301034 0.519549
v -0.453812 -0.295071 0.528943
v -0.458860 -0.274095 0.529553
v -0.459489 -0.293891 0.534658
v -0.453177 -0.275647 0.523878
v -0.448638 -0.277946 0.513842
v -0.444380 -0.281237 0.497693
v -0.441402 -0.284157 0.480626
v -0.441560 -0.303870 0.484229
v -0.441928 -0.307823 0.484920
v -0.440777 -0.305770 0.471378
v -0.442909 -0.306894 0.462224
v -0.443207 -0.311053 0.463102
v -0.448499 -0.307886 0.455666
v -0.456682 -0.308479 0.452226
v -0.466537 -0.312769 0.453445
v -0.466595 -0.308407 0.452427
v -0.475819 -0.307839 0.456342
v -0.481705 -0.311227 0.464964
v -0.481933 -0.306949 0.464043
v -0.486353 -0.305149 0.476342
v -0.490260 -0.305932 0.495012
v -0.486117 -0.309330 0.477225
v -0.490493 -0.301854 0.494050
v -0.493158 -0.298462 0.511173
v -0.492933 -0.302469 0.512208
v -0.493155 -0.296370 0.521719
v -0.490149 -0.295022 0.528502
v -0.483729 -0.297939 0.535097
v -0.483809 -0.293861 0.534333
v -0.489677 -0.300046 0.529397
v -0.492743 -0.301098 0.522823
v -0.488169 -0.301373 0.528680
v -0.490638 -0.302637 0.522824
v -0.478682 -0.312432 0.474546
v -0.491916 -0.304078 0.512770
v -0.488993 -0.307681 0.495656
v -0.485094 -0.310958 0.477757
v -0.480622 -0.312944 0.465975
v -0.475431 -0.313103 0.457795
v -0.466299 -0.314430 0.454982
v -0.456867 -0.313744 0.453719
v -0.448860 -0.312856 0.456898
v -0.444169 -0.312657 0.463880
v -0.441326 -0.310545 0.472271
v -0.443000 -0.309532 0.485047
v -0.446524 -0.306276 0.502854
v -0.448501 -0.310233 0.485980
v -0.449957 -0.314078 0.458890
v -0.457372 -0.314698 0.455729
v -0.473774 -0.314153 0.459360
v -0.443966 -0.312211 0.472926
v -0.456337 -0.301408 0.529117
v -0.450761 -0.302721 0.519730
v -0.467163 -0.293208 0.537849
v -0.475081 -0.272742 0.532616
v -0.475648 -0.293160 0.537907
v -0.466549 -0.273046 0.532621
v -0.483823 -0.293849 0.534380
v -0.489662 -0.274697 0.523256
v -0.490174 -0.295018 0.528517
v -0.483293 -0.273426 0.529068
v -0.493200 -0.296369 0.521720
v -0.493187 -0.298462 0.511170
v -0.492672 -0.278155 0.506054
v -0.492669 -0.276153 0.516458
v -0.490030 -0.281061 0.489424
v -0.485964 -0.283663 0.472237
v -0.481698 -0.284753 0.460159
v -0.475729 -0.285115 0.452529
v -0.466555 -0.285534 0.448685
v -0.456644 -0.285829 0.448529
v -0.448461 -0.285818 0.451964
v -0.442862 -0.285616 0.458548
v -0.440702 -0.285339 0.467840
v -0.441402 -0.284157 0.480626
v -0.441546 -0.303869 0.484232
v -0.440743 -0.305781 0.471298
v -0.442883 -0.306896 0.462211
v -0.448522 -0.307898 0.455593
v -0.456675 -0.308483 0.452201
v -0.466568 -0.308414 0.452383
v -0.475837 -0.307843 0.456320
v -0.481987 -0.306950 0.464042
v -0.486381 -0.305150 0.476333
v -0.490499 -0.301895 0.493832
vn -0.9751 -0.0146 -0.2213
vn -0.9456 0.0179 -0.3247
vn -0.9391 -0.0478 -0.3402
vn -0.9752 -0.0148 -0.2210
vn -0.9929 0.0046 -0.1192
vn -0.9955 0.0271 0.0906
vn -0.9955 0.0268 0.0903
vn -0.9929 0.0076 -0.1184
vn -0.8883 0.0564 0.4558
vn -0.5922 0.0782 0.8020
vn -0.8906 0.0557 0.4514
vn -0.5913 0.0778 0.8027
vn -0.1953 0.0829 0.9772
vn -0.1961 0.0827 0.9771
vn 0.2015 0.0756 0.9766
vn 0.2017 0.0755 0.9765
vn 0.6013 0.0536 0.7973
vn 0.8716 0.0224 0.4897
vn 0.6034 0.0532 0.7957
vn 0.8719 0.0226 0.4892
vn 0.9583 0.0034 0.2859
vn 0.9812 -0.0057 0.1929
vn 0.9812 -0.0056 0.1929
vn 0.9586 0.0033 0.2846
vn 0.9964 -0.0225 0.0813
vn 0.9965 -0.0220 0.0802
vn 0.9763 -0.0834 -0.1996
vn 0.9762 -0.0832 -0.2005
vn 0.8033 -0.1712 -0.5704
vn 0.5342 -0.2359 -0.8118
vn 0.5355 -0.2357 -0.8110
vn 0.8101 -0.1681 -0.5617
vn 0.1907 -0.2707 -0.9436
vn 0.1943 -0.2709 -0.9428
vn -0.1977 -0.2610 -0.9449
vn -0.1967 -0.2613 -0.9450
vn -0.5430 -0.2081 -0.8135
vn -0.8147 -0.1217 -0.5669
vn -0.8159 -0.1216 -0.5652
vn -0.5539 -0.2068 -0.8065
vn -0.9391 -0.0502 -0.3399
vn -0.9305 0.0066 -0.3662
vn -0.0370 -0.9586 0.2824
vn 0.0357 -0.9595 0.2793
vn 0.1088 -0.7232 0.6821
vn -0.1077 -0.6516 0.7508
vn -0.3078 -0.6981 0.6465
vn 0.3237 -0.6975 0.6393
vn 0.2662 -0.8885 0.3738
vn 0.7218 -0.3897 0.5719
vn 0.1934 -0.1135 0.9745
vn 0.5392 -0.1260 0.8327
vn 0.5700 0.1385 0.8099
vn 0.2036 0.1945 0.9595
vn -0.2017 0.2062 0.9575
vn -0.1949 -0.0839 0.9772
vn 0.8268 0.0384 0.5612
vn 0.9423 0.0130 0.3346
vn 0.8937 -0.2557 0.3686
vn 0.9334 -0.2505 0.2569
vn 0.8259 0.1157 0.5519
vn 0.8299 0.1149 0.5460
vn 0.5649 0.1902 0.8029
vn 0.5597 0.1902 0.8066
vn 0.9450 0.0523 0.3227
vn 0.9772 0.0238 0.2108
vn 0.9931 0.0101 0.1165
vn 0.9934 -0.0234 0.1125
vn 0.9403 -0.2967 0.1665
vn 0.8584 -0.5129 0.0112
vn 0.9932 -0.0923 -0.0712
vn 0.8920 -0.1293 -0.4331
vn 0.5080 -0.5857 -0.6316
vn 0.5931 -0.2027 -0.7792
vn 0.8521 -0.3692 -0.3711
vn 0.1932 -0.2357 -0.9524
vn -0.2011 -0.4607 -0.8645
vn -0.2113 -0.1950 -0.9578
vn 0.1688 -0.6509 -0.7401
vn -0.6052 -0.2058 -0.7690
vn -0.8256 -0.3965 -0.4015
vn -0.8743 -0.1139 -0.4719
vn -0.5177 -0.6307 -0.5780
vn -0.9595 -0.0773 -0.2707
vn -0.9284 -0.3547 -0.1107
vn -0.9819 -0.0613 -0.1794
vn -0.9147 -0.3456 -0.2098
vn -0.9972 -0.0396 -0.0642
vn -0.8575 -0.4264 0.2879
vn -0.9781 -0.0009 0.2080
vn -0.9534 -0.3012 -0.0148
vn -0.8194 0.0754 0.5683
vn -0.7015 -0.3935 0.5942
vn -0.5278 -0.1248 0.8402
vn -0.5519 0.1789 0.8145
vn -0.3211 -0.9127 0.2526
vn -0.2814 -0.8889 0.3616
vn -0.0788 -0.9877 0.1351
vn -0.4977 -0.8641 0.0746
vn -0.5891 -0.8000 0.1140
vn -0.5405 -0.8413 -0.0131
vn -0.4649 -0.8780 -0.1143
vn -0.1620 -0.9798 -0.1173
vn -0.1307 -0.9097 -0.3942
vn 0.0825 -0.9802 -0.1801
vn 0.2321 -0.9654 -0.1186
vn 0.5345 -0.8341 -0.1364
vn 0.3038 -0.9439 0.1294
vn 0.5537 -0.8026 0.2216
vn 0.5090 -0.8147 0.2777
vn 0.0761 -0.9786 0.1911
vn 0.5464 -0.7625 0.3466
vn 0.1987 0.2396 0.9503
vn 0.2021 0.2400 0.9495
vn -0.2013 0.2511 0.9468
vn -0.2028 0.2509 0.9465
vn -0.5495 0.2231 0.8052
vn -0.5501 0.2235 0.8046
vn -0.8167 0.1648 0.5531
vn -0.8140 0.1647 0.5570
vn -0.9968 0.0067 -0.0795
vn -0.9971 0.0064 -0.0762
vn -0.9770 0.0765 0.1990
vn -0.9786 0.0754 0.1917
vn -0.9819 -0.0183 -0.1887
vn -0.9817 -0.0181 -0.1898
vn -0.9599 -0.0353 -0.2781
vn -0.9600 -0.0336 -0.2779
vn -0.8777 -0.0717 -0.4738
vn -0.8760 -0.0718 -0.4770
vn -0.6067 -0.1264 -0.7848
vn -0.6116 -0.1269 -0.7809
vn -0.2102 -0.1571 -0.9649
vn -0.2089 -0.1565 -0.9653
vn 0.1864 -0.1580 -0.9697
vn 0.1897 -0.1566 -0.9693
vn 0.5919 -0.1327 -0.7950
vn 0.5894 -0.1324 -0.7970
vn 0.8922 -0.0763 -0.4452
vn 0.8959 -0.0762 -0.4377
vn 0.9966 -0.0170 -0.0809
vn 0.9963 -0.0172 -0.0847
vn 0.9934 0.0142 0.1135
vn 0.9937 -0.0297 0.1081
vt 0.662123 0.990790
vt 0.663643 0.996093
vt 0.667917 0.995319
vt 0.667845 0.989922
vt 0.666989 0.983756
vt 0.666509 0.979279
vt 0.660743 0.979765
vt 0.661238 0.984405
vt 0.666252 0.975736
vt 0.660287 0.972692
vt 0.660478 0.976114
vt 0.666063 0.972372
vt 0.665904 0.968933
vt 0.660126 0.969225
vt 0.659955 0.965437
vt 0.665734 0.965164
vt 0.665575 0.961265
vt 0.659666 0.957621
vt 0.659795 0.961508
vt 0.665449 0.957439
vt 0.665402 0.952792
vt 0.665482 0.946430
vt 0.659695 0.946333
vt 0.659617 0.952866
vt 0.665643 0.940400
vt 0.659862 0.940101
vt 0.660076 0.936246
vt 0.665841 0.936746
vt 0.666116 0.934046
vt 0.666507 0.930875
vt 0.660772 0.930110
vt 0.660369 0.933379
vt 0.666955 0.927522
vt 0.661227 0.926709
vt 0.661676 0.923444
vt 0.667401 0.924276
vt 0.667865 0.921164
vt 0.668367 0.918213
vt 0.662658 0.917247
vt 0.662145 0.920296
vt 0.668047 0.915924
vt 0.663775 0.915136
vt 0.262558 0.179127
vt 0.255195 0.178647
vt 0.256348 0.181729
vt 0.260496 0.182329
vt 0.264652 0.180852
vt 0.252620 0.179928
vt 0.250696 0.176376
vt 0.249357 0.177087
vt 0.255957 0.182933
vt 0.251906 0.180773
vt 0.251359 0.181408
vt 0.255697 0.183723
vt 0.260645 0.184278
vt 0.260580 0.183442
vt 0.248237 0.177694
vt 0.246479 0.175531
vt 0.246910 0.171323
vt 0.245073 0.161743
vt 0.246227 0.177868
vt 0.234096 0.178331
vt 0.234347 0.183012
vt 0.246705 0.182506
vt 0.233589 0.172134
vt 0.232630 0.162819
vt 0.233224 0.154457
vt 0.242125 0.148981
vt 0.244790 0.151703
vt 0.245718 0.144665
vt 0.244503 0.144249
vt 0.246561 0.139074
vt 0.250973 0.136721
vt 0.250349 0.135612
vt 0.247229 0.139607
vt 0.255343 0.134122
vt 0.260774 0.135672
vt 0.261021 0.134865
vt 0.255505 0.135560
vt 0.266111 0.137693
vt 0.268604 0.142894
vt 0.269341 0.142461
vt 0.265193 0.138793
vt 0.271296 0.149693
vt 0.271676 0.160002
vt 0.272562 0.159913
vt 0.270452 0.149912
vt 0.272886 0.169756
vt 0.270833 0.175429
vt 0.272017 0.175854
vt 0.272020 0.169707
vt 0.269679 0.179682
vt 0.268609 0.178769
vt 0.265219 0.181972
vt 0.265597 0.182710
vt 0.269398 0.174940
vt 0.267680 0.177981
vt 0.265725 0.147999
vt 0.270335 0.160115
vt 0.270873 0.169647
vt 0.269323 0.150171
vt 0.267469 0.143533
vt 0.264084 0.139726
vt 0.260389 0.136908
vt 0.255678 0.136838
vt 0.251591 0.138065
vt 0.248121 0.140312
vt 0.247396 0.145029
vt 0.245956 0.151762
vt 0.246777 0.161619
vt 0.249170 0.152646
vt 0.248052 0.171097
vt 0.247134 0.187243
vt 0.234540 0.187775
vt 0.234718 0.192689
vt 0.247475 0.192148
vt 0.247691 0.197287
vt 0.234928 0.197820
vt 0.235098 0.202772
vt 0.247791 0.202248
vt 0.235021 0.212959
vt 0.247685 0.212552
vt 0.247785 0.206622
vt 0.235156 0.207145
vt 0.247494 0.222183
vt 0.234607 0.222230
vt 0.233945 0.231871
vt 0.247184 0.232236
vt 0.246696 0.239435
vt 0.233064 0.238797
vt 0.232243 0.244449
vt 0.246177 0.245251
vt 0.245771 0.251152
vt 0.231759 0.250269
vt 0.231529 0.255911
vt 0.245399 0.256837
vt 0.244982 0.262000
vt 0.231470 0.261027
vt 0.231580 0.266103
vt 0.244605 0.267102
vt 0.244352 0.272599
vt 0.231858 0.271621
vt 0.233622 0.276042
vt 0.242720 0.276754
s 1
usemtl 1011
f 5/1/1 6/2/2 7/3/3
f 7/3/3 8/4/4 5/1/1
f 5/1/1 8/4/4 9/5/5
f 9/5/5 10/6/6 3/7/7
f 9/5/5 4/8/8 5/1/1
f 3/7/7 4/8/8 9/5/5
f 3/7/7 10/6/6 11/9/9
f 2/10/10 1/11/11 11/9/9
f 11/9/9 12/12/12 2/10/10
f 11/9/9 1/11/11 3/7/7
f 2/10/10 12/12/12 13/13/13
f 13/13/13 42/14/14 2/10/10
f 14/15/15 42/14/14 13/13/13
f 13/13/13 15/16/16 14/15/15
f 14/15/15 15/16/16 16/17/17
f 17/18/18 41/19/19 16/17/17
f 16/17/17 41/19/19 14/15/15
f 16/17/17 18/20/20 17/18/18
f 17/18/18 18/20/20 19/21/21
f 19/21/21 20/22/22 21/23/23
f 19/21/21 22/24/24 17/18/18
f 21/23/23 22/24/24 19/21/21
f 24/25/25 23/26/26 21/23/23
f 21/23/23 20/22/22 24/25/25
f 25/27/27 23/26/26 24/25/25
f 24/25/25 26/28/28 25/27/27
f 25/27/27 26/28/28 27/29/29
f 27/29/29 28/30/30 29/31/31
f 27/29/29 30/32/32 25/27/27
f 29/31/31 30/32/32 27/29/29
f 32/33/33 31/34/34 29/31/31
f 29/31/31 28/30/30 32/33/33
f 33/35/35 31/34/34 32/33/33
f 32/33/33 34/36/36 33/35/35
f 33/35/35 34/36/36 35/37/37
f 35/37/37 36/38/38 37/39/39
f 35/37/37 38/40/40 33/35/35
f 37/39/39 38/40/40 35/37/37
f 40/41/41 39/42/42 37/39/39
f 37/39/39 36/38/38 40/41/41
usemtl 1001
f 43/43/43 44/44/44 46/45/45
f 43/43/43 47/46/46 45/47/47
f 46/45/45 47/46/46 43/43/43
f 44/44/44 48/48/48 46/45/45
f 111/49/49 49/50/50 48/48/48
f 51/51/51 46/45/45 48/48/48
f 49/50/50 50/52/52 48/48/48
f 48/48/48 50/52/52 51/51/51
f 55/53/53 52/54/54 51/51/51
f 51/51/51 52/54/54 53/55/55
f 51/51/51 54/56/56 47/46/46
f 47/46/46 46/45/45 51/51/51
f 53/55/55 54/56/56 51/51/51
f 51/51/51 50/52/52 55/53/53
f 49/50/50 56/57/57 55/53/53
f 55/53/53 50/52/52 49/50/50
f 57/58/58 56/57/57 49/50/50
f 49/50/50 59/59/59 57/58/58
f 57/58/58 59/59/59 58/60/60
f 60/61/61 63/62/62 61/63/63
f 61/63/63 62/64/64 60/61/61
f 64/65/65 63/62/62 60/61/61
f 60/61/61 57/58/58 64/65/65
f 64/65/65 57/58/58 58/60/60
f 58/60/60 65/66/66 64/65/65
f 66/67/67 65/66/66 58/60/60
f 58/60/60 67/68/68 66/67/67
f 58/60/60 68/69/69 67/68/68
f 67/68/68 68/69/69 103/70/70
f 103/70/70 69/71/71 67/68/68
f 70/72/72 69/71/71 103/70/70
f 101/73/73 72/74/74 70/72/72
f 70/72/72 71/75/75 101/73/73
f 103/70/70 71/75/75 70/72/72
f 73/76/76 72/74/74 101/73/73
f 74/77/77 75/78/78 73/76/76
f 73/76/76 100/79/79 74/77/77
f 101/73/73 100/79/79 73/76/76
f 76/80/80 75/78/78 74/77/77
f 77/81/81 78/82/82 76/80/80
f 76/80/80 98/83/83 77/81/81
f 74/77/77 98/83/83 76/80/80
f 79/84/84 78/82/82 77/81/81
f 80/85/85 82/86/86 79/84/84
f 79/84/84 81/87/87 80/85/85
f 77/81/81 81/87/87 79/84/84
f 83/88/88 82/86/86 80/85/85
f 90/89/89 85/90/90 83/88/88
f 83/88/88 84/91/91 90/89/89
f 80/85/85 84/91/91 83/88/88
f 86/92/92 85/90/90 90/89/89
f 90/89/89 89/93/93 86/92/92
f 86/92/92 89/93/93 87/94/94
f 87/94/94 88/95/95 86/92/92
f 53/55/55 88/95/95 87/94/94
f 87/94/94 54/56/56 53/55/55
f 47/46/46 54/56/56 87/94/94
f 87/94/94 45/47/47 47/46/46
f 89/93/93 45/47/47 87/94/94
f 92/96/96 91/97/97 89/93/93
f 89/93/93 90/89/89 92/96/96
f 89/93/93 91/97/97 45/47/47
f 91/97/97 92/96/96 43/43/43
f 91/97/97 43/43/43 45/47/47
f 93/98/98 43/43/43 92/96/96
f 95/99/99 93/98/98 92/96/96
f 92/96/96 94/100/100 95/99/99
f 95/99/99 96/101/101 93/98/98
f 92/96/96 90/89/89 94/100/100
f 80/85/85 95/99/99 94/100/100
f 90/89/89 84/91/91 94/100/100
f 94/100/100 84/91/91 80/85/85
f 96/101/101 95/99/99 80/85/85
f 77/81/81 97/102/102 96/101/101
f 80/85/85 81/87/87 96/101/101
f 96/101/101 81/87/87 77/81/81
f 98/83/83 97/102/102 77/81/81
f 98/83/83 109/103/103 97/102/102
f 99/104/104 109/103/103 98/83/83
f 74/77/77 99/104/104 98/83/83
f 100/79/79 99/104/104 74/77/77
f 100/79/79 108/105/105 99/104/104
f 107/106/106 108/105/105 100/79/79
f 100/79/79 101/73/73 107/106/106
f 107/106/106 101/73/73 102/107/107
f 102/107/107 103/70/70 110/108/108
f 101/73/73 71/75/75 102/107/107
f 102/107/107 71/75/75 103/70/70
f 110/108/108 103/70/70 104/109/109
f 58/60/60 105/110/110 104/109/109
f 104/109/109 68/69/69 58/60/60
f 103/70/70 68/69/69 104/109/109
f 106/111/111 104/109/109 105/110/110
f 110/108/108 104/109/109 106/111/111
f 107/106/106 102/107/107 110/108/108
f 108/105/105 107/106/106 110/108/108
f 108/105/105 109/103/103 99/104/104
f 93/98/98 109/103/103 108/105/105
f 108/105/105 110/108/108 93/98/98
f 93/98/98 110/108/108 106/111/111
f 44/44/44 93/98/98 106/111/111
f 44/44/44 43/43/43 93/98/98
f 111/49/49 44/44/44 106/111/111
f 111/49/49 106/111/111 105/110/110
f 105/110/110 112/112/112 111/49/49
f 112/112/112 49/50/50 111/49/49
f 112/112/112 105/110/110 58/60/60
f 112/112/112 59/59/59 49/50/50
f 58/60/60 59/59/59 112/112/112
f 109/103/103 93/98/98 97/102/102
f 93/98/98 96/101/101 97/102/102
f 113/113/113 116/114/114 114/115/115
f 114/115/115 115/116/116 113/113/113
f 61/63/63 116/114/114 113/113/113
f 113/113/113 62/64/64 61/63/63
f 117/117/117 120/118/118 118/119/119
f 118/119/119 119/120/120 117/117/117
f 114/115/115 120/118/118 117/117/117
f 117/117/117 115/116/116 114/115/115
f 123/121/121 122/122/122 121/123/123
f 121/123/123 124/124/124 123/121/121
f 118/119/119 124/124/124 121/123/123
f 121/123/123 119/120/120 118/119/119
f 144/125/125 122/122/122 123/121/121
f 123/121/121 125/126/126 144/125/125
f 144/125/125 125/126/126 126/127/127
f 126/127/127 143/128/128 144/125/125
f 142/129/129 143/128/128 126/127/127
f 126/127/127 127/130/130 142/129/129
f 142/129/129 127/130/130 128/131/131
f 128/131/131 141/132/132 142/129/129
f 140/133/133 141/132/132 128/131/131
f 128/131/131 129/134/134 140/133/133
f 140/133/133 129/134/134 130/135/135
f 130/135/135 139/136/136 140/133/133
f 138/137/137 139/136/136 130/135/135
f 130/135/135 131/138/138 138/137/137
f 138/137/137 131/138/138 132/139/139
f 132/139/139 137/140/140 138/137/137
f 136/141/141 137/140/140 132/139/139
f 132/139/139 133/142/142 136/141/141
f 136/141/141 133/142/142 134/143/143
f 134/143/143 135/144/144 136/141/141
f 111/49/49 48/48/48 44/44/44
