# Blender 5.1.2
# www.blender.org
mtllib btn_cross.mtl
o btn_cross
v 0.677227 -0.258794 0.092540
v 0.665941 -0.256528 0.079829
v 0.665941 -0.275829 0.079828
v 0.677227 -0.278095 0.092540
v 0.651793 -0.274369 0.070406
v 0.651793 -0.255068 0.070406
v 0.688186 -0.264758 0.124426
v 0.688186 -0.284059 0.124426
v 0.687100 -0.286913 0.141390
v 0.687100 -0.267612 0.141390
v 0.681734 -0.270136 0.157520
v 0.681734 -0.289437 0.157520
v 0.684768 -0.280979 0.107775
v 0.684768 -0.261678 0.107775
v 0.672311 -0.291525 0.171668
v 0.672311 -0.272224 0.171668
v 0.659599 -0.273924 0.182954
v 0.659599 -0.293225 0.182954
v 0.644365 -0.294583 0.190496
v 0.644365 -0.275282 0.190496
v 0.627713 -0.276217 0.193913
v 0.627713 -0.295518 0.193913
v 0.618699 -0.255213 0.063954
v 0.618699 -0.274514 0.063954
v 0.635663 -0.273907 0.065040
v 0.635663 -0.254606 0.065040
v 0.610749 -0.295951 0.192827
v 0.610749 -0.276650 0.192827
v 0.594620 -0.276616 0.187461
v 0.594620 -0.295917 0.187461
v 0.586813 -0.259595 0.074913
v 0.586813 -0.278896 0.074913
v 0.602047 -0.276263 0.067372
v 0.602047 -0.256962 0.067372
v 0.594620 -0.276616 0.187461
v 0.594620 -0.295917 0.187461
v 0.580471 -0.295450 0.178039
v 0.580471 -0.276149 0.178039
v 0.569186 -0.275226 0.165327
v 0.569186 -0.294527 0.165327
v 0.564679 -0.266255 0.100347
v 0.564679 -0.285556 0.100347
v 0.574101 -0.282156 0.086199
v 0.574101 -0.262855 0.086199
v 0.561644 -0.293127 0.150093
v 0.561644 -0.273826 0.150093
v 0.558227 -0.271877 0.133441
v 0.558227 -0.291179 0.133441
v 0.559313 -0.288609 0.116477
v 0.559313 -0.269308 0.116477
v 0.622550 -0.315643 0.158028
v 0.616361 -0.316545 0.172082
v 0.603977 -0.315893 0.156082
v 0.637177 -0.313501 0.143424
v 0.622564 -0.314451 0.143653
v 0.636649 -0.314922 0.157539
v 0.607945 -0.314755 0.143426
v 0.635981 -0.315865 0.170672
v 0.650101 -0.313927 0.156343
v 0.622521 -0.316563 0.181959
v 0.635385 -0.316226 0.180848
v 0.647087 -0.315668 0.177802
v 0.657617 -0.314395 0.165799
v 0.656468 -0.314915 0.173114
v 0.662638 -0.314014 0.168883
v 0.666876 -0.313256 0.162715
v 0.662263 -0.312821 0.154715
v 0.671579 -0.311691 0.153329
v 0.674635 -0.309687 0.141627
v 0.679911 -0.308556 0.141311
v 0.676492 -0.310627 0.152863
v 0.671095 -0.312322 0.162413
v 0.678715 -0.309126 0.152859
v 0.664171 -0.313667 0.170413
v 0.665674 -0.312374 0.171910
v 0.673079 -0.310918 0.163104
v 0.674197 -0.308540 0.163499
v 0.679959 -0.306689 0.152859
v 0.680525 -0.303749 0.152861
v 0.666528 -0.310068 0.172765
v 0.666925 -0.307202 0.173166
v 0.674834 -0.304669 0.163711
v 0.680755 -0.298304 0.152853
v 0.667091 -0.301806 0.173320
v 0.674882 -0.300217 0.163747
v 0.657504 -0.303000 0.181125
v 0.646627 -0.303809 0.186994
v 0.634798 -0.304244 0.190530
v 0.622509 -0.304408 0.191753
v 0.634798 -0.304244 0.190530
v 0.622507 -0.302766 0.191656
v 0.610212 -0.308875 0.190458
v 0.622511 -0.309257 0.191640
v 0.598400 -0.304297 0.186957
v 0.598396 -0.309169 0.186848
v 0.610172 -0.312663 0.189710
v 0.598400 -0.312564 0.186168
v 0.587761 -0.312441 0.180422
v 0.587547 -0.308639 0.181072
v 0.577933 -0.303948 0.173326
v 0.587514 -0.304171 0.181125
v 0.578094 -0.309365 0.173167
v 0.578493 -0.312225 0.172767
v 0.570834 -0.311849 0.163500
v 0.570188 -0.308030 0.163713
v 0.564499 -0.308257 0.152861
v 0.564265 -0.302831 0.152862
v 0.570136 -0.303557 0.163747
v 0.560731 -0.301607 0.141040
v 0.559467 -0.299835 0.128735
v 0.560731 -0.297483 0.116463
v 0.564271 -0.294729 0.104628
v 0.570136 -0.291767 0.093757
v 0.577924 -0.288896 0.084193
v 0.587514 -0.286401 0.076378
v 0.598383 -0.284444 0.070520
v 0.610221 -0.283168 0.066973
v 0.622507 -0.282556 0.065716
v 0.634798 -0.282584 0.066973
v 0.646629 -0.283162 0.070517
v 0.657504 -0.284199 0.076378
v 0.667088 -0.285629 0.084187
v 0.674882 -0.287383 0.093757
v 0.680755 -0.289398 0.104650
v 0.684288 -0.291591 0.116463
v 0.685549 -0.293878 0.128752
v 0.684288 -0.296156 0.141040
v 0.684221 -0.300624 0.141047
v 0.685314 -0.299327 0.128752
v 0.683508 -0.304558 0.141089
v 0.684728 -0.302278 0.128753
v 0.683503 -0.299978 0.116417
v 0.684222 -0.296052 0.116456
v 0.680525 -0.294836 0.104641
v 0.679958 -0.297783 0.104636
v 0.674217 -0.295820 0.093965
v 0.674831 -0.291819 0.093780
v 0.666934 -0.291077 0.084319
v 0.657276 -0.292732 0.076991
v 0.666562 -0.294125 0.084664
v 0.657474 -0.288629 0.076421
v 0.646618 -0.288646 0.070719
v 0.646616 -0.291718 0.071235
v 0.634803 -0.287039 0.067032
v 0.634842 -0.291159 0.067683
v 0.646613 -0.294407 0.072416
v 0.634918 -0.293868 0.068905
v 0.622513 -0.293871 0.067673
v 0.622510 -0.288051 0.065927
v 0.622511 -0.291143 0.066456
v 0.610180 -0.291761 0.067674
v 0.610110 -0.294497 0.068887
v 0.598419 -0.295744 0.072388
v 0.610215 -0.287622 0.067031
v 0.598402 -0.289924 0.070716
v 0.598408 -0.293016 0.071222
v 0.587753 -0.294911 0.076983
v 0.578472 -0.297319 0.084663
v 0.578089 -0.294281 0.084318
v 0.579329 -0.299943 0.085445
v 0.587548 -0.290786 0.076418
v 0.588155 -0.297611 0.078021
v 0.588885 -0.299506 0.079924
v 0.580875 -0.301700 0.086873
v 0.598438 -0.297706 0.074538
v 0.585702 -0.301854 0.085789
v 0.578207 -0.304621 0.094653
v 0.573961 -0.304111 0.094974
v 0.573494 -0.307194 0.104167
v 0.568578 -0.306684 0.104621
v 0.566352 -0.305349 0.104627
v 0.571952 -0.302581 0.094321
v 0.570824 -0.300112 0.093965
v 0.565088 -0.303018 0.104634
v 0.564500 -0.300139 0.104640
v 0.570189 -0.296159 0.093780
v 0.561545 -0.305766 0.116416
v 0.560801 -0.301952 0.116456
v 0.559711 -0.305262 0.128752
v 0.561539 -0.309914 0.141090
v 0.560320 -0.308138 0.128753
v 0.560801 -0.306081 0.141048
v 0.561632 -0.310459 0.128756
v 0.565154 -0.313587 0.141314
v 0.563943 -0.311784 0.128760
v 0.562847 -0.312246 0.141171
v 0.565161 -0.309362 0.116206
v 0.562856 -0.308067 0.116340
v 0.570435 -0.309929 0.115911
v 0.569317 -0.312420 0.128770
v 0.570430 -0.314259 0.141630
v 0.581268 -0.314604 0.142281
v 0.582804 -0.315823 0.154714
v 0.582232 -0.312690 0.128644
v 0.573476 -0.315481 0.153330
v 0.578161 -0.316123 0.162712
v 0.568565 -0.314806 0.152866
v 0.573943 -0.315474 0.162413
v 0.571960 -0.314162 0.163105
v 0.585643 -0.316375 0.171455
v 0.580852 -0.315801 0.170411
v 0.566342 -0.313468 0.152863
v 0.579348 -0.314518 0.171911
v 0.588853 -0.315995 0.177313
v 0.588157 -0.314725 0.179293
v 0.598401 -0.314844 0.184903
v 0.609957 -0.316188 0.186096
v 0.598402 -0.316107 0.182686
v 0.610094 -0.314935 0.188397
v 0.622512 -0.314916 0.189611
v 0.622515 -0.316148 0.187309
v 0.635072 -0.315897 0.186094
v 0.634931 -0.314704 0.188387
v 0.622510 -0.312659 0.190928
v 0.634849 -0.312474 0.189703
v 0.634805 -0.308723 0.190458
v 0.646619 -0.309208 0.186757
v 0.646621 -0.312024 0.186157
v 0.646623 -0.314242 0.184889
v 0.646625 -0.315415 0.182685
v 0.656169 -0.314685 0.177314
v 0.656863 -0.313474 0.179284
v 0.657258 -0.311226 0.180415
v 0.657472 -0.307463 0.181071
v 0.602209 -0.316638 0.179623
v 0.586702 -0.316475 0.165670
v 0.565083 -0.311137 0.152861
v 0.607963 -0.309757 0.114215
v 0.581492 -0.310057 0.115314
v 0.607733 -0.312783 0.128821
v 0.622573 -0.312456 0.128823
v 0.637406 -0.311391 0.128815
v 0.622575 -0.309318 0.113990
v 0.637180 -0.308376 0.114204
v 0.660888 -0.309198 0.129184
v 0.622566 -0.305514 0.099554
v 0.644734 -0.304721 0.101808
v 0.635977 -0.301133 0.086752
v 0.657481 -0.301067 0.091562
v 0.663435 -0.306171 0.115272
v 0.662250 -0.303453 0.102806
v 0.647067 -0.298229 0.079498
v 0.666871 -0.300889 0.094667
v 0.662644 -0.299485 0.088432
v 0.656458 -0.298965 0.084176
v 0.671565 -0.302710 0.104164
v 0.674625 -0.304975 0.115905
v 0.679901 -0.303920 0.116204
v 0.676483 -0.301757 0.104622
v 0.671110 -0.300022 0.094982
v 0.673107 -0.298363 0.094324
v 0.678710 -0.300235 0.104629
v 0.664201 -0.298578 0.086893
v 0.665725 -0.296766 0.085452
v 0.656178 -0.297286 0.079961
v 0.656888 -0.295410 0.078040
v 0.646608 -0.296308 0.074583
v 0.635057 -0.295805 0.071153
v 0.635373 -0.297912 0.076433
v 0.622528 -0.298055 0.075296
v 0.622518 -0.295840 0.069918
v 0.609980 -0.296479 0.071124
v 0.602254 -0.299202 0.077643
v 0.603070 -0.306668 0.101807
v 0.616140 -0.301703 0.085750
v 0.587012 -0.303914 0.091648
v 0.582834 -0.307050 0.102815
v 0.682210 -0.302417 0.116340
v 0.683436 -0.304735 0.128755
v 0.682219 -0.307019 0.141168
v 0.681124 -0.306268 0.128758
v 0.675749 -0.307397 0.128766
v 0.663645 -0.311033 0.142320
v 0.598398 -0.302653 0.186862
v 0.587514 -0.304171 0.181125
v 0.577961 -0.303948 0.173300
v 0.578025 -0.302305 0.173238
v 0.570136 -0.303557 0.163747
v 0.564304 -0.302832 0.152861
v 0.564399 -0.301190 0.152866
v 0.560731 -0.301607 0.141040
v 0.559508 -0.299838 0.128752
v 0.559606 -0.298202 0.128762
v 0.560731 -0.297483 0.116463
v 0.564304 -0.294729 0.104642
v 0.564399 -0.293092 0.104656
v 0.570136 -0.291767 0.093757
v 0.577961 -0.288892 0.084203
v 0.578025 -0.287283 0.084271
v 0.587514 -0.286401 0.076378
v 0.598400 -0.284443 0.070547
v 0.598398 -0.282828 0.070645
v 0.610221 -0.283168 0.066973
v 0.622509 -0.282556 0.065751
v 0.634798 -0.282584 0.066973
v 0.646618 -0.283162 0.070547
v 0.646617 -0.281543 0.070645
v 0.657504 -0.284199 0.076378
v 0.667057 -0.285628 0.084203
v 0.666992 -0.284010 0.084270
v 0.674882 -0.287383 0.093757
v 0.680714 -0.289394 0.104642
v 0.680617 -0.287763 0.104654
v 0.684288 -0.291591 0.116463
v 0.685510 -0.293878 0.128752
v 0.685411 -0.292249 0.128762
v 0.684288 -0.296156 0.141040
v 0.680714 -0.298308 0.152861
v 0.680618 -0.296674 0.152867
v 0.674882 -0.300217 0.163747
v 0.667057 -0.301807 0.173300
v 0.666992 -0.300169 0.173239
v 0.657504 -0.303000 0.181125
v 0.646618 -0.303809 0.186957
v 0.646615 -0.302161 0.186864
v 0.634804 -0.302647 0.190463
v 0.657465 -0.301121 0.180527
v 0.634892 -0.302363 0.189903
v 0.657473 -0.301400 0.181073
v 0.674332 -0.298419 0.163665
v 0.674831 -0.298617 0.163716
v 0.683668 -0.294390 0.141188
v 0.684218 -0.294568 0.141054
v 0.684219 -0.290004 0.116467
v 0.683676 -0.289802 0.116456
v 0.679903 -0.296604 0.153371
v 0.684920 -0.292149 0.129041
v 0.666657 -0.299953 0.172884
v 0.647367 -0.301873 0.185996
v 0.635403 -0.301015 0.173739
v 0.660187 -0.299532 0.168359
v 0.623573 -0.302541 0.191140
v 0.594862 -0.301572 0.169795
v 0.598378 -0.302439 0.186371
v 0.599055 -0.300740 0.158458
v 0.624157 -0.300370 0.160061
v 0.636258 -0.298242 0.145421
v 0.621961 -0.299159 0.145550
v 0.607649 -0.299448 0.145270
v 0.621917 -0.297265 0.131443
v 0.607405 -0.297580 0.131415
v 0.607621 -0.294704 0.117544
v 0.585867 -0.295153 0.118012
v 0.592611 -0.291526 0.103456
v 0.620760 -0.290629 0.102800
v 0.621918 -0.294273 0.117319
v 0.649718 -0.289058 0.103547
v 0.636029 -0.293160 0.116570
v 0.653963 -0.294651 0.131213
v 0.636415 -0.296229 0.131467
v 0.662632 -0.295902 0.142743
v 0.658913 -0.291718 0.118230
v 0.680043 -0.287582 0.104531
v 0.674350 -0.285631 0.093923
v 0.674824 -0.285796 0.093788
v 0.657353 -0.282510 0.076898
v 0.666650 -0.283915 0.084584
v 0.646957 -0.281505 0.071290
v 0.635335 -0.285689 0.086425
v 0.660592 -0.285626 0.091154
v 0.634841 -0.280907 0.067571
v 0.610184 -0.281501 0.067558
v 0.598413 -0.282769 0.071108
v 0.622507 -0.280943 0.065851
v 0.610211 -0.281589 0.067046
v 0.587707 -0.284709 0.076875
v 0.587547 -0.284819 0.076433
v 0.570616 -0.290003 0.094017
v 0.570193 -0.290184 0.093789
v 0.561348 -0.295631 0.116443
v 0.560798 -0.295892 0.116468
v 0.560799 -0.300014 0.141051
v 0.570591 -0.301711 0.163502
v 0.570187 -0.301953 0.163716
v 0.587544 -0.302567 0.181072
v 0.610170 -0.302542 0.189927
v 0.610216 -0.302829 0.190487
v 0.587698 -0.302312 0.180613
v 0.578349 -0.302092 0.172915
v 0.586454 -0.299449 0.143489
v 0.564936 -0.301004 0.152991
v 0.561340 -0.299775 0.141124
v 0.560107 -0.298000 0.128767
v 0.589675 -0.297613 0.130948
v 0.565000 -0.292834 0.104444
v 0.578357 -0.287167 0.084585
v 0.593689 -0.287895 0.089601
v 0.622945 -0.280879 0.066326
v 0.634805 -0.281004 0.067046
v 0.657471 -0.282612 0.076434
v 0.649812 -0.298777 0.158150
v 0.624150 -0.299770 0.160054
v 0.594896 -0.300974 0.169819
v 0.623418 -0.301942 0.191093
v 0.599052 -0.300141 0.158469
v 0.636258 -0.297642 0.145421
v 0.621961 -0.298560 0.145550
v 0.607649 -0.298849 0.145270
v 0.635403 -0.300416 0.173739
v 0.647055 -0.301296 0.186135
v 0.660188 -0.298933 0.168359
v 0.649812 -0.298178 0.158150
v 0.662656 -0.295303 0.142749
v 0.679970 -0.295976 0.153194
v 0.666643 -0.299357 0.172887
v 0.598370 -0.301840 0.186361
v 0.610169 -0.301942 0.189920
v 0.622508 -0.301786 0.191653
v 0.598399 -0.301681 0.186860
v 0.610212 -0.301739 0.190460
v 0.610221 -0.300604 0.190530
v 0.598400 -0.300500 0.186957
v 0.646619 -0.301189 0.186859
v 0.634803 -0.301653 0.190379
v 0.657504 -0.299207 0.181125
v 0.666992 -0.299194 0.173236
v 0.657474 -0.300349 0.181069
v 0.667057 -0.298015 0.173300
v 0.674882 -0.296423 0.163747
v 0.680618 -0.295703 0.152866
v 0.674831 -0.297569 0.163714
v 0.680714 -0.294512 0.152861
v 0.684288 -0.292359 0.141040
v 0.685414 -0.291268 0.128757
v 0.684221 -0.293502 0.141049
v 0.685510 -0.290081 0.128752
v 0.684288 -0.287794 0.116463
v 0.680620 -0.286785 0.104649
v 0.684222 -0.288930 0.116461
v 0.680714 -0.285598 0.104642
v 0.674882 -0.283590 0.093757
v 0.666995 -0.283035 0.084264
v 0.674827 -0.284736 0.093782
v 0.667057 -0.281837 0.084203
v 0.657504 -0.280406 0.076378
v 0.646615 -0.280569 0.070636
v 0.646618 -0.279366 0.070547
v 0.657473 -0.281558 0.076426
v 0.657328 -0.281915 0.076910
v 0.634839 -0.280308 0.067570
v 0.634800 -0.279934 0.067034
v 0.622509 -0.279960 0.065841
v 0.610217 -0.280520 0.067034
v 0.622509 -0.278759 0.065751
v 0.598403 -0.281854 0.070635
v 0.610221 -0.279371 0.066973
v 0.598400 -0.280648 0.070547
v 0.587548 -0.283766 0.076424
v 0.587514 -0.282614 0.076378
v 0.577961 -0.285111 0.084203
v 0.578024 -0.286305 0.084264
v 0.570193 -0.289122 0.093781
v 0.564400 -0.292114 0.104649
v 0.570136 -0.287980 0.093757
v 0.564304 -0.290935 0.104642
v 0.560799 -0.294817 0.116461
v 0.560731 -0.293686 0.116463
v 0.559508 -0.296042 0.128752
v 0.559607 -0.297220 0.128758
v 0.560801 -0.298949 0.141052
v 0.564401 -0.300219 0.152867
v 0.560731 -0.297810 0.141040
v 0.564304 -0.299035 0.152861
v 0.570189 -0.300905 0.163715
v 0.570136 -0.299760 0.163747
v 0.577961 -0.300152 0.173300
v 0.578025 -0.301331 0.173236
v 0.587545 -0.301518 0.181070
v 0.587514 -0.300374 0.181125
v 0.570639 -0.301113 0.163535
v 0.578351 -0.301493 0.172913
v 0.560124 -0.297403 0.128778
v 0.561337 -0.299175 0.141117
v 0.564964 -0.292262 0.104552
v 0.561341 -0.295038 0.116472
v 0.570647 -0.289398 0.094001
v 0.592611 -0.290927 0.103456
v 0.586249 -0.294587 0.118199
v 0.593233 -0.287424 0.090037
v 0.607621 -0.294105 0.117544
v 0.620759 -0.290030 0.102801
v 0.621918 -0.293674 0.117319
v 0.635335 -0.285089 0.086425
v 0.623009 -0.280291 0.066373
v 0.636038 -0.292558 0.116557
v 0.653913 -0.294055 0.131212
v 0.636415 -0.295630 0.131467
v 0.621917 -0.296666 0.131443
v 0.649718 -0.288459 0.103547
v 0.660584 -0.285023 0.091137
v 0.658799 -0.291129 0.118241
v 0.680075 -0.286997 0.104601
v 0.666646 -0.283319 0.084594
v 0.646896 -0.280903 0.071264
v 0.684883 -0.291537 0.128960
v 0.683676 -0.289205 0.116470
v 0.683678 -0.293785 0.141152
v 0.674319 -0.297812 0.163596
v 0.657357 -0.300527 0.180544
v 0.634859 -0.301766 0.189914
v 0.674332 -0.285040 0.093953
v 0.610182 -0.280903 0.067561
v 0.598439 -0.282164 0.071095
v 0.587709 -0.284109 0.076872
v 0.578359 -0.286569 0.084587
v 0.607405 -0.296981 0.131415
v 0.589676 -0.297014 0.130948
v 0.586444 -0.298850 0.143488
v 0.564916 -0.300401 0.152948
v 0.587699 -0.301713 0.180613
v 0.634798 -0.278787 0.066973
v 0.646618 -0.300013 0.186957
v 0.634798 -0.301210 0.190530
v 0.634798 -0.275507 0.190530
v 0.622509 -0.275671 0.191753
v 0.622509 -0.300611 0.191753
v 0.646618 -0.275072 0.186957
v 0.610221 -0.300604 0.190530
v 0.610221 -0.275664 0.190530
v 0.598400 -0.275560 0.186957
v 0.598400 -0.300500 0.186957
v 0.587514 -0.275434 0.181125
v 0.587514 -0.300374 0.181125
v 0.577961 -0.300152 0.173300
v 0.570136 -0.274820 0.163747
v 0.570136 -0.299760 0.163747
v 0.564304 -0.299035 0.152861
v 0.560731 -0.297810 0.141040
v 0.559508 -0.296042 0.128752
v 0.560731 -0.293686 0.116463
v 0.560731 -0.272870 0.141040
v 0.560731 -0.268745 0.116463
v 0.564304 -0.265994 0.104642
v 0.564304 -0.290935 0.104642
v 0.559508 -0.271101 0.128752
v 0.564304 -0.274094 0.152861
v 0.577961 -0.275211 0.173300
v 0.570136 -0.263040 0.093757
v 0.570136 -0.287980 0.093757
v 0.577961 -0.285111 0.084204
v 0.587514 -0.257674 0.076378
v 0.587514 -0.282614 0.076378
v 0.598400 -0.280648 0.070547
v 0.610221 -0.279371 0.066973
v 0.622509 -0.278759 0.065751
v 0.634798 -0.278787 0.066973
v 0.610221 -0.254431 0.066973
v 0.634798 -0.253847 0.066973
v 0.646618 -0.254426 0.070547
v 0.646618 -0.279366 0.070547
v 0.622509 -0.253819 0.065751
v 0.598400 -0.255708 0.070547
v 0.577961 -0.260171 0.084204
v 0.657504 -0.255466 0.076378
v 0.657504 -0.280406 0.076378
v 0.667057 -0.281837 0.084204
v 0.674882 -0.258650 0.093757
v 0.674882 -0.283590 0.093757
v 0.680714 -0.285598 0.104642
v 0.685510 -0.290081 0.128752
v 0.684288 -0.287794 0.116463
v 0.684288 -0.262854 0.116463
v 0.685510 -0.265141 0.128752
v 0.680714 -0.260658 0.104642
v 0.667057 -0.256897 0.084203
v 0.684288 -0.267418 0.141040
v 0.680714 -0.269571 0.152861
v 0.684288 -0.292359 0.141040
v 0.680714 -0.294512 0.152861
v 0.674882 -0.271483 0.163747
v 0.674882 -0.296423 0.163747
v 0.646618 -0.300013 0.186957
v 0.657504 -0.299207 0.181125
v 0.657504 -0.274266 0.181125
v 0.646618 -0.275072 0.186957
v 0.667057 -0.273074 0.173300
v 0.667057 -0.298015 0.173300
vn -0.8294 -0.0000 0.5587
vn -0.6565 -0.0000 0.7543
vn -0.6631 -0.0000 0.7485
vn -0.8364 -0.0000 0.5482
vn -0.4389 -0.0000 0.8985
vn -0.4431 -0.0000 0.8965
vn -0.9976 -0.0000 0.0691
vn -0.9985 -0.0000 0.0544
vn -0.9790 -0.0000 -0.2041
vn -0.9815 -0.0000 -0.1914
vn -0.8985 -0.0000 -0.4389
vn -0.8934 -0.0000 -0.4493
vn -0.9502 -0.0000 0.3115
vn -0.9457 -0.0000 0.3250
vn -0.7483 -0.0000 -0.6634
vn -0.7543 -0.0000 -0.6565
vn -0.5587 -0.0000 -0.8294
vn -0.5523 -0.0000 -0.8336
vn -0.3197 -0.0000 -0.9475
vn -0.3250 -0.0000 -0.9457
vn -0.0691 -0.0000 -0.9976
vn -0.0657 -0.0000 -0.9978
vn 0.0692 -0.0000 0.9976
vn 0.0750 -0.0000 0.9972
vn -0.1910 -0.0000 0.9816
vn -0.1917 -0.0000 0.9815
vn 0.1923 -0.0000 -0.9813
vn 0.1913 -0.0000 -0.9815
vn 0.4388 -0.0003 -0.8986
vn 0.4020 0.0938 -0.9108
vn 0.5588 -0.0000 0.8293
vn 0.5707 -0.0000 0.8212
vn 0.3348 -0.0000 0.9423
vn 0.3250 -0.0000 0.9457
vn 0.4389 -0.0000 -0.8985
vn 0.4723 0.0951 -0.8763
vn 0.6539 -0.0000 -0.7566
vn 0.6565 -0.0000 -0.7543
vn 0.8293 -0.0000 -0.5587
vn 0.8261 -0.0000 -0.5636
vn 0.8986 -0.0000 0.4388
vn 0.9055 -0.0000 0.4243
vn 0.7647 -0.0000 0.6444
vn 0.7544 -0.0000 0.6565
vn 0.9430 -0.0000 -0.3327
vn 0.9457 -0.0000 -0.3251
vn 0.9976 -0.0000 -0.0693
vn 0.9968 -0.0000 -0.0805
vn 0.9840 -0.0000 0.1780
vn 0.9815 -0.0000 0.1913
vn 0.0165 -0.9994 -0.0313
vn 0.0094 -0.9976 -0.0692
vn 0.0348 -0.9968 -0.0715
vn 0.0434 -0.9977 -0.0522
vn 0.0114 -0.9939 -0.1099
vn 0.0723 -0.9901 -0.1205
vn 0.0571 -0.9948 -0.0846
vn 0.0418 -0.9929 -0.1111
vn 0.0693 -0.9922 -0.1033
vn 0.0785 -0.9938 -0.0790
vn 0.0416 -0.9990 0.0163
vn 0.0171 -0.9995 0.0282
vn 0.0688 -0.9976 0.0043
vn 0.0886 -0.9893 -0.1158
vn 0.1668 -0.9859 0.0104
vn 0.1187 -0.9929 0.0072
vn 0.1562 -0.9865 -0.0488
vn 0.1531 -0.9827 -0.1040
vn 0.0964 -0.9847 -0.1453
vn 0.1554 -0.9776 -0.1422
vn 0.3845 -0.9187 -0.0899
vn 0.3690 -0.9240 0.1002
vn 0.3865 -0.9223 0.0008
vn 0.7271 -0.6599 0.1894
vn 0.3257 -0.9283 0.1794
vn 0.6670 -0.6603 0.3452
vn 0.5743 -0.6703 0.4699
vn 0.8115 -0.3080 0.4966
vn 0.6939 -0.3217 0.6442
vn 0.8943 -0.3155 0.3174
vn 0.9248 -0.1128 0.3634
vn 0.8350 -0.0904 0.5427
vn 0.7114 -0.1155 0.6932
vn 0.9273 -0.0342 0.3726
vn 0.7123 -0.0390 0.7008
vn 0.8325 -0.0135 0.5539
vn 0.5563 -0.0141 0.8309
vn 0.5588 -0.0935 0.8240
vn 0.3854 -0.0370 0.9220
vn 0.1937 -0.0155 0.9809
vn 0.1945 -0.1026 0.9755
vn -0.0000 0.0175 0.9998
vn -0.1571 0.5014 0.8508
vn -0.1937 -0.0969 0.9763
vn 0.0010 -0.1150 0.9934
vn 0.1590 0.5217 0.8382
vn -0.0231 0.5771 0.8163
vn 0.1932 0.0403 0.9803
vn -0.3818 0.0161 0.9241
vn -0.3814 -0.1043 0.9185
vn -0.1836 -0.3432 0.9212
vn -0.3656 -0.3277 0.8712
vn -0.5340 -0.3161 0.7842
vn -0.5527 -0.0919 0.8283
vn -0.7087 -0.0344 0.7047
vn -0.7045 -0.1160 0.7002
vn -0.5545 -0.0139 0.8321
vn -0.6745 -0.3236 0.6635
vn -0.7946 -0.3144 0.5193
vn -0.8305 -0.0925 0.5492
vn -0.8318 -0.0138 0.5549
vn -0.9268 -0.0317 0.3742
vn -0.9209 -0.1173 0.3716
vn -0.9810 -0.0151 0.1933
vn -0.9785 -0.1000 0.1806
vn -0.9993 -0.0337 -0.0178
vn -0.9801 -0.0150 -0.1978
vn -0.9719 -0.1000 -0.2131
vn -0.9142 -0.0272 -0.4044
vn -0.8300 -0.0130 -0.5576
vn -0.8180 -0.0844 -0.5690
vn -0.6934 -0.0259 -0.7201
vn -0.5541 -0.0119 -0.8324
vn -0.5430 -0.0750 -0.8363
vn -0.3680 -0.0265 -0.9295
vn -0.1942 -0.0125 -0.9809
vn -0.1878 -0.0802 -0.9789
vn 0.0022 -0.0320 -0.9995
vn 0.1948 -0.0127 -0.9808
vn 0.1923 -0.0811 -0.9780
vn 0.3785 -0.0314 -0.9251
vn 0.5547 -0.0118 -0.8320
vn 0.5471 -0.0754 -0.8336
vn 0.7012 -0.0333 -0.7122
vn 0.8306 -0.0125 -0.5567
vn 0.8225 -0.0810 -0.5630
vn 0.9185 -0.0381 -0.3937
vn 0.9803 -0.0143 -0.1971
vn 0.9732 -0.0937 -0.2098
vn 0.9992 -0.0376 -0.0119
vn 0.9812 -0.0144 0.1927
vn 0.9797 -0.0942 0.1772
vn 0.9924 -0.1211 -0.0221
vn 0.9383 -0.3214 0.1275
vn 0.9412 -0.3322 -0.0613
vn 0.9187 -0.3134 -0.2403
vn 0.9111 -0.1089 -0.3976
vn 0.8610 -0.2980 -0.4123
vn 0.7734 -0.2771 -0.5702
vn 0.6945 -0.0996 -0.7126
vn 0.5173 -0.2640 -0.8141
vn 0.6549 -0.2760 -0.7035
vn 0.3749 -0.0982 -0.9218
vn 0.3537 -0.2726 -0.8948
vn 0.1809 -0.2789 -0.9431
vn 0.2820 -0.5747 -0.7682
vn 0.1451 -0.5881 -0.7957
vn 0.0156 -0.5932 -0.8049
vn 0.0074 -0.2899 -0.9570
vn 0.0028 -0.1052 -0.9944
vn -0.1663 -0.2763 -0.9466
vn -0.1135 -0.5843 -0.8036
vn -0.2478 -0.5703 -0.7832
vn -0.3380 -0.2696 -0.9017
vn -0.3694 -0.0969 -0.9242
vn -0.5003 -0.2633 -0.8249
vn -0.4795 -0.5840 -0.6550
vn -0.6362 -0.2791 -0.7193
vn -0.6879 -0.1013 -0.7187
vn -0.3750 -0.5704 -0.7307
vn -0.1721 -0.8377 -0.5183
vn -0.0704 -0.9274 -0.3674
vn -0.2348 -0.8432 -0.4835
vn -0.1089 -0.8375 -0.5355
vn -0.0065 -0.9332 -0.3594
vn -0.0084 -0.9541 -0.2993
vn -0.0838 -0.9393 -0.3327
vn -0.2782 -0.8568 -0.4342
vn -0.0739 -0.9595 -0.2720
vn -0.3022 -0.8876 -0.3476
vn -0.6472 -0.6314 -0.4272
vn -0.5733 -0.6002 -0.5578
vn -0.7566 -0.2845 -0.5888
vn -0.8480 -0.3108 -0.4293
vn -0.9073 -0.1140 -0.4046
vn -0.9099 -0.3310 -0.2500
vn -0.9914 -0.1291 -0.0219
vn -0.9301 -0.3386 0.1421
vn -0.9342 -0.3520 -0.0587
vn -0.7057 -0.6988 -0.1170
vn -0.3196 -0.9460 -0.0548
vn -0.7130 -0.6990 0.0545
vn -0.3106 -0.9374 -0.1574
vn -0.3074 -0.9169 -0.2544
vn -0.6862 -0.6723 -0.2776
vn -0.0699 -0.9728 -0.2207
vn -0.0693 -0.9838 -0.1655
vn -0.0101 -0.9767 -0.2142
vn -0.0107 -0.9858 -0.1673
vn -0.0115 -0.9931 -0.1169
vn -0.0727 -0.9914 -0.1089
vn -0.0127 -0.9972 -0.0736
vn -0.0801 -0.9954 -0.0524
vn -0.0166 -0.9996 -0.0240
vn -0.0966 -0.9951 0.0206
vn -0.3113 -0.9357 0.1660
vn -0.3268 -0.9434 0.0558
vn -0.6940 -0.6814 0.2326
vn -0.5334 -0.6747 0.5102
vn -0.6278 -0.6721 0.3926
vn -0.0835 -0.9927 0.0867
vn -0.2699 -0.9350 0.2301
vn -0.2056 -0.9396 0.2738
vn -0.4245 -0.6741 0.6045
vn -0.2878 -0.6839 0.6704
vn -0.0571 -0.9558 0.2883
vn -0.1394 -0.7064 0.6940
vn -0.1376 -0.9453 0.2956
vn 0.0069 -0.7197 0.6943
vn 0.0115 -0.9598 0.2803
vn 0.0835 -0.9587 0.2721
vn 0.1557 -0.7126 0.6841
vn 0.1910 -0.3473 0.9181
vn 0.0030 -0.3583 0.9336
vn 0.3857 -0.1211 0.9147
vn 0.3777 -0.3353 0.8631
vn 0.3125 -0.6909 0.6519
vn 0.1668 -0.9506 0.2618
vn 0.2563 -0.9383 0.2324
vn 0.4595 -0.6760 0.5760
vn 0.5511 -0.3183 0.7713
vn -0.0197 -0.9983 0.0545
vn -0.8819 -0.3275 0.3391
vn 0.0144 -0.9741 -0.2258
vn 0.0118 -0.9856 -0.1684
vn 0.0452 -0.9844 -0.1701
vn 0.0759 -0.9718 -0.2234
vn 0.0785 -0.9819 -0.1723
vn 0.0450 -0.9726 -0.2279
vn 0.0733 -0.9663 -0.2467
vn 0.1012 -0.9729 -0.2079
vn 0.1006 -0.9793 -0.1757
vn 0.0426 -0.9632 -0.2653
vn 0.0536 -0.9574 -0.2838
vn 0.0892 -0.9590 -0.2689
vn 0.0977 -0.9669 -0.2358
vn 0.0798 -0.9411 -0.3286
vn 0.1234 -0.9350 -0.3326
vn 0.1664 -0.9274 -0.3350
vn 0.1600 -0.9434 -0.2906
vn 0.1587 -0.9561 -0.2463
vn 0.1589 -0.9642 -0.2124
vn 0.3776 -0.8940 -0.2411
vn 0.3456 -0.8524 -0.3925
vn 0.3705 -0.8733 -0.3163
vn 0.5220 -0.5803 -0.6252
vn 0.6145 -0.5900 -0.5237
vn 0.6838 -0.6117 -0.3979
vn 0.3007 -0.8398 -0.4520
vn 0.2362 -0.8382 -0.4916
vn 0.4137 -0.5715 -0.7087
vn 0.1577 -0.8435 -0.5134
vn 0.0862 -0.8490 -0.5213
vn 0.0531 -0.9400 -0.3371
vn 0.0294 -0.9384 -0.3444
vn 0.0236 -0.8496 -0.5269
vn -0.0367 -0.8463 -0.5314
vn 0.0267 -0.9543 -0.2977
vn 0.0137 -0.9652 -0.2611
vn -0.0092 -0.9666 -0.2560
vn 0.7197 -0.6430 -0.2620
vn 0.7370 -0.6647 -0.1228
vn 0.3801 -0.9096 -0.1677
vn 0.7436 -0.6681 0.0263
vn 0.1574 -0.9714 -0.1778
vn -0.3284 0.5460 0.7707
vn -0.4751 0.5107 0.7165
vn -0.5545 0.0376 0.8314
vn -0.7052 0.0526 0.7071
vn -0.5810 0.5514 0.5986
vn -0.6961 0.5161 0.4991
vn -0.8300 0.0373 0.5565
vn -0.9217 0.0509 0.3846
vn -0.7626 0.5515 0.3380
vn -0.8192 0.5247 0.2315
vn -0.9792 0.0401 0.1988
vn -0.9983 0.0581 0.0090
vn -0.8193 0.5684 0.0746
vn -0.8378 0.5416 -0.0687
vn -0.9816 0.0420 -0.1862
vn -0.9274 0.0562 -0.3698
vn -0.7825 0.5888 -0.2024
vn -0.7461 0.5634 -0.3550
vn -0.8362 0.0411 -0.5469
vn -0.7144 0.0562 -0.6975
vn -0.6350 0.6117 -0.4718
vn -0.5168 0.6049 -0.6058
vn -0.5611 0.0403 -0.8268
vn -0.3874 0.0541 -0.9203
vn -0.3480 0.6579 -0.6679
vn -0.1890 0.6328 -0.7509
vn -0.1973 0.0438 -0.9794
vn -0.0013 0.0608 -0.9981
vn 0.1699 0.6396 -0.7497
vn 0.1953 0.0442 -0.9798
vn -0.0228 0.6690 -0.7429
vn 0.3842 0.0551 -0.9216
vn 0.3017 0.6728 -0.6755
vn 0.4898 0.6123 -0.6206
vn 0.5584 0.0409 -0.8286
vn 0.7110 0.0562 -0.7009
vn 0.6076 0.6292 -0.4846
vn 0.7084 0.5984 -0.3742
vn 0.8344 0.0415 -0.5496
vn 0.9263 0.0567 -0.3725
vn 0.7531 0.6202 -0.2198
vn 0.8192 0.5707 -0.0573
vn 0.9814 0.0434 -0.1868
vn 0.9982 0.0591 0.0103
vn 0.7945 0.5962 0.1151
vn 0.8013 0.5403 0.2567
vn 0.9787 0.0409 0.2010
vn 0.9201 0.0511 0.3884
vn 0.7174 0.5656 0.4067
vn 0.6707 0.5114 0.5372
vn 0.8280 0.0373 0.5595
vn 0.7021 0.0529 0.7101
vn 0.5515 0.5535 0.6241
vn 0.4344 0.5123 0.7409
vn 0.5526 0.0377 0.8326
vn 0.3789 0.0518 0.9240
vn 0.2848 0.5696 0.7710
vn 0.0359 0.9589 0.2814
vn 0.1126 0.9500 0.2911
vn 0.0672 0.9574 0.2807
vn 0.1557 0.9517 0.2646
vn 0.1002 0.9637 0.2476
vn 0.1631 0.9650 0.2056
vn 0.1466 0.9578 0.2472
vn 0.1503 0.9774 0.1484
vn 0.1273 0.9745 0.1847
vn -0.0333 0.9956 0.0874
vn -0.0346 0.9917 0.1242
vn 0.0039 0.9619 0.2735
vn -0.0179 0.9979 0.0625
vn -0.0486 0.9593 0.2780
vn -0.1000 0.9670 0.2344
vn -0.0362 0.9959 0.0833
vn -0.0185 0.9967 0.0787
vn -0.0159 0.9937 0.1109
vn -0.0676 0.9901 0.1227
vn -0.0401 0.9926 0.1142
vn -0.0198 0.9923 0.1225
vn -0.0162 0.9856 0.1685
vn -0.0174 0.9858 0.1669
vn -0.0452 0.9844 0.1702
vn -0.0201 0.9748 0.2223
vn -0.0263 0.9776 0.2090
vn -0.0448 0.9736 0.2236
vn -0.0284 0.9696 0.2429
vn -0.0392 0.9678 0.2486
vn -0.0695 0.9728 0.2210
vn -0.0666 0.9768 0.2033
vn -0.0587 0.9720 0.2275
vn -0.0743 0.9818 0.1750
vn -0.0743 0.9822 0.1725
vn -0.0622 0.9866 0.1508
vn 0.1333 0.9830 0.1261
vn 0.1597 0.9846 0.0704
vn -0.0440 0.9741 0.2217
vn 0.0994 0.9917 0.0810
vn 0.1078 0.9936 0.0325
vn 0.0671 0.9973 0.0310
vn -0.0439 0.9688 0.2439
vn 0.0184 0.9995 0.0241
vn -0.0805 0.9964 0.0278
vn -0.1303 0.9898 0.0579
vn -0.0106 0.9987 0.0502
vn -0.1732 0.9829 0.0628
vn -0.1844 0.9760 0.1159
vn -0.2345 0.9642 0.1235
vn -0.2244 0.9640 0.1424
vn -0.2368 0.9590 0.1555
vn -0.2101 0.9642 0.1618
vn -0.2461 0.9540 0.1714
vn -0.2082 0.9607 0.1836
vn -0.2045 0.9580 0.2009
vn -0.1643 0.9663 0.1981
vn -0.1464 0.9607 0.2358
vn -0.0320 0.9663 0.2553
vn -0.0539 0.9918 0.1158
vn 0.0178 -0.9979 -0.0622
vn 0.0166 -0.9968 -0.0783
vn 0.0361 -0.9959 -0.0834
vn 0.0307 -0.9893 0.1425
vn 0.0326 -0.9956 -0.0883
vn 0.0159 -0.9936 -0.1115
vn 0.0406 -0.9926 -0.1144
vn 0.0676 -0.9901 -0.1227
vn 0.0534 -0.9938 0.0971
vn 0.1195 -0.9888 0.0899
vn 0.0342 -0.9916 -0.1247
vn 0.0534 -0.9918 -0.1157
vn 0.0636 -0.9863 -0.1520
vn 0.2456 -0.9676 -0.0585
vn 0.1727 -0.9849 0.0086
vn 0.1455 -0.9860 0.0812
vn 0.2356 -0.9718 0.0023
vn 0.2779 -0.9531 -0.1197
vn -0.0420 -0.9835 0.1758
vn -0.0082 -0.6403 0.7681
vn -0.1587 -0.5810 0.7983
vn -0.2924 -0.5919 0.7511
vn -0.0840 -0.9861 0.1435
vn -0.0005 -0.0412 0.9991
vn -0.1938 -0.0590 0.9793
vn -0.3808 -0.0743 0.9217
vn 0.1950 -0.1593 0.9678
vn 0.1499 -0.7305 0.6662
vn 0.3189 -0.6407 0.6984
vn 0.2999 -0.0669 0.9516
vn 0.4919 -0.5722 0.6562
vn 0.7110 -0.0757 0.6992
vn 0.5582 -0.0552 0.8279
vn 0.6034 -0.6077 0.5164
vn 0.7316 -0.5592 0.3900
vn 0.9266 -0.0722 0.3691
vn 0.8345 -0.0531 0.5484
vn 0.7822 -0.5786 0.2312
vn 0.8412 -0.5352 0.0765
vn 0.9967 -0.0798 -0.0146
vn 0.9814 -0.0567 0.1837
vn 0.8221 -0.5624 -0.0880
vn 0.8187 -0.5128 -0.2585
vn 0.9172 -0.0732 -0.3916
vn 0.9774 -0.0563 -0.2039
vn 0.7518 -0.5369 -0.3830
vn 0.6824 -0.4846 -0.5473
vn 0.6991 -0.0707 -0.7115
vn 0.8263 -0.0517 -0.5608
vn 0.5670 -0.5127 -0.6447
vn 0.4449 -0.4703 -0.7621
vn 0.3764 -0.0684 -0.9239
vn 0.5508 -0.0494 -0.8332
vn 0.3112 -0.4974 -0.8097
vn 0.1476 -0.9125 -0.3815
vn 0.1752 -0.9243 -0.3392
vn 0.1167 -0.9098 -0.3984
vn 0.0669 -0.9045 -0.4211
vn 0.0359 -0.9058 -0.4221
vn 0.0055 -0.5098 -0.8603
vn 0.1588 -0.4577 -0.8748
vn -0.0159 -0.8986 -0.4384
vn -0.1405 -0.4658 -0.8737
vn -0.1902 -0.0514 -0.9804
vn 0.0017 -0.0736 -0.9973
vn -0.3727 -0.0675 -0.9255
vn -0.2600 -0.4845 -0.8353
vn -0.4223 -0.4724 -0.7737
vn -0.6947 -0.0717 -0.7157
vn -0.5477 -0.0492 -0.8352
vn -0.5232 -0.5072 -0.6849
vn -0.1372 -0.9265 -0.3504
vn -0.6472 -0.5035 -0.5725
vn -0.0960 -0.9218 -0.3756
vn -0.0828 -0.9011 -0.4256
vn -0.9152 -0.0752 -0.3960
vn -0.8237 -0.0528 -0.5646
vn -0.7141 -0.5492 -0.4341
vn -0.7885 -0.5535 -0.2683
vn -0.9965 -0.0824 -0.0139
vn -0.9769 -0.0583 -0.2058
vn -0.7891 -0.6063 -0.0987
vn -0.1885 -0.9789 -0.0788
vn -0.8135 -0.5734 0.0973
vn -0.1569 -0.9740 -0.1633
vn -0.1725 -0.9550 -0.2412
vn -0.9244 -0.0731 0.3744
vn -0.9807 -0.0584 0.1864
vn -0.7612 -0.6008 0.2442
vn -0.6989 -0.5611 0.4435
vn -0.7064 -0.0753 0.7038
vn -0.8317 -0.0538 0.5526
vn -0.5757 -0.6005 0.5550
vn -0.1177 -0.9838 0.1351
vn -0.4665 -0.5657 0.6800
vn -0.1231 -0.9882 0.0909
vn -0.1675 -0.9840 0.0607
vn -0.5552 -0.0545 0.8299
vn -0.1758 -0.9844 -0.0072
vn 0.0258 -0.9775 -0.2093
vn -0.1437 -0.9424 -0.3022
vn 0.0322 -0.9664 -0.2550
vn 0.0281 -0.9697 -0.2427
vn 0.0201 -0.9748 -0.2223
vn 0.0402 -0.9677 -0.2487
vn 0.0448 -0.9736 -0.2236
vn 0.0693 -0.9728 -0.2212
vn 0.0442 -0.9688 -0.2438
vn 0.0587 -0.9721 -0.2272
vn 0.0659 -0.9768 -0.2038
vn 0.0750 -0.9816 -0.1756
vn 0.0743 -0.9822 -0.1725
vn 0.0452 -0.9844 -0.1702
vn 0.0440 -0.9741 -0.2218
vn 0.2277 -0.9342 -0.2748
vn 0.2221 -0.9193 -0.3249
vn 0.2476 -0.9533 -0.1727
vn 0.2563 -0.9387 -0.2306
vn -0.0562 -0.9076 -0.4161
vn 0.0162 -0.9856 -0.1685
vn 0.0169 -0.9859 -0.1662
vn 0.0194 -0.9923 -0.1221
vn 0.1928 -0.0519 -0.9799
vn 0.3537 0.0712 0.9326
vn 0.1966 -0.0000 0.9805
vn 0.0004 -0.0000 1.0000
vn -0.1954 -0.0000 0.9807
vn -0.1948 -0.0000 0.9808
vn -0.3832 -0.0000 0.9237
vn -0.3821 -0.0000 0.9241
vn -0.5563 -0.0000 0.8310
vn -0.5548 -0.0000 0.8320
vn -0.8330 -0.0000 0.5533
vn -0.8299 -0.0000 0.5579
vn -0.7060 -0.0000 0.7082
vn -0.7082 -0.0000 0.7060
vn -0.9822 -0.0000 0.1879
vn -0.9999 -0.0000 -0.0103
vn -0.9999 -0.0000 0.0106
vn -0.9783 -0.0000 -0.2074
vn -0.9832 -0.0000 -0.1826
vn -0.9793 -0.0000 0.2025
vn -0.9183 -0.0000 -0.3959
vn -0.9293 -0.0000 -0.3693
vn -0.9258 -0.0000 0.3781
vn -0.9219 -0.0000 0.3873
vn -0.8234 -0.0000 -0.5675
vn -0.8393 -0.0000 -0.5436
vn -0.5462 -0.0000 -0.8377
vn -0.5646 -0.0000 -0.8253
vn -0.7165 -0.0000 -0.6975
vn -0.6974 -0.0000 -0.7167
vn -0.1904 -0.0000 -0.9817
vn 0.0015 -0.0000 -1.0000
vn -0.0015 -0.0000 -1.0000
vn 0.1936 -0.0000 -0.9811
vn 0.1966 -0.0000 -0.9805
vn -0.1997 -0.0000 -0.9799
vn 0.3788 -0.0000 -0.9255
vn 0.3865 -0.0000 -0.9223
vn -0.3749 -0.0000 -0.9271
vn -0.3902 -0.0000 -0.9207
vn 0.5504 -0.0000 -0.8349
vn 0.5607 -0.0000 -0.8280
vn 0.8262 -0.0000 -0.5634
vn 0.8366 -0.0000 -0.5478
vn 0.7128 -0.0000 -0.7014
vn 0.7013 -0.0000 -0.7129
vn 0.9785 -0.0000 -0.2060
vn 0.9829 -0.0000 -0.1842
vn 0.9279 -0.0000 -0.3729
vn 0.9999 -0.0000 0.0116
vn 0.9999 -0.0000 -0.0116
vn 0.9197 -0.0000 -0.3926
vn 0.9829 -0.0000 0.1843
vn 0.9278 -0.0000 0.3732
vn 0.9198 -0.0000 0.3923
vn 0.9786 -0.0000 0.2059
vn 0.8363 -0.0000 0.5483
vn 0.8265 -0.0000 0.5629
vn 0.4103 -0.0722 0.9091
vn 0.5514 -0.0000 0.8343
vn 0.5597 -0.0000 0.8287
vn 0.4063 0.0676 0.9112
vn 0.7020 -0.0000 0.7122
vn 0.7121 -0.0000 0.7021
vt 0.015615 0.870081
vt 0.016399 0.864049
vt 0.008975 0.864049
vt 0.008191 0.870081
vt 0.016904 0.858016
vt 0.009480 0.858016
vt 0.013553 0.882146
vt 0.006129 0.882146
vt 0.005142 0.888178
vt 0.012566 0.888178
vt 0.011693 0.894211
vt 0.004269 0.894211
vt 0.007194 0.876113
vt 0.014618 0.876113
vt 0.003547 0.900243
vt 0.010970 0.900243
vt 0.010382 0.906275
vt 0.002959 0.906275
vt 0.002489 0.912308
vt 0.009913 0.912308
vt 0.009590 0.918340
vt 0.002166 0.918340
vt 0.016854 0.845952
vt 0.009430 0.845952
vt 0.009640 0.851984
vt 0.017064 0.851984
vt 0.002016 0.924373
vt 0.009440 0.924373
vt 0.008465 0.928897
vt 0.002897 0.928897
vt 0.015338 0.833887
vt 0.007914 0.833887
vt 0.008825 0.839919
vt 0.016249 0.839919
vt 0.008508 0.787136
vt 0.002940 0.787136
vt 0.002190 0.791660
vt 0.009613 0.791660
vt 0.009932 0.797693
vt 0.002508 0.797693
vt 0.013035 0.821822
vt 0.005611 0.821822
vt 0.006787 0.827854
vt 0.014211 0.827854
vt 0.002993 0.803725
vt 0.010416 0.803725
vt 0.011090 0.809757
vt 0.003667 0.809757
vt 0.004555 0.815790
vt 0.011979 0.815790
vt 0.305885 0.259334
vt 0.298112 0.265439
vt 0.307779 0.266846
vt 0.315881 0.261530
vt 0.298846 0.273080
vt 0.313954 0.276043
vt 0.315006 0.268520
vt 0.306407 0.274443
vt 0.321859 0.270478
vt 0.326606 0.266229
vt 0.316521 0.256109
vt 0.310021 0.254225
vt 0.322283 0.258881
vt 0.328028 0.272488
vt 0.329552 0.265035
vt 0.326716 0.262238
vt 0.331172 0.268681
vt 0.332774 0.274086
vt 0.327637 0.279220
vt 0.333356 0.280584
vt 0.336157 0.281273
vt 0.333401 0.269240
vt 0.335358 0.274808
vt 0.336874 0.275027
vt 0.330533 0.264367
vt 0.334835 0.269002
vt 0.331758 0.263596
vt 0.336301 0.268696
vt 0.333041 0.262853
vt 0.338421 0.275118
vt 0.339987 0.275117
vt 0.338281 0.268208
vt 0.334373 0.262125
vt 0.343147 0.274972
vt 0.337133 0.260666
vt 0.340821 0.267526
vt 0.332203 0.254651
vt 0.330216 0.256371
vt 0.326196 0.249694
vt 0.319273 0.246008
vt 0.318256 0.248465
vt 0.315301 0.243037
vt 0.304506 0.242457
vt 0.304537 0.245695
vt 0.311389 0.246576
vt 0.317929 0.239689
vt 0.311472 0.241692
vt 0.318144 0.240226
vt 0.293764 0.243196
vt 0.297704 0.246635
vt 0.304469 0.247737
vt 0.297936 0.248436
vt 0.291623 0.250478
vt 0.290895 0.248602
vt 0.283026 0.249964
vt 0.284899 0.252479
vt 0.289856 0.246190
vt 0.285803 0.253713
vt 0.280748 0.257988
vt 0.279172 0.256722
vt 0.277159 0.255017
vt 0.272407 0.261124
vt 0.275193 0.262557
vt 0.268928 0.268058
vt 0.271476 0.268720
vt 0.266793 0.275560
vt 0.266084 0.283370
vt 0.268687 0.282909
vt 0.266809 0.291203
vt 0.268984 0.298773
vt 0.271188 0.297348
vt 0.272532 0.305772
vt 0.277371 0.311903
vt 0.278929 0.309768
vt 0.283292 0.316899
vt 0.290084 0.320501
vt 0.290908 0.317956
vt 0.297449 0.322654
vt 0.305092 0.323306
vt 0.305124 0.320635
vt 0.312728 0.322441
vt 0.320074 0.320046
vt 0.319259 0.317507
vt 0.326846 0.316248
vt 0.332760 0.311181
vt 0.331107 0.309093
vt 0.337599 0.305053
vt 0.341157 0.298082
vt 0.338858 0.296719
vt 0.343318 0.290550
vt 0.343979 0.282747
vt 0.341351 0.282336
vt 0.340318 0.289462
vt 0.339271 0.281970
vt 0.338807 0.288943
vt 0.336983 0.295729
vt 0.335187 0.302958
vt 0.333913 0.302013
vt 0.329710 0.307481
vt 0.325342 0.313419
vt 0.318629 0.315412
vt 0.324555 0.311993
vt 0.312274 0.319244
vt 0.312119 0.317601
vt 0.305214 0.318424
vt 0.312086 0.315953
vt 0.305385 0.316751
vt 0.298534 0.316180
vt 0.298245 0.317844
vt 0.297970 0.319482
vt 0.291544 0.315825
vt 0.291950 0.314183
vt 0.286020 0.310938
vt 0.285427 0.312493
vt 0.284741 0.314007
vt 0.280209 0.307974
vt 0.277261 0.301465
vt 0.276024 0.302499
vt 0.274823 0.303590
vt 0.281126 0.306625
vt 0.281969 0.305299
vt 0.281135 0.301514
vt 0.278526 0.300544
vt 0.286456 0.309356
vt 0.289051 0.307630
vt 0.282462 0.298468
vt 0.278120 0.295890
vt 0.275862 0.295299
vt 0.276779 0.290202
vt 0.274200 0.289449
vt 0.272705 0.289374
vt 0.274416 0.295679
vt 0.273007 0.296298
vt 0.271218 0.289607
vt 0.269741 0.290047
vt 0.270716 0.282662
vt 0.269931 0.275674
vt 0.273467 0.269187
vt 0.271474 0.275757
vt 0.273007 0.275896
vt 0.276510 0.269709
vt 0.274980 0.269480
vt 0.274538 0.276124
vt 0.273763 0.282880
vt 0.272242 0.282654
vt 0.276530 0.283596
vt 0.277376 0.276689
vt 0.282224 0.285168
vt 0.284077 0.278100
vt 0.284990 0.270919
vt 0.279318 0.270097
vt 0.287049 0.264567
vt 0.282090 0.264332
vt 0.290151 0.259308
vt 0.285426 0.259906
vt 0.283169 0.259619
vt 0.279460 0.264064
vt 0.278010 0.263701
vt 0.286675 0.254925
vt 0.281950 0.258857
vt 0.290200 0.256210
vt 0.287510 0.256113
vt 0.292356 0.253286
vt 0.292059 0.251887
vt 0.297979 0.249933
vt 0.304028 0.250761
vt 0.304314 0.249252
vt 0.297824 0.251411
vt 0.310791 0.249867
vt 0.310523 0.251374
vt 0.316866 0.253291
vt 0.317136 0.251800
vt 0.317553 0.250353
vt 0.311062 0.248378
vt 0.324370 0.252232
vt 0.323577 0.253522
vt 0.322943 0.254853
vt 0.322533 0.256251
vt 0.326999 0.259990
vt 0.327805 0.258832
vt 0.328770 0.257742
vt 0.299484 0.253809
vt 0.276593 0.263185
vt 0.295870 0.288655
vt 0.297268 0.280807
vt 0.304960 0.282329
vt 0.311143 0.291676
vt 0.312682 0.283845
vt 0.303470 0.290296
vt 0.313848 0.299719
vt 0.325077 0.293646
vt 0.324974 0.286148
vt 0.301985 0.298119
vt 0.307768 0.306477
vt 0.319679 0.305907
vt 0.323287 0.300286
vt 0.312957 0.311573
vt 0.318439 0.309919
vt 0.322163 0.308209
vt 0.325001 0.305174
vt 0.328380 0.300447
vt 0.331075 0.294374
vt 0.333957 0.294770
vt 0.327337 0.305502
vt 0.331091 0.300744
vt 0.323736 0.310600
vt 0.328573 0.306399
vt 0.332557 0.301244
vt 0.322880 0.309277
vt 0.317908 0.312307
vt 0.318222 0.313843
vt 0.312239 0.314330
vt 0.305691 0.315089
vt 0.306397 0.312108
vt 0.299423 0.311436
vt 0.298838 0.314508
vt 0.292253 0.312512
vt 0.297224 0.304680
vt 0.291784 0.295502
vt 0.281518 0.292005
vt 0.335509 0.295142
vt 0.337277 0.288480
vt 0.335718 0.288104
vt 0.337710 0.281647
vt 0.332821 0.287554
vt 0.297531 0.241803
vt 0.291073 0.239939
vt 0.290868 0.240478
vt 0.284911 0.237325
vt 0.285232 0.236810
vt 0.280031 0.232606
vt 0.279635 0.233023
vt 0.275267 0.227749
vt 0.275762 0.227399
vt 0.272547 0.221423
vt 0.272033 0.221679
vt 0.270039 0.215060
vt 0.270618 0.214869
vt 0.269958 0.208040
vt 0.269392 0.208140
vt 0.270082 0.201196
vt 0.270690 0.201190
vt 0.272662 0.194613
vt 0.272099 0.194505
vt 0.275321 0.188336
vt 0.275872 0.188579
vt 0.280076 0.183309
vt 0.279624 0.182958
vt 0.284833 0.178544
vt 0.285199 0.179017
vt 0.291015 0.175793
vt 0.290774 0.175272
vt 0.297214 0.173244
vt 0.303929 0.173143
vt 0.303922 0.172566
vt 0.297347 0.173839
vt 0.310639 0.173219
vt 0.310516 0.173811
vt 0.316858 0.175710
vt 0.317107 0.175189
vt 0.323094 0.178382
vt 0.322710 0.178851
vt 0.327910 0.183052
vt 0.328369 0.182705
vt 0.332742 0.187975
vt 0.332191 0.188229
vt 0.335472 0.194151
vt 0.336028 0.194012
vt 0.338118 0.200580
vt 0.337512 0.200627
vt 0.338333 0.207396
vt 0.338902 0.207446
vt 0.338370 0.214334
vt 0.337789 0.214181
vt 0.335995 0.220716
vt 0.336511 0.220971
vt 0.333419 0.227105
vt 0.332940 0.226733
vt 0.328817 0.232053
vt 0.329191 0.232488
vt 0.324032 0.236925
vt 0.323726 0.236399
vt 0.317819 0.239289
vt 0.328593 0.231739
vt 0.323578 0.235845
vt 0.335647 0.220637
vt 0.332647 0.226538
vt 0.337942 0.207474
vt 0.337310 0.214272
vt 0.335089 0.194254
vt 0.337161 0.200713
vt 0.316188 0.230658
vt 0.328547 0.224624
vt 0.311356 0.241233
vt 0.293871 0.233417
vt 0.304429 0.242049
vt 0.297506 0.241457
vt 0.308532 0.224556
vt 0.294901 0.226547
vt 0.298062 0.218705
vt 0.313342 0.215558
vt 0.305741 0.217285
vt 0.286573 0.220178
vt 0.296413 0.211341
vt 0.286918 0.212911
vt 0.304143 0.209778
vt 0.295035 0.203816
vt 0.283485 0.206032
vt 0.302596 0.202143
vt 0.285639 0.197862
vt 0.300357 0.194119
vt 0.310065 0.200087
vt 0.322141 0.197795
vt 0.315762 0.191403
vt 0.321082 0.205719
vt 0.311849 0.208100
vt 0.327159 0.211354
vt 0.331832 0.188362
vt 0.327616 0.183267
vt 0.320085 0.183473
vt 0.322518 0.179126
vt 0.316768 0.176050
vt 0.310559 0.174246
vt 0.306315 0.183760
vt 0.303986 0.173523
vt 0.291104 0.176157
vt 0.285310 0.179326
vt 0.297417 0.174198
vt 0.280289 0.183578
vt 0.276156 0.188751
vt 0.273014 0.194688
vt 0.271102 0.201161
vt 0.270357 0.207980
vt 0.270970 0.214807
vt 0.272931 0.221338
vt 0.276121 0.227295
vt 0.280303 0.232403
vt 0.285416 0.236528
vt 0.291157 0.239585
vt 0.284697 0.189825
vt 0.322010 0.220697
vt 0.607632 0.787471
vt 0.603292 0.792893
vt 0.610967 0.803943
vt 0.624826 0.794338
vt 0.620534 0.805107
vt 0.599677 0.800540
vt 0.603809 0.807006
vt 0.607736 0.813605
vt 0.627808 0.800230
vt 0.629368 0.806669
vt 0.624748 0.818011
vt 0.617403 0.816151
vt 0.614337 0.826281
vt 0.623556 0.831385
vt 0.628955 0.819555
vt 0.629832 0.813104
vt 0.626858 0.825740
vt 0.619185 0.836538
vt 0.620898 0.788997
vt 0.625233 0.794096
vt 0.621227 0.788786
vt 0.616221 0.784397
vt 0.615947 0.784611
vt 0.624628 0.790587
vt 0.621658 0.788408
vt 0.616591 0.783921
vt 0.628386 0.799941
vt 0.628092 0.800064
vt 0.629793 0.806449
vt 0.631129 0.807896
vt 0.630209 0.813062
vt 0.629860 0.819836
vt 0.630776 0.813107
vt 0.629292 0.819645
vt 0.627159 0.825971
vt 0.624210 0.832198
vt 0.627636 0.826277
vt 0.623793 0.831767
vt 0.619375 0.836892
vt 0.614245 0.841596
vt 0.619685 0.837366
vt 0.614006 0.841043
vt 0.607937 0.844153
vt 0.601420 0.846575
vt 0.608073 0.844702
vt 0.601377 0.845978
vt 0.594611 0.846550
vt 0.587699 0.846313
vt 0.594541 0.847112
vt 0.587889 0.845742
vt 0.581440 0.843687
vt 0.575175 0.840814
vt 0.581159 0.844179
vt 0.575566 0.840356
vt 0.581658 0.843367
vt 0.587977 0.845399
vt 0.575917 0.840088
vt 0.570772 0.835719
vt 0.566699 0.830338
vt 0.566350 0.830561
vt 0.570433 0.835950
vt 0.563746 0.824265
vt 0.563397 0.824475
vt 0.562883 0.824713
vt 0.565843 0.830887
vt 0.561229 0.818048
vt 0.561807 0.817878
vt 0.561546 0.811085
vt 0.562104 0.804292
vt 0.560984 0.811144
vt 0.562701 0.804348
vt 0.565411 0.798129
vt 0.565089 0.797946
vt 0.563037 0.804417
vt 0.561913 0.811029
vt 0.568169 0.791852
vt 0.564548 0.797783
vt 0.568691 0.792136
vt 0.573254 0.787091
vt 0.578303 0.782601
vt 0.572820 0.786733
vt 0.578683 0.783063
vt 0.584907 0.780451
vt 0.584689 0.780128
vt 0.578899 0.783355
vt 0.573502 0.787393
vt 0.590955 0.777893
vt 0.584422 0.779629
vt 0.591121 0.778467
vt 0.597704 0.778035
vt 0.604359 0.778348
vt 0.597682 0.777467
vt 0.604238 0.778938
vt 0.610306 0.781347
vt 0.610501 0.781052
vt 0.604166 0.779261
vt 0.597761 0.778386
vt 0.610743 0.780533
vt 0.591291 0.778784
vt 0.580800 0.798676
vt 0.568954 0.792416
vt 0.569374 0.809940
vt 0.576074 0.805578
vt 0.586742 0.808517
vt 0.583252 0.818990
vt 0.590639 0.815158
vt 0.594273 0.821959
vt 0.579828 0.830424
vt 0.591985 0.832034
vt 0.601066 0.832107
vt 0.606017 0.825887
vt 0.601315 0.817710
vt 0.597260 0.811042
vt 0.589342 0.840619
vt 0.601252 0.845628
vt 0.594585 0.846164
vt 0.613836 0.840699
vt 0.607776 0.843788
vt 0.562117 0.817730
vt 0.593187 0.804401
vt 0.588016 0.796410
vt 0.593098 0.791220
vt 0.570005 0.836319
vt 0.641774 0.800686
vt 0.641461 0.795415
vt 0.639168 0.789046
vt 0.636966 0.782656
vt 0.624183 0.787054
vt 0.634816 0.776254
vt 0.622035 0.780660
vt 0.632677 0.769850
vt 0.619898 0.774259
vt 0.628585 0.756981
vt 0.615806 0.761391
vt 0.617809 0.767840
vt 0.630588 0.763430
vt 0.625173 0.743877
vt 0.623871 0.737185
vt 0.611093 0.741596
vt 0.622869 0.730391
vt 0.610090 0.734802
vt 0.612395 0.748287
vt 0.622068 0.723527
vt 0.609289 0.727938
vt 0.626752 0.750472
vt 0.613973 0.754883
vt 0.621370 0.716627
vt 0.608591 0.721038
vt 0.619698 0.702923
vt 0.606919 0.707334
vt 0.607850 0.714153
vt 0.620628 0.709743
vt 0.616945 0.689592
vt 0.615054 0.683104
vt 0.602275 0.687515
vt 0.612837 0.676729
vt 0.600059 0.681140
vt 0.604166 0.694003
vt 0.610340 0.670450
vt 0.597561 0.674861
vt 0.618496 0.696197
vt 0.605718 0.700608
vt 0.607608 0.664252
vt 0.594830 0.668663
vt 0.601582 0.652051
vt 0.588804 0.656462
vt 0.591899 0.662534
vt 0.604677 0.658123
vt 0.595037 0.640029
vt 0.582258 0.644440
vt 0.585579 0.650435
vt 0.578891 0.638462
vt 0.591670 0.634051
vt 0.598358 0.646024
vt 0.588308 0.628071
vt 0.585009 0.622069
vt 0.572230 0.626480
vt 0.575529 0.632481
vt 0.581833 0.616024
vt 0.569054 0.620435
vt 0.561358 0.603455
vt 0.563233 0.608163
vt 0.576011 0.603753
vt 0.572539 0.599596
vt 0.566042 0.614334
vt 0.578821 0.609924
s 1
usemtl 1011
f 1/1/1 2/2/2 3/3/3
f 3/3/3 4/4/4 1/1/1
f 6/5/5 5/6/6 3/3/3
f 3/3/3 2/2/2 6/5/5
f 7/7/7 8/8/8 9/9/9
f 9/9/9 10/10/10 7/7/7
f 11/11/11 10/10/10 9/9/9
f 9/9/9 12/12/12 11/11/11
f 1/1/1 4/4/4 13/13/13
f 13/13/13 14/14/14 1/1/1
f 7/7/7 14/14/14 13/13/13
f 13/13/13 8/8/8 7/7/7
f 11/11/11 12/12/12 15/15/15
f 15/15/15 16/16/16 11/11/11
f 17/17/17 16/16/16 15/15/15
f 15/15/15 18/18/18 17/17/17
f 17/17/17 18/18/18 19/19/19
f 19/19/19 20/20/20 17/17/17
f 21/21/21 20/20/20 19/19/19
f 19/19/19 22/22/22 21/21/21
f 23/23/23 24/24/24 25/25/25
f 25/25/25 26/26/26 23/23/23
f 6/5/5 26/26/26 25/25/25
f 25/25/25 5/6/6 6/5/5
f 21/21/21 22/22/22 27/27/27
f 27/27/27 28/28/28 21/21/21
f 29/29/29 28/28/28 27/27/27
f 27/27/27 30/30/30 29/29/29
f 31/31/31 32/32/32 33/33/33
f 33/33/33 34/34/34 31/31/31
f 23/23/23 34/34/34 33/33/33
f 33/33/33 24/24/24 23/23/23
f 35/35/35 36/36/36 37/37/37
f 37/37/37 38/38/38 35/35/35
f 39/39/39 38/38/38 37/37/37
f 37/37/37 40/40/40 39/39/39
f 41/41/41 42/42/42 43/43/43
f 43/43/43 44/44/44 41/41/41
f 31/31/31 44/44/44 43/43/43
f 43/43/43 32/32/32 31/31/31
f 39/39/39 40/40/40 45/45/45
f 45/45/45 46/46/46 39/39/39
f 47/47/47 46/46/46 45/45/45
f 45/45/45 48/48/48 47/47/47
f 47/47/47 48/48/48 49/49/49
f 49/49/49 50/50/50 47/47/47
f 41/41/41 50/50/50 49/49/49
f 49/49/49 42/42/42 41/41/41
usemtl 1001
f 52/51/51 53/52/52 51/53/53
f 58/54/54 52/51/51 51/53/53
f 51/53/53 53/52/52 57/55/55
f 54/56/56 56/57/57 51/53/53
f 51/53/53 55/58/58 54/56/56
f 57/55/55 55/58/58 51/53/53
f 51/53/53 56/57/57 58/54/54
f 58/54/54 56/57/57 59/59/59
f 59/59/59 63/60/60 58/54/54
f 58/54/54 61/61/61 60/62/62
f 60/62/62 52/51/51 58/54/54
f 62/63/63 61/61/61 58/54/54
f 58/54/54 63/60/60 62/63/63
f 59/59/59 67/64/64 63/60/60
f 65/65/65 64/66/66 63/60/60
f 63/60/60 64/66/66 62/63/63
f 63/60/60 66/67/67 65/65/65
f 68/68/68 66/67/67 63/60/60
f 63/60/60 67/64/64 68/68/68
f 273/69/69 69/70/70 68/68/68
f 68/68/68 67/64/64 273/69/69
f 68/68/68 69/70/70 70/71/71
f 72/72/72 66/67/67 68/68/68
f 70/71/71 71/73/73 68/68/68
f 68/68/68 71/73/73 72/72/72
f 72/72/72 71/73/73 73/74/74
f 72/72/72 74/75/75 65/65/65
f 65/65/65 66/67/67 72/72/72
f 73/74/74 76/76/76 72/72/72
f 75/77/77 74/75/75 72/72/72
f 72/72/72 76/76/76 75/77/77
f 75/77/77 76/76/76 77/78/78
f 77/78/78 76/76/76 73/74/74
f 77/78/78 80/79/79 75/77/77
f 73/74/74 78/80/80 77/78/78
f 77/78/78 78/80/80 79/81/81
f 79/81/81 82/82/82 77/78/78
f 81/83/83 80/79/79 77/78/78
f 77/78/78 82/82/82 81/83/83
f 79/81/81 83/84/84 82/82/82
f 82/82/82 84/85/85 81/83/83
f 83/84/84 85/86/86 82/82/82
f 82/82/82 85/86/86 84/85/85
f 84/85/85 86/87/87 224/88/88
f 224/88/88 86/87/87 87/89/89
f 87/89/89 88/90/90 216/91/91
f 216/91/91 88/90/90 89/92/92
f 89/92/92 377/93/93 92/94/94
f 89/92/92 93/95/95 216/91/91
f 92/94/94 93/95/95 89/92/92
f 316/96/96 91/97/97 89/92/92
f 89/92/92 90/98/98 316/96/96
f 89/92/92 91/97/97 377/93/93
f 94/99/99 95/100/100 92/94/94
f 92/94/94 377/93/93 94/99/99
f 96/101/101 92/94/94 95/100/100
f 95/100/100 97/102/102 96/101/101
f 98/103/103 97/102/102 95/100/100
f 95/100/100 99/104/104 98/103/103
f 99/104/104 100/105/105 102/106/106
f 99/104/104 101/107/107 100/105/105
f 94/99/99 101/107/107 99/104/104
f 99/104/104 95/100/100 94/99/99
f 98/103/103 99/104/104 102/106/106
f 102/106/106 103/108/108 98/103/103
f 104/109/109 103/108/108 102/106/106
f 102/106/106 105/110/110 104/109/109
f 102/106/106 100/105/105 105/110/110
f 100/105/105 108/111/111 105/110/110
f 105/110/110 107/112/112 106/113/113
f 105/110/110 108/111/111 107/112/112
f 107/112/112 109/114/114 182/115/115
f 182/115/115 109/114/114 110/116/116
f 110/116/116 111/117/117 178/118/118
f 178/118/118 111/117/117 112/119/119
f 112/119/119 113/120/120 176/121/121
f 176/121/121 113/120/120 114/122/122
f 114/122/122 115/123/123 161/124/124
f 161/124/124 115/123/123 116/125/125
f 116/125/125 117/126/126 154/127/127
f 154/127/127 117/126/126 118/128/128
f 118/128/128 119/129/129 144/130/130
f 144/130/130 119/129/129 120/131/131
f 120/131/131 121/132/132 141/133/133
f 141/133/133 121/132/132 122/134/134
f 122/134/134 123/135/135 137/136/136
f 137/136/136 123/135/135 124/137/137
f 124/137/137 125/138/138 133/139/139
f 133/139/139 125/138/138 126/140/140
f 126/140/140 127/141/141 128/142/142
f 128/142/142 127/141/141 83/84/84
f 128/142/142 83/84/84 79/81/81
f 129/143/143 126/140/140 128/142/142
f 130/144/144 131/145/145 129/143/143
f 129/143/143 128/142/142 130/144/144
f 129/143/143 131/145/145 132/146/146
f 132/146/146 133/139/139 129/143/143
f 133/139/139 126/140/140 129/143/143
f 134/147/147 133/139/139 132/146/146
f 132/146/146 135/148/148 134/147/147
f 134/147/147 135/148/148 136/149/149
f 136/149/149 137/136/136 134/147/147
f 137/136/136 124/137/137 134/147/147
f 134/147/147 124/137/137 133/139/139
f 138/150/150 137/136/136 136/149/149
f 139/151/151 141/133/133 138/150/150
f 138/150/150 140/152/152 139/151/151
f 136/149/149 140/152/152 138/150/150
f 141/133/133 122/134/134 138/150/150
f 138/150/150 122/134/134 137/136/136
f 142/153/153 141/133/133 139/151/151
f 139/151/151 143/154/154 142/153/153
f 142/153/153 143/154/154 145/155/155
f 145/155/155 144/130/130 142/153/153
f 144/130/130 120/131/131 142/153/153
f 142/153/153 120/131/131 141/133/133
f 145/155/155 143/154/154 146/156/156
f 146/156/156 147/157/157 145/155/155
f 145/155/155 147/157/157 148/158/158
f 148/158/158 150/159/159 145/155/155
f 149/160/160 144/130/130 145/155/155
f 145/155/155 150/159/159 149/160/160
f 149/160/160 150/159/159 151/161/161
f 151/161/161 150/159/159 148/158/158
f 151/161/161 152/162/162 153/163/163
f 148/158/158 152/162/162 151/161/161
f 153/163/163 156/164/164 151/161/161
f 151/161/161 154/127/127 149/160/160
f 155/165/165 154/127/127 151/161/161
f 151/161/161 156/164/164 155/165/165
f 155/165/165 156/164/164 157/166/166
f 157/166/166 156/164/164 153/163/163
f 160/167/167 158/168/168 157/166/166
f 157/166/166 158/168/168 159/169/169
f 153/163/163 162/170/170 157/166/166
f 157/166/166 161/124/124 155/165/165
f 159/169/169 161/124/124 157/166/166
f 157/166/166 162/170/170 160/167/167
f 163/171/171 162/170/170 153/163/163
f 160/167/167 162/170/170 163/171/171
f 166/172/172 164/173/173 163/171/171
f 163/171/171 164/173/173 160/167/167
f 153/163/163 165/174/174 163/171/171
f 163/171/171 165/174/174 263/175/175
f 263/175/175 166/172/172 163/171/171
f 266/176/176 167/177/177 166/172/172
f 166/172/172 167/177/177 168/178/178
f 168/178/178 164/173/173 166/172/172
f 168/178/178 167/177/177 169/179/179
f 169/179/179 170/180/180 168/178/178
f 168/178/178 170/180/180 171/181/181
f 171/181/181 172/182/182 168/178/178
f 160/167/167 164/173/173 168/178/178
f 168/178/178 172/182/182 160/167/167
f 160/167/167 172/182/182 173/183/183
f 173/183/183 172/182/182 171/181/181
f 173/183/183 158/168/168 160/167/167
f 171/181/181 174/184/184 173/183/183
f 173/183/183 174/184/184 175/185/185
f 175/185/185 176/121/121 173/183/183
f 159/169/169 158/168/168 173/183/183
f 173/183/183 176/121/121 159/169/169
f 177/186/186 178/118/118 175/185/185
f 175/185/185 174/184/184 177/186/186
f 178/118/118 112/119/119 175/185/185
f 175/185/185 112/119/119 176/121/121
f 179/187/187 178/118/118 177/186/186
f 180/188/188 182/115/115 179/187/187
f 179/187/187 181/189/189 180/188/188
f 177/186/186 181/189/189 179/187/187
f 182/115/115 110/116/116 179/187/187
f 179/187/187 110/116/116 178/118/118
f 106/113/113 182/115/115 180/188/188
f 180/188/188 181/189/189 183/190/190
f 183/190/190 181/189/189 177/186/186
f 184/191/191 186/192/192 183/190/190
f 183/190/190 185/193/193 184/191/191
f 187/194/194 185/193/193 183/190/190
f 183/190/190 186/192/192 180/188/188
f 183/190/190 188/195/195 187/194/194
f 177/186/186 188/195/195 183/190/190
f 187/194/194 188/195/195 171/181/181
f 171/181/181 188/195/195 177/186/186
f 187/194/194 170/180/180 169/179/179
f 169/179/179 189/196/196 187/194/194
f 187/194/194 189/196/196 190/197/197
f 190/197/197 185/193/193 187/194/194
f 171/181/181 170/180/180 187/194/194
f 229/198/198 194/199/199 190/197/197
f 190/197/197 194/199/199 192/200/200
f 190/197/197 191/201/201 184/191/191
f 192/200/200 191/201/201 190/197/197
f 190/197/197 189/196/196 229/198/198
f 184/191/191 185/193/193 190/197/197
f 53/52/52 193/202/202 192/200/200
f 192/200/200 193/202/202 195/203/203
f 195/203/203 191/201/201 192/200/200
f 184/191/191 191/201/201 195/203/203
f 226/204/204 196/205/205 195/203/203
f 195/203/203 193/202/202 226/204/204
f 195/203/203 196/205/205 198/206/206
f 195/203/203 197/207/207 184/191/191
f 198/206/206 197/207/207 195/203/203
f 202/208/208 197/207/207 198/206/206
f 203/209/209 199/210/210 198/206/206
f 198/206/206 199/210/210 202/208/208
f 198/206/206 196/205/205 200/211/211
f 200/211/211 201/212/212 198/206/206
f 198/206/206 201/212/212 203/209/209
f 204/213/213 205/214/214 203/209/209
f 203/209/209 201/212/212 204/213/213
f 203/209/209 205/214/214 98/103/103
f 104/109/109 199/210/210 203/209/209
f 98/103/103 103/108/108 203/209/209
f 203/209/209 103/108/108 104/109/109
f 98/103/103 205/214/214 206/215/215
f 206/215/215 205/214/214 204/213/213
f 207/216/216 209/217/217 206/215/215
f 206/215/215 208/218/218 207/216/216
f 204/213/213 208/218/218 206/215/215
f 206/215/215 209/217/217 96/101/101
f 96/101/101 97/102/102 206/215/215
f 206/215/215 97/102/102 98/103/103
f 96/101/101 209/217/217 210/219/219
f 210/219/219 209/217/217 207/216/216
f 210/219/219 211/220/220 212/221/221
f 207/216/216 211/220/220 210/219/219
f 212/221/221 213/222/222 210/219/219
f 210/219/219 213/222/222 215/223/223
f 210/219/219 214/224/224 96/101/101
f 215/223/223 214/224/224 210/219/219
f 215/223/223 216/91/91 93/95/95
f 93/95/95 214/224/224 215/223/223
f 217/225/225 216/91/91 215/223/223
f 215/223/223 218/226/226 217/225/225
f 219/227/227 218/226/226 215/223/223
f 215/223/223 213/222/222 219/227/227
f 212/221/221 220/228/228 219/227/227
f 219/227/227 213/222/222 212/221/221
f 219/227/227 220/228/228 221/229/229
f 221/229/229 222/230/230 219/227/227
f 219/227/227 222/230/230 223/231/231
f 223/231/231 218/226/226 219/227/227
f 75/77/77 80/79/79 223/231/231
f 223/231/231 80/79/79 81/83/83
f 81/83/83 224/88/88 223/231/231
f 223/231/231 222/230/230 75/77/77
f 223/231/231 224/88/88 217/225/225
f 217/225/225 218/226/226 223/231/231
f 75/77/77 222/230/230 221/229/229
f 65/65/65 74/75/75 221/229/229
f 221/229/229 74/75/75 75/77/77
f 221/229/229 64/66/66 65/65/65
f 62/63/63 64/66/66 221/229/229
f 221/229/229 220/228/228 62/63/63
f 62/63/63 220/228/228 212/221/221
f 224/88/88 87/89/89 217/225/225
f 217/225/225 87/89/89 216/91/91
f 96/101/101 214/224/224 93/95/95
f 212/221/221 211/220/220 60/62/62
f 60/62/62 61/61/61 212/221/221
f 212/221/221 61/61/61 62/63/63
f 60/62/62 211/220/220 207/216/216
f 225/232/232 208/218/218 204/213/213
f 207/216/216 208/218/218 225/232/232
f 225/232/232 226/204/204 52/51/51
f 225/232/232 200/211/211 226/204/204
f 204/213/213 200/211/211 225/232/232
f 207/216/216 225/232/232 60/62/62
f 60/62/62 225/232/232 52/51/51
f 52/51/51 226/204/204 53/52/52
f 204/213/213 201/212/212 200/211/211
f 184/191/191 197/207/207 202/208/208
f 202/208/208 186/192/192 184/191/191
f 180/188/188 186/192/192 202/208/208
f 202/208/208 199/210/210 104/109/109
f 202/208/208 227/233/233 180/188/188
f 104/109/109 227/233/233 202/208/208
f 106/113/113 227/233/233 104/109/109
f 180/188/188 227/233/233 106/113/113
f 200/211/211 196/205/205 226/204/204
f 226/204/204 193/202/202 53/52/52
f 228/234/234 230/235/235 194/199/199
f 194/199/199 229/198/198 228/234/234
f 194/199/199 230/235/235 57/55/55
f 57/55/55 192/200/200 194/199/199
f 57/55/55 230/235/235 231/236/236
f 231/236/236 230/235/235 228/234/234
f 234/237/237 232/238/238 231/236/236
f 231/236/236 232/238/238 54/56/56
f 228/234/234 233/239/239 231/236/236
f 231/236/236 233/239/239 234/237/237
f 231/236/236 55/58/58 57/55/55
f 54/56/56 55/58/58 231/236/236
f 237/240/240 240/241/241 234/237/237
f 234/237/237 240/241/241 235/242/242
f 235/242/242 232/238/238 234/237/237
f 234/237/237 233/239/239 236/243/243
f 236/243/243 237/240/240 234/237/237
f 238/244/244 239/245/245 237/240/240
f 237/240/240 241/246/246 240/241/241
f 239/245/245 241/246/246 237/240/240
f 242/247/247 245/248/248 239/245/245
f 244/249/249 243/250/250 239/245/245
f 239/245/245 243/250/250 246/251/251
f 239/245/245 245/248/248 244/249/249
f 246/251/251 241/246/246 239/245/245
f 240/241/241 241/246/246 246/251/251
f 246/251/251 247/252/252 240/241/241
f 248/253/253 247/252/252 246/251/251
f 246/251/251 243/250/250 250/254/254
f 246/251/251 249/255/255 248/253/253
f 250/254/254 249/255/255 246/251/251
f 254/256/256 251/257/257 250/254/254
f 250/254/254 251/257/257 252/258/258
f 250/254/254 243/250/250 244/249/249
f 244/249/249 253/259/259 250/254/254
f 252/258/258 249/255/255 250/254/254
f 250/254/254 253/259/259 254/256/256
f 255/260/260 256/261/261 254/256/256
f 254/256/256 253/259/259 255/260/260
f 254/256/256 256/261/261 139/151/151
f 136/149/149 251/257/257 254/256/256
f 139/151/151 140/152/152 254/256/256
f 254/256/256 140/152/152 136/149/149
f 139/151/151 256/261/261 146/156/156
f 146/156/156 256/261/261 255/260/260
f 242/247/247 257/262/262 255/260/260
f 255/260/260 257/262/262 146/156/156
f 255/260/260 245/248/248 242/247/247
f 255/260/260 253/259/259 244/249/249
f 244/249/249 245/248/248 255/260/260
f 258/263/263 257/262/262 242/247/247
f 146/156/156 257/262/262 258/263/263
f 242/247/247 259/264/264 258/263/263
f 258/263/263 259/264/264 260/265/265
f 260/265/265 261/266/266 258/263/263
f 258/263/263 147/157/157 146/156/156
f 148/158/158 147/157/157 258/263/263
f 258/263/263 261/266/266 148/158/158
f 262/267/267 261/266/266 260/265/265
f 148/158/158 261/266/266 262/267/267
f 260/265/265 263/175/175 262/267/267
f 262/267/267 152/162/162 148/158/158
f 263/175/175 165/174/174 262/267/267
f 153/163/163 152/162/162 262/267/267
f 262/267/267 165/174/174 153/163/163
f 265/268/268 263/175/175 260/265/265
f 236/243/243 264/269/269 265/268/268
f 264/269/269 266/176/176 265/268/268
f 265/268/268 266/176/176 263/175/175
f 238/244/244 265/268/268 260/265/265
f 236/243/243 265/268/268 238/244/244
f 228/234/234 229/198/198 264/269/269
f 229/198/198 267/270/270 264/269/269
f 264/269/269 267/270/270 266/176/176
f 266/176/176 267/270/270 169/179/179
f 169/179/179 267/270/270 229/198/198
f 228/234/234 264/269/269 236/243/243
f 260/265/265 259/264/264 238/244/244
f 238/244/244 259/264/264 242/247/247
f 248/253/253 249/255/255 252/258/258
f 252/258/258 268/271/271 248/253/253
f 132/146/146 268/271/271 252/258/258
f 252/258/258 251/257/257 136/149/149
f 252/258/258 135/148/148 132/146/146
f 136/149/149 135/148/148 252/258/258
f 248/253/253 268/271/271 269/272/272
f 269/272/272 268/271/271 132/146/146
f 70/71/71 271/273/273 269/272/272
f 269/272/272 270/274/274 70/71/71
f 130/144/144 270/274/274 269/272/272
f 269/272/272 271/273/273 248/253/253
f 269/272/272 131/145/145 130/144/144
f 132/146/146 131/145/145 269/272/272
f 248/253/253 271/273/273 272/275/275
f 272/275/275 271/273/273 70/71/71
f 272/275/275 235/242/242 240/241/241
f 273/69/69 235/242/242 272/275/275
f 240/241/241 247/252/252 272/275/275
f 272/275/275 247/252/252 248/253/253
f 70/71/71 69/70/70 272/275/275
f 272/275/275 69/70/70 273/69/69
f 70/71/71 270/274/274 73/74/74
f 73/74/74 270/274/274 130/144/144
f 242/247/247 239/245/245 238/244/244
f 238/244/244 237/240/240 236/243/243
f 236/243/243 233/239/239 228/234/234
f 235/242/242 273/69/69 54/56/56
f 54/56/56 232/238/238 235/242/242
f 54/56/56 273/69/69 59/59/59
f 53/52/52 192/200/200 57/55/55
f 229/198/198 189/196/196 169/179/179
f 177/186/186 174/184/184 171/181/181
f 169/179/179 167/177/177 266/176/176
f 266/176/176 166/172/172 263/175/175
f 176/121/121 114/122/122 159/169/169
f 159/169/169 114/122/122 161/124/124
f 161/124/124 116/125/125 155/165/165
f 155/165/165 116/125/125 154/127/127
f 154/127/127 118/128/128 149/160/160
f 149/160/160 118/128/128 144/130/130
f 146/156/156 143/154/154 139/151/151
f 79/81/81 78/80/80 130/144/144
f 130/144/144 78/80/80 73/74/74
f 130/144/144 128/142/142 79/81/81
f 106/113/113 107/112/112 182/115/115
f 104/109/109 105/110/110 106/113/113
f 93/95/95 92/94/94 96/101/101
f 377/93/93 274/276/276 94/99/99
f 94/99/99 274/276/276 375/277/277
f 375/277/277 275/278/278 94/99/99
f 276/279/279 275/278/278 375/277/277
f 375/277/277 277/280/280 276/279/279
f 276/279/279 277/280/280 374/281/281
f 374/281/281 278/282/282 276/279/279
f 279/283/283 278/282/282 374/281/281
f 374/281/281 280/284/284 279/283/283
f 279/283/283 280/284/284 372/285/285
f 372/285/285 281/286/286 279/283/283
f 282/287/287 281/286/286 372/285/285
f 372/285/285 283/288/288 282/287/287
f 282/287/287 283/288/288 371/289/289
f 371/289/289 284/290/290 282/287/287
f 285/291/291 284/290/290 371/289/289
f 371/289/289 286/292/292 285/291/291
f 285/291/291 286/292/292 369/293/293
f 369/293/293 287/294/294 285/291/291
f 288/295/295 287/294/294 369/293/293
f 369/293/293 289/296/296 288/295/295
f 288/295/295 289/296/296 367/297/297
f 367/297/297 290/298/298 288/295/295
f 291/299/299 290/298/298 367/297/297
f 367/297/297 292/300/300 291/299/299
f 291/299/299 292/300/300 365/301/301
f 365/301/301 293/302/302 291/299/299
f 294/303/303 293/302/302 365/301/301
f 389/304/304 295/305/305 294/303/303
f 294/303/303 364/306/306 389/304/304
f 365/301/301 364/306/306 294/303/303
f 296/307/307 295/305/305 389/304/304
f 389/304/304 297/308/308 296/307/307
f 296/307/307 297/308/308 390/309/309
f 390/309/309 298/310/310 296/307/307
f 299/311/311 298/310/310 390/309/309
f 299/311/311 300/312/312 355/313/313
f 390/309/309 300/312/312 299/311/311
f 355/313/313 301/314/314 299/311/311
f 302/315/315 301/314/314 355/313/313
f 355/313/313 303/316/316 302/315/315
f 302/315/315 303/316/316 324/317/317
f 324/317/317 304/318/318 302/315/315
f 305/319/319 304/318/318 324/317/317
f 324/317/317 306/320/320 305/319/319
f 305/319/319 306/320/320 323/321/321
f 323/321/321 307/322/322 305/319/319
f 308/323/323 307/322/322 323/321/321
f 323/321/321 309/324/324 308/323/323
f 308/323/323 309/324/324 321/325/325
f 321/325/325 310/326/326 308/323/323
f 311/327/327 310/326/326 321/325/325
f 311/327/327 312/328/328 319/329/329
f 321/325/325 312/328/328 311/327/327
f 319/329/329 313/330/330 311/327/327
f 314/331/331 313/330/330 319/329/329
f 319/329/329 315/332/332 314/331/331
f 314/331/331 315/332/332 316/96/96
f 316/96/96 90/98/98 314/331/331
f 318/333/333 316/96/96 315/332/332
f 317/334/334 329/335/335 315/332/332
f 315/332/332 319/329/329 317/334/334
f 315/332/332 329/335/335 318/333/333
f 317/334/334 319/329/329 312/328/328
f 320/336/336 328/337/337 312/328/328
f 312/328/328 321/325/325 320/336/336
f 312/328/328 328/337/337 317/334/334
f 320/336/336 321/325/325 309/324/324
f 322/338/338 326/339/339 309/324/324
f 309/324/324 323/321/321 322/338/338
f 309/324/324 326/339/339 320/336/336
f 322/338/338 323/321/321 306/320/320
f 306/320/320 324/317/317 325/340/340
f 325/340/340 327/341/341 306/320/320
f 306/320/320 327/341/341 322/338/338
f 330/342/342 318/333/333 329/335/335
f 329/335/335 331/343/343 330/342/342
f 329/335/335 317/334/334 331/343/343
f 332/344/344 318/333/333 330/342/342
f 333/345/345 376/346/346 332/344/344
f 334/347/347 376/346/346 333/345/345
f 336/348/348 335/349/349 333/345/345
f 333/345/345 332/344/344 336/348/348
f 339/350/350 335/349/349 336/348/348
f 336/348/348 332/344/344 330/342/342
f 337/351/351 338/352/352 336/348/348
f 336/348/348 338/352/352 339/350/350
f 339/350/350 380/353/353 335/349/349
f 339/350/350 341/354/354 384/355/355
f 384/355/355 380/353/353 339/350/350
f 339/350/350 338/352/352 340/356/356
f 340/356/356 341/354/354 339/350/350
f 384/355/355 341/354/354 342/357/357
f 342/357/357 341/354/354 340/356/356
f 342/357/357 343/358/358 384/355/355
f 340/356/356 346/359/359 342/357/357
f 344/360/360 343/358/358 342/357/357
f 342/357/357 345/361/361 344/360/360
f 342/357/357 346/359/359 345/361/361
f 345/361/361 346/359/359 348/362/362
f 348/362/362 346/359/359 340/356/356
f 348/362/362 352/363/363 347/364/364
f 349/365/365 352/363/363 348/362/362
f 340/356/356 350/366/366 348/362/362
f 348/362/362 350/366/366 349/365/365
f 349/365/365 350/366/366 337/351/351
f 337/351/351 350/366/366 340/356/356
f 337/351/351 351/367/367 349/365/365
f 352/363/363 325/340/340 353/368/368
f 327/341/341 325/340/340 352/363/363
f 352/363/363 353/368/368 347/364/364
f 352/363/363 349/365/365 327/341/341
f 353/368/368 354/369/369 360/370/370
f 300/312/312 357/371/371 354/369/369
f 354/369/369 355/313/313 300/312/312
f 354/369/369 353/368/368 303/316/316
f 303/316/316 355/313/313 354/369/369
f 325/340/340 324/317/317 303/316/316
f 303/316/316 353/368/368 325/340/340
f 360/370/370 354/369/369 357/371/371
f 357/371/371 356/372/372 360/370/370
f 360/370/370 356/372/372 358/373/373
f 359/374/374 360/370/370 358/373/373
f 358/373/373 361/375/375 359/374/374
f 362/376/376 365/301/301 292/300/300
f 292/300/300 363/377/377 362/376/376
f 362/376/376 388/378/378 364/306/306
f 364/306/306 365/301/301 362/376/376
f 366/379/379 363/377/377 292/300/300
f 292/300/300 367/297/297 366/379/379
f 366/379/379 367/297/297 289/296/296
f 289/296/296 386/380/380 366/379/379
f 368/381/381 386/380/380 289/296/296
f 289/296/296 369/293/293 368/381/381
f 368/381/381 369/293/293 286/292/292
f 286/292/292 385/382/382 368/381/381
f 370/383/383 385/382/382 286/292/292
f 286/292/292 371/289/289 370/383/383
f 370/383/383 371/289/289 283/288/288
f 283/288/288 383/384/384 370/383/383
f 382/385/385 383/384/384 283/288/288
f 283/288/288 372/285/285 382/385/385
f 382/385/385 372/285/285 280/284/284
f 280/284/284 381/386/386 382/385/385
f 373/387/387 381/386/386 280/284/284
f 280/284/284 374/281/281 373/387/387
f 373/387/387 374/281/281 277/280/280
f 277/280/280 379/388/388 373/387/387
f 378/389/389 379/388/388 277/280/280
f 277/280/280 375/277/277 378/389/389
f 378/389/389 375/277/277 274/276/276
f 274/276/276 334/347/347 378/389/389
f 376/346/346 377/93/93 91/97/97
f 274/276/276 377/93/93 376/346/346
f 376/346/346 334/347/347 274/276/276
f 91/97/97 332/344/344 376/346/346
f 318/333/333 332/344/344 91/97/97
f 91/97/97 316/96/96 318/333/333
f 333/345/345 373/387/387 379/388/388
f 379/388/388 378/389/389 333/345/345
f 380/353/353 382/385/385 381/386/386
f 381/386/386 373/387/387 333/345/345
f 383/384/384 382/385/385 380/353/353
f 380/353/353 384/355/355 383/384/384
f 383/384/384 384/355/355 343/358/358
f 383/384/384 343/358/358 370/383/383
f 370/383/383 343/358/358 385/382/382
f 343/358/358 344/360/360 385/382/382
f 385/382/382 344/360/360 387/390/390
f 387/390/390 368/381/381 385/382/382
f 386/380/380 368/381/381 387/390/390
f 386/380/380 387/390/390 366/379/379
f 387/390/390 363/377/377 366/379/379
f 362/376/376 363/377/377 387/390/390
f 362/376/376 387/390/390 388/378/378
f 359/374/374 361/375/375 388/378/378
f 345/361/361 388/378/378 387/390/390
f 359/374/374 388/378/378 345/361/361
f 344/360/360 345/361/361 387/390/390
f 380/353/353 381/386/386 335/349/349
f 335/349/349 381/386/386 333/345/345
f 333/345/345 378/389/389 334/347/347
f 361/375/375 389/304/304 364/306/306
f 364/306/306 388/378/378 361/375/375
f 297/308/308 389/304/304 361/375/375
f 356/372/372 390/309/309 297/308/308
f 361/375/375 358/373/373 297/308/308
f 297/308/308 358/373/373 356/372/372
f 300/312/312 390/309/309 356/372/372
f 347/364/364 360/370/370 359/374/374
f 345/361/361 348/362/362 359/374/374
f 359/374/374 348/362/362 347/364/364
f 356/372/372 357/371/371 300/312/312
f 347/364/364 353/368/368 360/370/370
f 327/341/341 349/365/365 351/367/367
f 391/391/391 326/339/339 351/367/367
f 351/367/367 322/338/338 327/341/341
f 326/339/339 322/338/338 351/367/367
f 331/343/343 326/339/339 391/391/391
f 337/351/351 336/348/348 391/391/391
f 391/391/391 351/367/367 337/351/351
f 391/391/391 336/348/348 330/342/342
f 330/342/342 331/343/343 391/391/391
f 340/356/356 338/352/352 337/351/351
f 331/343/343 320/336/336 326/339/339
f 331/343/343 317/334/334 328/337/337
f 328/337/337 320/336/336 331/343/343
f 81/83/83 84/85/85 224/88/88
f 73/74/74 71/73/73 70/71/71
f 273/69/69 67/64/64 59/59/59
f 59/59/59 56/57/57 54/56/56
f 393/392/392 395/393/393 392/394/394
f 392/394/394 394/395/395 393/392/392
f 399/396/396 394/395/395 392/394/394
f 392/394/394 395/393/393 398/397/397
f 392/394/394 397/398/398 396/399/399
f 398/397/397 397/398/398 392/394/394
f 399/396/396 500/400/400 394/395/395
f 400/401/401 500/400/400 399/396/396
f 399/396/396 401/402/402 400/401/401
f 402/403/403 401/402/402 399/396/396
f 399/396/396 392/394/394 402/403/403
f 396/399/399 403/404/404 402/403/403
f 402/403/403 392/394/394 396/399/399
f 403/404/404 404/405/405 402/403/403
f 402/403/403 404/405/405 401/402/402
f 405/406/406 499/407/407 401/402/402
f 401/402/402 499/407/407 400/401/401
f 401/402/402 498/408/408 405/406/406
f 404/405/405 498/408/408 401/402/402
f 403/404/404 497/409/409 404/405/405
f 407/410/410 394/395/395 408/411/411
f 408/411/411 410/412/412 407/410/410
f 409/413/413 406/414/414 407/410/410
f 407/410/410 410/412/412 409/413/413
f 516/415/415 411/416/416 410/412/412
f 410/412/412 411/416/416 412/417/417
f 412/417/417 409/413/413 410/412/412
f 410/412/412 408/411/411 516/415/415
f 516/415/415 408/411/411 513/418/418
f 408/411/411 414/419/419 513/418/418
f 513/418/418 414/419/419 413/420/420
f 513/418/418 413/420/420 512/421/421
f 512/421/421 413/420/420 417/422/422
f 418/423/423 415/424/424 417/422/422
f 417/422/422 415/424/424 512/421/421
f 417/422/422 416/425/425 418/423/423
f 418/423/423 416/425/425 421/426/426
f 422/427/427 419/428/428 421/426/426
f 421/426/426 419/428/428 418/423/423
f 421/426/426 420/429/429 422/427/427
f 422/427/427 420/429/429 425/430/430
f 426/431/431 423/432/432 425/430/430
f 425/430/430 423/432/432 422/427/427
f 425/430/430 424/433/433 426/431/431
f 426/431/431 424/433/433 429/434/434
f 430/435/435 427/436/436 429/434/434
f 429/434/434 427/436/436 426/431/431
f 429/434/434 428/437/437 430/435/435
f 430/435/435 428/437/437 433/438/438
f 434/439/439 431/440/440 433/438/438
f 433/438/438 431/440/440 430/435/435
f 433/438/438 432/441/441 434/439/439
f 434/439/439 432/441/441 438/442/442
f 437/443/443 435/444/444 438/442/442
f 438/442/442 435/444/444 434/439/439
f 438/442/442 436/445/445 437/443/443
f 436/445/445 438/442/442 439/446/446
f 439/446/446 438/442/442 432/441/441
f 432/441/441 493/447/447 439/446/446
f 439/446/446 494/448/448 436/445/445
f 436/445/445 494/448/448 440/449/449
f 440/449/449 484/450/450 442/451/451
f 440/449/449 441/452/452 436/445/445
f 442/451/451 441/452/452 440/449/449
f 502/453/453 443/454/454 442/451/451
f 442/451/451 484/450/450 502/453/453
f 443/454/454 446/455/455 444/456/456
f 444/456/456 442/451/451 443/454/454
f 447/457/457 446/455/455 443/454/454
f 443/454/454 445/458/458 447/457/457
f 447/457/457 445/458/458 448/459/459
f 450/460/460 449/461/461 448/459/459
f 448/459/459 449/461/461 447/457/457
f 448/459/459 451/462/462 450/460/460
f 476/463/463 452/464/464 451/462/462
f 451/462/462 505/465/465 476/463/463
f 504/466/466 505/465/465 451/462/462
f 451/462/462 448/459/459 504/466/466
f 455/467/467 454/468/468 452/464/464
f 452/464/464 454/468/468 450/460/460
f 452/464/464 453/469/469 455/467/467
f 450/460/460 451/462/462 452/464/464
f 455/467/467 453/469/469 456/470/470
f 458/471/471 457/472/472 456/470/470
f 456/470/470 457/472/472 455/467/467
f 456/470/470 459/473/473 458/471/471
f 473/474/474 460/475/475 459/473/473
f 459/473/473 472/476/476 473/474/474
f 475/477/477 472/476/476 459/473/473
f 459/473/473 456/470/470 475/477/477
f 463/478/478 462/479/479 460/475/475
f 460/475/475 462/479/479 458/471/471
f 460/475/475 461/480/480 463/478/478
f 458/471/471 459/473/473 460/475/475
f 463/478/478 461/480/480 464/481/481
f 466/482/482 465/483/483 464/481/481
f 464/481/481 465/483/483 463/478/478
f 464/481/481 467/484/484 466/482/482
f 510/485/485 468/486/486 467/484/484
f 467/484/484 471/487/487 510/485/485
f 470/488/488 471/487/487 467/484/484
f 467/484/484 464/481/481 470/488/488
f 412/417/417 469/489/489 468/486/486
f 468/486/486 469/489/489 466/482/482
f 468/486/486 409/413/413 412/417/417
f 466/482/482 467/484/484 468/486/486
f 461/480/480 509/490/490 470/488/488
f 470/488/488 464/481/481 461/480/480
f 473/474/474 509/490/490 461/480/480
f 478/491/491 475/477/477 474/492/492
f 479/493/493 477/494/494 474/492/492
f 474/492/492 476/463/463 479/493/493
f 474/492/492 477/494/494 478/491/491
f 480/495/495 478/491/491 477/494/494
f 479/493/493 481/496/496 477/494/494
f 477/494/494 481/496/496 480/495/495
f 481/496/496 482/497/497 480/495/495
f 485/498/498 482/497/497 481/496/496
f 483/499/499 485/498/498 481/496/496
f 481/496/496 484/450/450 483/499/499
f 479/493/493 484/450/450 481/496/496
f 489/500/500 491/501/501 485/498/498
f 485/498/498 491/501/501 486/502/502
f 486/502/502 487/503/503 485/498/498
f 485/498/498 487/503/503 488/504/504
f 488/504/504 482/497/497 485/498/498
f 483/499/499 490/505/505 489/500/500
f 489/500/500 485/498/498 483/499/499
f 489/500/500 492/506/506 491/501/501
f 490/505/505 492/506/506 489/500/500
f 493/447/447 501/507/507 490/505/505
f 490/505/505 501/507/507 492/506/506
f 490/505/505 439/446/446 493/447/447
f 494/448/448 439/446/446 490/505/505
f 483/499/499 440/449/449 494/448/448
f 494/448/448 490/505/505 483/499/499
f 403/404/404 486/502/502 495/508/508
f 495/508/508 497/409/409 403/404/404
f 495/508/508 486/502/502 491/501/501
f 491/501/501 496/509/509 495/508/508
f 420/429/429 404/405/405 497/409/409
f 497/409/409 425/430/430 420/429/429
f 424/433/433 425/430/430 497/409/409
f 497/409/409 495/508/508 424/433/433
f 498/408/408 404/405/405 420/429/429
f 416/425/425 405/406/406 498/408/408
f 498/408/408 421/426/426 416/425/425
f 420/429/429 421/426/426 498/408/408
f 499/407/407 405/406/406 416/425/425
f 413/420/420 400/401/401 499/407/407
f 499/407/407 417/422/422 413/420/420
f 416/425/425 417/422/422 499/407/407
f 500/400/400 400/401/401 413/420/420
f 408/411/411 394/395/395 500/400/400
f 500/400/400 414/419/419 408/411/411
f 413/420/420 414/419/419 500/400/400
f 424/433/433 495/508/508 496/509/509
f 496/509/509 429/434/434 424/433/433
f 428/437/437 429/434/434 496/509/509
f 496/509/509 492/506/506 428/437/437
f 428/437/437 492/506/506 501/507/507
f 501/507/507 433/438/438 428/437/437
f 432/441/441 433/438/438 501/507/507
f 501/507/507 493/447/447 432/441/441
f 492/506/506 496/509/509 491/501/501
f 484/450/450 479/493/493 502/453/453
f 502/453/453 479/493/493 503/510/510
f 503/510/510 479/493/493 504/466/466
f 504/466/466 479/493/493 505/465/465
f 479/493/493 476/463/463 505/465/465
f 445/458/458 503/510/510 504/466/466
f 502/453/453 503/510/510 445/458/458
f 484/450/450 440/449/449 483/499/499
f 488/504/504 487/503/503 396/399/399
f 480/495/495 482/497/497 488/504/504
f 488/504/504 506/511/511 480/495/495
f 398/397/397 506/511/511 488/504/504
f 488/504/504 397/398/398 398/397/397
f 396/399/399 397/398/398 488/504/504
f 507/512/512 506/511/511 398/397/397
f 480/495/495 506/511/511 507/512/512
f 398/397/397 508/513/513 507/512/512
f 507/512/512 478/491/491 480/495/495
f 478/491/491 507/512/512 472/476/476
f 472/476/476 507/512/512 508/513/513
f 395/393/393 508/513/513 398/397/397
f 395/393/393 509/490/490 508/513/513
f 393/392/392 509/490/490 395/393/393
f 406/414/414 510/485/485 393/392/392
f 471/487/487 470/488/488 393/392/392
f 393/392/392 470/488/488 509/490/490
f 393/392/392 510/485/485 471/487/487
f 508/513/513 473/474/474 472/476/476
f 509/490/490 473/474/474 508/513/513
f 396/399/399 487/503/503 486/502/502
f 486/502/502 403/404/404 396/399/399
f 472/476/476 475/477/477 478/491/491
f 453/469/469 474/492/492 475/477/477
f 476/463/463 474/492/492 453/469/469
f 409/413/413 468/486/486 510/485/485
f 510/485/485 406/414/414 409/413/413
f 461/480/480 460/475/475 473/474/474
f 475/477/477 456/470/470 453/469/469
f 453/469/469 452/464/464 476/463/463
f 504/466/466 448/459/459 445/458/458
f 445/458/458 443/454/454 502/453/453
f 441/452/452 442/451/451 444/456/456
f 444/456/456 511/514/514 441/452/452
f 441/452/452 511/514/514 437/443/443
f 437/443/443 436/445/445 441/452/452
f 512/421/421 517/515/515 514/516/516
f 514/516/516 513/418/418 512/421/421
f 514/516/516 515/517/517 516/415/415
f 516/415/415 513/418/418 514/516/516
f 516/415/415 515/517/517 519/518/518
f 519/518/518 518/519/519 516/415/415
f 519/518/518 520/520/520 521/521/521
f 521/521/521 518/519/519 519/518/518
f 522/522/522 523/523/523 521/521/521
f 521/521/521 520/520/520 522/522/522
f 525/524/524 526/525/525 524/526/526
f 524/526/526 537/527/527 525/524/524
f 522/522/522 537/527/527 524/526/526
f 524/526/526 523/523/523 522/522/522
f 531/528/528 535/529/529 529/530/530
f 529/530/530 535/529/529 532/531/531
f 532/531/531 530/532/532 529/530/530
f 529/530/530 528/533/533 531/528/528
f 532/531/531 533/534/534 534/535/535
f 534/535/535 530/532/532 532/531/531
f 525/524/524 536/536/536 527/537/537
f 527/537/537 536/536/536 531/528/528
f 538/538/538 539/539/539 534/535/535
f 534/535/535 533/534/534 538/538/538
f 541/540/540 542/541/541 540/542/542
f 540/542/542 553/543/543 541/540/540
f 538/538/538 553/543/543 540/542/542
f 540/542/542 539/539/539 538/538/538
f 547/544/544 551/545/545 545/546/546
f 545/546/546 551/545/545 548/547/547
f 548/547/547 546/548/548 545/546/546
f 545/546/546 544/549/549 547/544/544
f 548/547/547 549/550/550 550/551/551
f 550/551/551 546/548/548 548/547/547
f 541/540/540 552/552/552 543/553/553
f 543/553/553 552/552/552 547/544/544
f 554/554/554 555/555/555 550/551/551
f 550/551/551 549/550/550 554/554/554
f 557/556/556 558/557/557 556/558/558
f 556/558/558 565/559/559 557/556/556
f 554/554/554 565/559/559 556/558/558
f 556/558/558 555/555/555 554/554/554
f 562/560/560 561/561/561 559/562/562
f 560/563/563 561/561/561 562/560/560
f 562/560/560 563/564/564 560/563/563
f 559/562/562 564/565/565 562/560/560
f 557/556/556 564/565/565 559/562/562
f 560/563/563 563/564/564 566/566/566
f 566/566/566 567/567/567 569/568/568
f 566/566/566 568/569/569 560/563/563
f 569/568/568 568/569/569 566/566/566
f 570/570/570 571/571/571 569/568/568
f 569/568/568 567/567/567 570/570/570
f 572/572/572 573/573/573 574/574/574
f 574/574/574 575/575/575 572/572/572
f 577/576/576 576/577/577 574/574/574
f 574/574/574 573/573/573 577/576/576
f 570/570/570 576/577/577 577/576/576
f 577/576/576 571/571/571 570/570/570
f 559/562/562 558/557/557 557/556/556
f 547/544/544 544/549/549 543/553/553
f 543/553/553 542/541/541 541/540/540
f 531/528/528 528/533/533 527/537/537
f 527/537/537 526/525/525 525/524/524
f 393/392/392 407/410/410 406/414/414
f 394/395/395 407/410/410 393/392/392
