# Blender 5.1.2
# www.blender.org
mtllib l1.mtl
o l1
v -0.754887 -0.013888 0.562057
v -0.753155 -0.015216 0.565992
v -0.753069 -0.013219 0.560102
v -0.729575 -0.014190 0.580058
v -0.703184 -0.014001 0.593035
v -0.702637 -0.036755 0.623470
v -0.728232 -0.036671 0.610203
v -0.668136 -0.036803 0.634607
v -0.628471 -0.036804 0.642125
v -0.668633 -0.015080 0.605466
v -0.554046 -0.036932 0.641476
v -0.525267 -0.036915 0.635270
v -0.589923 -0.036866 0.644086
v -0.496326 -0.037015 0.626437
v -0.485730 -0.015312 0.592290
v -0.492198 -0.033483 0.619069
v -0.488287 -0.015000 0.593780
v -0.487568 -0.013679 0.590876
v -0.485783 -0.014127 0.590041
v -0.486941 -0.013217 0.587366
v -0.484637 -0.013966 0.587264
v -0.482461 -0.014189 0.576757
v -0.476393 -0.013214 0.536032
v -0.473927 -0.013994 0.535675
v -0.512224 -0.013217 0.543843
v -0.546273 -0.013217 0.549670
v -0.583474 -0.013217 0.552992
v -0.623219 -0.013217 0.552108
v -0.664901 -0.013217 0.545313
v -0.607824 -0.013217 0.608957
v -0.668010 -0.013320 0.601811
v -0.717054 -0.013217 0.582762
v -0.629215 -0.013963 0.611011
v -0.591055 -0.014083 0.612613
v -0.553651 -0.013960 0.609096
v -0.520848 -0.014116 0.602194
v -0.539683 -0.013217 0.602686
v -0.702139 -0.013217 0.534561
v -0.728553 -0.013217 0.521804
v -0.752653 -0.013217 0.506014
v -0.755336 -0.013913 0.559382
v -0.755085 -0.013988 0.504686
v -0.755290 -0.015296 0.563820
v -0.754274 -0.032745 0.586495
v -0.751777 -0.036652 0.594288
v -0.754035 -0.037974 0.593147
v -0.753575 -0.040770 0.595701
v -0.752312 -0.045165 0.598354
v -0.755088 -0.041672 0.593161
v -0.754035 -0.037974 0.593147
v -0.754288 -0.032640 0.586368
v -0.755731 -0.028109 0.576665
v -0.755288 -0.015313 0.563845
v -0.756088 -0.015679 0.561488
v -0.757011 -0.025618 0.559915
v -0.760569 -0.052520 0.538957
v -0.759713 -0.057590 0.569694
v -0.758779 -0.086522 0.593656
v -0.762034 -0.084175 0.565140
v -0.762512 -0.111334 0.557704
v -0.760283 -0.112867 0.578547
v -0.755421 -0.138988 0.587750
v -0.759157 -0.139630 0.563227
v -0.749976 -0.162603 0.580749
v -0.735095 -0.181904 0.590892
v -0.741552 -0.187342 0.566732
v -0.753004 -0.164322 0.566015
v -0.717952 -0.201053 0.587946
v -0.689231 -0.206010 0.610826
v -0.693516 -0.220205 0.576288
v -0.720851 -0.205711 0.573109
v -0.691622 -0.213747 0.593688
v -0.659127 -0.219953 0.600268
v -0.623124 -0.214419 0.622437
v -0.659882 -0.225814 0.585385
v -0.622944 -0.221777 0.606973
v -0.585550 -0.221325 0.613090
v -0.554477 -0.208822 0.633173
v -0.551242 -0.215943 0.618074
v -0.583670 -0.227489 0.598170
v -0.581643 -0.233681 0.578738
v -0.579543 -0.239887 0.557051
v -0.621878 -0.239168 0.550974
v -0.622476 -0.228674 0.589504
v -0.540731 -0.234778 0.562024
v -0.547583 -0.222941 0.600756
v -0.516698 -0.213627 0.587095
v -0.493058 -0.196317 0.566473
v -0.520798 -0.208155 0.606510
v -0.501738 -0.188675 0.606968
v -0.512307 -0.219246 0.565408
v -0.524315 -0.202978 0.621380
v -0.494008 -0.163753 0.618297
v -0.486835 -0.166882 0.587541
v -0.487182 -0.139032 0.609166
v -0.476120 -0.140161 0.560767
v -0.481771 -0.169017 0.564492
v -0.483360 -0.111728 0.599537
v -0.473780 -0.112563 0.556602
v -0.473266 -0.084067 0.551382
v -0.476928 -0.077269 0.567710
v -0.473095 -0.052513 0.544491
v -0.473086 -0.016327 0.536040
v -0.484502 -0.016459 0.590273
v -0.485665 -0.079908 0.606318
v -0.488910 -0.112563 0.619980
v -0.495395 -0.138385 0.637305
v -0.493211 -0.077890 0.631879
v -0.493713 -0.112563 0.635400
v -0.496780 -0.137950 0.639678
v -0.495164 -0.112598 0.637795
v -0.494743 -0.082069 0.634883
v -0.497667 -0.112700 0.639043
v -0.497085 -0.067598 0.634271
v -0.497460 -0.090813 0.637098
v -0.494638 -0.044399 0.629801
v -0.497094 -0.045133 0.631269
v -0.496817 -0.040481 0.629746
v -0.494579 -0.040067 0.627855
v -0.492973 -0.041627 0.626339
v -0.493838 -0.038271 0.626017
v -0.492230 -0.033581 0.619215
v -0.485809 -0.015580 0.592699
v -0.485643 -0.014041 0.590085
v -0.482495 -0.014197 0.576912
v -0.473927 -0.013994 0.535675
v -0.525609 -0.044976 0.639944
v -0.525492 -0.040451 0.638594
v -0.554419 -0.040450 0.644759
v -0.589927 -0.045088 0.648523
v -0.589924 -0.040444 0.647293
v -0.628874 -0.040436 0.645261
v -0.668121 -0.045094 0.638795
v -0.668132 -0.040430 0.637730
v -0.702911 -0.040418 0.626475
v -0.728583 -0.044972 0.614189
v -0.728423 -0.040392 0.613273
v -0.702825 -0.044912 0.627472
v -0.731730 -0.078220 0.613018
v -0.702583 -0.083196 0.627207
v -0.667218 -0.078755 0.639098
v -0.629672 -0.045172 0.646302
v -0.629496 -0.083089 0.646897
v -0.666153 -0.116519 0.636555
v -0.626548 -0.146437 0.641403
v -0.698035 -0.145172 0.622429
v -0.700984 -0.116084 0.625206
v -0.627742 -0.116372 0.645146
v -0.664041 -0.146452 0.632893
v -0.661401 -0.176011 0.626971
v -0.693896 -0.172888 0.618243
v -0.690817 -0.201752 0.612394
v -0.625125 -0.176719 0.634800
v -0.623090 -0.209745 0.626209
v -0.658192 -0.208393 0.619204
v -0.623304 -0.212691 0.624686
v -0.713686 -0.194682 0.605023
v -0.712470 -0.191789 0.607300
v -0.657990 -0.211814 0.617284
v -0.587932 -0.212924 0.630089
v -0.555608 -0.206584 0.636118
v -0.530377 -0.193109 0.640263
v -0.588170 -0.209486 0.632013
v -0.528549 -0.195933 0.638452
v -0.510057 -0.179347 0.640504
v -0.507593 -0.182301 0.631594
v -0.499383 -0.160565 0.638470
v -0.500696 -0.160023 0.640823
v -0.503206 -0.159249 0.642036
v -0.517040 -0.174986 0.641978
v -0.512309 -0.177533 0.641895
v -0.507694 -0.138634 0.642331
v -0.499251 -0.137876 0.640863
v -0.526102 -0.113993 0.645388
v -0.527025 -0.141030 0.645551
v -0.529049 -0.166333 0.643671
v -0.555528 -0.172662 0.643433
v -0.554943 -0.143770 0.647812
v -0.556002 -0.195114 0.638856
v -0.588694 -0.175863 0.640381
v -0.589150 -0.145557 0.646403
v -0.589564 -0.115852 0.649229
v -0.554669 -0.115034 0.649182
v -0.555061 -0.085652 0.648744
v -0.524376 -0.075641 0.642731
v -0.588486 -0.077486 0.649960
v -0.555452 -0.045210 0.646210
v -0.730129 -0.177025 0.602955
v -0.731828 -0.178836 0.601091
v -0.745619 -0.159859 0.597868
v -0.742700 -0.159250 0.600613
v -0.749850 -0.140573 0.599486
v -0.753413 -0.138427 0.596949
v -0.758052 -0.112867 0.593967
v -0.757036 -0.112914 0.596644
v -0.754883 -0.113054 0.598519
v -0.755461 -0.090553 0.598540
v -0.757837 -0.087927 0.596422
v -0.757641 -0.066068 0.593639
v -0.756484 -0.069305 0.597067
v -0.754311 -0.044369 0.596331
v -0.751974 -0.040410 0.597388
v -0.728419 -0.114860 0.612852
v -0.724938 -0.142170 0.611566
v -0.718986 -0.166495 0.609961
v -0.660429 -0.231548 0.565966
v -0.695648 -0.230509 0.537711
v -0.660871 -0.237218 0.544279
v -0.725336 -0.215517 0.532017
v -0.723224 -0.210565 0.553704
v -0.747054 -0.194129 0.527623
v -0.755578 -0.166231 0.546645
v -0.757923 -0.168236 0.524957
v -0.762278 -0.140320 0.523525
v -0.764451 -0.112867 0.522832
v -0.764145 -0.084168 0.520470
v -0.761061 -0.052515 0.514034
v -0.756230 -0.016300 0.504771
v -0.755085 -0.013988 0.504686
v -0.755288 -0.013968 0.549258
v -0.755018 -0.013969 0.562075
vn -0.3240 0.8955 0.3050
vn -0.4181 0.7639 0.4917
vn -0.2426 0.8839 0.3997
vn -0.1225 0.9644 0.2343
vn -0.2357 0.9664 0.1021
vn -0.5182 0.6251 0.5837
vn -0.2743 0.6977 0.6618
vn -0.1592 0.9043 0.3960
vn -0.3779 0.6724 0.6364
vn -0.1721 0.7166 0.6759
vn -0.1303 0.8491 0.5119
vn -0.0769 0.7334 0.6755
vn -0.0499 0.9186 0.3920
vn 0.0120 0.9154 0.4023
vn 0.0089 0.7422 0.6701
vn 0.0974 0.7424 0.6628
vn 0.0577 0.9242 0.3774
vn 0.1700 0.7386 0.6523
vn 0.1065 0.9102 0.4002
vn 0.3586 0.6856 0.6335
vn 0.2814 0.8078 0.5180
vn 0.7072 0.4893 0.5104
vn 0.6669 0.6117 0.4254
vn 0.5226 0.7884 0.3244
vn 0.2283 0.9229 0.3100
vn 0.2500 0.9582 0.1390
vn 0.6534 0.7307 0.1978
vn 0.7265 0.6712 0.1473
vn 0.3161 0.9461 0.0708
vn 0.6934 0.7043 0.1521
vn -0.0000 1.0000 -0.0000
vn -0.0019 1.0000 0.0017
vn -0.0993 0.9096 0.4035
vn -0.0051 0.9678 0.2518
vn 0.0504 0.9752 0.2154
vn -0.0001 1.0000 -0.0000
vn 0.0014 1.0000 0.0019
vn -0.6604 0.7509 -0.0033
vn -0.6444 0.7634 0.0450
vn -0.2681 0.9628 0.0341
vn -0.7391 0.5560 0.3803
vn -0.7889 0.4689 0.3971
vn -0.7803 0.4241 0.4596
vn -0.7482 0.3240 0.5789
vn -0.6123 0.3782 0.6943
vn -0.6166 0.1285 0.7767
vn -0.8147 0.1720 0.5538
vn -0.9404 0.1864 0.2844
vn -0.7804 0.4241 0.4596
vn -0.7853 0.4714 0.4014
vn -0.9600 0.2045 0.1915
vn -0.7437 0.5395 0.3947
vn -0.9428 0.3210 0.0898
vn -0.9930 0.0908 0.0756
vn -0.9942 0.1033 0.0289
vn -0.9925 0.0869 0.0858
vn -0.9961 0.0375 0.0801
vn -0.9736 0.0232 0.2271
vn -0.9650 0.0757 0.2512
vn -0.9959 -0.0450 0.0783
vn -0.9896 -0.0683 0.1269
vn -0.9657 -0.0820 0.2463
vn -0.9555 -0.2274 0.1881
vn -0.9775 -0.1672 0.1286
vn -0.8970 -0.3620 0.2538
vn -0.7427 -0.5717 0.3487
vn -0.7820 -0.3402 0.5222
vn -0.9254 -0.3262 0.1928
vn -0.7894 -0.5583 0.2550
vn -0.5720 -0.7306 0.3728
vn -0.5147 -0.6113 0.6012
vn -0.5839 -0.7531 0.3032
vn -0.3605 -0.8471 0.3904
vn -0.3420 -0.6773 0.6514
vn -0.3584 -0.8809 0.3093
vn -0.1851 -0.8983 0.3985
vn -0.2136 -0.7216 0.6586
vn -0.0873 -0.9133 0.3977
vn -0.1068 -0.8506 0.5149
vn -0.1748 -0.9285 0.3276
vn -0.0745 -0.9450 0.3186
vn 0.0123 -0.9116 0.4110
vn 0.0210 -0.9380 0.3459
vn 0.2441 -0.9020 0.3561
vn 0.2182 -0.8807 0.4204
vn 0.1824 -0.8269 0.5319
vn -0.0465 -0.7314 0.6804
vn 0.0244 -0.9569 0.2896
vn -0.0712 -0.9621 0.2632
vn 0.0220 -0.9607 0.2766
vn 0.2593 -0.9139 0.3124
vn 0.5668 -0.7608 0.3162
vn 0.5783 -0.7557 0.3074
vn 0.8183 -0.5062 0.2724
vn 0.7865 -0.5363 0.3061
vn 0.5370 -0.7648 0.3560
vn 0.4978 -0.7670 0.4050
vn 0.9164 -0.2863 0.2797
vn 0.7460 -0.5630 0.3556
vn 0.9324 -0.2699 0.2402
vn 0.9614 -0.1087 0.2529
vn 0.9690 -0.1065 0.2229
vn 0.9353 -0.2652 0.2345
vn 0.9714 -0.0147 0.2371
vn 0.9759 -0.0163 0.2176
vn 0.9773 0.0265 0.2101
vn 0.9765 0.0307 0.2133
vn 0.9761 0.0459 0.2125
vn 0.9548 0.2263 0.1927
vn 0.9297 0.2523 0.2681
vn 0.8905 0.1613 0.4255
vn 0.9674 0.0295 0.2515
vn 0.9605 -0.0146 0.2780
vn 0.9106 -0.0001 0.4132
vn 0.9120 -0.0901 0.4002
vn 0.9129 0.0469 0.4055
vn 0.6699 0.0773 0.7384
vn 0.6745 -0.0326 0.7376
vn 0.6779 0.0358 0.7343
vn 0.3273 0.0609 0.9430
vn 0.3562 0.0833 0.9307
vn 0.3736 0.1215 0.9196
vn 0.6606 0.2113 0.7204
vn 0.3774 0.2015 0.9038
vn 0.6656 0.4480 0.5969
vn 0.4127 0.4283 0.8039
vn 0.6530 0.4747 0.5901
vn 0.6961 0.5049 0.5105
vn 0.6766 0.5572 0.4814
vn 0.5921 0.7455 0.3061
vn 0.6874 0.7124 0.1414
vn 0.6903 0.7091 0.1436
vn 0.2441 0.1830 0.9523
vn 0.2210 0.4803 0.8488
vn 0.1255 0.4789 0.8688
vn 0.1231 0.1663 0.9784
vn 0.0057 0.1510 0.9885
vn 0.0081 0.4749 0.8800
vn -0.1056 0.4580 0.8826
vn -0.2235 0.4413 0.8691
vn -0.1312 0.1254 0.9834
vn -0.2477 0.1111 0.9625
vn -0.3512 0.4190 0.8373
vn -0.5043 0.1054 0.8571
vn -0.3829 0.0980 0.9186
vn -0.4674 0.4011 0.7878
vn -0.4875 -0.0094 0.8731
vn -0.2595 -0.0333 0.9652
vn -0.3769 -0.0413 0.9253
vn -0.1454 -0.0221 0.9891
vn -0.2617 -0.1001 0.9599
vn -0.1603 -0.0883 0.9831
vn -0.3597 -0.0948 0.9283
vn -0.2547 -0.1686 0.9522
vn -0.1707 -0.1661 0.9712
vn -0.3382 -0.1530 0.9285
vn -0.2409 -0.2248 0.9442
vn -0.3122 -0.2017 0.9284
vn -0.3260 -0.3362 0.8836
vn -0.2235 -0.3757 0.8994
vn -0.1751 -0.2303 0.9572
vn -0.1771 -0.3503 0.9197
vn -0.1502 -0.6281 0.7635
vn -0.3920 -0.3095 0.8663
vn 0.0424 -0.5393 0.8410
vn 0.3598 -0.6416 0.6774
vn 0.0861 -0.2893 0.9533
vn -0.1113 -0.3680 0.9231
vn 0.5538 -0.4678 0.6888
vn 0.8669 -0.2782 0.4136
vn 0.6333 -0.1898 0.7502
vn 0.2507 -0.0554 0.9665
vn 0.1843 -0.1899 0.9643
vn 0.3012 0.0180 0.9534
vn 0.0238 -0.0927 0.9954
vn 0.1591 0.0075 0.9872
vn 0.1693 0.0250 0.9852
vn 0.0618 -0.1092 0.9921
vn 0.1195 -0.0419 0.9920
vn -0.0537 -0.2098 0.9763
vn 0.0239 -0.0966 0.9950
vn -0.0203 -0.1690 0.9854
vn -0.1047 -0.2129 0.9715
vn -0.0802 -0.1409 0.9868
vn -0.0524 -0.0558 0.9971
vn -0.0082 0.0156 0.9998
vn 0.0976 0.0364 0.9946
vn 0.0643 -0.0171 0.9978
vn 0.2202 0.0799 0.9722
vn -0.4727 -0.2511 0.8447
vn -0.6480 -0.4668 0.6018
vn -0.5175 -0.2017 0.8316
vn -0.5519 -0.1380 0.8224
vn -0.8266 -0.1862 0.5310
vn -0.8191 -0.0644 0.5701
vn -0.5714 -0.0414 0.8196
vn -0.5932 -0.0105 0.8050
vn -0.8296 0.0088 0.5583
vn -0.7647 0.0557 0.6420
vn -0.4430 -0.0720 0.8936
vn -0.4102 -0.1263 0.9032
vn -0.3809 -0.1760 0.9077
vn -0.1643 -0.9497 0.2667
vn -0.3547 -0.8996 0.2545
vn -0.1616 -0.9539 0.2530
vn -0.5912 -0.7687 0.2441
vn -0.5942 -0.7706 0.2305
vn -0.8189 -0.5395 0.1958
vn -0.9445 -0.2966 0.1410
vn -0.9518 -0.2780 0.1292
vn -0.9886 -0.1253 0.0838
vn -0.9976 -0.0388 0.0582
vn -0.9977 0.0522 0.0430
vn -0.9936 0.1107 0.0205
vn -0.9553 0.2956 0.0066
vn -0.6462 0.7631 -0.0026
vn -0.6643 0.7474 -0.0046
vn -0.6007 0.7637 0.2366
vt 0.206782 0.790140
vt 0.204462 0.792250
vt 0.202605 0.807180
vt 0.204204 0.814142
vt 0.208145 0.791423
vt 0.183380 0.796391
vt 0.181249 0.827135
vt 0.200819 0.822961
vt 0.182188 0.811735
vt 0.180989 0.846459
vt 0.199367 0.843457
vt 0.181029 0.867550
vt 0.200674 0.865708
vt 0.200966 0.887625
vt 0.181130 0.888221
vt 0.181385 0.907267
vt 0.202246 0.908088
vt 0.181881 0.923479
vt 0.204058 0.926150
vt 0.182328 0.940187
vt 0.205725 0.944481
vt 0.187666 0.942838
vt 0.206115 0.946195
vt 0.208039 0.946615
vt 0.207628 0.944896
vt 0.209645 0.945345
vt 0.210213 0.947161
vt 0.215967 0.948758
vt 0.237263 0.953015
vt 0.234309 0.953500
vt 0.232608 0.889544
vt 0.231747 0.864837
vt 0.203194 0.877357
vt 0.231055 0.838782
vt 0.201530 0.843140
vt 0.205448 0.915612
vt 0.235291 0.932382
vt 0.233752 0.912269
vt 0.231352 0.815313
vt 0.233455 0.798363
vt 0.236974 0.782742
vt 0.233953 0.782340
vt 0.208589 0.789668
vt 0.204994 0.790529
vt 0.188676 0.793651
vt 0.183403 0.794529
vt 0.181031 0.794193
vt 0.180095 0.796697
vt 0.176847 0.796520
vt 0.177005 0.794537
vt 0.178111 0.792322
vt 0.180945 0.792193
vt 0.182988 0.787875
vt 0.184264 0.782543
vt 0.190423 0.774837
vt 0.189955 0.773442
vt 0.184460 0.772874
vt 0.167900 0.762112
vt 0.167923 0.779044
vt 0.151519 0.777328
vt 0.152411 0.792479
vt 0.164317 0.792251
vt 0.134657 0.775447
vt 0.137057 0.786186
vt 0.138747 0.794093
vt 0.124116 0.793758
vt 0.120184 0.781567
vt 0.110081 0.794919
vt 0.101404 0.806246
vt 0.114108 0.803162
vt 0.106600 0.787917
vt 0.093557 0.795718
vt 0.089589 0.814434
vt 0.096829 0.820603
vt 0.083482 0.809094
vt 0.082535 0.829180
vt 0.091176 0.833661
vt 0.074103 0.824482
vt 0.078558 0.847138
vt 0.087994 0.850003
vt 0.077355 0.866987
vt 0.086190 0.868029
vt 0.070619 0.844487
vt 0.067644 0.865672
vt 0.078627 0.887406
vt 0.070336 0.888236
vt 0.073572 0.909137
vt 0.082719 0.906040
vt 0.090761 0.903233
vt 0.088372 0.886347
vt 0.059814 0.889095
vt 0.047053 0.862460
vt 0.048177 0.889969
vt 0.053569 0.915645
vt 0.073928 0.929794
vt 0.063899 0.935660
vt 0.077893 0.951341
vt 0.093310 0.936840
vt 0.082954 0.924545
vt 0.089975 0.920531
vt 0.109224 0.940619
vt 0.102875 0.928350
vt 0.100676 0.953923
vt 0.120695 0.949817
vt 0.111616 0.973721
vt 0.094279 0.964009
vt 0.134289 0.957923
vt 0.128461 0.980533
vt 0.145581 0.985943
vt 0.153128 0.972875
vt 0.163741 0.991445
vt 0.184066 0.997520
vt 0.187880 0.966712
vt 0.176985 0.944490
vt 0.154026 0.955633
vt 0.136933 0.947057
vt 0.138729 0.938802
vt 0.125695 0.935836
vt 0.156443 0.941789
vt 0.155146 0.939707
vt 0.126103 0.934354
vt 0.138995 0.937208
vt 0.139221 0.935609
vt 0.152228 0.937491
vt 0.163086 0.938979
vt 0.176016 0.941810
vt 0.175978 0.939756
vt 0.180679 0.942372
vt 0.179164 0.939846
vt 0.179660 0.944660
vt 0.181292 0.949136
vt 0.188546 0.965038
vt 0.189183 0.967050
vt 0.188478 0.975169
vt 0.185703 0.994609
vt 0.176173 0.923235
vt 0.178996 0.923247
vt 0.178676 0.907160
vt 0.175889 0.907165
vt 0.175841 0.888268
vt 0.178490 0.888247
vt 0.178407 0.867717
vt 0.178394 0.846776
vt 0.175732 0.867750
vt 0.175767 0.846817
vt 0.178637 0.827538
vt 0.176505 0.812023
vt 0.176044 0.827551
vt 0.179323 0.812116
vt 0.158495 0.811440
vt 0.158585 0.846632
vt 0.156149 0.827284
vt 0.156455 0.867556
vt 0.139152 0.847230
vt 0.139427 0.867579
vt 0.139028 0.828312
vt 0.123506 0.848066
vt 0.123781 0.867703
vt 0.123791 0.829875
vt 0.107703 0.849020
vt 0.109110 0.831835
vt 0.093791 0.833930
vt 0.090183 0.850148
vt 0.107567 0.867885
vt 0.089626 0.868151
vt 0.087782 0.868151
vt 0.098662 0.821513
vt 0.092746 0.902682
vt 0.098169 0.915882
vt 0.099975 0.914985
vt 0.090556 0.886228
vt 0.106425 0.925141
vt 0.114813 0.932031
vt 0.115529 0.930749
vt 0.116152 0.929336
vt 0.107594 0.923916
vt 0.126426 0.932852
vt 0.108848 0.921896
vt 0.126485 0.928545
vt 0.139863 0.920527
vt 0.113386 0.916561
vt 0.126103 0.918649
vt 0.098829 0.902587
vt 0.125408 0.904375
vt 0.110490 0.903310
vt 0.108523 0.886533
vt 0.124524 0.886932
vt 0.139831 0.887437
vt 0.159341 0.888031
vt 0.155032 0.906546
vt 0.140073 0.905515
vt 0.159778 0.922513
vt 0.106008 0.812012
vt 0.104856 0.810802
vt 0.114974 0.805105
vt 0.125806 0.800930
vt 0.125543 0.798461
vt 0.139005 0.795670
vt 0.139140 0.797259
vt 0.152543 0.796050
vt 0.152425 0.794214
vt 0.163716 0.794512
vt 0.139078 0.812746
vt 0.124727 0.814979
vt 0.111970 0.818230
vt 0.060595 0.840940
vt 0.055997 0.814107
vt 0.049528 0.836945
vt 0.075608 0.802240
vt 0.066851 0.794629
vt 0.080849 0.779243
vt 0.101962 0.778823
vt 0.096747 0.768684
vt 0.113615 0.761802
vt 0.130525 0.757448
vt 0.147913 0.753716
vt 0.166215 0.748696
vt 0.186621 0.742493
vt 0.188206 0.745586
vt 0.190637 0.766068
vt 0.191065 0.773281
s 1
usemtl 1001
f 1/1/1 2/2/2 4/3/3
f 1/1/1 32/4/4 3/5/5
f 1/1/1 4/3/3 32/4/4
f 4/3/3 2/2/2 45/6/6
f 6/7/7 5/8/8 4/3/3
f 45/6/6 7/9/9 4/3/3
f 4/3/3 7/9/9 6/7/7
f 6/7/7 8/10/10 10/11/11
f 10/11/11 5/8/8 6/7/7
f 10/11/11 8/10/10 9/12/12
f 9/12/12 33/13/13 10/11/11
f 34/14/14 13/15/15 11/16/16
f 9/12/12 13/15/15 34/14/14
f 34/14/14 33/13/13 9/12/12
f 11/16/16 35/17/17 34/14/14
f 11/16/16 12/18/18 36/19/19
f 36/19/19 35/17/17 11/16/16
f 36/19/19 12/18/18 14/20/20
f 36/19/19 14/20/20 17/21/21
f 14/20/20 16/22/22 15/23/23
f 15/23/23 17/21/21 14/20/20
f 17/21/21 15/23/23 19/24/24
f 19/24/24 18/25/25 17/21/21
f 20/26/26 18/25/25 19/24/24
f 19/24/24 21/27/27 20/26/26
f 20/26/26 21/27/27 22/28/28
f 23/29/29 20/26/26 22/28/28
f 23/29/29 22/28/28 24/30/30
s 0
f 27/31/31 28/32/31 30/33/31
f 30/33/31 28/32/31 29/34/31
f 29/34/32 31/35/32 30/33/32
s 1
f 31/35/33 32/4/4 5/8/8
f 33/13/13 30/33/34 31/35/33
f 10/11/11 31/35/33 5/8/8
f 33/13/13 31/35/33 10/11/11
f 33/13/13 34/14/14 30/33/34
f 30/33/34 34/14/14 35/17/17
f 35/17/17 37/36/35 30/33/34
f 35/17/17 36/19/19 37/36/35
f 36/19/19 17/21/21 18/25/25
f 37/36/35 36/19/19 18/25/25
f 18/25/25 20/26/26 37/36/35
s 0
f 20/26/36 23/29/36 25/37/36
f 25/37/31 37/36/31 20/26/31
f 27/31/31 30/33/31 37/36/31
f 25/37/31 26/38/31 37/36/31
f 37/36/31 26/38/31 27/31/31
f 32/4/37 31/35/37 29/34/37
f 29/34/31 38/39/31 32/4/31
f 38/39/31 39/40/31 32/4/31
f 32/4/31 39/40/31 40/41/31
f 40/41/31 3/5/31 32/4/31
s 1
f 42/42/38 41/43/39 3/5/5
f 3/5/5 40/41/40 42/42/38
f 3/5/5 41/43/39 1/1/1
f 1/1/1 43/44/41 2/2/2
f 43/44/41 44/45/42 2/2/2
f 44/45/42 46/46/43 45/6/6
f 44/45/42 45/6/6 2/2/2
f 45/6/6 46/46/43 47/47/44
f 47/47/44 202/48/45 45/6/6
f 48/49/46 202/48/45 47/47/44
f 47/47/44 201/50/47 48/49/46
f 49/51/48 201/50/47 47/47/44
f 47/47/44 50/52/49 49/51/48
f 49/51/48 50/52/49 51/53/50
f 52/54/51 49/51/48 51/53/50
f 52/54/51 51/53/50 53/55/52
f 53/55/52 54/56/53 52/54/51
f 52/54/51 54/56/53 55/57/54
f 55/57/54 54/56/53 56/58/55
f 57/59/56 52/54/51 55/57/54
f 56/58/55 57/59/56 55/57/54
f 57/59/56 59/60/57 58/61/58
f 58/61/58 199/62/59 57/59/56
f 57/59/56 199/62/59 49/51/48
f 49/51/48 52/54/51 57/59/56
f 59/60/57 57/59/56 56/58/55
f 59/60/57 60/63/60 61/64/61
f 61/64/61 194/65/62 58/61/58
f 58/61/58 59/60/57 61/64/61
f 62/66/63 194/65/62 61/64/61
f 61/64/61 60/63/60 63/67/64
f 63/67/64 62/66/63 61/64/61
f 64/68/65 62/66/63 63/67/64
f 65/69/66 190/70/67 64/68/65
f 64/68/65 67/71/68 66/72/69
f 66/72/69 65/69/66 64/68/65
f 63/67/64 67/71/68 64/68/65
f 64/68/65 190/70/67 62/66/63
f 68/73/70 65/69/66 66/72/69
f 68/73/70 157/74/71 65/69/66
f 66/72/69 71/75/72 68/73/70
f 68/73/70 72/76/73 69/77/74
f 69/77/74 157/74/71 68/73/70
f 68/73/70 71/75/72 70/78/75
f 70/78/75 72/76/73 68/73/70
f 69/77/74 72/76/73 73/79/76
f 73/79/76 72/76/73 70/78/75
f 73/79/76 159/80/77 69/77/74
f 73/79/76 76/81/78 74/82/79
f 74/82/79 159/80/77 73/79/76
f 70/78/75 75/83/80 73/79/76
f 73/79/76 75/83/80 84/84/81
f 84/84/81 76/81/78 73/79/76
f 74/82/79 76/81/78 77/85/82
f 77/85/82 76/81/78 84/84/81
f 77/85/82 80/86/83 86/87/84
f 86/87/84 79/88/85 77/85/82
f 77/85/82 79/88/85 78/89/86
f 78/89/86 160/90/87 77/85/82
f 77/85/82 160/90/87 74/82/79
f 84/84/81 80/86/83 77/85/82
f 86/87/84 80/86/83 81/91/88
f 81/91/88 80/86/83 84/84/81
f 83/92/89 82/93/90 81/91/88
f 81/91/88 82/93/90 85/94/91
f 81/91/88 84/84/81 83/92/89
f 85/94/91 86/87/84 81/91/88
f 87/95/92 86/87/84 85/94/91
f 87/95/92 91/96/93 88/97/94
f 88/97/94 90/98/95 87/95/92
f 87/95/92 89/99/96 86/87/84
f 90/98/95 89/99/96 87/95/92
f 85/94/91 91/96/93 87/95/92
f 92/100/97 89/99/96 90/98/95
f 93/101/98 166/102/99 90/98/95
f 90/98/95 166/102/99 92/100/97
f 94/103/100 93/101/98 90/98/95
f 95/104/101 93/101/98 94/103/100
f 96/105/102 95/104/101 94/103/100
f 94/103/100 97/106/103 96/105/102
f 88/97/94 97/106/103 94/103/100
f 94/103/100 90/98/95 88/97/94
f 98/107/104 95/104/101 96/105/102
f 96/105/102 99/108/105 98/107/104
f 98/107/104 99/108/105 100/109/106
f 100/109/106 101/110/107 98/107/104
f 100/109/106 102/111/108 101/110/107
f 101/110/107 102/111/108 103/112/109
f 103/112/109 104/113/110 101/110/107
f 104/113/110 120/114/111 105/115/112
f 104/113/110 105/115/112 101/110/107
f 106/116/113 98/107/104 105/115/112
f 98/107/104 101/110/107 105/115/112
f 95/104/101 98/107/104 106/116/113
f 106/116/113 109/117/114 107/118/115
f 107/118/115 95/104/101 106/116/113
f 106/116/113 105/115/112 108/119/116
f 108/119/116 109/117/114 106/116/113
f 109/117/114 108/119/116 112/120/117
f 110/121/118 107/118/115 109/117/114
f 109/117/114 111/122/119 110/121/118
f 112/120/117 111/122/119 109/117/114
f 113/123/120 111/122/119 112/120/117
f 112/120/117 115/124/121 113/123/120
f 114/125/122 115/124/121 112/120/117
f 114/125/122 112/120/117 116/126/123
f 116/126/123 117/127/124 114/125/122
f 117/127/124 116/126/123 119/128/125
f 119/128/125 118/129/126 117/127/124
f 14/20/20 118/129/126 119/128/125
f 120/114/111 121/130/127 119/128/125
f 119/128/125 116/126/123 120/114/111
f 122/131/128 121/130/127 120/114/111
f 123/132/129 122/131/128 120/114/111
f 120/114/111 104/113/110 123/132/129
f 124/133/130 123/132/129 104/113/110
f 125/134/131 124/133/130 104/113/110
f 126/135/132 125/134/131 104/113/110
f 104/113/110 103/112/109 126/135/132
f 120/114/111 108/119/116 105/115/112
f 108/119/116 120/114/111 116/126/123
f 14/20/20 119/128/125 16/22/22
f 127/136/133 117/127/124 118/129/126
f 118/129/126 14/20/20 12/18/18
f 118/129/126 128/137/134 127/136/133
f 12/18/18 128/137/134 118/129/126
f 127/136/133 128/137/134 129/138/135
f 129/138/135 128/137/134 12/18/18
f 129/138/135 187/139/136 127/136/133
f 130/140/137 187/139/136 129/138/135
f 12/18/18 11/16/16 129/138/135
f 129/138/135 11/16/16 13/15/15
f 129/138/135 131/141/138 130/140/137
f 13/15/15 131/141/138 129/138/135
f 132/142/139 131/141/138 13/15/15
f 130/140/137 131/141/138 132/142/139
f 8/10/10 134/143/140 132/142/139
f 132/142/139 9/12/12 8/10/10
f 13/15/15 9/12/12 132/142/139
f 132/142/139 142/144/141 130/140/137
f 133/145/142 142/144/141 132/142/139
f 132/142/139 134/143/140 133/145/142
f 135/146/143 134/143/140 8/10/10
f 133/145/142 134/143/140 135/146/143
f 136/147/144 138/148/145 135/146/143
f 135/146/143 137/149/146 136/147/144
f 7/9/9 137/149/146 135/146/143
f 135/146/143 6/7/7 7/9/9
f 8/10/10 6/7/7 135/146/143
f 135/146/143 138/148/145 133/145/142
f 138/148/145 136/147/144 139/150/147
f 141/151/148 133/145/142 138/148/145
f 139/150/147 140/152/149 138/148/145
f 138/148/145 140/152/149 141/151/148
f 141/151/148 143/153/150 142/144/141
f 142/144/141 133/145/142 141/151/148
f 143/153/150 141/151/148 144/154/151
f 144/154/151 141/151/148 140/152/149
f 144/154/151 148/155/152 143/153/150
f 140/152/149 147/156/153 144/154/151
f 144/154/151 149/157/154 145/158/155
f 145/158/155 148/155/152 144/154/151
f 144/154/151 147/156/153 146/159/156
f 146/159/156 149/157/154 144/154/151
f 145/158/155 149/157/154 150/160/157
f 150/160/157 149/157/154 146/159/156
f 146/159/156 151/161/158 150/160/157
f 150/160/157 151/161/158 152/162/159
f 152/162/159 155/163/160 150/160/157
f 150/160/157 153/164/161 145/158/155
f 154/165/162 153/164/161 150/160/157
f 150/160/157 155/163/160 154/165/162
f 156/166/163 154/165/162 155/163/160
f 155/163/160 152/162/159 69/77/74
f 155/163/160 159/80/77 156/166/163
f 69/77/74 159/80/77 155/163/160
f 158/167/164 157/74/71 69/77/74
f 69/77/74 152/162/159 158/167/164
f 159/80/77 74/82/79 156/166/163
f 156/166/163 74/82/79 160/90/87
f 160/90/87 78/89/86 161/168/165
f 161/168/165 78/89/86 164/169/166
f 161/168/165 164/169/166 162/170/167
f 163/171/168 160/90/87 161/168/165
f 166/102/99 165/172/169 164/169/166
f 92/100/97 164/169/166 78/89/86
f 166/102/99 164/169/166 92/100/97
f 167/173/170 165/172/169 166/102/99
f 93/101/98 167/173/170 166/102/99
f 107/118/115 167/173/170 93/101/98
f 167/173/170 107/118/115 110/121/118
f 110/121/118 168/174/171 167/173/170
f 167/173/170 168/174/171 165/172/169
f 165/172/169 168/174/171 169/175/172
f 169/175/172 168/174/171 110/121/118
f 169/175/172 171/176/173 165/172/169
f 110/121/118 173/177/174 169/175/172
f 170/178/175 171/176/173 169/175/172
f 169/175/172 173/177/174 172/179/176
f 113/123/120 173/177/174 110/121/118
f 172/179/176 173/177/174 113/123/120
f 172/179/176 113/123/120 174/180/177
f 176/181/178 169/175/172 172/179/176
f 174/180/177 175/182/179 172/179/176
f 172/179/176 175/182/179 176/181/178
f 179/183/180 162/170/167 176/181/178
f 176/181/178 162/170/167 170/178/175
f 176/181/178 175/182/179 178/184/181
f 170/178/175 169/175/172 176/181/178
f 178/184/181 177/185/182 176/181/178
f 176/181/178 177/185/182 179/183/180
f 179/183/180 161/168/165 162/170/167
f 163/171/168 161/168/165 179/183/180
f 180/186/183 163/171/168 179/183/180
f 179/183/180 177/185/182 180/186/183
f 154/165/162 163/171/168 180/186/183
f 145/158/155 153/164/161 180/186/183
f 180/186/183 153/164/161 154/165/162
f 180/186/183 181/187/184 145/158/155
f 178/184/181 181/187/184 180/186/183
f 180/186/183 177/185/182 178/184/181
f 182/188/185 181/187/184 178/184/181
f 145/158/155 181/187/184 182/188/185
f 182/188/185 148/155/152 145/158/155
f 143/153/150 148/155/152 182/188/185
f 182/188/185 186/189/186 143/153/150
f 184/190/187 186/189/186 182/188/185
f 178/184/181 183/191/188 182/188/185
f 182/188/185 183/191/188 184/190/187
f 174/180/177 185/192/189 184/190/187
f 184/190/187 183/191/188 174/180/177
f 142/144/141 143/153/150 186/189/186
f 186/189/186 130/140/137 142/144/141
f 186/189/186 184/190/187 187/139/136
f 187/139/136 130/140/137 186/189/186
f 185/192/189 127/136/133 187/139/136
f 187/139/136 184/190/187 185/192/189
f 117/127/124 127/136/133 185/192/189
f 185/192/189 114/125/122 117/127/124
f 115/124/121 114/125/122 185/192/189
f 115/124/121 185/192/189 174/180/177
f 174/180/177 183/191/188 178/184/181
f 178/184/181 175/182/179 174/180/177
f 174/180/177 113/123/120 115/124/121
f 165/172/169 171/176/173 162/170/167
f 162/170/167 171/176/173 170/178/175
f 162/170/167 164/169/166 165/172/169
f 163/171/168 154/165/162 156/166/163
f 156/166/163 160/90/87 163/171/168
f 158/167/164 188/193/190 189/194/191
f 189/194/191 157/74/71 158/167/164
f 191/195/192 190/70/67 189/194/191
f 189/194/191 188/193/190 191/195/192
f 191/195/192 192/196/193 193/197/194
f 193/197/194 190/70/67 191/195/192
f 193/197/194 195/198/195 194/65/62
f 196/199/196 195/198/195 193/197/194
f 193/197/194 192/196/193 196/199/196
f 196/199/196 197/200/197 198/201/198
f 198/201/198 195/198/195 196/199/196
f 198/201/198 58/61/58 194/65/62
f 199/62/59 58/61/58 198/201/198
f 198/201/198 200/202/199 199/62/59
f 198/201/198 197/200/197 200/202/199
f 194/65/62 195/198/195 198/201/198
f 200/202/199 48/49/46 201/50/47
f 48/49/46 200/202/199 139/150/147
f 139/150/147 200/202/199 197/200/197
f 201/50/47 49/51/48 199/62/59
f 199/62/59 200/202/199 201/50/47
f 139/150/147 136/147/144 48/49/46
f 202/48/45 48/49/46 136/147/144
f 7/9/9 45/6/6 202/48/45
f 136/147/144 137/149/146 202/48/45
f 202/48/45 137/149/146 7/9/9
f 197/200/197 196/199/196 203/203/200
f 203/203/200 196/199/196 192/196/193
f 203/203/200 139/150/147 197/200/197
f 192/196/193 204/204/201 203/203/200
f 203/203/200 147/156/153 140/152/149
f 140/152/149 139/150/147 203/203/200
f 203/203/200 204/204/201 146/159/156
f 146/159/156 147/156/153 203/203/200
f 146/159/156 204/204/201 205/205/202
f 205/205/202 204/204/201 192/196/193
f 205/205/202 191/195/192 188/193/190
f 188/193/190 158/167/164 205/205/202
f 205/205/202 158/167/164 152/162/159
f 192/196/193 191/195/192 205/205/202
f 152/162/159 151/161/158 205/205/202
f 205/205/202 151/161/158 146/159/156
f 62/66/63 193/197/194 194/65/62
f 190/70/67 193/197/194 62/66/63
f 65/69/66 189/194/191 190/70/67
f 157/74/71 189/194/191 65/69/66
f 116/126/123 112/120/117 108/119/116
f 110/121/118 111/122/119 113/123/120
f 93/101/98 95/104/101 107/118/115
f 92/100/97 79/88/85 86/87/84
f 86/87/84 89/99/96 92/100/97
f 78/89/86 79/88/85 92/100/97
f 83/92/89 84/84/81 206/206/203
f 206/206/203 70/78/75 207/207/204
f 207/207/204 208/208/205 206/206/203
f 206/206/203 208/208/205 83/92/89
f 206/206/203 75/83/80 70/78/75
f 84/84/81 75/83/80 206/206/203
f 207/207/204 70/78/75 210/209/206
f 210/209/206 209/210/207 207/207/204
f 210/209/206 71/75/72 66/72/69
f 210/209/206 66/72/69 211/211/208
f 70/78/75 71/75/72 210/209/206
f 211/211/208 209/210/207 210/209/206
f 212/212/209 213/213/210 211/211/208
f 211/211/208 66/72/69 212/212/209
f 214/214/211 213/213/210 212/212/209
f 212/212/209 63/67/64 214/214/211
f 214/214/211 63/67/64 60/63/60
f 60/63/60 215/215/212 214/214/211
f 216/216/213 215/215/212 60/63/60
f 56/58/55 217/217/214 216/216/213
f 216/216/213 59/60/57 56/58/55
f 60/63/60 59/60/57 216/216/213
f 218/218/215 217/217/214 56/58/55
f 56/58/55 54/56/53 218/218/215
f 219/219/216 218/218/215 54/56/53
f 54/56/53 220/220/217 219/219/216
f 54/56/53 221/221/218 220/220/217
f 54/56/53 53/55/52 221/221/218
f 66/72/69 67/71/68 212/212/209
f 212/212/209 67/71/68 63/67/64
f 32/4/4 4/3/3 5/8/8
