# Blender 5.1.2
# www.blender.org
mtllib l2.mtl
o l2
v -0.660962 0.181999 0.545624
v -0.674443 0.173282 0.552686
v -0.644103 0.191021 0.545464
v -0.673790 0.170471 0.520004
v -0.659497 0.181000 0.518868
v -0.643481 0.190027 0.517688
v -0.625001 0.193378 0.490849
v -0.642658 0.185784 0.492121
v -0.658577 0.176597 0.493589
v -0.625919 0.197395 0.516645
v -0.606987 0.202943 0.515921
v -0.585484 0.202313 0.489876
v -0.587418 0.205718 0.516002
v -0.590549 0.204942 0.543812
v -0.608750 0.202734 0.543932
v -0.605543 0.199236 0.489900
v -0.603768 0.187808 0.452431
v -0.601828 0.172521 0.409237
v -0.583546 0.190973 0.452297
v -0.581605 0.175666 0.408991
v -0.621461 0.166887 0.410995
v -0.623402 0.181978 0.453748
v -0.641090 0.174494 0.455608
v -0.654551 0.151535 0.417065
v -0.656783 0.165692 0.457923
v -0.639150 0.159680 0.413623
v -0.670429 0.155908 0.460604
v -0.686330 0.152615 0.496790
v -0.667326 0.143088 0.421263
v -0.679538 0.132979 0.426461
v -0.672821 0.165959 0.495125
v -0.683394 0.143916 0.463713
v -0.697039 0.128487 0.467312
v -0.700040 0.135308 0.498644
v -0.713187 0.115566 0.500850
v -0.693251 0.119847 0.432907
v -0.706959 0.104939 0.440230
v -0.710378 0.110934 0.471443
v -0.722424 0.092572 0.476150
v -0.730643 0.068683 0.455739
v -0.735594 0.070048 0.506407
v -0.733496 0.069457 0.480954
v -0.725003 0.094912 0.503569
v -0.719156 0.089504 0.448060
v -0.726204 0.095798 0.529645
v -0.736181 0.070272 0.532333
v -0.714777 0.117469 0.526642
v -0.734347 0.075417 0.559016
v -0.725268 0.099101 0.549466
v -0.714895 0.120399 0.553075
v -0.726533 0.095741 0.566755
v -0.720491 0.111022 0.558878
v -0.711146 0.130017 0.558939
v -0.699719 0.146270 0.557779
v -0.706616 0.142971 0.566569
v -0.705701 0.143013 0.562500
v -0.689475 0.162919 0.560748
v -0.695485 0.164872 0.568089
v -0.684091 0.182732 0.570356
v -0.671299 0.199744 0.574396
v -0.656430 0.214758 0.579480
v -0.637435 0.228546 0.585110
v -0.657245 0.216895 0.583179
v -0.615076 0.237051 0.589846
v -0.615729 0.234675 0.585992
v -0.591412 0.237363 0.587290
v -0.567406 0.233983 0.586921
v -0.545394 0.225334 0.585275
v -0.526740 0.213358 0.584263
v -0.512367 0.197654 0.581819
v -0.503732 0.180261 0.578304
v -0.497993 0.164826 0.577213
v -0.496307 0.164087 0.579655
v -0.502282 0.181542 0.581454
v -0.491062 0.142735 0.580764
v -0.493242 0.149739 0.578095
v -0.489045 0.129287 0.578946
v -0.494902 0.147276 0.576082
v -0.501486 0.161194 0.572811
v -0.501784 0.158965 0.569952
v -0.494024 0.142279 0.574324
v -0.486958 0.119182 0.573444
v -0.500535 0.157577 0.563776
v -0.492771 0.139808 0.569608
v -0.487239 0.138629 0.542054
v -0.495155 0.157486 0.536402
v -0.491970 0.155225 0.511763
v -0.484009 0.136703 0.517154
v -0.482091 0.117299 0.547596
v -0.478735 0.115651 0.522166
v -0.475960 0.093231 0.526307
v -0.474693 0.089867 0.499097
v -0.477632 0.111539 0.492755
v -0.482923 0.131618 0.485890
v -0.479731 0.094912 0.552362
v -0.485742 0.105712 0.580091
v -0.474662 0.063019 0.530088
v -0.478978 0.061803 0.557667
v -0.485619 0.078476 0.585801
v -0.488943 0.097237 0.594588
v -0.485760 -0.001912 0.591869
v -0.493087 0.025627 0.615433
v -0.492392 0.029667 0.615331
v -0.494137 0.028998 0.617590
v -0.493819 0.032869 0.617560
v -0.493795 0.055540 0.614160
v -0.493807 0.074924 0.611577
v -0.492410 0.095455 0.606805
v -0.493874 0.097272 0.609307
v -0.494459 0.120683 0.607524
v -0.494845 0.143132 0.603855
v -0.496025 0.143256 0.606403
v -0.499074 0.163953 0.606191
v -0.503642 0.182581 0.604622
v -0.504111 0.181736 0.607134
v -0.498393 0.165161 0.603430
v -0.493080 0.143151 0.593227
v -0.495963 0.163210 0.583259
v -0.493192 0.123990 0.604455
v -0.487846 0.121151 0.582511
v -0.511842 0.198162 0.585474
v -0.526326 0.214206 0.588227
v -0.512329 0.198468 0.606618
v -0.526395 0.214252 0.609391
v -0.512779 0.197875 0.609072
v -0.526722 0.213640 0.611841
v -0.545180 0.226872 0.614491
v -0.567321 0.236183 0.613696
v -0.567394 0.235413 0.616074
v -0.545073 0.227606 0.612097
v -0.545084 0.227522 0.588892
v -0.567332 0.236120 0.590733
v -0.591284 0.239430 0.590801
v -0.591281 0.239511 0.613996
v -0.615094 0.237114 0.612806
v -0.591414 0.238749 0.616364
v -0.615292 0.236367 0.615134
v -0.637656 0.228734 0.612487
v -0.657136 0.216320 0.608525
v -0.657287 0.216948 0.606115
v -0.673652 0.201372 0.601548
v -0.637513 0.229443 0.610166
v -0.673172 0.200910 0.604064
v -0.685842 0.184461 0.597359
v -0.685203 0.184293 0.599923
v -0.695254 0.165685 0.596180
v -0.705348 0.144300 0.592916
v -0.706050 0.144155 0.590290
v -0.714737 0.123491 0.587854
v -0.695945 0.165595 0.593591
v -0.714973 0.121256 0.590336
v -0.724446 0.097613 0.585943
v -0.723619 0.097667 0.588646
v -0.730856 0.075230 0.587952
v -0.737618 0.054134 0.585644
v -0.736257 0.055645 0.588358
v -0.731769 0.075487 0.584940
v -0.695945 0.165595 0.571761
v -0.673597 0.201306 0.578406
v -0.685789 0.184420 0.574455
v -0.637513 0.229443 0.588933
v -0.742562 0.043419 0.565121
v -0.743624 0.029617 0.586815
v -0.750810 0.004430 0.569014
v -0.752958 -0.002091 0.563239
v -0.753661 -0.001755 0.561140
v -0.752887 -0.003426 0.561705
v -0.753560 -0.003830 0.559243
v -0.753749 -0.003747 0.549164
v -0.754765 -0.001390 0.512340
v -0.754919 -0.003750 0.470366
v -0.745136 0.037682 0.534201
v -0.745067 0.037671 0.508967
v -0.743916 0.037648 0.485377
v -0.754655 -0.001513 0.469598
v -0.742223 0.037619 0.462609
v -0.754869 -0.001353 0.494832
v -0.743813 0.025837 0.587294
v -0.742459 0.028949 0.589450
v -0.741953 0.032651 0.589560
v -0.484601 -0.001727 0.589735
v -0.485861 -0.003433 0.589999
v -0.484868 -0.003792 0.587798
v -0.478613 -0.001406 0.560991
v -0.479159 -0.003719 0.560005
v -0.475290 -0.003719 0.535852
v -0.473847 -0.003718 0.512906
v -0.473051 -0.001389 0.512472
v -0.474559 -0.001410 0.535890
v -0.472845 -0.001388 0.490060
v -0.473617 -0.003716 0.490564
v -0.472838 0.032984 0.485467
v -0.473298 0.061782 0.479840
v -0.474678 0.085661 0.471310
v -0.473155 0.057289 0.506981
v -0.477656 0.106194 0.461354
v -0.482910 0.124952 0.451445
v -0.490824 0.140761 0.442011
v -0.490875 0.148987 0.478934
v -0.501795 0.162531 0.472317
v -0.501779 0.152448 0.433478
v -0.514740 0.161089 0.425977
v -0.514952 0.172999 0.466321
v -0.529612 0.181138 0.461227
v -0.528670 0.167759 0.419638
v -0.544247 0.172513 0.414574
v -0.545938 0.186956 0.457095
v -0.564093 0.190462 0.453985
v -0.562152 0.175406 0.410898
v -0.566026 0.201566 0.491376
v -0.547684 0.197587 0.494025
v -0.530977 0.190970 0.497449
v -0.533188 0.193711 0.522937
v -0.549541 0.200593 0.519773
v -0.567943 0.204765 0.517374
v -0.570578 0.203726 0.545386
v -0.552434 0.199571 0.547081
v -0.536820 0.192600 0.550713
v -0.523834 0.183668 0.554631
v -0.537301 0.192819 0.557009
v -0.524161 0.183627 0.560840
v -0.552572 0.199744 0.553935
v -0.571027 0.205507 0.555387
v -0.571054 0.204028 0.551740
v -0.536733 0.194074 0.560575
v -0.552573 0.201291 0.557597
v -0.532108 0.203273 0.571711
v -0.521181 0.188171 0.568116
v -0.510642 0.181835 0.573001
v -0.511086 0.173463 0.568784
v -0.523382 0.184759 0.564355
v -0.512076 0.172545 0.565306
v -0.511346 0.172230 0.559078
v -0.505820 0.172453 0.531304
v -0.515990 0.181773 0.501613
v -0.502810 0.170053 0.506483
v -0.518681 0.184278 0.526802
v -0.590608 0.206859 0.554210
v -0.609605 0.204771 0.553883
v -0.627234 0.200164 0.554353
v -0.662013 0.184678 0.556853
v -0.676217 0.174764 0.558551
v -0.645339 0.193211 0.555324
v -0.676180 0.183375 0.564861
v -0.660650 0.183329 0.552967
v -0.627061 0.198450 0.550797
v -0.644496 0.191707 0.551769
v -0.609205 0.203215 0.550278
v -0.627562 0.197540 0.543976
v -0.590634 0.205307 0.550497
v -0.687668 0.161077 0.555300
v -0.687730 0.159446 0.548640
v -0.701825 0.141122 0.551385
v -0.701470 0.138493 0.523832
v -0.687426 0.156838 0.521518
v -0.475535 -0.004499 0.491140
v -0.511886 -0.004494 0.500122
v -0.546190 -0.004494 0.506719
v -0.583474 -0.004494 0.510299
v -0.664902 -0.004494 0.502620
v -0.623219 -0.004494 0.509414
v -0.607750 -0.004494 0.608789
v -0.553179 -0.003973 0.607685
v -0.628770 -0.003968 0.609764
v -0.589823 -0.003974 0.611093
v -0.589653 -0.002185 0.613962
v -0.629274 -0.002302 0.612330
v -0.552471 -0.001977 0.610691
v -0.521215 -0.002247 0.603445
v -0.520821 -0.003966 0.600566
v -0.487533 -0.003962 0.590583
v -0.488071 -0.002276 0.593132
v -0.487049 -0.004493 0.587695
v -0.539699 -0.004494 0.602522
v -0.478438 -0.004494 0.543093
v -0.475290 -0.003719 0.535852
v -0.473847 -0.003718 0.512906
v -0.479159 -0.003719 0.560005
v -0.484830 -0.003789 0.587726
v -0.485861 -0.003433 0.589999
v -0.485721 -0.002204 0.591614
v -0.492920 0.025259 0.615158
v -0.495287 0.024776 0.616493
v -0.495211 0.021778 0.614043
v -0.524730 0.025040 0.630325
v -0.523069 0.010519 0.616022
v -0.555197 0.024959 0.640171
v -0.589231 0.024963 0.644013
v -0.626549 0.024952 0.642091
v -0.666564 0.010543 0.618703
v -0.696693 0.024467 0.621510
v -0.703184 -0.001943 0.594337
v -0.665068 0.024864 0.633725
v -0.664499 0.028771 0.636246
v -0.626931 0.028788 0.644522
v -0.697126 0.028740 0.623736
v -0.720861 0.024672 0.606577
v -0.720216 0.028686 0.609004
v -0.719024 0.033180 0.609325
v -0.663551 0.033352 0.636331
v -0.695324 0.033550 0.624135
v -0.625559 0.033361 0.644561
v -0.588544 0.033376 0.646458
v -0.553943 0.028805 0.642580
v -0.554154 0.033281 0.642572
v -0.589018 0.028801 0.646550
v -0.584589 0.067503 0.637001
v -0.619311 0.070598 0.634895
v -0.551447 0.070719 0.632650
v -0.657553 0.063712 0.629143
v -0.722162 0.075497 0.594517
v -0.713000 0.057496 0.606003
v -0.736368 0.055705 0.588478
v -0.730856 0.075230 0.587952
v -0.742036 0.032430 0.589586
v -0.739687 0.033657 0.591740
v -0.741033 0.028634 0.591206
v -0.742459 0.028949 0.589450
v -0.741886 0.024182 0.588528
v -0.744125 0.024820 0.586438
v -0.724107 0.010411 0.593487
v -0.750859 -0.002057 0.565616
v -0.727544 -0.002023 0.581718
v -0.751556 -0.003901 0.562800
v -0.702772 -0.003940 0.591685
v -0.728134 -0.003906 0.578703
v -0.716193 -0.004494 0.582748
v -0.752731 -0.004497 0.471560
v -0.728537 -0.004494 0.482972
v -0.702135 -0.004494 0.492833
v -0.754739 -0.003753 0.470369
v -0.754687 -0.003746 0.490605
v -0.754456 -0.003734 0.516089
v -0.753544 -0.003809 0.559272
v -0.751513 -0.004493 0.559876
v -0.752887 -0.003426 0.561705
v -0.752958 -0.002091 0.563239
v -0.750861 0.004180 0.568779
v -0.667929 -0.004372 0.601651
v -0.667909 -0.002356 0.605171
v -0.723619 0.097667 0.588646
v -0.714973 0.121256 0.590336
v -0.706357 0.122472 0.595382
v -0.720670 0.101164 0.590528
v -0.680539 0.173594 0.602141
v -0.700956 0.150528 0.595093
v -0.705348 0.144300 0.592916
v -0.695254 0.165685 0.596180
v -0.683288 0.183788 0.601331
v -0.685203 0.184293 0.599923
v -0.673172 0.200910 0.604064
v -0.656595 0.214415 0.609521
v -0.657136 0.216320 0.608525
v -0.671498 0.199998 0.605277
v -0.665274 0.192267 0.606835
v -0.639980 0.217131 0.612796
v -0.655370 0.176013 0.610187
v -0.623523 0.204855 0.615764
v -0.592480 0.236284 0.617234
v -0.615884 0.234129 0.615895
v -0.638086 0.226609 0.613214
v -0.637656 0.228734 0.612487
v -0.615292 0.236367 0.615134
v -0.591414 0.238749 0.616364
v -0.567612 0.233101 0.616988
v -0.567394 0.235413 0.616074
v -0.545180 0.226872 0.614491
v -0.527788 0.211810 0.612983
v -0.526722 0.213640 0.611841
v -0.512779 0.197875 0.609072
v -0.506233 0.181341 0.608483
v -0.504111 0.181736 0.607134
v -0.514429 0.196694 0.610270
v -0.526265 0.181380 0.613575
v -0.545220 0.224405 0.615457
v -0.546225 0.179625 0.617708
v -0.571485 0.191264 0.619458
v -0.547456 0.134716 0.621873
v -0.496563 0.106294 0.610109
v -0.523546 0.139406 0.615834
v -0.499489 0.154587 0.607450
v -0.499074 0.163953 0.606191
v -0.496025 0.143256 0.606403
v -0.494459 0.120683 0.607524
v -0.493874 0.097272 0.609307
v -0.493807 0.074924 0.611577
v -0.496001 0.062323 0.614549
v -0.493795 0.055540 0.614160
v -0.493768 0.033053 0.617567
v -0.496226 0.033664 0.619203
v -0.494137 0.028998 0.617590
v -0.495973 0.028687 0.619017
v -0.524889 0.028795 0.632861
v -0.524890 0.033312 0.632861
v -0.504539 0.075185 0.616381
v -0.522862 0.061750 0.626027
v -0.523122 0.098618 0.620394
v -0.549498 0.099702 0.627100
v -0.580817 0.100748 0.630172
v -0.610283 0.128401 0.624826
v -0.576338 0.141297 0.623975
v -0.614580 0.101378 0.628948
v -0.648285 0.101212 0.622768
v -0.670844 0.126575 0.611076
v -0.642354 0.128021 0.619213
v -0.684185 0.081446 0.615475
v -0.700432 0.099333 0.603133
v -0.684371 0.143950 0.603016
v -0.663265 0.151651 0.610020
v -0.635694 0.159880 0.616474
v -0.602549 0.169407 0.620784
v -0.473617 -0.003716 0.490564
v -0.754824 -0.005053 0.506264
v -0.752459 -0.004493 0.507573
v -0.755638 -0.006730 0.505473
v -0.752731 -0.013230 0.506104
v -0.728888 -0.004494 0.522068
v -0.702545 -0.004496 0.534409
v -0.664997 -0.004494 0.545121
v -0.623219 -0.004494 0.551931
v -0.583476 -0.004494 0.552816
v -0.512263 -0.004494 0.543655
v -0.476495 -0.004494 0.535840
v -0.474069 -0.005039 0.535323
v -0.473140 -0.011037 0.535268
v -0.473939 -0.012672 0.535483
v -0.476423 -0.013217 0.536037
v -0.512181 -0.013217 0.543834
v -0.473230 -0.006675 0.535181
v -0.546298 -0.004494 0.549491
v -0.546273 -0.013217 0.549670
v -0.583469 -0.013217 0.552992
v -0.623219 -0.013217 0.552108
v -0.664775 -0.013218 0.545334
v -0.702139 -0.013217 0.534561
v -0.727969 -0.013217 0.522128
v -0.754993 -0.012692 0.504645
v -0.755732 -0.011098 0.504494
v -0.472690 -0.074408 0.541886
v -0.473895 -0.102798 0.573573
v -0.473727 -0.103890 0.552829
v -0.473131 -0.077374 0.565537
v -0.472543 -0.029199 0.525690
v -0.472543 0.012731 0.510521
v -0.472546 0.071723 0.488934
v -0.472919 0.079820 0.511689
v -0.472918 0.019749 0.533919
v -0.472909 -0.010672 0.544722
v -0.472898 -0.034840 0.552827
v -0.472885 -0.056042 0.559237
v -0.475967 -0.128913 0.580992
v -0.480167 -0.153313 0.585735
v -0.486427 -0.175033 0.587626
v -0.494743 -0.193297 0.586538
v -0.505756 -0.208813 0.583207
v -0.520102 -0.222272 0.578372
v -0.536219 -0.232230 0.573586
v -0.552514 -0.237219 0.570415
v -0.571812 -0.239098 0.567477
v -0.596931 -0.239725 0.563391
v -0.625473 -0.239725 0.557883
v -0.655041 -0.239725 0.550678
v -0.683722 -0.236945 0.542564
v -0.709599 -0.228607 0.534332
v -0.730752 -0.215437 0.526898
v -0.745263 -0.198162 0.521182
v -0.754647 -0.176358 0.515104
v -0.760424 -0.149603 0.506585
v -0.764397 -0.120373 0.496846
v -0.764397 -0.120373 0.490252
v -0.763404 -0.127681 0.487017
v -0.760424 -0.149603 0.492235
v -0.754647 -0.176358 0.500521
v -0.745263 -0.198162 0.506490
v -0.730752 -0.215437 0.512166
v -0.709599 -0.228607 0.519573
v -0.683722 -0.236945 0.527791
v -0.655042 -0.239725 0.535897
v -0.625473 -0.239725 0.543097
v -0.596931 -0.239725 0.548594
v -0.571812 -0.239098 0.552391
v -0.552514 -0.237219 0.554490
v -0.536219 -0.232230 0.556761
v -0.520107 -0.222275 0.561074
v -0.505759 -0.208806 0.565781
v -0.494757 -0.193273 0.569232
v -0.486446 -0.174992 0.570166
v -0.480170 -0.153277 0.567319
v -0.475930 -0.129215 0.561328
v -0.473737 0.099688 0.503655
v -0.476200 0.121322 0.493467
v -0.482647 0.142383 0.481877
v -0.495424 0.160974 0.469446
v -0.482276 0.134615 0.459158
v -0.475830 0.113554 0.470679
v -0.495038 0.153178 0.446827
v -0.513480 0.168136 0.435434
v -0.536963 0.178379 0.426724
v -0.537333 0.186157 0.449188
v -0.513842 0.175896 0.457989
v -0.565457 0.190925 0.443770
v -0.597854 0.189513 0.442392
v -0.565090 0.183162 0.421381
v -0.597464 0.181740 0.420088
v -0.630685 0.173580 0.423319
v -0.661354 0.158151 0.431546
v -0.661752 0.165904 0.453722
v -0.631066 0.181337 0.445554
v -0.688873 0.144990 0.465239
v -0.711522 0.120383 0.478450
v -0.728487 0.084114 0.471420
v -0.711141 0.112628 0.456366
v -0.728860 0.091865 0.493473
v -0.688497 0.137238 0.443114
v -0.740118 0.059221 0.510422
v -0.748026 0.024631 0.525747
v -0.755356 -0.009753 0.535907
v -0.747648 0.016904 0.503819
v -0.739736 0.051486 0.488391
v -0.754983 -0.017471 0.514241
v -0.760538 -0.047665 0.520544
v -0.760957 -0.040679 0.541986
v -0.763661 -0.064872 0.545064
v -0.763111 -0.069703 0.523616
v -0.763900 -0.086870 0.524681
v -0.764485 -0.084471 0.546246
v -0.764457 -0.101319 0.546622
v -0.764098 -0.102445 0.524962
v -0.763914 -0.119376 0.524819
v -0.764503 -0.121181 0.524767
v -0.764420 -0.120825 0.546180
v -0.765995 -0.121280 0.545013
v -0.767906 -0.121200 0.543691
v -0.763960 -0.119282 0.546588
v -0.771319 -0.121174 0.533931
v -0.769318 -0.121175 0.542923
v -0.769350 -0.121174 0.524742
v -0.770275 -0.121174 0.527039
v -0.772128 -0.121174 0.541520
v -0.473365 0.091931 0.480804
vn -0.6522 0.7493 -0.1148
vn -0.6320 0.7432 -0.2197
vn -0.5302 0.8426 -0.0939
vn -0.4194 0.9040 -0.0831
vn -0.4418 0.8914 -0.1016
vn -0.5442 0.8314 -0.1120
vn -0.5496 0.8070 -0.2160
vn -0.3359 0.9374 -0.0916
vn -0.3434 0.9122 -0.2236
vn -0.4495 0.8654 -0.2214
vn -0.3253 0.9435 -0.0626
vn -0.2116 0.9743 -0.0770
vn -0.2184 0.9503 -0.2219
vn -0.0436 0.9975 -0.0558
vn -0.0467 0.9761 -0.2123
vn -0.0366 0.9992 -0.0156
vn -0.1908 0.9806 -0.0454
vn -0.2190 0.9238 -0.3139
vn -0.3443 0.8870 -0.3079
vn -0.0499 0.9412 -0.3341
vn -0.2189 0.9168 -0.3340
vn -0.3435 0.8805 -0.3266
vn -0.0484 0.9487 -0.3123
vn -0.4493 0.8421 -0.2983
vn -0.4489 0.8361 -0.3155
vn -0.5469 0.7814 -0.3006
vn -0.5481 0.7863 -0.2850
vn -0.6429 0.7176 -0.2678
vn -0.7223 0.6465 -0.2455
vn -0.7409 0.6455 -0.1853
vn -0.6503 0.7314 -0.2053
vn -0.6399 0.7147 -0.2824
vn -0.7134 0.6504 -0.2609
vn -0.7785 0.5893 -0.2158
vn -0.8046 0.5724 -0.1577
vn -0.8491 0.5132 -0.1250
vn -0.8230 0.5392 -0.1786
vn -0.7644 0.6013 -0.2325
vn -0.8085 0.5551 -0.1952
vn -0.8758 0.4624 -0.1385
vn -0.8650 0.4775 -0.1543
vn -0.9225 0.3688 -0.1143
vn -0.9292 0.3557 -0.1001
vn -0.9412 0.3333 -0.0560
vn -0.8956 0.4357 -0.0895
vn -0.9088 0.4152 -0.0420
vn -0.9482 0.3175 -0.0103
vn -0.9477 0.3166 0.0399
vn -0.8649 0.4968 -0.0713
vn -0.8714 0.4775 -0.1127
vn -0.9126 0.4079 -0.0280
vn -0.9134 0.4010 -0.0703
vn -0.8211 0.4754 -0.3160
vn -0.9371 0.3470 0.0388
vn -0.8102 0.5685 -0.1430
vn -0.7442 0.5642 -0.3575
vn -0.7927 0.4943 -0.3567
vn -0.9019 0.4201 -0.1003
vn -0.7683 0.4771 -0.4267
vn -0.6426 0.5291 -0.5542
vn -0.6052 0.5284 -0.5955
vn -0.7907 0.5562 -0.2560
vn -0.6825 0.6726 -0.2860
vn -0.4740 0.6098 -0.6352
vn -0.3942 0.6823 -0.6157
vn -0.5579 0.7877 -0.2611
vn -0.3237 0.8202 -0.4717
vn -0.4152 0.9039 -0.1029
vn -0.1802 0.9518 -0.2483
vn -0.1335 0.7930 -0.5944
vn 0.0289 0.9664 -0.2554
vn 0.0275 0.8071 -0.5898
vn 0.1887 0.7949 -0.5766
vn 0.2318 0.9417 -0.2441
vn 0.4407 0.8610 -0.2539
vn 0.3404 0.7307 -0.5918
vn 0.5564 0.6970 -0.4524
vn 0.9234 0.2917 -0.2495
vn 0.7537 0.2704 -0.5990
vn 0.6942 0.3521 -0.6278
vn 0.6872 0.5683 -0.4526
vn 0.8789 0.4126 -0.2395
vn 0.9632 0.2659 0.0388
vn 0.9819 0.1675 -0.0878
vn 0.8433 0.1904 -0.5026
vn 0.9615 0.1980 -0.1903
vn 0.7569 0.2191 -0.6157
vn 0.7725 0.3132 -0.5524
vn 0.8647 0.4713 -0.1734
vn 0.9218 0.3168 -0.2232
vn 0.9273 0.3652 0.0820
vn 0.9740 0.1876 0.1269
vn 0.8504 0.5147 0.1097
vn 0.9286 0.3470 0.1315
vn 0.8665 0.4992 -0.0013
vn 0.8496 0.5152 0.1133
vn 0.9431 0.3303 0.0373
vn 0.9785 0.1962 0.0639
vn 0.9681 0.2055 0.1432
vn 0.9825 0.0947 0.1603
vn 0.9917 0.0954 0.0860
vn 0.9957 0.0922 0.0110
vn 0.9458 0.3219 -0.0423
vn 0.9818 0.1896 -0.0112
vn 0.9732 0.1143 0.1997
vn 0.9709 0.0382 0.2366
vn 0.9940 0.0340 0.1038
vn 0.9824 0.0315 0.1840
vn 0.9646 0.0568 0.2575
vn 0.9122 -0.2402 0.3321
vn 0.9244 0.0523 0.3779
vn 0.8929 -0.0365 0.4488
vn 0.6921 -0.3113 0.6512
vn 0.6654 -0.4661 0.5831
vn 0.6477 -0.1631 0.7443
vn 0.7155 0.0479 0.6970
vn 0.7065 0.0965 0.7011
vn 0.6779 0.0913 0.7295
vn 0.7372 0.0721 0.6718
vn 0.7504 0.0715 0.6571
vn 0.9504 0.1201 0.2870
vn 0.7458 0.1032 0.6582
vn 0.9382 0.0885 0.3347
vn 0.7786 0.1484 0.6098
vn 0.9110 0.3817 0.1560
vn 0.7636 0.2415 0.5988
vn 0.9494 0.2283 0.2155
vn 0.9746 0.1563 0.1602
vn 0.9877 0.1169 0.1038
vn 0.7972 0.5967 -0.0914
vn 0.8156 0.5604 0.1442
vn 0.6535 0.7491 -0.1085
vn 0.6709 0.7293 0.1342
vn 0.6940 0.3922 0.6037
vn 0.5838 0.5329 0.6125
vn 0.4151 0.6422 0.6444
vn 0.2528 0.9552 0.1539
vn 0.2098 0.7036 0.6790
vn 0.4762 0.8680 0.1406
vn 0.0174 0.9879 0.1542
vn -0.2178 0.9662 0.1380
vn -0.0002 0.7253 0.6884
vn -0.2132 0.7157 0.6651
vn -0.4198 0.6664 0.6161
vn -0.4351 0.8924 0.1194
vn -0.6272 0.7705 0.1139
vn -0.5836 0.5670 0.5813
vn -0.7627 0.6341 0.1272
vn -0.6873 0.4450 0.5742
vn -0.8536 0.5071 0.1191
vn -0.7517 0.3466 0.5610
vn -0.7871 0.3036 0.5369
vn -0.8955 0.4309 0.1115
vn -0.9149 0.3874 0.1131
vn -0.8056 0.2910 0.5160
vn -0.9249 0.3611 0.1189
vn -0.8277 0.2742 0.4897
vn -0.9335 0.3159 0.1698
vn -0.8230 0.2594 0.5054
vn -0.8267 0.2439 0.5070
vn -0.9446 0.2537 0.2083
vn -0.8237 0.2343 0.5163
vn -0.9398 0.2864 0.1863
vn -0.9665 0.2469 0.0697
vn -0.8801 0.4649 -0.0966
vn -0.9469 0.1660 0.2753
vn -0.9851 -0.0383 0.1675
vn -0.8675 -0.1325 0.4795
vn -0.8107 -0.3430 0.4744
vn -0.7677 -0.6256 0.1392
vn -0.6701 -0.6455 0.3665
vn -0.7936 -0.6083 0.0146
vn -0.9996 0.0291 0.0060
vn -0.9931 0.1170 0.0067
vn -0.8796 -0.4181 -0.2269
vn -0.9683 0.2496 0.0125
vn -0.9647 0.2621 -0.0268
vn -0.9569 0.2840 -0.0600
vn -0.9800 0.1961 -0.0332
vn -0.9525 0.2958 -0.0718
vn -0.8461 -0.0931 0.5248
vn -0.8040 0.0109 0.5945
vn -0.8270 0.1892 0.5294
vn 0.5074 -0.7466 0.4303
vn 0.6251 -0.7499 0.2166
vn 0.9734 -0.1426 0.1795
vn 0.7037 -0.6991 0.1270
vn 0.7081 -0.7018 0.0781
vn 0.7066 -0.7071 0.0260
vn 0.9871 -0.1564 0.0355
vn 0.9829 -0.1464 0.1116
vn 0.7067 -0.7075 0.0070
vn 0.9892 -0.1466 0.0083
vn 0.9991 0.0282 0.0305
vn 1.0000 0.0037 0.0082
vn 0.9993 0.0363 -0.0018
vn 0.9957 0.0921 -0.0133
vn 0.9817 0.1876 -0.0330
vn 0.9448 0.3213 -0.0635
vn 0.8580 0.5009 -0.1137
vn 0.7328 0.6640 -0.1485
vn 0.8637 0.4958 -0.0901
vn 0.7205 0.6712 -0.1743
vn 0.5845 0.7797 -0.2246
vn 0.5967 0.7774 -0.1990
vn 0.4580 0.8562 -0.2390
vn 0.4491 0.8536 -0.2637
vn 0.2990 0.9072 -0.2959
vn 0.1407 0.9444 -0.2972
vn 0.3056 0.9124 -0.2721
vn 0.1362 0.9374 -0.3204
vn 0.3119 0.9352 -0.1678
vn 0.1433 0.9706 -0.1933
vn 0.4679 0.8735 -0.1345
vn 0.4622 0.8865 0.0209
vn 0.1376 0.9900 -0.0320
vn 0.3053 0.9522 -0.0082
vn 0.1421 0.9898 0.0058
vn 0.3079 0.9510 0.0289
vn 0.4806 0.8753 0.0531
vn 0.6491 0.7424 -0.1660
vn 0.6015 0.7950 0.0784
vn 0.3435 0.9189 -0.1937
vn 0.5175 0.8369 -0.1782
vn 0.1688 0.8303 -0.5312
vn 0.3343 0.7791 -0.5303
vn 0.1606 0.9648 -0.2082
vn 0.5098 0.6804 -0.5265
vn 0.4490 0.5894 -0.6716
vn 0.5556 0.4600 -0.6926
vn 0.6018 0.3740 -0.7057
vn 0.6998 0.4461 -0.5580
vn 0.6201 0.5628 -0.5465
vn 0.7565 0.6308 -0.1723
vn 0.7208 0.6868 0.0941
vn 0.7283 0.6801 0.0845
vn 0.7444 0.6660 -0.0494
vn 0.6098 0.7869 -0.0947
vn 0.5992 0.7988 0.0533
vn 0.0076 0.8381 -0.5454
vn -0.1568 0.8138 -0.5597
vn -0.2685 0.7744 -0.5729
vn -0.3623 0.7287 -0.5811
vn -0.4676 0.6622 -0.5856
vn -0.5666 0.6151 -0.5483
vn -0.4918 0.5224 -0.6966
vn -0.5129 0.8110 -0.2814
vn -0.4109 0.8675 -0.2803
vn -0.3092 0.9125 -0.2679
vn -0.1822 0.9508 -0.2504
vn -0.0150 0.9740 -0.2261
vn -0.7194 0.6278 -0.2973
vn -0.7523 0.6502 -0.1063
vn -0.8194 0.5661 -0.0903
vn -0.7520 0.6508 -0.1050
vn -0.0000 -1.0000 -0.0000
vn -0.0129 -0.9606 0.2776
vn 0.0472 -0.9740 0.2215
vn 0.0489 -0.9367 0.3468
vn 0.0067 -0.9379 0.3470
vn -0.0311 -0.9335 0.3573
vn 0.0195 -0.7961 0.6048
vn 0.1138 -0.7776 0.6183
vn -0.0726 -0.7858 0.6142
vn 0.1623 -0.7649 0.6233
vn 0.2486 -0.8847 0.3943
vn 0.3483 -0.6633 0.6624
vn 0.0933 -0.9345 0.3437
vn 0.2464 -0.9524 0.1792
vn -0.0001 -1.0000 0.0001
vn 0.6816 -0.7285 0.0678
vn 0.3518 -0.9347 0.0510
vn 0.3725 -0.9280 0.0044
vn 0.6601 -0.7506 0.0310
vn 0.6840 -0.7180 0.1290
vn 0.6780 -0.6901 0.2531
vn 0.5229 -0.7424 0.4188
vn 0.6693 -0.5234 0.5274
vn 0.3691 -0.5637 0.7390
vn 0.7260 -0.2970 0.6202
vn 0.4433 -0.4821 0.7557
vn 0.2987 -0.5875 0.7521
vn 0.2320 -0.6659 0.7090
vn 0.1482 -0.6391 0.7547
vn 0.0193 -0.6474 0.7619
vn -0.0950 -0.6359 0.7659
vn -0.1873 -0.6989 0.6903
vn -0.2269 -0.6016 0.7659
vn -0.3557 -0.5492 0.7562
vn -0.2844 -0.7168 0.6366
vn -0.1550 -0.7848 0.6000
vn -0.4491 -0.1844 0.8742
vn -0.1354 -0.2636 0.9551
vn -0.2785 -0.2377 0.9306
vn -0.5313 -0.4449 0.7209
vn -0.5892 -0.1360 0.7964
vn -0.5842 0.1747 0.7926
vn -0.4244 0.1707 0.8893
vn -0.2801 0.1595 0.9466
vn -0.1223 0.1470 0.9815
vn 0.0305 0.1384 0.9899
vn 0.0287 -0.2803 0.9595
vn 0.2152 -0.2879 0.9332
vn 0.2050 0.1200 0.9714
vn 0.0327 0.2278 0.9732
vn 0.1870 0.1981 0.9622
vn -0.1111 0.2352 0.9656
vn -0.2598 0.2471 0.9335
vn -0.3827 0.2177 0.8978
vn -0.5419 0.2323 0.8077
vn -0.6757 0.1624 0.7191
vn -0.5625 0.1822 0.8065
vn -0.6107 0.2009 0.7659
vn -0.8327 0.1415 0.5353
vn -0.8057 -0.0097 0.5923
vn -0.7092 -0.0815 0.7003
vn -0.6457 -0.3382 0.6846
vn -0.8559 -0.1064 0.5061
vn -0.8507 -0.1520 0.5032
vn -0.5694 -0.5402 0.6196
vn -0.4663 -0.5387 0.7017
vn -0.3896 -0.6648 0.6374
vn -0.4077 -0.8307 0.3792
vn -0.2235 -0.9057 0.3602
vn -0.1456 -0.9187 0.3672
vn -0.1340 -0.9591 0.2492
vn -0.3140 -0.9375 0.1501
vn 0.0001 -1.0000 -0.0000
vn -0.3464 -0.9381 0.0014
vn -0.7957 -0.6057 0.0049
vn -0.8111 -0.5849 0.0006
vn -0.7733 -0.6339 0.0112
vn -0.7813 -0.6079 0.1417
vn -0.6861 -0.6345 0.3558
vn -0.8357 -0.3105 0.4530
vn -0.1191 -0.8688 0.4807
vn -0.0040 -0.9999 0.0167
vn -0.8507 0.2601 0.4567
vn -0.6006 0.1775 0.7796
vn -0.8243 0.2597 0.5031
vn -0.8120 0.2733 0.5157
vn -0.5235 0.1287 0.8423
vn -0.4587 0.1269 0.8795
vn -0.8035 0.2888 0.5206
vn -0.7819 0.3003 0.5463
vn -0.4411 0.0794 0.8939
vn -0.7517 0.3465 0.5612
vn -0.6837 0.4331 0.5873
vn -0.3417 0.1372 0.9297
vn -0.5844 0.5655 0.5820
vn -0.4007 0.1159 0.9089
vn -0.2684 0.0028 0.9633
vn -0.1775 0.0001 0.9841
vn -0.3189 0.0250 0.9475
vn -0.2691 0.0582 0.9614
vn -0.1499 0.0444 0.9877
vn -0.1258 0.2055 0.9705
vn -0.0795 0.0849 0.9932
vn -0.0304 0.2005 0.9792
vn -0.2071 0.0992 0.9733
vn -0.2447 0.1836 0.9521
vn -0.4198 0.6664 0.6162
vn 0.0054 0.7058 0.7084
vn 0.1020 0.2102 0.9723
vn 0.2097 0.7036 0.6790
vn 0.4099 0.6403 0.6496
vn 0.3007 0.1689 0.9386
vn 0.5844 0.5318 0.6130
vn 0.2240 0.2135 0.9509
vn 0.6892 0.3933 0.6085
vn 0.3848 0.0899 0.9186
vn 0.7481 0.2526 0.6137
vn 0.3686 0.1269 0.9209
vn 0.2227 0.0452 0.9738
vn 0.1504 0.0656 0.9864
vn 0.4178 0.0771 0.9053
vn 0.0395 0.1146 0.9926
vn 0.1651 0.1094 0.9802
vn 0.0492 0.0629 0.9968
vn 0.2608 0.0866 0.9615
vn 0.4282 0.0885 0.8993
vn 0.7239 0.0783 0.6854
vn 0.7407 0.1007 0.6642
vn 0.7450 0.1532 0.6492
vn 0.7277 0.0752 0.6818
vn 0.7526 0.0730 0.6544
vn 0.4510 0.1194 0.8845
vn 0.7242 0.1026 0.6819
vn 0.7442 0.0167 0.6678
vn 0.4921 0.0648 0.8681
vn 0.6651 -0.1506 0.7314
vn 0.5137 -0.2158 0.8304
vn 0.3721 0.0968 0.9231
vn 0.3603 -0.2690 0.8932
vn 0.3412 0.1705 0.9244
vn 0.3622 0.1183 0.9246
vn 0.2958 0.1279 0.9466
vn 0.1767 0.1504 0.9727
vn 0.0348 0.1705 0.9847
vn -0.1003 0.1418 0.9848
vn -0.1056 0.1846 0.9771
vn -0.2358 0.1951 0.9520
vn -0.2249 0.1511 0.9626
vn -0.3305 0.1594 0.9302
vn -0.4690 0.1824 0.8641
vn -0.3822 0.1126 0.9172
vn -0.3035 0.1097 0.9465
vn 0.7511 -0.6602 0.0070
vn -0.4355 -0.1975 0.8783
vn -0.4488 -0.1703 0.8772
vn -0.5069 -0.1435 0.8500
vn -0.5405 -0.1131 0.8337
vn -0.4868 -0.0528 0.8719
vn 0.2142 0.0250 0.9765
vn 0.2139 0.0249 0.9765
vn 0.2123 0.0247 0.9769
vn 0.1912 0.0219 0.9813
vn 0.2130 0.0238 0.9768
vn 0.2131 0.0237 0.9767
vn 0.2129 0.0239 0.9768
vn 0.1911 0.0219 0.9813
vn 0.2134 0.0242 0.9767
vn 0.1289 0.0207 0.9914
vn 0.0335 0.0203 0.9992
vn 0.0334 0.0202 0.9992
vn -0.0919 0.0202 0.9956
vn -0.0917 0.0202 0.9956
vn -0.2233 0.0182 0.9746
vn -0.2198 0.0204 0.9753
vn -0.3532 -0.0076 0.9355
vn -0.3594 0.0054 0.9332
vn -0.4820 -0.0411 0.8752
vn -0.5351 -0.1320 0.8344
vn -0.4892 -0.1510 0.8590
vn -0.9982 0.0589 -0.0102
vn -0.9997 0.0177 -0.0174
vn -0.9998 0.0132 -0.0130
vn -0.9984 0.0550 -0.0105
vn -0.9999 0.0022 -0.0139
vn -0.9999 -0.0006 -0.0106
vn -0.9999 -0.0052 -0.0144
vn -0.9999 -0.0050 -0.0136
vn -0.9997 -0.0238 -0.0081
vn -0.9999 -0.0054 -0.0147
vn -0.9999 -0.0048 -0.0130
vn -0.9997 -0.0233 -0.0073
vn -1.0000 -0.0021 -0.0050
vn -1.0000 -0.0014 -0.0026
vn 0.9836 0.1806 -0.0000
vn 0.9909 0.1347 -0.0000
vn 0.9849 0.1730 -0.0000
vn 0.9525 0.3046 -0.0000
vn 0.8387 0.5446 -0.0000
vn 0.8512 0.5248 -0.0000
vn 0.9470 0.3211 -0.0000
vn 0.6552 0.7555 -0.0000
vn 0.3999 0.9165 -0.0000
vn 0.4208 0.9072 -0.0000
vn 0.6347 0.7727 -0.0000
vn 0.2027 0.9792 -0.0000
vn 0.1835 0.9830 -0.0000
vn 0.0403 0.9992 -0.0000
vn 0.0483 0.9988 -0.0000
vn -0.0000 1.0000 -0.0000
vn -0.0139 0.9999 -0.0000
vn -0.0124 0.9999 -0.0000
vn -0.0609 0.9981 -0.0000
vn -0.2062 0.9785 -0.0000
vn -0.1958 0.9806 -0.0000
vn -0.0646 0.9979 -0.0000
vn -0.4126 0.9109 -0.0000
vn -0.6204 0.7843 0.0001
vn -0.6080 0.7939 0.0001
vn -0.4283 0.9036 -0.0000
vn -0.7540 0.6569 0.0006
vn -0.7625 0.6470 0.0004
vn -0.8705 0.4922 0.0013
vn -0.8670 0.4983 0.0013
vn -0.9380 0.3466 0.0013
vn -0.9732 0.2299 -0.0006
vn -0.9744 0.2250 -0.0007
vn -0.9378 0.3471 0.0015
vn -0.9920 0.1259 -0.0056
vn -0.9915 0.1297 -0.0050
vn -0.9974 -0.0711 0.0074
vn -0.9198 -0.3756 0.1135
vn -0.9265 -0.3606 0.1077
vn -0.7947 -0.5779 0.1855
vn -0.9838 -0.1739 0.0433
vn -0.7833 -0.5917 0.1906
vn -0.9825 -0.1808 0.0457
vn -0.5874 -0.7680 0.2551
vn -0.3578 -0.8843 0.3000
vn -0.3466 -0.8881 0.3018
vn -0.6011 -0.7586 0.2514
vn -0.0954 -0.9409 0.3249
vn -0.1015 -0.9404 0.3244
vn 0.1420 -0.9341 0.3277
vn 0.1426 -0.9339 0.3279
vn 0.3761 -0.8728 0.3110
vn 0.5823 -0.7642 0.2774
vn 0.5766 -0.7679 0.2788
vn 0.3802 -0.8713 0.3104
vn 0.8348 -0.5148 0.1950
vn 0.9255 -0.3522 0.1395
vn 0.9221 -0.3599 0.1422
vn 0.8303 -0.5212 0.1974
vn 0.7177 -0.6532 0.2412
vn 0.7224 -0.6487 0.2395
vn 0.9692 -0.2265 0.0963
vn 0.9791 -0.1858 0.0823
vn 0.9792 -0.1855 0.0826
vn 0.9815 -0.1749 0.0783
vn 0.9684 -0.2297 0.0975
vn 0.9815 -0.1746 0.0782
vn 0.9887 -0.1359 0.0628
vn 0.9885 -0.1374 0.0640
vn 0.9961 -0.0768 0.0432
vn 0.9963 -0.0750 0.0429
vn 0.9993 -0.0246 0.0271
vn 0.9994 -0.0179 0.0292
vn 0.9999 0.0080 0.0151
vn 0.9999 0.0046 0.0162
vn 0.9890 -0.1478 0.0067
vn 0.9929 -0.1189 -0.0032
vn 0.5853 -0.8107 -0.0133
vn 0.8035 -0.5933 -0.0482
vn 0.1691 -0.9856 0.0042
vn -0.0286 -0.9996 -0.0062
vn -0.0127 -0.9999 -0.0036
vn -0.0001 -1.0000 -0.0000
vn -0.0012 -1.0000 -0.0000
vn -0.0002 -1.0000 -0.0000
vn -0.9973 -0.0728 0.0085
vt 0.489908 0.693322
vt 0.472120 0.693020
vt 0.475577 0.702882
vt 0.475555 0.713259
vt 0.490504 0.713105
vt 0.490043 0.703035
vt 0.504033 0.702529
vt 0.491209 0.723510
vt 0.505428 0.722633
vt 0.504624 0.712378
vt 0.476523 0.723971
vt 0.492075 0.734228
vt 0.506414 0.733399
vt 0.492950 0.745066
vt 0.507338 0.744227
vt 0.477889 0.745659
vt 0.476976 0.734692
vt 0.527572 0.731654
vt 0.526399 0.720767
vt 0.553132 0.740608
vt 0.552140 0.729451
vt 0.550746 0.718408
vt 0.528533 0.742612
vt 0.525281 0.710506
vt 0.549207 0.708062
vt 0.547500 0.698601
vt 0.524218 0.700856
vt 0.523205 0.691804
vt 0.522307 0.682239
vt 0.503672 0.682747
vt 0.503682 0.692980
vt 0.545602 0.690213
vt 0.543437 0.681481
vt 0.521590 0.671048
vt 0.504102 0.670846
vt 0.504698 0.658073
vt 0.520888 0.659039
vt 0.540927 0.670988
vt 0.538186 0.659729
vt 0.520037 0.647017
vt 0.535326 0.648698
vt 0.533128 0.635315
vt 0.519630 0.632915
vt 0.506033 0.630565
vt 0.505185 0.645223
vt 0.491206 0.643205
vt 0.492237 0.628312
vt 0.477680 0.628607
vt 0.490724 0.656554
vt 0.476470 0.656640
vt 0.480319 0.643383
vt 0.473857 0.649270
vt 0.472171 0.660904
vt 0.470515 0.641663
vt 0.475349 0.669406
vt 0.471519 0.671973
vt 0.469683 0.670292
vt 0.466367 0.667951
vt 0.462792 0.680651
vt 0.468302 0.683099
vt 0.459901 0.691183
vt 0.457297 0.690664
vt 0.453138 0.701004
vt 0.455832 0.701384
vt 0.451468 0.712416
vt 0.449022 0.712250
vt 0.447310 0.724163
vt 0.445104 0.724117
vt 0.444873 0.736339
vt 0.447381 0.736224
vt 0.445492 0.748653
vt 0.447773 0.748428
vt 0.449887 0.760601
vt 0.447450 0.760949
vt 0.451123 0.772748
vt 0.453450 0.772305
vt 0.457083 0.783396
vt 0.471283 0.811171
vt 0.472605 0.809887
vt 0.468186 0.801874
vt 0.462145 0.793376
vt 0.466205 0.802519
vt 0.469465 0.812169
vt 0.474932 0.822043
vt 0.475467 0.817998
vt 0.479560 0.828812
vt 0.477269 0.818213
vt 0.476035 0.809190
vt 0.478170 0.809545
vt 0.479408 0.820421
vt 0.482440 0.821035
vt 0.484480 0.832129
vt 0.481760 0.809122
vt 0.497193 0.817895
vt 0.509643 0.803931
vt 0.496396 0.806269
vt 0.510483 0.815091
vt 0.511862 0.826878
vt 0.498363 0.830143
vt 0.500054 0.842526
vt 0.513872 0.838995
vt 0.528387 0.835858
vt 0.527345 0.812145
vt 0.527620 0.823753
vt 0.483607 0.841009
vt 0.488340 0.858271
vt 0.517367 0.854919
vt 0.503735 0.860235
vt 0.477549 0.848623
vt 0.498358 0.898341
vt 0.471370 0.851966
vt 0.479165 0.887089
vt 0.480065 0.889829
vt 0.497076 0.898982
vt 0.477927 0.888066
vt 0.476872 0.885501
vt 0.474539 0.873545
vt 0.472372 0.863367
vt 0.469522 0.851564
vt 0.466051 0.839288
vt 0.463613 0.827059
vt 0.462021 0.827692
vt 0.467904 0.838581
vt 0.457593 0.817121
vt 0.454491 0.807309
vt 0.452932 0.807922
vt 0.459265 0.816444
vt 0.469054 0.824871
vt 0.478489 0.833151
vt 0.460153 0.794098
vt 0.449475 0.798130
vt 0.454869 0.784053
vt 0.444031 0.787538
vt 0.447915 0.798694
vt 0.442423 0.788036
vt 0.437368 0.776210
vt 0.435305 0.763179
vt 0.433659 0.763478
vt 0.438996 0.775807
vt 0.433108 0.750068
vt 0.432557 0.736893
vt 0.431449 0.750260
vt 0.430888 0.736974
vt 0.432054 0.723830
vt 0.433733 0.723858
vt 0.436716 0.711169
vt 0.435027 0.711036
vt 0.440739 0.699225
vt 0.439049 0.699004
vt 0.445038 0.688427
vt 0.443361 0.688146
vt 0.447771 0.677247
vt 0.449430 0.677561
vt 0.453736 0.665416
vt 0.452085 0.665095
vt 0.457576 0.652476
vt 0.456035 0.652191
vt 0.461002 0.639302
vt 0.459353 0.639034
vt 0.461886 0.626623
vt 0.465306 0.615080
vt 0.463483 0.615956
vt 0.463665 0.626585
vt 0.477229 0.610332
vt 0.461075 0.679900
vt 0.466970 0.601499
vt 0.483688 0.586361
vt 0.478974 0.588871
vt 0.482490 0.585868
vt 0.485428 0.585043
vt 0.483866 0.585115
vt 0.490766 0.585903
vt 0.506570 0.594962
vt 0.518897 0.592218
vt 0.529656 0.592770
vt 0.494301 0.610122
vt 0.507711 0.612363
vt 0.520257 0.614664
vt 0.532338 0.594538
vt 0.532372 0.616995
vt 0.467387 0.598770
vt 0.465710 0.600830
vt 0.464924 0.603467
vt 0.498722 0.899513
vt 0.500251 0.899307
vt 0.513325 0.893006
vt 0.514564 0.894342
vt 0.526925 0.890024
vt 0.538616 0.885866
vt 0.538215 0.884232
vt 0.526299 0.888485
vt 0.547041 0.882395
vt 0.549609 0.880139
vt 0.531068 0.853495
vt 0.545679 0.861975
vt 0.543288 0.846455
vt 0.543252 0.832918
vt 0.544508 0.820697
vt 0.545992 0.809127
vt 0.547639 0.798375
vt 0.527987 0.791249
vt 0.527491 0.801241
vt 0.549385 0.788610
vt 0.551016 0.779457
vt 0.528564 0.781797
vt 0.528955 0.772513
vt 0.552321 0.770542
vt 0.553177 0.761332
vt 0.529013 0.753084
vt 0.529118 0.763056
vt 0.553462 0.751294
vt 0.508385 0.764725
vt 0.507955 0.754665
vt 0.508745 0.774414
vt 0.494846 0.776175
vt 0.493680 0.755832
vt 0.494301 0.766282
vt 0.478608 0.757163
vt 0.479684 0.768358
vt 0.480004 0.778580
vt 0.477007 0.789050
vt 0.480424 0.788378
vt 0.475908 0.768923
vt 0.476525 0.779212
vt 0.472747 0.757753
vt 0.473601 0.769280
vt 0.475048 0.757497
vt 0.474294 0.779679
vt 0.466180 0.781415
vt 0.471897 0.790143
vt 0.470855 0.797678
vt 0.475300 0.799636
vt 0.474796 0.789593
vt 0.477462 0.799125
vt 0.480935 0.798420
vt 0.495819 0.795753
vt 0.509246 0.793694
vt 0.509033 0.783987
vt 0.495342 0.785877
vt 0.471801 0.746005
vt 0.471149 0.734906
vt 0.470525 0.724092
vt 0.469814 0.713186
vt 0.469060 0.702553
vt 0.468648 0.692609
vt 0.463619 0.695030
vt 0.471510 0.702752
vt 0.472072 0.713240
vt 0.472777 0.724049
vt 0.473434 0.734792
vt 0.474154 0.745823
vt 0.471537 0.682682
vt 0.475290 0.682541
vt 0.490313 0.670118
vt 0.490023 0.682754
vt 0.383700 0.509604
vt 0.387387 0.457067
vt 0.364305 0.460168
vt 0.411534 0.452439
vt 0.439933 0.495160
vt 0.348334 0.513259
vt 0.355768 0.514684
vt 0.374740 0.512712
vt 0.394688 0.509497
vt 0.375032 0.514526
vt 0.356198 0.516629
vt 0.394864 0.511151
vt 0.339078 0.517161
vt 0.320394 0.515198
vt 0.321031 0.516967
vt 0.338516 0.515304
vt 0.320003 0.512985
vt 0.310024 0.490055
vt 0.322972 0.462530
vt 0.302445 0.462475
vt 0.306889 0.486582
vt 0.303452 0.474449
vt 0.311748 0.499110
vt 0.318030 0.513470
vt 0.318713 0.515147
vt 0.319299 0.516812
vt 0.328062 0.532678
vt 0.326616 0.536659
vt 0.328515 0.537115
vt 0.345185 0.537650
vt 0.341921 0.526752
vt 0.360854 0.537260
vt 0.378275 0.535221
vt 0.396641 0.531906
vt 0.415042 0.516507
vt 0.415092 0.527272
vt 0.431735 0.522114
vt 0.432897 0.501806
vt 0.414934 0.506794
vt 0.431716 0.524797
vt 0.396862 0.534505
vt 0.415163 0.529949
vt 0.444669 0.516801
vt 0.444695 0.519664
vt 0.445057 0.522475
vt 0.432016 0.527694
vt 0.415398 0.532617
vt 0.397077 0.537213
vt 0.378817 0.540495
vt 0.378637 0.537850
vt 0.361333 0.539855
vt 0.361496 0.542459
vt 0.379594 0.558886
vt 0.362257 0.562854
vt 0.398250 0.557380
vt 0.416689 0.549214
vt 0.434073 0.554580
vt 0.446893 0.536651
vt 0.457918 0.517139
vt 0.456778 0.544330
vt 0.461788 0.530454
vt 0.459500 0.516247
vt 0.459032 0.513080
vt 0.457453 0.513813
vt 0.457458 0.510256
vt 0.459250 0.509081
vt 0.460676 0.493030
vt 0.459385 0.489336
vt 0.445529 0.505923
vt 0.446437 0.496301
vt 0.459614 0.487300
vt 0.446607 0.494217
vt 0.432947 0.499955
vt 0.458692 0.484712
vt 0.461592 0.436837
vt 0.448045 0.442311
vt 0.433001 0.447211
vt 0.462861 0.447074
vt 0.462766 0.439057
vt 0.462276 0.460904
vt 0.461193 0.484658
vt 0.461097 0.486435
vt 0.461010 0.488235
vt 0.414828 0.504556
vt 0.462560 0.542358
vt 0.459947 0.558836
vt 0.461837 0.556202
vt 0.459798 0.570792
vt 0.454004 0.589112
vt 0.454317 0.572981
vt 0.456618 0.584949
vt 0.452693 0.598105
vt 0.446895 0.609651
vt 0.448417 0.609696
vt 0.442784 0.620302
vt 0.434220 0.629233
vt 0.434785 0.630504
vt 0.441585 0.619563
vt 0.437277 0.616327
vt 0.425649 0.632528
vt 0.443525 0.602558
vt 0.430085 0.608756
vt 0.414725 0.627588
vt 0.413092 0.643970
vt 0.400077 0.610910
vt 0.399955 0.647389
vt 0.416743 0.602387
vt 0.424799 0.637715
vt 0.424727 0.639290
vt 0.399938 0.649215
vt 0.412918 0.645646
vt 0.386241 0.647966
vt 0.386366 0.649640
vt 0.373223 0.647055
vt 0.362028 0.640167
vt 0.361527 0.641593
vt 0.373169 0.645311
vt 0.352028 0.634304
vt 0.346978 0.625706
vt 0.345473 0.626233
vt 0.353107 0.633252
vt 0.357795 0.624128
vt 0.369381 0.621377
vt 0.340691 0.612770
vt 0.382474 0.598473
vt 0.365872 0.597327
vt 0.384587 0.625372
vt 0.352392 0.601735
vt 0.335131 0.585011
vt 0.334070 0.593653
vt 0.337088 0.605901
vt 0.340836 0.616920
vt 0.331625 0.580648
vt 0.329823 0.568026
vt 0.330760 0.560719
vt 0.328735 0.556921
vt 0.328041 0.543629
vt 0.329746 0.543363
vt 0.327735 0.540152
vt 0.329453 0.540172
vt 0.345990 0.543181
vt 0.345798 0.540391
vt 0.346665 0.559307
vt 0.336262 0.567566
vt 0.348727 0.579619
vt 0.363605 0.578490
vt 0.380755 0.576700
vt 0.399662 0.588546
vt 0.399078 0.573955
vt 0.417478 0.569963
vt 0.417493 0.584789
vt 0.433532 0.580433
vt 0.447251 0.561372
vt 0.444094 0.587934
vt 0.432123 0.594791
vt 0.301839 0.465503
vt 0.342696 0.461927
vt 0.989512 0.865604
vt 0.990420 0.866209
vt 0.989233 0.864145
vt 0.993980 0.864727
vt 0.989396 0.848965
vt 0.989493 0.707813
vt 0.989208 0.709151
vt 0.990372 0.707349
vt 0.992721 0.707296
vt 0.993908 0.709105
vt 0.993605 0.707735
vt 0.994039 0.728837
vt 0.989340 0.728836
vt 0.989447 0.747497
vt 0.994146 0.747489
vt 0.994230 0.767648
vt 0.989531 0.767659
vt 0.989572 0.789234
vt 0.994271 0.789222
vt 0.989552 0.812132
vt 0.994250 0.812121
vt 0.989486 0.833121
vt 0.994186 0.833172
vt 0.994079 0.849202
vt 0.993681 0.866175
vt 0.992806 0.866549
vt 0.961649 0.838172
vt 0.960508 0.828545
vt 0.951508 0.825868
vt 0.953467 0.837162
vt 0.959752 0.820396
vt 0.948687 0.808604
vt 0.946033 0.792581
vt 0.942215 0.770021
vt 0.955826 0.791455
vt 0.951845 0.768453
vt 0.957679 0.803117
vt 0.958938 0.812371
vt 0.908758 0.988131
vt 0.900621 0.997552
vt 0.903992 0.995444
vt 0.899951 0.994696
vt 0.903287 0.987118
vt 0.908091 0.977744
vt 0.917445 0.970538
vt 0.911829 0.969499
vt 0.913662 0.978775
vt 0.915417 0.961469
vt 0.925421 0.953784
vt 0.919777 0.952739
vt 0.921050 0.962512
vt 0.924555 0.943370
vt 0.930205 0.944415
vt 0.935052 0.934465
vt 0.929400 0.933419
vt 0.933939 0.923306
vt 0.943459 0.914495
vt 0.937800 0.913448
vt 0.939593 0.924353
vt 0.940828 0.904686
vt 0.948990 0.898995
vt 0.942869 0.897862
vt 0.946605 0.905755
vt 0.944843 0.891744
vt 0.954354 0.886334
vt 0.947671 0.885097
vt 0.951332 0.892945
vt 0.950680 0.878259
vt 0.957415 0.879507
vt 0.959882 0.872809
vt 0.953197 0.871565
vt 0.954873 0.864370
vt 0.962498 0.857354
vt 0.955358 0.856028
vt 0.961621 0.865628
vt 0.954829 0.846854
vt 0.962504 0.848147
vt 0.950279 0.760784
vt 0.935677 0.744875
vt 0.945262 0.743430
vt 0.941884 0.734441
vt 0.948067 0.752302
vt 0.932336 0.735889
vt 0.938455 0.753744
vt 0.928879 0.726651
vt 0.935241 0.715574
vt 0.925757 0.717025
vt 0.938398 0.725200
vt 0.923036 0.706532
vt 0.932489 0.705082
vt 0.930208 0.693246
vt 0.920786 0.694691
vt 0.919155 0.681970
vt 0.927664 0.667406
vt 0.918293 0.668839
vt 0.928550 0.680531
vt 0.926901 0.640877
vt 0.926649 0.627346
vt 0.917323 0.628762
vt 0.917563 0.642298
vt 0.917871 0.655535
vt 0.927223 0.654109
vt 0.926422 0.613152
vt 0.925391 0.599114
vt 0.916113 0.600507
vt 0.922729 0.586055
vt 0.917106 0.614562
vt 0.913549 0.587401
vt 0.910383 0.576421
vt 0.919339 0.574853
vt 0.916120 0.566388
vt 0.907582 0.568740
vt 0.904972 0.563035
vt 0.913083 0.559793
vt 0.910247 0.554203
vt 0.902379 0.557984
vt 0.899429 0.552606
vt 0.907149 0.548459
vt 0.898996 0.551830
vt 0.906625 0.547851
vt 0.905792 0.547365
vt 0.904952 0.546994
vt 0.904423 0.546681
vt 0.900707 0.547969
vt 0.898098 0.550185
vt 0.898675 0.549492
vt 0.902860 0.546570
vt 0.940644 0.762223
s 1
usemtl 1001
f 4/1/1 2/2/2 1/3/3
f 1/3/3 3/4/4 6/5/5
f 1/3/3 5/6/6 4/1/1
f 6/5/5 5/6/6 1/3/3
f 9/7/7 5/6/6 6/5/5
f 6/5/5 10/8/8 7/9/9
f 7/9/9 8/10/10 6/5/5
f 6/5/5 3/4/4 249/11/11
f 6/5/5 8/10/10 9/7/7
f 249/11/11 10/8/8 6/5/5
f 7/9/9 10/8/8 11/12/12
f 11/12/12 10/8/8 249/11/11
f 11/12/12 16/13/13 7/9/9
f 11/12/12 13/14/14 12/15/15
f 12/15/15 16/13/13 11/12/12
f 14/16/16 13/14/14 11/12/12
f 249/11/11 15/17/17 11/12/12
f 11/12/12 15/17/17 14/16/16
f 7/9/9 16/13/13 17/18/18
f 17/18/18 16/13/13 12/15/15
f 17/18/18 22/19/19 7/9/9
f 20/20/20 18/21/21 17/18/18
f 17/18/18 18/21/21 21/22/22
f 12/15/15 19/23/23 17/18/18
f 17/18/18 19/23/23 20/20/20
f 21/22/22 22/19/19 17/18/18
f 7/9/9 22/19/19 23/24/24
f 23/24/24 22/19/19 21/22/22
f 23/24/24 26/25/25 24/26/26
f 24/26/26 25/27/27 23/24/24
f 23/24/24 8/10/10 7/9/9
f 9/7/7 8/10/10 23/24/24
f 23/24/24 25/27/27 9/7/7
f 21/22/22 26/25/25 23/24/24
f 9/7/7 25/27/27 27/28/28
f 27/28/28 25/27/27 24/26/26
f 27/28/28 32/29/29 28/30/30
f 28/30/30 31/31/31 27/28/28
f 24/26/26 29/32/32 27/28/28
f 27/28/28 29/32/32 30/33/33
f 27/28/28 31/31/31 9/7/7
f 30/33/33 32/29/29 27/28/28
f 28/30/30 32/29/29 33/34/34
f 33/34/34 32/29/29 30/33/33
f 33/34/34 34/35/35 28/30/30
f 35/36/36 34/35/35 33/34/34
f 33/34/34 38/37/37 35/36/36
f 30/33/33 36/38/38 33/34/34
f 33/34/34 36/38/38 37/39/39
f 37/39/39 38/37/37 33/34/34
f 35/36/36 38/37/37 39/40/40
f 39/40/40 38/37/37 37/39/39
f 39/40/40 44/41/41 40/42/42
f 40/42/42 42/43/43 39/40/40
f 39/40/40 42/43/43 41/44/44
f 41/44/44 43/45/45 39/40/40
f 39/40/40 43/45/45 35/36/36
f 37/39/39 44/41/41 39/40/40
f 35/36/36 43/45/45 45/46/46
f 45/46/46 43/45/45 41/44/44
f 41/44/44 46/47/47 45/46/46
f 45/46/46 46/47/47 48/48/48
f 45/46/46 47/49/49 35/36/36
f 50/50/50 47/49/49 45/46/46
f 45/46/46 49/51/51 50/50/50
f 48/48/48 49/51/51 45/46/46
f 50/50/50 49/51/51 52/52/52
f 52/52/52 49/51/51 48/48/48
f 53/53/53 50/50/50 52/52/52
f 48/48/48 51/54/54 52/52/52
f 253/55/55 50/50/50 53/53/53
f 53/53/53 54/56/56 253/55/55
f 53/53/53 56/57/57 54/56/56
f 55/58/58 56/57/57 53/53/53
f 53/53/53 52/52/52 55/58/58
f 56/57/57 58/59/59 57/60/60
f 57/60/60 58/59/59 59/61/61
f 58/59/59 160/62/62 59/61/61
f 59/61/61 160/62/62 159/63/63
f 159/63/63 60/64/64 59/61/61
f 61/65/65 60/64/64 159/63/63
f 159/63/63 63/66/66 61/65/65
f 61/65/65 63/66/66 62/67/67
f 62/67/67 161/68/68 64/69/69
f 63/66/66 161/68/68 62/67/67
f 62/67/67 64/69/69 65/70/70
f 65/70/70 64/69/69 133/71/71
f 133/71/71 66/72/72 65/70/70
f 67/73/73 66/72/72 133/71/71
f 133/71/71 132/74/74 67/73/73
f 67/73/73 132/74/74 131/75/75
f 131/75/75 68/76/76 67/73/73
f 69/77/77 68/76/76 131/75/75
f 73/78/78 72/79/79 71/80/80
f 70/81/81 74/82/82 71/80/80
f 71/80/80 74/82/82 73/78/78
f 73/78/78 118/83/83 75/84/84
f 74/82/82 118/83/83 73/78/78
f 76/85/85 72/79/79 73/78/78
f 73/78/78 75/84/84 76/85/85
f 76/85/85 75/84/84 77/86/86
f 77/86/86 78/87/87 76/85/85
f 76/85/85 78/87/87 72/79/79
f 78/87/87 79/88/88 72/79/79
f 80/89/89 79/88/88 78/87/87
f 78/87/87 81/90/90 80/89/89
f 77/86/86 81/90/90 78/87/87
f 80/89/89 81/90/90 84/91/91
f 84/91/91 81/90/90 77/86/86
f 77/86/86 82/92/92 84/91/91
f 84/91/91 83/93/93 80/89/89
f 85/94/94 84/91/91 82/92/92
f 83/93/93 84/91/91 85/94/94
f 87/95/95 86/96/96 85/94/94
f 85/94/94 86/96/96 83/93/93
f 85/94/94 88/97/97 87/95/95
f 90/98/98 88/97/97 85/94/94
f 82/92/92 89/99/99 85/94/94
f 85/94/94 89/99/99 90/98/98
f 90/98/98 89/99/99 95/100/100
f 90/98/98 91/101/101 92/102/102
f 95/100/100 91/101/101 90/98/98
f 94/103/103 88/97/97 90/98/98
f 92/102/102 93/104/104 90/98/98
f 90/98/98 93/104/104 94/103/103
f 95/100/100 89/99/99 82/92/92
f 82/92/92 96/105/105 95/100/100
f 95/100/100 96/105/105 99/106/106
f 97/107/107 91/101/101 95/100/100
f 95/100/100 98/108/108 97/107/107
f 99/106/106 98/108/108 95/100/100
f 99/106/106 96/105/105 100/109/109
f 99/106/106 181/110/110 98/108/108
f 108/111/111 103/112/112 99/106/106
f 103/112/112 181/110/110 99/106/106
f 181/110/110 103/112/112 102/113/113
f 181/110/110 102/113/113 101/114/114
f 104/115/115 102/113/113 103/112/112
f 103/112/112 105/116/116 104/115/115
f 103/112/112 106/117/117 105/116/116
f 107/118/118 106/117/117 103/112/112
f 108/111/111 109/119/119 107/118/118
f 103/112/112 108/111/111 107/118/118
f 110/120/120 109/119/119 108/111/111
f 111/121/121 112/122/122 110/120/120
f 110/120/120 119/123/123 111/121/121
f 108/111/111 119/123/123 110/120/120
f 113/124/124 112/122/122 111/121/121
f 114/125/125 115/126/126 113/124/124
f 113/124/124 116/127/127 114/125/125
f 111/121/121 116/127/127 113/124/124
f 116/127/127 111/121/121 117/128/128
f 116/127/127 118/83/83 114/125/125
f 117/128/128 118/83/83 116/127/127
f 117/128/128 75/84/84 118/83/83
f 117/128/128 111/121/121 119/123/123
f 119/123/123 120/129/129 117/128/128
f 120/129/129 75/84/84 117/128/128
f 100/109/109 96/105/105 120/129/129
f 77/86/86 120/129/129 96/105/105
f 75/84/84 120/129/129 77/86/86
f 119/123/123 108/111/111 100/109/109
f 100/109/109 120/129/129 119/123/123
f 118/83/83 74/82/82 114/125/125
f 114/125/125 74/82/82 121/130/130
f 123/131/131 121/130/130 122/132/132
f 114/125/125 121/130/130 123/131/131
f 122/132/132 124/133/133 123/131/131
f 125/134/134 123/131/131 124/133/133
f 114/125/125 123/131/131 125/134/134
f 124/133/133 126/135/135 125/134/134
f 125/134/134 115/126/126 114/125/125
f 127/136/136 126/135/135 124/133/133
f 128/137/137 129/138/138 127/136/136
f 127/136/136 130/139/139 128/137/137
f 124/133/133 130/139/139 127/136/136
f 130/139/139 124/133/133 122/132/132
f 132/74/74 128/137/137 130/139/139
f 130/139/139 131/75/75 132/74/74
f 122/132/132 131/75/75 130/139/139
f 134/140/140 133/71/71 64/69/69
f 132/74/74 133/71/71 134/140/140
f 64/69/69 135/141/141 134/140/140
f 134/140/140 128/137/137 132/74/74
f 136/142/142 134/140/140 135/141/141
f 128/137/137 134/140/140 136/142/142
f 135/141/141 137/143/143 136/142/142
f 136/142/142 129/138/138 128/137/137
f 138/144/144 137/143/143 135/141/141
f 135/141/141 142/145/145 138/144/144
f 138/144/144 142/145/145 140/146/146
f 140/146/146 139/147/147 138/144/144
f 140/146/146 141/148/148 143/149/149
f 143/149/149 139/147/147 140/146/146
f 144/150/150 145/151/151 143/149/149
f 143/149/149 141/148/148 144/150/150
f 146/152/152 145/151/151 144/150/150
f 144/150/150 150/153/153 146/152/152
f 146/152/152 150/153/153 148/154/154
f 148/154/154 147/155/155 146/152/152
f 148/154/154 149/156/156 151/157/157
f 151/157/157 147/155/155 148/154/154
f 152/158/158 153/159/159 151/157/157
f 151/157/157 149/156/156 152/158/158
f 154/160/160 153/159/159 152/158/158
f 155/161/161 156/162/162 154/160/160
f 154/160/160 157/163/163 155/161/161
f 152/158/158 157/163/163 154/160/160
f 157/163/163 152/158/158 51/54/54
f 162/164/164 155/161/161 157/163/163
f 157/163/163 48/48/48 162/164/164
f 51/54/54 48/48/48 157/163/163
f 51/54/54 152/158/158 149/156/156
f 149/156/156 52/52/52 51/54/54
f 55/58/58 52/52/52 149/156/156
f 149/156/156 148/154/154 55/58/58
f 55/58/58 148/154/154 150/153/153
f 150/153/153 158/165/165 55/58/58
f 160/62/62 158/165/165 150/153/153
f 141/148/148 159/63/63 160/62/62
f 160/62/62 144/150/150 141/148/148
f 150/153/153 144/150/150 160/62/62
f 58/59/59 158/165/165 160/62/62
f 55/58/58 158/165/165 58/59/59
f 63/66/66 159/63/63 141/148/148
f 63/66/66 140/146/146 142/145/145
f 142/145/145 161/68/68 63/66/66
f 141/148/148 140/146/146 63/66/66
f 64/69/69 161/68/68 142/145/145
f 163/166/166 155/161/161 162/164/164
f 162/164/164 166/167/167 163/166/166
f 164/168/168 163/166/166 166/167/167
f 166/167/167 165/169/169 164/168/168
f 166/167/167 168/170/170 167/171/171
f 167/171/171 165/169/169 166/167/167
f 169/172/172 168/170/170 166/167/167
f 169/172/172 166/167/167 170/173/173
f 170/173/173 177/174/174 171/175/175
f 171/175/175 169/172/172 170/173/173
f 172/176/176 170/173/173 166/167/167
f 172/176/176 173/177/177 170/173/173
f 48/48/48 46/47/47 172/176/176
f 172/176/176 46/47/47 41/44/44
f 41/44/44 173/177/177 172/176/176
f 166/167/167 162/164/164 172/176/176
f 172/176/176 162/164/164 48/48/48
f 170/173/173 173/177/177 174/178/178
f 174/178/178 173/177/177 41/44/44
f 175/179/179 177/174/174 174/178/178
f 174/178/178 177/174/174 170/173/173
f 41/44/44 42/43/43 174/178/178
f 174/178/178 176/180/180 175/179/179
f 40/42/42 176/180/180 174/178/178
f 174/178/178 42/43/43 40/42/42
f 177/174/174 175/179/179 171/175/175
f 164/168/168 178/181/181 163/166/166
f 163/166/166 178/181/181 179/182/182
f 179/182/182 180/183/183 163/166/166
f 155/161/161 163/166/166 180/183/183
f 180/183/183 156/162/162 155/161/161
f 142/145/145 135/141/141 64/69/69
f 122/132/132 121/130/130 70/81/81
f 70/81/81 121/130/130 74/82/82
f 70/81/81 69/77/77 122/132/132
f 122/132/132 69/77/77 131/75/75
f 181/110/110 101/114/114 182/184/184
f 182/184/184 183/185/185 181/110/110
f 184/186/186 181/110/110 183/185/185
f 183/185/185 185/187/187 184/186/186
f 184/186/186 185/187/187 186/188/188
f 186/188/188 187/189/189 188/190/190
f 186/188/188 189/191/191 184/186/186
f 188/190/190 189/191/191 186/188/188
f 191/192/192 190/193/193 188/190/190
f 188/190/190 187/189/189 191/192/192
f 195/194/194 188/190/190 190/193/193
f 190/193/193 192/195/195 195/194/194
f 195/194/194 192/195/195 193/196/196
f 193/196/196 194/197/197 92/102/102
f 92/102/102 195/194/194 193/196/196
f 97/107/107 195/194/194 92/102/102
f 92/102/102 194/197/197 196/198/198
f 196/198/198 93/104/104 92/102/102
f 94/103/103 93/104/104 196/198/198
f 196/198/198 197/199/199 94/103/103
f 94/103/103 197/199/199 198/200/200
f 200/201/201 199/202/202 198/200/200
f 198/200/200 199/202/202 94/103/103
f 198/200/200 201/203/203 200/201/201
f 200/201/201 201/203/203 202/204/204
f 202/204/204 203/205/205 200/201/201
f 204/206/206 203/205/205 202/204/204
f 202/204/204 205/207/207 204/206/206
f 204/206/206 205/207/207 206/208/208
f 208/209/209 207/210/210 206/208/208
f 206/208/208 207/210/210 204/206/206
f 206/208/208 209/211/211 208/209/209
f 208/209/209 209/211/211 20/20/20
f 211/212/212 207/210/210 208/209/209
f 208/209/209 19/23/23 12/15/15
f 12/15/15 210/213/213 208/209/209
f 208/209/209 210/213/213 211/212/212
f 20/20/20 19/23/23 208/209/209
f 204/206/206 207/210/210 211/212/212
f 211/212/212 212/214/214 204/206/206
f 213/215/215 212/214/214 211/212/212
f 211/212/212 210/213/213 215/216/216
f 211/212/212 214/217/217 213/215/215
f 215/216/216 214/217/217 211/212/212
f 14/16/16 216/218/218 215/216/216
f 215/216/216 216/218/218 217/219/219
f 12/15/15 13/14/14 215/216/216
f 215/216/216 13/14/14 14/16/16
f 215/216/216 210/213/213 12/15/15
f 217/219/219 214/217/217 215/216/216
f 213/215/215 214/217/217 217/219/219
f 217/219/219 218/220/220 213/215/215
f 221/221/221 219/222/222 218/220/220
f 222/223/223 220/224/224 218/220/220
f 218/220/220 220/224/224 221/221/221
f 218/220/220 217/219/219 222/223/223
f 223/225/225 226/226/226 222/223/223
f 222/223/223 224/227/227 223/225/225
f 216/218/218 224/227/227 222/223/223
f 225/228/228 220/224/224 222/223/223
f 222/223/223 226/226/226 225/228/228
f 222/223/223 217/219/219 216/218/218
f 226/226/226 223/225/225 67/73/73
f 227/229/229 225/228/228 226/226/226
f 228/230/230 225/228/228 227/229/229
f 227/229/229 69/77/77 70/81/81
f 70/81/81 228/230/230 227/229/229
f 227/229/229 226/226/226 68/76/76
f 68/76/76 69/77/77 227/229/229
f 229/231/231 228/230/230 70/81/81
f 70/81/81 71/80/80 229/231/231
f 229/231/231 230/232/232 228/230/230
f 229/231/231 71/80/80 72/79/79
f 72/79/79 230/232/232 229/231/231
f 230/232/232 79/88/88 80/89/89
f 72/79/79 79/88/88 230/232/232
f 230/232/232 231/233/233 228/230/230
f 221/221/221 231/233/233 230/232/232
f 80/89/89 232/234/234 230/232/232
f 230/232/232 232/234/234 221/221/221
f 233/235/235 232/234/234 80/89/89
f 221/221/221 232/234/234 233/235/235
f 80/89/89 83/93/93 233/235/235
f 233/235/235 219/222/222 221/221/221
f 234/236/236 233/235/235 83/93/93
f 219/222/222 233/235/235 234/236/236
f 234/236/236 86/96/96 87/95/95
f 83/93/93 86/96/96 234/236/236
f 234/236/236 236/237/237 235/238/238
f 235/238/238 237/239/239 234/236/236
f 87/95/95 236/237/237 234/236/236
f 234/236/236 237/239/239 219/222/222
f 213/215/215 237/239/239 235/238/238
f 219/222/222 237/239/239 213/215/215
f 235/238/238 236/237/237 200/201/201
f 200/201/201 236/237/237 87/95/95
f 200/201/201 203/205/205 235/238/238
f 235/238/238 203/205/205 204/206/206
f 204/206/206 212/214/214 235/238/238
f 235/238/238 212/214/214 213/215/215
f 228/230/230 231/233/233 225/228/228
f 225/228/228 231/233/233 221/221/221
f 68/76/76 226/226/226 67/73/73
f 238/240/240 66/72/72 67/73/73
f 67/73/73 223/225/225 238/240/240
f 238/240/240 239/241/241 65/70/70
f 65/70/70 66/72/72 238/240/240
f 65/70/70 239/241/241 240/242/242
f 65/70/70 240/242/242 62/67/67
f 62/67/67 240/242/242 61/65/65
f 240/242/242 243/243/243 61/65/65
f 241/244/244 60/64/64 61/65/65
f 61/65/65 243/243/243 241/244/244
f 241/244/244 242/245/245 244/246/246
f 244/246/246 60/64/64 241/244/244
f 244/246/246 59/61/61 60/64/64
f 244/246/246 242/245/245 57/60/60
f 57/60/60 59/61/61 244/246/246
f 245/247/247 241/244/244 243/243/243
f 243/243/243 247/248/248 245/247/247
f 243/243/243 240/242/242 246/249/249
f 246/249/249 247/248/248 243/243/243
f 245/247/247 247/248/248 3/4/4
f 3/4/4 247/248/248 246/249/249
f 239/241/241 248/250/250 246/249/249
f 246/249/249 248/250/250 15/17/17
f 246/249/249 249/11/11 3/4/4
f 15/17/17 249/11/11 246/249/249
f 246/249/249 240/242/242 239/241/241
f 15/17/17 248/250/250 250/251/251
f 250/251/251 14/16/16 15/17/17
f 216/218/218 14/16/16 250/251/251
f 223/225/225 224/227/227 250/251/251
f 250/251/251 238/240/240 223/225/225
f 239/241/241 238/240/240 250/251/251
f 250/251/251 224/227/227 216/218/218
f 250/251/251 248/250/250 239/241/241
f 245/247/247 2/2/2 242/245/245
f 242/245/245 241/244/244 245/247/247
f 3/4/4 1/3/3 245/247/247
f 245/247/247 1/3/3 2/2/2
f 242/245/245 2/2/2 251/252/252
f 251/252/252 252/253/253 253/55/55
f 2/2/2 252/253/253 251/252/252
f 253/55/55 54/56/56 251/252/252
f 54/56/56 57/60/60 251/252/252
f 251/252/252 57/60/60 242/245/245
f 254/254/254 253/55/55 252/253/253
f 252/253/253 255/255/255 254/254/254
f 4/1/1 255/255/255 252/253/253
f 252/253/253 2/2/2 4/1/1
f 28/30/30 255/255/255 4/1/1
f 254/254/254 255/255/255 28/30/30
f 28/30/30 34/35/35 254/254/254
f 254/254/254 47/49/49 50/50/50
f 50/50/50 253/55/55 254/254/254
f 254/254/254 34/35/35 35/36/36
f 35/36/36 47/49/49 254/254/254
f 221/221/221 220/224/224 225/228/228
f 213/215/215 218/220/220 219/222/222
f 87/95/95 199/202/202 200/201/201
f 94/103/103 199/202/202 87/95/95
f 195/194/194 97/107/107 189/191/191
f 189/191/191 188/190/190 195/194/194
f 189/191/191 97/107/107 98/108/108
f 98/108/108 184/186/186 189/191/191
f 181/110/110 184/186/186 98/108/108
f 108/111/111 99/106/106 100/109/109
f 96/105/105 82/92/92 77/86/86
f 92/102/102 91/101/101 97/107/107
f 87/95/95 88/97/97 94/103/103
f 58/59/59 56/57/57 55/58/58
f 54/56/56 56/57/57 57/60/60
f 4/1/1 31/31/31 28/30/30
f 9/7/7 31/31/31 4/1/1
f 4/1/1 5/6/6 9/7/7
s 0
f 262/256/256 261/257/256 259/258/256
f 260/259/256 261/257/256 262/256/256
f 262/256/256 327/260/256 260/259/256
f 259/258/256 274/261/256 262/256/256
s 1
f 262/256/257 274/261/258 263/262/259
f 263/262/259 265/263/260 262/256/257
f 262/256/257 265/263/260 264/264/261
f 266/265/262 265/263/260 263/262/259
f 264/264/261 265/263/260 266/265/262
f 263/262/259 268/266/263 266/265/262
f 266/265/262 267/267/264 264/264/261
f 269/268/265 268/266/263 263/262/259
f 271/269/266 272/270/267 269/268/265
f 263/262/259 270/271/268 269/268/265
f 269/268/265 270/271/268 271/269/266
f 274/261/258 273/272/269 271/269/266
f 271/269/266 270/271/268 274/261/258
f 274/261/258 270/271/268 263/262/259
s 0
f 273/272/256 274/261/256 275/273/256
f 257/274/270 256/275/270 275/273/270
s 1
f 276/276/271 275/273/272 256/275/273
f 256/275/273 277/277/274 276/276/271
f 276/276/271 278/278/275 275/273/272
f 275/273/272 278/278/275 279/279/276
f 279/279/276 273/272/269 275/273/272
f 273/272/269 279/279/276 280/280/277
f 272/270/267 271/269/266 280/280/277
f 280/280/277 281/281/278 272/270/267
f 280/280/277 271/269/266 273/272/269
f 284/282/279 272/270/267 281/281/278
f 284/282/279 281/281/278 282/283/280
f 283/284/281 284/282/279 282/283/280
f 284/282/279 283/284/281 285/285/282
f 284/282/279 285/285/282 286/286/283
f 286/286/283 272/270/267 284/282/279
f 286/286/283 269/268/265 272/270/267
f 268/266/263 269/268/265 286/286/283
f 286/286/283 285/285/282 287/287/284
f 287/287/284 268/266/263 286/286/283
f 287/287/284 288/288/285 266/265/262
f 266/265/262 268/266/263 287/287/284
f 266/265/262 288/288/285 289/289/286
f 289/289/286 267/267/264 266/265/262
f 290/290/287 267/267/264 289/289/286
f 290/290/287 293/291/288 291/292/289
f 291/292/289 292/293/290 290/290/287
f 292/293/290 340/294/291 290/290/287
f 290/290/287 340/294/291 267/267/264
f 289/289/286 293/291/288 290/290/287
f 296/295/292 291/292/289 293/291/288
f 293/291/288 289/289/286 295/296/293
f 295/296/293 294/297/294 293/291/288
f 293/291/288 294/297/294 296/295/292
f 297/298/295 291/292/289 296/295/292
f 296/295/292 298/299/296 297/298/295
f 299/300/297 298/299/296 296/295/292
f 296/295/292 301/301/298 299/300/297
f 300/302/299 301/301/298 296/295/292
f 296/295/292 294/297/294 300/302/299
f 295/296/293 302/303/300 300/302/299
f 300/302/299 294/297/294 295/296/293
f 303/304/301 302/303/300 295/296/293
f 303/304/301 306/305/302 304/306/303
f 304/306/303 305/307/304 303/304/301
f 295/296/293 306/305/302 303/304/301
f 307/308/305 303/304/301 305/307/304
f 302/303/300 303/304/301 307/308/305
f 305/307/304 309/309/306 307/308/305
f 307/308/305 308/310/307 302/303/300
f 302/303/300 308/310/307 310/311/308
f 301/301/298 300/302/299 310/311/308
f 406/312/309 301/301/298 310/311/308
f 310/311/308 300/302/299 302/303/300
f 312/313/310 301/301/298 406/312/309
f 316/314/311 299/300/297 312/313/310
f 311/315/312 316/314/311 312/313/310
f 312/313/310 299/300/297 301/301/298
f 313/316/313 316/314/311 311/315/312
f 315/317/314 316/314/311 313/316/313
f 316/314/311 315/317/314 318/318/315
f 318/318/315 317/319/316 316/314/311
f 319/320/317 317/319/316 318/318/315
f 318/318/315 320/321/318 319/320/317
f 320/321/318 338/322/319 319/320/317
f 319/320/317 322/323/320 321/324/321
f 321/324/321 297/298/295 319/320/317
f 321/324/321 323/325/322 292/293/290
f 322/323/320 323/325/322 321/324/321
f 321/324/321 292/293/290 291/292/289
f 291/292/289 297/298/295 321/324/321
f 323/325/322 322/323/320 324/326/323
f 324/326/323 326/327/324 323/325/322
f 325/328/325 292/293/290 323/325/322
f 323/325/322 326/327/324 325/328/325
f 325/328/325 326/327/324 327/260/326
f 327/260/326 326/327/324 324/326/323
f 324/326/323 335/329/327 327/260/326
s 0
f 335/329/270 328/330/270 327/260/270
f 329/331/256 330/332/256 327/260/256
f 327/260/328 328/330/328 329/331/328
f 327/260/256 330/332/256 260/259/256
s 1
f 328/330/329 332/333/330 331/334/331
f 333/335/332 332/333/330 328/330/329
f 333/335/332 328/330/329 335/329/327
f 334/336/333 333/335/332 335/329/327
f 336/337/334 334/336/333 335/329/327
f 322/323/320 337/338/335 336/337/334
f 336/337/334 324/326/323 322/323/320
f 335/329/327 324/326/323 336/337/334
f 338/322/319 337/338/335 322/323/320
f 338/322/319 322/323/320 319/320/317
f 325/328/325 327/260/326 339/339/336
f 339/339/336 262/256/257 264/264/261
f 325/328/325 339/339/336 340/294/291
f 340/294/291 339/339/336 264/264/261
f 264/264/261 267/267/264 340/294/291
f 340/294/291 292/293/290 325/328/325
s 0
f 262/256/337 339/339/337 327/260/337
s 1
f 317/319/316 319/320/317 297/298/295
f 299/300/297 316/314/311 317/319/316
f 297/298/295 298/299/296 317/319/316
f 317/319/316 298/299/296 299/300/297
f 314/340/338 313/316/313 344/341/339
f 344/341/339 341/342/340 314/340/338
f 342/343/341 341/342/340 344/341/339
f 344/341/339 313/316/313 311/315/312
f 342/343/341 344/341/339 346/344/342
f 346/344/342 344/341/339 343/345/343
f 346/344/342 347/346/344 342/343/341
f 348/347/345 347/346/344 346/344/342
f 349/348/346 350/349/347 348/347/345
f 348/347/345 346/344/342 349/348/346
f 351/350/348 350/349/347 349/348/346
f 352/351/349 353/352/350 351/350/348
f 351/350/348 354/353/351 352/351/349
f 349/348/346 354/353/351 351/350/348
f 355/354/352 352/351/349 354/353/351
f 356/355/353 352/351/349 355/354/352
f 355/354/352 345/356/354 357/357/355
f 357/357/355 356/355/353 355/354/352
f 355/354/352 354/353/351 345/356/354
f 358/358/356 356/355/353 357/357/355
f 358/358/356 360/359/357 356/355/353
f 411/360/358 359/361/359 358/358/356
f 357/357/355 410/362/360 358/358/356
f 358/358/356 410/362/360 411/360/358
f 359/361/359 360/359/357 358/358/356
f 360/359/357 361/363/361 356/355/353
f 362/364/362 361/363/361 360/359/357
f 360/359/357 359/361/359 364/365/363
f 360/359/357 363/366/143 362/364/362
f 364/365/363 363/366/143 360/359/357
f 365/367/364 366/368/365 364/365/363
f 364/365/363 359/361/359 365/367/364
f 367/369/366 366/368/365 365/367/364
f 368/370/367 369/371/368 367/369/366
f 367/369/366 375/372/369 368/370/367
f 365/367/364 375/372/369 367/369/366
f 370/373/370 369/371/368 368/370/367
f 371/374/371 372/375/372 370/373/370
f 370/373/370 373/376/373 371/374/371
f 368/370/367 373/376/373 370/373/370
f 373/376/373 368/370/367 374/377/374
f 374/377/374 371/374/371 373/376/373
f 375/372/369 376/378/375 374/377/374
f 374/377/374 368/370/367 375/372/369
f 381/379/376 371/374/371 374/377/374
f 401/380/377 378/381/378 376/378/375
f 376/378/375 377/382/379 401/380/377
f 376/378/375 378/381/378 380/383/380
f 380/383/380 374/377/374 376/378/375
f 377/382/379 359/361/359 411/360/358
f 375/372/369 365/367/364 377/382/379
f 377/382/379 365/367/364 359/361/359
f 377/382/379 376/378/375 375/372/369
f 379/384/381 381/379/376 380/383/380
f 381/379/376 374/377/374 380/383/380
f 381/379/376 379/384/381 384/385/382
f 381/379/376 383/386/383 382/387/384
f 384/385/382 383/386/383 381/379/376
f 379/384/381 385/388/385 384/385/382
f 386/389/386 385/388/385 379/384/381
f 379/384/381 387/390/387 386/389/386
f 387/390/387 388/391/388 386/389/386
f 389/392/389 388/391/388 387/390/387
f 387/390/387 390/393/390 389/392/389
f 391/394/391 389/392/389 390/393/390
f 283/284/281 282/283/280 391/394/391
f 391/394/391 392/395/392 283/284/281
f 390/393/390 392/395/392 391/394/391
f 285/285/282 283/284/281 392/395/392
f 392/395/392 390/393/390 394/396/393
f 392/395/392 393/397/394 285/285/282
f 394/396/393 393/397/394 392/395/392
f 394/396/393 305/307/304 304/306/303
f 304/306/303 393/397/394 394/396/393
f 390/393/390 387/390/387 396/398/395
f 396/398/395 394/396/393 390/393/390
f 396/398/395 309/309/306 305/307/304
f 305/307/304 394/396/393 396/398/395
f 396/398/395 387/390/387 395/399/396
f 397/400/397 396/398/395 395/399/396
f 309/309/306 396/398/395 397/400/397
f 379/384/381 380/383/380 397/400/397
f 397/400/397 380/383/380 378/381/378
f 378/381/378 398/401/398 397/400/397
f 395/399/396 379/384/381 397/400/397
f 397/400/397 398/401/398 309/309/306
f 309/309/306 398/401/398 399/402/399
f 399/402/399 398/401/398 378/381/378
f 399/402/399 307/308/305 309/309/306
f 308/310/307 307/308/305 399/402/399
f 399/402/399 401/380/377 400/403/400
f 400/403/400 402/404/401 399/402/399
f 378/381/378 401/380/377 399/402/399
f 399/402/399 402/404/401 308/310/307
f 403/405/402 402/404/401 400/403/400
f 308/310/307 402/404/401 403/405/402
f 406/312/309 310/311/308 403/405/402
f 403/405/402 310/311/308 308/310/307
f 400/403/400 405/406/403 403/405/402
f 403/405/402 405/406/403 404/407/404
f 404/407/404 406/312/309 403/405/402
f 407/408/405 406/312/309 404/407/404
f 407/408/405 344/341/339 311/315/312
f 311/315/312 312/313/310 407/408/405
f 404/407/404 408/409/406 407/408/405
f 407/408/405 408/409/406 343/345/343
f 407/408/405 312/313/310 406/312/309
f 343/345/343 344/341/339 407/408/405
f 404/407/404 409/410/407 408/409/406
f 408/409/406 409/410/407 357/357/355
f 357/357/355 345/356/354 408/409/406
f 345/356/354 346/344/342 408/409/406
f 408/409/406 346/344/342 343/345/343
f 357/357/355 409/410/407 410/362/360
f 410/362/360 409/410/407 404/407/404
f 410/362/360 405/406/403 400/403/400
f 400/403/400 411/360/358 410/362/360
f 404/407/404 405/406/403 410/362/360
f 401/380/377 411/360/358 400/403/400
f 395/399/396 387/390/387 379/384/381
f 285/285/282 393/397/394 304/306/303
f 371/374/371 381/379/376 382/387/384
f 382/387/384 372/375/372 371/374/371
f 401/380/377 377/382/379 411/360/358
f 352/351/349 361/363/361 362/364/362
f 362/364/362 353/352/350 352/351/349
f 356/355/353 361/363/361 352/351/349
f 345/356/354 354/353/351 349/348/346
f 349/348/346 346/344/342 345/356/354
f 304/306/303 306/305/302 288/288/285
f 288/288/285 306/305/302 295/296/293
f 288/288/285 287/287/284 304/306/303
f 304/306/303 287/287/284 285/285/282
f 295/296/293 289/289/286 288/288/285
f 412/411/408 277/277/274 256/275/273
s 0
f 257/274/256 275/273/256 274/261/256
f 259/258/256 258/412/256 274/261/256
f 274/261/256 258/412/256 257/274/256
s 1
f 413/413/409 415/414/410 414/415/411
f 414/415/411 416/416/412 417/417/413
s 0
f 424/418/414 423/419/415 429/420/415
f 425/421/416 427/422/416 426/423/416
s 1
f 428/424/417 427/422/418 429/420/419
f 429/420/419 427/422/418 425/421/420
f 422/425/421 428/424/417 429/420/419
f 429/420/419 423/419/422 422/425/421
f 430/426/423 428/424/417 422/425/421
f 430/426/423 431/427/423 428/424/417
f 432/428/424 431/427/423 430/426/423
f 430/426/423 421/429/425 432/428/424
f 432/428/424 421/429/425 420/430/426
f 420/430/426 433/431/427 432/428/424
f 420/430/426 419/432/428 434/433/429
f 434/433/429 433/431/427 420/430/426
f 434/433/429 419/432/428 418/434/430
f 418/434/430 435/435/431 434/433/429
f 436/436/432 435/435/431 418/434/430
f 418/434/430 417/417/413 436/436/432
f 436/436/432 417/417/413 416/416/412
f 414/415/411 437/437/433 416/416/412
f 438/438/434 437/437/433 414/415/411
f 414/415/411 415/414/410 438/438/434
usemtl 1002
f 440/439/435 442/440/436 439/441/437
f 439/441/437 441/442/438 440/439/435
f 439/441/437 442/440/436 450/443/439
f 443/444/440 439/441/437 450/443/439
s 0
f 444/445/441 443/444/441 450/443/441
s 1
f 450/443/442 445/446/443 444/445/444
f 445/446/443 447/447/445 446/448/446
f 450/443/442 448/449/447 447/447/445
f 447/447/445 445/446/443 450/443/442
f 449/450/448 448/449/447 450/443/442
f 468/451/449 470/452/450 469/453/450
f 471/454/450 470/452/450 468/451/449
f 468/451/449 472/455/451 471/454/450
f 473/456/452 472/455/451 468/451/449
f 466/457/453 474/458/454 473/456/452
f 473/456/452 467/459/455 466/457/453
f 468/451/449 467/459/455 473/456/452
f 475/460/456 474/458/454 466/457/453
f 464/461/457 476/462/458 475/460/456
f 475/460/456 465/463/459 464/461/457
f 466/457/453 465/463/459 475/460/456
f 477/464/460 476/462/458 464/461/457
f 464/461/457 463/465/461 477/464/460
f 477/464/460 463/465/461 462/466/462
f 462/466/462 478/467/463 477/464/460
f 479/468/464 478/467/463 462/466/462
f 460/469/465 480/470/466 479/468/464
f 462/466/462 461/471/464 479/468/464
f 479/468/464 461/471/464 460/469/465
f 481/472/467 480/470/466 460/469/465
f 458/473/468 482/474/469 481/472/467
f 460/469/465 459/475/470 481/472/467
f 481/472/467 459/475/470 458/473/468
f 483/476/471 482/474/469 458/473/468
f 456/477/472 484/478/473 483/476/471
f 483/476/471 457/479/474 456/477/472
f 458/473/468 457/479/474 483/476/471
f 485/480/475 484/478/473 456/477/472
f 456/477/472 455/481/476 485/480/475
f 454/482/477 486/483/478 485/480/475
f 485/480/475 455/481/476 454/482/477
f 487/484/479 486/483/478 454/482/477
f 452/485/480 488/486/481 487/484/479
f 487/484/479 453/487/482 452/485/480
f 454/482/477 453/487/482 487/484/479
f 489/488/483 488/486/481 452/485/480
f 452/485/480 451/489/484 489/488/483
f 489/488/483 451/489/484 440/439/435
f 440/439/435 441/442/438 489/488/483
f 445/446/443 446/448/446 490/490/485
f 494/491/486 492/492/487 493/493/488
f 491/494/489 492/492/487 494/491/486
f 493/493/488 496/495/490 494/491/486
f 494/491/486 495/496/491 491/494/489
f 497/497/492 496/495/490 493/493/488
f 499/498/493 498/499/494 497/497/492
f 497/497/492 500/500/495 499/498/493
f 493/493/488 500/500/495 497/497/492
f 503/501/496 501/502/497 502/503/498
f 499/498/493 501/502/497 503/501/496
f 503/501/496 498/499/494 499/498/493
f 502/503/498 504/504/499 503/501/496
f 505/505/500 504/504/499 502/503/498
f 507/506/501 506/507/502 505/505/500
f 505/505/500 508/508/503 507/506/501
f 502/503/498 508/508/503 505/505/500
f 510/509/504 513/510/505 511/511/506
f 511/511/506 512/512/507 510/509/504
f 510/509/504 512/512/507 514/513/508
f 514/513/508 509/514/509 510/509/504
f 507/506/501 509/514/509 514/513/508
f 514/513/508 506/507/502 507/506/501
f 515/515/510 516/516/511 518/517/512
f 518/517/512 516/516/511 517/518/513
f 518/517/512 519/519/514 515/515/510
f 517/518/513 520/520/515 518/517/512
f 521/521/516 520/520/515 517/518/513
f 517/518/513 522/522/517 521/521/516
f 521/521/516 522/522/517 523/523/518
f 523/523/518 524/524/519 521/521/516
f 525/525/520 524/524/519 523/523/518
f 523/523/518 526/526/521 525/525/520
f 525/525/520 526/526/521 527/527/522
f 527/527/522 528/528/523 525/525/520
f 529/529/524 528/528/523 527/527/522
f 527/527/522 534/530/525 529/529/524
f 530/531/526 531/532/527 532/533/528
f 529/529/524 531/532/527 530/531/526
f 532/533/528 533/534/529 530/531/526
f 530/531/526 533/534/529 536/535/530
f 529/529/524 534/530/525 531/532/527
f 536/535/530 535/536/531 537/537/532
f 537/537/532 530/531/526 536/535/530
s 0
f 538/538/256 537/537/256 535/536/256
f 535/536/533 536/535/533 539/539/533
s 1
f 515/515/510 519/519/514 511/511/506
f 511/511/506 513/510/505 515/515/510
f 491/494/489 495/496/491 540/540/534
f 445/446/443 490/490/485 540/540/534
f 540/540/534 490/490/485 491/494/489
