# Blender 5.1.2
# www.blender.org
mtllib r1.mtl
o r1
v 0.698035 -0.145172 0.622429
v 0.661401 -0.176011 0.626971
v 0.664041 -0.146452 0.632893
v 0.693896 -0.172888 0.618243
v 0.666153 -0.116519 0.636555
v 0.700984 -0.116084 0.625206
v 0.718986 -0.166495 0.609961
v 0.724938 -0.142170 0.611566
v 0.728419 -0.114860 0.612852
v 0.755461 -0.090553 0.598540
v 0.731730 -0.078220 0.613017
v 0.754883 -0.113054 0.598519
v 0.749850 -0.140572 0.599486
v 0.702583 -0.083197 0.627207
v 0.667218 -0.078755 0.639098
v 0.728583 -0.044972 0.614189
v 0.752312 -0.045165 0.598354
v 0.702825 -0.044912 0.627472
v 0.668121 -0.045094 0.638795
v 0.751974 -0.040410 0.597388
v 0.702911 -0.040418 0.626475
v 0.728423 -0.040392 0.613273
v 0.751777 -0.036652 0.594288
v 0.728232 -0.036671 0.610203
v 0.702637 -0.036757 0.623472
v 0.753575 -0.040770 0.595701
v 0.754274 -0.032745 0.586495
v 0.754035 -0.037974 0.593147
v 0.753155 -0.015216 0.565991
v 0.755290 -0.015296 0.563820
v 0.755336 -0.013913 0.559382
v 0.753069 -0.013219 0.560102
v 0.752653 -0.013217 0.506014
v 0.728553 -0.013217 0.521804
v 0.755085 -0.013988 0.504686
v 0.702139 -0.013217 0.534561
v 0.664901 -0.013217 0.545313
v 0.623219 -0.013217 0.552108
v 0.583474 -0.013217 0.552992
v 0.607824 -0.013217 0.608957
v 0.668010 -0.013320 0.601811
v 0.717054 -0.013217 0.582762
v 0.629215 -0.013963 0.611011
v 0.703184 -0.014001 0.593035
v 0.729575 -0.014190 0.580058
v 0.754887 -0.013888 0.562057
v 0.668633 -0.015080 0.605466
v 0.553651 -0.013960 0.609096
v 0.591055 -0.014083 0.612613
v 0.520848 -0.014116 0.602194
v 0.487568 -0.013679 0.590876
v 0.486941 -0.013217 0.587366
v 0.539684 -0.013217 0.602686
v 0.512224 -0.013217 0.543843
v 0.476393 -0.013214 0.536032
v 0.546273 -0.013217 0.549670
v 0.482461 -0.014189 0.576757
v 0.473927 -0.013994 0.535675
v 0.484637 -0.013966 0.587264
v 0.485783 -0.014127 0.590041
v 0.485730 -0.015312 0.592290
v 0.492198 -0.033484 0.619069
v 0.488287 -0.015000 0.593780
v 0.496326 -0.037015 0.626437
v 0.525267 -0.036915 0.635270
v 0.494579 -0.040067 0.627855
v 0.496817 -0.040481 0.629746
v 0.525492 -0.040451 0.638594
v 0.497094 -0.045133 0.631269
v 0.494638 -0.044400 0.629801
v 0.494743 -0.082069 0.634883
v 0.492230 -0.033581 0.619215
v 0.493838 -0.038271 0.626017
v 0.485809 -0.015580 0.592699
v 0.485643 -0.014041 0.590085
v 0.482495 -0.014197 0.576912
v 0.484502 -0.016459 0.590273
v 0.492973 -0.041627 0.626339
v 0.485666 -0.079908 0.606318
v 0.493211 -0.077890 0.631879
v 0.488910 -0.112563 0.619980
v 0.493713 -0.112563 0.635400
v 0.495395 -0.138385 0.637305
v 0.496780 -0.137950 0.639678
v 0.495164 -0.112598 0.637795
v 0.497460 -0.090813 0.637098
v 0.497667 -0.112700 0.639043
v 0.507694 -0.138634 0.642331
v 0.499251 -0.137876 0.640863
v 0.512309 -0.177533 0.641895
v 0.517040 -0.174986 0.641978
v 0.503206 -0.159249 0.642036
v 0.500696 -0.160023 0.640823
v 0.510057 -0.179347 0.640504
v 0.528549 -0.195933 0.638452
v 0.499383 -0.160565 0.638470
v 0.524316 -0.202978 0.621380
v 0.507593 -0.182300 0.631594
v 0.494008 -0.163753 0.618297
v 0.501738 -0.188675 0.606969
v 0.487182 -0.139032 0.609166
v 0.483360 -0.111728 0.599537
v 0.486835 -0.166882 0.587541
v 0.481771 -0.169017 0.564492
v 0.493058 -0.196317 0.566473
v 0.476120 -0.140161 0.560767
v 0.473780 -0.112563 0.556602
v 0.473266 -0.084067 0.551382
v 0.476928 -0.077269 0.567710
v 0.473095 -0.052513 0.544491
v 0.473086 -0.016327 0.536040
v 0.473927 -0.013994 0.535675
v 0.516698 -0.213627 0.587095
v 0.512307 -0.219246 0.565408
v 0.520798 -0.208155 0.606510
v 0.540731 -0.234778 0.562024
v 0.547583 -0.222941 0.600756
v 0.585550 -0.221325 0.613090
v 0.583670 -0.227489 0.598170
v 0.551242 -0.215943 0.618074
v 0.581643 -0.233681 0.578738
v 0.579543 -0.239887 0.557051
v 0.622476 -0.228674 0.589504
v 0.621878 -0.239168 0.550974
v 0.660429 -0.231548 0.565966
v 0.660871 -0.237218 0.544279
v 0.659882 -0.225814 0.585385
v 0.693516 -0.220205 0.576288
v 0.695648 -0.230509 0.537711
v 0.723224 -0.210565 0.553704
v 0.725336 -0.215517 0.532017
v 0.747054 -0.194129 0.527623
v 0.755578 -0.166231 0.546645
v 0.757923 -0.168236 0.524957
v 0.762278 -0.140320 0.523525
v 0.764451 -0.112867 0.522832
v 0.764145 -0.084168 0.520470
v 0.760569 -0.052520 0.538957
v 0.761061 -0.052515 0.514034
v 0.756230 -0.016300 0.504771
v 0.756088 -0.015679 0.561488
v 0.755085 -0.013988 0.504686
v 0.755288 -0.013968 0.549258
v 0.755018 -0.013969 0.562075
v 0.755288 -0.015313 0.563845
v 0.754288 -0.032640 0.586368
v 0.757011 -0.025618 0.559915
v 0.759714 -0.057597 0.569690
v 0.755731 -0.028109 0.576665
v 0.762034 -0.084175 0.565140
v 0.760283 -0.112867 0.578547
v 0.762512 -0.111334 0.557704
v 0.759157 -0.139630 0.563227
v 0.749976 -0.162603 0.580749
v 0.755421 -0.138988 0.587750
v 0.753004 -0.164322 0.566015
v 0.741552 -0.187342 0.566732
v 0.717952 -0.201053 0.587946
v 0.735095 -0.181904 0.590892
v 0.720851 -0.205711 0.573109
v 0.745619 -0.159858 0.597868
v 0.753413 -0.138427 0.596949
v 0.731828 -0.178836 0.601091
v 0.713686 -0.194682 0.605023
v 0.730129 -0.177025 0.602955
v 0.742700 -0.159251 0.600613
v 0.757036 -0.112914 0.596644
v 0.757837 -0.087927 0.596422
v 0.756484 -0.069305 0.597067
v 0.755088 -0.041672 0.593160
v 0.754311 -0.044369 0.596331
v 0.758779 -0.086522 0.593655
v 0.757641 -0.066068 0.593639
v 0.758052 -0.112867 0.593967
v 0.754035 -0.037974 0.593147
v 0.712471 -0.191789 0.607300
v 0.690817 -0.201752 0.612394
v 0.658192 -0.208393 0.619204
v 0.689231 -0.206010 0.610826
v 0.657990 -0.211814 0.617284
v 0.659127 -0.219953 0.600268
v 0.691622 -0.213747 0.593688
v 0.623124 -0.214419 0.622437
v 0.622944 -0.221777 0.606973
v 0.554477 -0.208822 0.633172
v 0.623304 -0.212691 0.624686
v 0.555608 -0.206584 0.636118
v 0.587932 -0.212924 0.630089
v 0.623090 -0.209746 0.626209
v 0.588170 -0.209486 0.632013
v 0.556002 -0.195114 0.638856
v 0.555528 -0.172662 0.643433
v 0.588694 -0.175863 0.640381
v 0.529049 -0.166333 0.643671
v 0.530377 -0.193109 0.640263
v 0.554943 -0.143770 0.647812
v 0.527025 -0.141030 0.645551
v 0.526102 -0.113993 0.645388
v 0.554669 -0.115034 0.649182
v 0.555061 -0.085652 0.648744
v 0.524376 -0.075641 0.642731
v 0.497085 -0.067596 0.634271
v 0.525609 -0.044976 0.639944
v 0.555452 -0.045210 0.646210
v 0.589927 -0.045088 0.648523
v 0.554419 -0.040450 0.644759
v 0.589924 -0.040444 0.647293
v 0.554046 -0.036932 0.641477
v 0.589923 -0.036866 0.644086
v 0.628471 -0.036804 0.642125
v 0.668136 -0.036803 0.634607
v 0.668132 -0.040430 0.637730
v 0.628874 -0.040436 0.645261
v 0.629672 -0.045172 0.646302
v 0.629496 -0.083088 0.646897
v 0.588486 -0.077486 0.649960
v 0.627742 -0.116372 0.645146
v 0.589564 -0.115852 0.649229
v 0.626548 -0.146437 0.641403
v 0.589150 -0.145557 0.646403
v 0.625125 -0.176719 0.634800
vn 0.2408 -0.2249 0.9442
vn 0.3122 -0.2017 0.9284
vn 0.3387 -0.1533 0.9283
vn 0.2547 -0.1686 0.9522
vn 0.2618 -0.0996 0.9600
vn 0.3811 -0.1762 0.9076
vn 0.3597 -0.0948 0.9283
vn 0.4433 -0.0722 0.8934
vn 0.4103 -0.1263 0.9032
vn 0.3729 -0.0380 0.9271
vn 0.5768 -0.0467 0.8155
vn 0.5917 -0.0037 0.8062
vn 0.4902 -0.0078 0.8716
vn 0.5495 -0.1400 0.8237
vn 0.2573 -0.0297 0.9659
vn 0.3786 0.1001 0.9201
vn 0.6155 0.1263 0.7779
vn 0.5019 0.1052 0.8585
vn 0.7704 0.0532 0.6353
vn 0.2488 0.1110 0.9622
vn 0.6121 0.3779 0.6946
vn 0.4674 0.4011 0.7878
vn 0.3512 0.4190 0.8373
vn 0.3780 0.6723 0.6365
vn 0.2738 0.6974 0.6623
vn 0.5195 0.6214 0.5865
vn 0.7482 0.3240 0.5789
vn 0.7803 0.4241 0.4596
vn 0.7889 0.4690 0.3971
vn 0.4211 0.7624 0.4913
vn 0.7391 0.5560 0.3803
vn 0.3318 0.9221 0.1993
vn 0.6444 0.7634 0.0449
vn 0.2347 0.9665 0.1042
vn -0.0000 1.0000 -0.0000
vn 0.6604 0.7509 -0.0033
vn 0.2681 0.9628 0.0341
vn 0.0019 1.0000 0.0017
vn 0.1674 0.9021 0.3976
vn 0.1205 0.9646 0.2347
vn 0.0953 0.9107 0.4020
vn 0.0037 0.9682 0.2503
vn 0.0409 0.9168 0.3973
vn 0.1311 0.8488 0.5121
vn 0.2446 0.8838 0.3988
vn -0.0501 0.9751 0.2158
vn -0.0563 0.9244 0.3773
vn -0.0110 0.9172 0.3983
vn -0.1082 0.9110 0.3979
vn -0.2365 0.9211 0.3093
vn -0.2555 0.9575 0.1337
vn 0.0001 1.0000 -0.0000
vn -0.6934 0.7043 0.1521
vn -0.7265 0.6712 0.1473
vn -0.3163 0.9461 0.0695
vn -0.6534 0.7307 0.1978
vn -0.5226 0.7885 0.3243
vn -0.2784 0.8081 0.5191
vn -0.6669 0.6117 0.4254
vn -0.3548 0.6845 0.6369
vn -0.7072 0.4893 0.5104
vn -0.1694 0.7381 0.6531
vn -0.6648 0.4487 0.5972
vn -0.4096 0.4279 0.8057
vn -0.2210 0.4803 0.8488
vn -0.2458 0.1838 0.9517
vn -0.3833 0.1992 0.9019
vn -0.6629 0.2109 0.7184
vn -0.3750 0.1217 0.9190
vn -0.6712 0.0757 0.7374
vn -0.9124 0.0478 0.4064
vn -0.8931 0.1598 0.4205
vn -0.6530 0.4747 0.5901
vn -0.6961 0.5049 0.5104
vn -0.6765 0.5572 0.4814
vn -0.9334 0.2503 0.2571
vn -0.5921 0.7455 0.3061
vn -0.6874 0.7124 0.1413
vn -0.9765 0.0309 0.2134
vn -0.9673 0.0294 0.2521
vn -0.9605 -0.0146 0.2780
vn -0.9132 -0.0004 0.4076
vn -0.9120 -0.0899 0.4001
vn -0.6743 -0.0332 0.7377
vn -0.6779 0.0358 0.7343
vn -0.3273 0.0630 0.9428
vn -0.3597 0.0806 0.9296
vn -0.3013 0.0180 0.9534
vn -0.1573 0.0100 0.9875
vn -0.2457 -0.0807 0.9660
vn -0.5557 -0.4838 0.6761
vn -0.1844 -0.1899 0.9643
vn -0.0444 -0.0860 0.9953
vn -0.6334 -0.1896 0.7502
vn -0.0815 -0.2921 0.9529
vn -0.3483 -0.6538 0.6717
vn -0.8669 -0.2782 0.4136
vn -0.7351 -0.5738 0.3611
vn -0.4977 -0.7670 0.4050
vn -0.9174 -0.2842 0.2784
vn -0.7891 -0.5343 0.3031
vn -0.9615 -0.1082 0.2528
vn -0.9322 -0.2703 0.2407
vn -0.9714 -0.0152 0.2371
vn -0.9690 -0.1065 0.2229
vn -0.9353 -0.2652 0.2345
vn -0.8183 -0.5062 0.2724
vn -0.9759 -0.0163 0.2176
vn -0.9773 0.0264 0.2101
vn -0.9761 0.0458 0.2125
vn -0.9559 0.2111 0.2040
vn -0.6903 0.7092 0.1436
vn -0.5666 -0.7609 0.3164
vn -0.5783 -0.7557 0.3074
vn -0.2593 -0.9139 0.3124
vn -0.2436 -0.9022 0.3559
vn -0.5367 -0.7651 0.3559
vn -0.0124 -0.9116 0.4108
vn -0.2182 -0.8807 0.4204
vn -0.0211 -0.9381 0.3458
vn -0.0244 -0.9569 0.2896
vn -0.0220 -0.9607 0.2766
vn 0.0712 -0.9621 0.2632
vn 0.0759 -0.9447 0.3189
vn 0.1643 -0.9496 0.2670
vn 0.3547 -0.8996 0.2545
vn 0.3588 -0.8807 0.3092
vn 0.1616 -0.9539 0.2530
vn 0.1748 -0.9285 0.3276
vn 0.5912 -0.7687 0.2441
vn 0.5942 -0.7706 0.2305
vn 0.8189 -0.5395 0.1958
vn 0.7884 -0.5575 0.2598
vn 0.9447 -0.2960 0.1412
vn 0.9518 -0.2781 0.1292
vn 0.9886 -0.1253 0.0838
vn 0.9793 -0.1612 0.1227
vn 0.9959 -0.0464 0.0780
vn 0.9976 -0.0388 0.0582
vn 0.9977 0.0522 0.0430
vn 0.9961 0.0374 0.0799
vn 0.9942 0.1036 0.0289
vn 0.9936 0.1107 0.0205
vn 0.9507 0.3100 0.0083
vn 0.9396 0.3260 0.1043
vn 0.6462 0.7632 -0.0026
vn 0.6643 0.7474 -0.0046
vn 0.6007 0.7637 0.2366
vn 0.7437 0.5395 0.3947
vn 0.9577 0.2091 0.1975
vn 0.7853 0.4713 0.4015
vn 0.9930 0.0931 0.0730
vn 0.9926 0.0864 0.0851
vn 0.9896 -0.0684 0.1269
vn 0.8970 -0.3620 0.2539
vn 0.9255 -0.3261 0.1926
vn 0.9537 -0.2216 0.2035
vn 0.5720 -0.7306 0.3728
vn 0.5837 -0.7532 0.3032
vn 0.7420 -0.5726 0.3486
vn 0.5276 -0.6000 0.6014
vn 0.7830 -0.3386 0.5218
vn 0.6435 -0.4779 0.5980
vn 0.8262 -0.1876 0.5312
vn 0.4020 -0.3067 0.8627
vn 0.4733 -0.2517 0.8442
vn 0.5266 -0.1908 0.8284
vn 0.8191 -0.0644 0.5701
vn 0.8296 0.0088 0.5583
vn 0.9646 -0.0809 0.2509
vn 0.9739 0.0241 0.2256
vn 0.9643 0.0825 0.2518
vn 0.8124 0.1736 0.5567
vn 0.9444 0.1832 0.2731
vn 0.3209 -0.3383 0.8846
vn 0.2254 -0.3706 0.9011
vn 0.3493 -0.6741 0.6508
vn 0.2132 -0.7216 0.6587
vn 0.1850 -0.8984 0.3984
vn 0.3605 -0.8471 0.3905
vn 0.1060 -0.8505 0.5151
vn 0.0873 -0.9133 0.3977
vn 0.0458 -0.7326 0.6791
vn 0.1513 -0.6282 0.7632
vn -0.0324 -0.5432 0.8390
vn -0.1779 -0.8283 0.5313
vn 0.1163 -0.3663 0.9232
vn 0.1769 -0.3511 0.9195
vn 0.0581 -0.2102 0.9759
vn 0.0203 -0.1690 0.9854
vn -0.0619 -0.1091 0.9921
vn 0.1047 -0.2129 0.9714
vn -0.1195 -0.0419 0.9920
vn -0.0238 -0.0963 0.9951
vn -0.1693 0.0251 0.9852
vn -0.0643 -0.0171 0.9978
vn -0.0957 0.0370 0.9947
vn -0.2194 0.0805 0.9723
vn -0.1236 0.1660 0.9784
vn 0.0086 0.0169 0.9998
vn -0.0064 0.1509 0.9885
vn -0.1255 0.4790 0.8688
vn -0.0058 0.7409 0.6716
vn -0.0994 0.7426 0.6623
vn -0.0081 0.4749 0.8800
vn 0.0783 0.7312 0.6776
vn 0.1723 0.7196 0.6727
vn 0.2235 0.4412 0.8691
vn 0.1056 0.4581 0.8826
vn 0.1303 0.1246 0.9836
vn 0.1472 -0.0203 0.9889
vn 0.0524 -0.0558 0.9971
vn 0.1601 -0.0883 0.9831
vn 0.0802 -0.1409 0.9868
vn 0.1707 -0.1662 0.9712
vn 0.1751 -0.2303 0.9572
vn -0.0014 1.0000 0.0019
vt 0.302555 0.890993
vt 0.303963 0.908177
vt 0.318644 0.910135
vt 0.318358 0.891944
vt 0.334004 0.892779
vt 0.306824 0.921782
vt 0.333881 0.911697
vt 0.333932 0.927263
vt 0.319581 0.925031
vt 0.351001 0.912723
vt 0.333995 0.942749
vt 0.347399 0.943957
vt 0.353348 0.928567
vt 0.320662 0.939080
vt 0.353436 0.893376
vt 0.370897 0.912455
vt 0.371700 0.943484
vt 0.371358 0.927982
vt 0.358571 0.945494
vt 0.370619 0.893190
vt 0.374948 0.943306
vt 0.374175 0.927889
vt 0.373490 0.912467
vt 0.377040 0.928269
vt 0.376100 0.912870
vt 0.378232 0.943612
vt 0.375884 0.945810
vt 0.378255 0.945475
vt 0.383526 0.946353
vt 0.399312 0.947756
vt 0.399844 0.949477
vt 0.401631 0.949867
vt 0.403439 0.950340
vt 0.402995 0.948584
vt 0.399056 0.925865
vt 0.431824 0.957268
vt 0.428306 0.941646
vt 0.428803 0.957669
vt 0.426203 0.924695
vt 0.398045 0.862650
vt 0.426598 0.875171
vt 0.427459 0.850464
vt 0.425907 0.901226
vt 0.396382 0.896867
vt 0.395671 0.917046
vt 0.395526 0.874300
vt 0.394219 0.896550
vt 0.397456 0.932826
vt 0.400297 0.824395
vt 0.397096 0.831919
vt 0.395816 0.852381
vt 0.398907 0.813857
vt 0.402477 0.795112
vt 0.404494 0.794662
vt 0.428602 0.827738
vt 0.430140 0.807625
vt 0.432112 0.786992
vt 0.429159 0.786507
vt 0.410816 0.791249
vt 0.405062 0.792846
vt 0.402888 0.793392
vt 0.400574 0.795527
vt 0.400965 0.793813
vt 0.377176 0.799821
vt 0.382514 0.797169
vt 0.376730 0.816529
vt 0.375527 0.797635
vt 0.374012 0.800161
vt 0.373845 0.816760
vt 0.371022 0.816772
vt 0.370826 0.800252
vt 0.370864 0.798198
vt 0.357934 0.801029
vt 0.349993 0.800301
vt 0.351290 0.798220
vt 0.371833 0.795518
vt 0.374508 0.795348
vt 0.376139 0.790871
vt 0.383392 0.774969
vt 0.382726 0.773295
vt 0.384029 0.772957
vt 0.383323 0.764838
vt 0.347973 0.767134
vt 0.348873 0.784376
vt 0.331780 0.792953
vt 0.333576 0.801208
vt 0.320541 0.804174
vt 0.320950 0.805656
vt 0.333842 0.802802
vt 0.334068 0.804401
vt 0.347075 0.802518
vt 0.321273 0.807159
vt 0.321332 0.811466
vt 0.310998 0.810675
vt 0.301272 0.814871
vt 0.302441 0.816096
vt 0.303696 0.818116
vt 0.310376 0.809262
vt 0.294823 0.825027
vt 0.293017 0.824131
vt 0.309659 0.807980
vt 0.297722 0.811662
vt 0.284822 0.819483
vt 0.304070 0.799393
vt 0.288156 0.803173
vt 0.315540 0.790194
vt 0.295521 0.786090
vt 0.329135 0.782088
vt 0.306461 0.766291
vt 0.289124 0.776004
vt 0.272738 0.788674
vt 0.323305 0.759477
vt 0.340425 0.754066
vt 0.358585 0.748563
vt 0.378910 0.742488
vt 0.380547 0.745398
vt 0.268774 0.810221
vt 0.258745 0.804355
vt 0.248416 0.824372
vt 0.268419 0.830878
vt 0.277801 0.815470
vt 0.273476 0.852609
vt 0.277567 0.833974
vt 0.265185 0.851779
vt 0.254663 0.850921
vt 0.243026 0.850049
vt 0.241904 0.877558
vt 0.262495 0.874344
vt 0.255448 0.899077
vt 0.250852 0.925912
vt 0.268957 0.915534
vt 0.244381 0.903074
vt 0.265472 0.895529
vt 0.270465 0.937777
vt 0.261709 0.945389
vt 0.275709 0.960774
vt 0.288413 0.944297
vt 0.296822 0.961191
vt 0.291608 0.971331
vt 0.308478 0.978211
vt 0.315043 0.958445
vt 0.329516 0.964563
vt 0.325389 0.982562
vt 0.342778 0.986292
vt 0.346378 0.962680
vt 0.362763 0.977891
vt 0.361082 0.991307
vt 0.381490 0.997505
vt 0.384815 0.966555
vt 0.383074 0.994412
vt 0.385498 0.973929
vt 0.385925 0.966716
vt 0.385282 0.965161
vt 0.379121 0.957457
vt 0.377843 0.952126
vt 0.379319 0.967125
vt 0.362782 0.960961
vt 0.331915 0.953823
vt 0.304938 0.945094
vt 0.301458 0.952097
vt 0.318972 0.946252
vt 0.284444 0.925581
vt 0.278337 0.930921
vt 0.296260 0.933768
vt 0.291684 0.919412
vt 0.308964 0.936850
vt 0.299711 0.929211
vt 0.320399 0.941549
vt 0.293516 0.918500
vt 0.300862 0.928001
vt 0.309829 0.934906
vt 0.333861 0.944339
vt 0.347280 0.945793
vt 0.333604 0.945916
vt 0.347267 0.947528
vt 0.359171 0.947754
vt 0.371859 0.945466
vt 0.372964 0.947682
vt 0.375798 0.947809
vt 0.288644 0.906083
vt 0.285035 0.889866
vt 0.286029 0.906353
vt 0.282846 0.890011
vt 0.273410 0.892877
vt 0.277389 0.910835
vt 0.281040 0.871986
vt 0.272206 0.873029
vt 0.283221 0.853667
vt 0.282632 0.871863
vt 0.287594 0.837331
vt 0.285610 0.836780
vt 0.285406 0.853786
vt 0.284477 0.871863
vt 0.293678 0.837426
vt 0.305338 0.836702
vt 0.308233 0.823450
vt 0.303373 0.853479
vt 0.320951 0.821362
vt 0.320256 0.835636
vt 0.334711 0.819483
vt 0.334922 0.834494
vt 0.349881 0.833462
vt 0.354627 0.817495
vt 0.370738 0.832842
vt 0.354191 0.851976
vt 0.370691 0.851739
vt 0.373525 0.832848
vt 0.375980 0.851786
vt 0.376234 0.832740
vt 0.373340 0.851760
vt 0.375880 0.872457
vt 0.375841 0.893547
vt 0.373246 0.893230
vt 0.373258 0.872290
vt 0.370583 0.872257
vt 0.351306 0.872452
vt 0.334680 0.852573
vt 0.334277 0.872430
vt 0.319374 0.853078
vt 0.318632 0.872308
vt 0.302418 0.872127
s 1
usemtl 1001
f 2/1/1 4/2/2 1/3/3
f 1/3/3 3/4/4 2/1/1
f 5/5/5 3/4/4 1/3/3
f 1/3/3 4/2/2 7/6/6
f 1/3/3 6/7/7 5/5/5
f 9/8/8 6/7/7 1/3/3
f 7/6/6 8/9/9 1/3/3
f 1/3/3 8/9/9 9/8/8
f 14/10/10 6/7/7 9/8/8
f 9/8/8 12/11/11 10/12/12
f 10/12/12 11/13/13 9/8/8
f 9/8/8 11/13/13 14/10/10
f 13/14/14 12/11/11 9/8/8
f 9/8/8 8/9/9 13/14/14
f 5/5/5 6/7/7 14/10/10
f 14/10/10 15/15/15 5/5/5
f 18/16/16 14/10/10 11/13/13
f 17/17/17 16/18/18 11/13/13
f 11/13/13 16/18/18 18/16/16
f 11/13/13 169/19/19 17/17/17
f 10/12/12 169/19/19 11/13/13
f 15/15/15 14/10/10 18/16/16
f 18/16/16 19/20/20 15/15/15
f 16/18/18 17/17/17 20/21/21
f 20/21/21 22/22/22 16/18/18
f 16/18/18 22/22/22 21/23/23
f 21/23/23 18/16/16 16/18/18
f 21/23/23 22/22/22 24/24/24
f 24/24/24 22/22/22 20/21/21
f 24/24/24 25/25/25 21/23/23
f 20/21/21 23/26/26 24/24/24
f 23/26/26 20/21/21 26/27/27
f 26/27/27 28/28/28 23/26/26
f 23/26/26 28/28/28 27/29/29
f 29/30/30 23/26/26 27/29/29
f 29/30/30 27/29/29 30/31/31
f 29/30/30 30/31/31 46/32/32
f 46/32/32 31/33/33 32/34/34
s 0
f 42/35/35 32/34/35 33/36/35
f 33/36/35 34/37/35 42/35/35
s 1
f 35/38/36 33/36/37 32/34/34
f 32/34/34 31/33/33 35/38/36
s 0
f 42/35/35 34/37/35 36/39/35
f 40/40/35 38/41/35 39/42/35
f 37/43/35 38/41/35 40/40/35
f 40/40/38 41/44/38 37/43/38
s 1
f 44/45/39 42/35/40 41/44/41
f 41/44/41 40/40/42 43/46/43
f 44/45/39 41/44/41 47/47/44
f 44/45/39 45/48/45 42/35/40
f 42/35/40 45/48/45 46/32/32
f 45/48/45 29/30/30 46/32/32
f 32/34/34 42/35/40 46/32/32
f 23/26/26 29/30/30 45/48/45
f 45/48/45 24/24/24 23/26/26
f 25/25/25 24/24/24 45/48/45
f 45/48/45 44/45/39 25/25/25
f 25/25/25 44/45/39 47/47/44
f 40/40/42 53/49/46 48/50/47
f 48/50/47 49/51/48 40/40/42
f 53/49/46 50/52/49 48/50/47
f 51/53/50 50/52/49 53/49/46
f 53/49/46 52/54/51 51/53/50
s 0
f 53/49/35 56/55/35 54/56/35
f 39/42/35 56/55/35 53/49/35
f 53/49/35 40/40/35 39/42/35
f 54/56/52 55/57/52 52/54/52
f 52/54/35 53/49/35 54/56/35
s 1
f 58/58/53 57/59/54 55/57/55
f 57/59/54 52/54/51 55/57/55
f 57/59/54 59/60/56 52/54/51
f 52/54/51 59/60/56 60/61/57
f 60/61/57 51/53/50 52/54/51
f 63/62/58 51/53/50 60/61/57
f 60/61/57 61/63/59 63/62/58
f 64/64/60 63/62/58 61/63/59
f 61/63/59 62/65/61 64/64/60
f 63/62/58 64/64/60 50/52/49
f 51/53/50 63/62/58 50/52/49
f 64/64/60 65/66/62 50/52/49
f 62/65/61 66/67/63 64/64/60
f 66/67/63 67/68/64 64/64/60
f 65/66/62 64/64/60 67/68/64
f 67/68/64 68/69/65 65/66/62
f 203/70/66 68/69/65 67/68/64
f 67/68/64 69/71/67 203/70/66
f 69/71/67 67/68/64 66/67/63
f 66/67/63 70/72/68 69/71/67
f 202/73/69 69/71/67 70/72/68
f 70/72/68 71/74/70 202/73/69
f 80/75/71 71/74/70 70/72/68
f 70/72/68 78/76/72 80/75/71
f 78/76/72 70/72/68 66/67/63
f 78/76/72 73/77/73 72/78/74
f 66/67/63 73/77/73 78/76/72
f 78/76/72 72/78/74 74/79/75
f 74/79/75 77/80/76 78/76/72
f 77/80/76 74/79/75 75/81/77
f 77/80/76 75/81/77 76/82/78
f 109/83/79 79/84/80 77/80/76
f 79/84/80 78/76/72 77/80/76
f 79/84/80 80/75/71 78/76/72
f 81/85/81 82/86/82 80/75/71
f 80/75/71 79/84/80 81/85/81
f 82/86/82 83/87/83 84/88/84
f 84/88/84 85/89/85 82/86/82
f 82/86/82 85/89/85 71/74/70
f 71/74/70 80/75/71 82/86/82
f 71/74/70 85/89/85 87/90/86
f 87/90/86 85/89/85 84/88/84
f 87/90/86 86/91/87 71/74/70
f 84/88/84 89/92/88 87/90/86
f 87/90/86 89/92/88 88/93/89
f 92/94/90 89/92/88 84/88/84
f 88/93/89 89/92/88 92/94/90
f 94/95/91 90/96/92 92/94/90
f 92/94/90 90/96/92 91/97/93
f 84/88/84 93/98/94 92/94/90
f 92/94/90 93/98/94 94/95/91
f 195/99/95 90/96/92 94/95/91
f 94/95/91 95/100/96 195/99/95
f 94/95/91 93/98/94 96/101/97
f 98/102/98 94/95/91 96/101/97
f 96/101/97 93/98/94 84/88/84
f 84/88/84 83/87/83 96/101/97
f 97/103/99 95/100/96 98/102/98
f 98/102/98 96/101/97 99/104/100
f 95/100/96 94/95/91 98/102/98
f 100/105/101 98/102/98 99/104/100
f 83/87/83 101/106/102 99/104/100
f 99/104/100 96/101/97 83/87/83
f 81/85/81 101/106/102 83/87/83
f 103/107/103 99/104/100 101/106/102
f 81/85/81 102/108/104 101/106/102
f 106/109/105 104/110/106 103/107/103
f 103/107/103 104/110/106 105/111/107
f 105/111/107 100/105/101 103/107/103
f 100/105/101 99/104/100 103/107/103
f 103/107/103 101/106/102 106/109/105
f 102/108/104 107/112/108 106/109/105
f 106/109/105 101/106/102 102/108/104
f 108/113/109 107/112/108 102/108/104
f 109/83/79 110/114/110 108/113/109
f 102/108/104 109/83/79 108/113/109
f 111/115/111 110/114/110 109/83/79
f 109/83/79 77/80/76 111/115/111
f 112/116/112 111/115/111 77/80/76
f 77/80/76 76/82/78 112/116/112
f 79/84/80 109/83/79 102/108/104
f 113/117/113 100/105/101 105/111/107
f 105/111/107 114/118/114 113/117/113
f 113/117/113 114/118/114 116/119/115
f 117/120/116 115/121/117 113/117/113
f 113/117/113 115/121/117 100/105/101
f 116/119/115 117/120/116 113/117/113
f 118/122/118 120/123/119 117/120/116
f 117/120/116 119/124/120 118/122/118
f 121/125/121 119/124/120 117/120/116
f 117/120/116 120/123/119 97/103/99
f 97/103/99 115/121/117 117/120/116
f 116/119/115 122/126/122 121/125/121
f 121/125/121 122/126/122 124/127/123
f 121/125/121 117/120/116 116/119/115
f 123/128/124 119/124/120 121/125/121
f 124/127/123 123/128/124 121/125/121
f 125/129/125 123/128/124 124/127/123
f 129/130/126 128/131/127 125/129/125
f 124/127/123 126/132/128 125/129/125
f 125/129/125 126/132/128 129/130/126
f 128/131/127 127/133/129 125/129/125
f 125/129/125 127/133/129 123/128/124
f 130/134/130 128/131/127 129/130/126
f 129/130/126 131/135/131 130/134/130
f 130/134/130 131/135/131 132/136/132
f 132/136/132 157/137/133 130/134/130
f 133/138/134 157/137/133 132/136/132
f 132/136/132 134/139/135 133/138/134
f 133/138/134 134/139/135 135/140/136
f 135/140/136 153/141/137 133/138/134
f 152/142/138 153/141/137 135/140/136
f 135/140/136 136/143/139 152/142/138
f 152/142/138 136/143/139 137/144/140
f 137/144/140 150/145/141 152/142/138
f 138/146/142 150/145/141 137/144/140
f 137/144/140 139/147/143 138/146/142
f 138/146/142 139/147/143 140/148/144
f 140/148/144 141/149/145 138/146/142
f 141/149/145 140/148/144 142/150/146
f 142/150/146 143/151/147 141/149/145
f 143/151/147 144/152/148 141/149/145
f 144/152/148 145/153/149 141/149/145
f 149/154/150 141/149/145 145/153/149
f 145/153/149 146/155/151 149/154/150
f 147/156/152 141/149/145 149/154/150
f 147/156/152 149/154/150 148/157/153
f 147/156/152 148/157/153 138/146/142
f 138/146/142 141/149/145 147/156/152
f 138/146/142 148/157/153 150/145/141
f 151/158/154 152/142/138 150/145/141
f 153/141/137 152/142/138 151/158/154
f 154/159/155 156/160/156 153/141/137
f 153/141/137 155/161/157 154/159/155
f 151/158/154 155/161/157 153/141/137
f 153/141/137 156/160/156 133/138/134
f 157/137/133 156/160/156 154/159/155
f 133/138/134 156/160/156 157/137/133
f 158/162/158 160/163/159 157/137/133
f 157/137/133 159/164/160 158/162/158
f 154/159/155 159/164/160 157/137/133
f 157/137/133 160/163/159 130/134/130
f 128/131/127 160/163/159 158/162/158
f 130/134/130 160/163/159 128/131/127
f 159/164/160 164/165/161 158/162/158
f 154/159/155 161/166/162 159/164/160
f 159/164/160 163/167/163 164/165/161
f 161/166/162 163/167/163 159/164/160
f 155/161/157 162/168/164 161/166/162
f 176/169/165 164/165/161 163/167/163
f 163/167/163 165/170/166 176/169/165
f 166/171/167 165/170/166 163/167/163
f 163/167/163 161/166/162 166/171/167
f 166/171/167 161/166/162 162/168/164
f 162/168/164 13/14/14 166/171/167
f 165/170/166 166/171/167 7/6/6
f 7/6/6 166/171/167 13/14/14
f 12/11/11 13/14/14 162/168/164
f 12/11/11 167/172/168 168/173/169
f 162/168/164 167/172/168 12/11/11
f 168/173/169 10/12/12 12/11/11
f 168/173/169 167/172/168 174/174/170
f 169/19/19 10/12/12 168/173/169
f 174/174/170 172/175/171 168/173/169
f 168/173/169 172/175/171 173/176/172
f 173/176/172 169/19/19 168/173/169
f 171/177/173 169/19/19 173/176/172
f 173/176/172 170/178/174 171/177/173
f 148/157/153 173/176/172 172/175/171
f 170/178/174 173/176/172 148/157/153
f 172/175/171 150/145/141 148/157/153
f 151/158/154 150/145/141 172/175/171
f 172/175/171 174/174/170 151/158/154
f 151/158/154 174/174/170 155/161/157
f 146/155/151 175/179/28 170/178/174
f 170/178/174 175/179/28 26/27/27
f 26/27/27 171/177/173 170/178/174
f 146/155/151 170/178/174 149/154/150
f 17/17/17 171/177/173 26/27/27
f 26/27/27 20/21/21 17/17/17
f 171/177/173 17/17/17 169/19/19
f 148/157/153 149/154/150 170/178/174
f 174/174/170 162/168/164 155/161/157
f 174/174/170 167/172/168 162/168/164
f 7/6/6 176/169/165 165/170/166
f 177/180/175 176/169/165 7/6/6
f 2/1/1 178/181/176 177/180/175
f 7/6/6 4/2/2 177/180/175
f 177/180/175 4/2/2 2/1/1
f 179/182/177 177/180/175 178/181/176
f 176/169/165 177/180/175 179/182/177
f 178/181/176 180/183/178 179/182/177
f 179/182/177 164/165/161 176/169/165
f 181/184/179 182/185/180 179/182/177
f 179/182/177 180/183/178 181/184/179
f 158/162/158 164/165/161 179/182/177
f 179/182/177 182/185/180 158/162/158
f 158/162/158 182/185/180 128/131/127
f 128/131/127 182/185/180 181/184/179
f 181/184/179 180/183/178 183/186/181
f 183/186/181 184/187/182 181/184/179
f 118/122/118 184/187/182 183/186/181
f 183/186/181 188/188/183 118/122/118
f 188/188/183 183/186/181 186/189/184
f 187/190/185 185/191/186 188/188/183
f 95/100/96 185/191/186 187/190/185
f 190/192/187 188/188/183 186/189/184
f 187/190/185 188/188/183 190/192/187
f 186/189/184 189/193/188 190/192/187
f 191/194/189 187/190/185 190/192/187
f 178/181/176 189/193/188 186/189/184
f 195/99/95 187/190/185 191/194/189
f 191/194/189 192/195/190 194/196/191
f 193/197/192 192/195/190 191/194/189
f 191/194/189 190/192/187 193/197/192
f 194/196/191 195/99/95 191/194/189
f 91/97/93 195/99/95 194/196/191
f 194/196/191 92/94/90 91/97/93
f 88/93/89 92/94/90 194/196/191
f 194/196/191 197/198/193 88/93/89
f 194/196/191 192/195/190 196/199/194
f 196/199/194 197/198/193 194/196/191
f 198/200/195 197/198/193 196/199/194
f 88/93/89 197/198/193 198/200/195
f 196/199/194 199/201/196 198/200/195
f 198/200/195 199/201/196 200/202/197
f 200/202/197 201/203/198 198/200/195
f 86/91/87 87/90/86 198/200/195
f 198/200/195 87/90/86 88/93/89
f 198/200/195 201/203/198 86/91/87
f 201/203/198 202/73/69 86/91/87
f 69/71/67 202/73/69 201/203/198
f 201/203/198 203/70/66 69/71/67
f 204/204/199 203/70/66 201/203/198
f 201/203/198 200/202/197 204/204/199
f 216/205/200 205/206/201 204/204/199
f 204/204/199 200/202/197 216/205/200
f 203/70/66 204/204/199 206/207/202
f 206/207/202 204/204/199 205/206/201
f 209/208/203 208/209/204 206/207/202
f 206/207/202 207/210/205 209/208/203
f 205/206/201 207/210/205 206/207/202
f 206/207/202 208/209/204 65/66/62
f 65/66/62 68/69/65 206/207/202
f 206/207/202 68/69/65 203/70/66
f 208/209/204 209/208/203 49/51/48
f 50/52/49 65/66/62 208/209/204
f 208/209/204 48/50/47 50/52/49
f 49/51/48 48/50/47 208/209/204
f 49/51/48 209/208/203 210/211/206
f 47/47/44 43/46/43 210/211/206
f 210/211/206 43/46/43 49/51/48
f 210/211/206 211/212/207 47/47/44
f 211/212/207 212/213/208 21/23/23
f 213/214/209 212/213/208 211/212/207
f 21/23/23 25/25/25 211/212/207
f 211/212/207 210/211/206 213/214/209
f 213/214/209 207/210/205 205/206/201
f 209/208/203 207/210/205 213/214/209
f 213/214/209 210/211/206 209/208/203
f 205/206/201 214/215/210 213/214/209
f 213/214/209 214/215/210 19/20/20
f 19/20/20 212/213/208 213/214/209
f 214/215/210 205/206/201 216/205/200
f 214/215/210 215/216/211 15/15/15
f 216/205/200 215/216/211 214/215/210
f 15/15/15 19/20/20 214/215/210
f 215/216/211 216/205/200 218/217/212
f 215/216/211 217/218/213 5/5/5
f 218/217/212 217/218/213 215/216/211
f 5/5/5 15/15/15 215/216/211
f 218/217/212 220/219/214 219/220/215
f 219/220/215 217/218/213 218/217/212
f 218/217/212 199/201/196 196/199/194
f 196/199/194 220/219/214 218/217/212
f 200/202/197 199/201/196 218/217/212
f 218/217/212 216/205/200 200/202/197
f 219/220/215 220/219/214 193/197/192
f 193/197/192 220/219/214 196/199/194
f 193/197/192 221/221/216 219/220/215
f 219/220/215 221/221/216 2/1/1
f 5/5/5 217/218/213 219/220/215
f 219/220/215 3/4/4 5/5/5
f 2/1/1 3/4/4 219/220/215
f 189/193/188 221/221/216 193/197/192
f 2/1/1 221/221/216 189/193/188
f 21/23/23 212/213/208 19/20/20
f 47/47/44 211/212/207 25/25/25
f 196/199/194 192/195/190 193/197/192
f 193/197/192 190/192/187 189/193/188
f 189/193/188 178/181/176 2/1/1
f 195/99/95 95/100/96 187/190/185
f 186/189/184 180/183/178 178/181/176
f 186/189/184 183/186/181 180/183/178
f 97/103/99 120/123/119 185/191/186
f 185/191/186 120/123/119 118/122/118
f 118/122/118 188/188/183 185/191/186
f 185/191/186 95/100/96 97/103/99
f 181/184/179 184/187/182 123/128/124
f 123/128/124 184/187/182 118/122/118
f 123/128/124 127/133/129 181/184/179
f 181/184/179 127/133/129 128/131/127
f 155/161/157 161/166/162 154/159/155
f 118/122/118 119/124/120 123/128/124
f 100/105/101 115/121/117 97/103/99
f 79/84/80 102/108/104 81/85/81
f 97/103/99 98/102/98 100/105/101
f 91/97/93 90/96/92 195/99/95
f 71/74/70 86/91/87 202/73/69
f 83/87/83 82/86/82 81/85/81
f 40/40/42 49/51/48 43/46/43
f 47/47/44 41/44/41 43/46/43
s 0
f 42/35/35 36/39/35 37/43/35
f 37/43/217 41/44/217 42/35/217
s 1
f 19/20/20 18/16/16 21/23/23
f 13/14/14 8/9/9 7/6/6
