# Blender 5.1.2
# www.blender.org
mtllib r2.mtl
o r2
v 0.539699 -0.004494 0.602522
v 0.607749 -0.004494 0.608789
v 0.487049 -0.004493 0.587695
v 0.553179 -0.003973 0.607685
v 0.520821 -0.003966 0.600566
v 0.487533 -0.003962 0.590583
v 0.485861 -0.003433 0.589999
v 0.484830 -0.003789 0.587726
v 0.479159 -0.003719 0.560005
v 0.475290 -0.003719 0.535852
v 0.473847 -0.003718 0.512906
v 0.473617 -0.003716 0.490564
v 0.475535 -0.004499 0.491140
v 0.511886 -0.004494 0.500122
v 0.478438 -0.004494 0.543094
v 0.583474 -0.004494 0.510299
v 0.716193 -0.004494 0.582748
v 0.664902 -0.004494 0.502620
v 0.702135 -0.004494 0.492833
v 0.623219 -0.004494 0.509414
v 0.546190 -0.004494 0.506719
v 0.728537 -0.004494 0.482972
v 0.752731 -0.004497 0.471560
v 0.754739 -0.003753 0.470369
v 0.754687 -0.003746 0.490605
v 0.754456 -0.003734 0.516089
v 0.753544 -0.003809 0.559272
v 0.752887 -0.003426 0.561705
v 0.752958 -0.002091 0.563239
v 0.750861 0.004180 0.568779
v 0.724107 0.010411 0.593487
v 0.750859 -0.002057 0.565616
v 0.727544 -0.002023 0.581718
v 0.751557 -0.003901 0.562799
v 0.728134 -0.003906 0.578703
v 0.751513 -0.004493 0.559876
v 0.702772 -0.003940 0.591685
v 0.667929 -0.004372 0.601651
v 0.666564 0.010543 0.618703
v 0.703184 -0.001943 0.594337
v 0.667909 -0.002356 0.605171
v 0.629274 -0.002302 0.612330
v 0.589653 -0.002185 0.613962
v 0.555196 0.024959 0.640171
v 0.552471 -0.001977 0.610691
v 0.589231 0.024963 0.644013
v 0.626549 0.024952 0.642091
v 0.523069 0.010519 0.616022
v 0.521215 -0.002247 0.603445
v 0.495211 0.021779 0.614043
v 0.488071 -0.002276 0.593132
v 0.524730 0.025040 0.630325
v 0.495973 0.028687 0.619017
v 0.524889 0.028795 0.632861
v 0.553943 0.028805 0.642580
v 0.495287 0.024776 0.616494
v 0.492920 0.025259 0.615158
v 0.494137 0.028998 0.617590
v 0.485721 -0.002204 0.591614
v 0.493768 0.033053 0.617567
v 0.496226 0.033664 0.619203
v 0.496001 0.062323 0.614549
v 0.522862 0.061750 0.626027
v 0.524890 0.033312 0.632861
v 0.493807 0.074924 0.611577
v 0.493795 0.055540 0.614160
v 0.504539 0.075185 0.616381
v 0.523122 0.098618 0.620394
v 0.494459 0.120683 0.607524
v 0.493874 0.097272 0.609307
v 0.496563 0.106295 0.610109
v 0.523546 0.139406 0.615834
v 0.496025 0.143256 0.606403
v 0.499489 0.154587 0.607450
v 0.499074 0.163953 0.606191
v 0.504111 0.181736 0.607134
v 0.512779 0.197875 0.609072
v 0.514429 0.196694 0.610270
v 0.506234 0.181341 0.608483
v 0.526265 0.181381 0.613575
v 0.545220 0.224405 0.615457
v 0.546225 0.179626 0.617708
v 0.527787 0.211810 0.612983
v 0.526722 0.213640 0.611841
v 0.545180 0.226872 0.614491
v 0.567394 0.235413 0.616074
v 0.591414 0.238749 0.616364
v 0.567612 0.233101 0.616988
v 0.592480 0.236284 0.617234
v 0.571486 0.191264 0.619458
v 0.623523 0.204855 0.615764
v 0.615884 0.234129 0.615895
v 0.638086 0.226609 0.613214
v 0.639980 0.217132 0.612796
v 0.637656 0.228734 0.612487
v 0.615292 0.236367 0.615134
v 0.657136 0.216320 0.608525
v 0.673172 0.200910 0.604064
v 0.683288 0.183788 0.601331
v 0.685203 0.184293 0.599923
v 0.695254 0.165685 0.596180
v 0.700956 0.150527 0.595093
v 0.705348 0.144300 0.592916
v 0.714973 0.121256 0.590336
v 0.723619 0.097667 0.588646
v 0.706357 0.122472 0.595382
v 0.684371 0.143950 0.603017
v 0.720671 0.101164 0.590528
v 0.700432 0.099333 0.603133
v 0.670844 0.126575 0.611076
v 0.722162 0.075497 0.594517
v 0.684185 0.081447 0.615474
v 0.657553 0.063712 0.629143
v 0.695325 0.033548 0.624135
v 0.713000 0.057497 0.606003
v 0.648285 0.101212 0.622768
v 0.619312 0.070597 0.634896
v 0.642354 0.128021 0.619213
v 0.610283 0.128401 0.624826
v 0.614580 0.101378 0.628948
v 0.580817 0.100748 0.630172
v 0.547456 0.134715 0.621873
v 0.549497 0.099702 0.627100
v 0.576338 0.141297 0.623975
v 0.551446 0.070718 0.632650
v 0.584592 0.067478 0.637006
v 0.554155 0.033281 0.642572
v 0.588544 0.033377 0.646458
v 0.589018 0.028801 0.646550
v 0.625559 0.033361 0.644561
v 0.626931 0.028788 0.644522
v 0.664499 0.028771 0.636246
v 0.697126 0.028740 0.623736
v 0.665068 0.024864 0.633725
v 0.696693 0.024467 0.621509
v 0.720861 0.024672 0.606577
v 0.741886 0.024182 0.588528
v 0.720216 0.028686 0.609004
v 0.741033 0.028634 0.591206
v 0.742036 0.032430 0.589586
v 0.742459 0.028949 0.589450
v 0.739686 0.033657 0.591740
v 0.719024 0.033180 0.609325
v 0.736368 0.055705 0.588478
v 0.730856 0.075230 0.587952
v 0.663551 0.033352 0.636331
v 0.744125 0.024820 0.586438
v 0.602549 0.169407 0.620784
v 0.655370 0.176013 0.610187
v 0.663265 0.151651 0.610020
v 0.635694 0.159881 0.616474
v 0.665274 0.192267 0.606835
v 0.680540 0.173595 0.602141
v 0.671498 0.199997 0.605277
v 0.656595 0.214415 0.609521
v 0.628770 -0.003968 0.609764
v 0.589823 -0.003974 0.611093
v 0.484601 -0.001727 0.589735
v 0.485619 0.078477 0.585801
v 0.478978 0.061805 0.557667
v 0.478613 -0.001406 0.560991
v 0.485861 -0.003433 0.589999
v 0.485760 -0.001912 0.591869
v 0.484868 -0.003792 0.587798
v 0.479159 -0.003719 0.560005
v 0.475290 -0.003719 0.535852
v 0.473847 -0.003718 0.512906
v 0.473617 -0.003716 0.490564
v 0.472845 -0.001388 0.490060
v 0.473155 0.057289 0.506981
v 0.473051 -0.001389 0.512472
v 0.472838 0.032984 0.485467
v 0.473298 0.061782 0.479840
v 0.474693 0.089867 0.499097
v 0.474678 0.085661 0.471310
v 0.477656 0.106194 0.461354
v 0.482923 0.131618 0.485890
v 0.477632 0.111539 0.492755
v 0.482910 0.124952 0.451445
v 0.490824 0.140761 0.442011
v 0.501795 0.162531 0.472317
v 0.490875 0.148987 0.478934
v 0.501779 0.152448 0.433478
v 0.514740 0.161089 0.425977
v 0.529612 0.181138 0.461227
v 0.514952 0.172999 0.466321
v 0.528670 0.167759 0.419638
v 0.544247 0.172513 0.414574
v 0.564093 0.190462 0.453985
v 0.545938 0.186956 0.457095
v 0.562152 0.175406 0.410898
v 0.581605 0.175666 0.408991
v 0.603768 0.187808 0.452431
v 0.583546 0.190973 0.452297
v 0.601828 0.172521 0.409237
v 0.621461 0.166887 0.410995
v 0.623402 0.181978 0.453748
v 0.641090 0.174494 0.455608
v 0.639150 0.159680 0.413623
v 0.654551 0.151535 0.417065
v 0.656783 0.165692 0.457923
v 0.670429 0.155908 0.460604
v 0.667326 0.143088 0.421263
v 0.679538 0.132979 0.426461
v 0.683394 0.143916 0.463713
v 0.697039 0.128487 0.467312
v 0.693251 0.119847 0.432907
v 0.706959 0.104939 0.440230
v 0.710378 0.110934 0.471443
v 0.722424 0.092572 0.476150
v 0.719156 0.089504 0.448060
v 0.730643 0.068683 0.455739
v 0.733496 0.069457 0.480954
v 0.743916 0.037648 0.485377
v 0.742223 0.037619 0.462609
v 0.754656 -0.001513 0.469598
v 0.754919 -0.003750 0.470366
v 0.754870 -0.001354 0.494818
v 0.754765 -0.001389 0.512337
v 0.745136 0.037682 0.534201
v 0.745067 0.037671 0.508967
v 0.753661 -0.001756 0.561139
v 0.742562 0.043420 0.565121
v 0.753560 -0.003830 0.559243
v 0.752887 -0.003426 0.561705
v 0.752958 -0.002091 0.563239
v 0.753749 -0.003747 0.549163
v 0.750810 0.004430 0.569014
v 0.743813 0.025837 0.587294
v 0.742459 0.028949 0.589450
v 0.741953 0.032651 0.589560
v 0.736257 0.055645 0.588358
v 0.743624 0.029618 0.586815
v 0.737618 0.054135 0.585644
v 0.731769 0.075487 0.584940
v 0.724446 0.097614 0.585943
v 0.726533 0.095741 0.566755
v 0.720491 0.111022 0.558878
v 0.714738 0.123490 0.587853
v 0.734347 0.075417 0.559016
v 0.725268 0.099101 0.549466
v 0.736181 0.070272 0.532333
v 0.726204 0.095798 0.529645
v 0.725003 0.094912 0.503569
v 0.735594 0.070048 0.506407
v 0.714777 0.117469 0.526642
v 0.713187 0.115566 0.500850
v 0.714895 0.120398 0.553075
v 0.701470 0.138493 0.523832
v 0.701825 0.141122 0.551385
v 0.699719 0.146270 0.557779
v 0.711146 0.130017 0.558939
v 0.687668 0.161077 0.555300
v 0.687730 0.159446 0.548640
v 0.673790 0.170471 0.520004
v 0.687426 0.156838 0.521518
v 0.660650 0.183329 0.552967
v 0.660962 0.181999 0.545624
v 0.674443 0.173282 0.552686
v 0.662013 0.184678 0.556853
v 0.676216 0.174764 0.558550
v 0.689475 0.162918 0.560748
v 0.645339 0.193211 0.555324
v 0.627234 0.200164 0.554354
v 0.644496 0.191707 0.551769
v 0.627061 0.198450 0.550797
v 0.609205 0.203215 0.550278
v 0.627562 0.197540 0.543976
v 0.608750 0.202734 0.543932
v 0.590634 0.205307 0.550497
v 0.590549 0.204942 0.543812
v 0.570578 0.203726 0.545386
v 0.606987 0.202943 0.515921
v 0.587418 0.205718 0.516002
v 0.567943 0.204765 0.517374
v 0.585484 0.202313 0.489876
v 0.566026 0.201566 0.491376
v 0.549541 0.200593 0.519773
v 0.547684 0.197587 0.494025
v 0.533188 0.193711 0.522937
v 0.530977 0.190970 0.497449
v 0.515990 0.181773 0.501613
v 0.518681 0.184278 0.526802
v 0.505820 0.172453 0.531304
v 0.502810 0.170053 0.506483
v 0.491970 0.155225 0.511763
v 0.495155 0.157486 0.536402
v 0.484009 0.136703 0.517154
v 0.487239 0.138629 0.542054
v 0.482091 0.117299 0.547596
v 0.478735 0.115651 0.522166
v 0.500535 0.157577 0.563776
v 0.486958 0.119182 0.573444
v 0.492771 0.139808 0.569608
v 0.489045 0.129287 0.578946
v 0.501784 0.158965 0.569952
v 0.494024 0.142279 0.574324
v 0.494902 0.147277 0.576082
v 0.501486 0.161194 0.572811
v 0.497993 0.164826 0.577213
v 0.510642 0.181835 0.573001
v 0.503732 0.180261 0.578304
v 0.511086 0.173463 0.568784
v 0.493242 0.149739 0.578095
v 0.512076 0.172545 0.565306
v 0.523382 0.184759 0.564355
v 0.524161 0.183627 0.560840
v 0.521181 0.188171 0.568117
v 0.532108 0.203273 0.571711
v 0.536733 0.194074 0.560575
v 0.552572 0.199744 0.553935
v 0.552573 0.201291 0.557597
v 0.537301 0.192819 0.557009
v 0.571054 0.204028 0.551740
v 0.590608 0.206859 0.554210
v 0.571027 0.205507 0.555387
v 0.567406 0.233983 0.586921
v 0.545394 0.225334 0.585275
v 0.591412 0.237363 0.587290
v 0.615729 0.234675 0.585992
v 0.609605 0.204771 0.553883
v 0.637435 0.228546 0.585110
v 0.615076 0.237051 0.589846
v 0.591284 0.239430 0.590801
v 0.567332 0.236120 0.590733
v 0.637513 0.229443 0.588933
v 0.591281 0.239511 0.613996
v 0.637513 0.229443 0.610166
v 0.615094 0.237114 0.612806
v 0.615292 0.236367 0.615134
v 0.591414 0.238749 0.616364
v 0.637656 0.228734 0.612487
v 0.657136 0.216320 0.608525
v 0.673172 0.200910 0.604064
v 0.685203 0.184293 0.599923
v 0.695254 0.165685 0.596180
v 0.705348 0.144300 0.592916
v 0.714973 0.121256 0.590336
v 0.723619 0.097667 0.588646
v 0.730856 0.075230 0.587952
v 0.706050 0.144155 0.590290
v 0.695945 0.165595 0.593591
v 0.685842 0.184461 0.597359
v 0.706616 0.142971 0.566569
v 0.695945 0.165595 0.571761
v 0.705701 0.143013 0.562500
v 0.695486 0.164871 0.568089
v 0.684091 0.182732 0.570356
v 0.673597 0.201306 0.578406
v 0.685789 0.184420 0.574455
v 0.671300 0.199743 0.574397
v 0.676180 0.183375 0.564861
v 0.656429 0.214758 0.579480
v 0.657245 0.216895 0.583179
v 0.673652 0.201372 0.601548
v 0.657287 0.216948 0.606115
v 0.567394 0.235413 0.616074
v 0.545180 0.226872 0.614491
v 0.526722 0.213640 0.611841
v 0.512779 0.197875 0.609072
v 0.504111 0.181736 0.607134
v 0.512329 0.198468 0.606618
v 0.526326 0.214206 0.588227
v 0.526395 0.214252 0.609391
v 0.503642 0.182581 0.604621
v 0.511842 0.198162 0.585474
v 0.545084 0.227522 0.588892
v 0.526740 0.213359 0.584263
v 0.512367 0.197654 0.581819
v 0.567321 0.236183 0.613696
v 0.545073 0.227606 0.612097
v 0.502282 0.181542 0.581454
v 0.496307 0.164087 0.579655
v 0.491062 0.142735 0.580764
v 0.495963 0.163210 0.583259
v 0.493080 0.143151 0.593227
v 0.487846 0.121152 0.582511
v 0.488943 0.097237 0.594588
v 0.485742 0.105712 0.580091
v 0.479731 0.094912 0.552362
v 0.475960 0.093231 0.526307
v 0.474662 0.063019 0.530088
v 0.474559 -0.001409 0.535890
v 0.492410 0.095456 0.606805
v 0.492392 0.029667 0.615331
v 0.493807 0.074924 0.611577
v 0.493192 0.123990 0.604455
v 0.493874 0.097272 0.609307
v 0.494459 0.120683 0.607524
v 0.496025 0.143256 0.606403
v 0.499074 0.163953 0.606191
v 0.498393 0.165161 0.603430
v 0.494845 0.143132 0.603855
v 0.493795 0.055540 0.614160
v 0.493819 0.032869 0.617560
v 0.494137 0.028998 0.617590
v 0.493087 0.025627 0.615433
v 0.536820 0.192600 0.550713
v 0.552434 0.199571 0.547081
v 0.523834 0.183668 0.554631
v 0.511346 0.172230 0.559078
v 0.605543 0.199236 0.489900
v 0.625001 0.193378 0.490849
v 0.625919 0.197395 0.516645
v 0.643481 0.190027 0.517688
v 0.642658 0.185784 0.492121
v 0.658577 0.176597 0.493589
v 0.659497 0.181000 0.518868
v 0.672821 0.165959 0.495125
v 0.686330 0.152615 0.496790
v 0.700040 0.135308 0.498644
v 0.644103 0.191021 0.545464
v 0.752731 -0.013230 0.506104
v 0.754992 -0.012687 0.504647
v 0.727964 -0.013217 0.522131
v 0.701726 -0.013216 0.534699
v 0.664773 -0.013218 0.545334
v 0.623219 -0.013217 0.552108
v 0.583469 -0.013217 0.552993
v 0.546247 -0.013217 0.549667
v 0.512163 -0.013217 0.543830
v 0.476423 -0.013217 0.536037
v 0.473141 -0.011017 0.535268
v 0.473939 -0.012667 0.535482
v 0.473230 -0.006655 0.535180
v 0.474069 -0.005034 0.535322
v 0.476495 -0.004494 0.535840
v 0.512247 -0.004494 0.543652
v 0.583477 -0.004494 0.552815
v 0.664996 -0.004494 0.545121
v 0.623219 -0.004494 0.551931
v 0.702111 -0.004494 0.534555
v 0.728885 -0.004494 0.522070
v 0.752459 -0.004493 0.507573
v 0.754824 -0.005048 0.506265
v 0.755638 -0.006710 0.505477
v 0.755732 -0.011077 0.504500
v 0.546269 -0.004494 0.549488
v 0.475967 -0.128913 0.580992
v 0.473895 -0.102798 0.573573
v 0.480167 -0.153313 0.585735
v 0.486427 -0.175033 0.587626
v 0.494743 -0.193297 0.586538
v 0.486446 -0.174992 0.570166
v 0.480170 -0.153277 0.567319
v 0.494757 -0.193273 0.569232
v 0.505759 -0.208806 0.565781
v 0.520107 -0.222275 0.561074
v 0.520102 -0.222272 0.578372
v 0.536219 -0.232230 0.556761
v 0.536219 -0.232230 0.573586
v 0.505756 -0.208813 0.583207
v 0.552514 -0.237219 0.570415
v 0.571812 -0.239098 0.567477
v 0.596931 -0.239725 0.563391
v 0.655041 -0.239725 0.550678
v 0.625473 -0.239725 0.557883
v 0.625473 -0.239725 0.543097
v 0.596931 -0.239725 0.548594
v 0.655042 -0.239725 0.535897
v 0.683722 -0.236945 0.527791
v 0.683722 -0.236945 0.542564
v 0.709599 -0.228607 0.534332
v 0.709599 -0.228607 0.519573
v 0.730752 -0.215437 0.512166
v 0.730752 -0.215437 0.526898
v 0.745263 -0.198162 0.506490
v 0.754647 -0.176358 0.500521
v 0.760424 -0.149603 0.492235
v 0.760424 -0.149603 0.506585
v 0.763404 -0.127681 0.487017
v 0.764397 -0.120373 0.490252
v 0.764397 -0.120373 0.496846
v 0.754647 -0.176358 0.515104
v 0.745263 -0.198162 0.521182
v 0.571812 -0.239098 0.552391
v 0.552514 -0.237219 0.554490
v 0.475930 -0.129215 0.561328
v 0.473727 -0.103890 0.552829
v 0.472690 -0.074408 0.541886
v 0.472543 -0.029199 0.525690
v 0.472885 -0.056042 0.559237
v 0.472898 -0.034840 0.552827
v 0.472909 -0.010672 0.544722
v 0.473131 -0.077374 0.565537
v 0.472918 0.019749 0.533919
v 0.472919 0.079820 0.511689
v 0.472546 0.071723 0.488934
v 0.473737 0.099688 0.503655
v 0.476200 0.121322 0.493467
v 0.482647 0.142382 0.481877
v 0.495424 0.160974 0.469446
v 0.513842 0.175896 0.457989
v 0.537333 0.186157 0.449188
v 0.565457 0.190925 0.443770
v 0.597854 0.189513 0.442392
v 0.631066 0.181337 0.445554
v 0.661752 0.165904 0.453722
v 0.688873 0.144990 0.465239
v 0.711522 0.120383 0.478450
v 0.728860 0.091865 0.493473
v 0.740118 0.059221 0.510422
v 0.748026 0.024631 0.525747
v 0.755356 -0.009752 0.535907
v 0.760957 -0.040679 0.541986
v 0.763661 -0.064872 0.545064
v 0.764485 -0.084471 0.546246
v 0.764457 -0.101319 0.546622
v 0.763914 -0.119376 0.524819
v 0.763960 -0.119282 0.546588
v 0.765995 -0.121280 0.545013
v 0.764420 -0.120825 0.546180
v 0.764503 -0.121181 0.524767
v 0.767906 -0.121200 0.543691
v 0.769318 -0.121175 0.542923
v 0.771319 -0.121174 0.533931
v 0.772128 -0.121174 0.541520
v 0.770275 -0.121174 0.527039
v 0.769350 -0.121174 0.524742
v 0.764098 -0.102445 0.524962
v 0.763900 -0.086870 0.524681
v 0.763111 -0.069703 0.523616
v 0.760538 -0.047665 0.520544
v 0.754983 -0.017471 0.514241
v 0.747648 0.016904 0.503819
v 0.739736 0.051486 0.488391
v 0.728487 0.084114 0.471420
v 0.711141 0.112628 0.456366
v 0.688497 0.137238 0.443114
v 0.661354 0.158151 0.431546
v 0.630685 0.173580 0.423319
v 0.597464 0.181740 0.420088
v 0.565090 0.183162 0.421381
v 0.536963 0.178379 0.426724
v 0.513480 0.168136 0.435434
v 0.495038 0.153178 0.446827
v 0.482276 0.134615 0.459158
v 0.475830 0.113554 0.470679
v 0.473365 0.091931 0.480804
v 0.472543 0.012731 0.510521
vn -0.0495 -0.9367 0.3467
vn -0.0938 -0.9336 0.3458
vn -0.0457 -0.9743 0.2204
vn -0.2517 -0.8832 0.3958
vn -0.2459 -0.9525 0.1795
vn -0.1616 -0.7637 0.6251
vn -0.3403 -0.6557 0.6740
vn -0.6693 -0.5234 0.5274
vn -0.5229 -0.7424 0.4188
vn -0.6779 -0.6901 0.2532
vn -0.3521 -0.9345 0.0514
vn -0.6840 -0.7180 0.1290
vn -0.6816 -0.7285 0.0678
vn -0.3724 -0.9280 0.0054
vn -0.6601 -0.7506 0.0309
vn -0.7511 -0.6602 0.0069
vn 0.0001 -1.0000 0.0001
vn -0.0000 -1.0000 -0.0000
vn -0.0001 -1.0000 -0.0000
vn 0.8111 -0.5849 0.0006
vn 0.7957 -0.6057 0.0049
vn 0.3466 -0.9380 0.0014
vn 0.7733 -0.6339 0.0113
vn 0.3157 -0.9379 0.1441
vn 0.7812 -0.6079 0.1418
vn 0.6861 -0.6346 0.3558
vn 0.4110 -0.8258 0.3863
vn 0.5601 -0.5411 0.6273
vn 0.8357 -0.3105 0.4530
vn 0.8507 -0.1521 0.5032
vn 0.6410 -0.3341 0.6910
vn 0.4660 -0.5387 0.7018
vn 0.3802 -0.6657 0.6421
vn 0.1300 -0.9586 0.2532
vn 0.2290 -0.8980 0.3757
vn 0.1166 -0.8706 0.4781
vn 0.1492 -0.9106 0.3853
vn 0.1490 -0.7848 0.6016
vn 0.2871 -0.7134 0.6393
vn 0.1882 -0.6986 0.6903
vn 0.0709 -0.7866 0.6134
vn -0.0180 -0.7964 0.6045
vn -0.0215 -0.6464 0.7627
vn -0.1439 -0.6409 0.7540
vn -0.1094 -0.7759 0.6214
vn 0.0972 -0.6363 0.7653
vn -0.2321 -0.6659 0.7090
vn -0.2989 -0.5876 0.7520
vn -0.3824 -0.5632 0.7325
vn -0.3603 -0.2690 0.8932
vn -0.5145 -0.2164 0.8297
vn -0.4475 -0.4913 0.7472
vn -0.2152 -0.2879 0.9332
vn -0.6651 -0.1506 0.7314
vn -0.7260 -0.2970 0.6202
vn -0.4898 0.0693 0.8691
vn -0.7442 0.0167 0.6678
vn -0.3398 0.1691 0.9252
vn -0.4520 0.1233 0.8835
vn -0.3707 0.0940 0.9240
vn -0.7526 0.0730 0.6544
vn -0.7242 0.1026 0.6819
vn -0.3619 0.1179 0.9247
vn -0.2958 0.1280 0.9466
vn -0.4258 0.0902 0.9003
vn -0.7239 0.0783 0.6854
vn -0.7277 0.0752 0.6818
vn -0.2599 0.0859 0.9618
vn -0.4178 0.0772 0.9052
vn -0.7408 0.1006 0.6642
vn -0.7450 0.1531 0.6492
vn -0.3848 0.0899 0.9186
vn -0.7481 0.2526 0.6137
vn -0.3681 0.1268 0.9211
vn -0.6892 0.3933 0.6085
vn -0.2239 0.0453 0.9736
vn -0.1497 0.0651 0.9866
vn -0.2194 0.2024 0.9544
vn -0.3001 0.1739 0.9379
vn -0.5844 0.5318 0.6130
vn -0.4099 0.6402 0.6496
vn -0.0897 0.2109 0.9734
vn -0.2098 0.7036 0.6790
vn 0.0367 0.2006 0.9790
vn -0.0054 0.7058 0.7084
vn -0.0478 0.0635 0.9968
vn 0.1501 0.0424 0.9878
vn 0.1331 0.1902 0.9727
vn 0.1772 -0.0002 0.9842
vn 0.2458 0.1822 0.9520
vn 0.4198 0.6664 0.6162
vn 0.2132 0.7157 0.6651
vn 0.3364 0.1390 0.9314
vn 0.5843 0.5655 0.5820
vn 0.6837 0.4331 0.5873
vn 0.3807 0.1113 0.9180
vn 0.4411 0.0794 0.8939
vn 0.7517 0.3466 0.5612
vn 0.7819 0.3003 0.5463
vn 0.5288 0.1280 0.8390
vn 0.8035 0.2888 0.5205
vn 0.8120 0.2733 0.5157
vn 0.6011 0.1819 0.7782
vn 0.8243 0.2597 0.5031
vn 0.4566 0.1266 0.8806
vn 0.3826 0.1123 0.9171
vn 0.4697 0.1841 0.8634
vn 0.3817 0.2207 0.8975
vn 0.5460 0.2302 0.8055
vn 0.5610 0.1856 0.8067
vn 0.3306 0.1594 0.9302
vn 0.2575 0.2483 0.9338
vn 0.4266 0.1684 0.8886
vn 0.2356 0.1946 0.9522
vn 0.1056 0.1846 0.9771
vn 0.1098 0.2335 0.9661
vn 0.2249 0.1510 0.9626
vn 0.1003 0.1418 0.9848
vn -0.0348 0.1705 0.9847
vn -0.0394 0.1139 0.9927
vn -0.1648 0.1101 0.9802
vn -0.1767 0.1504 0.9727
vn -0.1879 0.1974 0.9621
vn -0.0327 0.2278 0.9732
vn -0.2037 0.1202 0.9716
vn -0.0302 0.1383 0.9899
vn -0.0287 -0.2803 0.9595
vn 0.1354 -0.2635 0.9551
vn 0.1233 0.1468 0.9815
vn 0.2312 -0.6006 0.7654
vn 0.2814 0.1592 0.9463
vn 0.2785 -0.2377 0.9306
vn 0.3596 -0.5518 0.7525
vn 0.4496 -0.1833 0.8742
vn 0.5302 -0.4460 0.7211
vn 0.7139 -0.0925 0.6942
vn 0.5891 -0.1360 0.7965
vn 0.5827 0.1766 0.7933
vn 0.6755 0.1628 0.7191
vn 0.8057 -0.0097 0.5923
vn 0.8328 0.1416 0.5352
vn 0.6108 0.2009 0.7659
vn 0.8507 0.2602 0.4567
vn 0.8558 -0.1065 0.5062
vn 0.0779 0.0846 0.9934
vn 0.2097 0.0991 0.9727
vn 0.3034 0.1096 0.9465
vn 0.2696 0.0580 0.9612
vn 0.2701 0.0009 0.9628
vn 0.3199 0.0217 0.9472
vn 0.0375 -0.9364 0.3488
vn -0.0067 -0.9379 0.3470
vn 0.0117 -0.9600 0.2797
vn 0.0040 -0.9999 0.0167
vn -0.9825 0.0325 0.1832
vn -0.9736 -0.1411 0.1796
vn -0.9131 -0.2364 0.3322
vn -0.6251 -0.7499 0.2167
vn -0.5074 -0.7466 0.4303
vn -0.6654 -0.4661 0.5831
vn -0.7037 -0.6991 0.1270
vn -0.7080 -0.7019 0.0781
vn -0.9829 -0.1466 0.1115
vn -0.9870 -0.1566 0.0362
vn -0.7066 -0.7071 0.0260
vn -0.7066 -0.7075 0.0070
vn -0.9892 -0.1463 0.0084
vn -0.9991 0.0275 0.0314
vn -1.0000 0.0037 0.0082
vn -0.9993 0.0363 -0.0018
vn -0.9956 0.0928 0.0111
vn -0.9957 0.0921 -0.0133
vn -0.9817 0.1876 -0.0330
vn -0.9458 0.3219 -0.0423
vn -0.9448 0.3213 -0.0635
vn -0.9818 0.1896 -0.0112
vn -0.8580 0.5009 -0.1137
vn -0.7328 0.6640 -0.1485
vn -0.7205 0.6712 -0.1743
vn -0.8637 0.4958 -0.0901
vn -0.5846 0.7796 -0.2246
vn -0.4580 0.8562 -0.2390
vn -0.4491 0.8536 -0.2637
vn -0.5967 0.7774 -0.1990
vn -0.2990 0.9072 -0.2959
vn -0.1407 0.9444 -0.2972
vn -0.1362 0.9374 -0.3204
vn -0.3057 0.9124 -0.2722
vn 0.0499 0.9412 -0.3341
vn 0.2190 0.9238 -0.3139
vn 0.2189 0.9168 -0.3340
vn 0.0484 0.9487 -0.3124
vn 0.3435 0.8805 -0.3266
vn 0.3440 0.8870 -0.3080
vn 0.4493 0.8421 -0.2983
vn 0.4489 0.8361 -0.3155
vn 0.5469 0.7814 -0.3006
vn 0.5481 0.7863 -0.2850
vn 0.6429 0.7177 -0.2677
vn 0.6399 0.7147 -0.2824
vn 0.7134 0.6504 -0.2609
vn 0.7223 0.6465 -0.2455
vn 0.7785 0.5894 -0.2159
vn 0.7644 0.6013 -0.2325
vn 0.8085 0.5551 -0.1952
vn 0.8230 0.5392 -0.1786
vn 0.8758 0.4623 -0.1386
vn 0.8650 0.4775 -0.1543
vn 0.9225 0.3687 -0.1143
vn 0.9292 0.3557 -0.1001
vn 0.9570 0.2838 -0.0601
vn 0.9525 0.2958 -0.0718
vn 0.9800 0.1960 -0.0332
vn 0.9923 0.1240 0.0024
vn 0.8796 -0.4181 -0.2269
vn 0.9996 0.0273 0.0062
vn 0.7934 -0.6086 0.0146
vn 0.9647 0.2621 -0.0267
vn 0.9681 0.2503 0.0127
vn 0.9836 -0.0363 0.1764
vn 0.9665 0.2465 0.0709
vn 0.8674 -0.1326 0.4796
vn 0.8109 -0.3428 0.4743
vn 0.6701 -0.6455 0.3665
vn 0.7677 -0.6256 0.1392
vn 0.9457 0.1773 0.2723
vn 0.8461 -0.0932 0.5248
vn 0.8040 0.0109 0.5945
vn 0.8270 0.1891 0.5294
vn 0.9446 0.2538 0.2083
vn 0.8237 0.2343 0.5163
vn 0.9398 0.2864 0.1863
vn 0.9474 0.3169 0.0443
vn 0.9363 0.3497 0.0315
vn 0.9329 0.3177 0.1694
vn 0.9159 0.3959 -0.0665
vn 0.9197 0.3723 0.1250
vn 0.9144 0.4033 -0.0342
vn 0.9088 0.4151 -0.0419
vn 0.9482 0.3176 -0.0103
vn 0.9412 0.3333 -0.0560
vn 0.8956 0.4358 -0.0896
vn 0.8490 0.5133 -0.1250
vn 0.8649 0.4968 -0.0715
vn 0.8712 0.4777 -0.1132
vn 0.8194 0.5661 -0.0903
vn 0.8128 0.5643 -0.1449
vn 0.7195 0.6276 -0.2975
vn 0.7522 0.5566 -0.3525
vn 0.8223 0.4726 -0.3169
vn 0.7525 0.6498 -0.1068
vn 0.6522 0.7493 -0.1148
vn 0.6280 0.7462 -0.2208
vn 0.7520 0.6508 -0.1050
vn 0.5318 0.8418 -0.0927
vn 0.5113 0.8118 -0.2820
vn 0.5666 0.6146 -0.5488
vn 0.4669 0.6684 -0.5790
vn 0.6427 0.5327 -0.5506
vn 0.3639 0.7298 -0.5788
vn 0.4109 0.8675 -0.2803
vn 0.3091 0.9125 -0.2681
vn 0.2658 0.7774 -0.5701
vn 0.4190 0.9042 -0.0827
vn 0.3256 0.9434 -0.0637
vn 0.1912 0.9805 -0.0458
vn 0.1549 0.8165 -0.5561
vn 0.1818 0.9510 -0.2502
vn 0.0150 0.9740 -0.2262
vn 0.0368 0.9992 -0.0162
vn -0.1376 0.9900 -0.0320
vn -0.1438 0.9896 0.0058
vn 0.2116 0.9743 -0.0770
vn 0.0436 0.9975 -0.0558
vn -0.3053 0.9522 -0.0082
vn -0.3082 0.9509 0.0290
vn 0.0467 0.9761 -0.2123
vn -0.1433 0.9706 -0.1933
vn -0.3126 0.9349 -0.1678
vn -0.4623 0.8865 0.0207
vn -0.4679 0.8735 -0.1345
vn -0.6098 0.7869 -0.0947
vn -0.7283 0.6801 0.0845
vn -0.5992 0.7988 0.0533
vn -0.7444 0.6659 -0.0493
vn -0.8666 0.4990 -0.0012
vn -0.8496 0.5152 0.1133
vn -0.9287 0.3468 0.1314
vn -0.9431 0.3303 0.0373
vn -0.9681 0.2055 0.1432
vn -0.9736 0.1890 0.1277
vn -0.9785 0.1962 0.0639
vn -0.9243 0.3731 0.0802
vn -0.8494 0.5163 0.1092
vn -0.9618 0.1965 -0.1904
vn -0.9211 0.3188 -0.2237
vn -0.8648 0.4713 -0.1733
vn -0.8101 0.2572 -0.5269
vn -0.7696 0.3213 -0.5518
vn -0.7539 0.2661 -0.6007
vn -0.6017 0.3739 -0.7058
vn -0.6991 0.4446 -0.5601
vn -0.7068 0.3778 -0.5980
vn -0.8433 0.1904 -0.5026
vn -0.7570 0.6303 -0.1723
vn -0.6492 0.7423 -0.1659
vn -0.5532 0.4622 -0.6931
vn -0.6204 0.5628 -0.5463
vn -0.4489 0.5912 -0.6701
vn -0.5078 0.6788 -0.5305
vn -0.3354 0.7808 -0.5272
vn -0.3435 0.9190 -0.1936
vn -0.5175 0.8369 -0.1781
vn -0.1683 0.8300 -0.5317
vn -0.1606 0.9648 -0.2082
vn -0.0075 0.8381 -0.5454
vn -0.1887 0.7943 -0.5775
vn -0.3464 0.7309 -0.5881
vn -0.0259 0.8043 -0.5937
vn 0.1336 0.7913 -0.5967
vn 0.3334 0.8202 -0.4648
vn 0.1812 0.9499 -0.2546
vn -0.0188 0.9647 -0.2627
vn -0.2300 0.9422 -0.2437
vn 0.4152 0.9041 -0.1015
vn -0.0172 0.9879 0.1543
vn 0.2166 0.9665 0.1379
vn 0.4351 0.8925 0.1191
vn 0.4198 0.6665 0.6161
vn 0.0002 0.7253 0.6884
vn 0.6266 0.7705 0.1172
vn 0.5836 0.5670 0.5813
vn 0.6873 0.4450 0.5742
vn 0.7635 0.6332 0.1275
vn 0.8538 0.5069 0.1190
vn 0.7517 0.3466 0.5610
vn 0.7871 0.3036 0.5369
vn 0.8952 0.4317 0.1110
vn 0.9121 0.3933 0.1153
vn 0.8056 0.2910 0.5160
vn 0.8277 0.2742 0.4897
vn 0.8230 0.2594 0.5053
vn 0.8267 0.2439 0.5070
vn 0.7906 0.5565 -0.2555
vn 0.8800 0.4650 -0.0968
vn 0.9028 0.4189 -0.0975
vn 0.8182 0.4191 -0.3936
vn 0.7637 0.4862 -0.4247
vn 0.6063 0.5279 -0.5948
vn 0.4807 0.6009 -0.6387
vn 0.6842 0.6693 -0.2896
vn 0.4902 0.5233 -0.6970
vn 0.3947 0.6839 -0.6136
vn 0.5561 0.7882 -0.2638
vn -0.2503 0.9561 0.1524
vn -0.4151 0.6422 0.6444
vn -0.4756 0.8685 0.1393
vn -0.6754 0.7251 0.1342
vn -0.5838 0.5329 0.6125
vn -0.6941 0.3921 0.6037
vn -0.9111 0.3817 0.1559
vn -0.7637 0.2415 0.5988
vn -0.8153 0.5625 0.1373
vn -0.6545 0.7485 -0.1066
vn -0.7996 0.5934 -0.0924
vn -0.8781 0.4170 -0.2346
vn -0.4280 0.8679 -0.2521
vn -0.5523 0.6949 -0.4606
vn -0.6903 0.5707 -0.4449
vn -0.9225 0.2939 -0.2500
vn -0.9819 0.1676 -0.0878
vn -0.9632 0.2658 0.0391
vn -0.9746 0.1570 0.1599
vn -0.9878 0.1134 0.1066
vn -0.9773 0.1038 0.1846
vn -0.9648 0.0550 0.2571
vn -0.9709 0.0389 0.2363
vn -0.9826 0.0946 0.1600
vn -0.9917 0.0956 0.0861
vn -0.9941 0.0341 0.1033
vn -0.9229 0.0500 0.3817
vn -0.8957 -0.0406 0.4427
vn -0.6779 0.0913 0.7295
vn -0.7372 0.0721 0.6718
vn -0.7504 0.0715 0.6571
vn -0.9383 0.0855 0.3351
vn -0.9498 0.1187 0.2895
vn -0.7458 0.1032 0.6582
vn -0.7786 0.1483 0.6098
vn -0.9492 0.2303 0.2146
vn -0.7065 0.0965 0.7011
vn -0.7155 0.0479 0.6970
vn -0.6477 -0.1632 0.7442
vn -0.6921 -0.3113 0.6512
vn -0.4800 0.8757 0.0515
vn -0.6008 0.7955 0.0786
vn -0.7220 0.6854 0.0942
vn 0.2184 0.9503 -0.2219
vn 0.3431 0.9123 -0.2236
vn 0.3359 0.9375 -0.0911
vn 0.4417 0.8913 -0.1019
vn 0.4496 0.8654 -0.2214
vn 0.5497 0.8069 -0.2161
vn 0.5438 0.8317 -0.1116
vn 0.6503 0.7314 -0.2054
vn 0.7409 0.6455 -0.1853
vn 0.8046 0.5724 -0.1577
vn -0.2131 0.0237 0.9768
vn -0.2143 0.0254 0.9764
vn -0.1910 0.0219 0.9813
vn -0.2134 0.0239 0.9767
vn -0.2127 0.0235 0.9768
vn -0.1911 0.0220 0.9813
vn -0.2130 0.0240 0.9768
vn -0.2129 0.0240 0.9768
vn -0.1291 0.0207 0.9914
vn -0.0334 0.0204 0.9992
vn -0.1291 0.0203 0.9914
vn -0.0334 0.0203 0.9992
vn 0.0917 0.0202 0.9956
vn 0.2151 0.0211 0.9764
vn 0.2169 0.0143 0.9761
vn 0.0919 0.0202 0.9956
vn 0.3527 0.0030 0.9358
vn 0.3463 -0.0056 0.9381
vn 0.4886 -0.0508 0.8710
vn 0.5398 -0.1138 0.8341
vn 0.5028 -0.1498 0.8513
vn 0.4843 -0.0445 0.8738
vn 0.5346 -0.1325 0.8346
vn 0.4887 -0.1513 0.8592
vn 0.4489 -0.1703 0.8772
vn 0.4354 -0.1975 0.8783
vn 0.9380 0.3466 0.0013
vn 0.9377 0.3474 0.0019
vn 0.8705 0.4922 0.0013
vn 0.9732 0.2301 -0.0007
vn 0.8670 0.4983 0.0013
vn 0.9744 0.2250 -0.0007
vn 0.7540 0.6569 0.0006
vn 0.7625 0.6470 0.0004
vn 0.6204 0.7843 0.0001
vn 0.6080 0.7939 0.0001
vn 0.4283 0.9036 -0.0000
vn 0.4126 0.9109 -0.0000
vn -0.0000 1.0000 -0.0000
vn -0.0403 0.9992 -0.0000
vn 0.0139 0.9999 -0.0000
vn 0.0124 0.9999 -0.0000
vn -0.0483 0.9988 -0.0000
vn -0.2027 0.9792 -0.0000
vn -0.1835 0.9830 -0.0000
vn -0.3999 0.9165 -0.0000
vn -0.4208 0.9072 -0.0000
vn -0.6552 0.7555 -0.0000
vn -0.6347 0.7727 -0.0000
vn -0.8387 0.5446 -0.0000
vn -0.8512 0.5248 -0.0000
vn -0.9525 0.3046 -0.0000
vn -0.9470 0.3211 -0.0000
vn -0.9836 0.1806 -0.0000
vn -0.9849 0.1730 -0.0000
vn -0.9909 0.1347 -0.0000
vn 0.0609 0.9981 -0.0000
vn 0.2062 0.9785 -0.0000
vn 0.0646 0.9979 -0.0000
vn 0.1958 0.9806 -0.0000
vn 0.9920 0.1259 -0.0056
vn 0.9984 0.0550 -0.0105
vn 0.9982 0.0589 -0.0102
vn 0.9914 0.1307 -0.0049
vn 0.9998 0.0132 -0.0130
vn 0.9997 0.0188 -0.0175
vn 0.9999 0.0023 -0.0139
vn 0.9999 -0.0006 -0.0106
vn 0.9999 -0.0050 -0.0136
vn 1.0000 -0.0021 -0.0050
vn 1.0000 -0.0013 -0.0026
vn 0.9999 -0.0049 -0.0131
vn 0.9997 -0.0238 -0.0081
vn 0.9997 -0.0233 -0.0074
vn 0.9974 -0.0719 0.0083
vn -0.8394 -0.5419 0.0421
vn -0.9934 -0.1142 0.0081
vn -0.9888 -0.1491 0.0079
vn -0.1723 -0.9850 0.0080
vn -0.5712 -0.8208 -0.0086
vn 0.0286 -0.9996 -0.0062
vn 0.0127 -0.9999 -0.0036
vn 0.0012 -1.0000 -0.0000
vn 0.0001 -1.0000 -0.0000
vn 0.0002 -1.0000 -0.0000
vn -0.9999 0.0077 0.0152
vn -0.9999 0.0046 0.0162
vn -0.9993 -0.0246 0.0271
vn -0.9961 -0.0768 0.0432
vn -0.9963 -0.0750 0.0429
vn -0.9994 -0.0200 0.0274
vn -0.9887 -0.1359 0.0628
vn -0.9814 -0.1751 0.0786
vn -0.9815 -0.1746 0.0782
vn -0.9885 -0.1371 0.0639
vn -0.9792 -0.1855 0.0826
vn -0.9692 -0.2265 0.0963
vn -0.9684 -0.2296 0.0975
vn -0.9791 -0.1858 0.0823
vn -0.9221 -0.3599 0.1422
vn -0.8348 -0.5148 0.1950
vn -0.8303 -0.5212 0.1974
vn -0.9255 -0.3522 0.1395
vn -0.7177 -0.6532 0.2412
vn -0.5825 -0.7642 0.2770
vn -0.5766 -0.7679 0.2788
vn -0.7224 -0.6487 0.2395
vn -0.3762 -0.8728 0.3110
vn -0.1420 -0.9340 0.3277
vn -0.1425 -0.9339 0.3279
vn -0.3800 -0.8714 0.3102
vn 0.0954 -0.9409 0.3249
vn 0.1015 -0.9404 0.3244
vn 0.3578 -0.8843 0.3000
vn 0.3466 -0.8881 0.3018
vn 0.5874 -0.7680 0.2551
vn 0.7947 -0.5779 0.1855
vn 0.7833 -0.5917 0.1906
vn 0.6011 -0.7586 0.2513
vn 0.9198 -0.3756 0.1135
vn 0.9261 -0.3614 0.1083
vn 0.9838 -0.1739 0.0433
vn 0.9825 -0.1808 0.0457
vn 0.9973 -0.0728 0.0085
vn 0.9999 -0.0052 -0.0144
vn 0.9999 -0.0054 -0.0147
vt 0.131141 0.621672
vt 0.148393 0.622293
vt 0.138575 0.620247
vt 0.166514 0.622187
vt 0.166906 0.619974
vt 0.147830 0.624149
vt 0.165877 0.623956
vt 0.167610 0.623801
vt 0.168196 0.622136
vt 0.168879 0.620459
vt 0.176884 0.597043
vt 0.175161 0.606099
vt 0.180019 0.593570
vt 0.184464 0.569464
vt 0.183457 0.581437
vt 0.185069 0.572491
vt 0.163936 0.569518
vt 0.144212 0.568915
vt 0.122604 0.567156
vt 0.103209 0.616592
vt 0.075375 0.559427
vt 0.046976 0.602148
vt 0.099522 0.564056
vt 0.053908 0.554199
vt 0.038864 0.549299
vt 0.025316 0.543825
vt 0.024143 0.546046
vt 0.024048 0.554062
vt 0.024633 0.567892
vt 0.028217 0.591700
vt 0.025715 0.591646
vt 0.025812 0.593424
vt 0.027294 0.594288
vt 0.027524 0.596325
vt 0.025898 0.595223
vt 0.026232 0.600018
vt 0.029450 0.617244
vt 0.041379 0.612911
vt 0.040472 0.603289
vt 0.040301 0.601205
vt 0.072080 0.611545
vt 0.053961 0.606943
vt 0.071975 0.613782
vt 0.054011 0.608795
vt 0.071866 0.623495
vt 0.092044 0.618140
vt 0.111876 0.621514
vt 0.108634 0.642209
vt 0.126054 0.644247
vt 0.130711 0.623617
vt 0.090267 0.638895
vt 0.144987 0.633740
vt 0.141724 0.644638
vt 0.158846 0.639666
vt 0.141110 0.647379
vt 0.157455 0.647160
vt 0.158394 0.644104
vt 0.125575 0.646843
vt 0.159173 0.647140
vt 0.160292 0.643647
vt 0.157163 0.650351
vt 0.158868 0.650617
vt 0.140244 0.666295
vt 0.156148 0.667707
vt 0.140919 0.650170
vt 0.157085 0.675014
vt 0.158173 0.663910
vt 0.150647 0.674554
vt 0.138182 0.686608
vt 0.151778 0.692000
vt 0.152838 0.700641
vt 0.155283 0.687637
vt 0.134517 0.708723
vt 0.146217 0.719759
vt 0.149821 0.712890
vt 0.146072 0.723908
vt 0.139930 0.732695
vt 0.141435 0.733222
vt 0.133802 0.740241
vt 0.134881 0.741292
vt 0.129114 0.731117
vt 0.117527 0.728367
vt 0.113740 0.752299
vt 0.124881 0.747155
vt 0.125382 0.748582
vt 0.113686 0.754043
vt 0.100668 0.754954
vt 0.100543 0.756629
vt 0.086953 0.754377
vt 0.086971 0.756204
vt 0.102322 0.732361
vt 0.072183 0.734576
vt 0.073817 0.750958
vt 0.061260 0.739517
vt 0.062110 0.744704
vt 0.062182 0.746278
vt 0.073991 0.752634
vt 0.052689 0.736222
vt 0.052124 0.737493
vt 0.044125 0.727291
vt 0.045323 0.726552
vt 0.040014 0.716639
vt 0.038491 0.716685
vt 0.034216 0.705094
vt 0.032904 0.696100
vt 0.030290 0.691937
vt 0.027111 0.677781
vt 0.026961 0.665825
vt 0.025072 0.663190
vt 0.032592 0.679970
vt 0.042814 0.694923
vt 0.039657 0.668361
vt 0.052835 0.661569
vt 0.040016 0.643639
vt 0.030130 0.651318
vt 0.053377 0.687421
vt 0.070219 0.656203
vt 0.054893 0.634680
vt 0.069431 0.676952
vt 0.087830 0.680944
vt 0.088658 0.664368
vt 0.069416 0.691778
vt 0.087246 0.695534
vt 0.106153 0.683688
vt 0.104434 0.705461
vt 0.121036 0.704314
vt 0.123303 0.685478
vt 0.124651 0.669842
vt 0.107315 0.665860
vt 0.125412 0.649447
vt 0.108092 0.647483
vt 0.108272 0.644838
vt 0.090046 0.641493
vt 0.089831 0.644201
vt 0.071817 0.634260
vt 0.071510 0.639605
vt 0.071745 0.636937
vt 0.055174 0.629102
vt 0.055193 0.631785
vt 0.042240 0.623789
vt 0.029456 0.620802
vt 0.042214 0.626652
vt 0.041851 0.629463
vt 0.028991 0.624127
vt 0.027876 0.620068
vt 0.027408 0.623235
vt 0.025120 0.637443
vt 0.024348 0.649346
vt 0.027659 0.616069
vt 0.086831 0.717897
vt 0.070166 0.709375
vt 0.054786 0.701779
vt 0.056823 0.715744
vt 0.049631 0.723316
vt 0.043383 0.709547
vt 0.092221 0.616485
vt 0.112168 0.619700
vt 0.255128 0.743265
vt 0.245544 0.776038
vt 0.260505 0.781372
vt 0.258613 0.782338
vt 0.260143 0.782544
vt 0.261788 0.782013
vt 0.244306 0.777375
vt 0.231948 0.773058
vt 0.232574 0.771519
vt 0.220661 0.767270
vt 0.220261 0.768903
vt 0.211837 0.765436
vt 0.209269 0.763181
vt 0.227807 0.736529
vt 0.213199 0.745015
vt 0.215593 0.729495
vt 0.230492 0.718890
vt 0.215634 0.715957
vt 0.214386 0.703736
vt 0.231548 0.695173
vt 0.212910 0.692165
vt 0.231265 0.706783
vt 0.211270 0.681413
vt 0.230924 0.674276
vt 0.209531 0.671648
vt 0.231411 0.684268
vt 0.207904 0.662496
vt 0.229969 0.655542
vt 0.206603 0.653582
vt 0.230354 0.664825
vt 0.205749 0.644371
vt 0.229910 0.636111
vt 0.205464 0.634332
vt 0.229808 0.646086
vt 0.205796 0.623642
vt 0.231356 0.614674
vt 0.206792 0.612479
vt 0.230389 0.625635
vt 0.208194 0.601429
vt 0.232540 0.603784
vt 0.233672 0.593522
vt 0.209743 0.591078
vt 0.211461 0.581614
vt 0.234750 0.583872
vt 0.235777 0.574821
vt 0.213371 0.573224
vt 0.215549 0.564491
vt 0.236689 0.565256
vt 0.237421 0.554067
vt 0.218074 0.553997
vt 0.220832 0.542739
vt 0.238139 0.542059
vt 0.239004 0.530039
vt 0.223707 0.531710
vt 0.225922 0.518327
vt 0.239427 0.515937
vt 0.238818 0.497686
vt 0.226699 0.500008
vt 0.226756 0.477550
vt 0.240189 0.475243
vt 0.229440 0.475785
vt 0.252525 0.477998
vt 0.268341 0.468952
vt 0.251369 0.495396
vt 0.264784 0.493168
vt 0.275419 0.469416
vt 0.281860 0.493394
vt 0.280132 0.471930
vt 0.276617 0.468924
vt 0.275243 0.468170
vt 0.273680 0.468097
vt 0.292126 0.484571
vt 0.291712 0.481841
vt 0.293388 0.483903
vt 0.294171 0.486542
vt 0.293780 0.498155
vt 0.295603 0.499032
vt 0.295413 0.509663
vt 0.281395 0.511669
vt 0.288552 0.524735
vt 0.298069 0.522385
vt 0.285204 0.532338
vt 0.301488 0.535568
vt 0.278743 0.526442
vt 0.267851 0.526251
vt 0.266832 0.511359
vt 0.253030 0.513598
vt 0.253864 0.528257
vt 0.254338 0.541105
vt 0.268320 0.539600
vt 0.282583 0.539703
vt 0.268718 0.553162
vt 0.283693 0.552471
vt 0.287495 0.565755
vt 0.287524 0.555046
vt 0.286881 0.543974
vt 0.283739 0.565606
vt 0.269092 0.576360
vt 0.286898 0.576089
vt 0.268993 0.565795
vt 0.283419 0.585938
vt 0.287492 0.585820
vt 0.290375 0.575686
vt 0.289945 0.585627
vt 0.290734 0.566179
vt 0.289164 0.596254
vt 0.286902 0.596300
vt 0.286155 0.607099
vt 0.288409 0.607148
vt 0.283413 0.596309
vt 0.282409 0.607011
vt 0.281908 0.617723
vt 0.287716 0.617941
vt 0.285439 0.617826
vt 0.284698 0.628845
vt 0.280978 0.628683
vt 0.265240 0.638854
vt 0.280314 0.640191
vt 0.266835 0.617247
vt 0.265950 0.628085
vt 0.264643 0.649308
vt 0.279293 0.651393
vt 0.251575 0.627244
vt 0.250966 0.637686
vt 0.250546 0.647748
vt 0.264092 0.659201
vt 0.250183 0.657437
vt 0.249885 0.667008
vt 0.263081 0.678776
vt 0.263576 0.668900
vt 0.249659 0.676715
vt 0.249250 0.686953
vt 0.262487 0.689295
vt 0.261678 0.700922
vt 0.248400 0.698115
vt 0.260502 0.713171
vt 0.274372 0.715167
vt 0.247014 0.709904
vt 0.276414 0.704075
vt 0.277105 0.692162
vt 0.279286 0.711856
vt 0.279441 0.703466
vt 0.280688 0.692592
vt 0.281576 0.701261
vt 0.282818 0.692240
vt 0.286234 0.692947
vt 0.287996 0.680741
vt 0.283570 0.682686
vt 0.290643 0.684947
vt 0.283375 0.701050
vt 0.281414 0.682171
vt 0.281906 0.672094
vt 0.286991 0.673200
vt 0.284113 0.672641
vt 0.292687 0.664487
vt 0.284684 0.662724
vt 0.285406 0.652319
vt 0.283085 0.651960
vt 0.282446 0.662253
vt 0.286177 0.640779
vt 0.283874 0.640524
vt 0.287039 0.629026
vt 0.309000 0.643755
vt 0.305304 0.655427
vt 0.311255 0.631606
vt 0.311675 0.619400
vt 0.311726 0.607327
vt 0.314179 0.619523
vt 0.313530 0.631839
vt 0.311436 0.644112
vt 0.313934 0.607288
vt 0.325887 0.633311
vt 0.326481 0.620127
vt 0.325311 0.607069
vt 0.328150 0.620217
vt 0.326990 0.607048
vt 0.327545 0.633513
vt 0.322332 0.594355
vt 0.324021 0.594228
vt 0.320003 0.582171
vt 0.318311 0.582387
vt 0.314015 0.571567
vt 0.315692 0.571290
vt 0.311285 0.560371
vt 0.309625 0.560682
vt 0.305323 0.548521
vt 0.306975 0.548203
vt 0.303030 0.535285
vt 0.299719 0.522119
vt 0.297192 0.509703
vt 0.301744 0.573775
vt 0.297971 0.562997
vt 0.292684 0.551034
vt 0.289364 0.553368
vt 0.296252 0.563745
vt 0.299137 0.574287
vt 0.303203 0.584505
vt 0.305900 0.584133
vt 0.295410 0.578124
vt 0.307562 0.595557
vt 0.310012 0.595399
vt 0.323574 0.646404
vt 0.325218 0.646713
vt 0.321400 0.659412
vt 0.319774 0.659000
vt 0.314720 0.670697
vt 0.316325 0.671202
vt 0.310858 0.681828
vt 0.304306 0.690413
vt 0.305863 0.691030
vt 0.309301 0.681259
vt 0.303886 0.667167
vt 0.298644 0.677193
vt 0.292617 0.685595
vt 0.307638 0.655881
vt 0.301670 0.666502
vt 0.296656 0.676466
vt 0.287552 0.694233
vt 0.283909 0.705096
vt 0.289365 0.695233
vt 0.289779 0.707931
vt 0.280356 0.716196
vt 0.275243 0.724046
vt 0.281298 0.731664
vt 0.270515 0.741304
vt 0.258808 0.725555
vt 0.245000 0.722022
vt 0.241504 0.737949
vt 0.287476 0.735009
vt 0.279693 0.770122
vt 0.286478 0.746406
vt 0.289323 0.734609
vt 0.292786 0.722343
vt 0.290935 0.721634
vt 0.295215 0.710126
vt 0.296806 0.710760
vt 0.301219 0.700207
vt 0.299549 0.699527
vt 0.284315 0.756581
vt 0.281985 0.768534
vt 0.280930 0.771099
vt 0.278793 0.772862
vt 0.278958 0.661617
vt 0.278492 0.671415
vt 0.277949 0.681459
vt 0.252507 0.616415
vt 0.253510 0.605649
vt 0.267726 0.606532
vt 0.268456 0.596132
vt 0.254332 0.595397
vt 0.254942 0.585551
vt 0.268939 0.586068
vt 0.255309 0.576004
vt 0.255334 0.565774
vt 0.254919 0.553876
vt 0.963292 0.799426
vt 0.963598 0.798057
vt 0.962400 0.799864
vt 0.960050 0.799812
vt 0.958898 0.798010
vt 0.959180 0.799348
vt 0.959030 0.778324
vt 0.963729 0.778324
vt 0.963836 0.759672
vt 0.959221 0.739502
vt 0.959137 0.759664
vt 0.963920 0.739513
vt 0.963961 0.717938
vt 0.963940 0.695039
vt 0.959241 0.695028
vt 0.959262 0.717927
vt 0.963874 0.673988
vt 0.959174 0.674039
vt 0.959086 0.658194
vt 0.963670 0.642433
vt 0.958923 0.643014
vt 0.963769 0.657958
vt 0.963368 0.640985
vt 0.962485 0.640613
vt 0.960099 0.640953
vt 0.959199 0.641556
vt 0.834907 0.864369
vt 0.828159 0.865628
vt 0.829898 0.872809
vt 0.827282 0.857353
vt 0.836583 0.871565
vt 0.834422 0.856028
vt 0.839100 0.878259
vt 0.832365 0.879507
vt 0.835427 0.886334
vt 0.842110 0.885097
vt 0.838448 0.892945
vt 0.844938 0.891744
vt 0.855841 0.923306
vt 0.850188 0.924353
vt 0.854728 0.934465
vt 0.846322 0.914495
vt 0.851980 0.913448
vt 0.860380 0.933419
vt 0.865225 0.943370
vt 0.859575 0.944415
vt 0.864360 0.953784
vt 0.870003 0.952739
vt 0.874363 0.961469
vt 0.868730 0.962512
vt 0.872335 0.970538
vt 0.877952 0.969499
vt 0.881689 0.977744
vt 0.876118 0.978775
vt 0.881022 0.988131
vt 0.886493 0.987118
vt 0.889159 0.997552
vt 0.889829 0.994696
vt 0.885789 0.995444
vt 0.848952 0.904686
vt 0.840790 0.898995
vt 0.843175 0.905755
vt 0.846911 0.897862
vt 0.834951 0.846854
vt 0.836313 0.837162
vt 0.828131 0.838171
vt 0.827276 0.848146
vt 0.838272 0.825868
vt 0.829272 0.828545
vt 0.830028 0.820396
vt 0.841094 0.808604
vt 0.832102 0.803116
vt 0.830842 0.812370
vt 0.833954 0.791454
vt 0.847565 0.770021
vt 0.837934 0.768452
vt 0.839501 0.760784
vt 0.883155 0.547850
vt 0.882631 0.548458
vt 0.890352 0.552605
vt 0.883989 0.547364
vt 0.890784 0.551829
vt 0.884829 0.546993
vt 0.885358 0.546680
vt 0.891683 0.550184
vt 0.889074 0.547968
vt 0.886920 0.546569
vt 0.891105 0.549491
vt 0.879533 0.554201
vt 0.887401 0.557983
vt 0.884809 0.563034
vt 0.873661 0.566387
vt 0.882199 0.568738
vt 0.876698 0.559792
vt 0.879398 0.576420
vt 0.867051 0.586054
vt 0.876231 0.587400
vt 0.870442 0.574852
vt 0.873667 0.600506
vt 0.863358 0.613151
vt 0.872674 0.614561
vt 0.864390 0.599113
vt 0.872457 0.628761
vt 0.862880 0.640876
vt 0.872217 0.642297
vt 0.863131 0.627345
vt 0.871909 0.655534
vt 0.862116 0.667405
vt 0.871487 0.668838
vt 0.862557 0.654108
vt 0.870625 0.681970
vt 0.859572 0.693245
vt 0.868994 0.694690
vt 0.861231 0.680531
vt 0.866744 0.706531
vt 0.857291 0.705082
vt 0.854539 0.715573
vt 0.864024 0.717025
vt 0.860901 0.726651
vt 0.847896 0.734441
vt 0.857444 0.735889
vt 0.851382 0.725199
vt 0.854103 0.744875
vt 0.844518 0.743429
vt 0.841713 0.752302
vt 0.851325 0.753744
vt 0.849136 0.762222
vt 0.843747 0.792580
s 1
usemtl 1001
f 4/1/1 5/2/2 1/3/3
f 1/3/3 5/2/2 6/4/4
f 6/4/4 3/5/5 1/3/3
f 49/6/6 51/7/7 6/4/4
f 6/4/4 5/2/2 49/6/6
f 51/7/7 59/8/8 7/9/9
f 7/9/9 6/4/4 51/7/7
f 3/5/5 6/4/4 7/9/9
f 7/9/9 8/10/10 3/5/5
f 15/11/11 3/5/5 8/10/10
f 8/10/10 9/12/12 15/11/11
f 15/11/11 9/12/12 10/13/13
f 13/14/14 15/11/11 10/13/13
f 10/13/13 11/15/15 13/14/14
f 13/14/14 11/15/15 12/16/16
s 0
f 15/11/17 13/14/17 14/17/17
f 1/3/18 15/11/18 14/17/18
f 1/3/18 21/18/18 16/19/18
f 14/17/18 21/18/18 1/3/18
f 2/20/18 1/3/18 16/19/18
f 18/21/18 17/22/18 2/20/18
f 16/19/18 20/23/18 2/20/18
f 2/20/18 20/23/18 18/21/18
f 18/21/18 19/24/18 17/22/18
f 17/22/18 19/24/18 22/25/18
f 22/25/19 23/26/19 17/22/19
s 1
f 24/27/20 25/28/21 23/26/22
f 23/26/22 25/28/21 26/29/23
f 36/30/24 23/26/22 26/29/23
f 36/30/24 26/29/23 27/31/25
f 36/30/24 27/31/25 28/32/26
f 28/32/26 34/33/27 36/30/24
f 32/34/28 34/33/27 28/32/26
f 28/32/26 29/35/29 32/34/28
f 32/34/28 29/35/29 30/36/30
f 137/37/31 32/34/28 30/36/30
f 31/38/32 33/39/33 32/34/28
f 34/33/27 32/34/28 33/39/33
f 17/22/34 36/30/24 34/33/27
f 34/33/27 35/40/35 17/22/34
f 33/39/33 35/40/35 34/33/27
f 38/41/36 17/22/34 37/42/37
f 41/43/38 38/41/36 37/42/37
f 37/42/37 40/44/39 41/43/38
f 33/39/33 40/44/39 37/42/37
f 17/22/34 35/40/35 37/42/37
f 37/42/37 35/40/35 33/39/33
f 39/45/40 41/43/38 40/44/39
f 40/44/39 33/39/33 31/38/32
f 42/46/41 41/43/38 39/45/40
f 43/47/42 46/48/43 44/49/44
f 44/49/44 45/50/45 43/47/42
f 47/51/46 46/48/43 43/47/42
f 43/47/42 42/46/41 47/51/46
f 48/52/47 49/6/6 45/50/45
f 4/1/1 45/50/45 49/6/6
f 43/47/42 45/50/45 4/1/1
f 51/7/7 49/6/6 48/52/47
f 48/52/47 45/50/45 44/49/44
f 44/49/44 52/53/48 48/52/47
f 48/52/47 52/53/48 50/54/49
f 50/54/49 51/7/7 48/52/47
f 52/53/48 54/55/50 53/56/51
f 53/56/51 56/57/52 52/53/48
f 55/58/53 54/55/50 52/53/48
f 52/53/48 44/49/44 55/58/53
f 52/53/48 56/57/52 50/54/49
f 56/57/52 53/56/51 58/59/54
f 57/60/55 50/54/49 56/57/52
f 58/59/54 57/60/55 56/57/52
f 57/60/55 59/8/8 50/54/49
f 59/8/8 51/7/7 50/54/49
f 61/61/56 60/62/57 58/59/54
f 58/59/54 53/56/51 61/61/56
f 63/63/58 62/64/59 61/61/56
f 61/61/56 64/65/60 63/63/58
f 65/66/61 66/67/62 62/64/59
f 62/64/59 66/67/62 60/62/57
f 60/62/57 61/61/56 62/64/59
f 67/68/63 62/64/59 63/63/58
f 67/68/63 63/63/58 68/69/64
f 68/69/64 71/70/65 67/68/63
f 71/70/65 62/64/59 67/68/63
f 69/71/66 70/72/67 71/70/65
f 71/70/65 70/72/67 65/66/61
f 65/66/61 62/64/59 71/70/65
f 68/69/64 72/73/68 71/70/65
f 72/73/68 74/74/69 71/70/65
f 74/74/69 73/75/70 69/71/66
f 75/76/71 73/75/70 74/74/69
f 69/71/66 71/70/65 74/74/69
f 79/77/72 76/78/73 75/76/71
f 75/76/71 74/74/69 79/77/72
f 79/77/72 78/79/74 77/80/75
f 77/80/75 76/78/73 79/77/72
f 78/79/74 79/77/72 80/81/76
f 80/81/76 79/77/72 74/74/69
f 80/81/76 82/82/77 81/83/78
f 81/83/78 83/84/79 80/81/76
f 80/81/76 83/84/79 78/79/74
f 72/73/68 80/81/76 74/74/69
f 82/82/77 80/81/76 72/73/68
f 83/84/79 84/85/80 77/80/75
f 85/86/81 84/85/80 83/84/79
f 83/84/79 81/83/78 85/86/81
f 77/80/75 78/79/74 83/84/79
f 85/86/81 81/83/78 88/87/82
f 88/87/82 86/88/83 85/86/81
f 88/87/82 89/89/84 87/90/85
f 87/90/85 86/88/83 88/87/82
f 89/89/84 88/87/82 90/91/86
f 91/92/87 92/93/88 89/89/84
f 94/94/89 93/95/90 92/93/88
f 92/93/88 93/95/90 95/96/91
f 92/93/88 96/97/92 87/90/85
f 87/90/85 89/89/84 92/93/88
f 95/96/91 96/97/92 92/93/88
f 95/96/91 93/95/90 155/98/93
f 155/98/93 97/99/94 95/96/91
f 98/100/95 97/99/94 155/98/93
f 155/98/93 154/101/96 98/100/95
f 98/100/95 154/101/96 99/102/97
f 99/102/97 100/103/98 98/100/95
f 101/104/99 100/103/98 99/102/97
f 99/102/97 102/105/100 101/104/99
f 102/105/100 103/106/101 101/104/99
f 104/107/102 103/106/101 102/105/100
f 108/108/103 105/109/104 104/107/102
f 102/105/100 108/108/103 104/107/102
f 106/110/105 108/108/103 102/105/100
f 106/110/105 107/111/106 109/112/107
f 109/112/107 108/108/103 106/110/105
f 106/110/105 102/105/100 107/111/106
f 112/113/108 115/114/109 109/112/107
f 109/112/107 115/114/109 111/115/110
f 109/112/107 107/111/106 110/116/111
f 110/116/111 112/113/108 109/112/107
f 111/115/110 108/108/103 109/112/107
f 113/117/112 114/118/113 112/113/108
f 116/119/114 113/117/112 112/113/108
f 112/113/108 114/118/113 115/114/109
f 116/119/114 120/120/115 117/121/116
f 117/121/116 113/117/112 116/119/114
f 110/116/111 118/122/117 116/119/114
f 116/119/114 118/122/117 119/123/118
f 116/119/114 112/113/108 110/116/111
f 119/123/118 120/120/115 116/119/114
f 117/121/116 120/120/115 121/124/119
f 121/124/119 120/120/115 119/123/118
f 121/124/119 124/125/120 122/126/121
f 122/126/121 123/127/122 121/124/119
f 125/128/123 126/129/124 121/124/119
f 121/124/119 126/129/124 117/121/116
f 121/124/119 123/127/122 125/128/123
f 119/123/118 124/125/120 121/124/119
f 68/69/64 63/63/58 125/128/123
f 125/128/123 123/127/122 68/69/64
f 126/129/124 125/128/123 127/130/125
f 127/130/125 125/128/123 63/63/58
f 127/130/125 128/131/126 126/129/124
f 63/63/58 64/65/60 127/130/125
f 55/58/53 127/130/125 64/65/60
f 128/131/126 127/130/125 55/58/53
f 55/58/53 129/132/127 128/131/126
f 128/131/126 129/132/127 131/133/128
f 131/133/128 130/134/129 128/131/126
f 46/48/43 47/51/46 131/133/128
f 131/133/128 129/132/127 46/48/43
f 131/133/128 47/51/46 134/135/130
f 146/136/131 130/134/129 131/133/128
f 131/133/128 132/137/132 146/136/131
f 134/135/130 132/137/132 131/133/128
f 134/135/130 135/138/133 133/139/134
f 133/139/134 132/137/132 134/135/130
f 39/45/40 40/44/39 135/138/133
f 135/138/133 134/135/130 39/45/40
f 135/138/133 40/44/39 31/38/32
f 31/38/32 136/140/135 135/138/133
f 136/140/135 137/37/31 139/141/136
f 136/140/135 138/142/137 133/139/134
f 133/139/134 135/138/133 136/140/135
f 139/141/136 138/142/137 136/140/135
f 143/143/138 138/142/137 139/141/136
f 139/141/136 142/144/139 143/143/138
f 142/144/139 139/141/136 141/145/140
f 141/145/140 140/146/141 142/144/139
f 115/114/109 143/143/138 142/144/139
f 144/147/142 142/144/139 140/146/141
f 111/115/110 142/144/139 144/147/142
f 108/108/103 144/147/142 145/148/143
f 145/148/143 105/109/104 108/108/103
f 111/115/110 144/147/142 108/108/103
f 114/118/113 143/143/138 115/114/109
f 113/117/112 146/136/131 114/118/113
f 143/143/138 114/118/113 133/139/134
f 133/139/134 114/118/113 146/136/131
f 130/134/129 146/136/131 113/117/112
f 115/114/109 142/144/139 111/115/110
f 141/145/140 139/141/136 137/37/31
f 137/37/31 147/149/144 141/145/140
f 137/37/31 30/36/30 147/149/144
f 133/139/134 138/142/137 143/143/138
f 31/38/32 32/34/28 137/37/31
f 137/37/31 136/140/135 31/38/32
f 39/45/40 134/135/130 47/51/46
f 146/136/131 132/137/132 133/139/134
f 55/58/53 44/49/44 46/48/43
f 46/48/43 129/132/127 55/58/53
f 126/129/124 128/131/126 130/134/129
f 130/134/129 117/121/116 126/129/124
f 113/117/112 117/121/116 130/134/129
f 148/150/145 90/91/86 124/125/120
f 119/123/118 148/150/145 124/125/120
f 124/125/120 90/91/86 82/82/77
f 82/82/77 122/126/121 124/125/120
f 72/73/68 122/126/121 82/82/77
f 151/151/146 148/150/145 119/123/118
f 119/123/118 118/122/117 151/151/146
f 151/151/146 118/122/117 110/116/111
f 110/116/111 150/152/147 151/151/146
f 151/151/146 150/152/147 149/153/148
f 148/150/145 151/151/146 91/92/87
f 91/92/87 151/151/146 149/153/148
f 107/111/106 150/152/147 110/116/111
f 149/153/148 150/152/147 107/111/106
f 149/153/148 94/94/89 91/92/87
f 152/154/149 94/94/89 149/153/148
f 149/153/148 153/155/150 152/154/149
f 107/111/106 153/155/150 149/153/148
f 153/155/150 154/101/96 152/154/149
f 99/102/97 154/101/96 153/155/150
f 107/111/106 102/105/100 153/155/150
f 153/155/150 102/105/100 99/102/97
f 154/101/96 155/98/93 152/154/149
f 152/154/149 155/98/93 94/94/89
f 91/92/87 89/89/84 148/150/145
f 148/150/145 89/89/84 90/91/86
f 68/69/64 123/127/122 122/126/121
f 122/126/121 72/73/68 68/69/64
f 155/98/93 93/95/90 94/94/89
f 94/94/89 92/93/88 91/92/87
f 90/91/86 88/87/82 81/83/78
f 81/83/78 82/82/77 90/91/86
f 64/65/60 61/61/56 53/56/51
f 53/56/51 54/55/50 64/65/60
f 64/65/60 54/55/50 55/58/53
f 47/51/46 42/46/41 39/45/40
f 41/43/38 42/46/41 156/156/151
f 156/156/151 42/46/41 43/47/42
f 156/156/151 157/157/152 2/20/153
f 43/47/42 157/157/152 156/156/151
f 156/156/151 2/20/153 38/41/36
f 156/156/151 38/41/36 41/43/38
s 0
f 17/22/154 38/41/154 2/20/154
s 1
f 2/20/153 157/157/152 4/1/1
f 4/1/1 157/157/152 43/47/42
s 0
f 17/22/17 23/26/17 36/30/17
s 1
f 49/6/6 5/2/2 4/1/1
f 4/1/1 1/3/3 2/20/153
s 0
f 15/11/18 1/3/18 3/5/18
s 1
f 160/158/155 161/159/156 158/160/157
f 158/160/157 164/161/158 162/162/159
f 162/162/159 163/163/160 158/160/157
f 161/159/156 165/164/161 164/161/158
f 164/161/158 158/160/157 161/159/156
f 166/165/162 165/164/161 161/159/156
f 161/159/156 383/166/163 166/165/162
f 166/165/162 383/166/163 171/167/164
f 171/167/164 167/168/165 166/165/162
f 168/169/166 167/168/165 171/167/164
f 171/167/164 169/170/167 168/169/166
f 170/171/168 172/172/169 169/170/167
f 169/170/167 171/167/164 170/171/168
f 173/173/170 172/172/169 170/171/168
f 173/173/170 170/171/168 174/174/171
f 174/174/171 175/175/172 173/173/170
f 176/176/173 175/175/172 174/174/171
f 177/177/174 179/178/175 176/176/173
f 176/176/173 178/179/176 177/177/174
f 174/174/171 178/179/176 176/176/173
f 180/180/177 179/178/175 177/177/174
f 181/181/178 183/182/179 180/180/177
f 180/180/177 182/183/180 181/181/178
f 177/177/174 182/183/180 180/180/177
f 184/184/181 183/182/179 181/181/178
f 185/185/182 187/186/183 184/184/181
f 184/184/181 186/187/184 185/185/182
f 181/181/178 186/187/184 184/184/181
f 188/188/185 187/186/183 185/185/182
f 189/189/186 191/190/187 188/188/185
f 188/188/185 190/191/188 189/189/186
f 185/185/182 190/191/188 188/188/185
f 192/192/189 191/190/187 189/189/186
f 193/193/190 195/194/191 192/192/189
f 192/192/189 194/195/192 193/193/190
f 189/189/186 194/195/192 192/192/189
f 196/196/193 195/194/191 193/193/190
f 193/193/190 197/197/194 196/196/193
f 196/196/193 197/197/194 198/198/195
f 198/198/195 199/199/196 196/196/193
f 200/200/197 199/199/196 198/198/195
f 198/198/195 201/201/198 200/200/197
f 200/200/197 201/201/198 202/202/199
f 202/202/199 203/203/200 200/200/197
f 204/204/201 203/203/200 202/202/199
f 202/202/199 205/205/202 204/204/201
f 204/204/201 205/205/202 206/206/203
f 206/206/203 207/207/204 204/204/201
f 208/208/205 207/207/204 206/206/203
f 206/206/203 209/209/206 208/208/205
f 208/208/205 209/209/206 210/210/207
f 210/210/207 211/211/208 208/208/205
f 212/212/209 211/211/208 210/210/207
f 210/210/207 213/213/210 212/212/209
f 212/212/209 213/213/210 214/214/211
f 214/214/211 215/215/212 212/212/209
f 216/216/213 215/215/212 214/214/211
f 214/214/211 218/217/214 216/216/213
f 217/218/215 216/216/213 218/217/214
f 219/219/216 227/220/217 217/218/215
f 217/218/215 218/217/214 219/219/216
f 219/219/216 221/221/218 220/222/219
f 214/214/211 221/221/218 219/219/216
f 219/219/216 218/217/214 214/214/211
f 222/223/220 219/219/216 220/222/219
f 220/222/219 223/224/221 222/223/220
f 228/225/222 226/226/223 222/223/220
f 225/227/224 224/228/225 222/223/220
f 222/223/220 224/228/225 227/220/217
f 222/223/220 226/226/223 225/227/224
f 219/219/216 222/223/220 227/220/217
f 222/223/220 233/229/226 228/225/222
f 233/229/226 229/230/227 228/225/222
f 230/231/228 229/230/227 233/229/226
f 233/229/226 231/232/229 230/231/228
f 234/233/230 232/234/231 231/232/229
f 231/232/229 233/229/226 234/233/230
f 223/224/221 234/233/230 233/229/226
f 233/229/226 222/223/220 223/224/221
f 235/235/232 234/233/230 223/224/221
f 223/224/221 240/236/233 235/235/232
f 235/235/232 240/236/233 237/237/234
f 237/237/234 236/238/235 235/235/232
f 237/237/234 238/239/236 239/240/237
f 239/240/237 236/238/235 237/237/234
f 240/236/233 223/224/221 220/222/219
f 238/239/236 237/237/234 240/236/233
f 240/236/233 241/241/238 238/239/236
f 243/242/239 241/241/238 240/236/233
f 220/222/219 242/243/240 240/236/233
f 240/236/233 242/243/240 243/242/239
f 245/244/241 244/245/242 243/242/239
f 243/242/239 244/245/242 247/246/243
f 243/242/239 242/243/240 245/244/241
f 243/242/239 246/247/244 248/248/245
f 247/246/243 246/247/244 243/242/239
f 248/248/245 241/241/238 243/242/239
f 238/239/236 241/241/238 248/248/245
f 249/249/246 250/250/247 248/248/245
f 248/248/245 246/247/244 249/249/246
f 253/251/248 251/252/249 250/250/247
f 250/250/247 251/252/249 252/253/250
f 252/253/250 248/248/245 250/250/247
f 250/250/247 254/254/251 253/251/248
f 255/255/252 259/256/253 254/254/251
f 254/254/251 256/257/254 255/255/252
f 249/249/246 256/257/254 254/254/251
f 254/254/251 250/250/247 249/249/246
f 259/256/253 258/258/255 257/259/256
f 253/251/248 254/254/251 259/256/253
f 261/260/257 259/256/253 257/259/256
f 253/251/248 259/256/253 261/260/257
f 257/259/256 260/261/258 261/260/257
f 261/260/257 262/262/259 253/251/248
f 263/263/260 260/261/258 257/259/256
f 257/259/256 265/264/261 263/263/260
f 266/265/262 264/266/263 263/263/260
f 263/263/260 265/264/261 266/265/262
f 412/267/264 268/268/265 266/265/262
f 266/265/262 265/264/261 412/267/264
f 266/265/262 268/268/265 269/269/266
f 321/270/267 264/266/263 266/265/262
f 266/265/262 267/271/268 321/270/267
f 269/269/266 267/271/268 266/265/262
f 270/272/269 267/271/268 269/269/266
f 269/269/266 271/273/270 270/272/269
f 275/274/271 272/275/272 271/273/270
f 273/276/273 274/277/274 271/273/270
f 271/273/270 269/269/266 273/276/273
f 271/273/270 274/277/274 275/274/271
f 275/274/271 278/278/275 399/279/276
f 399/279/276 272/275/272 275/274/271
f 275/274/271 274/277/274 276/280/277
f 276/280/277 277/281/278 275/274/271
f 275/274/271 277/281/278 279/282/279
f 279/282/279 278/278/275 275/274/271
f 279/282/279 277/281/278 189/189/186
f 280/283/280 278/278/275 279/282/279
f 279/282/279 281/284/281 280/283/280
f 185/185/182 281/284/281 279/282/279
f 189/189/186 190/191/188 279/282/279
f 279/282/279 190/191/188 185/185/182
f 280/283/280 281/284/281 282/285/282
f 282/285/282 281/284/281 185/185/182
f 284/286/283 283/287/284 282/285/282
f 282/285/282 283/287/284 280/283/280
f 282/285/282 285/288/285 284/286/283
f 181/181/178 285/288/285 282/285/282
f 185/185/182 186/187/184 282/285/282
f 282/285/282 186/187/184 181/181/178
f 284/286/283 285/288/285 286/289/286
f 286/289/286 285/288/285 181/181/178
f 286/289/286 287/290/287 284/286/283
f 289/291/288 287/290/287 286/289/286
f 181/181/178 182/183/180 286/289/286
f 286/289/286 182/183/180 177/177/174
f 177/177/174 288/292/289 286/289/286
f 286/289/286 288/292/289 289/291/288
f 289/291/288 290/293/290 293/294/291
f 291/295/292 290/293/290 289/291/288
f 289/291/288 288/292/289 291/295/292
f 289/291/288 294/296/293 292/297/294
f 292/297/294 287/290/287 289/291/288
f 293/294/291 294/296/293 289/291/288
f 294/296/293 293/294/291 295/298/295
f 295/298/295 297/299/296 294/296/293
f 294/296/293 297/299/296 296/300/297
f 296/300/297 292/297/294 294/296/293
f 298/301/298 297/299/296 295/298/295
f 296/300/297 297/299/296 298/301/298
f 298/301/298 299/302/299 296/300/297
f 300/303/300 299/302/299 298/301/298
f 301/304/301 303/305/302 300/303/300
f 300/303/300 302/306/303 301/304/301
f 300/303/300 298/301/298 304/307/304
f 303/305/302 299/302/299 300/303/300
f 303/305/302 305/308/305 296/300/297
f 307/309/306 305/308/305 303/305/302
f 308/310/307 306/311/308 303/305/302
f 303/305/302 306/311/308 307/309/306
f 296/300/297 299/302/299 303/305/302
f 308/310/307 303/305/302 301/304/301
f 309/312/309 310/313/310 308/310/307
f 310/313/310 306/311/308 308/310/307
f 310/313/310 312/314/311 311/315/312
f 311/315/312 313/316/313 310/313/310
f 310/313/310 313/316/313 307/309/306
f 307/309/306 306/311/308 310/313/310
f 311/315/312 312/314/311 316/317/314
f 316/317/314 314/318/315 311/315/312
f 316/317/314 315/319/316 270/272/269
f 270/272/269 314/318/315 316/317/314
f 317/320/317 316/317/314 312/314/311
f 315/319/316 316/317/314 317/320/317
f 317/320/317 312/314/311 318/321/318
f 317/320/317 319/322/319 315/319/316
f 315/319/316 319/322/319 320/323/320
f 264/266/263 321/270/267 320/323/320
f 320/323/320 321/270/267 315/319/316
f 322/324/321 264/266/263 320/323/320
f 320/323/320 323/325/322 322/324/321
f 324/326/323 323/325/322 320/323/320
f 320/323/320 319/322/319 324/326/323
f 317/320/317 325/327/324 324/326/323
f 324/326/323 319/322/319 317/320/317
f 323/325/322 326/328/325 322/324/321
f 323/325/322 324/326/323 327/329/326
f 327/329/326 329/330/327 323/325/322
f 328/331/328 326/328/325 323/325/322
f 323/325/322 329/330/327 328/331/328
f 329/330/327 330/332/92 332/333/329
f 331/334/330 330/332/92 329/330/327
f 329/330/327 327/329/326 331/334/330
f 332/333/329 328/331/328 329/330/327
f 356/335/331 328/331/328 332/333/329
f 332/333/329 333/336/332 356/335/331
f 356/335/331 333/336/332 334/337/333
f 334/337/333 355/338/334 356/335/331
f 343/339/335 355/338/334 334/337/333
f 334/337/333 335/340/336 343/339/335
f 343/339/335 335/340/336 336/341/337
f 336/341/337 342/342/338 343/339/335
f 341/343/339 342/342/338 336/341/337
f 336/341/337 337/344/340 341/343/339
f 341/343/339 337/344/340 338/345/341
f 236/238/235 239/240/237 338/345/341
f 338/345/341 339/346/342 236/238/235
f 338/345/341 239/240/237 341/343/339
f 236/238/235 339/346/342 340/347/343
f 234/233/230 235/235/232 340/347/343
f 340/347/343 232/234/231 234/233/230
f 340/347/343 235/235/232 236/238/235
f 350/348/344 343/339/335 342/342/338
f 342/342/338 345/349/345 350/348/344
f 344/350/346 345/349/345 342/342/338
f 342/342/338 341/343/339 344/350/346
f 239/240/237 238/239/236 344/350/346
f 344/350/346 341/343/339 239/240/237
f 344/350/346 346/351/347 347/352/348
f 347/352/348 345/349/345 344/350/346
f 344/350/346 238/239/236 252/253/250
f 252/253/250 346/351/347 344/350/346
f 262/262/259 347/352/348 346/351/347
f 348/353/349 347/352/348 262/262/259
f 348/353/349 351/354/350 349/355/351
f 349/355/351 350/348/344 348/353/349
f 348/353/349 350/348/344 347/352/348
f 351/354/350 348/353/349 352/356/352
f 353/357/353 263/263/260 264/266/263
f 353/357/353 264/266/263 322/324/321
f 260/261/258 263/263/260 353/357/353
f 353/357/353 351/354/350 260/261/258
f 349/355/351 351/354/350 353/357/353
f 353/357/353 354/358/354 349/355/351
f 322/324/321 354/358/354 353/357/353
f 322/324/321 326/328/325 354/358/354
f 355/338/334 349/355/351 354/358/354
f 350/348/344 349/355/351 355/338/334
f 354/358/354 356/335/331 355/338/334
f 355/338/334 343/339/335 350/348/344
f 328/331/328 356/335/331 354/358/354
f 354/358/354 326/328/325 328/331/328
f 352/356/352 261/260/257 260/261/258
f 260/261/258 351/354/350 352/356/352
f 262/262/259 261/260/257 352/356/352
f 352/356/352 348/353/349 262/262/259
f 251/252/249 346/351/347 252/253/250
f 262/262/259 346/351/347 251/252/249
f 253/251/248 262/262/259 251/252/249
f 350/348/344 345/349/345 347/352/348
f 370/359/355 357/360/83 331/334/330
f 331/334/330 327/329/326 370/359/355
f 358/361/356 357/360/83 370/359/355
f 370/359/355 371/362/357 358/361/356
f 358/361/356 371/362/357 364/363/358
f 364/363/358 359/364/359 358/361/356
f 360/365/360 359/364/359 364/363/358
f 365/366/361 361/367/362 360/365/360
f 360/365/360 362/368/363 365/366/361
f 364/363/358 362/368/363 360/365/360
f 363/369/364 366/370/365 362/368/363
f 362/368/363 364/363/358 363/369/364
f 362/368/363 366/370/365 365/366/361
f 366/370/365 372/371/366 365/366/361
f 367/372/367 368/373/368 363/369/364
f 363/369/364 368/373/368 369/374/369
f 369/374/369 366/370/365 363/369/364
f 367/372/367 318/321/318 368/373/368
f 317/320/317 318/321/318 367/372/367
f 369/374/369 368/373/368 309/312/309
f 309/312/309 368/373/368 318/321/318
f 301/304/301 302/306/303 369/374/369
f 369/374/369 308/310/307 301/304/301
f 309/312/309 308/310/307 369/374/369
f 327/329/326 324/326/323 325/327/324
f 325/327/324 370/359/355 327/329/326
f 371/362/357 370/359/355 325/327/324
f 325/327/324 367/372/367 371/362/357
f 363/369/364 364/363/358 371/362/357
f 371/362/357 367/372/367 363/369/364
f 302/306/303 372/371/366 369/374/369
f 372/371/366 366/370/365 369/374/369
f 373/375/370 372/371/366 302/306/303
f 304/307/304 374/376/371 373/375/370
f 373/375/370 300/303/300 304/307/304
f 302/306/303 300/303/300 373/375/370
f 374/376/371 375/377/372 373/375/370
f 373/375/370 375/377/372 372/371/366
f 365/366/361 372/371/366 375/377/372
f 375/377/372 374/376/371 376/378/373
f 376/378/373 374/376/371 377/379/374
f 377/379/374 379/380/375 378/381/376
f 379/380/375 377/379/374 295/298/295
f 295/298/295 377/379/374 374/376/371
f 295/298/295 293/294/291 379/380/375
f 159/382/377 379/380/375 380/383/378
f 380/383/378 379/380/375 293/294/291
f 293/294/291 290/293/290 380/383/378
f 380/383/378 290/293/290 291/295/292
f 291/295/292 381/384/379 380/383/378
f 380/383/378 160/158/155 159/382/377
f 380/383/378 381/384/379 382/385/380
f 382/385/380 160/158/155 380/383/378
f 382/385/380 381/384/379 174/174/171
f 174/174/171 381/384/379 291/295/292
f 174/174/171 170/171/168 382/385/380
f 383/166/163 382/385/380 170/171/168
f 160/158/155 382/385/380 383/166/163
f 383/166/163 161/159/156 160/158/155
f 170/171/168 171/167/164 383/166/163
f 160/158/155 158/160/157 159/382/377
f 378/381/376 379/380/375 159/382/377
f 378/381/376 159/382/377 384/386/381
f 159/382/377 385/387/382 384/386/381
f 386/388/383 388/389/384 384/386/381
f 384/386/381 388/389/384 389/390/385
f 389/390/385 387/391/386 384/386/381
f 393/392/387 387/391/386 389/390/385
f 389/390/385 390/393/388 393/392/387
f 393/392/387 390/393/388 391/394/389
f 365/366/361 392/395/390 391/394/389
f 391/394/389 361/367/362 365/366/361
f 391/394/389 392/395/390 393/392/387
f 365/366/361 375/377/372 392/395/390
f 392/395/390 375/377/372 376/378/373
f 376/378/373 393/392/387 392/395/390
f 387/391/386 393/392/387 376/378/373
f 378/381/376 384/386/381 387/391/386
f 387/391/386 377/379/374 378/381/376
f 376/378/373 377/379/374 387/391/386
f 385/387/382 394/396/391 386/388/383
f 386/388/383 384/386/381 385/387/382
f 395/397/392 394/396/391 385/387/382
f 396/398/393 395/397/392 385/387/382
f 385/387/382 397/399/394 396/398/393
f 397/399/394 385/387/382 158/160/157
f 159/382/377 158/160/157 385/387/382
f 163/163/160 397/399/394 158/160/157
f 295/298/295 374/376/371 304/307/304
f 367/372/367 325/327/324 317/320/317
f 318/321/318 312/314/311 309/312/309
f 311/315/312 314/318/315 272/275/272
f 272/275/272 314/318/315 270/272/269
f 270/272/269 315/319/316 321/270/267
f 398/400/395 313/316/313 311/315/312
f 307/309/306 313/316/313 398/400/395
f 311/315/312 399/279/276 398/400/395
f 398/400/395 400/401/396 307/309/306
f 280/283/280 398/400/395 399/279/276
f 400/401/396 398/400/395 280/283/280
f 280/283/280 283/287/284 400/401/396
f 400/401/396 283/287/284 284/286/283
f 284/286/283 401/402/397 400/401/396
f 296/300/297 305/308/305 401/402/397
f 401/402/397 305/308/305 307/309/306
f 401/402/397 292/297/294 296/300/297
f 307/309/306 400/401/396 401/402/397
f 292/297/294 401/402/397 284/286/283
f 272/275/272 399/279/276 311/315/312
f 312/314/311 310/313/310 309/312/309
f 304/307/304 298/301/298 295/298/295
f 284/286/283 287/290/287 292/297/294
f 177/177/174 178/179/176 291/295/292
f 291/295/292 288/292/289 177/177/174
f 291/295/292 178/179/176 174/174/171
f 399/279/276 278/278/275 280/283/280
f 189/189/186 277/281/278 276/280/277
f 276/280/277 274/277/274 273/276/273
f 193/193/190 194/195/192 276/280/277
f 276/280/277 402/403/398 193/193/190
f 276/280/277 194/195/192 189/189/186
f 273/276/273 402/403/398 276/280/277
f 193/193/190 402/403/398 403/404/399
f 403/404/399 402/403/398 273/276/273
f 273/276/273 404/405/400 403/404/399
f 403/404/399 404/405/400 405/406/401
f 405/406/401 406/407/402 403/404/399
f 403/404/399 406/407/402 198/198/195
f 403/404/399 197/197/194 193/193/190
f 198/198/195 197/197/194 403/404/399
f 198/198/195 406/407/402 407/408/403
f 407/408/403 406/407/402 405/406/401
f 405/406/401 408/409/404 407/408/403
f 407/408/403 408/409/404 255/255/252
f 255/255/252 409/410/405 407/408/403
f 407/408/403 409/410/405 202/202/199
f 407/408/403 201/201/198 198/198/195
f 202/202/199 201/201/198 407/408/403
f 202/202/199 409/410/405 410/411/406
f 410/411/406 409/410/405 255/255/252
f 255/255/252 256/257/254 410/411/406
f 410/411/406 256/257/254 249/249/246
f 249/249/246 411/412/407 410/411/406
f 410/411/406 411/412/407 206/206/203
f 410/411/406 205/205/202 202/202/199
f 206/206/203 205/205/202 410/411/406
f 206/206/203 411/412/407 247/246/243
f 247/246/243 411/412/407 249/249/246
f 258/258/255 408/409/404 405/406/401
f 255/255/252 408/409/404 258/258/255
f 405/406/401 404/405/400 268/268/265
f 268/268/265 412/267/264 405/406/401
f 405/406/401 412/267/264 258/258/255
f 268/268/265 404/405/400 273/276/273
f 273/276/273 269/269/266 268/268/265
f 270/272/269 271/273/270 272/275/272
f 321/270/267 267/271/268 270/272/269
f 412/267/264 265/264/261 257/259/256
f 257/259/256 258/258/255 412/267/264
f 258/258/255 259/256/253 255/255/252
f 238/239/236 248/248/245 252/253/250
f 249/249/246 246/247/244 247/246/243
f 247/246/243 209/209/206 206/206/203
f 210/210/207 209/209/206 247/246/243
f 247/246/243 244/245/242 210/210/207
f 220/222/219 221/221/218 245/244/241
f 245/244/241 242/243/240 220/222/219
f 245/244/241 221/221/218 214/214/211
f 210/210/207 244/245/242 245/244/241
f 245/244/241 213/213/210 210/210/207
f 214/214/211 213/213/210 245/244/241
s 0
f 424/413/408 422/414/408 423/415/408
f 425/416/409 427/417/409 426/418/409
s 1
f 428/419/410 427/417/411 425/416/412
f 421/420/413 428/419/410 425/416/412
f 425/416/412 422/414/414 421/420/413
f 423/415/415 422/414/414 425/416/412
f 420/421/416 428/419/410 421/420/413
f 429/422/417 438/423/418 420/421/416
f 420/421/416 438/423/418 428/419/410
f 419/424/419 429/422/417 420/421/416
f 418/425/420 429/422/417 419/424/419
f 417/426/421 430/427/422 418/425/420
f 418/425/420 431/428/423 429/422/417
f 430/427/422 431/428/423 418/425/420
f 416/429/424 432/430/425 430/427/422
f 433/431/426 432/430/425 416/429/424
f 433/431/426 413/432/427 434/433/428
f 413/432/427 433/431/426 415/434/429
f 415/434/429 433/431/426 416/429/424
f 413/432/427 414/435/430 434/433/428
f 434/433/428 414/435/430 437/436/431
f 434/433/428 436/437/432 435/438/433
f 437/436/431 436/437/432 434/433/428
f 416/429/424 430/427/422 417/426/421
usemtl 1002
f 444/439/434 442/440/435 443/441/436
f 441/442/437 442/440/435 444/439/434
f 443/441/436 446/443/438 444/439/434
f 444/439/434 445/444/439 441/442/437
f 447/445/440 446/443/438 443/441/436
f 443/441/436 452/446/441 447/445/440
f 447/445/440 452/446/441 449/447/442
f 449/447/442 448/448/443 447/445/440
f 449/447/442 451/449/444 450/450/445
f 450/450/445 448/448/443 449/447/442
f 458/451/446 457/452/446 456/453/447
f 455/454/448 457/452/446 458/451/446
f 458/451/446 459/455/449 455/454/448
f 456/453/447 460/456/450 458/451/446
f 461/457/451 460/456/450 456/453/447
f 456/453/447 462/458/452 461/457/451
f 461/457/451 462/458/452 463/459/453
f 463/459/453 464/460/454 461/457/451
f 465/461/455 464/460/454 463/459/453
f 463/459/453 466/462/456 465/461/455
f 465/461/455 466/462/456 475/463/457
f 475/463/457 467/464/458 465/461/455
f 468/465/459 467/464/458 475/463/457
f 475/463/457 474/466/460 468/465/459
f 468/465/459 474/466/460 470/467/461
f 470/467/461 469/468/462 468/465/459
f 470/467/461 472/469/463 471/470/463
f 471/470/463 469/468/462 470/467/461
f 473/471/463 472/469/463 470/467/461
f 455/454/448 459/455/449 476/472/464
f 453/473/465 454/474/466 476/472/464
f 476/472/464 477/475/467 453/473/465
f 476/472/464 454/474/466 455/454/448
f 453/473/465 477/475/467 450/450/445
f 450/450/445 451/449/444 453/473/465
f 441/442/437 445/444/439 478/476/468
f 478/476/468 479/477/469 440/478/470
f 478/476/468 439/479/471 441/442/437
f 440/478/470 439/479/471 478/476/468
f 440/478/470 479/477/469 480/480/472
f 480/480/472 485/481/473 440/478/470
f 482/482/474 485/481/473 480/480/472
f 482/482/474 480/480/472 481/483/475
f 482/482/476 484/484/477 483/485/478
f 486/486/479 484/484/477 482/482/476
f 482/482/476 488/487/480 486/486/479
f 487/488/481 486/486/479 488/487/480
f 489/489/482 487/488/481 488/487/480
f 512/490/483 510/491/484 509/492/485
f 511/493/486 512/490/483 513/494/487
f 513/494/487 512/490/483 509/492/485
f 513/494/487 514/495/488 511/493/486
f 515/496/489 514/495/488 513/494/487
f 515/496/489 513/494/487 519/497/490
f 519/497/490 516/498/491 515/496/489
s 0
f 517/499/492 515/496/492 516/498/492
f 516/498/18 519/497/18 518/500/18
s 1
f 509/492/485 510/491/484 508/501/493
f 508/501/493 520/502/494 509/492/485
f 521/503/495 520/502/494 508/501/493
f 506/504/496 522/505/497 521/503/495
f 521/503/495 507/506/498 506/504/496
f 508/501/493 507/506/498 521/503/495
f 523/507/499 522/505/497 506/504/496
f 504/508/500 524/509/501 523/507/499
f 523/507/499 505/510/502 504/508/500
f 506/504/496 505/510/502 523/507/499
f 525/511/503 524/509/501 504/508/500
f 502/512/504 526/513/505 525/511/503
f 525/511/503 503/514/506 502/512/504
f 504/508/500 503/514/506 525/511/503
f 527/515/507 526/513/505 502/512/504
f 500/516/508 528/517/509 527/515/507
f 527/515/507 501/518/510 500/516/508
f 502/512/504 501/518/510 527/515/507
f 529/519/511 528/517/509 500/516/508
f 498/520/512 530/521/513 529/519/511
f 529/519/511 499/522/514 498/520/512
f 500/516/508 499/522/514 529/519/511
f 531/523/515 530/521/513 498/520/512
f 496/524/516 532/525/517 531/523/515
f 531/523/515 497/526/518 496/524/516
f 498/520/512 497/526/518 531/523/515
f 533/527/519 532/525/517 496/524/516
f 496/524/516 495/528/520 533/527/519
f 494/529/521 534/530/522 533/527/519
f 533/527/519 495/528/520 494/529/521
f 535/531/523 534/530/522 494/529/521
f 492/532/524 536/533/525 535/531/523
f 535/531/523 493/534/526 492/532/524
f 494/529/521 493/534/526 535/531/523
f 537/535/527 536/533/525 492/532/524
f 537/535/527 491/536/528 490/537/529
f 492/532/524 491/536/528 537/535/527
f 490/537/529 538/538/530 537/535/527
f 539/539/531 538/538/530 490/537/529
f 539/539/531 489/489/482 488/487/480
f 490/537/529 489/489/482 539/539/531
s 0
f 482/482/532 481/483/532 540/540/532
s 1
f 540/540/533 488/487/480 482/482/476
